<?xml version="1.0" encoding="UTF-8" standalone="no"?>
<!-- Generator: Adobe Illustrator 14.0.0, SVG Export Plug-In . SVG Version: 6.00 Build 43363)  -->

<svg
   xmlns:dc="http://purl.org/dc/elements/1.1/"
   xmlns:cc="http://creativecommons.org/ns#"
   xmlns:rdf="http://www.w3.org/1999/02/22-rdf-syntax-ns#"
   xmlns:svg="http://www.w3.org/2000/svg"
   xmlns="http://www.w3.org/2000/svg"
   xmlns:sodipodi="http://sodipodi.sourceforge.net/DTD/sodipodi-0.dtd"
   xmlns:inkscape="http://www.inkscape.org/namespaces/inkscape"
   version="1.1"
   id="Layer_1"
   inkscape:version="0.92.2 (5c3e80d, 2017-08-06)"
   sodipodi:docname="accounts_2019.svg"
   x="0px"
   y="0px"
   width="100"
   height="100"
   viewBox="416.572 -360.945 100 100"
   enable-background="new 416.572 -360.945 595.275 841.89"
   xml:space="preserve"
   inkscape:export-filename="C:\Users\holly.jones\Downloads\volcano_pixelhint_12th_jan-20180116T210822Z-001\volcano_pixelhint_12th_jan\volcano_pixelhint\img\hedges_icon_100_white.png"
   inkscape:export-xdpi="149.93106"
   inkscape:export-ydpi="149.93106"><metadata
     id="metadata326"><rdf:RDF><cc:Work
         rdf:about=""><dc:format>image/svg+xml</dc:format><dc:type
           rdf:resource="http://purl.org/dc/dcmitype/StillImage" /><dc:title /></cc:Work></rdf:RDF></metadata><defs
     id="defs324"><clipPath
       clipPathUnits="userSpaceOnUse"
       id="clipPath1282"><rect
         ry="9.0558882"
         y="-355.80136"
         x="430.07397"
         height="89.648712"
         width="90.322769"
         id="rect1284"
         style="opacity:1;fill:#b8e69a;fill-opacity:1;stroke:none;stroke-width:1.99999988;stroke-linecap:round;stroke-linejoin:round;stroke-miterlimit:8.36363602;stroke-dasharray:none;stroke-opacity:1" /></clipPath></defs><sodipodi:namedview
     id="namedview230"
     inkscape:pageshadow="2"
     inkscape:window-width="1680"
     inkscape:window-height="987"
     inkscape:window-x="-8"
     inkscape:window-y="-8"
     inkscape:current-layer="Layer_1"
     inkscape:pageopacity="0"
     gridtolerance="10"
     inkscape:zoom="2.02"
     inkscape:cy="-42.052193"
     guidetolerance="10"
     bordercolor="#666666"
     showgrid="false"
     borderopacity="1"
     objecttolerance="10"
     inkscape:cx="-22.739886"
     pagecolor="#ffffff"
     inkscape:window-maximized="1"
     inkscape:snap-nodes="false" /><text
     xml:space="preserve"
     style="font-style:normal;font-weight:normal;font-size:40px;line-height:125%;font-family:Sans;letter-spacing:0px;word-spacing:0px;fill:#000000;fill-opacity:1;stroke:none;stroke-width:1px;stroke-linecap:butt;stroke-linejoin:miter;stroke-opacity:1"
     x="566.7934"
     y="-274.51813"
     id="text5063"><tspan
       sodipodi:role="line"
       id="tspan5061"
       x="566.7934"
       y="-239.1275" /></text>
<path
     d="M 1049.2848,-347.50267"
     stroke-miterlimit="10"
     id="path1720"
     inkscape:connector-curvature="0"
     style="fill:none;stroke:#010101;stroke-width:2.76591682;stroke-linejoin:round;stroke-miterlimit:10" /><path
     style="fill:#ffffff;fill-opacity:1;stroke:#424143;stroke-width:2.57640028;stroke-linecap:round;stroke-linejoin:round;stroke-miterlimit:10"
     inkscape:connector-curvature="0"
     d="m 497.6839,-336.02672 c 0.006,13.00421 0.0303,62.11643 0.0319,64.10633 0.003,3.22631 -0.69839,4.65508 -3.48559,4.65668 -2.35477,0.002 -42.64323,0.0216 -55.07967,0.0279 -2.98628,0.0702 -3.62972,-1.2396 -3.63371,-3.42187 -0.0327,-15.65502 -0.16006,-79.75018 -0.0342,-81.58364 0.14095,-2.06174 1.40076,-2.39379 2.56263,-2.39459 1.00179,-8e-4 32.43414,-0.0168 41.26635,-0.0208 2.25205,0.006 3.99524,1.10071 5.16746,2.27566 3.46487,3.46816 10.13024,10.14188 11.32077,11.33438 1.59348,1.5956 1.88335,3.02916 1.88414,5.01986 z"
     stroke-miterlimit="10"
     id="path1418-9" /><path
     style="fill:none;stroke:#424143;stroke-width:2.57640028;stroke-linecap:round;stroke-linejoin:round;stroke-miterlimit:10"
     inkscape:connector-curvature="0"
     d="m 482.22694,-342.44582 c -0.002,2.16152 1.66355,3.29895 3.38842,3.29895 1.72488,0 11.54216,0 11.54216,0 l -14.93058,-14.84485 c 0,7.9e-4 0.002,9.88326 0,11.5459 z"
     stroke-miterlimit="10"
     id="path1421-7" /><text
     style="font-size:44.94680786px;font-family:CenturyGothic;fill:#424143;stroke-width:2.24490166"
     id="text1584"
     font-size="48.736"
     x="442.22455"
     y="-311.90292">£</text>
<g
     aria-label="2019"
     style="font-size:20.02172661px;font-family:CenturyGothic;fill:#424143;stroke-width:1"
     id="text5059"><path
       d="m 447.30305,-288.38752 h -1.37845 q 0.0587,-2.13121 1.41756,-3.49989 1.36867,-1.36867 3.3728,-1.36867 1.98457,0 3.2066,1.28069 1.23181,1.28068 1.23181,3.02085 0,1.22203 -0.58658,2.29742 -0.58657,1.06561 -2.27786,2.89376 l -3.5781,3.86162 h 6.63806 v 1.38822 h -9.76646 l 5.49425,-5.93417 q 1.67173,-1.78905 2.17032,-2.64936 0.50837,-0.87009 0.50837,-1.82816 0,-1.21225 -0.90919,-2.08234 -0.89942,-0.87986 -2.20943,-0.87986 -1.37845,0 -2.29742,0.91897 -0.90919,0.91896 -1.03628,2.58092 z"
       style="font-size:20.02172661px;font-family:CenturyGothic;fill:#424143;stroke-width:1"
       id="path820" /><path
       d="m 456.72734,-285.69905 q 0,-2.84489 0.60613,-4.39931 0.6159,-1.55442 1.73039,-2.35607 1.11449,-0.80165 2.49294,-0.80165 1.398,0 2.53204,0.81143 1.13405,0.80165 1.78906,2.41473 0.66478,1.61308 0.66478,4.33087 0,2.70802 -0.65501,4.31132 -0.64523,1.6033 -1.78905,2.4245 -1.14382,0.81143 -2.54182,0.81143 -1.37845,0 -2.48316,-0.79187 -1.10472,-0.79188 -1.7304,-2.35608 -0.6159,-1.57397 -0.6159,-4.3993 z m 1.3589,0.0293 q 0,2.43428 0.43015,3.68564 0.43993,1.24158 1.29046,1.88681 0.85054,0.64523 1.79883,0.64523 0.95807,0 1.78905,-0.62568 0.83098,-0.63545 1.26114,-1.89659 0.53769,-1.53486 0.53769,-3.69541 0,-2.17033 -0.47904,-3.54878 -0.47903,-1.38822 -1.32956,-2.02368 -0.84076,-0.64523 -1.77928,-0.64523 -0.95807,0 -1.79883,0.64523 -0.84075,0.63546 -1.28068,1.88682 -0.43993,1.24158 -0.43993,3.68564 z"
       style="font-size:20.02172661px;font-family:CenturyGothic;fill:#424143;stroke-width:1"
       id="path822" /><path
       d="m 470.90288,-292.89436 h 2.82533 v 14.38084 h -1.42733 v -12.97306 h -2.25831 z"
       style="font-size:20.02172661px;font-family:CenturyGothic;fill:#424143;stroke-width:1"
       id="path824" /><path
       d="m 482.14555,-278.1518 -1.18292,-0.76254 3.88116,-5.8853 q -0.7821,0.25418 -1.46644,0.25418 -1.71084,0 -2.90354,-1.2318 -1.1927,-1.24158 -1.1927,-3.05019 0,-1.24158 0.5768,-2.23875 0.5768,-0.99718 1.63263,-1.59353 1.06561,-0.59635 2.27786,-0.59635 1.1927,0 2.19966,0.5768 1.01673,0.5768 1.59352,1.61308 0.5768,1.03628 0.5768,2.20943 0,0.88963 -0.36172,1.86726 -0.35194,0.96784 -1.27091,2.33652 z m 1.5642,-7.65479 q 1.26113,0 2.14099,-0.87986 0.88964,-0.88964 0.88964,-2.141 0,-1.25135 -0.88964,-2.13121 -0.87986,-0.88964 -2.14099,-0.88964 -1.25136,0 -2.141,0.88964 -0.87986,0.87986 -0.87986,2.13121 0,1.25136 0.87986,2.141 0.88964,0.87986 2.141,0.87986 z"
       style="font-size:20.02172661px;font-family:CenturyGothic;fill:#424143;stroke-width:1"
       id="path826" /></g></svg>