<?xml version="1.0" encoding="UTF-8" standalone="no"?>
<!-- Generator: Adobe Illustrator 14.0.0, SVG Export Plug-In . SVG Version: 6.00 Build 43363)  -->

<svg
   xmlns:dc="http://purl.org/dc/elements/1.1/"
   xmlns:cc="http://creativecommons.org/ns#"
   xmlns:rdf="http://www.w3.org/1999/02/22-rdf-syntax-ns#"
   xmlns:svg="http://www.w3.org/2000/svg"
   xmlns="http://www.w3.org/2000/svg"
   xmlns:xlink="http://www.w3.org/1999/xlink"
   xmlns:sodipodi="http://sodipodi.sourceforge.net/DTD/sodipodi-0.dtd"
   xmlns:inkscape="http://www.inkscape.org/namespaces/inkscape"
   version="1.1"
   id="Layer_1"
   inkscape:version="0.92.2 (5c3e80d, 2017-08-06)"
   sodipodi:docname="asb.svg"
   x="0px"
   y="0px"
   width="100"
   height="100"
   viewBox="416.572 -360.945 100 100"
   enable-background="new 416.572 -360.945 595.275 841.89"
   xml:space="preserve"
   inkscape:export-filename="C:\Users\holly.jones\Downloads\volcano_pixelhint_12th_jan-20180116T210822Z-001\volcano_pixelhint_12th_jan\volcano_pixelhint\img\hedges_icon_100_white.png"
   inkscape:export-xdpi="149.93106"
   inkscape:export-ydpi="149.93106"><metadata
     id="metadata326"><rdf:RDF><cc:Work
         rdf:about=""><dc:format>image/svg+xml</dc:format><dc:type
           rdf:resource="http://purl.org/dc/dcmitype/StillImage" /><dc:title /></cc:Work></rdf:RDF></metadata><defs
     id="defs324"><clipPath
       clipPathUnits="userSpaceOnUse"
       id="clipPath1282"><rect
         ry="9.0558882"
         y="-355.80136"
         x="430.07397"
         height="89.648712"
         width="90.322769"
         id="rect1284"
         style="opacity:1;fill:#b8e69a;fill-opacity:1;stroke:none;stroke-width:1.99999988;stroke-linecap:round;stroke-linejoin:round;stroke-miterlimit:8.36363602;stroke-dasharray:none;stroke-opacity:1" /></clipPath><clipPath
       id="SVGID_2_"><use
         height="100%"
         width="100%"
         y="0"
         x="0"
         style="overflow:visible"
         xlink:href="#SVGID_1_"
         overflow="visible"
         id="use7" /></clipPath><clipPath
       id="clipPath919"><use
         height="100%"
         width="100%"
         y="0"
         x="0"
         style="overflow:visible"
         xlink:href="#SVGID_1_"
         overflow="visible"
         id="use917" /></clipPath><clipPath
       id="clipPath923"><use
         height="100%"
         width="100%"
         y="0"
         x="0"
         style="overflow:visible"
         xlink:href="#SVGID_1_"
         overflow="visible"
         id="use921" /></clipPath><clipPath
       id="clipPath927"><use
         height="100%"
         width="100%"
         y="0"
         x="0"
         style="overflow:visible"
         xlink:href="#SVGID_1_"
         overflow="visible"
         id="use925" /></clipPath><clipPath
       id="clipPath931"><use
         height="100%"
         width="100%"
         y="0"
         x="0"
         style="overflow:visible"
         xlink:href="#SVGID_1_"
         overflow="visible"
         id="use929" /></clipPath><clipPath
       id="clipPath935"><use
         height="100%"
         width="100%"
         y="0"
         x="0"
         style="overflow:visible"
         xlink:href="#SVGID_1_"
         overflow="visible"
         id="use933" /></clipPath><clipPath
       id="clipPath939"><use
         height="100%"
         width="100%"
         y="0"
         x="0"
         style="overflow:visible"
         xlink:href="#SVGID_1_"
         overflow="visible"
         id="use937" /></clipPath><clipPath
       id="clipPath943"><use
         height="100%"
         width="100%"
         y="0"
         x="0"
         style="overflow:visible"
         xlink:href="#SVGID_1_"
         overflow="visible"
         id="use941" /></clipPath><clipPath
       id="clipPath947"><use
         height="100%"
         width="100%"
         y="0"
         x="0"
         style="overflow:visible"
         xlink:href="#SVGID_1_"
         overflow="visible"
         id="use945" /></clipPath><clipPath
       id="clipPath951"><use
         height="100%"
         width="100%"
         y="0"
         x="0"
         style="overflow:visible"
         xlink:href="#SVGID_1_"
         overflow="visible"
         id="use949" /></clipPath><rect
       x="0"
       id="SVGID_1_"
       y="0"
       width="1400"
       height="980" /><defs
       id="defs5"><rect
         height="980"
         width="1400"
         y="0"
         id="rect1308"
         x="0" /></defs><clipPath
       id="clipPath957"><use
         id="use955"
         overflow="visible"
         xlink:href="#SVGID_1_"
         style="overflow:visible"
         x="0"
         y="0"
         width="100%"
         height="100%" /></clipPath><clipPath
       clipPathUnits="userSpaceOnUse"
       id="clipPath1344"><rect
         ry="26.438665"
         y="525.71936"
         x="572.88977"
         height="256.0376"
         width="260.2121"
         id="rect1346"
         style="opacity:1;fill:#b8e69a;fill-opacity:1;stroke:none;stroke-width:15.00000095;stroke-linecap:round;stroke-linejoin:round;stroke-miterlimit:4;stroke-dasharray:none;stroke-opacity:1" /></clipPath></defs><sodipodi:namedview
     id="namedview230"
     inkscape:pageshadow="2"
     inkscape:window-width="1680"
     inkscape:window-height="987"
     inkscape:window-x="1912"
     inkscape:window-y="23"
     inkscape:current-layer="Layer_1"
     inkscape:pageopacity="0"
     gridtolerance="10"
     inkscape:zoom="0.71417785"
     inkscape:cy="27.056882"
     guidetolerance="10"
     bordercolor="#666666"
     showgrid="false"
     borderopacity="1"
     objecttolerance="10"
     inkscape:cx="65.0992"
     pagecolor="#ffffff"
     inkscape:window-maximized="1"
     inkscape:snap-nodes="false" /><text
     xml:space="preserve"
     style="font-style:normal;font-weight:normal;font-size:40px;line-height:125%;font-family:Sans;letter-spacing:0px;word-spacing:0px;fill:#000000;fill-opacity:1;stroke:none;stroke-width:1px;stroke-linecap:butt;stroke-linejoin:miter;stroke-opacity:1"
     x="566.7934"
     y="-274.51813"
     id="text5063"><tspan
       sodipodi:role="line"
       id="tspan5061"
       x="566.7934"
       y="-239.1275" /></text>
<path
     id="path16"
     d="m 1109.41,231.219 v 0 c 0,0.007 0,-0.012 -0.017,-0.051 -0.01,-0.009 -0.011,-0.023 -0.015,-0.033 0.01,0.016 0.012,0.034 0.018,0.049 0.028,0.07 0.01,0.019 0.014,0.035"
     clip-path="url(#SVGID_2_)"
     inkscape:connector-curvature="0"
     style="fill:#808285"
     transform="translate(-78.477512,144.10401)" /><path
     id="path24"
     d="m 709.605,592.983 c -0.021,0.002 -0.04,0.003 -0.058,0.004 -0.052,0.007 -0.101,0.018 -0.145,0.028 l -0.063,0.017 -0.013,0.004 c 0.005,0 0.011,0 0.015,0 0.222,-0.011 0.39,-0.048 0.264,-0.053"
     clip-path="url(#SVGID_2_)"
     inkscape:connector-curvature="0"
     style="fill:#808285"
     transform="translate(-78.477512,144.10401)" /><path
     id="path28"
     d="m 1146.748,623.797 c 0,0 -0.045,-0.304 -0.123,-0.858 -0.917,6.66 0.123,0.858 0.123,0.858"
     clip-path="url(#SVGID_2_)"
     inkscape:connector-curvature="0"
     style="fill:#808285"
     transform="translate(-78.477512,144.10401)" /><g
     transform="translate(-579.03169,147.35804)"
     id="g1386"><path
       inkscape:connector-curvature="0"
       style="fill:#ffffff;fill-opacity:1;stroke:#424143;stroke-width:2.5;stroke-linecap:butt;stroke-linejoin:round;stroke-miterlimit:4;stroke-dasharray:none;stroke-opacity:1"
       d="m 1008.7228,-503.84796 c -0.081,0 -0.1596,0.01 -0.2402,0.0117 l 20.9707,39.4043 -0.248,-14.85156 7.1777,2.9707 1.3672,-27.53516 z"
       id="path1472-3" /><path
       inkscape:connector-curvature="0"
       style="fill:#ffffff;fill-opacity:1;stroke:#424143;stroke-width:2.5;stroke-linecap:butt;stroke-linejoin:round;stroke-miterlimit:4;stroke-dasharray:none;stroke-opacity:1"
       d="m 1042.8478,-503.84796 0.4668,33.72266 3.0645,-33.72266 z"
       id="path1474-8" /><path
       inkscape:connector-curvature="0"
       style="fill:#ffffff;fill-opacity:1;stroke:#424143;stroke-width:2.5;stroke-linecap:butt;stroke-linejoin:round;stroke-miterlimit:4;stroke-dasharray:none;stroke-opacity:1"
       d="m 1055.6642,-503.84796 -6.9043,33.47657 7.92,-4.70313 -3.7129,10.64258 19.5547,-23.26758 v 6.93164 l 19.2929,-14.82617 c -0.5657,-4.66234 -4.5082,-8.25391 -9.3281,-8.25391 z"
       id="path1476-0" /><path
       inkscape:connector-curvature="0"
       style="fill:#ffffff;fill-opacity:1;stroke:#424143;stroke-width:2.5;stroke-linecap:butt;stroke-linejoin:round;stroke-miterlimit:4;stroke-dasharray:none;stroke-opacity:1"
       d="m 1091.8908,-481.33428 -31.0019,17.15039 31.0019,-0.43555 z"
       id="path1478-1" /><path
       inkscape:connector-curvature="0"
       style="fill:#ffffff;fill-opacity:1;stroke:#424143;stroke-width:2.5;stroke-linecap:butt;stroke-linejoin:round;stroke-miterlimit:4;stroke-dasharray:none;stroke-opacity:1"
       d="m 1045.0471,-449.82647 -3.8672,37.06836 h 15.164 l -4.3672,-18.50391 -3.9589,6.92969 z"
       id="path1480-4" /><path
       inkscape:connector-curvature="0"
       style="fill:#ffffff;fill-opacity:1;stroke:#424143;stroke-width:2.5;stroke-linecap:butt;stroke-linejoin:round;stroke-miterlimit:4;stroke-dasharray:none;stroke-opacity:1"
       d="m 1035.1467,-446.85772 -15.8418,17.82226 0.9902,-13.86132 -20.97852,17.64453 v 3.08789 c 0,5.21089 4.19532,9.40625 9.40622,9.40625 h 22.8711 z"
       id="path1482-8" /><path
       inkscape:connector-curvature="0"
       style="fill:#ffffff;fill-opacity:1;stroke:#424143;stroke-width:2.5;stroke-linecap:butt;stroke-linejoin:round;stroke-miterlimit:4;stroke-dasharray:none;stroke-opacity:1"
       d="m 1056.6799,-436.46124 6.2754,23.70313 h 5.3652 z"
       id="path1484-5" /><path
       inkscape:connector-curvature="0"
       style="fill:#ffffff;fill-opacity:1;stroke:#424143;stroke-width:2.5;stroke-linecap:butt;stroke-linejoin:round;stroke-miterlimit:4;stroke-dasharray:none;stroke-opacity:1"
       d="m 999.84198,-497.52569 c -0.33387,0.96669 -0.5254,2.001 -0.5254,3.08398 v 38.58789 l 20.23442,-7.58789 -6.4356,-5.44531 7.9219,0.99024 z"
       id="path1486-2" /><path
       inkscape:connector-curvature="0"
       style="fill:#ffffff;fill-opacity:1;stroke:#424143;stroke-width:2.5;stroke-linecap:butt;stroke-linejoin:round;stroke-miterlimit:4;stroke-dasharray:none;stroke-opacity:1"
       d="m 1021.5314,-457.5003 -22.21482,5.33008 v 13.21875 z"
       id="path1488-0" /><path
       inkscape:connector-curvature="0"
       style="fill:#ffffff;fill-opacity:1;stroke:#424143;stroke-width:2.5;stroke-linecap:butt;stroke-linejoin:round;stroke-miterlimit:4;stroke-dasharray:none;stroke-opacity:1"
       d="m 1091.8908,-458.76788 -30.5078,2.50586 30.5078,14.25 z"
       id="path1470-3" /><path
       inkscape:connector-curvature="0"
       style="fill:#ffffff;fill-opacity:1;stroke:#424143;stroke-width:2.5;stroke-linecap:butt;stroke-linejoin:round;stroke-miterlimit:4;stroke-dasharray:none;stroke-opacity:1"
       d="m 1053.215,-448.83819 27.791,36.08008 h 1.4805 c 3.9361,0 7.2886,-2.39552 8.6953,-5.8125 l 0.6836,-3.08008 c 0.01,-0.17103 0.025,-0.34028 0.025,-0.51367 v -10.63086 l -27.041,-16.04297 9.4043,15.09961 z"
       id="path1468-2" /><path
       inkscape:connector-curvature="0"
       id="path1422-2"
       d="m 1040.7363,-412.83622 c 0.07,-0.37438 0.6087,-5.38571 1.1966,-11.13627 0.5879,-5.75057 1.1389,-10.37309 1.2244,-10.27228 0.1318,0.1552 1.4847,11.25267 1.4763,12.10869 0,0.52203 0.7585,1.06966 1.4915,1.06966 0.6335,0 0.8447,-0.22223 1.8229,-1.91832 0.6085,-1.05507 1.1992,-2.0695 1.3126,-2.25427 0.13,-0.21169 0.7467,1.98569 1.6674,5.94059 0.8036,3.4521 1.5106,6.47148 1.5712,6.70972 0.1025,0.40366 -0.2988,0.43317 -5.8904,0.43317 h -6.0004 z"
       style="opacity:1;fill:#b8e69a;fill-opacity:1;stroke:none;stroke-width:2.5;stroke-linecap:round;stroke-linejoin:round;stroke-miterlimit:4;stroke-dasharray:none;stroke-opacity:1" /><path
       inkscape:connector-curvature="0"
       id="path1424-8"
       d="m 1063.1371,-413.87137 c -0.1318,-0.51052 -0.5816,-2.21838 -0.9996,-3.79525 -0.418,-1.57688 -0.7542,-3.02489 -0.747,-3.21783 0.014,-0.36351 3.5004,6.39963 3.8072,7.38437 0.1602,0.51411 0.097,0.55693 -0.8237,0.55693 -0.9448,0 -1.0099,-0.0489 -1.2369,-0.92822 z"
       style="opacity:1;fill:#f3ba93;fill-opacity:1;stroke:none;stroke-width:2.5;stroke-linecap:round;stroke-linejoin:round;stroke-miterlimit:4;stroke-dasharray:none;stroke-opacity:1" /><path
       inkscape:connector-curvature="0"
       id="path1426-8"
       d="m 1069.2324,-426.2684 c -5.829,-7.56915 -10.5627,-13.79749 -10.5194,-13.84076 0.043,-0.0433 3.0164,2.02856 6.6069,4.60404 6.7791,4.86257 7.6094,5.28876 8.19,4.20393 0.1409,-0.26333 0.2562,-0.65309 0.2562,-0.86615 0,-0.21306 -1.442,-2.69544 -3.2045,-5.5164 -1.7624,-2.82096 -3.1724,-5.16104 -3.1333,-5.20018 0.039,-0.0391 4.8203,2.74224 10.6249,6.18082 l 10.5537,6.25198 0.01,5.24771 c 0.01,5.66128 -0.2029,7.28672 -1.1462,8.92772 -1.2171,2.11728 -4.1243,3.77065 -6.6285,3.76975 l -1.007,-3.7e-4 z"
       style="opacity:1;fill:#f3ba93;fill-opacity:1;stroke:none;stroke-width:2.5;stroke-linecap:round;stroke-linejoin:round;stroke-miterlimit:4;stroke-dasharray:none;stroke-opacity:1" /><path
       inkscape:connector-curvature="0"
       id="path1428-9"
       d="m 1076.3608,-448.15374 c -6.2965,-2.94732 -11.4481,-5.42927 -11.4481,-5.51544 0,-0.0862 4.539,-0.52289 10.0867,-0.97049 5.5476,-0.4476 10.7828,-0.87693 11.6336,-0.95407 l 1.5471,-0.14025 v 6.47143 c 0,3.55929 -0.083,6.47057 -0.1857,6.46952 -0.1021,-10e-4 -5.3372,-2.41337 -11.6336,-5.3607 z"
       style="opacity:1;fill:#f3ba93;fill-opacity:1;stroke:none;stroke-width:2.5;stroke-linecap:round;stroke-linejoin:round;stroke-miterlimit:4;stroke-dasharray:none;stroke-opacity:1" /><path
       inkscape:connector-curvature="0"
       id="path1430-5"
       d="m 1065.0001,-463.60553 c 0.096,-0.0956 5.4405,-3.08462 11.8775,-6.64233 l 11.7038,-6.46856 0.066,6.41493 c 0.036,3.52822 0.036,6.43915 0,6.46874 -0.1831,0.14906 -23.7961,0.37595 -23.6473,0.22722 z"
       style="opacity:1;fill:#f3ba93;fill-opacity:1;stroke:none;stroke-width:2.5;stroke-linecap:round;stroke-linejoin:round;stroke-miterlimit:4;stroke-dasharray:none;stroke-opacity:1" /><path
       sodipodi:nodetypes="cccscccccscscsccscc"
       inkscape:connector-curvature="0"
       id="path1432-2"
       d="m 1054.4079,-470.14439 c 0,-0.16385 0.2228,-0.88388 0.495,-1.60007 0.6455,-1.69828 0.6254,-2.31929 -0.09,-2.78818 -0.7336,-0.48066 -1.0792,-0.35636 -4.0962,1.47301 -1.2689,0.76943 -2.3588,1.3472 -2.4221,1.28392 -0.086,-0.086 4.948,-25.10088 5.7495,-28.57029 l 0.1309,-0.56671 13.7923,0.0717 c 12.6454,0.0657 13.8747,0.10863 14.7825,0.51628 2.2786,1.02325 3.3356,1.8791 4.055,3.9369 l 0.3288,0.94026 -8.0431,6.18812 c -4.4238,3.40347 -6.3445,5.0495 -6.4618,5.09488 -0.1172,0.0454 -1.3888,1.05971 -1.3888,-0.24182 0,-2.23728 -0.033,-2.38806 -0.6057,-2.76322 -0.5175,-0.3391 -1.1297,-0.65833 -1.6641,-0.377 -0.3439,0.18108 -4.0104,4.19061 -7.7696,8.68319 -7.6676,9.16343 -6.7923,9.13576 -6.7923,8.71906 z"
       style="opacity:1;fill:#f3ba93;fill-opacity:1;stroke:none;stroke-width:2.5;stroke-linecap:round;stroke-linejoin:round;stroke-miterlimit:4;stroke-dasharray:none;stroke-opacity:1" /><path
       inkscape:connector-curvature="0"
       id="path1434-9"
       d="m 1043.908,-497.8189 c 0,-1.66577 0.064,-1.9802 0.4036,-1.9802 0.3287,0 0.3752,0.17234 0.2503,0.92822 -0.084,0.51052 -0.1547,1.40161 -0.1562,1.9802 0,0.57859 -0.1141,1.05198 -0.2502,1.05198 -0.1444,0 -0.2475,-0.82508 -0.2475,-1.9802 z"
       style="opacity:1;fill:#f3ba93;fill-opacity:1;stroke:none;stroke-width:2.5;stroke-linecap:round;stroke-linejoin:round;stroke-miterlimit:4;stroke-dasharray:none;stroke-opacity:1" /><path
       inkscape:connector-curvature="0"
       id="path1438-2"
       d="m 998.59111,-473.87319 c 0,-15.17251 0.0537,-18.03292 0.33304,-17.72895 0.18318,0.19935 4.13615,5.68225 8.78435,12.18423 l 8.4512,11.82179 -0.9254,-0.13456 c -4.4542,-0.64765 -5.1296,-0.5883 -5.3962,0.47421 -0.2143,0.85358 -0.03,1.0878 2.5525,3.23731 1.2593,1.0483 2.2879,1.98001 2.2858,2.07046 0,0.0904 -3.6221,1.51501 -8.0446,3.16568 l -8.04069,3.00123 z"
       style="opacity:1;fill:#f3ba93;fill-opacity:1;stroke:none;stroke-width:2.5;stroke-linecap:round;stroke-linejoin:round;stroke-miterlimit:4;stroke-dasharray:none;stroke-opacity:1" /><path
       inkscape:connector-curvature="0"
       id="path1440-1"
       d="m 998.52369,-443.72935 0.0674,-4.63826 7.54611,-1.80252 c 4.1503,-0.99139 7.5725,-1.77604 7.6049,-1.74367 0.05,0.0504 -12.9825,11.01093 -14.68714,12.35177 l -0.59872,0.47095 z"
       style="opacity:1;fill:#f3ba93;fill-opacity:1;stroke:none;stroke-width:2.5;stroke-linecap:round;stroke-linejoin:round;stroke-miterlimit:4;stroke-dasharray:none;stroke-opacity:1" /><path
       inkscape:connector-curvature="0"
       id="path1420-4"
       d="m 1003.9156,-413.1979 c -1.8146,-0.69653 -3.96236,-2.82979 -4.5577,-4.52694 -0.23878,-0.68069 -0.49577,-2.13919 -0.57107,-3.24112 l -0.13693,-2.00349 9.0021,-7.57057 c 4.9512,-4.16381 9.0399,-7.53287 9.086,-7.48678 0.046,0.0461 -0.092,2.43436 -0.3063,5.30729 -0.2146,2.87292 -0.3901,5.32556 -0.3901,5.45031 0,0.45218 0.793,1.00474 1.4409,1.004 0.5576,-6.4e-4 1.7068,-1.17764 7.2225,-7.39715 3.6076,-4.06801 6.5937,-7.30637 6.6356,-7.19635 0.082,0.21603 -2.6145,26.72972 -2.8125,27.65119 l -0.1197,0.55693 -11.5671,-0.0129 c -11.1514,-0.0124 -11.6159,-0.0316 -12.9257,-0.53442 z"
       style="opacity:1;fill:#f3ba93;fill-opacity:1;stroke:none;stroke-width:2.5;stroke-linecap:round;stroke-linejoin:round;stroke-miterlimit:4;stroke-dasharray:none;stroke-opacity:1" /><path
       inkscape:connector-curvature="0"
       id="path1436-9"
       d="m 1017.6505,-484.5028 -8.5706,-16.14282 12.6319,-0.0641 c 6.9475,-0.0353 12.6842,-0.0117 12.7483,0.0524 0.064,0.0641 -0.1483,5.51006 -0.4721,12.10212 l -0.5887,11.98555 -2.9178,-1.19907 c -3.2242,-1.32502 -3.9731,-1.33765 -4.2906,-0.0724 -0.092,0.36769 -0.093,2.65504 0,5.08302 0.091,2.42796 0.1357,4.41082 0.099,4.40633 -0.037,-0.004 -3.9235,-7.27244 -8.6373,-16.15099 z"
       style="opacity:1;fill:#f3ba93;fill-opacity:1;stroke:none;stroke-width:2.5;stroke-linecap:round;stroke-linejoin:round;stroke-miterlimit:4;stroke-dasharray:none;stroke-opacity:1" /><path
       inkscape:connector-curvature="0"
       id="path1361-9"
       d="m 1008.7228,-503.84796 c -0.081,0 -0.1596,0.01 -0.2402,0.0117 l 20.9707,39.4043 -0.248,-14.85156 7.1777,2.9707 1.3672,-27.53516 z"
       style="fill:none;stroke:#424143;stroke-width:2.5;stroke-linecap:butt;stroke-linejoin:round;stroke-miterlimit:4;stroke-dasharray:none;stroke-opacity:1" /><path
       inkscape:connector-curvature="0"
       id="path1363-4"
       d="m 1042.8478,-503.84796 0.4668,33.72266 3.0645,-33.72266 z"
       style="fill:none;stroke:#424143;stroke-width:2.5;stroke-linecap:butt;stroke-linejoin:round;stroke-miterlimit:4;stroke-dasharray:none;stroke-opacity:1" /><path
       inkscape:connector-curvature="0"
       id="path1365-1"
       d="m 1055.6642,-503.84796 -6.9043,33.47657 7.92,-4.70313 -3.7129,10.64258 19.5547,-23.26758 v 6.93164 l 19.2929,-14.82617 c -0.5657,-4.66234 -4.5082,-8.25391 -9.3281,-8.25391 z"
       style="fill:none;stroke:#424143;stroke-width:2.5;stroke-linecap:butt;stroke-linejoin:round;stroke-miterlimit:4;stroke-dasharray:none;stroke-opacity:1" /><path
       inkscape:connector-curvature="0"
       id="path1367-8"
       d="m 1091.8908,-481.33428 -31.0019,17.15039 31.0019,-0.43555 z"
       style="fill:none;stroke:#424143;stroke-width:2.5;stroke-linecap:butt;stroke-linejoin:round;stroke-miterlimit:4;stroke-dasharray:none;stroke-opacity:1" /><path
       inkscape:connector-curvature="0"
       id="path1369-6"
       d="m 1045.0471,-449.82647 -3.8672,37.06836 h 15.164 l -4.3672,-18.50391 -3.9589,6.92969 z"
       style="fill:#f3ba93;fill-opacity:1;stroke:#424143;stroke-width:2.5;stroke-linecap:butt;stroke-linejoin:round;stroke-miterlimit:4;stroke-dasharray:none;stroke-opacity:1" /><path
       inkscape:connector-curvature="0"
       id="path1371-8"
       d="m 1035.1467,-446.85772 -15.8418,17.82226 0.9902,-13.86132 -20.97852,17.64453 v 3.08789 c 0,5.21089 4.19532,9.40625 9.40622,9.40625 h 22.8711 z"
       style="fill:none;stroke:#424143;stroke-width:2.5;stroke-linecap:butt;stroke-linejoin:round;stroke-miterlimit:4;stroke-dasharray:none;stroke-opacity:1" /><path
       inkscape:connector-curvature="0"
       id="path1373-2"
       d="m 1056.6799,-436.46124 6.2754,23.70313 h 5.3652 z"
       style="fill:none;stroke:#424143;stroke-width:2.5;stroke-linecap:butt;stroke-linejoin:round;stroke-miterlimit:4;stroke-dasharray:none;stroke-opacity:1" /><path
       inkscape:connector-curvature="0"
       id="path1375-6"
       d="m 1053.215,-448.83819 27.791,36.08008 h 1.4805 c 3.9361,0 7.2886,-2.39552 8.6953,-5.8125 l 0.6836,-3.08008 c 0.01,-0.17103 0.025,-0.34028 0.025,-0.51367 v -10.63086 l -27.041,-16.04297 9.4043,15.09961 z"
       style="fill:none;stroke:#424143;stroke-width:2.5;stroke-linecap:butt;stroke-linejoin:round;stroke-miterlimit:4;stroke-dasharray:none;stroke-opacity:1" /><path
       inkscape:connector-curvature="0"
       id="path1377-9"
       d="m 1091.8908,-458.76788 -30.5078,2.50586 30.5078,14.25 z"
       style="fill:none;stroke:#424143;stroke-width:2.5;stroke-linecap:butt;stroke-linejoin:round;stroke-miterlimit:4;stroke-dasharray:none;stroke-opacity:1" /><path
       inkscape:connector-curvature="0"
       id="path1379-5"
       d="m 999.84198,-497.52569 c -0.33387,0.96669 -0.5254,2.001 -0.5254,3.08398 v 38.58789 l 20.23442,-7.58789 -6.4356,-5.44531 7.9219,0.99024 z"
       style="fill:none;stroke:#424143;stroke-width:2.5;stroke-linecap:butt;stroke-linejoin:round;stroke-miterlimit:4;stroke-dasharray:none;stroke-opacity:1" /><path
       inkscape:connector-curvature="0"
       id="path1381-7"
       d="m 1021.5314,-457.5003 -22.21482,5.33008 v 13.21875 z"
       style="fill:none;stroke:#424143;stroke-width:2.5;stroke-linecap:butt;stroke-linejoin:round;stroke-miterlimit:4;stroke-dasharray:none;stroke-opacity:1" /></g></svg>