<?xml version="1.0" encoding="UTF-8" standalone="no"?>
<!-- Generator: Adobe Illustrator 14.0.0, SVG Export Plug-In . SVG Version: 6.00 Build 43363)  -->

<svg
   xmlns:dc="http://purl.org/dc/elements/1.1/"
   xmlns:cc="http://creativecommons.org/ns#"
   xmlns:rdf="http://www.w3.org/1999/02/22-rdf-syntax-ns#"
   xmlns:svg="http://www.w3.org/2000/svg"
   xmlns="http://www.w3.org/2000/svg"
   xmlns:sodipodi="http://sodipodi.sourceforge.net/DTD/sodipodi-0.dtd"
   xmlns:inkscape="http://www.inkscape.org/namespaces/inkscape"
   version="1.1"
   id="Layer_1"
   inkscape:version="0.92.2 (5c3e80d, 2017-08-06)"
   sodipodi:docname="bin_lorry.svg"
   x="0px"
   y="0px"
   width="100"
   height="100"
   viewBox="416.572 -360.945 100 100"
   enable-background="new 416.572 -360.945 595.275 841.89"
   xml:space="preserve"
   inkscape:export-filename="C:\Users\holly.jones\Downloads\volcano_pixelhint_12th_jan-20180116T210822Z-001\volcano_pixelhint_12th_jan\volcano_pixelhint\img\hedges_icon_100_white.png"
   inkscape:export-xdpi="149.93106"
   inkscape:export-ydpi="149.93106"><metadata
     id="metadata326"><rdf:RDF><cc:Work
         rdf:about=""><dc:format>image/svg+xml</dc:format><dc:type
           rdf:resource="http://purl.org/dc/dcmitype/StillImage" /><dc:title /></cc:Work></rdf:RDF></metadata><defs
     id="defs324"><clipPath
       clipPathUnits="userSpaceOnUse"
       id="clipPath1282"><rect
         ry="9.0558882"
         y="-355.80136"
         x="430.07397"
         height="89.648712"
         width="90.322769"
         id="rect1284"
         style="opacity:1;fill:#b8e69a;fill-opacity:1;stroke:none;stroke-width:1.99999988;stroke-linecap:round;stroke-linejoin:round;stroke-miterlimit:8.36363602;stroke-dasharray:none;stroke-opacity:1" /></clipPath></defs><sodipodi:namedview
     id="namedview230"
     inkscape:pageshadow="2"
     inkscape:window-width="1680"
     inkscape:window-height="987"
     inkscape:window-x="1912"
     inkscape:window-y="23"
     inkscape:current-layer="Layer_1"
     inkscape:pageopacity="0"
     gridtolerance="10"
     inkscape:zoom="0.505"
     inkscape:cy="104.1785"
     guidetolerance="10"
     bordercolor="#666666"
     showgrid="false"
     borderopacity="1"
     objecttolerance="10"
     inkscape:cx="-199.33101"
     pagecolor="#ffffff"
     inkscape:window-maximized="1"
     inkscape:snap-nodes="false" /><text
     xml:space="preserve"
     style="font-style:normal;font-weight:normal;font-size:40px;line-height:125%;font-family:Sans;letter-spacing:0px;word-spacing:0px;fill:#000000;fill-opacity:1;stroke:none;stroke-width:1px;stroke-linecap:butt;stroke-linejoin:miter;stroke-opacity:1"
     x="566.7934"
     y="-274.51813"
     id="text5063"><tspan
       sodipodi:role="line"
       id="tspan5061"
       x="566.7934"
       y="-239.1275" /></text>
<g
     style="fill:#424143;fill-opacity:1;stroke:#424143;stroke-width:5.86936426;stroke-opacity:1"
     id="g155"
     transform="matrix(0.20391828,0,0,0.14235141,389.91887,-364.45354)" /><g
     style="stroke-width:4.90392542;fill:#424143;fill-opacity:1;stroke:#424143;stroke-opacity:1"
     id="g163"
     transform="matrix(0.20391828,0,0,0.20391828,389.91887,-397.77964)" /><g
     id="g1542"><path
       sodipodi:nodetypes="ccccc"
       style="fill:#ffffff;stroke:#424143;stroke-width:2.49999976;stroke-linecap:butt;stroke-linejoin:round;stroke-miterlimit:4;stroke-dasharray:none;stroke-opacity:1;fill-opacity:1"
       d="m 442.32395,-331.10117 43.22246,0.0309 v 26.84954 l -51.05297,-0.0309 z"
       id="path1514"
       inkscape:connector-curvature="0" /><path
       style="fill:#ffffff;stroke:#424143;stroke-width:2.49999976;stroke-linecap:butt;stroke-linejoin:round;stroke-miterlimit:4;stroke-dasharray:none;stroke-opacity:1;fill-opacity:1"
       d="m 437.41528,-331.80159 -11.57046,41.67516 -6.5449,-10.38961 15.42727,-31.34392 z"
       id="path1516"
       inkscape:connector-curvature="0"
       sodipodi:nodetypes="ccccc" /><path
       style="fill:#ffffff;stroke:#424143;stroke-width:2.49999976;stroke-linecap:butt;stroke-linejoin:round;stroke-miterlimit:4;stroke-dasharray:none;stroke-opacity:1;fill-opacity:1"
       d="M 490.35888,-298.88171 V -325.848 h 13.79105 l 8.298,18.211 v 12.37413 h 1.86998 v 6.30381 h -10.40172 c -1.7846,-6.68576 -5.85815,-10.54376 -13.55731,-9.92265 z"
       id="path1518"
       inkscape:connector-curvature="0"
       sodipodi:nodetypes="ccccccccc" /><path
       inkscape:connector-curvature="0"
       id="path1506"
       d="m 421.39992,-295.19989 c -1.25556,-1.99401 -2.28588,-3.6556 -2.2896,-3.69241 -0.004,-0.0368 3.30568,-6.79857 7.35421,-15.02612 5.86651,-11.9221 7.38438,-14.95918 7.47632,-14.95918 0.0811,0 0.10562,0.0322 0.0826,0.1083 -0.018,0.0596 -2.34758,8.44833 -5.17677,18.6417 -2.82919,10.19338 -5.14846,18.53787 -5.15393,18.5433 -0.005,0.005 -1.03723,-1.62158 -2.29279,-3.61559 z"
       style="opacity:1;fill:#b8e69a;fill-opacity:1;stroke:none;stroke-width:2;stroke-linecap:round;stroke-linejoin:round;stroke-miterlimit:4;stroke-dasharray:none;stroke-opacity:1" /><path
       style="fill:#ffffff;stroke:#424143;stroke-width:2.49999976;stroke-linecap:butt;stroke-linejoin:round;stroke-miterlimit:4;stroke-dasharray:none;stroke-opacity:1;fill-opacity:1"
       d="m 433.42691,-300.18067 h 52.3179 l 0.0147,2.46633 c -4.52057,2.50537 -6.04333,7.51804 -5.39327,11.67371 h -28.8677 c 0.0346,-7.292 -4.15279,-14.36578 -18.18503,-13.25384 l -0.004,-0.8861 z"
       id="path1520"
       inkscape:connector-curvature="0"
       sodipodi:nodetypes="cccccccc" /><path
       inkscape:connector-curvature="0"
       id="path1508"
       d="m 442.02478,-303.55409 -7.8163,-0.0228 0.0637,-0.19643 c 0.0351,-0.10804 1.62639,-5.55224 3.53631,-12.09823 l 3.47257,-11.9018 20.49182,-0.0221 20.49182,-0.0221 v 12.16452 12.16452 l -16.21182,-0.0214 c -8.9165,-0.0118 -19.72916,-0.0317 -24.02813,-0.0442 z m 1.12726,-2.7144 c 0.2549,-0.22776 0.42152,-0.7592 2.8018,-8.93638 1.39194,-4.78182 2.53079,-8.79012 2.53079,-8.90732 0,-0.80794 -1.02919,-1.29292 -1.64469,-0.77502 -0.14184,0.11936 -0.30083,0.32611 -0.35329,0.45944 -0.27822,0.70704 -5.00308,17.19029 -5.00308,17.45384 0,0.81595 1.04859,1.2593 1.66847,0.70544 z m 10.00967,-0.0423 c 0.28903,-0.27508 0.38103,-0.56768 2.79989,-8.90447 1.37557,-4.74103 2.5007,-8.77167 2.50029,-8.95698 -6.1e-4,-0.26593 -0.0634,-0.39963 -0.2983,-0.63447 -0.25184,-0.25184 -0.35916,-0.29755 -0.69872,-0.29755 -0.31435,0 -0.45919,0.0521 -0.66916,0.24066 -0.25073,0.22517 -0.43114,0.80133 -2.80181,8.94783 -1.3936,4.78894 -2.53382,8.79791 -2.53382,8.90882 0,0.53757 0.47582,0.97072 1.07332,0.97707 0.25484,0.003 0.39716,-0.0609 0.62831,-0.28091 z m 9.90085,0.11941 c 0.14823,-0.0904 0.3145,-0.2773 0.36948,-0.41536 0.0895,-0.22483 4.76222,-16.25954 5.00053,-17.15974 0.34636,-1.30839 -1.48494,-1.89301 -1.95214,-0.6232 -0.15811,0.42973 -4.94191,16.8691 -5.01457,17.23242 -0.0618,0.30874 0.17168,0.78961 0.47442,0.97732 0.31731,0.19674 0.78877,0.19193 1.12228,-0.0114 z m 10.1497,-0.10732 c 0.16605,-0.16657 0.59117,-1.52351 2.09434,-6.68498 1.03731,-3.56179 2.18692,-7.50926 2.5547,-8.77217 0.63145,-2.16833 0.66276,-2.31598 0.56224,-2.65146 -0.22978,-0.76695 -1.36769,-0.95585 -1.79837,-0.29854 -0.21075,0.32163 -5.12456,17.31278 -5.12456,17.71986 0,0.3004 0.0543,0.41878 0.30847,0.67299 0.28908,0.28909 0.33632,0.3058 0.75165,0.26589 0.31211,-0.03 0.5048,-0.1044 0.65153,-0.25159 z"
       style="opacity:1;fill:#b8e69a;fill-opacity:1;stroke:none;stroke-width:2;stroke-linecap:round;stroke-linejoin:round;stroke-miterlimit:4;stroke-dasharray:none;stroke-opacity:1" /><path
       inkscape:connector-curvature="0"
       id="path1441"
       d="m 442.32395,-331.10117 43.22246,0.0309 v 26.84954 l -51.05297,-0.0309 z"
       style="fill:none;stroke:#424143;stroke-width:2.49999976;stroke-linecap:butt;stroke-linejoin:round;stroke-miterlimit:4;stroke-dasharray:none;stroke-opacity:1"
       sodipodi:nodetypes="ccccc" /><path
       inkscape:connector-curvature="0"
       id="path1510"
       d="m 451.06627,-285.63128 c 0,-0.0216 -0.0605,-0.50401 -0.13444,-1.07203 -0.41457,-3.1845 -1.61277,-5.78658 -3.57864,-7.77157 -0.95662,-0.96593 -1.62629,-1.48294 -2.79658,-2.15906 l -0.8824,-0.50981 h 19.53593 19.53592 v 0.24532 c 0,0.20065 -0.0967,0.31351 -0.53124,0.61995 -1.13403,0.79974 -2.41134,2.19963 -3.16308,3.46664 -1.08068,1.82143 -1.67589,3.86289 -1.79153,6.14474 l -0.0545,1.0751 H 464.136 c -7.18835,0 -13.06973,-0.0177 -13.06973,-0.0393 z"
       style="opacity:1;fill:#b8e69a;fill-opacity:1;stroke:none;stroke-width:2;stroke-linecap:round;stroke-linejoin:round;stroke-miterlimit:4;stroke-dasharray:none;stroke-opacity:1" /><path
       sodipodi:nodetypes="ccccc"
       inkscape:connector-curvature="0"
       id="path1443"
       d="m 437.41528,-331.80159 -11.57046,41.67516 -6.5449,-10.38961 15.42727,-31.34392 z"
       style="fill:none;stroke:#424143;stroke-width:2.49999976;stroke-linecap:butt;stroke-linejoin:round;stroke-miterlimit:4;stroke-dasharray:none;stroke-opacity:1" /><path
       inkscape:connector-curvature="0"
       id="path1512"
       d="m 503.01133,-289.3332 c -0.30446,-0.94922 -0.92312,-2.31673 -1.45621,-3.21887 -2.26831,-3.83863 -5.74764,-5.86357 -10.47343,-6.09545 l -1.1158,-0.0548 v -12.15082 -12.15082 h 5.85038 5.85037 l 3.90735,8.57805 3.90735,8.57804 5.3e-4,6.1023 c 2.6e-4,3.74923 0.0338,6.22232 0.087,6.41357 0.15871,0.57129 0.78284,0.95586 1.55343,0.95718 l 0.28438,4.9e-4 v 1.83778 1.83777 h -4.0959 -4.09589 z m 1.12856,-19.95301 c 0.433,-0.22203 0.70325,-0.64354 0.70325,-1.09685 0,-0.19293 -0.66271,-1.73203 -1.97888,-4.59581 -2.3962,-5.21377 -2.25298,-4.93032 -2.59722,-5.14021 -0.2674,-0.16304 -0.46299,-0.17128 -4.07448,-0.17159 -4.22202,-3.7e-4 -4.21151,-0.002 -4.57298,0.58318 -0.18248,0.29525 -0.18794,0.4043 -0.23298,4.65344 -0.0254,2.3931 -0.0183,4.53677 0.0158,4.76369 0.0706,0.47104 0.38678,0.90198 0.79079,1.07796 0.21253,0.0926 1.41711,0.11694 5.91482,0.11967 l 5.64794,0.003 0.384,-0.19691 z"
       style="opacity:1;fill:#b8e69a;fill-opacity:1;stroke:none;stroke-width:2;stroke-linecap:round;stroke-linejoin:round;stroke-miterlimit:4;stroke-dasharray:none;stroke-opacity:1" /><path
       sodipodi:nodetypes="ccccccccc"
       inkscape:connector-curvature="0"
       id="path1445"
       d="M 490.35888,-298.88171 V -325.848 h 13.79105 l 8.298,18.211 v 12.37413 h 1.86998 v 6.30381 h -10.40172 c -1.7846,-6.68576 -5.85815,-10.54376 -13.55731,-9.92265 z"
       style="fill:none;stroke:#424143;stroke-width:2.49999976;stroke-linecap:butt;stroke-linejoin:round;stroke-miterlimit:4;stroke-dasharray:none;stroke-opacity:1" /><path
       sodipodi:nodetypes="ccccc"
       inkscape:connector-curvature="0"
       id="path1447"
       d="m 494.35323,-320.58127 -0.0207,8.62499 h 10.86922 l -3.97369,-8.63854 z"
       style="fill:#ffffff;stroke:#424143;stroke-width:2.49999976;stroke-linecap:butt;stroke-linejoin:round;stroke-miterlimit:4;stroke-dasharray:none;stroke-opacity:1;fill-opacity:1" /><ellipse
       ry="7.5116525"
       rx="7.5204129"
       cy="-287.08423"
       cx="438.70657"
       id="path1449"
       style="opacity:1;fill:#ffffff;fill-opacity:1;stroke:#424143;stroke-width:2.49999976;stroke-linecap:round;stroke-linejoin:round;stroke-miterlimit:4;stroke-dasharray:none;stroke-opacity:1" /><ellipse
       ry="7.5116525"
       rx="7.5204129"
       style="opacity:1;fill:#fbf8ff;fill-opacity:1;stroke:#424143;stroke-width:2.49999976;stroke-linecap:round;stroke-linejoin:round;stroke-miterlimit:4;stroke-dasharray:none;stroke-opacity:1"
       id="circle1451"
       cx="492.56903"
       cy="-287.08423" /><path
       sodipodi:nodetypes="cccccccc"
       inkscape:connector-curvature="0"
       id="path1453"
       d="m 433.42691,-300.18067 h 52.3179 l 0.0147,2.46633 c -4.52057,2.50537 -6.04333,7.51804 -5.39327,11.67371 h -28.8677 c 0.0346,-7.292 -4.15279,-14.36578 -18.18503,-13.25384 l -0.004,-0.8861 z"
       style="fill:none;stroke:#424143;stroke-width:2.49999976;stroke-linecap:butt;stroke-linejoin:round;stroke-miterlimit:4;stroke-dasharray:none;stroke-opacity:1" /><g
       transform="translate(1.1336634)"
       id="g1477"><path
         style="fill:none;stroke:#424143;stroke-width:2;stroke-linecap:round;stroke-linejoin:miter;stroke-miterlimit:4;stroke-dasharray:none;stroke-opacity:1"
         d="m 448.32026,-326.08296 -4.95691,17.03335"
         id="path1465"
         inkscape:connector-curvature="0" /><path
         inkscape:connector-curvature="0"
         id="path1467"
         d="m 468.32025,-326.08296 -4.95691,17.03335"
         style="fill:none;stroke:#424143;stroke-width:2;stroke-linecap:round;stroke-linejoin:miter;stroke-miterlimit:4;stroke-dasharray:none;stroke-opacity:1" /><path
         style="fill:none;stroke:#424143;stroke-width:2;stroke-linecap:round;stroke-linejoin:miter;stroke-miterlimit:4;stroke-dasharray:none;stroke-opacity:1"
         d="m 458.32026,-326.08296 -4.95691,17.03335"
         id="path1469"
         inkscape:connector-curvature="0" /><path
         inkscape:connector-curvature="0"
         id="path1471"
         d="m 478.32025,-326.08296 -4.95691,17.03335"
         style="fill:none;stroke:#424143;stroke-width:2;stroke-linecap:round;stroke-linejoin:miter;stroke-miterlimit:4;stroke-dasharray:none;stroke-opacity:1" /></g></g></svg>