<?xml version="1.0" encoding="UTF-8" standalone="no"?>
<!-- Generator: Adobe Illustrator 14.0.0, SVG Export Plug-In . SVG Version: 6.00 Build 43363)  -->

<svg
   xmlns:dc="http://purl.org/dc/elements/1.1/"
   xmlns:cc="http://creativecommons.org/ns#"
   xmlns:rdf="http://www.w3.org/1999/02/22-rdf-syntax-ns#"
   xmlns:svg="http://www.w3.org/2000/svg"
   xmlns="http://www.w3.org/2000/svg"
   xmlns:sodipodi="http://sodipodi.sourceforge.net/DTD/sodipodi-0.dtd"
   xmlns:inkscape="http://www.inkscape.org/namespaces/inkscape"
   version="1.1"
   id="Layer_1"
   inkscape:version="0.92.2 (5c3e80d, 2017-08-06)"
   sodipodi:docname="bins.svg"
   x="0px"
   y="0px"
   width="100"
   height="100"
   viewBox="416.572 -360.945 100 100"
   enable-background="new 416.572 -360.945 595.275 841.89"
   xml:space="preserve"
   inkscape:export-filename="C:\Users\holly.jones\Downloads\volcano_pixelhint_12th_jan-20180116T210822Z-001\volcano_pixelhint_12th_jan\volcano_pixelhint\img\hedges_icon_100_white.png"
   inkscape:export-xdpi="149.93106"
   inkscape:export-ydpi="149.93106"><metadata
     id="metadata326"><rdf:RDF><cc:Work
         rdf:about=""><dc:format>image/svg+xml</dc:format><dc:type
           rdf:resource="http://purl.org/dc/dcmitype/StillImage" /><dc:title /></cc:Work></rdf:RDF></metadata><defs
     id="defs324" /><sodipodi:namedview
     id="namedview230"
     inkscape:pageshadow="2"
     inkscape:window-width="1680"
     inkscape:window-height="987"
     inkscape:window-x="1912"
     inkscape:window-y="23"
     inkscape:current-layer="Layer_1"
     inkscape:pageopacity="0"
     gridtolerance="10"
     inkscape:zoom="2.8567114"
     inkscape:cy="55.751074"
     guidetolerance="10"
     bordercolor="#666666"
     showgrid="false"
     borderopacity="1"
     objecttolerance="10"
     inkscape:cx="7.4664648"
     pagecolor="#ffffff"
     inkscape:window-maximized="1"
     inkscape:snap-nodes="false" /><g
     id="g1261"><path
       style="fill:#ffffff;stroke:#424143;stroke-width:2.58820009;stroke-linecap:round;stroke-linejoin:round;stroke-miterlimit:10;fill-opacity:1"
       inkscape:connector-curvature="0"
       d="m 490.70714,-345.66416 c 1.70164,0 3.08281,1.38272 3.08281,3.08917 0,1.70644 -1.38034,3.08916 -3.08281,3.08916 -0.85124,0 -1.61902,-0.34463 -2.17901,-0.90508"
       stroke-miterlimit="10"
       id="path164_1_" /><path
       id="path1248"
       stroke-miterlimit="10"
       d="m 485.74659,-355.57157 c 0.46484,1.15436 3.50927,8.72461 3.50927,8.72461 h -48.44877 c 0,0 3.31148,-8.24697 3.62527,-9.01404 0.31379,-0.76706 0.66096,-1.07656 1.77425,-1.07656 1.11328,0 36.26772,-0.0652 37.45028,0 1.18255,0.0652 1.62486,0.21163 2.0897,1.36599 z"
       inkscape:connector-curvature="0"
       style="fill:#ffffff;stroke:#424143;stroke-width:2.58820009;stroke-linecap:round;stroke-linejoin:round;stroke-miterlimit:10;fill-opacity:1" /><path
       id="path1246"
       stroke-miterlimit="10"
       d="m 476.37547,-267.53664 c 0,0 -28.37876,0.0577 -29.26505,0.0176 -0.88629,-0.0401 -1.64322,-0.78045 -1.69079,-1.67466 -0.0476,-0.89421 -3.9691,-73.3821 -3.9691,-73.3821 h 47.16189 l -3.51678,65.01802"
       inkscape:connector-curvature="0"
       style="fill:#ffffff;stroke:#424143;stroke-width:2.58820009;stroke-linecap:round;stroke-linejoin:round;stroke-miterlimit:10;fill-opacity:1" /><path
       style="fill:#b8e69a;stroke-width:1"
       d="m 444.38897,-269.26651 c -0.24953,-3.31669 -3.70205,-67.61616 -3.70205,-68.94451 v -0.97535 h 22.29575 22.29658 l -0.18861,1.84698 c -0.10098,1.0155 -0.84456,14.48971 -1.64823,29.94307 -0.80367,15.45251 -1.52889,28.54529 -1.61234,29.09151 -0.14939,0.98456 -0.17109,0.99376 -1.72251,0.8457 -3.06696,-0.29612 -6.00456,1.3158 -7.53345,4.13394 -0.92718,1.70645 -1.2151,4.02604 -0.72272,5.82533 l 0.24119,0.88417 h -13.7525 l -12.11678,-0.88919 z"
       inkscape:connector-curvature="0"
       id="path3952_1_" /><path
       style="fill:#b8e69a;stroke-width:1"
       d="m 440.68775,-346.18446 c 0,-0.14053 0.63426,-1.83861 1.40955,-3.77342 l 1.40955,-3.51828 19.33227,-0.0803 19.33144,-0.0803 1.4421,3.56262 c 0.79282,1.95907 1.48966,3.69311 1.54892,3.85288 0.0626,0.17149 -9.04065,0.29027 -22.18559,0.29027 -12.25865,0.002 -22.28824,-0.11293 -22.28824,-0.25346 z"
       inkscape:connector-curvature="0"
       id="path3954_1_" /><path
       style="fill:#b8e69a;stroke-width:1"
       d="m 438.73909,-342.575 -0.2946,-0.78546 h 24.50646 24.5073 v 0.80303 0.8022 h -24.5073"
       inkscape:connector-curvature="0"
       id="path3956_2_" /><path
       style="fill:none;stroke:#424143;stroke-width:2.58820009;stroke-linecap:round;stroke-linejoin:round;stroke-miterlimit:10"
       inkscape:connector-curvature="0"
       d="m 476.37547,-267.53664 c 0,0 -28.37876,0.0577 -29.26505,0.0176 -0.88629,-0.0401 -1.64322,-0.78045 -1.69079,-1.67466 -0.0476,-0.89421 -3.9691,-73.3821 -3.9691,-73.3821 h 47.16189 l -3.51678,65.01802"
       stroke-miterlimit="10"
       id="polyline158_1_" /><path
       style="fill:#ffffff;stroke:#424143;stroke-width:2.58820009;stroke-linecap:round;stroke-linejoin:round;stroke-miterlimit:10;fill-opacity:1"
       inkscape:connector-curvature="0"
       d="m 439.35748,-343.61893 c 0,-0.57551 -0.008,-1.77671 0,-2.40492 0.008,-0.6282 0.34634,-0.82394 0.84206,-0.82394 0.45066,0 41.91844,0 49.36844,0 0.73523,0 1.13582,0.66752 1.13916,1.00713 0.003,0.33962 0.0175,1.72569 0,2.22173 -0.0175,0.49604 -0.34718,1.04477 -0.9831,1.04561 -6.97598,0.007 -48.74336,0.046 -49.34173,-8.4e-4 -0.65262,-0.0519 -1.02483,-0.4701 -1.02483,-1.04477 z"
       stroke-miterlimit="10"
       id="rect160_1_" /><path
       style="fill:none;stroke:#424143;stroke-width:2.58820009;stroke-linecap:round;stroke-linejoin:round;stroke-miterlimit:10"
       inkscape:connector-curvature="0"
       d="m 485.74659,-355.57157 c 0.46484,1.15436 3.50927,8.72461 3.50927,8.72461 h -48.44877 c 0,0 3.31148,-8.24697 3.62527,-9.01404 0.31379,-0.76706 0.66096,-1.07656 1.77425,-1.07656 1.11328,0 36.26772,-0.0652 37.45028,0 1.18255,0.0652 1.62486,0.21163 2.0897,1.36599 z"
       stroke-miterlimit="10"
       id="polygon162_1_" /><ellipse
       ry="6.773912"
       rx="6.7581577"
       style="fill:#ffffff;stroke:#424143;stroke-width:2.58820009;stroke-linecap:round;stroke-linejoin:round;stroke-miterlimit:10;fill-opacity:1"
       cy="-271.69736"
       cx="481.70569"
       stroke-miterlimit="10"
       id="circle166_1_" /><ellipse
       ry="1.9724482"
       rx="1.9678609"
       style="fill:none;stroke:#424143;stroke-width:2.58820009;stroke-linecap:round;stroke-linejoin:round;stroke-miterlimit:10"
       cy="-271.69736"
       cx="481.70569"
       stroke-miterlimit="10"
       id="circle168_1_" /></g><text
     xml:space="preserve"
     style="font-style:normal;font-weight:normal;font-size:40px;line-height:125%;font-family:Sans;letter-spacing:0px;word-spacing:0px;fill:#000000;fill-opacity:1;stroke:none;stroke-width:1px;stroke-linecap:butt;stroke-linejoin:miter;stroke-opacity:1"
     x="566.7934"
     y="-274.51813"
     id="text5063"><tspan
       sodipodi:role="line"
       id="tspan5061"
       x="566.7934"
       y="-239.1275" /></text>
</svg>