<?xml version="1.0" encoding="UTF-8" standalone="no"?>
<!-- Generator: Adobe Illustrator 14.0.0, SVG Export Plug-In . SVG Version: 6.00 Build 43363)  -->

<svg
   xmlns:dc="http://purl.org/dc/elements/1.1/"
   xmlns:cc="http://creativecommons.org/ns#"
   xmlns:rdf="http://www.w3.org/1999/02/22-rdf-syntax-ns#"
   xmlns:svg="http://www.w3.org/2000/svg"
   xmlns="http://www.w3.org/2000/svg"
   xmlns:sodipodi="http://sodipodi.sourceforge.net/DTD/sodipodi-0.dtd"
   xmlns:inkscape="http://www.inkscape.org/namespaces/inkscape"
   version="1.1"
   id="Layer_1"
   inkscape:version="0.92.2 (5c3e80d, 2017-08-06)"
   sodipodi:docname="calendar.svg"
   x="0px"
   y="0px"
   width="100"
   height="100"
   viewBox="416.572 -360.945 100 100"
   enable-background="new 416.572 -360.945 595.275 841.89"
   xml:space="preserve"
   inkscape:export-filename="C:\Users\holly.jones\Downloads\volcano_pixelhint_12th_jan-20180116T210822Z-001\volcano_pixelhint_12th_jan\volcano_pixelhint\img\hedges_icon_100_white.png"
   inkscape:export-xdpi="149.93106"
   inkscape:export-ydpi="149.93106"><metadata
     id="metadata326"><rdf:RDF><cc:Work
         rdf:about=""><dc:format>image/svg+xml</dc:format><dc:type
           rdf:resource="http://purl.org/dc/dcmitype/StillImage" /><dc:title /></cc:Work></rdf:RDF></metadata><defs
     id="defs324"><clipPath
       clipPathUnits="userSpaceOnUse"
       id="clipPath1282"><rect
         ry="9.0558882"
         y="-355.80136"
         x="430.07397"
         height="89.648712"
         width="90.322769"
         id="rect1284"
         style="opacity:1;fill:#b8e69a;fill-opacity:1;stroke:none;stroke-width:1.99999988;stroke-linecap:round;stroke-linejoin:round;stroke-miterlimit:8.36363602;stroke-dasharray:none;stroke-opacity:1" /></clipPath></defs><sodipodi:namedview
     id="namedview230"
     inkscape:pageshadow="2"
     inkscape:window-width="1680"
     inkscape:window-height="987"
     inkscape:window-x="1912"
     inkscape:window-y="23"
     inkscape:current-layer="Layer_1"
     inkscape:pageopacity="0"
     gridtolerance="10"
     inkscape:zoom="0.71417785"
     inkscape:cy="-42.318346"
     guidetolerance="10"
     bordercolor="#666666"
     showgrid="false"
     borderopacity="1"
     objecttolerance="10"
     inkscape:cx="83.35638"
     pagecolor="#ffffff"
     inkscape:window-maximized="1"
     inkscape:snap-nodes="false" /><text
     xml:space="preserve"
     style="font-style:normal;font-weight:normal;font-size:40px;line-height:125%;font-family:Sans;letter-spacing:0px;word-spacing:0px;fill:#000000;fill-opacity:1;stroke:none;stroke-width:1px;stroke-linecap:butt;stroke-linejoin:miter;stroke-opacity:1"
     x="566.7934"
     y="-274.51813"
     id="text5063"><tspan
       sodipodi:role="line"
       id="tspan5061"
       x="566.7934"
       y="-239.1275" /></text>
<g
     id="g1489"
     transform="translate(0.07980584,1.45046)"><path
       sodipodi:nodetypes="ccccccccccssccccccccccccccccccccscccscccssccssccccsccccccccscccsccccsccsccscccccsccccccccccsccscccccccccsccsccccsccsccccscccccccccccccccccccccccsccccccccscccscccccccccccc"
       inkscape:connector-curvature="0"
       id="path1464"
       d="m 422.88709,-272.53158 c -0.44292,-0.22013 -0.85773,-0.61126 -1.09392,-1.03151 l -0.38046,-0.67693 0.003,-33.58124 c 0.002,-26.41077 0.049,-33.67468 0.22017,-34.01881 0.11967,-0.24067 0.5004,-0.5762 0.84607,-0.74563 0.57681,-0.28273 1.2964,-0.30432 8.74994,-0.26254 l 9.04034,0.002 -1.98966,1.12853 c -1.23721,1.25339 -1.82423,1.49139 -2.39569,0.97131 -0.62444,-0.56831 -1.09771,-0.74338 -2.00948,-0.74338 -1.10157,0 -1.91061,0.51953 -2.45526,1.57665 -0.50435,0.9789 -0.41589,2.05523 0.23956,2.91455 0.59316,0.77769 1.28218,1.10978 2.30089,1.10899 0.9812,-7.7e-4 1.72958,-0.39746 2.39457,-1.2693 0.28168,-0.36931 1.15776,-2.55992 1.57914,-2.68617 1.57629,-0.47227 3.2304,-0.61339 3.88777,-2.30107 l 0.28974,-0.74387 h 8.55867 9.87138 l -0.50052,0.84422 c -0.30835,0.57617 -2.52115,1.19142 -3.11918,1.43914 -0.42423,0.17572 -0.61129,0.18005 -0.83273,0.0193 -1.01267,-0.73524 -1.39851,-0.90116 -2.09693,-0.90176 -2.88248,-0.002 -3.98064,3.59855 -1.59222,5.22112 0.50507,0.34312 0.77454,0.39919 1.65752,0.34487 1.16112,-0.0714 1.72716,-0.38887 2.32809,-1.3056 0.21913,-0.33428 0.57129,-2.69988 0.88838,-2.76953 0.78755,-0.17297 2.46416,0.77781 3.27892,-0.1478 0.39646,-0.45041 0.90776,-1.2507 1.13621,-1.77844 l 0.41538,-0.95951 8.53254,-0.003 c 4.69289,-0.002 9.88899,-0.0697 9.88899,0.009 0,0.32733 -2.60939,1.70409 -3.31549,2.07868 l -0.76015,0.40325 -0.8625,-0.54698 c -0.63065,-0.39995 -1.07038,-0.54699 -1.63579,-0.54699 -2.15538,0 -3.52803,2.31943 -2.47184,4.1768 0.51654,0.90838 1.13436,1.30118 2.18339,1.38818 1.16372,0.0965 2.05923,-0.31358 2.65687,-1.21667 0.24486,-0.37002 0.5403,-0.67275 0.65653,-0.67275 0.11623,0 0.94731,-2.16188 1.52597,-2.45104 1.31143,-0.65533 2.62656,-0.35065 3.22445,-1.65662 l 0.44322,-0.96811 h 8.47595 c 5.65744,0 9.96367,-0.0718 9.96367,0.0477 0,0.34712 -2.88903,1.82495 -3.56969,2.13189 l -0.68933,0.31084 -0.64427,-0.49141 c -0.91573,-0.69846 -2.37689,-0.79852 -3.21934,-0.22046 -1.01392,0.69572 -1.32879,1.26967 -1.32879,2.42211 0,1.14812 0.31706,1.7302 1.31091,2.40661 1.16743,0.79454 3.12405,0.38115 3.80408,-0.80372 0.19147,-0.33362 1.18485,-2.64918 2.08501,-3.05425 1.66108,-0.74749 2.55845,-0.1099 3.30105,-1.68377 l 0.52455,-1.11172 1.48826,0.10425 c 0.81854,0.0573 1.77318,0.1867 2.12143,0.28748 0.84828,0.24546 1.76246,0.87994 2.03159,1.41 0.17412,0.34294 0.21083,7.25915 0.17758,33.45573 l -0.0419,33.02342 -0.36615,0.49414 c -0.49107,0.66273 -1.33985,1.22057 -2.41881,1.58968 -0.83475,0.28557 -3.42057,0.3075 -41.23419,0.34971 -40.209,0.0449 -40.34598,0.0439 -41.05705,-0.30953 z m 18.12799,-9.89648 c 0.3366,-0.19774 0.78948,-0.62289 1.0064,-0.94478 0.38427,-0.57021 0.3944,-0.70317 0.3944,-5.17169 0,-4.46852 -0.0101,-4.60148 -0.3944,-5.17169 -0.21692,-0.32189 -0.6698,-0.74704 -1.0064,-0.94477 -0.58396,-0.34304 -0.87664,-0.35951 -6.38787,-0.35951 -5.71367,0 -5.78281,0.004 -6.4198,0.40041 -0.378,0.23504 -0.79363,0.70963 -1.00641,1.14917 -0.33557,0.6932 -0.36247,1.05878 -0.36247,4.92639 0,3.85328 0.0279,4.23515 0.35865,4.9185 0.38399,0.79321 0.97507,1.27499 1.82552,1.48796 0.29081,0.0728 2.97036,0.11825 5.95456,0.10096 5.12712,-0.0297 5.45951,-0.0512 6.03782,-0.39095 z m 19.3328,0.25298 c 0.88476,-0.24564 1.75636,-1.11724 2.002,-2.002 0.2319,-0.83527 0.25445,-7.74667 0.0285,-8.72073 -0.19592,-0.84446 -1.10838,-1.80851 -1.92696,-2.03592 -0.8089,-0.22471 -10.75837,-0.22471 -11.56727,0 -0.81858,0.22741 -1.73104,1.19146 -1.92696,2.03592 -0.22063,0.95095 -0.20372,7.88452 0.0212,8.69452 0.24507,0.88253 0.96487,1.65491 1.826,1.95936 0.88773,0.31387 10.45547,0.37093 11.54353,0.0688 z m 20.78018,-0.29388 c 0.378,-0.23504 0.79363,-0.70964 1.00641,-1.14917 0.33557,-0.69321 0.36247,-1.05878 0.36247,-4.9264 0,-3.86761 -0.0269,-4.23319 -0.36247,-4.92639 -0.21278,-0.43954 -0.62841,-0.91413 -1.00641,-1.14917 -0.63699,-0.3961 -0.70613,-0.40041 -6.4198,-0.40041 -5.51123,0 -5.80391,0.0165 -6.38787,0.35951 -0.3366,0.19773 -0.78948,0.62288 -1.0064,0.94477 -0.38421,0.57014 -0.39439,0.7033 -0.39375,5.15382 5.3e-4,4.21961 0.0267,4.61128 0.3417,5.12789 0.39836,0.65333 1.01471,1.09325 1.8061,1.28913 0.31045,0.0768 3.00607,0.12556 5.99027,0.10827 5.32196,-0.0308 5.43815,-0.0391 6.06975,-0.43185 z m 19.86412,0.0968 c 0.30527,-0.16701 0.73846,-0.56082 0.96265,-0.87513 0.40277,-0.5647 0.40761,-0.62787 0.40761,-5.32811 0,-4.56217 -0.015,-4.77684 -0.36835,-5.2508 -0.20259,-0.27178 -0.63578,-0.65168 -0.96265,-0.84421 -0.5619,-0.33097 -0.90908,-0.35005 -6.37017,-0.35005 -6.41189,0 -6.4581,0.008 -7.29355,1.17879 -0.39768,0.55756 -0.40887,0.68101 -0.4596,5.06924 -0.0492,4.25232 -0.0323,4.53632 0.30855,5.20447 0.39708,0.77835 0.94422,1.20973 1.80439,1.42263 0.31044,0.0768 3.00607,0.12556 5.99027,0.10827 4.78144,-0.0277 5.49173,-0.0675 5.98085,-0.3351 z M 441.2486,-300.5866 c 1.14444,-0.87337 1.16728,-0.99152 1.16728,-6.03855 0,-4.41359 -0.0104,-4.54897 -0.3944,-5.11875 -0.21692,-0.32189 -0.6698,-0.74704 -1.0064,-0.94477 -0.57305,-0.33663 -0.93802,-0.36306 -5.7341,-0.41515 -5.63351,-0.0612 -6.66645,0.0476 -7.46238,0.78558 -0.90917,0.84304 -0.98007,1.25801 -0.98007,5.73687 0,3.37856 0.0506,4.24156 0.28245,4.8211 0.29308,0.73249 0.96427,1.32897 1.78135,1.58309 0.26075,0.0811 3.00075,0.13248 6.08889,0.1142 l 5.6148,-0.0333 z m 19.22153,0.39841 c 0.36886,-0.10245 0.89929,-0.4655 1.2544,-0.85856 0.79001,-0.87445 0.86433,-1.46046 0.78956,-6.22556 -0.0518,-3.29887 -0.0935,-3.73647 -0.40773,-4.26986 -0.45035,-0.76456 -1.07823,-1.22635 -1.93884,-1.42595 -0.89345,-0.20721 -10.10612,-0.20721 -10.99957,0 -0.86061,0.1996 -1.48849,0.66139 -1.93884,1.42595 -0.31418,0.53339 -0.35596,0.97099 -0.40773,4.26986 -0.0748,4.76983 -8.7e-4,5.3506 0.79302,6.22938 0.3403,0.37668 0.8654,0.75637 1.16688,0.84376 0.76577,0.22196 10.89499,0.23148 11.68885,0.011 z m 20.69102,-0.3289 c 1.22045,-0.75867 1.32753,-1.24242 1.33194,-6.01698 0.004,-4.53124 -0.0646,-4.93888 -0.97622,-5.78417 -0.79593,-0.73802 -1.82887,-0.84677 -7.46239,-0.78558 -4.79607,0.0521 -5.16105,0.0785 -5.73409,0.41515 -0.3366,0.19773 -0.78948,0.62288 -1.0064,0.94477 -0.38397,0.56978 -0.39441,0.70516 -0.39441,5.11875 0,3.68604 0.049,4.62834 0.26236,5.04084 0.28748,0.55592 1.19922,1.31346 1.75045,1.4544 0.19253,0.0492 2.87043,0.077 5.9509,0.0616 5.58773,-0.0279 5.60243,-0.0289 6.27786,-0.44878 z m 19.70999,0.11456 c 1.48248,-0.75751 1.48422,-0.76419 1.54334,-5.9194 0.0592,-5.16147 0.005,-5.4311 -1.24815,-6.26055 l -0.70384,-0.46571 h -5.78855 c -5.77209,0 -5.79042,10e-4 -6.45033,0.41145 -0.36398,0.2263 -0.82057,0.72268 -1.01463,1.10309 -0.33119,0.64918 -0.34966,0.96774 -0.30086,5.18939 0.0512,4.42804 0.0585,4.5069 0.47224,5.087 0.84056,1.17854 1.20272,1.24039 7.28759,1.2447 5.29249,0.004 5.45235,-0.006 6.20319,-0.38997 z m 0.12345,-19.57034 c 0.67051,-0.25333 1.44803,-1.00863 1.73946,-1.68975 0.2967,-0.69343 0.33948,-6.06756 0.0543,-6.82026 -0.26548,-0.70066 -0.84114,-1.27581 -1.6511,-1.64963 -0.67332,-0.31076 -2.06752,-0.32327 -36.45487,-0.32696 -31.78584,-0.003 -35.82629,0.026 -36.39909,0.26537 -1.66213,0.69448 -1.96102,1.45935 -1.96599,5.03095 -0.004,2.94314 0.13603,3.62259 0.9234,4.47748 0.86188,0.93581 -1.27566,0.88475 37.34839,0.89212 24.96425,0.005 36.063,-0.0499 36.4055,-0.17932 z"
       style="opacity:1;fill:#b8e69a;fill-opacity:1;stroke:none;stroke-width:2;stroke-linecap:round;stroke-linejoin:round;stroke-miterlimit:10;stroke-dasharray:none;stroke-opacity:1" /><path
       style="fill:none;stroke:#010101;stroke-width:3.43649983;stroke-linejoin:round;stroke-miterlimit:10"
       inkscape:connector-curvature="0"
       id="path1330"
       stroke-miterlimit="10"
       d="M 480.8226,-262.35703" /><path
       sodipodi:nodetypes="ccscscccscscccscscc"
       style="fill:none;stroke:#424143;stroke-width:2.5;stroke-linejoin:round;stroke-miterlimit:10;stroke-dasharray:none"
       inkscape:connector-curvature="0"
       id="path1336"
       stroke-miterlimit="10"
       d="m 426.76258,-272.36921 c 0,0 0.97127,-9.1e-4 -0.81361,0 -2.38781,9.2e-4 -4.12299,-1.67015 -4.12299,-4.59889 0,-1.751 0.002,-63.67628 0,-64.93946 -0.003,-2.01006 0.98679,-3.77668 3.94993,-3.77668 h 1.93769 35.28766 38.25111 3.2602 c 4.98552,0 6.65237,1.76662 6.64583,3.77668 -0.003,1.26318 0,63.18846 0,64.93946 0,2.92874 -2.91946,4.59981 -6.93701,4.59889 -3.00308,-9.1e-4 -57.40506,0 -57.40506,0 0,0 -19.08248,-9.1e-4 -20.86736,0 -2.38781,9.2e-4 -4.12299,-1.67015 -4.12299,-4.59889 0,-1.751 0.002,-63.67628 0,-64.93946 -0.003,-2.01006 0.98679,-3.77668 3.94993,-3.77668 h 1.93769 33.07964" /><g
       id="g1416"><g
         id="g1397"
         transform="translate(3.6428017)"><path
           sodipodi:nodetypes="cssc"
           inkscape:connector-curvature="0"
           id="path1382"
           d="m 426.37348,-346.70792 c 0,-3.57658 2.8994,-6.47597 6.47598,-6.47597 3.57658,0 6.47597,2.89939 6.47597,6.47597 0,3.57658 -2.89939,6.47598 -6.47597,6.47598"
           style="opacity:1;fill:none;fill-opacity:1;stroke:#424143;stroke-width:2.5;stroke-linecap:round;stroke-linejoin:round;stroke-miterlimit:10;stroke-dasharray:none;stroke-opacity:1" /><path
           style="opacity:1;fill:none;fill-opacity:1;stroke:#424143;stroke-width:2.5;stroke-linecap:round;stroke-linejoin:round;stroke-miterlimit:10;stroke-dasharray:none;stroke-opacity:1"
           d="m 446.37348,-346.70792 c 0,-3.57658 2.8994,-6.47597 6.47598,-6.47597 3.57658,0 6.47597,2.89939 6.47597,6.47597 0,3.57658 -2.89939,6.47598 -6.47597,6.47598"
           id="path1387"
           inkscape:connector-curvature="0"
           sodipodi:nodetypes="cssc" /><path
           sodipodi:nodetypes="cssc"
           inkscape:connector-curvature="0"
           id="path1389"
           d="m 466.37348,-346.70792 c 0,-3.57658 2.8994,-6.47597 6.47598,-6.47597 3.57658,0 6.47597,2.89939 6.47597,6.47597 0,3.57658 -2.89939,6.47598 -6.47597,6.47598"
           style="opacity:1;fill:none;fill-opacity:1;stroke:#424143;stroke-width:2.5;stroke-linecap:round;stroke-linejoin:round;stroke-miterlimit:10;stroke-dasharray:none;stroke-opacity:1" /><path
           style="opacity:1;fill:none;fill-opacity:1;stroke:#424143;stroke-width:2.5;stroke-linecap:round;stroke-linejoin:round;stroke-miterlimit:10;stroke-dasharray:none;stroke-opacity:1"
           d="m 486.37348,-346.70792 c 0,-3.57658 2.8994,-6.47597 6.47598,-6.47597 3.57658,0 6.47597,2.89939 6.47597,6.47597 0,3.57658 -2.89939,6.47598 -6.47597,6.47598"
           id="path1391"
           inkscape:connector-curvature="0"
           sodipodi:nodetypes="cssc" /></g><circle
         style="opacity:1;fill:#424143;fill-opacity:1;stroke:none;stroke-width:2.5;stroke-linecap:round;stroke-linejoin:round;stroke-miterlimit:10;stroke-dasharray:none;stroke-opacity:1"
         id="path1399"
         cx="435.75519"
         cy="340.15292"
         r="2.7846534"
         transform="scale(1,-1)" /><circle
         transform="scale(1,-1)"
         r="2.7846534"
         cy="340.15292"
         cx="455.75519"
         id="circle1401"
         style="opacity:1;fill:#424143;fill-opacity:1;stroke:none;stroke-width:2.5;stroke-linecap:round;stroke-linejoin:round;stroke-miterlimit:10;stroke-dasharray:none;stroke-opacity:1" /><circle
         style="opacity:1;fill:#424143;fill-opacity:1;stroke:none;stroke-width:2.5;stroke-linecap:round;stroke-linejoin:round;stroke-miterlimit:10;stroke-dasharray:none;stroke-opacity:1"
         id="circle1403"
         cx="475.75519"
         cy="340.15292"
         r="2.7846534"
         transform="scale(1,-1)" /><circle
         transform="scale(1,-1)"
         r="2.7846534"
         cy="340.15292"
         cx="495.75519"
         id="circle1405"
         style="opacity:1;fill:#424143;fill-opacity:1;stroke:none;stroke-width:2.5;stroke-linecap:round;stroke-linejoin:round;stroke-miterlimit:10;stroke-dasharray:none;stroke-opacity:1" /></g><rect
       ry="2.9754493"
       y="-331.83069"
       x="428.24893"
       height="10.501586"
       width="76.486549"
       id="rect1418"
       style="opacity:1;fill:#424143;fill-opacity:1;stroke:none;stroke-width:2.5;stroke-linecap:round;stroke-linejoin:round;stroke-miterlimit:10;stroke-dasharray:none;stroke-opacity:1" /><g
       id="g1460"><rect
         style="opacity:1;fill:none;fill-opacity:1;stroke:#424143;stroke-width:2;stroke-linecap:round;stroke-linejoin:round;stroke-miterlimit:10;stroke-dasharray:none;stroke-opacity:1"
         id="rect1420"
         width="13.477036"
         height="10.851639"
         x="429.75366"
         y="-313.45294"
         ry="1.7502643" /><rect
         ry="1.7502643"
         y="-313.45294"
         x="449.75366"
         height="10.851639"
         width="13.477036"
         id="rect1422"
         style="opacity:1;fill:none;fill-opacity:1;stroke:#424143;stroke-width:2;stroke-linecap:round;stroke-linejoin:round;stroke-miterlimit:10;stroke-dasharray:none;stroke-opacity:1" /><rect
         style="opacity:1;fill:none;fill-opacity:1;stroke:#424143;stroke-width:2;stroke-linecap:round;stroke-linejoin:round;stroke-miterlimit:10;stroke-dasharray:none;stroke-opacity:1"
         id="rect1424"
         width="13.477036"
         height="10.851639"
         x="469.75366"
         y="-313.45294"
         ry="1.7502643" /><rect
         ry="1.7502643"
         y="-313.45294"
         x="489.75366"
         height="10.851639"
         width="13.477036"
         id="rect1426"
         style="opacity:1;fill:none;fill-opacity:1;stroke:#424143;stroke-width:2;stroke-linecap:round;stroke-linejoin:round;stroke-miterlimit:10;stroke-dasharray:none;stroke-opacity:1" /><rect
         ry="1.7502643"
         y="-295.45294"
         x="429.75366"
         height="10.851639"
         width="13.477036"
         id="rect1434"
         style="opacity:1;fill:none;fill-opacity:1;stroke:#424143;stroke-width:2;stroke-linecap:round;stroke-linejoin:round;stroke-miterlimit:10;stroke-dasharray:none;stroke-opacity:1" /><rect
         style="opacity:1;fill:none;fill-opacity:1;stroke:#424143;stroke-width:2;stroke-linecap:round;stroke-linejoin:round;stroke-miterlimit:10;stroke-dasharray:none;stroke-opacity:1"
         id="rect1436"
         width="13.477036"
         height="10.851639"
         x="449.75366"
         y="-295.45294"
         ry="1.7502643" /><rect
         ry="1.7502643"
         y="-295.45294"
         x="469.75366"
         height="10.851639"
         width="13.477036"
         id="rect1438"
         style="opacity:1;fill:#424143;fill-opacity:1;stroke:#424143;stroke-width:2;stroke-linecap:round;stroke-linejoin:round;stroke-miterlimit:10;stroke-dasharray:none;stroke-opacity:1" /><rect
         style="opacity:1;fill:none;fill-opacity:1;stroke:#424143;stroke-width:2;stroke-linecap:round;stroke-linejoin:round;stroke-miterlimit:10;stroke-dasharray:none;stroke-opacity:1"
         id="rect1440"
         width="13.477036"
         height="10.851639"
         x="489.75366"
         y="-295.45294"
         ry="1.7502643" /></g></g></svg>