<?xml version="1.0" encoding="UTF-8" standalone="no"?>
<!-- Generator: Adobe Illustrator 14.0.0, SVG Export Plug-In . SVG Version: 6.00 Build 43363)  -->

<svg
   xmlns:dc="http://purl.org/dc/elements/1.1/"
   xmlns:cc="http://creativecommons.org/ns#"
   xmlns:rdf="http://www.w3.org/1999/02/22-rdf-syntax-ns#"
   xmlns:svg="http://www.w3.org/2000/svg"
   xmlns="http://www.w3.org/2000/svg"
   xmlns:sodipodi="http://sodipodi.sourceforge.net/DTD/sodipodi-0.dtd"
   xmlns:inkscape="http://www.inkscape.org/namespaces/inkscape"
   version="1.1"
   id="Layer_1"
   inkscape:version="0.92.2 (5c3e80d, 2017-08-06)"
   sodipodi:docname="car.svg"
   x="0px"
   y="0px"
   width="100"
   height="100"
   viewBox="416.572 -360.945 100 100"
   enable-background="new 416.572 -360.945 595.275 841.89"
   xml:space="preserve"
   inkscape:export-filename="C:\Users\holly.jones\Downloads\volcano_pixelhint_12th_jan-20180116T210822Z-001\volcano_pixelhint_12th_jan\volcano_pixelhint\img\hedges_icon_100_white.png"
   inkscape:export-xdpi="149.93106"
   inkscape:export-ydpi="149.93106"><metadata
     id="metadata326"><rdf:RDF><cc:Work
         rdf:about=""><dc:format>image/svg+xml</dc:format><dc:type
           rdf:resource="http://purl.org/dc/dcmitype/StillImage" /><dc:title /></cc:Work></rdf:RDF></metadata><defs
     id="defs324" /><sodipodi:namedview
     id="namedview230"
     inkscape:pageshadow="2"
     inkscape:window-width="1920"
     inkscape:window-height="1001"
     inkscape:window-x="-9"
     inkscape:window-y="-9"
     inkscape:current-layer="Layer_1"
     inkscape:pageopacity="0"
     gridtolerance="10"
     inkscape:zoom="1.01"
     inkscape:cy="152.43122"
     guidetolerance="10"
     bordercolor="#666666"
     showgrid="false"
     borderopacity="1"
     objecttolerance="10"
     inkscape:cx="90.668355"
     pagecolor="#ffffff"
     inkscape:window-maximized="1"
     inkscape:snap-nodes="false" /><text
     xml:space="preserve"
     style="font-style:normal;font-weight:normal;font-size:40px;line-height:125%;font-family:Sans;letter-spacing:0px;word-spacing:0px;fill:#000000;fill-opacity:1;stroke:none;stroke-width:1px;stroke-linecap:butt;stroke-linejoin:miter;stroke-opacity:1"
     x="566.7934"
     y="-274.51813"
     id="text5063"><tspan
       sodipodi:role="line"
       id="tspan5061"
       x="566.7934"
       y="-239.1275" /></text>
<path
     d="M 1049.2848,-347.50267"
     stroke-miterlimit="10"
     id="path1720"
     inkscape:connector-curvature="0"
     style="fill:none;stroke:#010101;stroke-width:2.76591682;stroke-linejoin:round;stroke-miterlimit:10" /><g
     id="g1265"
     transform="translate(-4.9942257e-6,-4.4369809e-4)"><path
       inkscape:connector-curvature="0"
       id="path1285"
       d="m 491.75637,-297.80815 c -3.75786,-0.006 -6.90193,-0.0384 -6.98683,-0.071 -0.0849,-0.0325 -0.17868,-0.18755 -0.2084,-0.34436 -0.10556,-0.55686 -0.0491,-6.52596 0.0634,-6.69762 0.0939,-0.14323 1.33681,-0.1745 6.93109,-0.17442 3.74922,8e-5 6.90558,0.009 7.01414,0.0209 0.10854,0.0113 0.23416,0.0803 0.27907,0.15303 0.11864,0.1922 0.10514,6.71706 -0.0144,6.93373 -0.0554,0.10046 -0.13339,0.18472 -0.17321,0.18714 -0.0397,0.002 -3.14701,-8.8e-4 -6.90487,-0.007 z"
       style="opacity:1;fill:#ffffff;fill-opacity:1;stroke:#ffffff;stroke-width:2.00000024;stroke-linecap:round;stroke-linejoin:round;stroke-miterlimit:4;stroke-dasharray:none;stroke-opacity:1" /><path
       inkscape:connector-curvature="0"
       id="path1283"
       d="m 440.99672,-297.81684 c -3.62414,-0.009 -6.66089,-0.0284 -6.74834,-0.0442 -0.24044,-0.0435 -0.26394,-0.39675 -0.25324,-3.80752 0.007,-2.21504 0.0555,-3.19056 0.16377,-3.29174 0.19342,-0.18075 13.82042,-0.205 14.08948,-0.0251 0.15005,0.10035 0.1807,0.64513 0.18675,3.3199 0.004,1.75991 -0.0186,3.32318 -0.0501,3.47391 -0.0439,0.2099 -0.14421,0.28768 -0.42818,0.33215 -0.20384,0.0324 -3.33598,0.0511 -6.96011,0.0426 z"
       style="opacity:1;fill:#ffffff;fill-opacity:1;stroke:#ffffff;stroke-width:2.00000024;stroke-linecap:round;stroke-linejoin:round;stroke-miterlimit:4;stroke-dasharray:none;stroke-opacity:1" /><path
       inkscape:connector-curvature="0"
       id="path1281"
       d="m 486.54671,-318.53405 c -5.682,-0.006 -19.33818,-0.0127 -30.34705,-0.0143 -12.37496,-0.002 -20.15908,-0.0518 -20.39057,-0.13101 -0.28853,-0.0988 -0.39963,-0.21864 -0.48435,-0.52255 -0.1013,-0.36325 0.16954,-0.98795 3.4326,-7.91852 3.82572,-8.12566 4.31821,-9.00099 5.65803,-10.05608 l 0.65301,-0.51423 21.28472,0.007 21.28471,0.007 0.51477,0.33919 c 1.07029,0.70521 1.60915,1.6275 5.73024,9.8076 2.11273,4.19363 3.87244,7.78895 3.91047,7.98961 0.0784,0.41352 -0.27054,0.92069 -0.6757,0.98213 -0.13198,0.02 -4.88887,0.0312 -10.57088,0.025 z"
       style="opacity:1;fill:#ffffff;fill-opacity:1;stroke:#ffffff;stroke-width:2.00000024;stroke-linecap:round;stroke-linejoin:round;stroke-miterlimit:4;stroke-dasharray:none;stroke-opacity:1" /><path
       sodipodi:nodetypes="ccccccccccsssccsssssccsssssccssscccssccsscssssssssssssssssss"
       id="path1267"
       d="m 508.42935,-329.44313 c -0.41315,-1.7e-4 -0.83667,0.0569 -1.26019,0.1751 l -4.4457,1.226 -4.69531,-11.47018 c -1.26619,-3.09397 -4.76317,-5.66183 -8.15275,-6.14621 l -46.65937,-0.012 c -3.39014,0.48264 -6.89032,3.04902 -8.15612,6.14204 l -4.69677,11.45021 -4.38612,-1.21072 c -0.42154,-0.11828 -0.847,-0.17753 -1.25819,-0.17763 -2.26207,0.002 -3.90438,1.73141 -3.90496,4.1165 l -6.1e-4,2.43837 c -6.9e-4,2.78615 2.26083,5.05169 5.03875,5.05241 l 0.32307,10e-5 -0.6718,1.6374 c -1.30795,3.19236 -2.37439,8.59811 -2.37524,12.05092 l -0.006,22.87916 c -7e-4,2.78387 2.26081,5.05168 5.03874,5.0524 l 6.06005,0.002 c 2.7802,7.1e-4 5.04058,-2.26594 5.04126,-5.0498 l 10e-4,-5.62295 54.53434,0.014 -0.001,5.62294 c -6.9e-4,2.78387 2.25952,5.05169 5.03907,5.0524 l 6.05812,0.002 c 2.77954,7.1e-4 5.0412,-2.26594 5.04189,-5.04979 l 0.006,-22.87918 c 8.7e-4,-3.4528 -1.06354,-8.85909 -2.3695,-12.05213 l -0.67099,-1.63775 0.38755,7e-5 c 2.78019,7.1e-4 5.04089,-2.26366 5.04157,-5.0498 l 6.1e-4,-2.43837 c 6e-4,-2.38476 -1.63924,-4.11598 -3.9013,-4.11656 m -74.50632,8.77052 6.90297,-14.66256 c 0,0 2.2686,-3.97663 4.48561,-3.97607 l 42.22494,0.0108 c 2.21701,5.7e-4 4.24256,3.97833 4.24256,3.97833 l 7.37457,14.6662 c 0.84198,2.05606 -0.28251,3.73851 -2.50115,3.73795 l -60.22984,-0.0155 c -2.21736,-5.6e-4 -3.34296,-1.6836 -2.49966,-3.7392 m 16.12121,22.44784 c -2.8e-4,1.11056 -0.90681,2.02021 -2.01694,2.01992 l -13.62622,-0.004 c -1.10884,-2.9e-4 -2.0159,-0.91038 -2.01564,-2.02094 l 0.002,-6.47795 c 2.7e-4,-1.11251 0.90778,-2.0202 2.01663,-2.01992 l 13.62621,0.003 c 1.11013,2.9e-4 2.01623,0.90846 2.01594,2.02095 z m 50.50595,0.013 c -2.7e-4,1.11057 -0.90812,2.02019 -2.01662,2.01991 l -13.62588,-0.004 c -1.10949,-2.7e-4 -2.01624,-0.91038 -2.01595,-2.02093 l 0.002,-6.47796 c 2.8e-4,-1.11249 0.90746,-2.02019 2.01695,-2.01991 l 13.62589,0.004 c 1.10851,2.8e-4 2.0159,0.90844 2.01563,2.02095 z"
       inkscape:connector-curvature="0"
       style="fill:#ffffff;fill-opacity:1;stroke:#424143;stroke-width:2.50000024;stroke-miterlimit:4;stroke-dasharray:none;stroke-opacity:1" /><path
       style="opacity:1;fill:#f3ba93;fill-opacity:1;stroke:none;stroke-width:2.50000024;stroke-linecap:square;stroke-linejoin:miter;stroke-miterlimit:4;stroke-dasharray:none;stroke-opacity:1"
       d="m 499.78671,-276.90772 c -3.51485,-0.0471 -4.25513,-0.2875 -5.1898,-1.68565 -0.44066,-0.65918 -0.48431,-1.0883 -0.48413,-4.75881 1.3e-4,-2.21887 -0.0714,-4.08317 -0.15895,-4.14288 -0.14396,-0.0982 -57.08318,-0.19181 -57.64155,-0.0948 -0.13003,0.0222 -0.22829,1.44277 -0.21853,3.15599 0.01,1.7132 -0.005,3.58663 -0.0328,4.16319 -0.0615,1.27381 -0.94408,2.62509 -1.9801,3.03156 -0.87635,0.34383 -7.32587,0.39982 -8.43384,0.0732 -0.92029,-0.27129 -1.88831,-1.33871 -2.06797,-2.28036 -0.18837,-0.98728 -0.18167,-23.36881 0.008,-25.75114 0.2407,-3.02796 1.20943,-7.02172 2.46079,-10.14508 0.6382,-1.59294 1.14664,-2.96865 1.12987,-3.05716 -0.0168,-0.0885 -0.7164,-0.16543 -1.55471,-0.17092 -1.96018,-0.0129 -2.83226,-0.28372 -3.57964,-1.11182 -0.70794,-0.78443 -0.97968,-1.99835 -0.8934,-3.99094 0.0727,-1.67835 0.64517,-2.73725 1.57569,-2.91438 0.35881,-0.0683 2.12372,0.25831 3.92204,0.7258 1.79831,0.46748 3.32997,0.75375 3.40369,0.63617 0.0738,-0.11772 1.27394,-3.0173 2.66715,-6.4438 1.3932,-3.42649 2.8414,-6.71106 3.2182,-7.29904 0.8284,-1.29267 2.58635,-2.69309 4.26718,-3.39934 1.19038,-0.50018 2.17823,-0.52202 24.54797,-0.54142 18.72899,-0.0163 23.57134,0.0537 24.64976,0.35608 1.67277,0.46908 3.71191,1.93914 4.74143,3.4182 0.44894,0.64496 1.90968,3.89413 3.41536,7.59689 1.44701,3.55847 2.66725,6.50213 2.71166,6.54149 0.0445,0.0393 1.53863,-0.33778 3.32044,-0.8383 3.63122,-1.01984 4.3328,-1.01071 5.12438,0.0667 0.36461,0.49628 0.43473,0.91429 0.43691,2.60506 0.003,2.29605 -0.28947,3.0974 -1.45328,3.98119 -0.77493,0.58847 -0.92828,0.62336 -2.73408,0.62221 -2.26222,-0.001 -2.19343,-0.27589 -0.78371,3.12674 0.82056,1.98057 1.12737,3.13421 1.82653,6.86764 l 0.84037,4.48719 -0.0427,12.22555 c -0.0236,6.73555 -0.15822,12.50528 -0.29992,12.84847 -0.40007,0.96895 -1.47576,1.81103 -2.53524,1.98463 -0.52076,0.0854 -2.40302,0.13564 -4.18276,0.11179 z m -0.42682,-17.36805 c 0.51975,-0.40162 1.07049,-1.09404 1.2239,-1.53871 0.15339,-0.44469 0.27755,-2.63488 0.27594,-4.86711 l -0.003,-4.05859 -0.77561,-1.01748 c -0.4266,-0.55959 -1.08306,-1.16227 -1.45883,-1.33926 -1.0457,-0.49255 -15.52446,-0.45142 -16.67105,0.0474 -0.93142,0.40518 -1.71008,1.31459 -2.02554,2.36568 -0.26455,0.88148 -0.26682,6.92533 -0.003,8.31656 0.25514,1.346 1.20548,2.39601 2.47385,2.73333 0.83838,0.22297 14.09656,0.37671 15.41609,0.17876 0.33128,-0.0497 1.02758,-0.41894 1.54733,-0.82055 z m -50.05239,-0.32501 c 0.2938,-0.32052 0.64852,-0.89624 0.78827,-1.27935 0.35085,-0.96189 0.34299,-8.27071 -0.01,-9.18737 -0.32953,-0.85603 -1.47785,-1.86203 -2.46022,-2.15532 -0.70187,-0.20955 -14.54068,-0.30233 -15.58014,-0.10446 -0.83967,0.15983 -2.14716,1.25973 -2.49288,2.09709 -0.41665,1.00911 -0.458,7.56023 -0.0571,9.04492 0.3469,1.28497 1.03862,2.07688 2.17837,2.49421 0.39436,0.14439 3.76948,0.27801 7.50026,0.2969 7.40568,0.0375 9.18734,-0.17462 10.13329,-1.20662 z m 49.02071,-20.57701 c 0.34899,-0.27422 0.8336,-0.97458 1.07692,-1.55638 0.74125,-1.77232 0.45343,-2.59347 -4.00509,-11.42607 -3.9769,-7.87852 -4.86527,-9.36411 -6.29987,-10.53522 -1.64247,-1.3408 -1.00222,-1.30579 -24.12283,-1.31925 -19.9704,-0.0117 -21.95789,0.0271 -22.83083,0.44548 -1.23193,0.59037 -2.61449,1.90027 -3.60532,3.41585 -1.42139,2.17415 -7.94192,16.35807 -8.02455,17.45557 -0.14624,1.94207 0.9681,3.64824 2.77474,4.2484 0.6374,0.21175 10.16011,0.30222 31.30093,0.29736 16.71165,-0.004 30.5521,0.006 30.75656,0.0228 0.65655,0.0526 2.32541,-0.53472 2.97934,-1.04857 z"
       id="path1246"
       inkscape:connector-curvature="0" /><path
       style="fill:none;stroke:#424143;stroke-width:2.50000024;stroke-miterlimit:4;stroke-dasharray:none;stroke-opacity:1"
       inkscape:connector-curvature="0"
       d="m 508.42935,-329.44313 c -0.41315,-1.7e-4 -0.83667,0.0569 -1.26019,0.1751 l -4.4457,1.226 -4.69531,-11.47018 c -1.26619,-3.09397 -4.76317,-5.66183 -8.15275,-6.14621 l -46.65937,-0.012 c -3.39014,0.48264 -6.89032,3.04902 -8.15612,6.14204 l -4.69677,11.45021 -4.38612,-1.21072 c -0.42154,-0.11828 -0.847,-0.17753 -1.25819,-0.17763 -2.26207,0.002 -3.90438,1.73141 -3.90496,4.1165 l -6.1e-4,2.43837 c -6.9e-4,2.78615 2.26083,5.05169 5.03875,5.05241 l 0.32307,10e-5 -0.6718,1.6374 c -1.30795,3.19236 -2.37439,8.59811 -2.37524,12.05092 l -0.006,22.87916 c -7e-4,2.78387 2.26081,5.05168 5.03874,5.0524 l 6.06005,0.002 c 2.7802,7.1e-4 5.04058,-2.26594 5.04126,-5.0498 l 10e-4,-5.62295 54.53434,0.014 -0.001,5.62294 c -6.9e-4,2.78387 2.25952,5.05169 5.03907,5.0524 l 6.05812,0.002 c 2.77954,7.1e-4 5.0412,-2.26594 5.04189,-5.04979 l 0.006,-22.87918 c 8.7e-4,-3.4528 -1.06354,-8.85909 -2.3695,-12.05213 l -0.67099,-1.63775 0.38755,7e-5 c 2.78019,7.1e-4 5.04089,-2.26366 5.04157,-5.0498 l 6.1e-4,-2.43837 c 6e-4,-2.38476 -1.63924,-4.11598 -3.9013,-4.11656 m -74.50632,8.77052 6.90297,-14.66256 c 0,0 2.2686,-3.97663 4.48561,-3.97607 l 42.22494,0.0108 c 2.21701,5.7e-4 4.24256,3.97833 4.24256,3.97833 l 7.37457,14.6662 c 0.84198,2.05606 -0.28251,3.73851 -2.50115,3.73795 l -60.22984,-0.0155 c -2.21736,-5.6e-4 -3.34296,-1.6836 -2.49966,-3.7392 m 16.12121,22.44784 c -2.8e-4,1.11056 -0.90681,2.02021 -2.01694,2.01992 l -13.62622,-0.004 c -1.10884,-2.9e-4 -2.0159,-0.91038 -2.01564,-2.02094 l 0.002,-6.47795 c 2.7e-4,-1.11251 0.90778,-2.0202 2.01663,-2.01992 l 13.62621,0.003 c 1.11013,2.9e-4 2.01623,0.90846 2.01594,2.02095 z m 50.50595,0.013 c -2.7e-4,1.11057 -0.90812,2.02019 -2.01662,2.01991 l -13.62588,-0.004 c -1.10949,-2.7e-4 -2.01624,-0.91038 -2.01595,-2.02093 l 0.002,-6.47796 c 2.8e-4,-1.11249 0.90746,-2.02019 2.01695,-2.01991 l 13.62589,0.004 c 1.10851,2.8e-4 2.0159,0.90844 2.01563,2.02095 z"
       id="path1250"
       sodipodi:nodetypes="ccccccccccsssccsssssccsssssccssscccssccsscssssssssssssssssss" /></g></svg>