<?xml version="1.0" encoding="UTF-8" standalone="no"?>
<!-- Generator: Adobe Illustrator 14.0.0, SVG Export Plug-In . SVG Version: 6.00 Build 43363)  -->

<svg
   xmlns:dc="http://purl.org/dc/elements/1.1/"
   xmlns:cc="http://creativecommons.org/ns#"
   xmlns:rdf="http://www.w3.org/1999/02/22-rdf-syntax-ns#"
   xmlns:svg="http://www.w3.org/2000/svg"
   xmlns="http://www.w3.org/2000/svg"
   xmlns:sodipodi="http://sodipodi.sourceforge.net/DTD/sodipodi-0.dtd"
   xmlns:inkscape="http://www.inkscape.org/namespaces/inkscape"
   version="1.1"
   id="Layer_1"
   inkscape:version="0.92.2 (5c3e80d, 2017-08-06)"
   sodipodi:docname="community.svg"
   x="0px"
   y="0px"
   width="100"
   height="100"
   viewBox="416.572 -360.945 100 100"
   enable-background="new 416.572 -360.945 595.275 841.89"
   xml:space="preserve"
   inkscape:export-filename="C:\Users\holly.jones\Downloads\volcano_pixelhint_12th_jan-20180116T210822Z-001\volcano_pixelhint_12th_jan\volcano_pixelhint\img\hedges_icon_100_white.png"
   inkscape:export-xdpi="149.93106"
   inkscape:export-ydpi="149.93106"><metadata
     id="metadata326"><rdf:RDF><cc:Work
         rdf:about=""><dc:format>image/svg+xml</dc:format><dc:type
           rdf:resource="http://purl.org/dc/dcmitype/StillImage" /><dc:title /></cc:Work></rdf:RDF></metadata><defs
     id="defs324" /><sodipodi:namedview
     id="namedview230"
     inkscape:pageshadow="2"
     inkscape:window-width="1920"
     inkscape:window-height="1001"
     inkscape:window-x="-9"
     inkscape:window-y="-9"
     inkscape:current-layer="Layer_1"
     inkscape:pageopacity="0"
     gridtolerance="10"
     inkscape:zoom="0.71417785"
     inkscape:cy="67.138294"
     guidetolerance="10"
     bordercolor="#666666"
     showgrid="false"
     borderopacity="1"
     objecttolerance="10"
     inkscape:cx="90.551756"
     pagecolor="#ffffff"
     inkscape:window-maximized="1"
     inkscape:snap-nodes="false" /><text
     xml:space="preserve"
     style="font-style:normal;font-weight:normal;font-size:40px;line-height:125%;font-family:Sans;letter-spacing:0px;word-spacing:0px;fill:#000000;fill-opacity:1;stroke:none;stroke-width:1px;stroke-linecap:butt;stroke-linejoin:miter;stroke-opacity:1"
     x="566.7934"
     y="-274.51813"
     id="text5063"><tspan
       sodipodi:role="line"
       id="tspan5061"
       x="566.7934"
       y="-239.1275" /></text>
<g
     transform="translate(-616.72964,335.36766)"
     id="g1261"><circle
       r="12.864443"
       cy="-663.95789"
       cx="1083.1669"
       id="circle1231"
       style="opacity:1;fill:#ffffff;fill-opacity:1;stroke:#424143;stroke-width:2.5;stroke-linecap:round;stroke-linejoin:round;stroke-miterlimit:4;stroke-dasharray:none;stroke-opacity:1" /><circle
       style="opacity:1;fill:#ffffff;fill-opacity:1;stroke:#424143;stroke-width:2.5;stroke-linecap:round;stroke-linejoin:round;stroke-miterlimit:4;stroke-dasharray:none;stroke-opacity:1"
       id="circle1233"
       cx="1054.2683"
       cy="-668.47528"
       r="9.5228596" /><circle
       r="9.5228596"
       cy="-668.66095"
       cx="1112.907"
       id="circle1235"
       style="opacity:1;fill:#ffffff;fill-opacity:1;stroke:#424143;stroke-width:2.5;stroke-linecap:round;stroke-linejoin:round;stroke-miterlimit:4;stroke-dasharray:none;stroke-opacity:1" /><path
       sodipodi:nodetypes="ccccc"
       inkscape:connector-curvature="0"
       id="path1237"
       d="m 1073.1472,-650.32233 c 7.8574,5.26562 14.9694,3.59828 20.128,0.35005 13.6963,7.88964 18.5885,35.53473 12.3393,35.53037 l -45.7694,-2e-5 c -6.2307,0.14122 -2.593,-27.47435 13.3021,-35.8804 z"
       style="fill:#ffffff;fill-opacity:1;stroke:#424143;stroke-width:2.5;stroke-linecap:butt;stroke-linejoin:round;stroke-miterlimit:4;stroke-dasharray:none;stroke-opacity:1" /><path
       sodipodi:nodetypes="cccccc"
       inkscape:connector-curvature="0"
       id="path1239"
       d="m 1066.9337,-651.46 c -10.3311,8.10357 -10.4325,13.62756 -12.6893,19.42793 h -14.5273 c -5.6771,-0.94223 -3.3072,-19.94422 6.0384,-25.8164 4.1165,3.8439 10.5872,4.66832 16.8025,0.35005 2.3243,2.33891 3.6102,4.4761 4.3757,6.03842 z"
       style="fill:#ffffff;fill-opacity:1;stroke:#424143;stroke-width:2.5;stroke-linecap:butt;stroke-linejoin:round;stroke-miterlimit:4;stroke-dasharray:none;stroke-opacity:1" /><path
       style="fill:#ffffff;fill-opacity:1;stroke:#424143;stroke-width:2.5;stroke-linecap:butt;stroke-linejoin:round;stroke-miterlimit:4;stroke-dasharray:none;stroke-opacity:1"
       d="m 1098.8353,-651.46 c 11.6438,9.85383 10.2575,13.45253 12.5143,19.2529 l 15.4024,0.17503 c 5.6771,-0.94223 3.7448,-19.68168 -5.6008,-25.55386 -4.1165,3.8439 -10.7623,4.05573 -16.9776,-0.26254 -2.4932,1.49433 -4.0106,3.96178 -5.3383,6.38847 z"
       id="path1241"
       inkscape:connector-curvature="0"
       sodipodi:nodetypes="cccccc" /><path
       style="opacity:1;fill:#b8e69a;fill-opacity:1;stroke:none;stroke-width:2.5;stroke-linecap:round;stroke-linejoin:round;stroke-miterlimit:4;stroke-dasharray:none;stroke-opacity:1"
       d="m 1051.2775,-658.82901 c -3.7867,-0.52792 -6.7731,-3.72239 -7.0681,-7.56062 -0.1978,-2.57371 1.0177,-5.3791 3.007,-6.93994 4.2674,-3.34832 10.3088,-1.94535 12.6127,2.929 1.8872,3.99297 0.1516,8.84828 -3.8486,10.76632 -1.5969,0.76567 -3.1184,1.02617 -4.703,0.80524 z"
       id="path1219"
       inkscape:connector-curvature="0" /><path
       style="opacity:1;fill:#b8e69a;fill-opacity:1;stroke:none;stroke-width:2.5;stroke-linecap:round;stroke-linejoin:round;stroke-miterlimit:4;stroke-dasharray:none;stroke-opacity:1"
       d="m 1037.4899,-631.97208 c -1.4139,-1.31039 -1.7154,-5.65371 -0.7052,-10.1612 1.0733,-4.7893 3.4386,-9.18203 6.3242,-11.74483 0.345,-0.30641 0.6597,-0.55711 0.6993,-0.55711 0.04,0 0.4416,0.24411 0.8932,0.54247 2.3742,1.56859 4.6121,2.23491 7.5042,2.2343 2.5972,-5.6e-4 4.6068,-0.51015 7.1537,-1.814 l 1.2131,-0.62104 0.4577,0.5274 c 0.5894,0.67911 1.883,2.47467 2.1792,3.02476 l 0.2296,0.42622 -0.4181,0.34613 c -1.0207,0.84504 -2.8528,2.56053 -3.7688,3.52889 -3.2625,3.44891 -4.8971,6.26797 -6.6804,11.521 l -1.0165,2.99426 -6.8647,0.032 -6.8647,0.032 z"
       id="path1221"
       inkscape:connector-curvature="0" /><path
       style="opacity:1;fill:#b8e69a;fill-opacity:1;stroke:none;stroke-width:2.5;stroke-linecap:round;stroke-linejoin:round;stroke-miterlimit:4;stroke-dasharray:none;stroke-opacity:1"
       d="m 1057.5944,-614.42114 c -0.7121,-0.76437 -1.0613,-2.78098 -0.9592,-5.53879 0.2517,-6.7947 3.1773,-14.81315 7.5342,-20.64959 1.6638,-2.22885 3.8122,-5.63926 6.0436,-7.01124 l 1.1758,0.4524 1.1463,0.65107 c 2.2493,1.2776 4.9536,2.14529 7.5674,2.428 3.2085,0.34705 6.8599,-0.38677 10.1749,-2.04486 l 1.3272,-0.66384 0.4738,0.31718 c 6.0397,4.04299 11.4934,14.2624 12.9214,24.21284 0.3561,2.48157 0.3042,5.79641 -0.1086,6.92845 -0.1462,0.40115 -0.3595,0.83277 -0.4739,0.95916 -0.2012,0.22232 -0.9613,0.22979 -23.3894,0.22979 h -23.1814 z"
       id="path1223"
       inkscape:connector-curvature="0"
       sodipodi:nodetypes="cccccccccccccscc" /><path
       style="opacity:1;fill:#b8e69a;fill-opacity:1;stroke:none;stroke-width:2.5;stroke-linecap:round;stroke-linejoin:round;stroke-miterlimit:4;stroke-dasharray:none;stroke-opacity:1"
       d="m 1079.1859,-651.01903 c -2.91,-0.64386 -5.5614,-2.40329 -7.1664,-4.75552 -0.5824,-0.85341 -1.433,-2.72295 -1.6994,-3.73493 -0.356,-1.35234 -0.3277,-4.49141 0.052,-5.80384 1.2082,-4.17248 4.3798,-7.24825 8.5193,-8.26186 1.5306,-0.37478 3.7608,-0.37478 5.2913,0 4.0626,0.99479 7.2148,3.98786 8.4533,8.02652 0.3032,0.9887 0.3345,1.27623 0.3412,3.13077 0.01,1.63198 -0.04,2.21567 -0.2266,2.9065 -0.9121,3.37086 -3.113,6.054 -6.2012,7.55964 -1.6059,0.78299 -2.7717,1.06002 -4.7029,1.11755 -1.2562,0.0374 -1.8396,-0.003 -2.6609,-0.18483 z"
       id="path1225"
       inkscape:connector-curvature="0" /><path
       style="opacity:1;fill:#b8e69a;fill-opacity:1;stroke:none;stroke-width:2.5;stroke-linecap:round;stroke-linejoin:round;stroke-miterlimit:4;stroke-dasharray:none;stroke-opacity:1"
       d="m 1109.2199,-659.20365 c -3.5603,-0.93264 -5.9849,-3.89613 -6.1735,-7.54571 -0.078,-1.50525 0.1602,-2.65325 0.8427,-4.06311 0.419,-0.86568 0.7137,-1.26171 1.5816,-2.125 1.17,-1.16387 2.243,-1.79185 3.7275,-2.18167 1.0707,-0.28116 3.0184,-0.27759 4.0842,0.007 2.2774,0.60913 4.2462,2.22195 5.2355,4.28891 0.6997,1.462 0.8791,2.21976 0.8762,3.70191 0,2.28671 -0.7368,4.03149 -2.3956,5.70664 -0.8514,0.85978 -1.2584,1.16494 -2.1072,1.5802 -1.8088,0.8849 -3.8385,1.1105 -5.6714,0.63037 z"
       id="path1227"
       inkscape:connector-curvature="0" /><path
       style="opacity:1;fill:#b8e69a;fill-opacity:1;stroke:none;stroke-width:2.5;stroke-linecap:round;stroke-linejoin:round;stroke-miterlimit:4;stroke-dasharray:none;stroke-opacity:1"
       d="m 1114.5604,-631.87945 -3.9201,-0.0345 -0.1889,-0.58615 c -0.104,-0.32238 -0.4194,-1.39369 -0.7011,-2.3807 -1.1467,-4.01844 -2.3941,-6.40212 -4.9222,-9.40594 -0.9517,-1.13084 -3.9702,-4.16801 -5.309,-5.34197 l -0.6445,-0.56513 0.5556,-0.90114 c 0.8952,-1.45197 2.0027,-2.7773 2.8068,-3.35881 l 0.3408,-0.24642 0.7295,0.44316 c 1.6631,1.0103 3.9908,1.87939 5.9871,2.23544 1.6107,0.28726 4.4159,0.20797 5.8043,-0.16405 1.3327,-0.35713 2.6403,-0.92379 3.627,-1.57186 0.4639,-0.30468 0.8828,-0.55397 0.9309,-0.55397 0.048,0 0.4605,0.34176 0.9164,0.75948 3.0705,2.81361 5.449,7.84703 6.198,13.11638 0.2278,1.6031 0.2326,4.32368 0.01,5.5735 -0.2085,1.16902 -0.733,2.36757 -1.2126,2.77116 l -0.3616,0.30423 -3.363,-0.0291 c -1.8497,-0.016 -5.1271,-0.0446 -7.2831,-0.0636 z"
       id="path1229"
       inkscape:connector-curvature="0" /><circle
       style="opacity:1;fill:none;fill-opacity:1;stroke:#424143;stroke-width:2.5;stroke-linecap:round;stroke-linejoin:round;stroke-miterlimit:4;stroke-dasharray:none;stroke-opacity:1"
       id="path1196"
       cx="1083.1669"
       cy="-663.95789"
       r="12.864443" /><circle
       r="9.5228596"
       cy="-668.47528"
       cx="1054.2683"
       id="circle1198"
       style="opacity:1;fill:none;fill-opacity:1;stroke:#424143;stroke-width:2.5;stroke-linecap:round;stroke-linejoin:round;stroke-miterlimit:4;stroke-dasharray:none;stroke-opacity:1" /><circle
       style="opacity:1;fill:none;fill-opacity:1;stroke:#424143;stroke-width:2.5;stroke-linecap:round;stroke-linejoin:round;stroke-miterlimit:4;stroke-dasharray:none;stroke-opacity:1"
       id="circle1200"
       cx="1112.907"
       cy="-668.66095"
       r="9.5228596" /><path
       style="fill:none;stroke:#424143;stroke-width:2.5;stroke-linecap:butt;stroke-linejoin:round;stroke-miterlimit:4;stroke-dasharray:none;stroke-opacity:1"
       d="m 1073.1472,-650.32233 c 7.8574,5.26562 14.9694,3.59828 20.128,0.35005 13.6963,7.88964 18.5885,35.53473 12.3393,35.53037 l -45.7694,-2e-5 c -6.2307,0.14122 -2.593,-27.47435 13.3021,-35.8804 z"
       id="path1211"
       inkscape:connector-curvature="0"
       sodipodi:nodetypes="ccccc" /><path
       style="fill:none;stroke:#424143;stroke-width:2.5;stroke-linecap:butt;stroke-linejoin:round;stroke-miterlimit:4;stroke-dasharray:none;stroke-opacity:1"
       d="m 1066.9337,-651.46 c -10.3311,8.10357 -10.4325,13.62756 -12.6893,19.42793 h -14.5273 c -5.6771,-0.94223 -3.3072,-19.94422 6.0384,-25.8164 4.1165,3.8439 10.5872,4.66832 16.8025,0.35005 2.3243,2.33891 3.6102,4.4761 4.3757,6.03842 z"
       id="path1215"
       inkscape:connector-curvature="0"
       sodipodi:nodetypes="cccccc" /><path
       sodipodi:nodetypes="cccccc"
       inkscape:connector-curvature="0"
       id="path1217"
       d="m 1098.8353,-651.46 c 11.6438,9.85383 10.2575,13.45253 12.5143,19.2529 l 15.4024,0.17503 c 5.6771,-0.94223 3.7448,-19.68168 -5.6008,-25.55386 -4.1165,3.8439 -10.7623,4.05573 -16.9776,-0.26254 -2.4932,1.49433 -4.0106,3.96178 -5.3383,6.38847 z"
       style="fill:none;stroke:#424143;stroke-width:2.5;stroke-linecap:butt;stroke-linejoin:round;stroke-miterlimit:4;stroke-dasharray:none;stroke-opacity:1" /></g></svg>