<?xml version="1.0" encoding="UTF-8" standalone="no"?>
<!-- Generator: Adobe Illustrator 14.0.0, SVG Export Plug-In . SVG Version: 6.00 Build 43363)  -->

<svg
   xmlns:dc="http://purl.org/dc/elements/1.1/"
   xmlns:cc="http://creativecommons.org/ns#"
   xmlns:rdf="http://www.w3.org/1999/02/22-rdf-syntax-ns#"
   xmlns:svg="http://www.w3.org/2000/svg"
   xmlns="http://www.w3.org/2000/svg"
   xmlns:sodipodi="http://sodipodi.sourceforge.net/DTD/sodipodi-0.dtd"
   xmlns:inkscape="http://www.inkscape.org/namespaces/inkscape"
   version="1.1"
   id="Layer_1"
   inkscape:version="0.92.2 (5c3e80d, 2017-08-06)"
   sodipodi:docname="constitution.svg"
   x="0px"
   y="0px"
   width="100"
   height="100"
   viewBox="416.572 -360.945 100 100"
   enable-background="new 416.572 -360.945 595.275 841.89"
   xml:space="preserve"
   inkscape:export-filename="C:\Users\holly.jones\Downloads\volcano_pixelhint_12th_jan-20180116T210822Z-001\volcano_pixelhint_12th_jan\volcano_pixelhint\img\hedges_icon_100_white.png"
   inkscape:export-xdpi="149.93106"
   inkscape:export-ydpi="149.93106"><metadata
     id="metadata326"><rdf:RDF><cc:Work
         rdf:about=""><dc:format>image/svg+xml</dc:format><dc:type
           rdf:resource="http://purl.org/dc/dcmitype/StillImage" /><dc:title /></cc:Work></rdf:RDF></metadata><defs
     id="defs324" /><sodipodi:namedview
     id="namedview230"
     inkscape:pageshadow="2"
     inkscape:window-width="1920"
     inkscape:window-height="1001"
     inkscape:window-x="-9"
     inkscape:window-y="-9"
     inkscape:current-layer="g1249"
     inkscape:pageopacity="0"
     gridtolerance="10"
     inkscape:zoom="2.8567114"
     inkscape:cy="57.62451"
     guidetolerance="10"
     bordercolor="#666666"
     showgrid="false"
     borderopacity="1"
     objecttolerance="10"
     inkscape:cx="-62.389687"
     pagecolor="#ffffff"
     inkscape:window-maximized="1"
     inkscape:snap-nodes="false" /><g
     id="g1249"><g
       id="g834"><path
         style="fill:#ffffff;stroke:#424143;stroke-width:2.57640028;stroke-linecap:round;stroke-linejoin:round;stroke-miterlimit:10;fill-opacity:1"
         inkscape:connector-curvature="0"
         d="m 497.68394,-336.02678 c 0.006,13.00421 0.0303,62.11643 0.0319,64.10633 0.003,3.22631 -0.69839,4.65508 -3.48559,4.65668 -2.35477,0.002 -42.64323,0.0216 -55.07967,0.0279 -2.98628,0.0702 -3.62972,-1.2396 -3.63371,-3.42187 -0.0327,-15.65502 -0.16006,-79.75018 -0.0342,-81.58364 0.14095,-2.06174 1.40076,-2.39379 2.56263,-2.39459 1.00179,-8e-4 32.43414,-0.0168 41.26635,-0.0208 2.25205,0.006 3.99524,1.10071 5.16746,2.27566 3.46487,3.46816 10.13024,10.14188 11.32077,11.33438 1.59348,1.5956 1.88335,3.02916 1.88414,5.01986 z"
         stroke-miterlimit="10"
         id="path4916" /><path
         style="fill:none;stroke:#424143;stroke-width:2.57640028;stroke-linecap:round;stroke-linejoin:round;stroke-miterlimit:10"
         inkscape:connector-curvature="0"
         d="m 482.22698,-342.44588 c -0.002,2.16152 1.66355,3.29895 3.38842,3.29895 1.72488,0 11.54216,0 11.54216,0 l -14.93058,-14.84485 c 0,7.9e-4 0.002,9.88326 0,11.5459 z"
         stroke-miterlimit="10"
         id="path4918" /><line
         style="fill:none;stroke:#424143;stroke-width:2;stroke-linecap:round;stroke-linejoin:round;stroke-miterlimit:10;stroke-dasharray:none"
         y2="-333.37149"
         x2="484.7493"
         y1="-333.37149"
         x1="443.9552"
         stroke-miterlimit="10"
         id="line4920" /><line
         style="fill:none;stroke:#424143;stroke-width:2;stroke-linecap:round;stroke-linejoin:round;stroke-miterlimit:10;stroke-dasharray:none"
         y2="-327.69183"
         x2="484.7493"
         y1="-327.69183"
         x1="443.9552"
         stroke-miterlimit="10"
         id="line4922" /><line
         style="fill:none;stroke:#424143;stroke-width:2;stroke-linecap:round;stroke-linejoin:round;stroke-miterlimit:10;stroke-dasharray:none"
         y2="-322.01218"
         x2="484.7493"
         y1="-322.01218"
         x1="443.9552"
         stroke-miterlimit="10"
         id="line4924" /><line
         style="fill:none;stroke:#424143;stroke-width:2;stroke-linecap:round;stroke-linejoin:round;stroke-miterlimit:10;stroke-dasharray:none"
         y2="-316.33252"
         x2="484.7493"
         y1="-316.33252"
         x1="443.9552"
         stroke-miterlimit="10"
         id="line4926" /><line
         style="fill:none;stroke:#424143;stroke-width:2;stroke-linecap:round;stroke-linejoin:round;stroke-miterlimit:10;stroke-dasharray:none"
         y2="-310.65289"
         x2="484.7493"
         y1="-310.65289"
         x1="443.9552"
         stroke-miterlimit="10"
         id="line4928" /><line
         style="fill:none;stroke:#424143;stroke-width:2;stroke-linecap:round;stroke-linejoin:round;stroke-miterlimit:10;stroke-dasharray:none"
         y2="-304.97324"
         x2="484.7493"
         y1="-304.97324"
         x1="443.9552"
         stroke-miterlimit="10"
         id="line4930" /><line
         style="fill:none;stroke:#424143;stroke-width:2;stroke-linecap:round;stroke-linejoin:round;stroke-miterlimit:10;stroke-dasharray:none"
         y2="-299.29358"
         x2="468.09305"
         y1="-299.29358"
         x1="443.9552"
         stroke-miterlimit="10"
         id="line4932" /><path
         style="fill:#424143;stroke-width:1"
         inkscape:connector-curvature="0"
         d="m 482.22698,-278.06656 c -3.02212,0 -5.77666,-1.15818 -7.86387,-3.04352 l -2.35796,8.54629 4.81069,-0.5755 3.87738,2.90623 2.17162,-7.86623 c -0.21182,0.0112 -0.42285,0.0327 -0.63786,0.0327 m 0,-1.21406 c 5.83876,0 10.57141,-4.74208 10.57141,-10.59445 0,-5.85078 -4.73265,-10.59606 -10.57141,-10.59606 -5.83559,0 -10.56903,4.74528 -10.56903,10.59606 -8e-4,5.85157 4.73344,10.59445 10.56903,10.59445 m 1.93192,1.04085 -1.44058,5.2226 0.76847,2.78411 3.87738,-2.90623 4.81069,0.5755 -2.30222,-8.34515 c -1.59348,1.36811 -3.55486,2.30919 -5.71374,2.66917"
         id="path4934" /></g></g><text
     xml:space="preserve"
     style="font-style:normal;font-weight:normal;font-size:40px;line-height:125%;font-family:Sans;letter-spacing:0px;word-spacing:0px;fill:#000000;fill-opacity:1;stroke:none;stroke-width:1px;stroke-linecap:butt;stroke-linejoin:miter;stroke-opacity:1"
     x="566.7934"
     y="-274.51813"
     id="text5063"><tspan
       sodipodi:role="line"
       id="tspan5061"
       x="566.7934"
       y="-239.1275" /></text>
</svg>