<?xml version="1.0" encoding="UTF-8" standalone="no"?>
<!-- Generator: Adobe Illustrator 14.0.0, SVG Export Plug-In . SVG Version: 6.00 Build 43363)  -->

<svg
   xmlns:dc="http://purl.org/dc/elements/1.1/"
   xmlns:cc="http://creativecommons.org/ns#"
   xmlns:rdf="http://www.w3.org/1999/02/22-rdf-syntax-ns#"
   xmlns:svg="http://www.w3.org/2000/svg"
   xmlns="http://www.w3.org/2000/svg"
   xmlns:sodipodi="http://sodipodi.sourceforge.net/DTD/sodipodi-0.dtd"
   xmlns:inkscape="http://www.inkscape.org/namespaces/inkscape"
   version="1.1"
   id="Layer_1"
   inkscape:version="0.92.2 (5c3e80d, 2017-08-06)"
   sodipodi:docname="crime.svg"
   x="0px"
   y="0px"
   width="100"
   height="100"
   viewBox="416.572 -360.945 100 100"
   enable-background="new 416.572 -360.945 595.275 841.89"
   xml:space="preserve"
   inkscape:export-filename="C:\Users\holly.jones\Downloads\volcano_pixelhint_12th_jan-20180116T210822Z-001\volcano_pixelhint_12th_jan\volcano_pixelhint\img\hedges_icon_100_white.png"
   inkscape:export-xdpi="149.93106"
   inkscape:export-ydpi="149.93106"><metadata
     id="metadata326"><rdf:RDF><cc:Work
         rdf:about=""><dc:format>image/svg+xml</dc:format><dc:type
           rdf:resource="http://purl.org/dc/dcmitype/StillImage" /><dc:title /></cc:Work></rdf:RDF></metadata><defs
     id="defs324" /><sodipodi:namedview
     id="namedview230"
     inkscape:pageshadow="2"
     inkscape:window-width="1920"
     inkscape:window-height="1001"
     inkscape:window-x="-9"
     inkscape:window-y="-9"
     inkscape:current-layer="Layer_1"
     inkscape:pageopacity="0"
     gridtolerance="10"
     inkscape:zoom="4.04"
     inkscape:cy="30.31976"
     guidetolerance="10"
     bordercolor="#666666"
     showgrid="false"
     borderopacity="1"
     objecttolerance="10"
     inkscape:cx="0.22560074"
     pagecolor="#ffffff"
     inkscape:window-maximized="1"
     inkscape:snap-nodes="false" /><text
     xml:space="preserve"
     style="font-style:normal;font-weight:normal;font-size:40px;line-height:125%;font-family:Sans;letter-spacing:0px;word-spacing:0px;fill:#000000;fill-opacity:1;stroke:none;stroke-width:1px;stroke-linecap:butt;stroke-linejoin:miter;stroke-opacity:1"
     x="566.7934"
     y="-274.51813"
     id="text5063"><tspan
       sodipodi:role="line"
       id="tspan5061"
       x="566.7934"
       y="-239.1275" /></text>
<g
     id="g872"><g
       id="g854"><path
         style="opacity:1;fill:#ffffff;fill-opacity:1;stroke:none;stroke-width:2.5;stroke-linecap:round;stroke-linejoin:round;stroke-miterlimit:4;stroke-dasharray:none;stroke-opacity:1"
         d="M 24.666583,93.862106 C 20.112544,92.526531 16.776165,90.535284 13.370412,87.120221 9.4993098,83.238539 7.2356328,79.055421 6.0844771,73.656321 5.5826628,71.302735 5.5332381,66.401708 5.9867431,63.964877 6.641811,60.444983 8.0818676,56.895603 10.084279,53.86547 c 1.439766,-2.178712 4.763854,-5.550708 6.831468,-6.929924 l 1.438051,-0.959263 0.0059,-4.29296 c 0.005,-3.595467 0.05018,-4.356161 0.278381,-4.681957 l 0.272464,-0.388997 h 13.002419 c 12.374248,0 13.016411,0.01546 13.292083,0.320078 0.253249,0.279837 0.289667,0.86922 0.289667,4.687977 v 4.367898 l 0.516174,0.304912 c 1.217564,0.719233 3.351196,2.455361 4.693475,3.819064 3.574474,3.631523 5.97804,8.100272 7.077516,13.158625 0.563314,2.591639 0.563314,7.9759 0,10.567539 -0.482371,2.219241 -1.253055,4.423928 -2.217583,6.343826 l -0.741554,1.476063 -1.149045,-1.453129 c -0.631956,-0.799221 -1.379779,-1.883167 -1.66181,-2.408766 L 51.499103,76.84082 51.925166,75.673205 C 55.209777,66.671835 51.823795,56.451104 43.738104,50.960217 38.372592,47.316567 31.379477,46.392971 25.136013,48.503396 13.219117,52.531563 7.3788783,66.229095 12.762654,77.523528 c 1.140197,2.39198 2.403483,4.192895 4.204639,5.994052 2.348699,2.348699 5.312001,4.207469 8.1295,5.099335 l 1.313773,0.41587 0.0031,2.669153 c 0.0017,1.468034 -0.01656,2.664351 -0.04062,2.65848 -0.02407,-0.0059 -0.791994,-0.230111 -1.706507,-0.498312 z"
         id="path842"
         inkscape:connector-curvature="0"
         transform="translate(416.572,-360.945)" /><path
         style="opacity:1;fill:#ffffff;fill-opacity:1;stroke:none;stroke-width:2.5;stroke-linecap:round;stroke-linejoin:round;stroke-miterlimit:4;stroke-dasharray:none;stroke-opacity:1"
         d="m 75.249222,91.152077 c 0,-1.874117 0.0606,-2.731884 0.192993,-2.731884 0.413815,0 3.1429,-1.396556 4.441549,-2.272876 10.831924,-7.309305 12.536645,-22.505415 3.598379,-32.07642 -4.054139,-4.341134 -9.461369,-6.663311 -15.496518,-6.655101 -4.270423,0.0058 -7.816151,1.038701 -11.321865,3.298125 l -1.170331,0.754276 -0.961172,-1.170719 c -0.528645,-0.643896 -1.281877,-1.482061 -1.673848,-1.86259 -0.391972,-0.380528 -0.712676,-0.743092 -0.712676,-0.805696 0,-0.0626 0.551333,-0.480438 1.225185,-0.928519 l 1.225185,-0.814693 v -4.426774 c 0,-3.209678 0.05775,-4.48452 0.210032,-4.636805 0.159612,-0.159613 3.35136,-0.210032 13.29585,-0.210032 12.758434,0 13.090352,0.0085 13.267005,0.338546 0.11073,0.206902 0.181183,2.003392 0.181183,4.619984 v 4.281437 l 1.698327,1.199645 c 5.942064,4.197287 9.958446,10.831394 10.917915,18.033789 0.291718,2.189826 0.107809,7.058132 -0.339909,8.997885 -2.023529,8.766985 -7.911691,15.719978 -16.039401,18.940009 -0.866381,0.343241 -1.791833,0.677227 -2.05656,0.742186 l -0.481323,0.118111 z"
         id="path844"
         inkscape:connector-curvature="0"
         transform="translate(416.572,-360.945)" /><path
         style="opacity:1;fill:#ffffff;fill-opacity:1;stroke:none;stroke-width:2.5;stroke-linecap:round;stroke-linejoin:round;stroke-miterlimit:4;stroke-dasharray:none;stroke-opacity:1"
         d="M 61.422134,94.043036 C 56.56396,92.75153 52.835942,90.578524 49.257797,86.952629 42.315356,79.917545 39.928041,69.570422 43.078045,60.168289 c 0.44363,-1.324148 1.720586,-4.190336 1.984455,-4.454206 0.212912,-0.212911 2.394191,2.52631 3.076047,3.862858 l 0.341707,0.669801 -0.533689,1.592955 c -0.864507,2.580379 -1.104223,4.382016 -0.99826,7.502615 0.131824,3.882196 0.898696,6.658434 2.683259,9.713967 2.9392,5.032505 7.726567,8.697542 13.147025,10.064893 l 0.743862,0.187646 v 2.618649 c 0,1.440257 -0.05907,2.615383 -0.13127,2.611389 -0.0722,-0.004 -0.95827,-0.227113 -1.969047,-0.49582 z"
         id="path846"
         inkscape:connector-curvature="0"
         transform="translate(416.572,-360.945)" /><path
         style="opacity:1;fill:#ffffff;fill-opacity:1;stroke:none;stroke-width:2.5;stroke-linecap:round;stroke-linejoin:round;stroke-miterlimit:4;stroke-dasharray:none;stroke-opacity:1"
         d="m 38.143619,91.514194 v -2.68854 l 0.716805,-0.21476 c 1.168736,-0.350162 3.208174,-1.333831 4.505757,-2.173232 l 1.212415,-0.784308 0.398001,0.538325 c 0.2189,0.296078 0.941503,1.155109 1.605784,1.908957 0.664281,0.753847 1.162337,1.444166 1.106791,1.534041 -0.192478,0.311436 -2.464438,1.724741 -4.032221,2.5083 -1.457144,0.728264 -3.890617,1.668192 -5.03201,1.943613 l -0.481322,0.116144 z"
         id="path848"
         inkscape:connector-curvature="0"
         transform="translate(416.572,-360.945)" /></g><g
       id="g840"><path
         style="opacity:1;fill:#b8e69a;fill-opacity:1;stroke:none;stroke-width:0.60000002;stroke-linecap:round;stroke-linejoin:round;stroke-miterlimit:4;stroke-dasharray:none;stroke-opacity:1"
         d="m 437.97858,-265.83789 c -4.12824,-1.42329 -7.21491,-3.43504 -10.40125,-6.77905 -2.20671,-2.3159 -3.37953,-4.0409 -4.81409,-7.08059 -1.83784,-3.89419 -2.21585,-5.7605 -2.21585,-10.93999 0,-3.85864 0.0756,-4.73726 0.56466,-6.5594 0.7149,-2.66377 2.85214,-7.06935 4.44294,-9.15842 1.46069,-1.91821 3.80311,-5.62632 5.57158,-6.85948 l 1.68167,-1.17264 0.22478,-3.13001 c 0.006,-3.90004 0.0537,-4.39801 0.45904,-4.76485 0.40869,-0.36985 1.67271,-0.40965 13.01132,-0.40965 8.18366,0 12.72546,0.0893 13.03744,0.25623 0.4459,0.23864 0.47878,0.55962 0.47878,4.67411 v 4.41787 l 2.0745,1.50723 c 4.99356,3.62806 8.45025,8.77468 10.08196,15.0109 0.49506,1.89204 0.58289,2.82448 0.58289,6.18811 0,3.35475 -0.0883,4.29677 -0.5773,6.15993 -0.6223,2.37098 -2.15119,6.24295 -2.56642,6.49958 -0.30182,0.18653 -1.57871,-1.26847 -2.63868,-3.00675 l -0.7551,-1.23833 0.59347,-1.86885 c 2.54669,-8.01959 0.32736,-16.40963 -5.85522,-22.1353 -2.28139,-2.1128 -4.74887,-3.56167 -7.81654,-4.58977 -3.11097,-1.04262 -7.41045,-1.29317 -10.71599,-0.62448 -7.92607,1.60339 -14.06512,7.39031 -16.38312,15.44341 -0.45541,1.58218 -0.54269,2.48804 -0.52841,5.48433 0.015,3.15318 0.0976,3.8539 0.67941,5.76917 1.00093,3.29469 2.21416,5.49463 4.55999,8.26864 2.0141,2.38173 6.20668,5.14036 9.15317,6.02259 l 1.05198,0.31499 v 2.55983 c 0,1.88402 -0.0817,2.55924 -0.3094,2.55761 -0.17017,-0.001 -1.37284,-0.36885 -2.67259,-0.81697 z"
         id="path1201"
         inkscape:connector-curvature="0"
         sodipodi:nodetypes="cccscsscccscscccsccccsccscccsccsccc" /><path
         style="opacity:1;fill:#b8e69a;fill-opacity:1;stroke:none;stroke-width:0.60000002;stroke-linecap:round;stroke-linejoin:round;stroke-miterlimit:4;stroke-dasharray:none;stroke-opacity:1"
         d="m 490.09424,-267.82684 0.0438,-4.25536 1.46234,-0.63097 c 7.46907,-3.22274 12.43777,-9.4381 12.42261,-17.80059 -0.0131,-7.24089 -3.42861,-13.64174 -9.39892,-17.61424 -3.63334,-2.41754 -7.37474,-3.54912 -11.73463,-3.54912 -4.12365,0 -7.7843,1.02008 -11.17822,3.11492 l -1.43821,0.88771 -0.54339,-0.70181 c -0.29887,-0.386 -1.01854,-1.2146 -1.59927,-1.84134 -0.58073,-0.62674 -1.05587,-1.20129 -1.05587,-1.27678 0,-0.0755 0.50104,-0.45378 1.11342,-0.84067 l 1.59474,0.65303 c -6.13792,-3.60695 -0.48103,-4.2737 -0.48088,-5.73233 3.7e-4,-3.64764 0.0652,-4.44062 0.38941,-4.76485 0.34344,-0.34344 1.86649,-0.38897 13.01132,-0.38897 8.22756,0 12.78905,0.0892 13.10113,0.25623 0.44589,0.23864 0.47878,0.5596 0.47878,4.67256 v 4.41632 l 1.67079,1.22704 c 2.56597,1.88447 4.12006,3.38736 5.78923,5.59851 1.94914,2.58205 3.75041,6.29394 4.58489,9.44815 0.57579,2.17643 0.65556,2.95336 0.66069,6.43564 0.005,3.52174 -0.0674,4.23456 -0.65585,6.43565 -2.29905,8.60015 -8.29055,15.18689 -16.69084,18.34904 l -1.54703,0.58235 z"
         id="path1203"
         inkscape:connector-curvature="0"
         sodipodi:nodetypes="ccccsssccssccscscscsccccccc" /><path
         style="opacity:1;fill:#b8e69a;fill-opacity:1;stroke:none;stroke-width:0.60000002;stroke-linecap:round;stroke-linejoin:round;stroke-miterlimit:4;stroke-dasharray:none;stroke-opacity:1"
         d="m 477.01388,-264.81846 c -0.13614,-0.0444 -1.19431,-0.38332 -2.35148,-0.7532 -4.04453,-1.29277 -7.56304,-3.47616 -10.64994,-6.60875 -7.58118,-7.69341 -9.62314,-18.95134 -5.27375,-29.07573 0.48588,-1.13102 0.97996,-2.0564 1.09795,-2.0564 0.26973,0 2.2698,2.53385 2.84895,3.60926 0.42452,0.78829 0.41835,0.85415 -0.29186,3.11536 -0.66858,2.12865 -0.72525,2.60156 -0.72184,6.0229 0.004,4.39493 0.3026,5.73136 2.09887,9.40594 2.57833,5.27442 7.32178,9.3188 12.82714,10.93675 l 1.52914,0.44939 3.4e-4,2.53713 c 3.5e-4,2.63427 -0.0582,2.76141 -1.11352,2.41735 z"
         id="path1206"
         inkscape:connector-curvature="0" /><path
         style="opacity:1;fill:#b8e69a;fill-opacity:1;stroke:none;stroke-width:0.60000002;stroke-linecap:round;stroke-linejoin:round;stroke-miterlimit:4;stroke-dasharray:none;stroke-opacity:1"
         d="m 452.74895,-267.39129 c 0,-2.24772 0.0577,-2.61346 0.43317,-2.7436 0.90667,-0.31431 4.42669,-2.04542 5.15834,-2.53683 l 0.76477,-0.51366 1.62029,1.91413 1.62028,1.91413 -1.23084,0.8289 c -1.59225,1.07227 -5.40545,2.88502 -7.06651,3.35931 l -1.2995,0.37105 z"
         id="path1209"
         inkscape:connector-curvature="0" /></g><g
       transform="translate(-1.1312977e-8,-4.3516619e-6)"
       id="g1199"><path
         style="fill:#414042;stroke:#424143;stroke-width:0.60000002;stroke-miterlimit:4;stroke-dasharray:none;stroke-opacity:1"
         d="m 463.69592,-358.10945 c -0.3775,0 -0.75042,0.0646 -1.10745,0.19073 l -9.52913,3.37665 c -1.59722,0.56587 -2.49231,2.23287 -2.14027,3.84709 -0.22157,0.13586 -0.43021,0.29526 -0.6182,0.48323 l -7.14909,7.14911 c -1.29886,1.29885 -1.29886,3.41217 0,4.71103 l 0.54883,0.54883 c -0.31614,0.50912 -0.5021,1.10712 -0.5021,1.74901 v 9.31879 h -7.20714 c -1.83693,0 -3.33068,1.4945 -3.33068,3.33142 v 7.128 c -8.04132,5.34055 -12.82435,14.23557 -12.82435,23.90421 0,14.59058 10.95212,26.66369 25.06596,28.45016 v -1.98121 c -13.0275,-1.77353 -23.10285,-12.96219 -23.10285,-26.46819 0,-9.17536 4.62449,-17.60313 12.37052,-22.54497 l 0.45385,-0.28949 v -8.19851 c 0,-0.75421 0.61332,-1.36755 1.36755,-1.36755 h 25.06218 c 0.75422,0 1.36756,0.61334 1.36756,1.36755 v 8.19851 l 0.45384,0.28949 c 7.74603,4.94184 12.3705,13.36999 12.3705,22.54497 0,4.96113 -1.36375,9.60723 -3.72871,13.59257 -1.57638,-1.52041 -2.88979,-3.31089 -3.86443,-5.29681 1.1078,-2.54405 1.72491,-5.34872 1.72491,-8.29576 0,-11.49902 -9.35536,-20.85475 -20.85477,-20.85475 -11.4994,0 -20.85474,9.35573 -20.85474,20.85475 0,10.264 7.45576,18.8143 17.23459,20.5336 v -1.99478 c -8.69032,-1.69386 -15.27072,-9.36108 -15.27072,-18.53958 0,-10.4167 8.47418,-18.89087 18.89087,-18.89087 4.35898,0 8.3772,1.48485 11.57743,3.97449 -2.68918,4.4161 -4.16521,9.54725 -4.16521,14.91714 0,5.45326 1.53079,10.55546 4.18331,14.90131 -2.12245,1.65494 -4.60688,2.86473 -7.31119,3.49502 v 2.01287 c 3.1065,-0.65127 5.96095,-1.99523 8.39377,-3.86366 1.13596,1.6034 2.4335,3.08409 3.86669,4.42154 -3.49037,2.7599 -7.68253,4.66786 -12.26046,5.40914 v 1.98347 c 5.16394,-0.77755 9.88278,-2.93115 13.76445,-6.08235 4.28442,3.47814 9.58814,5.74666 15.38606,6.28364 v -1.97217 c -13.48853,-1.34149 -24.05875,-12.75359 -24.05875,-26.58957 0,-4.88701 1.31437,-9.56011 3.71138,-13.60915 1.58371,1.52389 2.90326,3.31978 3.88175,5.31264 -1.10817,2.54406 -1.7249,5.34949 -1.7249,8.29651 0,10.59623 7.9459,19.36594 18.19052,20.67911 v -1.9782 c -3.33619,-0.47335 -6.39576,-1.81859 -8.93656,-3.80109 2.65329,-4.34587 4.18784,-9.44617 4.18784,-14.89982 0,-5.36756 -1.47607,-10.49577 -4.16372,-14.9111 3.20025,-2.49079 7.21654,-3.97977 11.57667,-3.97977 10.41671,0 18.89089,8.47417 18.89089,18.89087 3.2e-4,8.59858 -5.77583,15.86903 -13.65062,18.1468 v 2.03549 c 8.96999,-2.33088 15.61449,-10.49286 15.61449,-20.18229 0,-11.49901 -9.35535,-20.85399 -20.85476,-20.85399 -4.75692,0 -9.14486,1.60336 -12.65698,4.29564 -1.1294,-1.59567 -2.42892,-3.07929 -3.88101,-4.42832 0.69748,-0.55119 1.42512,-1.0731 2.18551,-1.55828 l 0.45384,-0.28949 v -8.19777 c 0,-0.75421 0.61372,-1.3683 1.36756,-1.3683 h 25.06142 c 0.75423,0 1.36755,0.61409 1.36755,1.3683 v 8.19777 l 0.45385,0.28949 c 7.74603,4.94182 12.37128,13.36999 12.37128,22.54495 3.4e-4,12.94101 -9.24917,23.75686 -21.48275,26.19981 v 1.99931 c 13.32282,-2.47065 23.44586,-14.17152 23.44586,-28.19912 3.8e-4,-9.66864 -4.78304,-18.56366 -12.82436,-23.90421 v -7.128 c 0,-1.83692 -1.49449,-3.33142 -3.33143,-3.33142 h -7.20638 v -9.31879 c 0,-0.65541 -0.19285,-1.26536 -0.52095,-1.78143 l 0.51642,-0.51641 c 1.29847,-1.29886 1.29847,-3.41218 0,-4.71103 l -7.1491,-7.14911 c -0.37596,-0.37633 -0.82752,-0.64876 -1.3208,-0.8074 0.0718,-0.61527 -0.0282,-1.24063 -0.30232,-1.81537 -0.38368,-0.80517 -1.05506,-1.41149 -1.8915,-1.70755 l -9.52988,-3.37665 c -0.35703,-0.12661 -0.72995,-0.19073 -1.10745,-0.19073 -0.96034,0 -1.85171,0.41373 -2.47199,1.09539 -0.62029,-0.68166 -1.51165,-1.09539 -2.472,-1.09539 z m -7.7e-4,1.96387 c 0.5813,0 1.10143,0.3653 1.29443,0.90994 l 1.33136,3.75737 c 0.12126,0.34198 0.10139,0.71257 -0.0566,1.04412 -0.15787,0.33119 -0.43377,0.58068 -0.77575,0.70188 l -7.40618,2.62427 c -0.0787,-0.0989 -0.16185,-0.19501 -0.25255,-0.28572 l -2.81803,-2.81803 c -0.58785,-0.58786 -1.3602,-0.92444 -2.18853,-0.96497 -0.10772,-0.64228 0.25653,-1.28991 0.89109,-1.51456 l 9.52987,-3.37665 c 0.14591,-0.0518 0.29722,-0.0776 0.45083,-0.0776 z m 4.94475,0 c 0.15361,0 0.30492,0.026 0.45081,0.0776 l 9.52988,3.37665 c 0.34198,0.12126 0.61749,0.37031 0.77575,0.70187 0.15787,0.33157 0.1785,0.70215 0.0573,1.04413 l -1.33134,3.75662 c -0.193,0.54463 -0.7135,0.90994 -1.29517,0.90994 -0.15324,0 -0.30492,-0.0256 -0.45083,-0.0768 l -8.46538,-2.9997 c 0.044,-0.0765 0.087,-0.1538 0.12518,-0.23447 0.38368,-0.80479 0.43215,-1.70793 0.13571,-2.54436 l -0.96272,-2.71776 0.13645,-0.38373 c 0.19262,-0.54464 0.71351,-0.90994 1.29443,-0.90994 z m -15.98391,6.92444 c 0.36709,0 0.71056,0.141 0.96724,0.3973 l 2.81803,2.81879 c 0.53344,0.53304 0.53344,1.40103 0,1.93446 l -4.86257,4.86257 c -0.33465,-0.11265 -0.69203,-0.17641 -1.06373,-0.17641 h -3.98502 c -0.4794,0 -0.93497,0.10392 -1.3472,0.28723 l -0.64306,-0.64306 c -0.53267,-0.53344 -0.53267,-1.40067 0,-1.93373 l 7.1491,-7.14985 c 0.2563,-0.2563 0.60016,-0.3973 0.96724,-0.3973 z m 28.24134,0.0799 c 0.18836,0.0668 0.36149,0.17303 0.50585,0.31739 l 7.14835,7.14986 c 0.53344,0.53305 0.53344,1.40028 0,1.93372 l -2.81802,2.81802 c -0.25631,0.25668 -0.59941,0.39805 -0.96649,0.39805 -0.36746,0 -0.71094,-0.14137 -0.96724,-0.39805 l -7.14908,-7.14834 c -0.0827,-0.0827 -0.15133,-0.17303 -0.20807,-0.26914 0.12776,0.0151 0.25517,0.0244 0.38449,0.0248 1.41156,0 2.67582,-0.89129 3.14596,-2.21793 z m -14.72943,1.24995 c 0.008,0.003 0.0146,0.008 0.0227,0.0101 l 8.10503,2.87155 c 0.006,0.84338 0.3242,1.68495 0.96648,2.32725 l 4.67409,4.67409 c -0.40065,0.54965 -0.63853,1.22415 -0.63853,1.95482 v 9.31879 h -7.20713 c -1.83693,0 -3.33067,1.4945 -3.33067,3.33142 v 7.128 c -0.75847,0.50371 -1.48388,1.04293 -2.18175,1.60879 -0.70134,-0.56663 -1.43266,-1.10353 -2.19305,-1.60879 v -7.128 c 0,-1.83692 -1.4945,-3.33142 -3.33143,-3.33142 h -7.20715 v -9.31879 c 0,-0.7438 -0.24813,-1.42841 -0.66191,-1.98347 l 4.64545,-4.64544 c 0.62723,-0.62723 0.97326,-1.46426 0.97326,-2.35589 0,-0.0799 -0.006,-0.15872 -0.0127,-0.23824 l 7.35265,-2.60467 c 0.008,-0.003 0.0165,-0.008 0.0242,-0.0101 z m -19.63798,10.46997 h 3.98506 c 0.75422,0 1.36754,0.61333 1.36754,1.36754 v 9.31879 h -6.72014 v -9.31879 c 0,-0.75421 0.61334,-1.36754 1.36756,-1.36754 z m 34.83707,0.8436 1.04414,1.04413 c 0.62723,0.62723 1.46387,0.97326 2.35589,0.97326 0.89164,0 1.72791,-0.34603 2.35514,-0.97326 l 0.824,-0.82399 c 0.0232,0.098 0.0354,0.19921 0.0354,0.3038 v 9.31879 h -6.72087 v -9.31879 c 0,-0.18565 0.0387,-0.36222 0.10633,-0.52394 z m -14.79272,38.63364 c 0.54539,1.76243 0.83982,3.63352 0.83982,5.57272 -3.8e-4,1.94076 -0.29667,3.81367 -0.84285,5.57726 -0.54617,-1.76359 -0.84058,-3.63688 -0.84058,-5.57726 0,-1.93997 0.29782,-3.80991 0.84361,-5.57272 z"
         id="path2"
         inkscape:connector-curvature="0" /><path
         style="fill:#414042;fill-opacity:1;stroke:none;stroke-width:1px;stroke-linecap:butt;stroke-linejoin:miter;stroke-opacity:1"
         d="m 445.18883,-273.63442 v 8.83884 h -2.14407 v -8.88259 h 2.14407 z"
         id="path1183"
         inkscape:connector-curvature="0" /><path
         inkscape:connector-curvature="0"
         id="path1188"
         d="m 454.66394,-273.61895 v 8.83884 h -2.16595 v -8.88259 h 2.16595 z"
         style="fill:#414042;fill-opacity:1;stroke:none;stroke-width:1px;stroke-linecap:butt;stroke-linejoin:miter;stroke-opacity:1" /><path
         inkscape:connector-curvature="0"
         id="path1190"
         d="m 482.24993,-273.55785 v 8.83884 h -2.14407 v -8.88259 h 2.14407 z"
         style="fill:#414042;fill-opacity:1;stroke:none;stroke-width:1px;stroke-linecap:butt;stroke-linejoin:miter;stroke-opacity:1" /><path
         style="fill:#414042;fill-opacity:1;stroke:none;stroke-width:1px;stroke-linecap:butt;stroke-linejoin:miter;stroke-opacity:1"
         d="m 491.72504,-273.54238 v 8.83884 h -2.16595 v -8.88259 h 2.16595 z"
         id="path1192"
         inkscape:connector-curvature="0" /></g></g></svg>