<?xml version="1.0" encoding="UTF-8" standalone="no"?>
<!-- Generator: Adobe Illustrator 14.0.0, SVG Export Plug-In . SVG Version: 6.00 Build 43363)  -->

<svg
   xmlns:dc="http://purl.org/dc/elements/1.1/"
   xmlns:cc="http://creativecommons.org/ns#"
   xmlns:rdf="http://www.w3.org/1999/02/22-rdf-syntax-ns#"
   xmlns:svg="http://www.w3.org/2000/svg"
   xmlns="http://www.w3.org/2000/svg"
   xmlns:sodipodi="http://sodipodi.sourceforge.net/DTD/sodipodi-0.dtd"
   xmlns:inkscape="http://www.inkscape.org/namespaces/inkscape"
   version="1.1"
   id="Layer_1"
   inkscape:version="0.92.2 (5c3e80d, 2017-08-06)"
   sodipodi:docname="email.svg"
   x="0px"
   y="0px"
   width="100"
   height="100"
   viewBox="416.572 -360.945 100 100"
   enable-background="new 416.572 -360.945 595.275 841.89"
   xml:space="preserve"
   inkscape:export-filename="C:\Users\holly.jones\Downloads\volcano_pixelhint_12th_jan-20180116T210822Z-001\volcano_pixelhint_12th_jan\volcano_pixelhint\img\hedges_icon_100_white.png"
   inkscape:export-xdpi="149.93106"
   inkscape:export-ydpi="149.93106"><metadata
     id="metadata326"><rdf:RDF><cc:Work
         rdf:about=""><dc:format>image/svg+xml</dc:format><dc:type
           rdf:resource="http://purl.org/dc/dcmitype/StillImage" /><dc:title /></cc:Work></rdf:RDF></metadata><defs
     id="defs324" /><sodipodi:namedview
     id="namedview230"
     inkscape:pageshadow="2"
     inkscape:window-width="1920"
     inkscape:window-height="1001"
     inkscape:window-x="-9"
     inkscape:window-y="-9"
     inkscape:current-layer="Layer_1"
     inkscape:pageopacity="0"
     gridtolerance="10"
     inkscape:zoom="4.04"
     inkscape:cy="36.112184"
     guidetolerance="10"
     bordercolor="#666666"
     showgrid="false"
     borderopacity="1"
     objecttolerance="10"
     inkscape:cx="24.106041"
     pagecolor="#ffffff"
     inkscape:window-maximized="1"
     inkscape:snap-nodes="false" /><text
     xml:space="preserve"
     style="font-style:normal;font-weight:normal;font-size:40px;line-height:125%;font-family:Sans;letter-spacing:0px;word-spacing:0px;fill:#000000;fill-opacity:1;stroke:none;stroke-width:1px;stroke-linecap:butt;stroke-linejoin:miter;stroke-opacity:1"
     x="566.7934"
     y="-274.51813"
     id="text5063"><tspan
       sodipodi:role="line"
       id="tspan5061"
       x="566.7934"
       y="-239.1275" /></text>
<g
     id="g890"><path
       inkscape:connector-curvature="0"
       id="path1237"
       d="m 433.71032,-318.18618 -1.62626,-1.61347 0.1527,-0.23277 c 0.084,-0.12803 0.8158,-0.95557 1.62626,-1.83898 l 1.47357,-1.6062 0.0237,1.70013 c 0.013,0.93508 0.013,2.48867 0,3.45244 l -0.0237,1.75231 z"
       style="opacity:1;fill:#ffffff;fill-opacity:1;stroke:#ffffff;stroke-width:2;stroke-linecap:round;stroke-linejoin:round;stroke-miterlimit:8.36363602;stroke-dasharray:none;stroke-opacity:1" /><path
       inkscape:connector-curvature="0"
       id="path1239"
       d="m 497.77727,-319.81256 v -3.2697 l 1.09886,1.09261 c 1.46978,1.4614 2.11307,2.24455 1.99607,2.43003 -0.0486,0.0771 -0.76486,0.78736 -1.59166,1.57844 l -1.50327,1.43832 z"
       style="opacity:1;fill:#ffffff;fill-opacity:1;stroke:#ffffff;stroke-width:2;stroke-linecap:round;stroke-linejoin:round;stroke-miterlimit:8.36363602;stroke-dasharray:none;stroke-opacity:1" /><path
       style="fill:#ffffff;fill-opacity:1;stroke:#424143;stroke-width:2.58820009;stroke-linejoin:round;stroke-miterlimit:10"
       inkscape:connector-curvature="0"
       d="m 464.40196,-353.81098 c 1.68543,-1.85212 3.00091,-1.13995 4.03629,-0.16285 0.93662,0.88392 2.86815,3.06741 2.86815,3.06741 l 4.81262,5.14476 h -9.62282 -9.62605 l 4.81262,-5.14476 z"
       stroke-miterlimit="10"
       id="path1233" /><path
       style="fill:#ffffff;fill-opacity:1;stroke:#424143;stroke-width:2.58820009;stroke-linejoin:round;stroke-miterlimit:10"
       inkscape:connector-curvature="0"
       d="m 456.80863,-293.46738 -13.31425,13.18032 c 0,0 -10.50196,10.33165 -11.39163,11.27959 -0.88966,0.94793 -1.921,0.76158 -1.921,-0.77374 0,-1.87399 0,-23.68536 0,-23.68536 v -24.20063 c 0.0348,-1.6204 0.81924,-1.34898 1.49519,-0.67976 0.67596,0.66922 11.81825,11.70089 11.81825,11.70089 z"
       stroke-miterlimit="10"
       id="path1231" /><path
       style="fill:#ffffff;fill-opacity:1;stroke:#424143;stroke-width:2.58820009;stroke-linejoin:round;stroke-miterlimit:10"
       inkscape:connector-curvature="0"
       d="m 456.82886,-293.4455 c 0,0 6.27544,-6.28714 7.89368,-7.85731 1.61824,-1.57016 2.71919,-0.99249 3.7319,0.0154 1.01272,1.00788 7.35696,7.32014 7.35696,7.32014 l 8.96953,8.92839 c 0,0 16.3192,16.21937 16.65596,16.57424 0.33676,0.35487 1.0961,1.53614 -0.35457,1.53614 -1.45067,0 -34.50193,0 -34.50193,0 0,0 -32.6384,0 -34.44283,0 -0.38776,0 -1.14547,-0.80777 -0.35052,-1.60015 0.79495,-0.79237 16.59282,-16.51104 16.59282,-16.51104 z"
       stroke-miterlimit="10"
       id="path1229" /><path
       style="fill:#ffffff;fill-opacity:1;stroke:#424143;stroke-width:2.58820009;stroke-linejoin:round;stroke-miterlimit:10"
       inkscape:connector-curvature="0"
       d="m 476.31411,-293.30453 13.31425,13.18032 11.59887,11.48214 c 0,0 1.68381,0.6838 1.717,-0.80129 0.0364,-1.63741 0,-23.86036 0,-23.86036 0,0 -0.0453,-21.6558 0.0162,-23.6813 0.0615,-2.02549 -0.35296,-2.40467 -1.853,-0.85962 -1.1301,1.16426 -11.47906,11.36061 -11.47906,11.36061 z"
       stroke-miterlimit="10"
       id="path1227" /><path
       id="path3972_1_"
       inkscape:connector-curvature="0"
       d="m 487.81179,-280.73024 -11.80125,-11.81432 11.80125,-11.61987 11.79962,-11.62149 0.081,11.79244 c 0.0461,6.48645 0.0461,17.03119 0,23.43419 l -0.081,11.64175 z"
       style="fill:#b8e69a;stroke-width:1" /><path
       id="path3974_1_"
       inkscape:connector-curvature="0"
       d="m 447.85934,-283.9921 16.60901,-16.62528 16.56367,16.54264 c 9.10715,9.09772 16.56044,16.5791 16.56044,16.62528 0,0.0462 -14.92601,0.0826 -33.17269,0.0826 H 431.2479 Z"
       style="fill:#b8e69a;stroke-width:1" /><path
       id="path3976_1_"
       inkscape:connector-curvature="0"
       d="m 429.72076,-292.10946 v -23.42285 l 3.49714,3.41337 c 7.70748,7.52917 20.11992,19.90658 20.11992,20.067 0,0.0932 -5.31372,5.38782 -11.80772,11.76814 l -11.80934,11.59718 z"
       style="fill:#b8e69a;stroke-width:1" /><path
       id="path4797_1_"
       inkscape:connector-curvature="0"
       d="m 458.9142,-347.59919 c 0.73343,-0.81668 2.27719,-2.47435 3.42591,-3.68397 l 2.09181,-2.19969 1.15438,1.25256 c 0.63386,0.68867 2.17762,2.34634 3.42914,3.68317 l 2.2772,2.43141 h -6.8591 -6.85991 z"
       style="fill:#84b364;stroke-width:1" /><line
       id="line16_1_"
       x1="456.80859"
       y1="-293.30453"
       x2="430.18091"
       y2="-267.20233"
       style="fill:none;stroke-width:1" /><path
       id="polygon18_1_"
       stroke-miterlimit="10"
       d="m 456.80863,-293.46738 -13.31425,13.18032 c 0,0 -10.50196,10.33165 -11.39163,11.27959 -0.88966,0.94793 -1.921,0.76158 -1.921,-0.77374 0,-1.87399 0,-23.68536 0,-23.68536 v -24.20063 c 0.0348,-1.6204 0.81924,-1.34898 1.49519,-0.67976 0.67596,0.66922 11.81825,11.70089 11.81825,11.70089 z"
       inkscape:connector-curvature="0"
       style="fill:none;stroke:#424143;stroke-width:2.58820009;stroke-linejoin:round;stroke-miterlimit:10" /><path
       id="polygon20_1_"
       stroke-miterlimit="10"
       d="m 456.82886,-293.4455 c 0,0 6.27544,-6.28714 7.89368,-7.85731 1.61824,-1.57016 2.71919,-0.99249 3.7319,0.0154 1.01272,1.00788 7.35696,7.32014 7.35696,7.32014 l 8.96953,8.92839 c 0,0 16.3192,16.21937 16.65596,16.57424 0.33676,0.35487 1.0961,1.53614 -0.35457,1.53614 -1.45067,0 -34.50193,0 -34.50193,0 0,0 -32.6384,0 -34.44283,0 -0.38776,0 -1.14547,-0.80777 -0.35052,-1.60015 0.79495,-0.79237 16.59282,-16.51104 16.59282,-16.51104 z"
       inkscape:connector-curvature="0"
       style="fill:none;stroke:#424143;stroke-width:2.58820009;stroke-linejoin:round;stroke-miterlimit:10" /><path
       id="polygon22_1_"
       stroke-miterlimit="10"
       d="m 464.40196,-353.81098 c 1.68543,-1.85212 3.00091,-1.13995 4.03629,-0.16285 0.93662,0.88392 2.86815,3.06741 2.86815,3.06741 l 4.81262,5.14476 h -9.62282 -9.62605 l 4.81262,-5.14476 z"
       inkscape:connector-curvature="0"
       style="fill:none;stroke:#424143;stroke-width:2.58820009;stroke-linejoin:round;stroke-miterlimit:10" /><line
       id="line24_1_"
       stroke-miterlimit="10"
       x1="496.45267"
       y1="-326.31689"
       x2="501.12927"
       y2="-321.66391"
       style="fill:none;stroke:#424143;stroke-width:2.58820009;stroke-linejoin:round;stroke-miterlimit:10" /><line
       id="line26_1_"
       stroke-miterlimit="10"
       x1="436.69196"
       y1="-326.88483"
       x2="431.31348"
       y2="-321.05466"
       style="fill:none;stroke:#424143;stroke-width:2.58820009;stroke-linejoin:round;stroke-miterlimit:10" /><path
       id="polygon28_1_"
       stroke-miterlimit="10"
       d="m 476.31411,-293.30453 13.31425,13.18032 11.59887,11.48214 c 0,0 1.68381,0.6838 1.717,-0.80129 0.0364,-1.63741 0,-23.86036 0,-23.86036 0,0 -0.0453,-21.6558 0.0162,-23.6813 0.0615,-2.02549 -0.35296,-2.40467 -1.853,-0.85962 -1.1301,1.16426 -11.47906,11.36061 -11.47906,11.36061 z"
       inkscape:connector-curvature="0"
       style="fill:none;stroke:#424143;stroke-width:2.58820009;stroke-linejoin:round;stroke-miterlimit:10" /><path
       id="polygon30_1_"
       stroke-miterlimit="10"
       d="m 496.45265,-342.6829 c 0,1.99147 0,29.44505 0,29.44505 l -20.13854,19.93413 c 0,0 -7.14809,-7.28692 -8.1179,-8.21298 -0.96981,-0.92606 -2.2521,-1.01599 -3.15067,-0.14341 -0.89858,0.87259 -8.41582,8.17734 -8.41582,8.17734 l -19.93777,-19.89605 c 0,0 0,-26.88969 0,-29.77643 0,-1.67144 1.0629,-2.60641 2.93452,-2.60641 1.57858,0 40.90284,0 53.19223,0 2.28366,0 3.63395,1.08729 3.63395,3.07876 z"
       inkscape:connector-curvature="0"
       style="fill:#ffffff;fill-opacity:1;stroke:#424143;stroke-width:2.58820009;stroke-linejoin:round;stroke-miterlimit:10" /><g
       id="text45"
       style="font-size:39.46940994px;font-family:CenturyGothic;fill:#424143;stroke-width:1"
       transform="scale(0.99958367,1.0004165)"
       aria-label="@"><path
         id="path862"
         style="font-size:39.46940994px;font-family:CenturyGothic;fill:#424143;stroke-width:1"
         d="m 477.31031,-314.90349 h 2.04285 q -2.58247,3.21845 -4.7795,4.50968 -3.12209,1.81159 -7.11143,1.81159 -4.22061,0 -7.78596,-1.98503 -3.56535,-2.00431 -5.56966,-5.45403 -1.98503,-3.44972 -1.98503,-7.53542 0,-4.14352 2.00431,-7.70887 2.02357,-3.56535 5.49257,-5.53111 3.46899,-1.98504 7.59323,-1.98504 5.8202,0 9.82881,3.73881 4.00861,3.71953 4.00861,8.67247 0,3.6039 -1.67668,6.22492 -1.6574,2.60174 -4.50969,4.04715 -2.17775,1.11779 -3.71953,1.11779 -1.11778,0 -1.77303,-0.59744 -0.50108,-0.44326 -0.52035,-1.54177 -0.65526,0.8287 -1.81159,1.38759 -1.13706,0.5589 -2.37048,0.5589 -2.77519,0 -4.58677,-1.90795 -1.81159,-1.92722 -1.81159,-5.08785 0,-3.41118 2.19703,-6.22491 2.19703,-2.81374 6.05146,-2.81374 1.69595,0 2.83301,0.63598 1.15633,0.63598 2.17776,2.2163 l 0.50107,-2.65956 h 2.0814 l -2.23557,12.604 q -0.0964,0.61671 -0.0964,0.79016 0,0.44326 0.26981,0.6938 0.26981,0.25054 0.6938,0.25054 1.13705,0 2.94864,-1.31051 1.83085,-1.32978 2.83301,-3.3919 1.02142,-2.0814 1.02142,-4.60605 0,-4.89513 -3.79662,-8.11359 -3.54608,-2.98718 -8.63393,-2.98718 -3.77735,0 -6.86089,1.73449 -3.06428,1.71522 -4.85659,4.85659 -1.77304,3.12209 -1.77304,6.76453 0,3.68099 1.79231,6.80308 1.79231,3.10282 4.95295,4.87586 3.17991,1.77304 6.9958,1.77304 2.79446,0 5.06858,-1.00216 2.27412,-1.00215 4.87586,-3.62316 z m -11.67894,-2.44757 q 1.27197,0 2.38975,-0.79016 1.11779,-0.80943 1.77304,-2.40902 0.84798,-2.10067 0.84798,-4.22061 0,-1.94649 -1.09852,-3.16063 -1.07924,-1.21415 -2.81373,-1.21415 -2.31266,0 -4.00861,1.90795 -1.67668,1.88867 -1.67668,4.72168 0,2.37048 1.27196,3.77734 1.29124,1.3876 3.31481,1.3876 z" /></g><path
       stroke-miterlimit="10"
       d="m 430.18094,-269.71397 c 0.0316,0.91553 -0.20157,2.78547 2.68196,2.78547"
       id="path47"
       inkscape:connector-curvature="0"
       style="fill:none;stroke:#424143;stroke-width:2.58820009;stroke-linejoin:round;stroke-miterlimit:10" /><path
       stroke-miterlimit="10"
       d="m 502.96042,-269.58596 c -0.0316,0.8734 0.20157,2.65746 -2.68196,2.65746"
       id="path49"
       inkscape:connector-curvature="0"
       style="fill:none;stroke:#424143;stroke-width:2.52800012;stroke-linejoin:round;stroke-miterlimit:10" /><path
       stroke-miterlimit="10"
       d="m 433.69914,-323.63999 c -2.142,2.05628 -3.56191,3.4077 -3.5182,6.8162"
       id="path51"
       inkscape:connector-curvature="0"
       style="fill:none;stroke:#424143;stroke-width:2.58820009;stroke-linejoin:round;stroke-miterlimit:10" /><path
       stroke-miterlimit="10"
       d="m 500.3918,-322.39795 c 2.142,2.05628 2.57266,3.26996 2.56943,5.41212"
       id="path53"
       inkscape:connector-curvature="0"
       style="fill:none;stroke:#424143;stroke-width:2.58820009;stroke-linejoin:round;stroke-miterlimit:10" /><path
       inkscape:connector-curvature="0"
       id="path1235"
       d="m 497.77727,-319.81201 v -3.35776 l 1.10027,1.0926 c 1.08917,1.08158 2.16962,2.32602 2.11977,2.44151 -0.0142,0.0329 -0.74451,0.76216 -1.62293,1.6206 l -1.59711,1.5608 z"
       style="opacity:1;fill:#ffffff;fill-opacity:1;stroke:none;stroke-width:2;stroke-linecap:round;stroke-linejoin:round;stroke-miterlimit:8.36363602;stroke-dasharray:none;stroke-opacity:1" /></g></svg>