<?xml version="1.0" encoding="UTF-8" standalone="no"?>
<!-- Generator: Adobe Illustrator 14.0.0, SVG Export Plug-In . SVG Version: 6.00 Build 43363)  -->

<svg
   xmlns:dc="http://purl.org/dc/elements/1.1/"
   xmlns:cc="http://creativecommons.org/ns#"
   xmlns:rdf="http://www.w3.org/1999/02/22-rdf-syntax-ns#"
   xmlns:svg="http://www.w3.org/2000/svg"
   xmlns="http://www.w3.org/2000/svg"
   xmlns:sodipodi="http://sodipodi.sourceforge.net/DTD/sodipodi-0.dtd"
   xmlns:inkscape="http://www.inkscape.org/namespaces/inkscape"
   version="1.1"
   id="Layer_1"
   inkscape:version="0.92.2 (5c3e80d, 2017-08-06)"
   sodipodi:docname="flytipping.svg"
   x="0px"
   y="0px"
   width="100"
   height="100"
   viewBox="416.572 -360.945 100 100"
   enable-background="new 416.572 -360.945 595.275 841.89"
   xml:space="preserve"
   inkscape:export-filename="C:\Users\holly.jones\Downloads\volcano_pixelhint_12th_jan-20180116T210822Z-001\volcano_pixelhint_12th_jan\volcano_pixelhint\img\hedges_icon_100_white.png"
   inkscape:export-xdpi="149.93106"
   inkscape:export-ydpi="149.93106"><metadata
     id="metadata326"><rdf:RDF><cc:Work
         rdf:about=""><dc:format>image/svg+xml</dc:format><dc:type
           rdf:resource="http://purl.org/dc/dcmitype/StillImage" /><dc:title /></cc:Work></rdf:RDF></metadata><defs
     id="defs324" /><sodipodi:namedview
     id="namedview230"
     inkscape:pageshadow="2"
     inkscape:window-width="1680"
     inkscape:window-height="987"
     inkscape:window-x="1912"
     inkscape:window-y="23"
     inkscape:current-layer="Layer_1"
     inkscape:pageopacity="0"
     gridtolerance="10"
     inkscape:zoom="2.02"
     inkscape:cy="6.0940759"
     guidetolerance="10"
     bordercolor="#666666"
     showgrid="false"
     borderopacity="1"
     objecttolerance="10"
     inkscape:cx="105.7635"
     pagecolor="#ffffff"
     inkscape:window-maximized="1"
     inkscape:snap-nodes="false" /><g
     id="g1292"><path
       id="path1267"
       stroke-miterlimit="10"
       d="m 485.91156,-276.24742 c -5.8226,0 -11.64359,3.14872 -16.04596,-1.26012 6.60636,-5.04292 9.91114,-14.80811 9.91114,-26.19175 0,-11.38525 -2.28245,-19.41415 -9.12498,-26.2671 4.56329,-4.56677 10.06806,-0.9459 15.2614,-0.9459 5.18853,0 10.6957,-3.62167 15.25979,0.9459 -6.84333,6.85295 -9.12417,14.88105 -9.12417,26.2671 0,11.38364 3.30318,21.14883 9.91114,26.19175 -4.40718,4.40884 -10.22897,1.26012 -16.04836,1.26012 z"
       inkscape:connector-curvature="0"
       style="fill:#ffffff;stroke:#424143;stroke-width:2.58820009;stroke-linecap:round;stroke-linejoin:round;stroke-miterlimit:10;fill-opacity:1" /><path
       id="path1265"
       stroke-miterlimit="10"
       d="m 459.26276,-289.07155 c 0,7.88623 -5.82019,22.08511 -12.99576,22.08511 -7.17878,0 -12.99416,-14.19888 -12.99416,-22.08511 z"
       inkscape:connector-curvature="0"
       style="fill:#ffffff;stroke:#424143;stroke-width:2.58820009;stroke-linecap:round;stroke-linejoin:round;stroke-miterlimit:10;fill-opacity:1" /><path
       id="path1263"
       stroke-miterlimit="10"
       d="m 457.68242,-354.90202 c 0,0 -4.68578,11.43093 -11.41542,11.43093 -6.73045,0 -11.41543,-11.43254 -11.41543,-11.43254 l 11.41543,2.72146 z"
       inkscape:connector-curvature="0"
       style="fill:#ffffff;fill-opacity:1;stroke:#424143;stroke-width:2.58820009;stroke-linecap:round;stroke-linejoin:round;stroke-miterlimit:10" /><path
       style="fill:#b8e69a;stroke-width:1"
       d="m 472.48719,-278.81918 c 4.68337,-6.10745 6.9522,-14.88106 6.60315,-25.54004 -0.24658,-7.55596 -1.23369,-12.20288 -3.6074,-16.98528 -0.65807,-1.32746 -1.69242,-3.0894 -2.29685,-3.91265 -0.60203,-0.82325 -0.95909,-1.4982 -0.79097,-1.4982 0.16812,0 1.93739,0.63888 3.93323,1.41964 6.42783,2.51946 9.22585,2.51144 15.84021,-0.0473 1.99984,-0.77355 3.68506,-1.35712 3.7443,-1.2978 0.0592,0.0593 -0.38027,0.79198 -0.9767,1.62806 -2.47298,3.45814 -4.34313,8.4249 -5.13971,13.63696 -2.02946,13.28746 0.57722,26.44827 6.58795,33.26354 l 1.33056,1.50782 -1.51789,-0.20841 c -0.83501,-0.11463 -2.90049,-0.84089 -4.59051,-1.61605 -6.59595,-3.02206 -7.85606,-3.12467 -12.51141,-1.01644 -3.90041,1.76755 -6.53671,2.7383 -7.43496,2.7383 -0.72772,0 -0.6941,-0.089 0.8278,-2.07136 z"
       inkscape:connector-curvature="0"
       id="path3980_1_" /><path
       style="fill:#b8e69a;stroke-width:1"
       d="m 442.51199,-267.20868 c -4.18541,-1.94952 -8.52294,-10.09546 -9.69258,-18.20693 l -0.16572,-1.15111 h 11.81971 11.82132 l -0.19294,1.6457 c -0.5548,4.72788 -3.59779,11.95518 -6.30614,14.97725 -2.73717,3.05172 -4.88032,3.85734 -7.28365,2.73509 z m -0.61324,-9.55999 c 2.65471,-0.73747 3.13906,-4.21485 0.84141,-6.02889 -0.71492,-0.56353 -3.11905,-0.46974 -3.886,0.1507 -1.97663,1.60482 -1.64759,4.77999 0.59643,5.75876 1.19766,0.51864 1.04155,0.51062 2.44816,0.11943 z"
       inkscape:connector-curvature="0"
       id="path3982_1_" /><path
       style="fill:#b8e69a;stroke-width:1"
       d="m 442.20617,-343.7751 c -1.5267,-0.66694 -3.72989,-2.86495 -5.35666,-5.34833 -0.81739,-1.24811 -1.43063,-2.32627 -1.36338,-2.392 0.0664,-0.0689 2.11833,0.35832 4.55608,0.9475 l 4.436,1.07095 4.36634,-1.05492 c 2.40093,-0.58116 4.48804,-1.05491 4.63855,-1.05491 0.51717,0 -2.02306,3.77156 -3.70988,5.50624 -0.92707,0.95312 -2.18957,1.96795 -2.80442,2.25573 -1.34176,0.62445 -3.41686,0.65571 -4.76263,0.0697 z"
       inkscape:connector-curvature="0"
       id="path3984_1_" /><path
       style="fill:#84b364;stroke-width:1"
       d="m 481.28152,-326.02188 c -0.6893,-0.15792 -2.62589,-0.83608 -4.3015,-1.51103 -1.67721,-0.67336 -3.44568,-1.32747 -3.92923,-1.45572 -0.48675,-0.12666 -0.91586,-0.26133 -0.95108,-0.2958 -0.0352,-0.0361 0.35225,-0.15471 0.86462,-0.26453 1.31214,-0.27736 3.09743,-0.12345 6.35498,0.55231 2.38892,0.49299 3.03418,0.56994 4.82587,0.56994 1.7957,0 2.43055,-0.0753 4.82508,-0.57315 3.17589,-0.66213 5.40309,-0.83447 6.58795,-0.50581 l 0.76615,0.21323 -0.91826,0.25972 c -0.50677,0.14268 -2.31127,0.81283 -4.01169,1.48618 -1.70123,0.67656 -3.70027,1.36353 -4.44321,1.52626 -1.72524,0.38317 -3.97086,0.38157 -5.66968,-0.002 z"
       inkscape:connector-curvature="0"
       id="path4803_1_" /><path
       style="fill:#84b364;stroke-width:1"
       d="m 474.7232,-275.09651 c 0.50516,-0.17876 1.9534,-0.80802 3.21751,-1.398 6.2445,-2.91545 6.21248,-2.91545 12.41054,-0.006 1.26251,0.59319 2.71236,1.22245 3.21752,1.39961 l 0.91826,0.31904 -1.30253,-0.089 c -0.71732,-0.0489 -2.40574,-0.27094 -3.75311,-0.49299 -3.48411,-0.57475 -7.10191,-0.57315 -10.57001,0.003 -1.34978,0.22365 -3.03899,0.4481 -3.75391,0.4994 l -1.30173,0.0922 z"
       inkscape:connector-curvature="0"
       id="path4805_1_" /><path
       style="fill:none;stroke:#424143;stroke-width:2.58820009;stroke-linecap:round;stroke-linejoin:round;stroke-miterlimit:10"
       inkscape:connector-curvature="0"
       d="m 459.26276,-289.07155 c 0,7.88623 -5.82019,22.08511 -12.99576,22.08511 -7.17878,0 -12.99416,-14.19888 -12.99416,-22.08511 z"
       stroke-miterlimit="10"
       id="path128_1_" /><line
       style="fill:none;stroke:#424143;stroke-width:2.58820009;stroke-linecap:round;stroke-linejoin:round;stroke-miterlimit:10"
       y2="-343.47269"
       x2="446.267"
       y1="-289.07153"
       x1="446.267"
       stroke-miterlimit="10"
       id="line130_1_" /><path
       style="fill:none;stroke:#424143;stroke-width:2.58820009;stroke-linecap:round;stroke-linejoin:round;stroke-miterlimit:10"
       inkscape:connector-curvature="0"
       d="m 457.68242,-354.90202 c 0,0 -4.68578,11.43093 -11.41542,11.43093 -6.73045,0 -11.41543,-11.43254 -11.41543,-11.43254 l 11.41543,2.72146 z"
       stroke-miterlimit="10"
       id="path132_1_" /><path
       style="fill:none;stroke:#424143;stroke-width:2.58820009;stroke-linecap:round;stroke-linejoin:round;stroke-miterlimit:10"
       inkscape:connector-curvature="0"
       d="m 461.34586,-302.81752 c 0,0 -4.59531,2.95152 -15.07966,2.95152 -10.48276,0 -15.08207,-2.95152 -15.08207,-2.95152"
       stroke-miterlimit="10"
       id="path134_1_" /><path
       style="fill:none;stroke:#424143;stroke-width:2.58820009;stroke-linecap:round;stroke-linejoin:round;stroke-miterlimit:10"
       inkscape:connector-curvature="0"
       d="m 459.39886,-311.32499 c 0,0 -4.7138,2.95312 -13.13186,2.95312 -8.41967,0 -13.13026,-2.95312 -13.13026,-2.95312"
       stroke-miterlimit="10"
       id="path136_1_" /><path
       style="fill:none;stroke:#424143;stroke-width:2.58820009;stroke-linecap:round;stroke-linejoin:round;stroke-miterlimit:10"
       inkscape:connector-curvature="0"
       d="m 457.44785,-319.83166 c 0,0 -1.99744,2.95473 -11.18165,2.95473 -9.18422,0 -11.18166,-2.95473 -11.18166,-2.95473"
       stroke-miterlimit="10"
       id="path138_1_" /><path
       style="fill:none;stroke:#424143;stroke-width:2.58820009;stroke-linecap:round;stroke-linejoin:round;stroke-miterlimit:10"
       inkscape:connector-curvature="0"
       d="m 455.49845,-328.33592 c 0,0 -2.03747,2.95152 -9.23225,2.95152 -7.19559,0 -9.23386,-2.95152 -9.23386,-2.95152"
       stroke-miterlimit="10"
       id="path140_1_" /><path
       style="fill:none;stroke:#424143;stroke-width:2.58820009;stroke-linecap:round;stroke-linejoin:round;stroke-miterlimit:10"
       inkscape:connector-curvature="0"
       d="m 455.49845,-336.84179 c 0,0 -2.18878,2.95313 -9.23225,2.95313 -7.04508,0 -9.23386,-2.95313 -9.23386,-2.95313"
       stroke-miterlimit="10"
       id="path142_1_" /><ellipse
       ry="2.2212565"
       rx="2.2183981"
       style="fill:#ffffff;stroke:#424143;stroke-width:2.58820009;stroke-linecap:round;stroke-linejoin:round;stroke-miterlimit:10;fill-opacity:1"
       cy="-281.39856"
       cx="442.62677"
       stroke-miterlimit="10"
       id="circle144_1_" /><path
       style="fill:none;stroke:#424143;stroke-width:2.58820009;stroke-linecap:round;stroke-linejoin:round;stroke-miterlimit:10"
       inkscape:connector-curvature="0"
       d="m 485.91156,-276.24742 c -5.8226,0 -11.64359,3.14872 -16.04596,-1.26012 6.60636,-5.04292 9.91114,-14.80811 9.91114,-26.19175 0,-11.38525 -2.28245,-19.41415 -9.12498,-26.2671 4.56329,-4.56677 10.06806,-0.9459 15.2614,-0.9459 5.18853,0 10.6957,-3.62167 15.25979,0.9459 -6.84333,6.85295 -9.12417,14.88105 -9.12417,26.2671 0,11.38364 3.30318,21.14883 9.91114,26.19175 -4.40718,4.40884 -10.22897,1.26012 -16.04836,1.26012 z"
       stroke-miterlimit="10"
       id="path146_1_" /><path
       style="fill:none;stroke:#424143;stroke-width:2.58820009;stroke-linecap:round;stroke-linejoin:round;stroke-miterlimit:10"
       inkscape:connector-curvature="0"
       d="m 470.65096,-329.96399 c 5.821,0 9.28349,3.9391 15.25979,3.9391 5.97791,0 9.44121,-3.9391 15.2614,-3.9391"
       stroke-miterlimit="10"
       id="path148_1_" /><path
       style="fill:none;stroke:#424143;stroke-width:2.58820009;stroke-linecap:round;stroke-linejoin:round;stroke-miterlimit:10"
       inkscape:connector-curvature="0"
       d="m 469.864,-277.50754 c 5.82019,2.36073 11.48587,-3.78279 16.04756,-3.78279 4.56008,0 10.22416,6.14352 16.04676,3.78279"
       stroke-miterlimit="10"
       id="path150_1_" /><path
       style="fill:none;stroke:#424143;stroke-width:2.58820009;stroke-linecap:round;stroke-linejoin:round;stroke-miterlimit:10"
       inkscape:connector-curvature="0"
       d="m 485.91156,-330.90828 c 0,-6.30145 1.57233,-14.33356 6.92098,-18.27427"
       stroke-miterlimit="10"
       id="path152_1_" /></g><text
     xml:space="preserve"
     style="font-style:normal;font-weight:normal;font-size:40px;line-height:125%;font-family:Sans;letter-spacing:0px;word-spacing:0px;fill:#000000;fill-opacity:1;stroke:none;stroke-width:1px;stroke-linecap:butt;stroke-linejoin:miter;stroke-opacity:1"
     x="566.7934"
     y="-274.51813"
     id="text5063"><tspan
       sodipodi:role="line"
       id="tspan5061"
       x="566.7934"
       y="-239.1275" /></text>
</svg>