<?xml version="1.0" encoding="UTF-8" standalone="no"?>
<!-- Generator: Adobe Illustrator 14.0.0, SVG Export Plug-In . SVG Version: 6.00 Build 43363)  -->

<svg
   xmlns:dc="http://purl.org/dc/elements/1.1/"
   xmlns:cc="http://creativecommons.org/ns#"
   xmlns:rdf="http://www.w3.org/1999/02/22-rdf-syntax-ns#"
   xmlns:svg="http://www.w3.org/2000/svg"
   xmlns="http://www.w3.org/2000/svg"
   xmlns:sodipodi="http://sodipodi.sourceforge.net/DTD/sodipodi-0.dtd"
   xmlns:inkscape="http://www.inkscape.org/namespaces/inkscape"
   version="1.1"
   id="Layer_1"
   inkscape:version="0.92.2 (5c3e80d, 2017-08-06)"
   sodipodi:docname="gmp.svg"
   x="0px"
   y="0px"
   width="100"
   height="100"
   viewBox="416.572 -360.945 100 100"
   enable-background="new 416.572 -360.945 595.275 841.89"
   xml:space="preserve"
   inkscape:export-filename="C:\Users\holly.jones\Downloads\volcano_pixelhint_12th_jan-20180116T210822Z-001\volcano_pixelhint_12th_jan\volcano_pixelhint\img\hedges_icon_100_white.png"
   inkscape:export-xdpi="149.93106"
   inkscape:export-ydpi="149.93106"><metadata
     id="metadata326"><rdf:RDF><cc:Work
         rdf:about=""><dc:format>image/svg+xml</dc:format><dc:type
           rdf:resource="http://purl.org/dc/dcmitype/StillImage" /><dc:title /></cc:Work></rdf:RDF></metadata><defs
     id="defs324" /><sodipodi:namedview
     id="namedview230"
     inkscape:pageshadow="2"
     inkscape:window-width="1920"
     inkscape:window-height="1001"
     inkscape:window-x="-9"
     inkscape:window-y="-9"
     inkscape:current-layer="Layer_1"
     inkscape:pageopacity="0"
     gridtolerance="10"
     inkscape:zoom="5.7134228"
     inkscape:cy="38.055771"
     guidetolerance="10"
     bordercolor="#666666"
     showgrid="false"
     borderopacity="1"
     objecttolerance="10"
     inkscape:cx="38.008133"
     pagecolor="#ffffff"
     inkscape:window-maximized="1"
     inkscape:snap-nodes="false" /><text
     xml:space="preserve"
     style="font-style:normal;font-weight:normal;font-size:40px;line-height:125%;font-family:Sans;letter-spacing:0px;word-spacing:0px;fill:#000000;fill-opacity:1;stroke:none;stroke-width:1px;stroke-linecap:butt;stroke-linejoin:miter;stroke-opacity:1"
     x="566.7934"
     y="-274.51813"
     id="text5063"><tspan
       sodipodi:role="line"
       id="tspan5061"
       x="566.7934"
       y="-239.1275" /></text>
<g
     id="g1238"><path
       style="fill:#ffffff;stroke:#424143;stroke-width:2.50000024;stroke-linecap:butt;stroke-linejoin:miter;stroke-miterlimit:4;stroke-dasharray:none;stroke-opacity:1;fill-opacity:1"
       d="m 459.01334,-352.25635 c -31.85705,11.71393 -23.44502,33.87603 -27.84766,52.71325 -4.74802,0.22984 -12.29882,3.315 -6.32957,11.678 13.28715,17.346 25.53848,20.71052 39.74755,23.50143 1.20661,0.16849 2.92638,0.20759 4.34209,-0.072 14.05403,-2.77769 26.20903,-6.2323 39.38214,-23.42943 5.96926,-8.363 -1.58154,-11.44816 -6.32956,-11.678 -4.40265,-18.83722 4.00939,-40.99932 -27.84767,-52.71325 -0.99662,-2.81758 -2.09548,-5.56333 -7.55866,-5.40056 -5.46317,-0.16277 -6.56203,2.58298 -7.55866,5.40056 z"
       id="path1228"
       inkscape:connector-curvature="0"
       sodipodi:nodetypes="cccccccccc" /><path
       sodipodi:nodetypes="scccsccssccscccccccscsccscscssccccscscccssccccsscscccccccsscccccccscccssccccccscccccccscc"
       inkscape:connector-curvature="0"
       id="path1166"
       d="m 463.1408,-264.16044 c -1.02529,-0.11368 -5.00676,-0.95742 -7.79537,-1.65196 -12.29936,-3.06334 -20.36384,-8.46245 -28.74319,-18.237 -2.29006,-2.67136 -3.16118,-3.93366 -3.85293,-5.33866 -0.52053,-1.05725 -0.96983,-1.34459 -0.96983,-2.44875 0,-1.08317 0.0767,-1.41468 0.45855,-1.98275 0.96807,-1.44005 3.51213,-2.63256 6.02149,-2.82253 0.73935,-0.056 1.99148,-0.13558 2.03462,-0.31064 0.21557,-0.87473 0.94686,-6.3083 1.38316,-12.20859 0.84652,-11.44794 1.24688,-14.54925 2.3917,-18.52665 1.44945,-5.0358 3.55803,-8.67527 7.1051,-12.26357 3.56307,-3.60451 7.28151,-7.73888 13.4976,-9.76597 l 2.58198,-0.842 1.08641,-0.69727 c 0.65936,-1.67313 1.27334,-2.43995 2.43636,-3.04288 0.67177,-0.34826 1.17312,-0.43059 3.02401,-0.49662 3.90255,-0.13921 5.29159,0.62538 6.42467,3.53641 l 0.56976,1.4638 1.99656,0.79098 c 11.88693,4.70929 18.55667,11.12853 21.51935,20.71114 1.14966,3.71851 1.67115,7.13458 2.20673,14.45541 0.49144,6.71761 0.6926,8.92907 1.03443,11.37207 0.27058,1.93379 0.9548,5.42844 1.09068,5.57069 0.0358,0.0374 0.73399,0.13551 1.55161,0.21794 2.67115,0.26928 4.91741,1.26727 5.97591,2.65504 0.71836,0.94182 0.83359,2.66905 0.27264,4.08683 -0.88569,2.23858 -3.49463,5.53717 -7.80438,9.86742 -5.33547,5.36084 -9.87457,8.55186 -15.74745,11.07057 -6.04246,2.59142 -16.62659,5.18387 -19.75017,4.83754 z m 8.71247,-21.52696 c 8.75663,-0.39895 16.39082,-1.44496 23.34413,-3.19853 2.08601,-0.52608 2.53975,-0.81109 3.02015,-1.8971 0.33748,-0.76294 0.36426,-1.08069 0.26169,-3.1046 -0.12666,-2.49897 -0.3545,-3.17777 -1.21623,-3.62338 -0.76368,-0.39491 -1.34386,-0.35392 -4.95835,0.35037 -8.86403,1.72717 -15.95625,2.3224 -27.6965,2.32449 -12.27828,0.002 -19.28649,-0.6223 -29.39853,-2.61966 -3.34078,-0.65988 -3.66399,-2.03461 -4.41108,-0.98721 -0.33524,-0.0985 -0.77192,2.28021 -0.82652,4.30244 -0.0747,2.76524 0.0187,3.32211 0.67493,4.02457 0.59969,0.64198 1.39136,0.89951 5.43932,1.76942 10.9736,2.35823 22.90392,3.24522 35.76699,2.65919 z m -6.44277,-12.81005 c 0.16991,-0.18775 0.83808,-1.8179 1.48481,-3.62256 1.29516,-3.61402 1.62001,-4.0889 3.07072,-4.48893 1.26374,-0.34847 2.65013,-0.006 5.53666,1.36931 1.4019,0.66775 2.79856,1.21409 3.10371,1.21409 0.72239,0 1.22566,-0.47073 1.22566,-1.14641 0,-0.29909 -0.37017,-2.11928 -1.23483,-3.92516 -0.85749,-1.79088 -1.88332,-3.29093 -1.88332,-3.49195 0,-0.55663 1.06789,-2.57283 1.57326,-2.97036 0.24612,-0.1936 1.25501,-1.64411 2.95532,-2.31187 1.70031,-0.66777 2.99961,-1.42827 3.16475,-1.61074 0.38328,-0.42353 1.19657,-0.46921 0.81561,-0.88983 -0.16222,-0.17925 -1.70342,-0.88733 -3.42489,-1.57351 -2.13728,-0.85193 -3.30329,-1.42091 -3.6765,-1.79403 -0.58897,-0.58882 -1.40315,-2.17177 -1.40606,-2.73371 -9.2e-4,-0.18997 0.69979,-1.81861 1.55728,-3.6192 0.85749,-1.80059 1.55908,-3.51013 1.55908,-3.79898 0,-0.53494 -0.36492,-0.97768 -0.98955,-1.20059 -0.23446,-0.0837 -1.33486,0.3348 -3.38146,1.28594 -2.86736,1.33259 -3.10501,1.41029 -4.32965,1.4157 -1.42231,0.006 -2.20568,-0.29067 -2.817,-1.06785 -0.19877,-0.2527 -0.75442,-1.59561 -1.23478,-2.98425 -1.06032,-3.06518 -1.49844,-4.11815 -1.79077,-4.30393 -0.28486,-0.18103 -1.25727,-0.18276 -1.54038,-0.003 -0.27459,0.1746 -0.69815,1.18077 -1.70959,4.06115 -0.50954,1.45107 -0.99829,2.50471 -1.34508,2.89967 -0.79645,0.90712 -1.86149,1.39931 -3.05562,1.41213 -0.89397,0.01 -1.34346,-0.15094 -3.9483,-1.41007 -1.6167,-0.7815 -3.12304,-1.4209 -3.34741,-1.4209 -0.57207,0 -1.14163,0.63393 -1.14163,1.27065 0,0.29533 0.57716,1.76041 1.28257,3.25572 1.53275,3.24906 1.61956,3.91719 0.73819,5.68097 -0.30092,0.6022 -0.74483,1.28063 -0.98647,1.50764 -0.24163,0.227 -1.74623,0.90606 -3.34355,1.50901 -1.59733,0.60296 -3.05182,1.22985 -3.23221,1.39311 -0.42524,0.38484 -0.42475,1.37948 9.2e-4,1.76466 0.18087,0.16369 1.64076,0.87743 3.2442,1.58609 1.60344,0.70866 3.13424,1.49819 3.40178,1.75451 0.744,0.7128 1.34348,2.07294 1.42889,3.24196 0.072,0.98544 10e-4,1.20445 -1.22895,3.80792 -1.3316,2.81794 -1.52734,3.61076 -1.01737,4.12074 0.64059,0.64059 1.05243,0.54571 4.25428,-0.98013 3.4794,-1.6581 3.96252,-1.75071 5.45418,-1.04553 1.49265,0.70565 1.85078,1.23862 3.04161,4.52646 0.59353,1.63869 1.21713,3.13192 1.3858,3.3183 0.40039,0.44243 1.38442,0.44105 1.78583,-0.002 z"
       style="opacity:1;fill:#f3ba93;fill-opacity:1;stroke:none;stroke-width:2.5;stroke-linecap:round;stroke-linejoin:round;stroke-miterlimit:4;stroke-dasharray:none;stroke-opacity:1" /><path
       inkscape:connector-curvature="0"
       id="path1187"
       d="m 430.38585,-298.46595 -0.4127,1.60493 0.73369,0.0803 0.35537,-1.70811 z"
       style="fill:#fcfcfc;fill-opacity:1;stroke:none;stroke-width:1px;stroke-linecap:butt;stroke-linejoin:miter;stroke-opacity:1" /><path
       inkscape:connector-curvature="0"
       id="path1169"
       d="m 462.78974,-313.18843 c -1.72337,-0.52612 -3.41734,-2.11791 -3.97117,-3.73162 -1.01731,-2.96419 0.32562,-6.09632 3.21252,-7.49261 1.28911,-0.6235 3.43148,-0.60065 4.8224,0.0514 1.22618,0.57486 2.35322,1.67646 2.93793,2.8716 0.62227,1.27195 0.68053,3.26619 0.13764,4.71203 -0.54051,1.43951 -1.941,2.83998 -3.3775,3.37744 -1.04772,0.39201 -2.84072,0.49291 -3.76182,0.21171 z"
       style="opacity:1;fill:#f3ba93;fill-opacity:1;stroke:none;stroke-width:2.5;stroke-linecap:round;stroke-linejoin:round;stroke-miterlimit:4;stroke-dasharray:none;stroke-opacity:1" /><path
       sodipodi:nodetypes="cccccccccc"
       inkscape:connector-curvature="0"
       id="path1139"
       d="m 459.01334,-352.25635 c -31.85705,11.71393 -23.44502,33.87603 -27.84766,52.71325 -4.74802,0.22984 -12.29882,3.315 -6.32957,11.678 13.28715,17.346 25.53848,20.71052 39.74755,23.50143 1.20661,0.16849 2.92638,0.20759 4.34209,-0.072 14.05403,-2.77769 26.20903,-6.2323 39.38214,-23.42943 5.96926,-8.363 -1.58154,-11.44816 -6.32956,-11.678 -4.40265,-18.83722 4.00939,-40.99932 -27.84767,-52.71325 -0.99662,-2.81758 -2.09548,-5.56333 -7.55866,-5.40056 -5.46317,-0.16277 -6.56203,2.58298 -7.55866,5.40056 z"
       style="fill:none;stroke:#424143;stroke-width:2.50000024;stroke-linecap:butt;stroke-linejoin:miter;stroke-miterlimit:4;stroke-dasharray:none;stroke-opacity:1" /><path
       sodipodi:nodetypes="ccccccccccc"
       inkscape:connector-curvature="0"
       id="path1141"
       d="m 434.74225,-292.01109 c -1.24745,-0.32672 -1.13545,-1.07963 -1.24532,-1.86942 l 0.13837,-3.4619 c 0.21558,-0.7045 0.78975,-0.86712 1.86798,-0.62314 10.65899,2.32784 19.70386,3.04087 31.1266,3.095 11.42274,-0.0541 20.20822,-0.63746 30.8672,-2.96531 1.07823,-0.24398 1.6524,-0.0813 1.86799,0.62314 l 0.13837,3.4619 c -0.10988,0.78979 0.002,1.5427 -1.24533,1.86943 -10.77789,2.70795 -19.86786,3.53994 -31.62823,3.58388 -11.76037,-0.0439 -21.10973,-1.00562 -31.88763,-3.71358 z"
       style="fill:none;stroke:#424143;stroke-width:2.5;stroke-linecap:butt;stroke-linejoin:miter;stroke-miterlimit:4;stroke-dasharray:none;stroke-opacity:1" /><ellipse
       ry="7.3045979"
       rx="7.2989826"
       cy="-320.58002"
       cx="466.31232"
       id="path1147"
       style="opacity:1;fill:none;fill-opacity:1;stroke:#424143;stroke-width:2.50000024;stroke-linecap:square;stroke-linejoin:miter;stroke-miterlimit:4;stroke-dasharray:none;stroke-opacity:1" /><path
       style="opacity:1;fill:none;fill-opacity:1;stroke:#424143;stroke-width:2.50000024;stroke-linecap:round;stroke-linejoin:round;stroke-miterlimit:4;stroke-dasharray:none;stroke-opacity:1"
       d="m 480.94787,-323.207 c -1.95862,-0.56903 -3.86796,-4.23557 -3.08492,-5.78971 l 2.98723,-6.24784 -4.99576,2.36086 c -3.08223,1.01516 -6.00384,0.26011 -6.96577,-2.33272 l -2.07573,-5.88924 -1.99441,5.56744 c -0.67499,1.75461 -3.69827,3.89077 -6.5703,2.85646 l -5.50237,-2.63485 2.24867,4.76566 c 1.44556,2.93361 -0.90713,6.70359 -2.73098,7.38526 l -5.38039,2.00729 v 0 l 5.38039,2.35336 c 1.82385,0.68168 4.17654,4.45166 2.73098,7.38526 l -2.24867,4.76567 5.50237,-2.63486 c 2.87203,-1.0343 5.89531,1.10186 6.5703,2.85646 l 1.99441,5.56745 2.07573,-5.88925 c 0.96193,-2.59283 3.88354,-3.34787 6.96577,-2.33271 l 4.99576,2.36086 -2.98723,-6.24784 c -0.78304,-1.55414 1.1263,-5.22069 3.08492,-5.78972 l 5.60131,-2.22164 z"
       id="path1154"
       inkscape:connector-curvature="0"
       sodipodi:nodetypes="cccccccccccccccccccccccccc" /></g><path
     d="M 1049.2848,-347.50267"
     stroke-miterlimit="10"
     id="path1720"
     inkscape:connector-curvature="0"
     style="fill:none;stroke:#010101;stroke-width:2.76591682;stroke-linejoin:round;stroke-miterlimit:10" /></svg>