<?xml version="1.0" encoding="UTF-8" standalone="no"?>
<!-- Generator: Adobe Illustrator 14.0.0, SVG Export Plug-In . SVG Version: 6.00 Build 43363)  -->

<svg
   xmlns:dc="http://purl.org/dc/elements/1.1/"
   xmlns:cc="http://creativecommons.org/ns#"
   xmlns:rdf="http://www.w3.org/1999/02/22-rdf-syntax-ns#"
   xmlns:svg="http://www.w3.org/2000/svg"
   xmlns="http://www.w3.org/2000/svg"
   xmlns:sodipodi="http://sodipodi.sourceforge.net/DTD/sodipodi-0.dtd"
   xmlns:inkscape="http://www.inkscape.org/namespaces/inkscape"
   version="1.1"
   id="Layer_1"
   inkscape:version="0.92.2 (5c3e80d, 2017-08-06)"
   sodipodi:docname="grids.svg"
   x="0px"
   y="0px"
   width="100"
   height="100"
   viewBox="416.572 -360.945 100 100"
   enable-background="new 416.572 -360.945 595.275 841.89"
   xml:space="preserve"
   inkscape:export-filename="C:\Users\holly.jones\Downloads\volcano_pixelhint_12th_jan-20180116T210822Z-001\volcano_pixelhint_12th_jan\volcano_pixelhint\img\hedges_icon_100_white.png"
   inkscape:export-xdpi="149.93106"
   inkscape:export-ydpi="149.93106"><metadata
     id="metadata326"><rdf:RDF><cc:Work
         rdf:about=""><dc:format>image/svg+xml</dc:format><dc:type
           rdf:resource="http://purl.org/dc/dcmitype/StillImage" /><dc:title /></cc:Work></rdf:RDF></metadata><defs
     id="defs324"><clipPath
       clipPathUnits="userSpaceOnUse"
       id="clipPath1282"><rect
         ry="9.0558882"
         y="-355.80136"
         x="430.07397"
         height="89.648712"
         width="90.322769"
         id="rect1284"
         style="opacity:1;fill:#b8e69a;fill-opacity:1;stroke:none;stroke-width:1.99999988;stroke-linecap:round;stroke-linejoin:round;stroke-miterlimit:8.36363602;stroke-dasharray:none;stroke-opacity:1" /></clipPath></defs><sodipodi:namedview
     id="namedview230"
     inkscape:pageshadow="2"
     inkscape:window-width="1680"
     inkscape:window-height="987"
     inkscape:window-x="1912"
     inkscape:window-y="23"
     inkscape:current-layer="Layer_1"
     inkscape:pageopacity="0"
     gridtolerance="10"
     inkscape:zoom="4.04"
     inkscape:cy="50.317446"
     guidetolerance="10"
     bordercolor="#666666"
     showgrid="false"
     borderopacity="1"
     objecttolerance="10"
     inkscape:cx="132.9461"
     pagecolor="#ffffff"
     inkscape:window-maximized="1"
     inkscape:snap-nodes="false" /><text
     xml:space="preserve"
     style="font-style:normal;font-weight:normal;font-size:40px;line-height:125%;font-family:Sans;letter-spacing:0px;word-spacing:0px;fill:#000000;fill-opacity:1;stroke:none;stroke-width:1px;stroke-linecap:butt;stroke-linejoin:miter;stroke-opacity:1"
     x="566.7934"
     y="-274.51813"
     id="text5063"><tspan
       sodipodi:role="line"
       id="tspan5061"
       x="566.7934"
       y="-239.1275" /></text>
<path
     d="M 1049.2848,-347.50267"
     stroke-miterlimit="10"
     id="path1720"
     inkscape:connector-curvature="0"
     style="fill:none;stroke:#010101;stroke-width:2.76591682;stroke-linejoin:round;stroke-miterlimit:10" /><g
     id="g1774"
     transform="translate(-6.2255859e-6,1.1138916e-5)"><rect
       ry="5.6124344"
       y="-349.38721"
       x="419.09653"
       height="76.884392"
       width="94.950958"
       id="rect1750"
       style="opacity:1;fill:#ffffff;fill-opacity:1;stroke:#424143;stroke-width:2.45683312;stroke-linecap:round;stroke-linejoin:round;stroke-miterlimit:4;stroke-dasharray:none;stroke-opacity:1" /><path
       inkscape:connector-curvature="0"
       id="path1748"
       d="m 422.32403,-273.30117 c -1.03171,-0.36888 -1.89622,-1.14854 -2.42893,-2.19054 l -0.48132,-0.94149 0.008,-33.70496 c 0.006,-26.97233 0.0525,-33.83048 0.2323,-34.33335 0.35898,-1.00427 1.11985,-1.85806 2.08398,-2.33851 l 0.89525,-0.44612 h 42.93653 42.93653 l 0.78366,0.36836 c 0.431,0.2026 1.02103,0.63872 1.31116,0.96916 1.13349,1.29097 1.05184,-1.48069 1.05184,35.70757 0,37.38817 0.0893,34.49385 -1.10278,35.73749 -0.30799,0.32129 -0.87502,0.75448 -1.26008,0.96264 l -0.7001,0.37847 -42.79396,0.0368 c -36.07864,0.031 -42.90033,-0.001 -43.47176,-0.20553 z m 85.2228,-2.3481 c 0.85819,-0.38982 1.5812,-1.21217 1.83358,-2.08551 0.131,-0.45329 0.17191,-10.34577 0.13594,-32.8683 l -0.0515,-32.21985 -0.48373,-0.698 c -0.26605,-0.3839 -0.81738,-0.88911 -1.22518,-1.12269 l -0.74146,-0.42469 -41.10711,-0.0452 c -28.30612,-0.0311 -41.31973,0.012 -41.78986,0.13864 -0.87673,0.23608 -1.87107,1.1118 -2.27702,2.00539 -0.30453,0.67034 -0.3189,2.12916 -0.32258,32.74083 l -0.004,32.03923 0.44592,0.89484 c 0.42053,0.8439 0.80076,1.20629 1.82943,1.7436 0.35647,0.1862 8.09263,0.22804 41.7438,0.22579 39.69739,-0.003 41.33379,-0.0153 42.01358,-0.32407 z"
       style="opacity:1;fill:#b8e69a;fill-opacity:1;stroke:none;stroke-width:0.43756607;stroke-linecap:round;stroke-linejoin:round;stroke-miterlimit:4;stroke-dasharray:none;stroke-opacity:1" /><g
       style="fill:#ffffff;fill-opacity:1"
       id="g1730"
       transform="matrix(0.95144359,0,0,0.95144359,22.655055,-15.098377)"><path
         inkscape:connector-curvature="0"
         id="path1714"
         d="m 422.40637,-276.21589 c -0.16857,-0.18188 -0.34691,-0.47427 -0.39632,-0.64975 -0.1173,-0.41658 -0.1173,-14.82548 0,-15.24206 0.0494,-0.17548 0.22775,-0.46787 0.39632,-0.64976 0.2725,-0.29403 0.397,-0.3307 1.12299,-0.3307 0.48778,0 0.96268,-0.0756 1.17956,-0.18774 0.78882,-0.40791 0.74464,0.59885 0.70903,-16.15571 l -0.0324,-15.23629 -0.40418,-0.36112 c -0.36831,-0.32906 -0.48434,-0.36112 -1.30729,-0.36112 -0.82414,0 -0.93145,-0.0298 -1.2272,-0.34034 -0.58049,-0.60961 -0.60278,-0.95119 -0.56344,-8.63243 0.0337,-6.57705 0.055,-7.2116 0.25463,-7.57678 0.11982,-0.2192 0.32501,-0.4559 0.45597,-0.52599 0.35613,-0.19059 4.12029,-0.16701 4.3519,0.0273 0.47306,0.39681 0.53888,0.63017 0.61169,2.16884 0.0733,1.54889 0.0734,1.54924 0.46865,1.90242 l 0.39535,0.35325 h 36.38224 36.38223 l 0.40289,-0.35998 0.40288,-0.35997 0.0632,-1.53939 c 0.0947,-2.30576 0.11205,-2.31987 2.85225,-2.31987 1.88043,0 2.08011,0.021 2.27771,0.23933 0.53737,0.59378 0.55325,0.8299 0.55823,8.30027 0.003,4.41457 -0.0426,7.28674 -0.11993,7.56517 -0.0686,0.24686 -0.27078,0.59494 -0.44936,0.77352 -0.28907,0.28907 -0.42123,0.32488 -1.20508,0.3265 -1.04975,0.002 -1.42597,0.165 -1.71561,0.74248 -0.20243,0.40362 -0.2164,1.39557 -0.21658,15.37973 -2.5e-4,16.3699 -0.0357,15.58997 0.72649,15.98409 0.23696,0.12253 0.69797,0.19386 1.253,0.19386 0.75902,0 0.91792,0.0398 1.1717,0.2936 0.16148,0.16148 0.35357,0.50956 0.42686,0.77351 0.18387,0.66222 0.18387,14.40653 0,15.06875 -0.0733,0.26395 -0.26538,0.61203 -0.42686,0.77351 -0.28517,0.28517 -0.35207,0.2936 -2.3303,0.2936 h -2.0367 l -0.32044,-0.38082 c -0.39193,-0.46578 -0.42662,-0.61856 -0.47088,-2.07372 -0.0344,-1.12974 -0.044,-1.16296 -0.43932,-1.51609 l -0.40418,-0.36105 h -36.35661 c -32.65091,0 -36.38459,0.0196 -36.63075,0.19199 -0.45863,0.32123 -0.571,0.68038 -0.64531,2.06243 -0.0672,1.25006 -0.092,1.34775 -0.4311,1.70173 l -0.35978,0.37553 h -2.02484 -2.02483 z m 15.22844,-8.82123 c 0.33857,-0.16661 0.84272,-0.53006 1.12034,-0.80768 0.27762,-0.27762 0.64108,-0.78178 0.80769,-1.12035 l 0.30292,-0.61558 v -21.53465 -21.53466 l -0.30292,-0.61558 c -0.38637,-0.78516 -1.14287,-1.54167 -1.92803,-1.92803 -0.55356,-0.2724 -0.77146,-0.30292 -2.16262,-0.30292 -1.44863,0 -1.58809,0.0217 -2.19264,0.34033 -0.81994,0.43223 -1.42836,1.04065 -1.86058,1.86059 l -0.34034,0.64561 -0.0336,21.28713 c -0.0304,19.25708 -0.0147,21.34543 0.16488,21.89844 0.27206,0.83779 0.82087,1.5977 1.48274,2.05308 0.92311,0.63511 1.3333,0.73465 2.90334,0.70451 1.22621,-0.0235 1.50849,-0.0693 2.03885,-0.33024 z m 14.34228,0.11315 c 0.94661,-0.35417 1.7213,-1.0809 2.20962,-2.0728 l 0.40677,-0.82628 v -21.29233 -21.29234 l -0.40677,-0.82628 c -0.49201,-0.99941 -1.26316,-1.71816 -2.23592,-2.08399 -0.59658,-0.22437 -0.89818,-0.25583 -2.06028,-0.21493 -1.17035,0.0412 -1.44892,0.0933 -1.98517,0.3714 -0.75569,0.3919 -1.59296,1.27252 -1.95531,2.05657 l -0.26744,0.57867 v 21.34901 c 0,20.7461 0.007,21.36639 0.23731,21.96434 0.40076,1.03917 1.55025,2.0827 2.67111,2.42488 0.17017,0.0519 0.85032,0.0992 1.51144,0.1051 0.9251,0.008 1.35701,-0.0473 1.87464,-0.24102 z m 14.9976,-0.14476 c 0.75598,-0.39268 1.59313,-1.2734 1.95531,-2.05709 l 0.26744,-0.57867 v -21.41089 -21.4109 l -0.34658,-0.70576 c -0.43395,-0.88369 -1.36499,-1.73623 -2.26306,-2.07224 -0.94613,-0.35399 -2.74219,-0.35522 -3.68486,-0.002 -0.9466,0.35417 -1.7213,1.0809 -2.20961,2.07281 l -0.40678,0.82628 v 21.28973 21.28973 l 0.34705,0.74257 c 0.37564,0.80377 0.89622,1.41337 1.5567,1.82294 0.81658,0.50635 1.24898,0.59405 2.73734,0.55519 1.25198,-0.0327 1.49834,-0.0762 2.04705,-0.36117 z m 14.56634,0.0406 c 0.77292,-0.3806 1.49085,-1.09209 1.91579,-1.89858 l 0.34458,-0.65401 v -21.47276 -21.47278 l -0.32337,-0.68069 c -0.38924,-0.81938 -1.06744,-1.51796 -1.90435,-1.96158 -0.57417,-0.30436 -0.73043,-0.32802 -2.16584,-0.32802 -1.39149,0 -1.60925,0.0305 -2.16584,0.30354 -0.85515,0.41947 -1.7142,1.33582 -2.0636,2.20122 l -0.28789,0.71306 v 21.16337 21.16336 l 0.29879,0.7422 c 0.3809,0.94615 1.34738,1.91865 2.2639,2.27801 0.55163,0.2163 0.87998,0.25178 2.0784,0.22459 1.19938,-0.0272 1.51547,-0.0777 2.00943,-0.32092 z m 14.39435,0.0957 c 0.93208,-0.34873 1.91006,-1.32475 2.30268,-2.29803 l 0.29107,-0.72155 0.0338,-20.53961 c 0.0204,-12.4022 -0.0125,-20.87357 -0.0831,-21.38255 -0.21031,-1.51767 -1.02362,-2.6887 -2.30544,-3.31947 -0.55356,-0.2724 -0.77146,-0.30292 -2.16262,-0.30292 -1.43541,0 -1.59167,0.0237 -2.16584,0.32802 -0.78792,0.41766 -1.48204,1.11178 -1.8997,1.8997 l -0.32802,0.61881 v 21.53466 21.53465 l 0.29483,0.55313 c 0.59251,1.11163 1.33309,1.79962 2.33186,2.16627 0.76829,0.28204 2.85399,0.24185 3.69046,-0.0711 z"
         style="opacity:1;fill:#ffffff;fill-opacity:1;stroke:none;stroke-width:2.5;stroke-linecap:round;stroke-linejoin:round;stroke-miterlimit:4;stroke-dasharray:none;stroke-opacity:1" /><g
         style="fill:#ffffff;fill-opacity:1"
         id="g1728"><path
           inkscape:connector-curvature="0"
           style="opacity:1;fill:#ffffff;fill-opacity:1;stroke:#424143;stroke-width:2.5;stroke-linecap:round;stroke-linejoin:round;stroke-miterlimit:4;stroke-dasharray:none;stroke-opacity:1"
           d="m 424.82279,-345.6413 c -1.36192,0 -2.45706,1.33792 -2.45706,2.99914 v 13.86002 c 0,1.66122 1.09514,2.99914 2.45706,2.99914 h 1.05006 v 29.676 h -1.05006 c -1.36192,0 -2.45706,1.33792 -2.45706,2.99915 v 13.86001 c 0,1.66123 1.09514,2.99915 2.45706,2.99915 h 3.38814 c 1.36192,0 2.45706,-1.33792 2.45706,-2.99915 v -1.40072 h 71.8063 v 1.40072 c 0,1.66123 1.09687,2.99915 2.45878,2.99915 h 3.38642 c 1.36192,0 2.45878,-1.33792 2.45878,-2.99915 v -13.86001 c 0,-1.66123 -1.09686,-2.99915 -2.45878,-2.99915 h -1.17076 v -29.676 h 1.17076 c 1.36192,0 2.45878,-1.33792 2.45878,-2.99914 v -13.86002 c 0,-1.66122 -1.09686,-2.99914 -2.45878,-2.99914 h -3.38642 c -1.36191,0 -2.45878,1.33792 -2.45878,2.99914 v 1.68255 h -71.8063 v -1.68255 c 0,-1.66122 -1.09514,-2.99914 -2.45706,-2.99914 z"
           id="path1716" /><rect
           ry="2.8511333"
           y="-333.9931"
           x="492.58365"
           height="46.378441"
           width="6.4018164"
           id="rect1718"
           style="opacity:1;fill:#ffffff;fill-opacity:1;stroke:#424143;stroke-width:2.5;stroke-linecap:round;stroke-linejoin:round;stroke-miterlimit:4;stroke-dasharray:none;stroke-opacity:1" /><rect
           style="opacity:1;fill:#ffffff;fill-opacity:1;stroke:#424143;stroke-width:2.5;stroke-linecap:round;stroke-linejoin:round;stroke-miterlimit:4;stroke-dasharray:none;stroke-opacity:1"
           id="rect1720"
           width="6.4018164"
           height="46.378441"
           x="434.03735"
           y="-333.9931"
           ry="2.8511333" /><rect
           ry="2.8511333"
           y="-333.9931"
           x="448.67392"
           height="46.378441"
           width="6.4018164"
           id="rect1722"
           style="opacity:1;fill:#ffffff;fill-opacity:1;stroke:#424143;stroke-width:2.5;stroke-linecap:round;stroke-linejoin:round;stroke-miterlimit:4;stroke-dasharray:none;stroke-opacity:1" /><rect
           style="opacity:1;fill:#ffffff;fill-opacity:1;stroke:#424143;stroke-width:2.5;stroke-linecap:round;stroke-linejoin:round;stroke-miterlimit:4;stroke-dasharray:none;stroke-opacity:1"
           id="rect1724"
           width="6.4018164"
           height="46.378441"
           x="463.31049"
           y="-333.9931"
           ry="2.8511333" /><rect
           ry="2.8511333"
           y="-333.9931"
           x="477.94708"
           height="46.378441"
           width="6.4018164"
           id="rect1726"
           style="opacity:1;fill:#ffffff;fill-opacity:1;stroke:#424143;stroke-width:2.5;stroke-linecap:round;stroke-linejoin:round;stroke-miterlimit:4;stroke-dasharray:none;stroke-opacity:1" /></g></g><g
       transform="matrix(0.95144359,0,0,0.95144359,22.655061,-15.098378)"
       id="g1688"><path
         style="opacity:1;fill:#b8e69a;fill-opacity:1;stroke:none;stroke-width:2.5;stroke-linecap:round;stroke-linejoin:round;stroke-miterlimit:4;stroke-dasharray:none;stroke-opacity:1"
         d="m 422.40637,-276.21589 c -0.16857,-0.18188 -0.34691,-0.47427 -0.39632,-0.64975 -0.1173,-0.41658 -0.1173,-14.82548 0,-15.24206 0.0494,-0.17548 0.22775,-0.46787 0.39632,-0.64976 0.2725,-0.29403 0.397,-0.3307 1.12299,-0.3307 0.48778,0 0.96268,-0.0756 1.17956,-0.18774 0.78882,-0.40791 0.74464,0.59885 0.70903,-16.15571 l -0.0324,-15.23629 -0.40418,-0.36112 c -0.36831,-0.32906 -0.48434,-0.36112 -1.30729,-0.36112 -0.82414,0 -0.93145,-0.0298 -1.2272,-0.34034 -0.58049,-0.60961 -0.60278,-0.95119 -0.56344,-8.63243 0.0337,-6.57705 0.055,-7.2116 0.25463,-7.57678 0.11982,-0.2192 0.32501,-0.4559 0.45597,-0.52599 0.35613,-0.19059 4.12029,-0.16701 4.3519,0.0273 0.47306,0.39681 0.53888,0.63017 0.61169,2.16884 0.0733,1.54889 0.0734,1.54924 0.46865,1.90242 l 0.39535,0.35325 h 36.38224 36.38223 l 0.40289,-0.35998 0.40288,-0.35997 0.0632,-1.53939 c 0.0947,-2.30576 0.11205,-2.31987 2.85225,-2.31987 1.88043,0 2.08011,0.021 2.27771,0.23933 0.53737,0.59378 0.55325,0.8299 0.55823,8.30027 0.003,4.41457 -0.0426,7.28674 -0.11993,7.56517 -0.0686,0.24686 -0.27078,0.59494 -0.44936,0.77352 -0.28907,0.28907 -0.42123,0.32488 -1.20508,0.3265 -1.04975,0.002 -1.42597,0.165 -1.71561,0.74248 -0.20243,0.40362 -0.2164,1.39557 -0.21658,15.37973 -2.5e-4,16.3699 -0.0357,15.58997 0.72649,15.98409 0.23696,0.12253 0.69797,0.19386 1.253,0.19386 0.75902,0 0.91792,0.0398 1.1717,0.2936 0.16148,0.16148 0.35357,0.50956 0.42686,0.77351 0.18387,0.66222 0.18387,14.40653 0,15.06875 -0.0733,0.26395 -0.26538,0.61203 -0.42686,0.77351 -0.28517,0.28517 -0.35207,0.2936 -2.3303,0.2936 h -2.0367 l -0.32044,-0.38082 c -0.39193,-0.46578 -0.42662,-0.61856 -0.47088,-2.07372 -0.0344,-1.12974 -0.044,-1.16296 -0.43932,-1.51609 l -0.40418,-0.36105 h -36.35661 c -32.65091,0 -36.38459,0.0196 -36.63075,0.19199 -0.45863,0.32123 -0.571,0.68038 -0.64531,2.06243 -0.0672,1.25006 -0.092,1.34775 -0.4311,1.70173 l -0.35978,0.37553 h -2.02484 -2.02483 z m 15.22844,-8.82123 c 0.33857,-0.16661 0.84272,-0.53006 1.12034,-0.80768 0.27762,-0.27762 0.64108,-0.78178 0.80769,-1.12035 l 0.30292,-0.61558 v -21.53465 -21.53466 l -0.30292,-0.61558 c -0.38637,-0.78516 -1.14287,-1.54167 -1.92803,-1.92803 -0.55356,-0.2724 -0.77146,-0.30292 -2.16262,-0.30292 -1.44863,0 -1.58809,0.0217 -2.19264,0.34033 -0.81994,0.43223 -1.42836,1.04065 -1.86058,1.86059 l -0.34034,0.64561 -0.0336,21.28713 c -0.0304,19.25708 -0.0147,21.34543 0.16488,21.89844 0.27206,0.83779 0.82087,1.5977 1.48274,2.05308 0.92311,0.63511 1.3333,0.73465 2.90334,0.70451 1.22621,-0.0235 1.50849,-0.0693 2.03885,-0.33024 z m 14.34228,0.11315 c 0.94661,-0.35417 1.7213,-1.0809 2.20962,-2.0728 l 0.40677,-0.82628 v -21.29233 -21.29234 l -0.40677,-0.82628 c -0.49201,-0.99941 -1.26316,-1.71816 -2.23592,-2.08399 -0.59658,-0.22437 -0.89818,-0.25583 -2.06028,-0.21493 -1.17035,0.0412 -1.44892,0.0933 -1.98517,0.3714 -0.75569,0.3919 -1.59296,1.27252 -1.95531,2.05657 l -0.26744,0.57867 v 21.34901 c 0,20.7461 0.007,21.36639 0.23731,21.96434 0.40076,1.03917 1.55025,2.0827 2.67111,2.42488 0.17017,0.0519 0.85032,0.0992 1.51144,0.1051 0.9251,0.008 1.35701,-0.0473 1.87464,-0.24102 z m 14.9976,-0.14476 c 0.75598,-0.39268 1.59313,-1.2734 1.95531,-2.05709 l 0.26744,-0.57867 v -21.41089 -21.4109 l -0.34658,-0.70576 c -0.43395,-0.88369 -1.36499,-1.73623 -2.26306,-2.07224 -0.94613,-0.35399 -2.74219,-0.35522 -3.68486,-0.002 -0.9466,0.35417 -1.7213,1.0809 -2.20961,2.07281 l -0.40678,0.82628 v 21.28973 21.28973 l 0.34705,0.74257 c 0.37564,0.80377 0.89622,1.41337 1.5567,1.82294 0.81658,0.50635 1.24898,0.59405 2.73734,0.55519 1.25198,-0.0327 1.49834,-0.0762 2.04705,-0.36117 z m 14.56634,0.0406 c 0.77292,-0.3806 1.49085,-1.09209 1.91579,-1.89858 l 0.34458,-0.65401 v -21.47276 -21.47278 l -0.32337,-0.68069 c -0.38924,-0.81938 -1.06744,-1.51796 -1.90435,-1.96158 -0.57417,-0.30436 -0.73043,-0.32802 -2.16584,-0.32802 -1.39149,0 -1.60925,0.0305 -2.16584,0.30354 -0.85515,0.41947 -1.7142,1.33582 -2.0636,2.20122 l -0.28789,0.71306 v 21.16337 21.16336 l 0.29879,0.7422 c 0.3809,0.94615 1.34738,1.91865 2.2639,2.27801 0.55163,0.2163 0.87998,0.25178 2.0784,0.22459 1.19938,-0.0272 1.51547,-0.0777 2.00943,-0.32092 z m 14.39435,0.0957 c 0.93208,-0.34873 1.91006,-1.32475 2.30268,-2.29803 l 0.29107,-0.72155 0.0338,-20.53961 c 0.0204,-12.4022 -0.0125,-20.87357 -0.0831,-21.38255 -0.21031,-1.51767 -1.02362,-2.6887 -2.30544,-3.31947 -0.55356,-0.2724 -0.77146,-0.30292 -2.16262,-0.30292 -1.43541,0 -1.59167,0.0237 -2.16584,0.32802 -0.78792,0.41766 -1.48204,1.11178 -1.8997,1.8997 l -0.32802,0.61881 v 21.53466 21.53465 l 0.29483,0.55313 c 0.59251,1.11163 1.33309,1.79962 2.33186,2.16627 0.76829,0.28204 2.85399,0.24185 3.69046,-0.0711 z"
         id="path1678"
         inkscape:connector-curvature="0" /><g
         id="g1676"><path
           id="rect1600"
           d="m 424.82279,-345.6413 c -1.36192,0 -2.45706,1.33792 -2.45706,2.99914 v 13.86002 c 0,1.66122 1.09514,2.99914 2.45706,2.99914 h 1.05006 v 29.676 h -1.05006 c -1.36192,0 -2.45706,1.33792 -2.45706,2.99915 v 13.86001 c 0,1.66123 1.09514,2.99915 2.45706,2.99915 h 3.38814 c 1.36192,0 2.45706,-1.33792 2.45706,-2.99915 v -1.40072 h 71.8063 v 1.40072 c 0,1.66123 1.09687,2.99915 2.45878,2.99915 h 3.38642 c 1.36192,0 2.45878,-1.33792 2.45878,-2.99915 v -13.86001 c 0,-1.66123 -1.09686,-2.99915 -2.45878,-2.99915 h -1.17076 v -29.676 h 1.17076 c 1.36192,0 2.45878,-1.33792 2.45878,-2.99914 v -13.86002 c 0,-1.66122 -1.09686,-2.99914 -2.45878,-2.99914 h -3.38642 c -1.36191,0 -2.45878,1.33792 -2.45878,2.99914 v 1.68255 h -71.8063 v -1.68255 c 0,-1.66122 -1.09514,-2.99914 -2.45706,-2.99914 z"
           style="opacity:1;fill:none;fill-opacity:1;stroke:#424143;stroke-width:2.5;stroke-linecap:round;stroke-linejoin:round;stroke-miterlimit:4;stroke-dasharray:none;stroke-opacity:1"
           inkscape:connector-curvature="0" /><rect
           style="opacity:1;fill:none;fill-opacity:1;stroke:#424143;stroke-width:2.5;stroke-linecap:round;stroke-linejoin:round;stroke-miterlimit:4;stroke-dasharray:none;stroke-opacity:1"
           id="rect1614"
           width="6.4018164"
           height="46.378441"
           x="492.58365"
           y="-333.9931"
           ry="2.8511333" /><rect
           ry="2.8511333"
           y="-333.9931"
           x="434.03735"
           height="46.378441"
           width="6.4018164"
           id="rect1662"
           style="opacity:1;fill:none;fill-opacity:1;stroke:#424143;stroke-width:2.5;stroke-linecap:round;stroke-linejoin:round;stroke-miterlimit:4;stroke-dasharray:none;stroke-opacity:1" /><rect
           style="opacity:1;fill:none;fill-opacity:1;stroke:#424143;stroke-width:2.5;stroke-linecap:round;stroke-linejoin:round;stroke-miterlimit:4;stroke-dasharray:none;stroke-opacity:1"
           id="rect1664"
           width="6.4018164"
           height="46.378441"
           x="448.67392"
           y="-333.9931"
           ry="2.8511333" /><rect
           ry="2.8511333"
           y="-333.9931"
           x="463.31049"
           height="46.378441"
           width="6.4018164"
           id="rect1666"
           style="opacity:1;fill:none;fill-opacity:1;stroke:#424143;stroke-width:2.5;stroke-linecap:round;stroke-linejoin:round;stroke-miterlimit:4;stroke-dasharray:none;stroke-opacity:1" /><rect
           style="opacity:1;fill:none;fill-opacity:1;stroke:#424143;stroke-width:2.5;stroke-linecap:round;stroke-linejoin:round;stroke-miterlimit:4;stroke-dasharray:none;stroke-opacity:1"
           id="rect1668"
           width="6.4018164"
           height="46.378441"
           x="477.94708"
           y="-333.9931"
           ry="2.8511333" /></g></g><rect
       ry="2.4697428"
       y="-344.70822"
       x="423.68796"
       height="67.526466"
       width="85.768059"
       id="rect1690"
       style="opacity:1;fill:none;fill-opacity:1;stroke:#424143;stroke-width:2.18829918;stroke-linecap:round;stroke-linejoin:round;stroke-miterlimit:4;stroke-dasharray:none;stroke-opacity:1" /><rect
       style="opacity:1;fill:none;fill-opacity:1;stroke:#424143;stroke-width:2.45683312;stroke-linecap:round;stroke-linejoin:round;stroke-miterlimit:4;stroke-dasharray:none;stroke-opacity:1"
       id="rect1746"
       width="94.950958"
       height="76.884392"
       x="419.09653"
       y="-349.38721"
       ry="5.6124344" /></g></svg>