<?xml version="1.0" encoding="UTF-8" standalone="no"?>
<!-- Generator: Adobe Illustrator 14.0.0, SVG Export Plug-In . SVG Version: 6.00 Build 43363)  -->

<svg
   xmlns:dc="http://purl.org/dc/elements/1.1/"
   xmlns:cc="http://creativecommons.org/ns#"
   xmlns:rdf="http://www.w3.org/1999/02/22-rdf-syntax-ns#"
   xmlns:svg="http://www.w3.org/2000/svg"
   xmlns="http://www.w3.org/2000/svg"
   xmlns:sodipodi="http://sodipodi.sourceforge.net/DTD/sodipodi-0.dtd"
   xmlns:inkscape="http://www.inkscape.org/namespaces/inkscape"
   version="1.1"
   id="Layer_1"
   inkscape:version="0.92.2 (5c3e80d, 2017-08-06)"
   sodipodi:docname="hedges.svg"
   x="0px"
   y="0px"
   width="100"
   height="100"
   viewBox="416.572 -360.945 100 100"
   enable-background="new 416.572 -360.945 595.275 841.89"
   xml:space="preserve"
   inkscape:export-filename="C:\Users\holly.jones\Downloads\volcano_pixelhint_12th_jan-20180116T210822Z-001\volcano_pixelhint_12th_jan\volcano_pixelhint\img\hedges_icon_100_white.png"
   inkscape:export-xdpi="149.93106"
   inkscape:export-ydpi="149.93106"><metadata
     id="metadata326"><rdf:RDF><cc:Work
         rdf:about=""><dc:format>image/svg+xml</dc:format><dc:type
           rdf:resource="http://purl.org/dc/dcmitype/StillImage" /><dc:title></dc:title></cc:Work></rdf:RDF></metadata><defs
     id="defs324" /><sodipodi:namedview
     id="namedview230"
     inkscape:pageshadow="2"
     inkscape:window-width="1920"
     inkscape:window-height="1001"
     inkscape:window-x="-9"
     inkscape:window-y="-9"
     inkscape:current-layer="Layer_1"
     inkscape:pageopacity="0"
     gridtolerance="10"
     inkscape:zoom="3.8551136"
     inkscape:cy="24.757148"
     guidetolerance="10"
     bordercolor="#666666"
     showgrid="false"
     borderopacity="1"
     objecttolerance="10"
     inkscape:cx="97.827032"
     pagecolor="#ffffff"
     inkscape:window-maximized="1"
     inkscape:snap-nodes="false" /><text
     xml:space="preserve"
     style="font-style:normal;font-weight:normal;font-size:40px;line-height:125%;font-family:Sans;letter-spacing:0px;word-spacing:0px;fill:#000000;fill-opacity:1;stroke:none;stroke-width:1px;stroke-linecap:butt;stroke-linejoin:miter;stroke-opacity:1"
     x="566.7934"
     y="-274.51813"
     id="text5063"><tspan
       sodipodi:role="line"
       id="tspan5061"
       x="566.7934"
       y="-239.1275" /></text>
<path
     d="M 1049.2848,-347.50267"
     stroke-miterlimit="10"
     id="path1720"
     inkscape:connector-curvature="0"
     style="fill:none;stroke:#010101;stroke-width:2.76591682;stroke-linejoin:round;stroke-miterlimit:10" /><g
     id="g1466"><path
       transform="translate(416.572,-360.945)"
       inkscape:connector-curvature="0"
       id="path1416"
       d="m 31.192856,55.188998 v -2.756079 h 1.102432 1.102432 v 2.756079 2.75608 h -1.102432 -1.102432 z"
       style="opacity:1;fill:#f7ffe6;fill-opacity:1;stroke:#ffffff;stroke-width:2;stroke-linecap:round;stroke-linejoin:round;stroke-miterlimit:4;stroke-dasharray:none;stroke-opacity:1" /><path
       transform="translate(416.572,-360.945)"
       inkscape:connector-curvature="0"
       id="path1418"
       d="m 44.162642,55.188998 v -2.756079 h 0.551216 0.551216 v 2.756079 2.75608 h -0.551216 -0.551216 z"
       style="opacity:1;fill:#f7ffe6;fill-opacity:1;stroke:#ffffff;stroke-width:2;stroke-linecap:round;stroke-linejoin:round;stroke-miterlimit:4;stroke-dasharray:none;stroke-opacity:1" /><path
       transform="translate(416.572,-360.945)"
       inkscape:connector-curvature="0"
       id="path1420"
       d="m 56.029997,55.188998 v -2.756079 h 0.616065 0.616065 v 2.756079 2.75608 h -0.616065 -0.616065 z"
       style="opacity:1;fill:#f7ffe6;fill-opacity:1;stroke:#ffffff;stroke-width:2;stroke-linecap:round;stroke-linejoin:round;stroke-miterlimit:4;stroke-dasharray:none;stroke-opacity:1" /><path
       transform="translate(416.572,-360.945)"
       inkscape:connector-curvature="0"
       id="path1422"
       d="m 68.091898,55.188998 v -2.756079 h 0.616065 0.616065 v 2.756079 2.75608 h -0.616065 -0.616065 z"
       style="opacity:1;fill:#f7ffe6;fill-opacity:1;stroke:#ffffff;stroke-width:2;stroke-linecap:round;stroke-linejoin:round;stroke-miterlimit:4;stroke-dasharray:none;stroke-opacity:1" /><path
       transform="translate(416.572,-360.945)"
       inkscape:connector-curvature="0"
       id="path1424"
       d="m 68.091898,72.69821 v -2.75608 h 0.616065 0.616065 v 2.75608 2.75608 h -0.616065 -0.616065 z"
       style="opacity:1;fill:#f7ffe6;fill-opacity:1;stroke:#ffffff;stroke-width:2;stroke-linecap:round;stroke-linejoin:round;stroke-miterlimit:4;stroke-dasharray:none;stroke-opacity:1" /><path
       transform="translate(416.572,-360.945)"
       inkscape:connector-curvature="0"
       id="path1428"
       d="m 56.029997,72.69821 v -2.75608 h 0.616065 0.616065 v 2.75608 2.75608 h -0.616065 -0.616065 z"
       style="opacity:1;fill:#f7ffe6;fill-opacity:1;stroke:#ffffff;stroke-width:2;stroke-linecap:round;stroke-linejoin:round;stroke-miterlimit:4;stroke-dasharray:none;stroke-opacity:1" /><path
       style="fill:#f7f8f5;stroke:#424143;stroke-width:2.5;stroke-linecap:square;stroke-linejoin:round;stroke-miterlimit:4;stroke-dasharray:none;fill-opacity:1"
       inkscape:connector-curvature="0"
       d="m 496.16946,-283.98031 c 0,0 3.22198,-0.18854 7.11584,1.31413 3.89273,1.50154 -4.03528,-10.34256 -4.03528,-10.34256 0,0 4.66514,4.67453 7.98139,3.41967 3.31853,-1.25542 -5.09962,-8.61127 -5.09962,-8.61127 0,0 2.40299,2.5227 8.95771,1.30848 6.55527,-1.21252 -6.02993,-7.55624 -6.02993,-7.55624 0,0 5.21094,-3.02227 6.02993,-4.64291 0.81898,-1.62178 -10.41961,-2.15353 -10.41961,-2.15353 0,0 9.09117,-10.32506 3.1879,-7.93614 -5.90213,2.38891 -8.19154,-0.0181 -8.19154,-0.0181 0,0 4.94969,-3.44677 5.0468,-5.00476 0.31749,-3.1696 -7.23056,-1.95595 -7.23056,-1.95595 0,0 0.11983,-3.44564 2.88802,-6.04398 2.76876,-2.5989 -5.82035,3.07816 -5.82035,3.07816 0,0 3.16178,-11.19324 -0.36689,-8.64909 -3.34239,2.4098 -5.58125,5.80407 -5.58125,5.80407 0,0 -0.39699,-0.27039 -3.26003,-9.6838 -0.80251,-2.64463 -2.86814,10.30191 -2.86814,10.30191 0,0 -9.01904,-14.91491 -7.99787,-7.36149 1.01833,7.55229 1.46417,10.86414 1.46417,10.86414 0,0 -3.5406,-5.84979 -3.89272,-4.28955 -0.53899,2.40303 -3.20608,3.98078 -3.20608,3.98078 0,0 2.92778,-5.95479 1.55561,-7.05893 -1.3733,-1.10527 -10.20946,7.77018 -10.20946,7.77018 0,0 1.87878,-8.28387 -0.62702,-6.99119 -4.86222,2.5069 -4.9866,4.52607 -4.9866,4.52607 0,0 -2.12242,-8.01574 -5.93734,-9.80911 l -1.62434,9.38349 c 0,0 -3.17313,-0.80609 -7.0085,-3.48798 -3.43553,-2.40528 0.48503,12.38657 0.48503,12.38657 0,0 -15.78957,-1.75669 -12.13084,3.24637 3.65646,5.00419 8.37215,6.35501 8.37215,6.35501 l -11.69125,5.96552 c 2.54158,7.48568 11.09661,3.57942 11.09661,3.57942 0,0 -13.93806,10.49215 -6.98692,9.09391 3.79504,-0.76376 9.87437,-2.5656 9.87437,-2.5656 0,0 -7.7332,9.25479 -6.45304,11.33605 1.27902,2.0824 9.45806,0.01 9.45806,0.01"
       id="path1414" /><path
       transform="translate(416.572,-360.945)"
       inkscape:connector-curvature="0"
       id="path1430"
       d="m 44.162642,72.69821 v -2.75608 h 0.551216 0.551216 v 2.75608 2.75608 h -0.551216 -0.551216 z"
       style="opacity:1;fill:#f7ffe6;fill-opacity:1;stroke:#ffffff;stroke-width:2;stroke-linecap:round;stroke-linejoin:round;stroke-miterlimit:4;stroke-dasharray:none;stroke-opacity:1" /><path
       style="fill:#b8e69a;stroke-width:1"
       d="m 501.38664,-283.27696 c -0.65144,-0.26192 -3.64226,-0.83544 -5.14733,-0.98898 l -1.2529,-0.12814 -0.004,-14.55703 -0.003,-14.55703 -2.1974,-3.30451 c -1.77484,-2.66947 -2.29451,-3.30452 -2.69889,-3.30452 -0.40609,0 -0.91951,0.63562 -2.70458,3.34403 l -2.20364,3.3446 v 2.18118 2.18118 h -1.08992 -1.08989 v -2.21392 -2.21505 l -2.21273,-3.31073 c -1.74077,-2.6085 -2.31383,-3.31129 -2.69265,-3.31129 -0.37996,0 -0.95189,0.70279 -2.69322,3.31129 l -2.21273,3.31073 v 2.21505 2.21392 h -1.0899 -1.09046 v -2.18118 -2.18118 l -2.20365,-3.3446 c -1.7862,-2.70841 -2.29906,-3.34403 -2.70514,-3.34403 -0.40495,0 -0.92349,0.63562 -2.6989,3.30452 l -2.1974,3.30451 -0.003,2.22183 -0.004,2.22126 h -0.95926 -0.96097 l -0.0744,-2.22126 -0.0744,-2.22183 -2.24681,-3.31749 c -1.8765,-2.77051 -2.32689,-3.30621 -2.72559,-3.25033 -0.34304,0.0485 -1.11034,1.00535 -2.71196,3.38129 l -2.23488,3.31298 v 2.15804 2.15804 h -1.52665 -1.52608 v -2.15127 -2.1507 l -2.2116,-3.37508 c -1.83504,-2.80268 -2.29963,-3.37507 -2.73354,-3.37507 -0.43221,0 -0.89225,0.56449 -2.69094,3.30451 l -2.16957,3.30452 -0.003,14.44921 -0.003,14.44864 -1.14499,0.2337 c -3.27139,0.66666 -6.15373,0.74118 -6.86538,0.17782 -0.53671,-0.42506 0.19538,-2.1095 2.28316,-5.25708 0.71221,-1.07253 1.89923,-2.70503 2.6387,-3.62684 1.41306,-1.76403 1.69135,-2.62657 0.92121,-2.86986 -0.23172,-0.0728 -1.43407,0.15749 -2.6705,0.51368 -2.88007,0.82924 -7.46399,1.97345 -7.90359,1.97345 -0.18742,0 -0.34077,-0.0869 -0.34077,-0.19305 0,-0.35281 3.34466,-3.50322 5.94076,-5.5969 1.93103,-1.55573 2.56202,-2.18796 2.56202,-2.56504 0,-0.74399 -0.65825,-0.83036 -2.33371,-0.30426 -1.79642,0.56393 -4.39706,0.64183 -5.51422,0.16596 -1.56925,-0.66892 -3.17768,-2.51931 -2.64778,-3.04598 0.12268,-0.12249 2.65743,-1.45976 5.63236,-2.97429 6.47633,-3.29492 6.45702,-3.26951 3.65305,-4.65985 -2.24568,-1.11317 -3.63488,-2.13941 -5.32055,-3.9294 -1.70329,-1.81088 -2.00146,-2.39908 -1.42613,-2.8168 0.97233,-0.7073 1.97249,-0.82415 7.08404,-0.83318 4.70774,-0.007 5.12575,-0.0389 5.19447,-0.38837 0.0398,-0.20943 -0.18004,-1.47727 -0.49185,-2.8168 -0.83772,-3.60313 -1.21086,-5.94124 -1.21086,-7.58334 -5.7e-4,-0.80439 0.0471,-1.46202 0.10507,-1.46202 0.0579,0 0.6219,0.32797 1.25346,0.72932 1.64478,1.04486 3.5707,1.97458 5.02408,2.4273 1.10807,0.34546 1.29663,0.35506 1.58004,0.0739 0.19481,-0.19419 0.5918,-1.90628 1.01436,-4.37479 0.38166,-2.23142 0.769,-4.05641 0.86158,-4.05641 0.30215,0 1.95204,2.46399 2.68413,4.00899 0.39359,0.83488 0.94052,2.19925 1.21257,3.03413 0.27205,0.83431 0.59635,1.64322 0.72016,1.79846 0.3669,0.45893 1.1075,0.20152 1.4318,-0.49845 0.16641,-0.35732 0.55943,-0.9314 0.87465,-1.27461 0.55261,-0.60457 3.31853,-2.51705 3.63999,-2.51705 0.20559,0 -0.0443,3.44338 -0.3669,5.02564 -0.55489,2.7293 0.24479,2.5989 3.72916,-0.61191 2.66539,-2.45722 5.92826,-5.06459 6.33548,-5.06459 0.52819,0 -0.21242,3.06179 -1.19838,4.95677 -0.52421,1.00649 -0.38223,1.85096 0.32487,1.93338 0.68268,0.0796 2.3905,-1.34066 3.27196,-2.72084 l 0.59294,-0.92915 0.55659,0.6582 c 0.30669,0.3624 0.91497,1.23566 1.35399,1.94071 0.43789,0.70505 0.93428,1.33501 1.10126,1.3988 0.40551,0.15411 0.89679,-0.0463 1.04446,-0.42675 0.0648,-0.16935 -0.22548,-2.81454 -0.64747,-5.87971 -0.42028,-3.06461 -0.73549,-5.76964 -0.70028,-6.01011 0.0869,-0.60005 2.44957,2.34093 4.81678,5.99599 1.55278,2.39739 1.86345,2.7581 2.37176,2.76261 0.69517,0.006 0.63838,0.16483 1.37217,-3.8944 0.3118,-1.72903 0.69233,-3.62741 0.84397,-4.22125 l 0.27659,-1.07874 1.04446,3.24581 c 0.5742,1.78435 1.23984,3.70135 1.47837,4.25907 0.6753,1.5721 1.27732,1.60089 2.26612,0.10669 0.67643,-1.02342 4.54417,-4.91331 4.8838,-4.91331 0.3686,0 0.25104,2.2286 -0.24251,4.59719 -0.72527,3.48064 -0.75253,4.00222 -0.21412,4.17157 0.3243,0.10217 0.88828,-0.13886 2.00202,-0.8552 0.85363,-0.54868 1.50053,-0.871 1.43521,-0.71746 -0.49014,1.16905 -1.03537,3.2808 -0.97744,3.78489 l 0.0704,0.61247 2.83464,0.0119 c 3.01638,0.013 4.06425,0.27264 4.21475,1.04486 0.092,0.47756 -1.34888,2.01466 -3.51901,3.75216 -1.85493,1.48517 -1.87253,1.86563 -0.1329,2.72986 1.02685,0.5103 1.48803,0.60457 2.94425,0.60401 1.69476,-10e-4 3.49062,-0.35337 4.99739,-0.97883 0.41915,-0.17386 0.76219,-0.25684 0.76219,-0.18402 0,0.48941 -2.13322,3.53708 -4.09265,5.84754 -0.64916,0.76488 -0.93257,1.28534 -0.88486,1.62516 0.0625,0.44199 0.23172,0.51707 1.48916,0.65593 5.20015,0.57691 7.19138,0.84166 7.95641,1.05616 l 0.87066,0.24499 -0.76162,0.64577 c -0.41914,0.3545 -1.7737,1.32486 -3.0107,2.15579 -1.76632,1.18711 -2.23374,1.60484 -2.18036,1.95143 0.0454,0.29975 0.75026,0.83319 2.19797,1.66581 3.84559,2.20828 6.01345,4.05133 5.44096,4.62033 -0.36292,0.36128 -1.93728,0.59328 -4.09776,0.60401 -2.16218,0.0102 -3.83593,-0.37369 -4.7509,-1.0889 -0.73322,-0.57352 -1.53233,-0.48207 -1.62774,0.18515 -0.0545,0.38272 0.47878,1.06406 2.31666,2.96469 2.22693,2.30199 3.7036,4.43237 3.40429,4.91218 -0.19423,0.31273 -2.16559,0.2083 -3.06181,-0.16144 -0.95643,-0.39458 -3.25095,-1.96894 -3.87569,-2.66043 -0.51172,-0.56562 -1.34831,-0.59554 -1.63797,-0.0582 -0.24251,0.44821 -0.33225,0.26362 2.10937,4.30253 1.48632,2.45835 2.66879,4.79364 2.66879,5.27007 0.001,0.24894 -0.16243,0.24781 -0.79229,-0.003 z"
       inkscape:connector-curvature="0"
       id="path1343" /><path
       transform="translate(416.572,-360.945)"
       inkscape:connector-curvature="0"
       id="path1432"
       d="m 31.192856,72.69821 v -2.75608 h 1.134856 1.134857 v 2.75608 2.75608 h -1.134857 -1.134856 z"
       style="opacity:1;fill:#f7ffe6;fill-opacity:1;stroke:#ffffff;stroke-width:2;stroke-linecap:round;stroke-linejoin:round;stroke-miterlimit:4;stroke-dasharray:none;stroke-opacity:1" /><g
       id="g1361"
       transform="matrix(0.56794973,0,0,0.56448841,145.70699,-270.97902)"
       style="stroke-width:1.76610911"><rect
         id="rect1345"
         x="529.56403"
         y="-67.731003"
         stroke-miterlimit="10"
         width="8.3940001"
         height="12.175"
         style="fill:none;stroke:#424143;stroke-width:2.28552198;stroke-linejoin:round;stroke-miterlimit:10" /><rect
         id="rect1347"
         x="529.56403"
         y="-36.657001"
         stroke-miterlimit="10"
         width="8.3940001"
         height="12.172"
         style="fill:none;stroke:#424143;stroke-width:2.28552198;stroke-linejoin:round;stroke-miterlimit:10" /><rect
         id="rect1349"
         x="552.31299"
         y="-36.657001"
         stroke-miterlimit="10"
         width="6.4320002"
         height="12.172"
         style="fill:none;stroke:#424143;stroke-width:2.28552198;stroke-linejoin:round;stroke-miterlimit:10" /><rect
         id="rect1351"
         x="573.36902"
         y="-36.657001"
         stroke-miterlimit="10"
         width="6.4590001"
         height="12.172"
         style="fill:none;stroke:#424143;stroke-width:2.28552198;stroke-linejoin:round;stroke-miterlimit:10" /><rect
         id="rect1353"
         x="594.45203"
         y="-36.657001"
         stroke-miterlimit="10"
         width="6.461"
         height="12.172"
         style="fill:none;stroke:#424143;stroke-width:2.28552198;stroke-linejoin:round;stroke-miterlimit:10" /><rect
         id="rect1355"
         x="552.16602"
         y="-67.731003"
         stroke-miterlimit="10"
         width="6.428"
         height="12.175"
         style="fill:none;stroke:#424143;stroke-width:2.28552198;stroke-linejoin:round;stroke-miterlimit:10" /><rect
         id="rect1357"
         x="573.36902"
         y="-67.731003"
         stroke-miterlimit="10"
         width="6.4590001"
         height="12.175"
         style="fill:none;stroke:#424143;stroke-width:2.28552198;stroke-linejoin:round;stroke-miterlimit:10" /><rect
         id="rect1359"
         x="594.45203"
         y="-67.731003"
         stroke-miterlimit="10"
         width="6.461"
         height="12.175"
         style="fill:none;stroke:#424143;stroke-width:2.28552198;stroke-linejoin:round;stroke-miterlimit:10" /></g><line
       id="line1373"
       x1="420.60318"
       y1="-304.30304"
       x2="420.60318"
       y2="-304.30304"
       style="fill:none;stroke:#424143;stroke-width:3.32569981;stroke-linecap:square" /><path
       id="path1375"
       d="M 434.62585,-288.96474"
       inkscape:connector-curvature="0"
       style="fill:none;stroke:#424143;stroke-width:3.32569981;stroke-linecap:square" /><path
       id="path1377"
       d="M 439.19557,-286.85751"
       inkscape:connector-curvature="0"
       style="fill:none;stroke:#424143;stroke-width:3.32569981;stroke-linecap:square" /><path
       id="path1379"
       d="m 496.16946,-283.98031 c 0,0 3.22198,-0.18854 7.11584,1.31413 3.89273,1.50154 -4.03528,-10.34256 -4.03528,-10.34256 0,0 4.66514,4.67453 7.98139,3.41967 3.31853,-1.25542 -5.09962,-8.61127 -5.09962,-8.61127 0,0 2.40299,2.5227 8.95771,1.30848 6.55527,-1.21252 -6.02993,-7.55624 -6.02993,-7.55624 0,0 5.21094,-3.02227 6.02993,-4.64291 0.81898,-1.62178 -10.41961,-2.15353 -10.41961,-2.15353 0,0 9.09117,-10.32506 3.1879,-7.93614 -5.90213,2.38891 -8.19154,-0.0181 -8.19154,-0.0181 0,0 4.94969,-3.44677 5.0468,-5.00476 0.31749,-3.1696 -7.23056,-1.95595 -7.23056,-1.95595 0,0 0.11983,-3.44564 2.88802,-6.04398 2.76876,-2.5989 -5.82035,3.07816 -5.82035,3.07816 0,0 3.16178,-11.19324 -0.36689,-8.64909 -3.34239,2.4098 -5.58125,5.80407 -5.58125,5.80407 0,0 -0.39699,-0.27039 -3.26003,-9.6838 -0.80251,-2.64463 -2.86814,10.30191 -2.86814,10.30191 0,0 -9.01904,-14.91491 -7.99787,-7.36149 1.01833,7.55229 1.46417,10.86414 1.46417,10.86414 0,0 -3.5406,-5.84979 -3.89272,-4.28955 -0.53899,2.40303 -3.20608,3.98078 -3.20608,3.98078 0,0 2.92778,-5.95479 1.55561,-7.05893 -1.3733,-1.10527 -10.20946,7.77018 -10.20946,7.77018 0,0 1.87878,-8.28387 -0.62702,-6.99119 -4.86222,2.5069 -4.9866,4.52607 -4.9866,4.52607 0,0 -2.12242,-8.01574 -5.93734,-9.80911 l -1.62434,9.38349 c 0,0 -3.17313,-0.80609 -7.0085,-3.48798 -3.43553,-2.40528 0.48503,12.38657 0.48503,12.38657 0,0 -15.78957,-1.75669 -12.13084,3.24637 3.65646,5.00419 8.37215,6.35501 8.37215,6.35501 l -11.69125,5.96552 c 2.54158,7.48568 11.09661,3.57942 11.09661,3.57942 0,0 -13.93806,10.49215 -6.98692,9.09391 3.79504,-0.76376 9.87437,-2.5656 9.87437,-2.5656 0,0 -7.7332,9.25479 -6.45304,11.33605 1.27902,2.0824 9.45806,0.01 9.45806,0.01"
       inkscape:connector-curvature="0"
       style="fill:none;stroke:#424143;stroke-width:2.5;stroke-linecap:square;stroke-linejoin:round;stroke-miterlimit:4;stroke-dasharray:none" /><path
       style="fill:#b8e69a;stroke-width:1"
       d="m 447.31158,-296.93081 v -4.87548 h 1.52665 1.52665 v 4.87548 4.87549 h -1.52665 -1.52665 z"
       inkscape:connector-curvature="0"
       id="path1381" /><path
       style="fill:#b8e69a;stroke-width:1"
       d="m 460.39259,-296.93081 v -4.87548 h 0.98142 0.98199 v 4.87548 4.87549 h -0.98199 -0.98142 z"
       inkscape:connector-curvature="0"
       id="path1383" /><path
       style="fill:#b8e69a;stroke-width:1"
       d="m 472.16506,-296.93081 v -4.87548 h 1.09046 1.09046 v 4.87548 4.87549 h -1.09046 -1.09046 z"
       inkscape:connector-curvature="0"
       id="path1385" /><path
       style="fill:#b8e69a;stroke-width:1"
       d="m 484.15675,-296.93081 v -4.87548 h 1.08989 1.0899 v 4.87548 4.87549 h -1.0899 -1.08989 z"
       inkscape:connector-curvature="0"
       id="path1387" /><path
       id="path1363"
       stroke-miterlimit="10"
       d="m 442.36814,-319.88234 c -0.92632,-0.17386 -4.10513,6.19978 -4.10513,6.19978 0,0 -0.009,32.17245 0,32.75444 0.009,0.58198 0.29305,1.011 1.00299,1.011 0.70994,0 5.6971,0.0231 6.28323,0 0.58613,-0.0231 0.92405,-0.6232 0.92405,-1.15269 0,-0.52949 0,-32.61275 0,-32.61275 0,0 -3.17881,-6.02592 -4.10514,-6.19978 z"
       inkscape:connector-curvature="0"
       style="fill:#fbfff3;stroke:#424143;stroke-width:2.5;stroke-linejoin:round;stroke-miterlimit:10;stroke-dasharray:none;fill-opacity:1" /><path
       id="path1365"
       stroke-miterlimit="10"
       d="m 455.34636,-319.88234 c -1.02969,0.0395 -4.10571,6.19978 -4.10571,6.19978 0,0 0.071,32.43719 0.0772,32.8775 0.006,0.4403 0.37258,0.80496 0.76333,0.88737 0.39075,0.0824 6.03446,0.006 6.58481,0 0.55035,-0.006 0.78661,-0.55207 0.78661,-0.88737 0,-0.33531 0,-32.87807 0,-32.87807 0,0 -3.07715,-6.23872 -4.10628,-6.19921 z"
       inkscape:connector-curvature="0"
       style="fill:#fbfff3;stroke:#424143;stroke-width:2.5;stroke-linejoin:round;stroke-miterlimit:10;stroke-dasharray:none;fill-opacity:1" /><path
       id="path1367"
       stroke-miterlimit="10"
       d="m 467.24093,-319.88234 c -1.03253,0.005 -4.10457,6.19978 -4.10457,6.19978 0,0 -0.0312,31.83658 0,32.51848 0.0312,0.6819 0.78888,1.24639 1.40397,1.24639 0.61509,0 4.73273,0.0469 5.44266,0 0.70994,-0.0469 1.36876,-0.56449 1.36876,-1.31695 0,-0.75246 -0.005,-32.44849 -0.005,-32.44849 0,0 -3.07374,-6.20373 -4.10628,-6.19921 z"
       inkscape:connector-curvature="0"
       style="fill:#fbfff3;stroke:#424143;stroke-width:2.5;stroke-linejoin:round;stroke-miterlimit:10;stroke-dasharray:none;fill-opacity:1" /><path
       id="path1369"
       stroke-miterlimit="10"
       d="m 479.24966,-319.88234 c -0.80137,-0.0643 -4.10514,6.19978 -4.10514,6.19978 0,0 0.003,31.93028 0,32.51848 -0.003,0.5882 0.18572,1.24639 1.34548,1.24639 1.15975,0 4.781,0.0231 5.58521,0 0.80422,-0.0231 1.28016,-0.75246 1.28016,-1.43493 0,-0.68247 0,-32.33051 0,-32.33051 0,0 -3.30376,-6.13486 -4.10571,-6.19921 z"
       inkscape:connector-curvature="0"
       style="fill:#fbfff3;stroke:#424143;stroke-width:2.5;stroke-linejoin:round;stroke-miterlimit:10;stroke-dasharray:none;fill-opacity:1" /><path
       id="path1371"
       stroke-miterlimit="10"
       d="m 491.25783,-319.88234 c -0.98256,0.11008 -4.10514,6.19978 -4.10514,6.19978 0,0 0.0125,31.57861 0,32.40163 -0.0125,0.82303 0.43732,1.36381 1.40738,1.36381 0.97005,0 4.73328,0.0271 5.46708,0.004 0.73379,-0.0231 1.33695,-0.92181 1.33695,-1.60371 0,-0.68191 0,-32.16568 0,-32.16568 0,0 -3.12372,-6.30985 -4.10627,-6.19978 z"
       inkscape:connector-curvature="0"
       style="fill:#fbfff3;stroke:#424143;stroke-width:2.5;stroke-linejoin:round;stroke-miterlimit:10;stroke-dasharray:none;fill-opacity:1" /></g></svg>