<?xml version="1.0" encoding="UTF-8" standalone="no"?>
<!-- Generator: Adobe Illustrator 14.0.0, SVG Export Plug-In . SVG Version: 6.00 Build 43363)  -->

<svg
   xmlns:dc="http://purl.org/dc/elements/1.1/"
   xmlns:cc="http://creativecommons.org/ns#"
   xmlns:rdf="http://www.w3.org/1999/02/22-rdf-syntax-ns#"
   xmlns:svg="http://www.w3.org/2000/svg"
   xmlns="http://www.w3.org/2000/svg"
   xmlns:sodipodi="http://sodipodi.sourceforge.net/DTD/sodipodi-0.dtd"
   xmlns:inkscape="http://www.inkscape.org/namespaces/inkscape"
   version="1.1"
   id="Layer_1"
   inkscape:version="0.92.2 (5c3e80d, 2017-08-06)"
   sodipodi:docname="home.svg"
   x="0px"
   y="0px"
   width="100"
   height="100"
   viewBox="416.572 -360.945 100 100"
   enable-background="new 416.572 -360.945 595.275 841.89"
   xml:space="preserve"
   inkscape:export-filename="C:\Users\holly.jones\Downloads\volcano_pixelhint_12th_jan-20180116T210822Z-001\volcano_pixelhint_12th_jan\volcano_pixelhint\img\hedges_icon_100_white.png"
   inkscape:export-xdpi="149.93106"
   inkscape:export-ydpi="149.93106"><metadata
     id="metadata326"><rdf:RDF><cc:Work
         rdf:about=""><dc:format>image/svg+xml</dc:format><dc:type
           rdf:resource="http://purl.org/dc/dcmitype/StillImage" /><dc:title /></cc:Work></rdf:RDF></metadata><defs
     id="defs324" /><sodipodi:namedview
     id="namedview230"
     inkscape:pageshadow="2"
     inkscape:window-width="1920"
     inkscape:window-height="1001"
     inkscape:window-x="-9"
     inkscape:window-y="-9"
     inkscape:current-layer="Layer_1"
     inkscape:pageopacity="0"
     gridtolerance="10"
     inkscape:zoom="4.04"
     inkscape:cy="29.782126"
     guidetolerance="10"
     bordercolor="#666666"
     showgrid="false"
     borderopacity="1"
     objecttolerance="10"
     inkscape:cx="21.641593"
     pagecolor="#ffffff"
     inkscape:window-maximized="1"
     inkscape:snap-nodes="false" /><g
     id="g1243"><g
       id="g1230"
       style="stroke-width:1.22597218;fill:#ffffff;fill-opacity:1"
       transform="matrix(0.8156752,0,0,0.81568323,-272.14048,-252.58081)"><path
         style="fill:#ffffff;stroke:#424143;stroke-width:3.15552974;stroke-linejoin:round;stroke-miterlimit:10;fill-opacity:1"
         inkscape:connector-curvature="0"
         d="m 962.256,-79.187 c -4.938,-4.232 -21.044,-18.042 -21.757,-18.682 -0.843,-0.756 -1.199,-1.666 -1.198,-2.662 0.004,-3.333 0.012,-10.706 -0.002,-11.813 -0.018,-1.438 -0.848,-1.982 -2.08,-1.98 -3.107,0.004 -8.659,0.009 -9.219,-0.003 -0.781,-0.017 -1.252,0.579 -1.252,1.141 0,0.562 0,3.511 0,3.511 0,0 -17.313,-15.01 -18.343,-15.761 -1.343,-1.001 -2.542,-1.123 -3.664,-0.186 -9.58,7.996 -55.295,46.142 -55.919,46.635 -0.697,0.55 -0.76,1.687 -0.316,2.318 0.444,0.631 1.587,2.19 2.261,3.199 0.674,1.009 2.015,1.127 3.082,0.287 0.739,-0.582 43.011,-33.969 51.11,-40.366 0.859,-0.678 2.16,-0.4 2.766,0.08 0.542,0.429 41.925,33.176 50.587,40.031 1.014,0.802 2.185,0.328 2.577,-0.271 0.392,-0.599 1.615,-2.362 1.988,-3.029 0.373,-0.667 0.276,-1.68 -0.621,-2.449 z"
         stroke-miterlimit="10"
         id="path1228" /></g><path
       id="path1232"
       stroke-miterlimit="10"
       d="m 455.03396,-284.88267 v -16.67257 c 0,-1.78798 1.10524,-3.23174 2.47068,-3.23174 h 18.3013 c 1.36871,0 2.47721,1.44376 2.47721,3.23174 0,0 0,31.00003 0,32.40301 0,1.40216 0.79528,2.75212 2.17133,2.80106 1.09545,0.0383 14.44968,0.0326 19.95875,0.0212 1.41194,-0.002 2.57427,-0.9364 2.55388,-2.61834 -0.0147,-1.16724 -0.009,-28.62068 -0.007,-36.97817 0,-1.50657 -0.55956,-2.82064 -1.61096,-3.66487 -0.87359,-0.70149 -24.51023,-19.36432 -32.47937,-25.6565 -2.0188,-1.50494 -3.75211,-1.19905 -5.16975,-0.0122 -0.28794,0.24062 -1.84098,1.47801 -4.13303,3.29617 l -2.53186,1.95275 c -10.12416,7.99369 -24.33893,19.21994 -25.01268,19.76074 -1.0514,0.84423 -1.61095,2.1583 -1.61095,3.66486 0.002,8.35831 0.008,35.81175 -0.007,36.97818 -0.0204,1.68194 1.14113,2.61589 2.55388,2.61834 5.50907,0.0114 18.8633,0.0171 19.95876,-0.0212 1.37686,-0.0489 2.17132,-1.39889 2.17132,-2.80105 0,-0.5098 0,-4.93815 0,-10.3657 z"
       inkscape:connector-curvature="0"
       style="fill:#ffffff;stroke:#424143;stroke-width:2.57389998;stroke-linejoin:round;stroke-miterlimit:10;fill-opacity:1" /><g
       style="stroke-width:1.22597218"
       id="g4823_1_"
       transform="matrix(0.8156752,0,0,0.81568323,-273.52988,-251.1914)"><path
         id="path3968_1_"
         inkscape:connector-curvature="0"
         d="m 862.387,-43.389 v -24.603 l 21.711,-17.149 21.709,-17.149 21.428,16.957 21.428,16.955 v 24.797 24.797 H 934.932 921.2 l -0.106,-21.666 c -0.099,-19.868 -0.162,-21.766 -0.781,-22.896 -1.277,-2.335 -1.639,-2.393 -14.979,-2.393 -13.341,0 -13.701,0.058 -14.978,2.393 -0.619,1.131 -0.684,3.029 -0.781,22.896 l -0.106,21.666 H 875.928 865.61 l -3.221,-3.325 v -21.28 z"
         style="fill:#b8e69a;stroke-width:1.22597218" /><path
         id="path3970_1_"
         inkscape:connector-curvature="0"
         d="m 852.649,-76.932 c -0.664,-0.924 -1.207,-1.835 -1.207,-2.023 0,-0.188 11.74,-10.147 27.271,-23.114 25.447,-21.246 28.309,-23.527 28.937,-23.072 0.379,0.279 4.832,4.069 9.895,8.427 5.063,4.356 9.443,7.921 9.738,7.921 0.979,0 1.451,-0.896 1.451,-2.749 v -1.832 h 4.77 4.773 v 7.244 7.244 l 12.022,10.325 12.023,10.324 -1.017,1.535 c -0.557,0.846 -1.219,1.458 -1.467,1.362 -0.248,-0.095 -11.688,-9.068 -25.42,-19.938 -13.732,-10.871 -25.553,-20.164 -26.268,-20.652 -1.197,-0.818 -1.371,-0.842 -2.185,-0.311 -0.485,0.318 -12.44,9.706 -26.565,20.86 -14.127,11.155 -24.902,19.623 -25.132,19.803 -0.262,0.209 -0.846,-0.279 -1.619,-1.354 z"
         style="fill:#b8e69a;stroke-width:1.22597218" /></g><g
       transform="matrix(0.8156752,0,0,0.81568323,-272.14048,-252.58081)"
       style="stroke-width:1.22597218"
       id="g14_1_"><path
         id="polygon10_1_"
         stroke-miterlimit="10"
         d="m 962.256,-79.187 c -4.938,-4.232 -21.044,-18.042 -21.757,-18.682 -0.843,-0.756 -1.199,-1.666 -1.198,-2.662 0.004,-3.333 0.012,-10.706 -0.002,-11.813 -0.018,-1.438 -0.848,-1.982 -2.08,-1.98 -3.107,0.004 -8.659,0.009 -9.219,-0.003 -0.781,-0.017 -1.252,0.579 -1.252,1.141 0,0.562 0,3.511 0,3.511 0,0 -17.313,-15.01 -18.343,-15.761 -1.343,-1.001 -2.542,-1.123 -3.664,-0.186 -9.58,7.996 -55.295,46.142 -55.919,46.635 -0.697,0.55 -0.76,1.687 -0.316,2.318 0.444,0.631 1.587,2.19 2.261,3.199 0.674,1.009 2.015,1.127 3.082,0.287 0.739,-0.582 43.011,-33.969 51.11,-40.366 0.859,-0.678 2.16,-0.4 2.766,0.08 0.542,0.429 41.925,33.176 50.587,40.031 1.014,0.802 2.185,0.328 2.577,-0.271 0.392,-0.599 1.615,-2.362 1.988,-3.029 0.373,-0.667 0.276,-1.68 -0.621,-2.449 z"
         inkscape:connector-curvature="0"
         style="fill:none;stroke:#424143;stroke-width:3.15552974;stroke-linejoin:round;stroke-miterlimit:10" /></g><path
       style="fill:none;stroke:#424143;stroke-width:2.57389998;stroke-linejoin:round;stroke-miterlimit:10"
       inkscape:connector-curvature="0"
       d="m 455.03396,-284.88267 v -16.67257 c 0,-1.78798 1.10524,-3.23174 2.47068,-3.23174 h 18.3013 c 1.36871,0 2.47721,1.44376 2.47721,3.23174 0,0 0,31.00003 0,32.40301 0,1.40216 0.79528,2.75212 2.17133,2.80106 1.09545,0.0383 14.44968,0.0326 19.95875,0.0212 1.41194,-0.002 2.57427,-0.9364 2.55388,-2.61834 -0.0147,-1.16724 -0.009,-28.62068 -0.007,-36.97817 0,-1.50657 -0.55956,-2.82064 -1.61096,-3.66487 -0.87359,-0.70149 -24.51023,-19.36432 -32.47937,-25.6565 -2.0188,-1.50494 -3.75211,-1.19905 -5.16975,-0.0122 -0.28794,0.24062 -1.84098,1.47801 -4.13303,3.29617 l -2.53186,1.95275 c -10.12416,7.99369 -24.33893,19.21994 -25.01268,19.76074 -1.0514,0.84423 -1.61095,2.1583 -1.61095,3.66486 0.002,8.35831 0.008,35.81175 -0.007,36.97818 -0.0204,1.68194 1.14113,2.61589 2.55388,2.61834 5.50907,0.0114 18.8633,0.0171 19.95876,-0.0212 1.37686,-0.0489 2.17132,-1.39889 2.17132,-2.80105 0,-0.5098 0,-4.93815 0,-10.3657 z"
       stroke-miterlimit="10"
       id="path12_2_" /></g><text
     xml:space="preserve"
     style="font-style:normal;font-weight:normal;font-size:40px;line-height:125%;font-family:Sans;letter-spacing:0px;word-spacing:0px;fill:#000000;fill-opacity:1;stroke:none;stroke-width:1px;stroke-linecap:butt;stroke-linejoin:miter;stroke-opacity:1"
     x="566.7934"
     y="-274.51813"
     id="text5063"><tspan
       sodipodi:role="line"
       id="tspan5061"
       x="566.7934"
       y="-239.1275" /></text>
</svg>