<?xml version="1.0" encoding="UTF-8" standalone="no"?>
<!-- Generator: Adobe Illustrator 14.0.0, SVG Export Plug-In . SVG Version: 6.00 Build 43363)  -->

<svg
   xmlns:dc="http://purl.org/dc/elements/1.1/"
   xmlns:cc="http://creativecommons.org/ns#"
   xmlns:rdf="http://www.w3.org/1999/02/22-rdf-syntax-ns#"
   xmlns:svg="http://www.w3.org/2000/svg"
   xmlns="http://www.w3.org/2000/svg"
   xmlns:sodipodi="http://sodipodi.sourceforge.net/DTD/sodipodi-0.dtd"
   xmlns:inkscape="http://www.inkscape.org/namespaces/inkscape"
   version="1.1"
   id="Layer_1"
   inkscape:version="0.92.2 (5c3e80d, 2017-08-06)"
   sodipodi:docname="insurance.svg"
   x="0px"
   y="0px"
   width="100"
   height="100"
   viewBox="416.572 -360.945 100 100"
   enable-background="new 416.572 -360.945 595.275 841.89"
   xml:space="preserve"
   inkscape:export-filename="C:\Users\holly.jones\Downloads\volcano_pixelhint_12th_jan-20180116T210822Z-001\volcano_pixelhint_12th_jan\volcano_pixelhint\img\hedges_icon_100_white.png"
   inkscape:export-xdpi="149.93106"
   inkscape:export-ydpi="149.93106"><metadata
     id="metadata326"><rdf:RDF><cc:Work
         rdf:about=""><dc:format>image/svg+xml</dc:format><dc:type
           rdf:resource="http://purl.org/dc/dcmitype/StillImage" /><dc:title /></cc:Work></rdf:RDF></metadata><defs
     id="defs324"><clipPath
       clipPathUnits="userSpaceOnUse"
       id="clipPath1282"><rect
         ry="9.0558882"
         y="-355.80136"
         x="430.07397"
         height="89.648712"
         width="90.322769"
         id="rect1284"
         style="opacity:1;fill:#b8e69a;fill-opacity:1;stroke:none;stroke-width:1.99999988;stroke-linecap:round;stroke-linejoin:round;stroke-miterlimit:8.36363602;stroke-dasharray:none;stroke-opacity:1" /></clipPath></defs><sodipodi:namedview
     id="namedview230"
     inkscape:pageshadow="2"
     inkscape:window-width="1680"
     inkscape:window-height="987"
     inkscape:window-x="1912"
     inkscape:window-y="23"
     inkscape:current-layer="Layer_1"
     inkscape:pageopacity="0"
     gridtolerance="10"
     inkscape:zoom="0.71417785"
     inkscape:cy="113.13671"
     guidetolerance="10"
     bordercolor="#666666"
     showgrid="false"
     borderopacity="1"
     objecttolerance="10"
     inkscape:cx="121.36959"
     pagecolor="#ffffff"
     inkscape:window-maximized="1"
     inkscape:snap-nodes="false" /><text
     xml:space="preserve"
     style="font-style:normal;font-weight:normal;font-size:40px;line-height:125%;font-family:Sans;letter-spacing:0px;word-spacing:0px;fill:#000000;fill-opacity:1;stroke:none;stroke-width:1px;stroke-linecap:butt;stroke-linejoin:miter;stroke-opacity:1"
     x="566.7934"
     y="-274.51813"
     id="text5063"><tspan
       sodipodi:role="line"
       id="tspan5061"
       x="566.7934"
       y="-239.1275" /></text>
<g
     id="g1517"
     transform="translate(280.8782,-581.08775)"><path
       inkscape:connector-curvature="0"
       id="path1505"
       d="m 154.58838,313.84986 -0.4132,-0.33458 -0.0452,-41.59307 c -0.0285,-26.23952 0.0166,-41.70861 0.12231,-41.90606 0.15901,-0.29711 1.23082,-0.31792 21.13587,-0.41045 11.53261,-0.0536 21.32281,-0.0466 21.756,0.0155 l 0.78762,0.11298 0.0875,5.87607 0.0875,5.87607 0.52902,1.03747 c 0.57394,1.12558 1.65094,2.01063 2.85296,2.34448 0.37624,0.1045 2.97956,0.17917 6.26636,0.17974 l 5.62272,9.8e-4 0.10939,0.54696 c 0.17918,0.89589 0.11953,66.49588 -0.0612,67.27578 -0.0892,0.38506 -0.33235,0.83794 -0.5403,1.0064 -0.35664,0.28894 -2.00799,0.3063 -29.13114,0.3063 -28.0491,0 -28.76319,-0.008 -29.16627,-0.33458 z m 50.33454,-12.13124 c 0.36671,-0.52355 0.34293,-0.94075 -0.0776,-1.36127 -0.34607,-0.34607 -0.58342,-0.35005 -20.85812,-0.35005 -18.83735,0 -20.53414,0.0236 -20.82814,0.28967 -0.39269,0.35537 -0.41641,1.16424 -0.045,1.53561 0.24693,0.24692 2.38393,0.27504 20.90573,0.27504 h 20.63069 z m -0.0776,-7.66222 c 0.42052,-0.42052 0.4443,-0.83771 0.0776,-1.36127 l -0.27247,-0.38899 h -20.6957 c -15.86329,0 -20.74474,0.049 -20.90573,0.21003 -0.11552,0.11552 -0.21003,0.46548 -0.21003,0.77769 0,1.18787 -1.4356,1.11259 21.21714,1.11259 20.20578,0 20.44315,-0.004 20.7892,-0.35005 z m 0.0776,-7.91513 c 0.36671,-0.52356 0.34293,-0.94075 -0.0776,-1.36127 -0.34605,-0.34606 -0.58342,-0.35005 -20.7892,-0.35005 -22.65274,0 -21.21714,-0.0753 -21.21714,1.11259 0,0.31221 0.0945,0.66218 0.21003,0.77769 0.16099,0.16099 5.04244,0.21003 20.90573,0.21003 h 20.6957 z m -0.0776,-7.66222 c 0.42052,-0.42052 0.4443,-0.83771 0.0776,-1.36127 l -0.27247,-0.389 h -20.63069 c -18.5218,0 -20.6588,0.0281 -20.90573,0.27505 -0.35847,0.35846 -0.35126,1.1009 0.0146,1.50519 0.27749,0.30663 1.15309,0.32008 20.82815,0.32008 20.30511,0 20.54246,-0.004 20.88853,-0.35005 z m -0.11112,-7.71387 c 0.59476,-0.46783 0.59476,-1.08199 0,-1.54983 -0.46055,-0.36227 -0.48805,-0.36275 -20.69687,-0.36018 -15.90664,0.002 -20.32932,0.0497 -20.67327,0.22281 -0.32531,0.16373 -0.45125,0.38332 -0.4909,0.85592 -0.10752,1.28164 -1.65349,1.19404 21.07184,1.19404 20.3003,0 20.32866,-5.3e-4 20.7892,-0.36276 z m 0.18871,-7.90243 c 0.36671,-0.52355 0.34293,-0.94075 -0.0776,-1.36127 -0.34607,-0.34606 -0.58342,-0.35005 -20.85812,-0.35005 -18.83735,0 -20.53414,0.0236 -20.82814,0.28967 -0.39269,0.35537 -0.41641,1.16424 -0.045,1.53561 0.24693,0.24692 2.38393,0.27504 20.90573,0.27504 h 20.63069 z m -0.0776,-7.66222 c 0.42052,-0.42052 0.4443,-0.83771 0.0776,-1.36126 l -0.27247,-0.389 h -20.6957 c -15.86329,0 -20.74474,0.049 -20.90573,0.21003 -0.11552,0.11552 -0.21003,0.46548 -0.21003,0.7777 0,1.18787 -1.4356,1.11259 21.21714,1.11259 20.20578,0 20.44315,-0.004 20.7892,-0.35006 z"
       style="opacity:1;fill:#b8e69a;fill-opacity:1;stroke:none;stroke-width:0.19845517;stroke-linecap:round;stroke-linejoin:round;stroke-miterlimit:4;stroke-dasharray:none;stroke-opacity:1" /><path
       style="fill:none;fill-opacity:1;stroke:#424143;stroke-width:2.57640028;stroke-linecap:round;stroke-linejoin:round;stroke-miterlimit:10"
       inkscape:connector-curvature="0"
       d="m 216.8057,245.06103 c 0.006,13.00421 0.0303,62.11643 0.0319,64.10633 0.003,3.22631 -0.69839,4.65508 -3.48559,4.65668 -2.35477,0.002 -42.64323,0.0216 -55.07967,0.0279 -2.98628,0.0702 -3.62972,-1.2396 -3.63371,-3.42187 -0.0327,-15.65502 -0.16006,-79.75018 -0.0342,-81.58364 0.14095,-2.06174 1.40076,-2.39379 2.56263,-2.39459 1.00179,-8e-4 32.43414,-0.0168 41.26635,-0.0208 2.25205,0.006 3.99524,1.10071 5.16746,2.27566 3.46487,3.46816 10.13024,10.14188 11.32077,11.33438 1.59348,1.5956 1.88335,3.02916 1.88414,5.01986 z"
       stroke-miterlimit="10"
       id="path1437" /><path
       style="fill:none;stroke:#424143;stroke-width:2.57640028;stroke-linecap:round;stroke-linejoin:round;stroke-miterlimit:10"
       inkscape:connector-curvature="0"
       d="m 201.34874,238.64193 c -0.002,2.16152 1.66355,3.29895 3.38842,3.29895 1.72488,0 11.54216,0 11.54216,0 l -14.93058,-14.84485 c 0,7.9e-4 0.002,9.88326 0,11.5459 z"
       stroke-miterlimit="10"
       id="path1439" /><line
       style="fill:none;stroke:#424143;stroke-width:1.98694849;stroke-linecap:round;stroke-linejoin:round;stroke-miterlimit:10;stroke-dasharray:none"
       y2="252.70276"
       x2="205.97685"
       y1="252.70276"
       x1="165.7056"
       stroke-miterlimit="10"
       id="line1441" /><line
       style="fill:none;stroke:#424143;stroke-width:1.98694849;stroke-linecap:round;stroke-linejoin:round;stroke-miterlimit:10;stroke-dasharray:none"
       y2="260.47238"
       x2="205.97685"
       y1="260.47238"
       x1="165.7056"
       stroke-miterlimit="10"
       id="line1443" /><line
       style="fill:none;stroke:#424143;stroke-width:1.98694849;stroke-linecap:round;stroke-linejoin:round;stroke-miterlimit:10;stroke-dasharray:none"
       y2="268.24207"
       x2="205.97685"
       y1="268.24207"
       x1="165.7056"
       stroke-miterlimit="10"
       id="line1445" /><line
       style="fill:none;stroke:#424143;stroke-width:1.98694849;stroke-linecap:round;stroke-linejoin:round;stroke-miterlimit:10;stroke-dasharray:none"
       y2="276.01172"
       x2="205.97685"
       y1="276.01172"
       x1="165.7056"
       stroke-miterlimit="10"
       id="line1447" /><line
       style="fill:none;stroke:#424143;stroke-width:1.98694849;stroke-linecap:round;stroke-linejoin:round;stroke-miterlimit:10;stroke-dasharray:none"
       y2="283.78137"
       x2="205.97685"
       y1="283.78137"
       x1="165.7056"
       stroke-miterlimit="10"
       id="line1449" /><line
       id="line1452"
       stroke-miterlimit="10"
       x1="165.7056"
       y1="291.55106"
       x2="205.97685"
       y2="291.55106"
       style="fill:none;stroke:#424143;stroke-width:1.98694849;stroke-linecap:round;stroke-linejoin:round;stroke-miterlimit:10;stroke-dasharray:none" /><line
       id="line1454"
       stroke-miterlimit="10"
       x1="165.7056"
       y1="299.32071"
       x2="205.97685"
       y2="299.32071"
       style="fill:none;stroke:#424143;stroke-width:1.98694849;stroke-linecap:round;stroke-linejoin:round;stroke-miterlimit:10;stroke-dasharray:none" /></g></svg>