<?xml version="1.0" encoding="UTF-8" standalone="no"?>
<!-- Generator: Adobe Illustrator 14.0.0, SVG Export Plug-In . SVG Version: 6.00 Build 43363)  -->

<svg
   xmlns:dc="http://purl.org/dc/elements/1.1/"
   xmlns:cc="http://creativecommons.org/ns#"
   xmlns:rdf="http://www.w3.org/1999/02/22-rdf-syntax-ns#"
   xmlns:svg="http://www.w3.org/2000/svg"
   xmlns="http://www.w3.org/2000/svg"
   xmlns:sodipodi="http://sodipodi.sourceforge.net/DTD/sodipodi-0.dtd"
   xmlns:inkscape="http://www.inkscape.org/namespaces/inkscape"
   version="1.1"
   id="Layer_1"
   inkscape:version="0.92.2 (5c3e80d, 2017-08-06)"
   sodipodi:docname="leaves.svg"
   x="0px"
   y="0px"
   width="100"
   height="100"
   viewBox="416.572 -360.945 100 100"
   enable-background="new 416.572 -360.945 595.275 841.89"
   xml:space="preserve"
   inkscape:export-filename="C:\Users\holly.jones\Downloads\volcano_pixelhint_12th_jan-20180116T210822Z-001\volcano_pixelhint_12th_jan\volcano_pixelhint\img\hedges_icon_100_white.png"
   inkscape:export-xdpi="149.93106"
   inkscape:export-ydpi="149.93106"><metadata
     id="metadata326"><rdf:RDF><cc:Work
         rdf:about=""><dc:format>image/svg+xml</dc:format><dc:type
           rdf:resource="http://purl.org/dc/dcmitype/StillImage" /><dc:title /></cc:Work></rdf:RDF></metadata><defs
     id="defs324" /><sodipodi:namedview
     id="namedview230"
     inkscape:pageshadow="2"
     inkscape:window-width="1920"
     inkscape:window-height="1001"
     inkscape:window-x="-9"
     inkscape:window-y="-9"
     inkscape:current-layer="Layer_1"
     inkscape:pageopacity="0"
     gridtolerance="10"
     inkscape:zoom="3.8551136"
     inkscape:cy="13.547378"
     guidetolerance="10"
     bordercolor="#666666"
     showgrid="false"
     borderopacity="1"
     objecttolerance="10"
     inkscape:cx="60.493602"
     pagecolor="#ffffff"
     inkscape:window-maximized="1"
     inkscape:snap-nodes="false" /><text
     xml:space="preserve"
     style="font-style:normal;font-weight:normal;font-size:40px;line-height:125%;font-family:Sans;letter-spacing:0px;word-spacing:0px;fill:#000000;fill-opacity:1;stroke:none;stroke-width:1px;stroke-linecap:butt;stroke-linejoin:miter;stroke-opacity:1"
     x="566.7934"
     y="-274.51813"
     id="text5063"><tspan
       sodipodi:role="line"
       id="tspan5061"
       x="566.7934"
       y="-239.1275" /></text>
<path
     d="M 1049.2848,-347.50267"
     stroke-miterlimit="10"
     id="path1720"
     inkscape:connector-curvature="0"
     style="fill:none;stroke:#010101;stroke-width:2.76591682;stroke-linejoin:round;stroke-miterlimit:10" /><g
     id="g1217"><path
       id="path1158"
       stroke-miterlimit="10"
       d="m 502.49337,-355.52272 c 0,0 -2.8569,0.36755 -17.35505,4.64167 -45.78276,11.39985 -72.62138,62.74685 -40.24068,75.83645 20.03201,5.87095 48.32004,-16.41565 50.86882,-40.82287 2.55125,-24.40804 6.72691,-39.65525 6.72691,-39.65525 z"
       inkscape:connector-curvature="0"
       style="fill:#ffffff;stroke:#424143;stroke-width:2.58820009;stroke-linejoin:round;stroke-miterlimit:10;fill-opacity:1" /><path
       id="path3950_1_"
       inkscape:connector-curvature="0"
       d="m 446.71104,-274.06447 c -2.40663,-0.32068 -5.62013,-1.42909 -5.62013,-1.93971 0,-0.33302 4.40901,-8.12067 5.14932,-9.09341 0.20295,-0.26723 4.26276,-1.69386 9.01852,-3.16899 8.94209,-2.7735 9.85249,-3.21834 8.78598,-4.28564 -0.50121,-0.50158 -0.98188,-0.39386 -7.96022,1.78185 -4.08364,1.27368 -7.49105,2.24971 -7.56993,2.17159 -0.22924,-0.22941 6.78196,-10.497 9.99629,-14.63545 l 2.94071,-3.78734 5.67519,-0.0617 c 6.51492,-0.0683 9.15819,-0.41195 11.17454,-1.45047 1.51431,-0.78033 1.85119,-1.62397 0.8915,-2.22998 -0.41165,-0.25983 -0.83234,-0.17103 -1.81504,0.38153 -1.00489,0.56408 -2.07633,0.78115 -4.98418,1.00727 -4.69988,0.36344 -8.90841,0.37989 -8.90841,0.0345 0,-0.14636 3.47643,-4.51422 7.72522,-9.70599 4.24962,-5.19176 7.72605,-9.67063 7.72687,-9.95184 0.002,-0.67672 -0.75017,-1.28273 -1.29904,-1.04674 -0.23828,0.10278 -2.33104,2.51859 -4.64894,5.36773 -2.31789,2.84914 -4.32438,5.11365 -4.45585,5.03142 -0.4708,-0.29108 -1.00406,-3.19613 -0.99831,-5.44749 0.002,-1.26052 0.24075,-3.09992 0.52997,-4.08828 0.48971,-1.68893 0.48889,-1.82049 -0.023,-2.19462 -0.36974,-0.26971 -0.72388,-0.30095 -1.10677,-0.097 -0.97284,0.52049 -1.4001,2.4487 -1.4001,6.30264 0,3.02675 0.12407,3.97482 0.74853,5.70486 l 0.74853,2.07375 -5.22821,6.5304 c -2.8758,3.59165 -6.53053,8.33939 -8.12291,10.55045 -1.59319,2.21189 -3.03602,4.16394 -3.20528,4.33744 -0.48725,0.49336 -0.0518,-6.64799 0.53325,-8.80232 0.27772,-1.02125 0.85946,-2.74307 1.29001,-3.82599 0.86191,-2.15268 0.77318,-2.99632 -0.30977,-2.99632 -0.74113,0 -1.01228,0.43086 -2.08865,3.31536 -1.48638,3.98633 -2.1889,9.81946 -1.60552,13.3223 l 0.3262,1.96191 -2.52989,4.03567 c -1.38942,2.22011 -3.53066,5.77722 -4.75411,7.90359 -1.22427,2.12637 -2.34254,3.86545 -2.48222,3.86545 -0.67952,0 -4.12062,-3.32358 -5.43938,-5.2559 -2.23244,-3.26932 -3.12394,-6.11599 -3.29402,-10.5266 -0.34838,-8.95938 3.48793,-18.59547 11.30847,-28.40671 2.70325,-3.39183 8.19357,-8.90674 11.48759,-11.53798 7.155,-5.71637 16.30744,-10.7552 24.60125,-13.54842 4.58321,-1.54339 20.92022,-6.00663 21.14782,-5.77804 0.0871,0.0896 -0.2769,2.13459 -0.81426,4.54382 -1.43379,6.43749 -3.62433,19.79761 -4.5487,27.74067 -1.1914,10.24868 -1.93007,13.14058 -4.82477,18.93835 -5.62917,11.26171 -16.52025,21.05074 -28.03167,25.19001 -4.39997,1.5845 -9.86728,2.28754 -13.73647,1.77033 z"
       style="fill:#b8e69a;stroke-width:0.99999994" /><g
       transform="matrix(0.82165751,0,0,0.8222625,-231.10546,-125.32787)"
       id="g1162"
       style="stroke-width:1.21660423"><path
         id="path1160"
         d="m 864.528,-250.307 c -9.271,11.366 -18.768,22.58 -27.59,34.321 -8.523,11.328 -20.359,31.432 -26.379,44.329 -0.601,1.31 1.347,2.431 1.943,1.121 5.907,-12.672 17.558,-32.552 25.931,-43.732 8.821,-11.775 18.393,-23.027 27.664,-34.429 0.936,-1.124 -0.634,-2.732 -1.569,-1.61 z"
         inkscape:connector-curvature="0"
         style="fill:#424143;stroke-width:1.21660423" /></g><g
       transform="matrix(0.82165751,0,0,0.8222625,-231.10546,-125.32787)"
       id="g1166"
       style="stroke-width:1.21660423"><path
         id="path1164"
         d="m 847.22,-205.445 c -7.142,2.205 -14.282,4.449 -21.423,6.653 -1.383,0.413 -0.784,2.58 0.598,2.17 7.144,-2.206 14.283,-4.449 21.423,-6.655 1.381,-0.448 0.784,-2.578 -0.598,-2.168 z"
         inkscape:connector-curvature="0"
         style="fill:#424143;stroke-width:1.21660423" /></g><g
       transform="matrix(0.82165751,0,0,0.8222625,-231.10546,-125.32787)"
       id="g1170"
       style="stroke-width:1.21660423"><path
         id="path1168"
         d="m 832.752,-227.689 c -3.215,6.544 -4.301,13.722 -3.291,20.898 0.188,1.422 2.355,0.822 2.168,-0.598 -0.935,-6.543 0.15,-13.235 3.028,-19.178 0.673,-1.273 -1.27,-2.392 -1.905,-1.122 z"
         inkscape:connector-curvature="0"
         style="fill:#424143;stroke-width:1.21660423" /></g><g
       transform="matrix(0.82165751,0,0,0.8222625,-231.10546,-125.32787)"
       id="g1174"
       style="stroke-width:1.21660423"><path
         id="path1172"
         d="m 865.463,-227.127 c -2.469,1.944 -6.58,1.719 -9.571,1.868 -3.327,0.15 -6.655,0.112 -10.021,-0.075 -1.458,-0.076 -1.421,2.167 0,2.243 4.075,0.26 8.149,0.26 12.227,-0.038 3.14,-0.225 6.354,-0.374 8.934,-2.394 1.16,-0.932 -0.447,-2.502 -1.569,-1.604 z"
         inkscape:connector-curvature="0"
         style="fill:#424143;stroke-width:1.21660423" /></g><g
       transform="matrix(0.82165751,0,0,0.8222625,-231.10546,-125.32787)"
       id="g1178"
       style="stroke-width:1.21660423"><path
         id="path1176"
         d="m 851.294,-251.765 c -1.98,5.308 -1.606,11.14 0.935,16.187 0.637,1.309 2.581,0.15 1.945,-1.123 -2.281,-4.56 -2.506,-9.72 -0.711,-14.468 0.485,-1.344 -1.684,-1.941 -2.169,-0.596 z"
         inkscape:connector-curvature="0"
         style="fill:#424143;stroke-width:1.21660423" /></g><g
       transform="matrix(0.82165751,0,0,0.8222625,-231.10546,-125.32787)"
       id="g185_1_"
       style="stroke-width:1.21660423"><path
         id="XMLID_11_"
         stroke-miterlimit="10"
         d="m 892.828,-279.953 c 0,0 -3.477,0.447 -21.122,5.645 -55.72,13.864 -88.384,76.31 -48.975,92.229 24.38,7.14 58.808,-19.964 61.91,-49.647 3.105,-29.684 8.187,-48.227 8.187,-48.227 z"
         inkscape:connector-curvature="0"
         style="fill:none;stroke:#424143;stroke-width:3.14881539;stroke-linejoin:round;stroke-miterlimit:10" /><g
         id="XMLID_9_"
         style="stroke-width:1.21660423"><path
           id="XMLID_10_"
           d="m 864.528,-250.307 c -9.271,11.366 -18.768,22.58 -27.59,34.321 -8.523,11.328 -20.359,31.432 -26.379,44.329 -0.601,1.31 1.347,2.431 1.943,1.121 5.907,-12.672 17.558,-32.552 25.931,-43.732 8.821,-11.775 18.393,-23.027 27.664,-34.429 0.936,-1.124 -0.634,-2.732 -1.569,-1.61 z"
           inkscape:connector-curvature="0"
           style="fill:#424143;stroke-width:1.21660423" /></g><g
         id="XMLID_7_"
         style="stroke-width:1.21660423"><path
           id="XMLID_8_"
           d="m 847.22,-205.445 c -7.142,2.205 -14.282,4.449 -21.423,6.653 -1.383,0.413 -0.784,2.58 0.598,2.17 7.144,-2.206 14.283,-4.449 21.423,-6.655 1.381,-0.448 0.784,-2.578 -0.598,-2.168 z"
           inkscape:connector-curvature="0"
           style="fill:#424143;stroke-width:1.21660423" /></g><g
         id="XMLID_5_"
         style="stroke-width:1.21660423"><path
           id="XMLID_6_"
           d="m 832.752,-227.689 c -3.215,6.544 -4.301,13.722 -3.291,20.898 0.188,1.422 2.355,0.822 2.168,-0.598 -0.935,-6.543 0.15,-13.235 3.028,-19.178 0.673,-1.273 -1.27,-2.392 -1.905,-1.122 z"
           inkscape:connector-curvature="0"
           style="fill:#424143;stroke-width:1.21660423" /></g><g
         id="XMLID_3_"
         style="stroke-width:1.21660423"><path
           id="XMLID_4_"
           d="m 865.463,-227.127 c -2.469,1.944 -6.58,1.719 -9.571,1.868 -3.327,0.15 -6.655,0.112 -10.021,-0.075 -1.458,-0.076 -1.421,2.167 0,2.243 4.075,0.26 8.149,0.26 12.227,-0.038 3.14,-0.225 6.354,-0.374 8.934,-2.394 1.16,-0.932 -0.447,-2.502 -1.569,-1.604 z"
           inkscape:connector-curvature="0"
           style="fill:#424143;stroke-width:1.21660423" /></g><g
         id="XMLID_1_"
         style="stroke-width:1.21660423"><path
           id="XMLID_2_"
           d="m 851.294,-251.765 c -1.98,5.308 -1.606,11.14 0.935,16.187 0.637,1.309 2.581,0.15 1.945,-1.123 -2.281,-4.56 -2.506,-9.72 -0.711,-14.468 0.485,-1.344 -1.684,-1.941 -2.169,-0.596 z"
           inkscape:connector-curvature="0"
           style="fill:#424143;stroke-width:1.21660423" /></g></g></g></svg>