<?xml version="1.0" encoding="UTF-8" standalone="no"?>
<!-- Generator: Adobe Illustrator 14.0.0, SVG Export Plug-In . SVG Version: 6.00 Build 43363)  -->

<svg
   xmlns:dc="http://purl.org/dc/elements/1.1/"
   xmlns:cc="http://creativecommons.org/ns#"
   xmlns:rdf="http://www.w3.org/1999/02/22-rdf-syntax-ns#"
   xmlns:svg="http://www.w3.org/2000/svg"
   xmlns="http://www.w3.org/2000/svg"
   xmlns:sodipodi="http://sodipodi.sourceforge.net/DTD/sodipodi-0.dtd"
   xmlns:inkscape="http://www.inkscape.org/namespaces/inkscape"
   version="1.1"
   id="Layer_1"
   inkscape:version="0.92.2 (5c3e80d, 2017-08-06)"
   sodipodi:docname="light.svg"
   x="0px"
   y="0px"
   width="100"
   height="100"
   viewBox="416.572 -360.945 100 100"
   enable-background="new 416.572 -360.945 595.275 841.89"
   xml:space="preserve"
   inkscape:export-filename="C:\Users\holly.jones\Downloads\volcano_pixelhint_12th_jan-20180116T210822Z-001\volcano_pixelhint_12th_jan\volcano_pixelhint\img\hedges_icon_100_white.png"
   inkscape:export-xdpi="149.93106"
   inkscape:export-ydpi="149.93106"><metadata
     id="metadata326"><rdf:RDF><cc:Work
         rdf:about=""><dc:format>image/svg+xml</dc:format><dc:type
           rdf:resource="http://purl.org/dc/dcmitype/StillImage" /><dc:title /></cc:Work></rdf:RDF></metadata><defs
     id="defs324" /><sodipodi:namedview
     id="namedview230"
     inkscape:pageshadow="2"
     inkscape:window-width="1920"
     inkscape:window-height="1001"
     inkscape:window-x="-9"
     inkscape:window-y="-9"
     inkscape:current-layer="Layer_1"
     inkscape:pageopacity="0"
     gridtolerance="10"
     inkscape:zoom="0.96377841"
     inkscape:cy="49.115088"
     guidetolerance="10"
     bordercolor="#666666"
     showgrid="false"
     borderopacity="1"
     objecttolerance="10"
     inkscape:cx="14.984658"
     pagecolor="#ffffff"
     inkscape:window-maximized="1"
     inkscape:snap-nodes="false" /><text
     xml:space="preserve"
     style="font-style:normal;font-weight:normal;font-size:40px;line-height:125%;font-family:Sans;letter-spacing:0px;word-spacing:0px;fill:#000000;fill-opacity:1;stroke:none;stroke-width:1px;stroke-linecap:butt;stroke-linejoin:miter;stroke-opacity:1"
     x="566.7934"
     y="-274.51813"
     id="text5063"><tspan
       sodipodi:role="line"
       id="tspan5061"
       x="566.7934"
       y="-239.1275" /></text>
<path
     d="M 1049.2848,-347.50267"
     stroke-miterlimit="10"
     id="path1720"
     inkscape:connector-curvature="0"
     style="fill:none;stroke:#010101;stroke-width:2.76591682;stroke-linejoin:round;stroke-miterlimit:10" /><g
     id="g1227"
     transform="translate(-3.444267e-6)"><rect
       y="-301.86334"
       x="442.03024"
       height="34.666317"
       width="11.147057"
       id="rect1192"
       style="opacity:1;fill:#ffffff;fill-opacity:1;stroke:#424143;stroke-width:2.5;stroke-linecap:round;stroke-linejoin:round;stroke-miterlimit:10;stroke-dasharray:none;stroke-opacity:1" /><path
       style="opacity:1;fill:#b8e69a;fill-opacity:1;stroke:none;stroke-width:2.5;stroke-linecap:round;stroke-linejoin:miter;stroke-miterlimit:4;stroke-dasharray:none;stroke-opacity:1"
       d="m 441.34869,-282.57318 v -16.01769 h 4.28003 4.28003 v 16.01769 16.01769 h -4.28003 -4.28003 z"
       id="path1140"
       inkscape:connector-curvature="0" /><rect
       style="opacity:1;fill:none;fill-opacity:1;stroke:#424143;stroke-width:2.5;stroke-linecap:round;stroke-linejoin:round;stroke-miterlimit:10;stroke-dasharray:none;stroke-opacity:1"
       id="rect1142"
       width="11.147057"
       height="34.666317"
       x="442.03024"
       y="-301.86334" /><rect
       style="opacity:1;fill:#fffdfc;fill-opacity:1;stroke:#424143;stroke-width:2.50000024;stroke-linecap:square;stroke-linejoin:miter;stroke-miterlimit:4;stroke-dasharray:none;stroke-opacity:1"
       id="rect1144"
       width="22.754225"
       height="4.6982493"
       x="-324.28522"
       y="-450.0531"
       transform="matrix(3.1967299e-4,0.99999995,-0.99999961,8.8185194e-4,0,0)"
       ry="0.81518936" /><path
       style="fill:none;stroke:#424143;stroke-width:2.5;stroke-linecap:round;stroke-linejoin:miter;stroke-miterlimit:4;stroke-dasharray:none;stroke-opacity:1"
       d="m 447.5272,-324.86325 v -26.95052 c -0.0389,-4.39423 2.8455,-4.19833 4.54265,-4.19833 l 37.12519,-0.1297"
       id="path1148"
       inkscape:connector-curvature="0"
       sodipodi:nodetypes="cccc" /><g
       style="fill:#ffffff;fill-opacity:1"
       transform="translate(17.046929,-0.77384912)"
       id="g1210"><path
         style="opacity:1;fill:#ffffff;fill-opacity:1;stroke:none;stroke-width:2.5;stroke-linecap:round;stroke-linejoin:miter;stroke-miterlimit:4;stroke-dasharray:none;stroke-opacity:1"
         d="m 460.60416,-344.44444 c -1.72982,-0.45138 -3.14348,-1.7943 -3.8729,-3.67908 -0.21306,-0.55054 -0.38738,-1.0904 -0.38738,-1.19971 0,-0.1758 0.73313,-0.19873 6.35519,-0.19873 3.49536,0 6.3552,0.02 6.3552,0.0445 0,0.0245 -0.1141,0.37616 -0.25354,0.78147 -0.84323,2.4509 -2.41144,3.95723 -4.54005,4.36091 -1.02634,0.19464 -2.68109,0.14513 -3.65652,-0.1094 z"
         id="path1205"
         inkscape:connector-curvature="0" /><path
         style="opacity:1;fill:#ffffff;fill-opacity:1;stroke:#424143;stroke-width:2.5;stroke-linecap:square;stroke-linejoin:miter;stroke-miterlimit:4;stroke-dasharray:none;stroke-opacity:1"
         d="m 457.00644,-352.1343 h 14.8657 c 0.44733,0 0.36512,1.04564 0.36512,1.04564 0,0 -0.74495,7.11298 -7.83718,6.93647 -7.05793,0.0849 -7.71176,-7.10862 -7.71176,-7.10862 0,0 -0.12926,-0.87349 0.31804,-0.87349 z"
         id="path1208"
         inkscape:connector-curvature="0"
         sodipodi:nodetypes="cscccsc" /></g><g
       id="g1154"
       transform="translate(17.046929,-0.77384912)"><path
         inkscape:connector-curvature="0"
         id="path1150"
         d="m 460.60416,-344.44444 c -1.72982,-0.45138 -3.14348,-1.7943 -3.8729,-3.67908 -0.21306,-0.55054 -0.38738,-1.0904 -0.38738,-1.19971 0,-0.1758 0.73313,-0.19873 6.35519,-0.19873 3.49536,0 6.3552,0.02 6.3552,0.0445 0,0.0245 -0.1141,0.37616 -0.25354,0.78147 -0.84323,2.4509 -2.41144,3.95723 -4.54005,4.36091 -1.02634,0.19464 -2.68109,0.14513 -3.65652,-0.1094 z"
         style="opacity:1;fill:#b8e69a;fill-opacity:1;stroke:none;stroke-width:2.5;stroke-linecap:round;stroke-linejoin:miter;stroke-miterlimit:4;stroke-dasharray:none;stroke-opacity:1" /><path
         sodipodi:nodetypes="cscccsc"
         inkscape:connector-curvature="0"
         id="path1152"
         d="m 457.00644,-352.1343 h 14.8657 c 0.44733,0 0.36512,1.04564 0.36512,1.04564 0,0 -0.74495,7.11298 -7.83718,6.93647 -7.05793,0.0849 -7.71176,-7.10862 -7.71176,-7.10862 0,0 -0.12926,-0.87349 0.31804,-0.87349 z"
         style="opacity:1;fill:none;fill-opacity:1;stroke:#424143;stroke-width:2.5;stroke-linecap:square;stroke-linejoin:miter;stroke-miterlimit:4;stroke-dasharray:none;stroke-opacity:1" /></g><path
       style="fill:none;stroke:#424143;stroke-width:2.5;stroke-linecap:round;stroke-linejoin:miter;stroke-miterlimit:4;stroke-dasharray:none;stroke-opacity:1"
       d="M 435.06062,-265.74814 H 460.1469"
       id="path1156"
       inkscape:connector-curvature="0" /><path
       style="fill:#e7ffd8;fill-opacity:1;stroke:none;stroke-width:1px;stroke-linecap:butt;stroke-linejoin:miter;stroke-opacity:1"
       d="m 477.60395,-342.84109 -12.73581,77.74685 34.48305,-0.006 -13.86016,-77.74129 z"
       id="path1158"
       inkscape:connector-curvature="0"
       sodipodi:nodetypes="ccccc" /></g></svg>