<?xml version="1.0" encoding="UTF-8" standalone="no"?>
<!-- Generator: Adobe Illustrator 14.0.0, SVG Export Plug-In . SVG Version: 6.00 Build 43363)  -->

<svg
   xmlns:dc="http://purl.org/dc/elements/1.1/"
   xmlns:cc="http://creativecommons.org/ns#"
   xmlns:rdf="http://www.w3.org/1999/02/22-rdf-syntax-ns#"
   xmlns:svg="http://www.w3.org/2000/svg"
   xmlns="http://www.w3.org/2000/svg"
   xmlns:sodipodi="http://sodipodi.sourceforge.net/DTD/sodipodi-0.dtd"
   xmlns:inkscape="http://www.inkscape.org/namespaces/inkscape"
   version="1.1"
   id="Layer_1"
   inkscape:version="0.92.2 (5c3e80d, 2017-08-06)"
   sodipodi:docname="maps.svg"
   x="0px"
   y="0px"
   width="100"
   height="100"
   viewBox="416.572 -360.945 100 100"
   enable-background="new 416.572 -360.945 595.275 841.89"
   xml:space="preserve"
   inkscape:export-filename="C:\Users\holly.jones\Downloads\volcano_pixelhint_12th_jan-20180116T210822Z-001\volcano_pixelhint_12th_jan\volcano_pixelhint\img\hedges_icon_100_white.png"
   inkscape:export-xdpi="149.93106"
   inkscape:export-ydpi="149.93106"><metadata
     id="metadata326"><rdf:RDF><cc:Work
         rdf:about=""><dc:format>image/svg+xml</dc:format><dc:type
           rdf:resource="http://purl.org/dc/dcmitype/StillImage" /><dc:title /></cc:Work></rdf:RDF></metadata><defs
     id="defs324" /><sodipodi:namedview
     id="namedview230"
     inkscape:pageshadow="2"
     inkscape:window-width="1920"
     inkscape:window-height="1001"
     inkscape:window-x="-9"
     inkscape:window-y="-9"
     inkscape:current-layer="Layer_1"
     inkscape:pageopacity="0"
     gridtolerance="10"
     inkscape:zoom="4.04"
     inkscape:cy="54.327775"
     guidetolerance="10"
     bordercolor="#666666"
     showgrid="false"
     borderopacity="1"
     objecttolerance="10"
     inkscape:cx="48.557981"
     pagecolor="#ffffff"
     inkscape:window-maximized="1"
     inkscape:snap-nodes="false" /><text
     xml:space="preserve"
     style="font-style:normal;font-weight:normal;font-size:40px;line-height:125%;font-family:Sans;letter-spacing:0px;word-spacing:0px;fill:#000000;fill-opacity:1;stroke:none;stroke-width:1px;stroke-linecap:butt;stroke-linejoin:miter;stroke-opacity:1"
     x="566.7934"
     y="-274.51813"
     id="text5063"><tspan
       sodipodi:role="line"
       id="tspan5061"
       x="566.7934"
       y="-239.1275" /></text>
<g
     id="g1232"><path
       sodipodi:nodetypes="cssssssssc"
       inkscape:connector-curvature="0"
       id="path1222"
       d="m 482.24005,-306.65439 h 7.70806 c 2.67476,0 3.80299,2.35757 4.8281,4.8281 l 13.16129,31.71916 c 1.0251,2.47053 -2.15333,4.8281 -4.8281,4.8281 h -73.02505 c -2.67476,0 -5.99355,-2.42059 -4.8281,-4.8281 l 15.35485,-31.71916 c 1.16545,-2.40751 2.15333,-4.8281 4.8281,-4.8281 h 7.85311"
       style="opacity:1;fill:#ffffff;fill-opacity:1;stroke:#424143;stroke-width:2.74193645;stroke-linecap:round;stroke-linejoin:round;stroke-miterlimit:8.36363602;stroke-dasharray:none;stroke-opacity:1" /><path
       sodipodi:nodetypes="ccccccc"
       inkscape:connector-curvature="0"
       id="path1220"
       d="m 467.80406,-356.61096 c -13.94373,-1.6e-4 -24.5433,11.20292 -24.54314,25.14665 0.002,6.61584 2.25304,10.93325 6.03631,17.71495 6.10944,10.03034 12.273,22.40796 18.72104,33.5763 6.4562,-11.18245 11.76346,-22.40892 17.76913,-33.61014 4.58396,-9.53322 5.24245,-9.60341 5.65453,-17.98287 1.6e-4,-13.94373 -9.69414,-24.84505 -23.63787,-24.84489 z"
       style="opacity:1;fill:#ffffff;fill-opacity:1;stroke:#424143;stroke-width:2.74193645;stroke-linecap:round;stroke-linejoin:round;stroke-miterlimit:8.36363602;stroke-dasharray:none;stroke-opacity:1" /><path
       style="opacity:1;fill:#e7ffd8;fill-opacity:1;stroke:none;stroke-width:0.4585512;stroke-linecap:round;stroke-linejoin:round;stroke-miterlimit:8.36363602;stroke-dasharray:none;stroke-opacity:1"
       d="m 436.31543,-272.20119 c -1.19269,-0.41185 -1.11688,-0.65237 4.02835,-12.78046 2.54649,-6.00244 4.87476,-11.40876 5.17395,-12.01404 1.12023,-2.26638 1.56606,-2.47618 5.26186,-2.47618 h 2.73704 l 3.35249,6.19044 c 5.56381,10.27371 8.42391,15.33923 8.90644,15.77416 0.25183,0.22699 0.65501,0.4127 0.89596,0.4127 0.24095,0 0.6429,-0.18571 0.89323,-0.4127 0.68514,-0.62123 6.08769,-10.53652 10.75081,-19.73088 l 1.14625,-2.26008 2.62559,0.059 c 2.94295,0.0662 3.1848,0.15591 4.16917,1.5471 0.63632,0.89927 10.35918,23.75143 10.6593,25.05308 0.10379,0.45018 0.0513,0.51293 -0.57485,0.68681 -1.05578,0.2932 -59.172,0.24578 -60.02559,-0.049 z"
       id="path1124"
       inkscape:connector-curvature="0" /><path
       style="opacity:1;fill:#b8e69a;fill-opacity:1;stroke:none;stroke-width:0.4585512;stroke-linecap:round;stroke-linejoin:round;stroke-miterlimit:8.36363602;stroke-dasharray:none;stroke-opacity:1"
       d="m 463.52733,-286.03671 c -1.17842,-2.14247 -4.0772,-7.44459 -6.44173,-11.78249 -2.36452,-4.33789 -5.06799,-9.20771 -6.00769,-10.82181 -3.46819,-5.95721 -4.26481,-7.39649 -5.58359,-10.08812 -2.15297,-4.39423 -2.8106,-6.79529 -2.96396,-10.82181 -0.40783,-10.70706 6.00481,-20.17758 15.81416,-23.35521 2.67721,-0.86725 3.92232,-1.04043 7.41711,-1.03164 2.84555,0.007 3.43077,0.0633 5.15633,0.49477 6.31672,1.57943 11.35013,5.62693 14.27603,11.47974 0.82186,1.64399 1.7749,4.59397 2.14343,6.63459 0.64748,3.58528 0.28547,9.42235 -0.78685,12.68687 -0.82807,2.52096 -13.64243,27.63602 -20.22086,39.63118 -0.26201,0.47773 -0.51764,0.86877 -0.56808,0.86897 -0.0504,1.9e-4 -1.05587,-1.75256 -2.2343,-3.89504 z m 4.8939,-34.19357 c 3.56696,-0.88353 6.61161,-3.90846 7.71988,-7.66988 0.50199,-1.70367 0.42717,-4.38139 -0.17423,-6.23629 -1.46926,-4.53168 -5.72143,-7.62236 -10.46822,-7.60877 -7.09703,0.0203 -12.32174,6.76875 -10.56334,13.64403 0.8953,3.50061 3.26628,6.1747 6.67168,7.52462 2.12698,0.84315 4.35187,0.95621 6.81423,0.34629 z"
       id="path1122"
       inkscape:connector-curvature="0" /><path
       style="opacity:1;fill:none;fill-opacity:1;stroke:#424143;stroke-width:2.74193645;stroke-linecap:round;stroke-linejoin:round;stroke-miterlimit:8.36363602;stroke-dasharray:none;stroke-opacity:1"
       d="m 482.24005,-306.65439 h 7.70806 c 2.67476,0 3.80299,2.35757 4.8281,4.8281 l 13.16129,31.71916 c 1.0251,2.47053 -2.15333,4.8281 -4.8281,4.8281 h -73.02505 c -2.67476,0 -5.99355,-2.42059 -4.8281,-4.8281 l 15.35485,-31.71916 c 1.16545,-2.40751 2.15333,-4.8281 4.8281,-4.8281 h 7.85311"
       id="rect1089"
       inkscape:connector-curvature="0"
       sodipodi:nodetypes="cssssssssc" /><path
       style="opacity:1;fill:none;fill-opacity:1;stroke:#424143;stroke-width:2.74193645;stroke-linecap:round;stroke-linejoin:round;stroke-miterlimit:8.36363602;stroke-dasharray:none;stroke-opacity:1"
       d="m 467.80406,-356.61096 c -13.94373,-1.6e-4 -24.5433,11.20292 -24.54314,25.14665 0.002,6.61584 2.25304,10.93325 6.03631,17.71495 6.10944,10.03034 12.273,22.40796 18.72104,33.5763 6.4562,-11.18245 11.76346,-22.40892 17.76913,-33.61014 4.58396,-9.53322 5.24245,-9.60341 5.65453,-17.98287 1.6e-4,-13.94373 -9.69414,-24.84505 -23.63787,-24.84489 z"
       id="path1092"
       inkscape:connector-curvature="0"
       sodipodi:nodetypes="ccccccc" /><circle
       style="opacity:1;fill:none;fill-opacity:1;stroke:#424143;stroke-width:2.74193645;stroke-linecap:round;stroke-linejoin:round;stroke-miterlimit:8.36363602;stroke-dasharray:none;stroke-opacity:1"
       id="path1112"
       cx="467.80405"
       cy="-331.88275"
       r="9.5307045" /><path
       sodipodi:nodetypes="cssssssssc"
       inkscape:connector-curvature="0"
       id="path1114"
       d="m 480.53305,-302.46846 h 4.8276 c 2.67477,0 3.78643,2.3645 4.8281,4.8281 l 8.7742,20.75141 c 1.7882,4.22918 0.76365,4.8281 -4.8281,4.8281 h -53.28311 c -4.88764,0 -6.47755,-0.92706 -4.8281,-4.8281 l 8.7742,-20.75141 c 1.04167,-2.4636 2.15333,-4.8281 4.8281,-4.8281 h 6.01349"
       style="opacity:1;fill:none;fill-opacity:1;stroke:#424143;stroke-width:2.74193645;stroke-linecap:round;stroke-linejoin:round;stroke-miterlimit:8.36363602;stroke-dasharray:none;stroke-opacity:1" /></g></svg>