<?xml version="1.0" encoding="UTF-8" standalone="no"?>
<!-- Generator: Adobe Illustrator 14.0.0, SVG Export Plug-In . SVG Version: 6.00 Build 43363)  -->

<svg
   xmlns:dc="http://purl.org/dc/elements/1.1/"
   xmlns:cc="http://creativecommons.org/ns#"
   xmlns:rdf="http://www.w3.org/1999/02/22-rdf-syntax-ns#"
   xmlns:svg="http://www.w3.org/2000/svg"
   xmlns="http://www.w3.org/2000/svg"
   xmlns:sodipodi="http://sodipodi.sourceforge.net/DTD/sodipodi-0.dtd"
   xmlns:inkscape="http://www.inkscape.org/namespaces/inkscape"
   version="1.1"
   id="Layer_1"
   inkscape:version="0.92.2 (5c3e80d, 2017-08-06)"
   sodipodi:docname="minutes_nov_19th.svg"
   x="0px"
   y="0px"
   width="100"
   height="100"
   viewBox="416.572 -360.945 100 100"
   enable-background="new 416.572 -360.945 595.275 841.89"
   xml:space="preserve"
   inkscape:export-filename="C:\Users\holly.jones\Downloads\volcano_pixelhint_12th_jan-20180116T210822Z-001\volcano_pixelhint_12th_jan\volcano_pixelhint\img\hedges_icon_100_white.png"
   inkscape:export-xdpi="149.93106"
   inkscape:export-ydpi="149.93106"><metadata
     id="metadata326"><rdf:RDF><cc:Work
         rdf:about=""><dc:format>image/svg+xml</dc:format><dc:type
           rdf:resource="http://purl.org/dc/dcmitype/StillImage" /><dc:title /></cc:Work></rdf:RDF></metadata><defs
     id="defs324"><clipPath
       clipPathUnits="userSpaceOnUse"
       id="clipPath1282"><rect
         ry="9.0558882"
         y="-355.80136"
         x="430.07397"
         height="89.648712"
         width="90.322769"
         id="rect1284"
         style="opacity:1;fill:#b8e69a;fill-opacity:1;stroke:none;stroke-width:1.99999988;stroke-linecap:round;stroke-linejoin:round;stroke-miterlimit:8.36363602;stroke-dasharray:none;stroke-opacity:1" /></clipPath></defs><sodipodi:namedview
     id="namedview230"
     inkscape:pageshadow="2"
     inkscape:window-width="1680"
     inkscape:window-height="987"
     inkscape:window-x="-8"
     inkscape:window-y="-8"
     inkscape:current-layer="Layer_1"
     inkscape:pageopacity="0"
     gridtolerance="10"
     inkscape:zoom="2.8567114"
     inkscape:cy="35.943719"
     guidetolerance="10"
     bordercolor="#666666"
     showgrid="false"
     borderopacity="1"
     objecttolerance="10"
     inkscape:cx="115.62459"
     pagecolor="#ffffff"
     inkscape:window-maximized="1"
     inkscape:snap-nodes="false" /><g
     aria-label="19th"
     style="font-size:20.78250694px;font-family:CenturyGothic;fill:#424143;stroke-width:1"
     id="text5039"><path
       d="m 438.64478,-295.34424 h 2.93269 v 14.92728 h -1.48157 v -13.46601 h -2.34412 z"
       style="font-size:20.78250694px;font-family:CenturyGothic;fill:#424143;stroke-width:1"
       id="path1464" /><path
       d="m 450.31464,-280.0415 -1.22787,-0.79152 4.02864,-6.10892 q -0.81182,0.26384 -1.52215,0.26384 -1.77585,0 -3.01387,-1.27861 -1.23802,-1.28876 -1.23802,-3.16608 0,-1.28876 0.59871,-2.32383 0.59871,-1.03507 1.69467,-1.65408 1.1061,-0.61901 2.36441,-0.61901 1.23802,0 2.28324,0.59872 1.05536,0.59871 1.65407,1.67437 0.59872,1.07566 0.59872,2.29338 0,0.92344 -0.37547,1.93822 -0.36531,1.00462 -1.3192,2.4253 z m 1.62364,-7.94565 q 1.30905,0 2.22235,-0.9133 0.92344,-0.92344 0.92344,-2.22234 0,-1.29891 -0.92344,-2.2122 -0.9133,-0.92345 -2.22235,-0.92345 -1.29891,0 -2.22235,0.92345 -0.91329,0.91329 -0.91329,2.2122 0,1.2989 0.91329,2.22234 0.92344,0.9133 2.22235,0.9133 z"
       style="font-size:20.78250694px;font-family:CenturyGothic;fill:#424143;stroke-width:1"
       id="path1466" /><path
       d="m 460.67545,-295.55734 h 1.43083 v 4.09967 h 2.25279 v 1.21773 h -2.25279 v 9.82298 h -1.43083 v -9.82298 h -1.93821 v -1.21773 h 1.93821 z"
       style="font-size:20.78250694px;font-family:CenturyGothic;fill:#424143;stroke-width:1"
       id="path1468" /><path
       d="m 466.50024,-295.71971 h 1.42068 v 6.24084 q 0.86255,-1.13654 1.89762,-1.69466 1.03507,-0.56827 2.24264,-0.56827 1.23802,0 2.19191,0.62915 0.96403,0.62916 1.42068,1.69467 0.45664,1.05536 0.45664,3.3183 v 5.68272 h -1.42068 v -5.26666 q 0,-1.90777 -0.15221,-2.54708 -0.26384,-1.09595 -0.96403,-1.64393 -0.69005,-0.55812 -1.81644,-0.55812 -1.28876,0 -2.31368,0.85241 -1.01477,0.85241 -1.3395,2.11072 -0.20295,0.81182 -0.20295,3.00372 v 4.04894 h -1.42068 z"
       style="font-size:20.78250694px;font-family:CenturyGothic;fill:#424143;stroke-width:1"
       id="path1470" /></g><rect
     style="opacity:1;fill:#b8e69a;fill-opacity:1;stroke:none;stroke-width:1.28599989;stroke-linejoin:round;stroke-miterlimit:4;stroke-dasharray:none;stroke-opacity:1"
     id="rect4989"
     width="13.156449"
     height="9.0537529"
     x="475.55685"
     y="-329.65149"
     ry="0.4839977" /><path
     style="fill:none;stroke:#010101;stroke-width:3.43649983;stroke-linejoin:round;stroke-miterlimit:10"
     inkscape:connector-curvature="0"
     id="path4991"
     stroke-miterlimit="10"
     d="M 481.51713,-266.44037" /><line
     style="fill:none;stroke:#424143;stroke-width:1.28590012;stroke-linecap:round;stroke-linejoin:round;stroke-miterlimit:10"
     id="line4993"
     stroke-miterlimit="10"
     x1="438.73749"
     y1="-346.0571"
     x2="490.64609"
     y2="-346.0571" /><line
     style="fill:none;stroke:#424143;stroke-width:1.28599989;stroke-linecap:round;stroke-linejoin:round;stroke-miterlimit:10;stroke-dasharray:none"
     id="line4995"
     stroke-miterlimit="10"
     x1="438.74094"
     y1="-338.24637"
     x2="490.90335"
     y2="-338.24637" /><path
     style="fill:none;stroke:#424143;stroke-width:2.57180023;stroke-linejoin:round;stroke-miterlimit:10"
     inkscape:connector-curvature="0"
     id="path4997"
     stroke-miterlimit="10"
     d="m 430.76375,-334.21094 c 0,0 8.4e-4,-15.10866 0,-16.74666 -8.4e-4,-2.19132 1.53188,-3.78371 4.21814,-3.78371 1.60603,0 58.40436,0.002 59.56296,0 1.84364,-0.003 3.464,0.90559 3.464,3.62489 0,0.76536 0,1.77824 0,1.77824 v 30.35754" /><path
     style="fill:none;stroke:#424143;stroke-width:2.57180023;stroke-linejoin:round;stroke-miterlimit:10"
     inkscape:connector-curvature="0"
     id="path4999"
     stroke-miterlimit="10"
     d="m 498.20433,-349.33818 c 0,0 -0.52663,0 1.39538,0 1.57991,0 2.75199,1.62702 2.75199,2.97358 0,1.05596 0,27.3848 0,27.3848" /><path
     sodipodi:nodetypes="ccscscc"
     d="m 430.76375,-339.40387 c 0,0 8.4e-4,57.52174 0,60.2777 -8.4e-4,3.68695 1.53188,6.36617 4.21814,6.36617 1.60603,0 58.40436,-0.003 59.56296,0 1.84364,0.006 3.464,-1.52368 3.464,-6.09895 v -2.99192 -51.07713"
     stroke-miterlimit="10"
     id="path5001"
     inkscape:connector-curvature="0"
     style="fill:none;stroke:#424143;stroke-width:2.57180023;stroke-linejoin:round;stroke-miterlimit:10" /><path
     style="fill:none;stroke:#424143;stroke-width:2.57180023;stroke-linejoin:round;stroke-miterlimit:10"
     inkscape:connector-curvature="0"
     id="path5003"
     stroke-miterlimit="10"
     d="m 435.13517,-273.64795 c -8.4e-4,3.68695 1.53188,6.36617 4.21815,6.36617 1.60603,0 52.31167,0.0749 53.47027,0.0775 4.13107,-0.006 9.19535,0.90351 9.52936,-5.64591 l 0.0273,-8.59103 v -46.00852"
     sodipodi:nodetypes="cscccc" /><line
     y2="-330.49893"
     x2="471.16211"
     y1="-330.49893"
     x1="438.55399"
     stroke-miterlimit="10"
     id="line5005"
     style="fill:none;stroke:#424143;stroke-width:1.28590012;stroke-linecap:round;stroke-linejoin:round;stroke-miterlimit:10" /><line
     y2="-322.6882"
     x2="471.16278"
     y1="-322.6882"
     x1="438.54648"
     stroke-miterlimit="10"
     id="line5007"
     style="fill:none;stroke:#424143;stroke-width:1.28590012;stroke-linecap:round;stroke-linejoin:round;stroke-miterlimit:10" /><rect
     ry="0.60260445"
     y="-331.77927"
     x="475.73941"
     height="11.272432"
     width="15.06895"
     id="rect5019"
     style="opacity:1;fill:none;fill-opacity:1;stroke:#424143;stroke-width:1.28599989;stroke-linejoin:round;stroke-miterlimit:4;stroke-dasharray:none;stroke-opacity:1" /><g
     aria-label="Nov"
     style="font-size:20.02172661px;font-family:CenturyGothic;fill:#424143;stroke-width:1"
     id="text5059"><path
       d="m 437.90416,-301.04327 v -14.38084 h 0.31284 l 9.56116,11.00804 v -11.00804 h 1.41755 v 14.38084 h -0.32261 l -9.48295,-10.87118 v 10.87118 z"
       style="font-size:20.02172661px;font-family:CenturyGothic;fill:#424143;stroke-width:1"
       id="path1473" /><path
       d="m 457.52506,-311.95355 q 2.45384,0 4.06692,1.77927 1.46643,1.62286 1.46643,3.84206 0,2.22898 -1.55442,3.90072 -1.54465,1.66196 -3.97893,1.66196 -2.44406,0 -3.99848,-1.66196 -1.54464,-1.67174 -1.54464,-3.90072 0,-2.20943 1.46643,-3.83228 1.61308,-1.78905 4.07669,-1.78905 z m 0,1.33934 q -1.70106,0 -2.92309,1.26114 -1.22203,1.26113 -1.22203,3.05018 0,1.1536 0.55725,2.15077 0.55724,0.99718 1.50553,1.54465 0.9483,0.53769 2.08234,0.53769 1.13405,0 2.08234,-0.53769 0.9483,-0.54747 1.50554,-1.54465 0.55725,-0.99717 0.55725,-2.15077 0,-1.78905 -1.23181,-3.05018 -1.22203,-1.26114 -2.91332,-1.26114 z"
       style="font-size:20.02172661px;font-family:CenturyGothic;fill:#424143;stroke-width:1"
       id="path1475" /><path
       d="m 464.5835,-311.67982 h 1.45666 l 3.55855,7.74278 3.52922,-7.74278 h 1.46644 l -4.86857,10.63655 h -0.2444 z"
       style="font-size:20.02172661px;font-family:CenturyGothic;fill:#424143;stroke-width:1"
       id="path1477" /></g><text
     xml:space="preserve"
     style="font-style:normal;font-weight:normal;font-size:40px;line-height:125%;font-family:Sans;letter-spacing:0px;word-spacing:0px;fill:#000000;fill-opacity:1;stroke:none;stroke-width:1px;stroke-linecap:butt;stroke-linejoin:miter;stroke-opacity:1"
     x="566.7934"
     y="-274.51813"
     id="text5063"><tspan
       sodipodi:role="line"
       id="tspan5061"
       x="566.7934"
       y="-239.1275" /></text>
</svg>