<?xml version="1.0" encoding="UTF-8" standalone="no"?>
<!-- Generator: Adobe Illustrator 14.0.0, SVG Export Plug-In . SVG Version: 6.00 Build 43363)  -->

<svg
   xmlns:dc="http://purl.org/dc/elements/1.1/"
   xmlns:cc="http://creativecommons.org/ns#"
   xmlns:rdf="http://www.w3.org/1999/02/22-rdf-syntax-ns#"
   xmlns:svg="http://www.w3.org/2000/svg"
   xmlns="http://www.w3.org/2000/svg"
   xmlns:sodipodi="http://sodipodi.sourceforge.net/DTD/sodipodi-0.dtd"
   xmlns:inkscape="http://www.inkscape.org/namespaces/inkscape"
   version="1.1"
   id="Layer_1"
   inkscape:version="0.92.2 (5c3e80d, 2017-08-06)"
   sodipodi:docname="minutes_aug_5th.svg"
   x="0px"
   y="0px"
   width="100"
   height="100"
   viewBox="416.572 -360.945 100 100"
   enable-background="new 416.572 -360.945 595.275 841.89"
   xml:space="preserve"
   inkscape:export-filename="C:\Users\holly.jones\Downloads\volcano_pixelhint_12th_jan-20180116T210822Z-001\volcano_pixelhint_12th_jan\volcano_pixelhint\img\hedges_icon_100_white.png"
   inkscape:export-xdpi="149.93106"
   inkscape:export-ydpi="149.93106"><metadata
     id="metadata326"><rdf:RDF><cc:Work
         rdf:about=""><dc:format>image/svg+xml</dc:format><dc:type
           rdf:resource="http://purl.org/dc/dcmitype/StillImage" /><dc:title /></cc:Work></rdf:RDF></metadata><defs
     id="defs324"><clipPath
       clipPathUnits="userSpaceOnUse"
       id="clipPath1282"><rect
         ry="9.0558882"
         y="-355.80136"
         x="430.07397"
         height="89.648712"
         width="90.322769"
         id="rect1284"
         style="opacity:1;fill:#b8e69a;fill-opacity:1;stroke:none;stroke-width:1.99999988;stroke-linecap:round;stroke-linejoin:round;stroke-miterlimit:8.36363602;stroke-dasharray:none;stroke-opacity:1" /></clipPath></defs><sodipodi:namedview
     id="namedview230"
     inkscape:pageshadow="2"
     inkscape:window-width="1680"
     inkscape:window-height="987"
     inkscape:window-x="-8"
     inkscape:window-y="-8"
     inkscape:current-layer="Layer_1"
     inkscape:pageopacity="0"
     gridtolerance="10"
     inkscape:zoom="2.02"
     inkscape:cy="34.324133"
     guidetolerance="10"
     bordercolor="#666666"
     showgrid="false"
     borderopacity="1"
     objecttolerance="10"
     inkscape:cx="-34.707046"
     pagecolor="#ffffff"
     inkscape:window-maximized="1"
     inkscape:snap-nodes="false" /><g
     aria-label="5th"
     style="font-size:20.78250694px;font-family:CenturyGothic;fill:#424143;stroke-width:1"
     id="text5039"><path
       d="m 445.01754,-295.34424 v 1.42068 h -5.3174 l -0.74078,4.06923 q 0.97418,-0.28414 1.75555,-0.28414 2.03969,0 3.35889,1.36994 1.32935,1.3598 1.32935,3.49082 0,1.47141 -0.67989,2.69929 -0.6799,1.22787 -1.84689,1.88747 -1.15684,0.64945 -2.67899,0.64945 -1.81644,0 -3.06461,-1.1061 -1.24817,-1.11624 -1.49171,-2.88195 h 1.5323 q 0.17251,0.86256 0.57842,1.40039 0.41606,0.53783 1.09595,0.8727 0.69005,0.32473 1.44098,0.32473 1.47142,0 2.52678,-1.11625 1.05536,-1.11625 1.05536,-2.79062 0,-1.51201 -0.95389,-2.45575 -0.95388,-0.94373 -2.54707,-0.94373 -1.3192,0 -3.19653,0.80167 l 1.38009,-7.40783 z"
       style="font-size:20.78250694px;font-family:CenturyGothic;fill:#424143;stroke-width:1"
       id="path1471" /><path
       d="m 449.14766,-295.55734 h 1.43082 v 4.09967 h 2.2528 v 1.21773 h -2.2528 v 9.82298 h -1.43082 v -9.82298 h -1.93822 v -1.21773 h 1.93822 z"
       style="font-size:20.78250694px;font-family:CenturyGothic;fill:#424143;stroke-width:1"
       id="path1473" /><path
       d="m 454.97244,-295.71971 h 1.42068 v 6.24084 q 0.86256,-1.13654 1.89762,-1.69466 1.03507,-0.56827 2.24265,-0.56827 1.23802,0 2.1919,0.62915 0.96403,0.62916 1.42068,1.69467 0.45665,1.05536 0.45665,3.3183 v 5.68272 h -1.42068 v -5.26666 q 0,-1.90777 -0.15222,-2.54708 -0.26384,-1.09595 -0.96403,-1.64393 -0.69004,-0.55812 -1.81644,-0.55812 -1.28876,0 -2.31368,0.85241 -1.01477,0.85241 -1.33949,2.11072 -0.20296,0.81182 -0.20296,3.00372 v 4.04894 h -1.42068 z"
       style="font-size:20.78250694px;font-family:CenturyGothic;fill:#424143;stroke-width:1"
       id="path1475" /></g><rect
     style="opacity:1;fill:#b8e69a;fill-opacity:1;stroke:none;stroke-width:1.28599989;stroke-linejoin:round;stroke-miterlimit:4;stroke-dasharray:none;stroke-opacity:1"
     id="rect4989"
     width="13.156449"
     height="9.0537529"
     x="475.55685"
     y="-329.65149"
     ry="0.4839977" /><path
     style="fill:none;stroke:#010101;stroke-width:3.43649983;stroke-linejoin:round;stroke-miterlimit:10"
     inkscape:connector-curvature="0"
     id="path4991"
     stroke-miterlimit="10"
     d="M 481.51713,-266.44037" /><line
     style="fill:none;stroke:#424143;stroke-width:1.28590012;stroke-linecap:round;stroke-linejoin:round;stroke-miterlimit:10"
     id="line4993"
     stroke-miterlimit="10"
     x1="438.73749"
     y1="-346.0571"
     x2="490.64609"
     y2="-346.0571" /><line
     style="fill:none;stroke:#424143;stroke-width:1.28599989;stroke-linecap:round;stroke-linejoin:round;stroke-miterlimit:10;stroke-dasharray:none"
     id="line4995"
     stroke-miterlimit="10"
     x1="438.74094"
     y1="-338.24637"
     x2="490.90335"
     y2="-338.24637" /><path
     style="fill:none;stroke:#424143;stroke-width:2.57180023;stroke-linejoin:round;stroke-miterlimit:10"
     inkscape:connector-curvature="0"
     id="path4997"
     stroke-miterlimit="10"
     d="m 430.76375,-334.21094 c 0,0 8.4e-4,-15.10866 0,-16.74666 -8.4e-4,-2.19132 1.53188,-3.78371 4.21814,-3.78371 1.60603,0 58.40436,0.002 59.56296,0 1.84364,-0.003 3.464,0.90559 3.464,3.62489 0,0.76536 0,1.77824 0,1.77824 v 30.35754" /><path
     style="fill:none;stroke:#424143;stroke-width:2.57180023;stroke-linejoin:round;stroke-miterlimit:10"
     inkscape:connector-curvature="0"
     id="path4999"
     stroke-miterlimit="10"
     d="m 498.20433,-349.33818 c 0,0 -0.52663,0 1.39538,0 1.57991,0 2.75199,1.62702 2.75199,2.97358 0,1.05596 0,27.3848 0,27.3848" /><path
     sodipodi:nodetypes="ccscscc"
     d="m 430.76375,-339.40387 c 0,0 8.4e-4,57.52174 0,60.2777 -8.4e-4,3.68695 1.53188,6.36617 4.21814,6.36617 1.60603,0 58.40436,-0.003 59.56296,0 1.84364,0.006 3.464,-1.52368 3.464,-6.09895 v -2.99192 -51.07713"
     stroke-miterlimit="10"
     id="path5001"
     inkscape:connector-curvature="0"
     style="fill:none;stroke:#424143;stroke-width:2.57180023;stroke-linejoin:round;stroke-miterlimit:10" /><path
     style="fill:none;stroke:#424143;stroke-width:2.57180023;stroke-linejoin:round;stroke-miterlimit:10"
     inkscape:connector-curvature="0"
     id="path5003"
     stroke-miterlimit="10"
     d="m 435.13517,-273.64795 c -8.4e-4,3.68695 1.53188,6.36617 4.21815,6.36617 1.60603,0 52.31167,0.0749 53.47027,0.0775 4.13107,-0.006 9.19535,0.90351 9.52936,-5.64591 l 0.0273,-8.59103 v -46.00852"
     sodipodi:nodetypes="cscccc" /><line
     y2="-330.49893"
     x2="471.16211"
     y1="-330.49893"
     x1="438.55399"
     stroke-miterlimit="10"
     id="line5005"
     style="fill:none;stroke:#424143;stroke-width:1.28590012;stroke-linecap:round;stroke-linejoin:round;stroke-miterlimit:10" /><line
     y2="-322.6882"
     x2="471.16278"
     y1="-322.6882"
     x1="438.54648"
     stroke-miterlimit="10"
     id="line5007"
     style="fill:none;stroke:#424143;stroke-width:1.28590012;stroke-linecap:round;stroke-linejoin:round;stroke-miterlimit:10" /><rect
     ry="0.60260445"
     y="-331.77927"
     x="475.73941"
     height="11.272432"
     width="15.06895"
     id="rect5019"
     style="opacity:1;fill:none;fill-opacity:1;stroke:#424143;stroke-width:1.28599989;stroke-linejoin:round;stroke-miterlimit:4;stroke-dasharray:none;stroke-opacity:1" /><g
     aria-label="Aug"
     style="font-size:20.02172661px;font-family:CenturyGothic;fill:#424143;stroke-width:1"
     id="text5059"><path
       d="m 443.7699,-315.42411 6.7065,14.38084 h -1.54465 l -2.25831,-4.7317 h -6.19813 l -2.24853,4.7317 h -1.6033 l 6.79448,-14.38084 z m -0.17597,3.05018 -2.47339,5.21073 h 4.91745 z"
       style="font-size:20.02172661px;font-family:CenturyGothic;fill:#424143;stroke-width:1"
       id="path1464" /><path
       d="m 452.31433,-311.67982 h 1.37845 v 4.96633 q 0,1.81838 0.19552,2.50272 0.29329,0.97762 1.11449,1.54464 0.83098,0.56702 1.9748,0.56702 1.14382,0 1.9357,-0.54747 0.80165,-0.55724 1.10471,-1.45666 0.2053,-0.6159 0.2053,-2.61025 v -4.96633 h 1.398 v 5.22051 q 0,2.19966 -0.51814,3.31415 -0.50836,1.11449 -1.54464,1.74994 -1.02651,0.62568 -2.58093,0.62568 -1.55442,0 -2.60047,-0.62568 -1.03629,-0.63545 -1.55443,-1.75972 -0.50836,-1.13404 -0.50836,-3.40213 z"
       style="font-size:20.02172661px;font-family:CenturyGothic;fill:#424143;stroke-width:1"
       id="path1466" /><path
       d="m 473.81227,-311.67982 h 1.37845 v 8.476 q 0,2.23876 -0.39105,3.27504 -0.5377,1.46643 -1.86726,2.25831 -1.32957,0.79187 -3.19683,0.79187 -1.36867,0 -2.46361,-0.39105 -1.08516,-0.38127 -1.7695,-1.03628 -0.68434,-0.64523 -1.26113,-1.89659 h 1.48598 q 0.60613,1.05584 1.5642,1.5642 0.95807,0.50836 2.37562,0.50836 1.39801,0 2.35608,-0.52791 0.96784,-0.51814 1.37845,-1.31002 0.4106,-0.79187 0.4106,-2.5516 v -0.54746 q -0.77232,0.97762 -1.88682,1.50554 -1.11449,0.51814 -2.36584,0.51814 -1.46644,0 -2.7569,-0.72345 -1.29046,-0.73321 -1.99435,-1.96502 -0.70389,-1.2318 -0.70389,-2.70801 0,-1.47622 0.73322,-2.74713 0.73321,-1.28068 2.02368,-2.02368 1.30023,-0.74299 2.73734,-0.74299 1.1927,0 2.21921,0.49859 1.03628,0.48881 1.99435,1.62285 z m -4.03759,1.04606 q -1.16337,0 -2.16054,0.56702 -0.99718,0.55725 -1.5642,1.55442 -0.56702,0.9874 -0.56702,2.141 0,1.74994 1.17314,2.89376 1.17315,1.14382 3.04041,1.14382 1.88682,0 3.03064,-1.13404 1.15359,-1.13404 1.15359,-2.98175 0,-1.20248 -0.52792,-2.141 -0.52791,-0.94829 -1.49576,-1.49576 -0.96785,-0.54747 -2.08234,-0.54747 z"
       style="font-size:20.02172661px;font-family:CenturyGothic;fill:#424143;stroke-width:1"
       id="path1468" /></g><text
     xml:space="preserve"
     style="font-style:normal;font-weight:normal;font-size:40px;line-height:125%;font-family:Sans;letter-spacing:0px;word-spacing:0px;fill:#000000;fill-opacity:1;stroke:none;stroke-width:1px;stroke-linecap:butt;stroke-linejoin:miter;stroke-opacity:1"
     x="566.7934"
     y="-274.51813"
     id="text5063"><tspan
       sodipodi:role="line"
       id="tspan5061"
       x="566.7934"
       y="-239.1275" /></text>
</svg>