<?xml version="1.0" encoding="UTF-8" standalone="no"?>
<!-- Generator: Adobe Illustrator 14.0.0, SVG Export Plug-In . SVG Version: 6.00 Build 43363)  -->

<svg
   xmlns:dc="http://purl.org/dc/elements/1.1/"
   xmlns:cc="http://creativecommons.org/ns#"
   xmlns:rdf="http://www.w3.org/1999/02/22-rdf-syntax-ns#"
   xmlns:svg="http://www.w3.org/2000/svg"
   xmlns="http://www.w3.org/2000/svg"
   xmlns:sodipodi="http://sodipodi.sourceforge.net/DTD/sodipodi-0.dtd"
   xmlns:inkscape="http://www.inkscape.org/namespaces/inkscape"
   version="1.1"
   id="Layer_1"
   inkscape:version="0.92.2 (5c3e80d, 2017-08-06)"
   sodipodi:docname="minutes_feb_5th.svg"
   x="0px"
   y="0px"
   width="100"
   height="100"
   viewBox="416.572 -360.945 100 100"
   enable-background="new 416.572 -360.945 595.275 841.89"
   xml:space="preserve"
   inkscape:export-filename="C:\Users\holly.jones\Downloads\volcano_pixelhint_12th_jan-20180116T210822Z-001\volcano_pixelhint_12th_jan\volcano_pixelhint\img\hedges_icon_100_white.png"
   inkscape:export-xdpi="149.93106"
   inkscape:export-ydpi="149.93106"><metadata
     id="metadata326"><rdf:RDF><cc:Work
         rdf:about=""><dc:format>image/svg+xml</dc:format><dc:type
           rdf:resource="http://purl.org/dc/dcmitype/StillImage" /><dc:title /></cc:Work></rdf:RDF></metadata><defs
     id="defs324"><clipPath
       clipPathUnits="userSpaceOnUse"
       id="clipPath1282"><rect
         ry="9.0558882"
         y="-355.80136"
         x="430.07397"
         height="89.648712"
         width="90.322769"
         id="rect1284"
         style="opacity:1;fill:#b8e69a;fill-opacity:1;stroke:none;stroke-width:1.99999988;stroke-linecap:round;stroke-linejoin:round;stroke-miterlimit:8.36363602;stroke-dasharray:none;stroke-opacity:1" /></clipPath></defs><sodipodi:namedview
     id="namedview230"
     inkscape:pageshadow="2"
     inkscape:window-width="1680"
     inkscape:window-height="987"
     inkscape:window-x="1912"
     inkscape:window-y="23"
     inkscape:current-layer="Layer_1"
     inkscape:pageopacity="0"
     gridtolerance="10"
     inkscape:zoom="5.7134228"
     inkscape:cy="39.529488"
     guidetolerance="10"
     bordercolor="#666666"
     showgrid="false"
     borderopacity="1"
     objecttolerance="10"
     inkscape:cx="52.907066"
     pagecolor="#ffffff"
     inkscape:window-maximized="1"
     inkscape:snap-nodes="false" /><text
     xml:space="preserve"
     style="font-style:normal;font-weight:normal;font-size:40px;line-height:125%;font-family:Sans;letter-spacing:0px;word-spacing:0px;fill:#000000;fill-opacity:1;stroke:none;stroke-width:1px;stroke-linecap:butt;stroke-linejoin:miter;stroke-opacity:1"
     x="566.7934"
     y="-274.51813"
     id="text5063"><tspan
       sodipodi:role="line"
       id="tspan5061"
       x="566.7934"
       y="-239.1275" /></text>
<g
     aria-label="5th"
     style="font-size:20.78250694px;font-family:CenturyGothic;fill:#424143;stroke-width:1"
     id="text1418"><path
       d="m 447.01754,-295.34424 v 1.42068 h -5.3174 l -0.74078,4.06923 q 0.97418,-0.28414 1.75555,-0.28414 2.03969,0 3.35889,1.36994 1.32935,1.3598 1.32935,3.49082 0,1.47141 -0.67989,2.69929 -0.6799,1.22787 -1.84689,1.88747 -1.15684,0.64945 -2.67899,0.64945 -1.81644,0 -3.06461,-1.1061 -1.24817,-1.11624 -1.49171,-2.88195 h 1.5323 q 0.17251,0.86256 0.57842,1.40039 0.41606,0.53783 1.09595,0.8727 0.69005,0.32473 1.44098,0.32473 1.47142,0 2.52678,-1.11625 1.05536,-1.11625 1.05536,-2.79062 0,-1.51201 -0.95389,-2.45575 -0.95388,-0.94373 -2.54707,-0.94373 -1.3192,0 -3.19653,0.80167 l 1.38009,-7.40783 z"
       style="font-size:20.78250694px;font-family:CenturyGothic;fill:#424143;stroke-width:1"
       id="path1439" /><path
       d="m 451.14766,-295.55734 h 1.43082 v 4.09967 h 2.2528 v 1.21773 h -2.2528 v 9.82298 h -1.43082 v -9.82298 h -1.93822 v -1.21773 h 1.93822 z"
       style="font-size:20.78250694px;font-family:CenturyGothic;fill:#424143;stroke-width:1"
       id="path1441" /><path
       d="m 456.97244,-295.71971 h 1.42068 v 6.24084 q 0.86256,-1.13654 1.89762,-1.69466 1.03507,-0.56827 2.24265,-0.56827 1.23802,0 2.1919,0.62915 0.96403,0.62916 1.42068,1.69467 0.45665,1.05536 0.45665,3.3183 v 5.68272 h -1.42068 v -5.26666 q 0,-1.90777 -0.15222,-2.54708 -0.26384,-1.09595 -0.96403,-1.64393 -0.69004,-0.55812 -1.81644,-0.55812 -1.28876,0 -2.31368,0.85241 -1.01477,0.85241 -1.33949,2.11072 -0.20296,0.81182 -0.20296,3.00372 v 4.04894 h -1.42068 z"
       style="font-size:20.78250694px;font-family:CenturyGothic;fill:#424143;stroke-width:1"
       id="path1443" /></g><rect
     ry="0.4839977"
     y="-329.65149"
     x="475.55685"
     height="9.0537529"
     width="13.156449"
     id="rect1421"
     style="opacity:1;fill:#b8e69a;fill-opacity:1;stroke:none;stroke-width:1.28599989;stroke-linejoin:round;stroke-miterlimit:4;stroke-dasharray:none;stroke-opacity:1" /><path
     d="M 481.51713,-266.44037"
     stroke-miterlimit="10"
     id="path1423"
     inkscape:connector-curvature="0"
     style="fill:none;stroke:#010101;stroke-width:3.43649983;stroke-linejoin:round;stroke-miterlimit:10" /><line
     y2="-346.0571"
     x2="490.64609"
     y1="-346.0571"
     x1="438.73749"
     stroke-miterlimit="10"
     id="line1425"
     style="fill:none;stroke:#424143;stroke-width:1.28590012;stroke-linecap:round;stroke-linejoin:round;stroke-miterlimit:10" /><line
     y2="-338.24637"
     x2="490.90335"
     y1="-338.24637"
     x1="438.74094"
     stroke-miterlimit="10"
     id="line1427"
     style="fill:none;stroke:#424143;stroke-width:1.28599989;stroke-linecap:round;stroke-linejoin:round;stroke-miterlimit:10;stroke-dasharray:none" /><path
     d="m 430.76375,-334.21094 c 0,0 8.4e-4,-15.10866 0,-16.74666 -8.4e-4,-2.19132 1.53188,-3.78371 4.21814,-3.78371 1.60603,0 58.40436,0.002 59.56296,0 1.84364,-0.003 3.464,0.90559 3.464,3.62489 0,0.76536 0,1.77824 0,1.77824 v 30.35754"
     stroke-miterlimit="10"
     id="path1429"
     inkscape:connector-curvature="0"
     style="fill:none;stroke:#424143;stroke-width:2.57180023;stroke-linejoin:round;stroke-miterlimit:10" /><path
     d="m 498.20433,-349.33818 c 0,0 -0.52663,0 1.39538,0 1.57991,0 2.75199,1.62702 2.75199,2.97358 0,1.05596 0,27.3848 0,27.3848"
     stroke-miterlimit="10"
     id="path1431"
     inkscape:connector-curvature="0"
     style="fill:none;stroke:#424143;stroke-width:2.57180023;stroke-linejoin:round;stroke-miterlimit:10" /><path
     style="fill:none;stroke:#424143;stroke-width:2.57180023;stroke-linejoin:round;stroke-miterlimit:10"
     inkscape:connector-curvature="0"
     id="path1433"
     stroke-miterlimit="10"
     d="m 430.76375,-339.40387 c 0,0 8.4e-4,57.52174 0,60.2777 -8.4e-4,3.68695 1.53188,6.36617 4.21814,6.36617 1.60603,0 58.40436,-0.003 59.56296,0 1.84364,0.006 3.464,-1.52368 3.464,-6.09895 v -2.99192 -51.07713"
     sodipodi:nodetypes="ccscscc" /><path
     sodipodi:nodetypes="cscccc"
     d="m 435.13517,-273.64795 c -8.4e-4,3.68695 1.53188,6.36617 4.21815,6.36617 1.60603,0 52.31167,0.0749 53.47027,0.0775 4.13107,-0.006 9.19535,0.90351 9.52936,-5.64591 l 0.0273,-8.59103 v -46.00852"
     stroke-miterlimit="10"
     id="path1435"
     inkscape:connector-curvature="0"
     style="fill:none;stroke:#424143;stroke-width:2.57180023;stroke-linejoin:round;stroke-miterlimit:10" /><line
     style="fill:none;stroke:#424143;stroke-width:1.28590012;stroke-linecap:round;stroke-linejoin:round;stroke-miterlimit:10"
     id="line1437"
     stroke-miterlimit="10"
     x1="438.55399"
     y1="-330.49893"
     x2="471.16211"
     y2="-330.49893" /><line
     style="fill:none;stroke:#424143;stroke-width:1.28590012;stroke-linecap:round;stroke-linejoin:round;stroke-miterlimit:10"
     id="line1439"
     stroke-miterlimit="10"
     x1="438.54648"
     y1="-322.6882"
     x2="471.16278"
     y2="-322.6882" /><rect
     style="opacity:1;fill:none;fill-opacity:1;stroke:#424143;stroke-width:1.28599989;stroke-linejoin:round;stroke-miterlimit:4;stroke-dasharray:none;stroke-opacity:1"
     id="rect1441"
     width="15.06895"
     height="11.272432"
     x="475.73941"
     y="-331.77927"
     ry="0.60260445" /><g
     aria-label="Feb"
     style="font-size:20.02172661px;font-family:CenturyGothic;fill:#424143;stroke-width:1"
     id="text1443"><path
       d="m 439.89439,-315.42411 h 7.20508 v 1.41755 h -5.77775 v 4.49707 h 5.77775 v 1.41755 h -5.77775 v 7.04867 h -1.42733 z"
       style="font-size:20.02172661px;font-family:CenturyGothic;fill:#424143;stroke-width:1"
       id="path1432" /><path
       d="m 458.32259,-304.57249 1.15359,0.60612 q -0.56702,1.11449 -1.31001,1.79883 -0.743,0.68434 -1.67174,1.04606 -0.92874,0.35194 -2.10189,0.35194 -2.60048,0 -4.06691,-1.70106 -1.46644,-1.71084 -1.46644,-3.86162 0,-2.02368 1.24158,-3.60743 1.57398,-2.0139 4.21356,-2.0139 2.71779,0 4.34065,2.06278 1.15359,1.45666 1.17315,3.63676 h -9.56116 q 0.0391,1.85749 1.18292,3.05019 1.14382,1.18292 2.82534,1.18292 0.81142,0 1.57397,-0.28351 0.77232,-0.28351 1.31001,-0.75277 0.5377,-0.46926 1.16338,-1.51531 z m 0,-2.86444 q -0.27374,-1.09494 -0.80166,-1.74995 -0.51814,-0.655 -1.37844,-1.05583 -0.86031,-0.40083 -1.80861,-0.40083 -1.56419,0 -2.68846,1.00696 -0.82121,0.73321 -1.24158,2.19965 z"
       style="font-size:20.02172661px;font-family:CenturyGothic;fill:#424143;stroke-width:1"
       id="path1434" /><path
       d="m 462.47749,-301.04327 v -14.74256 h 1.35889 v 5.93417 q 0.86031,-1.05583 1.92592,-1.57397 1.06561,-0.52792 2.33652,-0.52792 2.25831,0 3.85184,1.64241 1.6033,1.63263 1.6033,3.96915 0,2.30719 -1.61308,3.93982 -1.61308,1.63263 -3.88117,1.63263 -1.30023,0 -2.35607,-0.55724 -1.05583,-0.55725 -1.86726,-1.67174 v 1.95525 z m 5.47469,-1.04606 q 1.14382,0 2.11166,-0.55725 0.96785,-0.56702 1.53487,-1.58375 0.5768,-1.01672 0.5768,-2.15077 0,-1.13404 -0.5768,-2.16055 -0.5768,-1.0265 -1.55442,-1.59352 -0.96785,-0.5768 -2.07256,-0.5768 -1.12427,0 -2.141,0.5768 -1.00695,0.56702 -1.55442,1.53487 -0.53769,0.96784 -0.53769,2.1801 0,1.84771 1.21225,3.08929 1.22203,1.24158 3.00131,1.24158 z"
       style="font-size:20.02172661px;font-family:CenturyGothic;fill:#424143;stroke-width:1"
       id="path1436" /></g></svg>