<?xml version="1.0" encoding="UTF-8" standalone="no"?>
<!-- Generator: Adobe Illustrator 14.0.0, SVG Export Plug-In . SVG Version: 6.00 Build 43363)  -->

<svg
   xmlns:dc="http://purl.org/dc/elements/1.1/"
   xmlns:cc="http://creativecommons.org/ns#"
   xmlns:rdf="http://www.w3.org/1999/02/22-rdf-syntax-ns#"
   xmlns:svg="http://www.w3.org/2000/svg"
   xmlns="http://www.w3.org/2000/svg"
   xmlns:sodipodi="http://sodipodi.sourceforge.net/DTD/sodipodi-0.dtd"
   xmlns:inkscape="http://www.inkscape.org/namespaces/inkscape"
   version="1.1"
   id="Layer_1"
   inkscape:version="0.92.2 (5c3e80d, 2017-08-06)"
   sodipodi:docname="minutes_sep_23rd.svg"
   x="0px"
   y="0px"
   width="100"
   height="100"
   viewBox="416.572 -360.945 100 100"
   enable-background="new 416.572 -360.945 595.275 841.89"
   xml:space="preserve"
   inkscape:export-filename="C:\Users\holly.jones\Downloads\volcano_pixelhint_12th_jan-20180116T210822Z-001\volcano_pixelhint_12th_jan\volcano_pixelhint\img\hedges_icon_100_white.png"
   inkscape:export-xdpi="149.93106"
   inkscape:export-ydpi="149.93106"><metadata
     id="metadata326"><rdf:RDF><cc:Work
         rdf:about=""><dc:format>image/svg+xml</dc:format><dc:type
           rdf:resource="http://purl.org/dc/dcmitype/StillImage" /><dc:title /></cc:Work></rdf:RDF></metadata><defs
     id="defs324"><clipPath
       clipPathUnits="userSpaceOnUse"
       id="clipPath1282"><rect
         ry="9.0558882"
         y="-355.80136"
         x="430.07397"
         height="89.648712"
         width="90.322769"
         id="rect1284"
         style="opacity:1;fill:#b8e69a;fill-opacity:1;stroke:none;stroke-width:1.99999988;stroke-linecap:round;stroke-linejoin:round;stroke-miterlimit:8.36363602;stroke-dasharray:none;stroke-opacity:1" /></clipPath></defs><sodipodi:namedview
     id="namedview230"
     inkscape:pageshadow="2"
     inkscape:window-width="1920"
     inkscape:window-height="1001"
     inkscape:window-x="-9"
     inkscape:window-y="-9"
     inkscape:current-layer="g1520"
     inkscape:pageopacity="0"
     gridtolerance="10"
     inkscape:zoom="2.8567114"
     inkscape:cy="34.269855"
     guidetolerance="10"
     bordercolor="#666666"
     showgrid="false"
     borderopacity="1"
     objecttolerance="10"
     inkscape:cx="67.768781"
     pagecolor="#ffffff"
     inkscape:window-maximized="1"
     inkscape:snap-nodes="false" /><g
     id="g1520"
     transform="translate(617.14295,-85.219098)"><g
       aria-label="23rd"
       style="font-size:20.78250694px;font-family:CenturyGothic;fill:#424143;stroke-width:1"
       id="text5039"><path
         d="m -179.93914,-205.44706 h -1.43083 q 0.0609,-2.2122 1.47142,-3.63288 1.42068,-1.42068 3.50096,-1.42068 2.05999,0 3.32845,1.32935 1.27861,1.32935 1.27861,3.13564 0,1.26846 -0.60886,2.38471 -0.60886,1.1061 -2.36442,3.00372 l -3.71406,4.00835 h 6.89029 v 1.44097 h -10.13756 l 5.70302,-6.15966 q 1.73525,-1.85703 2.25279,-2.75002 0.52768,-0.90315 0.52768,-1.89763 0,-1.25831 -0.94374,-2.16146 -0.93359,-0.91329 -2.29338,-0.91329 -1.43083,0 -2.38471,0.95388 -0.94374,0.95389 -1.07566,2.679 z"
         style="font-size:20.78250694px;font-family:CenturyGothic;fill:#424143;stroke-width:1"
         id="path1451" /><path
         d="m -168.06632,-206.66479 h -1.52216 q 0.41606,-1.84688 1.59319,-2.84135 1.17714,-0.99448 2.78048,-0.99448 1.16698,0 2.1716,0.53783 1.01478,0.52768 1.56275,1.43083 0.55813,0.90314 0.55813,1.88747 0,1.92806 -1.91792,3.05446 1.07566,0.43635 1.7657,1.27861 0.97418,1.18728 0.97418,2.6587 0,1.26846 -0.66975,2.4253 -0.66975,1.14669 -1.82659,1.77585 -1.15683,0.62916 -2.58766,0.62916 -1.92807,0 -3.21683,-1.1061 -1.28875,-1.11625 -1.68451,-3.26756 h 1.46127 q 0.38561,1.45112 1.1061,2.10057 0.92344,0.82197 2.35426,0.82197 1.62364,0 2.60796,-0.97418 0.98433,-0.97418 0.98433,-2.28324 0,-0.8727 -0.49724,-1.63378 -0.48709,-0.76108 -1.3192,-1.14669 -0.82196,-0.38561 -2.55722,-0.47694 v -1.36994 q 1.02492,0 1.86718,-0.35517 0.84226,-0.36532 1.21772,-0.92344 0.38562,-0.55813 0.38562,-1.21773 0,-0.97418 -0.78138,-1.68452 -0.77122,-0.71034 -1.9585,-0.71034 -0.96404,0 -1.66423,0.54798 -0.70019,0.53783 -1.18728,1.83673 z"
         style="font-size:20.78250694px;font-family:CenturyGothic;fill:#424143;stroke-width:1"
         id="path1453" /><path
         d="m -158.24334,-206.23858 h 1.45112 v 1.61348 q 0.64946,-0.95388 1.36994,-1.42068 0.72049,-0.47694 1.50186,-0.47694 0.58857,0 1.25832,0.37547 l -0.74078,1.19743 q -0.4465,-0.19281 -0.75093,-0.19281 -0.71034,0 -1.36994,0.58857 -0.6596,0.57842 -1.00463,1.80629 -0.26384,0.94374 -0.26384,3.81554 v 3.73435 h -1.45112 z"
         style="font-size:20.78250694px;font-family:CenturyGothic;fill:#424143;stroke-width:1"
         id="path1455" /><path
         d="m -140.43411,-210.50062 v 15.30274 h -1.40039 v -1.89762 q -0.89299,1.08581 -2.00924,1.63378 -1.1061,0.54798 -2.4253,0.54798 -2.34412,0 -4.00835,-1.69467 -1.65408,-1.70481 -1.65408,-4.14026 0,-2.38471 1.67438,-4.07938 1.67437,-1.69467 4.02864,-1.69467 1.35979,0 2.45574,0.57842 1.1061,0.57842 1.93821,1.73526 v -6.29158 z m -5.68272,5.34784 q -1.18728,0 -2.1919,0.58857 -1.00463,0.57842 -1.60334,1.63378 -0.58857,1.05536 -0.58857,2.2325 0,1.16698 0.59872,2.23249 0.59871,1.06551 1.60333,1.66423 1.01478,0.58856 2.17161,0.58856 1.16699,0 2.2122,-0.58856 1.04522,-0.58857 1.60334,-1.59319 0.56827,-1.00463 0.56827,-2.26294 0,-1.91792 -1.26846,-3.20668 -1.25832,-1.28876 -3.1052,-1.28876 z"
         style="font-size:20.78250694px;font-family:CenturyGothic;fill:#424143;stroke-width:1"
         id="path1457" /></g><rect
       ry="0.4839977"
       y="-244.4324"
       x="-141.58609"
       height="9.0537529"
       width="13.156449"
       id="rect4989"
       style="opacity:1;fill:#b8e69a;fill-opacity:1;stroke:none;stroke-width:1.28599989;stroke-linejoin:round;stroke-miterlimit:4;stroke-dasharray:none;stroke-opacity:1" /><path
       d="M -135.62582,-181.22127"
       stroke-miterlimit="10"
       id="path4991"
       inkscape:connector-curvature="0"
       style="fill:none;stroke:#010101;stroke-width:3.43649983;stroke-linejoin:round;stroke-miterlimit:10" /><line
       y2="-260.83801"
       x2="-126.49686"
       y1="-260.83801"
       x1="-178.40546"
       stroke-miterlimit="10"
       id="line4993"
       style="fill:none;stroke:#424143;stroke-width:1.28590012;stroke-linecap:round;stroke-linejoin:round;stroke-miterlimit:10" /><line
       y2="-253.02728"
       x2="-126.2396"
       y1="-253.02728"
       x1="-178.40201"
       stroke-miterlimit="10"
       id="line4995"
       style="fill:none;stroke:#424143;stroke-width:1.28599989;stroke-linecap:round;stroke-linejoin:round;stroke-miterlimit:10;stroke-dasharray:none" /><path
       d="m -186.3792,-248.99184 c 0,0 8.4e-4,-15.10866 0,-16.74666 -8.4e-4,-2.19132 1.53188,-3.78371 4.21814,-3.78371 1.60603,0 58.40436,0.002 59.56296,0 1.84364,-0.003 3.464,0.90559 3.464,3.62489 0,0.76536 0,1.77824 0,1.77824 v 30.35754"
       stroke-miterlimit="10"
       id="path4997"
       inkscape:connector-curvature="0"
       style="fill:none;stroke:#424143;stroke-width:2.57180023;stroke-linejoin:round;stroke-miterlimit:10" /><path
       d="m -118.93862,-264.11908 c 0,0 -0.52663,0 1.39538,0 1.57991,0 2.75199,1.62702 2.75199,2.97358 0,1.05596 0,27.3848 0,27.3848"
       stroke-miterlimit="10"
       id="path4999"
       inkscape:connector-curvature="0"
       style="fill:none;stroke:#424143;stroke-width:2.57180023;stroke-linejoin:round;stroke-miterlimit:10" /><path
       style="fill:none;stroke:#424143;stroke-width:2.57180023;stroke-linejoin:round;stroke-miterlimit:10"
       inkscape:connector-curvature="0"
       id="path5001"
       stroke-miterlimit="10"
       d="m -186.3792,-254.18477 c 0,0 8.4e-4,57.52174 0,60.2777 -8.4e-4,3.68695 1.53188,6.36617 4.21814,6.36617 1.60603,0 58.40436,-0.003 59.56296,0 1.84364,0.006 3.464,-1.52368 3.464,-6.09895 v -2.99192 -51.07713"
       sodipodi:nodetypes="ccscscc" /><path
       sodipodi:nodetypes="cscccc"
       d="m -182.00778,-188.42885 c -8.4e-4,3.68695 1.53188,6.36617 4.21815,6.36617 1.60603,0 52.31167,0.0749 53.47027,0.0775 4.13107,-0.006 9.19535,0.90351 9.52936,-5.64591 l 0.0273,-8.59103 v -46.00852"
       stroke-miterlimit="10"
       id="path5003"
       inkscape:connector-curvature="0"
       style="fill:none;stroke:#424143;stroke-width:2.57180023;stroke-linejoin:round;stroke-miterlimit:10" /><line
       style="fill:none;stroke:#424143;stroke-width:1.28590012;stroke-linecap:round;stroke-linejoin:round;stroke-miterlimit:10"
       id="line5005"
       stroke-miterlimit="10"
       x1="-178.58896"
       y1="-245.27985"
       x2="-145.98083"
       y2="-245.27985" /><line
       style="fill:none;stroke:#424143;stroke-width:1.28590012;stroke-linecap:round;stroke-linejoin:round;stroke-miterlimit:10"
       id="line5007"
       stroke-miterlimit="10"
       x1="-178.59647"
       y1="-237.46912"
       x2="-145.98016"
       y2="-237.46912" /><rect
       style="opacity:1;fill:none;fill-opacity:1;stroke:#424143;stroke-width:1.28599989;stroke-linejoin:round;stroke-miterlimit:4;stroke-dasharray:none;stroke-opacity:1"
       id="rect5019"
       width="15.06895"
       height="11.272432"
       x="-141.40353"
       y="-246.56018"
       ry="0.60260445" /><g
       aria-label="Sept"
       style="font-size:20.02172661px;font-family:CenturyGothic;fill:#424143;stroke-width:1"
       id="text5059"><path
         d="m -180.73455,-218.50288 1.22203,-0.73321 q 1.29047,2.37562 2.98175,2.37562 0.72345,0 1.3589,-0.33239 0.63546,-0.34217 0.96785,-0.90919 0.33239,-0.56702 0.33239,-1.20248 0,-0.72344 -0.48881,-1.41755 -0.67456,-0.95807 -2.46361,-2.30719 -1.79883,-1.3589 -2.23876,-1.96503 -0.76255,-1.01672 -0.76255,-2.19965 0,-0.93852 0.44971,-1.71084 0.44971,-0.77232 1.26113,-1.21225 0.82121,-0.44971 1.77928,-0.44971 1.01673,0 1.89659,0.50837 0.88964,0.49858 1.87704,1.8477 l -1.17315,0.88964 q -0.81143,-1.07538 -1.38823,-1.41755 -0.56702,-0.34217 -1.24158,-0.34217 -0.87008,0 -1.42733,0.52792 -0.54747,0.52791 -0.54747,1.30023 0,0.46926 0.19553,0.90919 0.19552,0.43993 0.71366,0.95808 0.28351,0.27373 1.85749,1.4371 1.86726,1.37845 2.56137,2.45384 0.69411,1.07538 0.69411,2.16054 0,1.5642 -1.1927,2.7178 -1.18292,1.15359 -2.88399,1.15359 -1.31001,0 -2.37562,-0.69411 -1.06561,-0.70389 -1.96503,-2.3463 z"
         style="font-size:20.02172661px;font-family:CenturyGothic;fill:#424143;stroke-width:1"
         id="path1460" /><path
         d="m -160.54662,-219.35341 1.15359,0.60613 q -0.56702,1.11449 -1.31001,1.79882 -0.743,0.68434 -1.67174,1.04606 -0.92874,0.35195 -2.10189,0.35195 -2.60048,0 -4.06691,-1.70107 -1.46644,-1.71084 -1.46644,-3.86161 0,-2.02368 1.24158,-3.60743 1.57398,-2.01391 4.21356,-2.01391 2.71779,0 4.34065,2.06279 1.15359,1.45666 1.17315,3.63676 h -9.56116 q 0.0391,1.85748 1.18292,3.05018 1.14382,1.18293 2.82534,1.18293 0.81142,0 1.57397,-0.28351 0.77232,-0.28351 1.31001,-0.75277 0.5377,-0.46926 1.16338,-1.51532 z m 0,-2.86444 q -0.27374,-1.09493 -0.80165,-1.74994 -0.51814,-0.65501 -1.37845,-1.05583 -0.86031,-0.40083 -1.80861,-0.40083 -1.56419,0 -2.68846,1.00695 -0.8212,0.73322 -1.24158,2.19965 z"
         style="font-size:20.02172661px;font-family:CenturyGothic;fill:#424143;stroke-width:1"
         id="path1462" /><path
         d="m -156.46016,-226.46073 h 1.3589 v 1.95525 q 0.81143,-1.11449 1.86726,-1.67174 1.05583,-0.55725 2.35607,-0.55725 2.26809,0 3.88117,1.63264 1.61307,1.63263 1.61307,3.93004 0,2.3463 -1.6033,3.98871 -1.59352,1.63263 -3.85183,1.63263 -1.27091,0 -2.33652,-0.52792 -1.06561,-0.52792 -1.92592,-1.57397 v 5.71909 h -1.3589 z m 5.47469,1.04606 q -1.77927,0 -3.0013,1.24158 -1.21225,1.24158 -1.21225,3.08929 0,1.21225 0.53769,2.1801 0.54747,0.96785 1.55442,1.53487 1.01673,0.56702 2.141,0.56702 1.10471,0 2.07256,-0.56702 0.97762,-0.5768 1.55442,-1.60331 0.5768,-1.0265 0.5768,-2.15077 0,-1.13404 -0.5768,-2.15077 -0.56702,-1.01673 -1.53487,-1.57397 -0.96785,-0.56702 -2.11167,-0.56702 z"
         style="font-size:20.02172661px;font-family:CenturyGothic;fill:#424143;stroke-width:1"
         id="path1464" /><path
         d="m -141.63939,-230.41033 h 1.37845 v 3.9496 h 2.17032 v 1.17315 h -2.17032 v 9.46339 h -1.37845 v -9.46339 h -1.86726 v -1.17315 h 1.86726 z"
         style="font-size:20.02172661px;font-family:CenturyGothic;fill:#424143;stroke-width:1"
         id="path1466" /></g></g><text
     xml:space="preserve"
     style="font-style:normal;font-weight:normal;font-size:40px;line-height:125%;font-family:Sans;letter-spacing:0px;word-spacing:0px;fill:#000000;fill-opacity:1;stroke:none;stroke-width:1px;stroke-linecap:butt;stroke-linejoin:miter;stroke-opacity:1"
     x="566.7934"
     y="-274.51813"
     id="text5063"><tspan
       sodipodi:role="line"
       id="tspan5061"
       x="566.7934"
       y="-239.1275" /></text>
<path
     d="M 1049.2848,-347.50267"
     stroke-miterlimit="10"
     id="path1720"
     inkscape:connector-curvature="0"
     style="fill:none;stroke:#010101;stroke-width:2.76591682;stroke-linejoin:round;stroke-miterlimit:10" /></svg>