<?xml version="1.0" encoding="UTF-8" standalone="no"?>
<!-- Generator: Adobe Illustrator 14.0.0, SVG Export Plug-In . SVG Version: 6.00 Build 43363)  -->

<svg
   xmlns:dc="http://purl.org/dc/elements/1.1/"
   xmlns:cc="http://creativecommons.org/ns#"
   xmlns:rdf="http://www.w3.org/1999/02/22-rdf-syntax-ns#"
   xmlns:svg="http://www.w3.org/2000/svg"
   xmlns="http://www.w3.org/2000/svg"
   xmlns:sodipodi="http://sodipodi.sourceforge.net/DTD/sodipodi-0.dtd"
   xmlns:inkscape="http://www.inkscape.org/namespaces/inkscape"
   version="1.1"
   id="Layer_1"
   inkscape:version="0.92.2 (5c3e80d, 2017-08-06)"
   sodipodi:docname="minutes_folder.svg"
   x="0px"
   y="0px"
   width="100"
   height="100"
   viewBox="416.572 -360.945 100 100"
   enable-background="new 416.572 -360.945 595.275 841.89"
   xml:space="preserve"
   inkscape:export-filename="C:\Users\holly.jones\Downloads\volcano_pixelhint_12th_jan-20180116T210822Z-001\volcano_pixelhint_12th_jan\volcano_pixelhint\img\hedges_icon_100_white.png"
   inkscape:export-xdpi="149.93106"
   inkscape:export-ydpi="149.93106"><metadata
     id="metadata326"><rdf:RDF><cc:Work
         rdf:about=""><dc:format>image/svg+xml</dc:format><dc:type
           rdf:resource="http://purl.org/dc/dcmitype/StillImage" /><dc:title /></cc:Work></rdf:RDF></metadata><defs
     id="defs324" /><sodipodi:namedview
     id="namedview230"
     inkscape:pageshadow="2"
     inkscape:window-width="1920"
     inkscape:window-height="1001"
     inkscape:window-x="-9"
     inkscape:window-y="-9"
     inkscape:current-layer="Layer_1"
     inkscape:pageopacity="0"
     gridtolerance="10"
     inkscape:zoom="4.04"
     inkscape:cy="59.058248"
     guidetolerance="10"
     bordercolor="#666666"
     showgrid="false"
     borderopacity="1"
     objecttolerance="10"
     inkscape:cx="-35.75488"
     pagecolor="#ffffff"
     inkscape:window-maximized="1"
     inkscape:snap-nodes="false" /><text
     xml:space="preserve"
     style="font-style:normal;font-weight:normal;font-size:40px;line-height:125%;font-family:Sans;letter-spacing:0px;word-spacing:0px;fill:#000000;fill-opacity:1;stroke:none;stroke-width:1px;stroke-linecap:butt;stroke-linejoin:miter;stroke-opacity:1"
     x="566.7934"
     y="-274.51813"
     id="text5063"><tspan
       sodipodi:role="line"
       id="tspan5061"
       x="566.7934"
       y="-239.1275" /></text>
<g
     id="g1288"
     transform="translate(-1.2334953e-6)"><path
       id="path1049"
       inkscape:connector-curvature="0"
       d="m 667.16579,-553.60196 v -19.96165 l 17.61966,-13.91384 17.61805,-13.91384 17.39,13.75806 17.39,13.75644 v 20.11905 20.11905 h -11.14346 -11.14428 l -0.086,-17.57871 c -0.0803,-16.1199 -0.13147,-17.65985 -0.63383,-18.57667 -1.03635,-1.89451 -1.33013,-1.94156 -12.15628,-1.94156 -10.82695,0 -11.11911,0.0471 -12.15547,1.94156 -0.50235,0.91763 -0.5551,2.45758 -0.63382,18.57667 l -0.086,17.57871 h -10.98927 -8.37362 l -2.61402,-2.69774 v -17.26553 z"
       style="fill:#f3ba93;fill-opacity:1;stroke-width:1" /><path
       id="path1051"
       inkscape:connector-curvature="0"
       d="m 659.26286,-580.81708 c -0.53887,-0.74968 -0.97954,-1.48882 -0.97954,-1.64136 0,-0.15253 9.52765,-8.23277 22.13191,-18.75354 20.65164,-17.23795 22.97431,-19.08864 23.48396,-18.71947 0.30758,0.22637 3.92144,3.30138 8.03034,6.83725 4.1089,3.53424 7.66351,6.4267 7.90292,6.4267 0.79451,0 1.17757,-0.72697 1.17757,-2.2304 v -1.4864 h 3.87112 3.87355 v 5.87742 5.87743 l 9.75651,8.37718 9.75732,8.37638 -0.82535,1.24543 c -0.45203,0.6864 -0.98928,1.18294 -1.19055,1.10505 -0.20126,-0.0771 -9.48545,-7.35732 -20.62972,-16.17669 -11.14428,-8.82019 -20.73767,-16.36007 -21.31793,-16.75601 -0.97143,-0.66368 -1.11264,-0.68315 -1.77325,-0.25233 -0.3936,0.25801 -10.09574,7.87497 -21.55895,16.92477 -11.46484,9.05061 -20.20934,15.92112 -20.396,16.06716 -0.21263,0.16958 -0.68657,-0.22636 -1.31391,-1.09857 z"
       style="fill:#f3ba93;fill-opacity:1;stroke-width:1" /><g
       transform="matrix(0.8115549,0,0,0.81135009,-31.32623,-519.78032)"
       style="stroke-width:1.2323581"
       id="g1057"><path
         style="fill:none;stroke:#424143;stroke-width:3.17196631;stroke-linejoin:round;stroke-miterlimit:10"
         inkscape:connector-curvature="0"
         d="m 962.256,-79.187 c -4.938,-4.232 -21.044,-18.042 -21.757,-18.682 -0.843,-0.756 -1.199,-1.666 -1.198,-2.662 0.004,-3.333 0.012,-10.706 -0.002,-11.813 -0.018,-1.438 -0.848,-1.982 -2.08,-1.98 -3.107,0.004 -8.659,0.009 -9.219,-0.003 -0.781,-0.017 -1.252,0.579 -1.252,1.141 0,0.562 0,3.511 0,3.511 0,0 -17.313,-15.01 -18.343,-15.761 -1.343,-1.001 -2.542,-1.123 -3.664,-0.186 -9.58,7.996 -55.295,46.142 -55.919,46.635 -0.697,0.55 -0.76,1.687 -0.316,2.318 0.444,0.631 1.587,2.19 2.261,3.199 0.674,1.009 2.015,1.127 3.082,0.287 0.739,-0.582 43.011,-33.969 51.11,-40.366 0.859,-0.678 2.16,-0.4 2.766,0.08 0.542,0.429 41.925,33.176 50.587,40.031 1.014,0.802 2.185,0.328 2.577,-0.271 0.392,-0.599 1.615,-2.362 1.988,-3.029 0.373,-0.667 0.276,-1.68 -0.621,-2.449 z"
         stroke-miterlimit="10"
         id="path1055" /></g><path
       id="path1061"
       stroke-miterlimit="10"
       d="m 692.17496,-551.91058 v -16.584 c 0,-1.77848 1.09966,-3.21457 2.4582,-3.21457 h 18.20886 c 1.36179,0 2.46469,1.43609 2.46469,3.21457 0,0 0,30.83535 0,32.23087 0,1.39472 0.79127,2.7375 2.16036,2.78618 1.08992,0.0381 14.3767,0.0324 19.85794,0.0211 1.4048,-0.002 2.56127,-0.93143 2.54098,-2.60444 -0.0146,-1.16104 -0.009,-28.46864 -0.006,-36.78173 0,-1.49857 -0.55673,-2.80565 -1.60283,-3.6454 -0.86917,-0.69776 -24.38641,-19.26145 -32.3153,-25.52021 -2.0086,-1.49694 -3.73315,-1.19268 -5.14364,-0.0122 -0.28647,0.23935 -1.83167,1.47017 -4.11214,3.27867 l -2.51907,1.94237 c -10.07302,7.95123 -24.21599,19.11784 -24.88633,19.65577 -1.0461,0.83975 -1.60282,2.14683 -1.60282,3.64539 0.002,8.31391 0.008,35.62151 -0.006,36.78174 -0.0203,1.67301 1.13536,2.602 2.54097,2.60443 5.48125,0.0114 18.76802,0.017 19.85794,-0.0211 1.36991,-0.0487 2.16036,-1.39147 2.16036,-2.78618 0,-0.50709 0,-4.91191 0,-10.31063 z"
       inkscape:connector-curvature="0"
       style="fill:none;stroke:#424143;stroke-width:2.57389998;stroke-linejoin:round;stroke-miterlimit:10" /></g><g
     id="g1292"><path
       style="opacity:1;fill:#f3ba93;fill-opacity:1;stroke:none;stroke-width:2.5;stroke-linecap:square;stroke-linejoin:miter;stroke-miterlimit:4;stroke-dasharray:none;stroke-opacity:1"
       d="m 857.3921,-542.98972 c -3.6004,-0.0455 -4.35886,-0.29128 -5.31735,-1.723 -0.45187,-0.675 -0.49692,-1.11462 -0.49955,-4.87516 -0.002,-2.27328 -0.0763,-4.18325 -0.16599,-4.24437 -0.14754,-0.10051 -58.47184,-0.15252 -59.04373,-0.0526 -0.13317,0.0229 -0.23274,1.47834 -0.22141,3.23355 0.0113,1.75523 -0.002,3.67463 -0.0304,4.26535 -0.062,1.30509 -0.96503,2.6902 -2.02594,3.10744 -0.89742,0.35294 -7.50376,0.41528 -8.63894,0.0815 -0.94289,-0.27722 -1.93528,-1.37007 -2.12003,-2.33468 -0.19371,-1.01136 -0.20401,-23.94186 -0.0118,-26.38279 0.24423,-3.10241 1.23346,-7.19487 2.51286,-10.39581 0.65251,-1.6325 1.17225,-3.04235 1.155,-3.13302 -0.0172,-0.0907 -0.73394,-0.16892 -1.59264,-0.17391 -2.00787,-0.0117 -2.90137,-0.28849 -3.66757,-1.13633 -0.72576,-0.80312 -1.00506,-2.04662 -0.9182,-4.08814 0.0732,-1.71957 0.65877,-2.80488 1.61179,-2.98707 0.36749,-0.0703 2.17556,0.263 4.01798,0.74058 1.84242,0.47755 3.41157,0.76967 3.48698,0.64913 0.0755,-0.12054 1.30262,-3.09227 2.72708,-6.60389 1.42447,-3.51161 2.90538,-6.87787 3.29088,-7.48057 0.84757,-1.32501 2.64719,-2.76114 4.36837,-3.48601 1.21895,-0.51336 2.23082,-0.5365 25.14468,-0.57361 19.18453,-0.0311 24.14474,0.0368 25.24962,0.34582 1.71382,0.47929 3.80368,1.98383 4.85939,3.49838 0.46035,0.66043 1.95912,3.98817 3.50426,7.78059 1.48494,3.64463 2.73712,6.65956 2.78264,6.69985 0.0456,0.0403 1.5758,-0.34725 3.40056,-0.86143 3.71877,-1.04763 4.43742,-1.03882 5.24908,0.0644 0.37386,0.50816 0.44601,0.93636 0.44965,2.6686 0.005,2.35236 -0.29413,3.17359 -1.48558,4.07994 -0.79332,0.6035 -0.95038,0.63938 -2.8001,0.63958 -2.31725,3.1e-4 -2.24699,-0.28096 -0.80038,3.20405 0.84203,2.02851 1.15721,3.21021 1.87623,7.03467 l 0.86425,4.59661 -0.0344,12.52546 c -0.0189,6.90077 -0.15247,12.81212 -0.29735,13.16385 -0.40906,0.99302 -1.51026,1.85657 -2.59538,2.03525 -0.53337,0.0879 -2.46136,0.14083 -4.28441,0.11777 z m -0.45055,-17.79373 c 0.5321,-0.41187 1.09571,-1.1217 1.2525,-1.5774 0.15678,-0.45569 0.28228,-2.69971 0.27891,-4.98669 l -0.006,-4.15814 -0.79524,-1.04183 c -0.4374,-0.57299 -1.11031,-1.18994 -1.49534,-1.37099 -1.07153,-0.50383 -15.90243,-0.45052 -17.07653,0.0614 -0.95377,0.41583 -1.75067,1.34816 -2.07301,2.42527 -0.27029,0.9033 -0.26798,7.09539 0.003,8.52055 0.26237,1.37881 1.23663,2.45386 2.53612,2.79847 0.85894,0.22779 14.43974,0.37507 15.79121,0.17125 0.3393,-0.0511 1.05225,-0.43001 1.58432,-0.84187 z m -51.27013,-0.29438 c 0.30072,-0.32863 0.66362,-0.91873 0.80648,-1.31134 0.35864,-0.98577 0.34498,-8.47384 -0.0172,-9.41271 -0.3382,-0.87679 -1.51523,-1.90658 -2.52171,-2.20629 -0.71911,-0.21416 -14.89461,-0.29855 -15.9592,-0.095 -0.85998,0.1644 -2.19842,1.29229 -2.55191,2.15045 -0.42601,1.03418 -0.46334,7.74603 -0.0515,9.26682 0.35633,1.31623 1.06548,2.12703 2.23328,2.55371 0.40406,0.14763 3.86138,0.28192 7.68293,0.29841 7.58584,0.0327 9.41067,-0.186 10.37883,-1.24402 z m 50.19733,-21.11952 c 0.35726,-0.28121 0.85313,-0.99913 1.10192,-1.59538 0.75791,-1.81638 0.46246,-2.65743 -4.11128,-11.70325 -4.07968,-8.06869 -4.9908,-9.59004 -6.4612,-10.78878 -1.68344,-1.37242 -1.0276,-1.33705 -24.71061,-1.33302 -20.45618,0.003 -22.49198,0.0447 -23.38585,0.47401 -1.26143,0.6058 -2.67662,1.9489 -3.69039,3.50243 -1.45429,2.22856 -8.12254,16.76541 -8.20635,17.88989 -0.1483,1.98982 0.99446,3.73699 2.84551,4.35047 0.65305,0.21645 10.40748,0.30181 32.06253,0.28054 17.11815,-0.0168 31.29527,-0.017 31.50471,-3.3e-4 0.67256,0.0534 2.38159,-0.54951 3.05101,-1.07658 z"
       id="path1093"
       inkscape:connector-curvature="0" /><path
       style="fill:none;stroke:#424143;stroke-width:2.5;stroke-miterlimit:4;stroke-dasharray:none;stroke-opacity:1"
       inkscape:connector-curvature="0"
       d="m 866.20463,-596.82038 c -0.4232,1.4e-4 -0.85698,0.0589 -1.29069,0.18036 l -4.5529,1.2595 -4.81833,-11.7479 c -1.29937,-3.16888 -4.88338,-5.79704 -8.35577,-6.29069 l -47.79435,0.0237 c -3.47223,0.4971 -7.05558,3.12912 -8.34979,6.29897 l -4.80224,11.73469 -4.49374,-1.23703 c -0.43188,-0.12085 -0.86773,-0.18123 -1.28892,-0.18101 -2.31709,0.004 -3.99802,1.77689 -3.9968,4.22048 l 10e-4,2.49818 c 0.001,2.85448 2.3197,5.17384 5.1652,5.17244 l 0.33091,-1.5e-4 -0.68688,1.67808 c -1.33732,3.27169 -2.42554,8.81084 -2.42377,12.34834 l 0.0118,23.44036 c 10e-4,2.85214 2.31968,5.17383 5.16518,5.17242 l 6.20747,-0.003 c 2.84782,-10e-4 5.16143,-2.3254 5.16001,-5.17755 l -0.003,-5.76087 55.86085,-0.0277 0.003,5.76084 c 10e-4,2.85215 2.31835,5.17385 5.16551,5.17244 l 6.20548,-0.003 c 2.84716,-10e-4 5.16209,-2.32539 5.16067,-5.17753 l -0.0117,-23.44036 c -0.002,-3.5375 -1.09622,-9.07557 -2.4364,-12.34594 l -0.68856,-1.6774 0.39697,-2.3e-4 c 2.84781,-10e-4 5.16176,-2.32307 5.16033,-5.17755 l -10e-4,-2.49819 c -10e-4,-2.44325 -1.68227,-4.21567 -3.99935,-4.21451 m -76.31191,9.04306 7.05961,-15.0275 c 0,0 2.32073,-4.07594 4.59168,-4.07708 l 43.25203,-0.0214 c 2.27095,-10e-4 4.34883,4.07265 4.34883,4.07265 l 7.5652,15.02025 c 0.86405,2.10583 -0.28651,3.83041 -2.55913,3.83155 l -61.69491,0.0306 c -2.27128,0.001 -3.42555,-1.72233 -2.56331,-3.82902 m 16.53057,22.98603 c 5.6e-4,1.1378 -0.92732,2.07045 -2.06446,2.07101 l -13.95767,0.007 c -1.13582,5.7e-4 -2.06564,-0.93115 -2.06621,-2.06894 l -0.003,-6.63685 c -5.8e-4,-1.13979 0.92831,-2.07046 2.06413,-2.07102 l 13.95766,-0.007 c 1.13715,-5.6e-4 2.06598,0.92917 2.06654,2.06895 z m 51.73449,-0.0256 c 5.8e-4,1.13781 -0.92866,2.07045 -2.06412,2.07102 l -13.95733,0.007 c -1.13648,5.7e-4 -2.06597,-0.93116 -2.06654,-2.06896 l -0.003,-6.63685 c -5.6e-4,-1.13978 0.928,-2.07044 2.06447,-2.07102 l 13.95733,-0.007 c 1.13548,-5.7e-4 2.06563,0.92918 2.06622,2.06898 z"
       id="path1097"
       sodipodi:nodetypes="ccccccccccsssccsssssccsssssccssscccssccsscssssssssssssssssss" /></g><g
     id="g1302"
     transform="translate(-2.6670808e-6,-1.4262229e-5)"><path
       sodipodi:nodetypes="scccsccssccscccccccscsccscscssccccscscccssccccsscscccccccsscccccccscccssccccccscccccccscc"
       inkscape:connector-curvature="0"
       id="path1166"
       d="m 936.87714,-531.04982 c -1.02529,-0.11368 -5.00676,-0.95742 -7.79537,-1.65196 -12.29936,-3.06334 -20.36384,-8.46245 -28.74319,-18.237 -2.29006,-2.67136 -3.16118,-3.93366 -3.85293,-5.33866 -0.52053,-1.05725 -0.96983,-1.34459 -0.96983,-2.44875 0,-1.08317 0.0767,-1.41468 0.45855,-1.98275 0.96807,-1.44005 3.51213,-2.63256 6.02149,-2.82253 0.73935,-0.056 1.99148,-0.13558 2.03462,-0.31064 0.21557,-0.87473 0.94686,-6.3083 1.38316,-12.20859 0.84652,-11.44794 1.24688,-14.54925 2.3917,-18.52665 1.44945,-5.0358 3.55803,-8.67527 7.1051,-12.26357 3.56307,-3.60451 7.28151,-7.73888 13.4976,-9.76597 l 2.58198,-0.842 1.08641,-0.69727 c 0.65936,-1.67313 1.27334,-2.43995 2.43636,-3.04288 0.67177,-0.34826 1.17312,-0.43059 3.02401,-0.49662 3.90255,-0.13921 5.29159,0.62538 6.42467,3.53641 l 0.56976,1.4638 1.99656,0.79098 c 11.88693,4.70929 18.55667,11.12853 21.51935,20.71114 1.14966,3.71851 1.67115,7.13458 2.20673,14.45541 0.49144,6.71761 0.6926,8.92907 1.03443,11.37207 0.27058,1.93379 0.9548,5.42844 1.09068,5.57069 0.0358,0.0374 0.73399,0.13551 1.55161,0.21794 2.67115,0.26928 4.91741,1.26727 5.97591,2.65504 0.71836,0.94182 0.83359,2.66905 0.27264,4.08683 -0.88569,2.23858 -3.49463,5.53717 -7.80438,9.86742 -5.33547,5.36084 -9.87457,8.55186 -15.74745,11.07057 -6.04246,2.59142 -16.62659,5.18387 -19.75017,4.83754 z m 8.71247,-21.52696 c 8.75663,-0.39895 16.39082,-1.44496 23.34413,-3.19853 2.08601,-0.52608 2.53975,-0.81109 3.02015,-1.8971 0.33748,-0.76294 0.36426,-1.08069 0.26169,-3.1046 -0.12666,-2.49897 -0.3545,-3.17777 -1.21623,-3.62338 -0.76368,-0.39491 -1.34386,-0.35392 -4.95835,0.35037 -8.86403,1.72717 -15.95625,2.3224 -27.6965,2.32449 -12.27828,0.002 -19.28649,-0.6223 -29.39853,-2.61966 -3.34078,-0.65988 -3.66399,-2.03461 -4.41108,-0.98721 -0.33524,-0.0985 -0.77192,2.28021 -0.82652,4.30244 -0.0747,2.76524 0.0187,3.32211 0.67493,4.02457 0.59969,0.64198 1.39136,0.89951 5.43932,1.76942 10.9736,2.35823 22.90392,3.24522 35.76699,2.65919 z m -6.44277,-12.81005 c 0.16991,-0.18775 0.83808,-1.8179 1.48481,-3.62256 1.29516,-3.61402 1.62001,-4.0889 3.07072,-4.48893 1.26374,-0.34847 2.65013,-0.006 5.53666,1.36931 1.4019,0.66775 2.79856,1.21409 3.10371,1.21409 0.72239,0 1.22566,-0.47073 1.22566,-1.14641 0,-0.29909 -0.37017,-2.11928 -1.23483,-3.92516 -0.85749,-1.79088 -1.88332,-3.29093 -1.88332,-3.49195 0,-0.55663 1.06789,-2.57283 1.57326,-2.97036 0.24612,-0.1936 1.25501,-1.64411 2.95532,-2.31187 1.70031,-0.66777 2.99961,-1.42827 3.16475,-1.61074 0.38328,-0.42353 1.19657,-0.46921 0.81561,-0.88983 -0.16222,-0.17925 -1.70342,-0.88733 -3.42489,-1.57351 -2.13728,-0.85193 -3.30329,-1.42091 -3.6765,-1.79403 -0.58897,-0.58882 -1.40315,-2.17177 -1.40606,-2.73371 -9.2e-4,-0.18997 0.69979,-1.81861 1.55728,-3.6192 0.85749,-1.80059 1.55908,-3.51013 1.55908,-3.79898 0,-0.53494 -0.36492,-0.97768 -0.98955,-1.20059 -0.23446,-0.0837 -1.33486,0.3348 -3.38146,1.28594 -2.86736,1.33259 -3.10501,1.41029 -4.32965,1.4157 -1.42231,0.006 -2.20568,-0.29067 -2.817,-1.06785 -0.19877,-0.2527 -0.75442,-1.59561 -1.23478,-2.98425 -1.06032,-3.06518 -1.49844,-4.11815 -1.79077,-4.30393 -0.28486,-0.18103 -1.25727,-0.18276 -1.54038,-0.003 -0.27459,0.1746 -0.69815,1.18077 -1.70959,4.06115 -0.50954,1.45107 -0.99829,2.50471 -1.34508,2.89967 -0.79645,0.90712 -1.86149,1.39931 -3.05562,1.41213 -0.89397,0.01 -1.34346,-0.15094 -3.9483,-1.41007 -1.6167,-0.7815 -3.12304,-1.4209 -3.34741,-1.4209 -0.57207,0 -1.14163,0.63393 -1.14163,1.27065 0,0.29533 0.57716,1.76041 1.28257,3.25572 1.53275,3.24906 1.61956,3.91719 0.73819,5.68097 -0.30092,0.6022 -0.74483,1.28063 -0.98647,1.50764 -0.24163,0.227 -1.74623,0.90606 -3.34355,1.50901 -1.59733,0.60296 -3.05182,1.22985 -3.23221,1.39311 -0.42524,0.38484 -0.42475,1.37948 9.2e-4,1.76466 0.18087,0.16369 1.64076,0.87743 3.2442,1.58609 1.60344,0.70866 3.13424,1.49819 3.40178,1.75451 0.744,0.7128 1.34348,2.07294 1.42889,3.24196 0.072,0.98544 0.001,1.20445 -1.22895,3.80792 -1.3316,2.81794 -1.52734,3.61076 -1.01737,4.12074 0.64059,0.64059 1.05243,0.54571 4.25428,-0.98013 3.4794,-1.6581 3.96252,-1.75071 5.45418,-1.04553 1.49265,0.70565 1.85078,1.23862 3.04161,4.52646 0.59353,1.63869 1.21713,3.13192 1.3858,3.3183 0.40039,0.44243 1.38442,0.44105 1.78583,-0.002 z"
       style="opacity:1;fill:#f3ba93;fill-opacity:1;stroke:none;stroke-width:2.5;stroke-linecap:round;stroke-linejoin:round;stroke-miterlimit:4;stroke-dasharray:none;stroke-opacity:1" /><path
       inkscape:connector-curvature="0"
       id="path1187"
       d="m 904.12219,-565.35533 -0.4127,1.60493 0.73369,0.0803 0.35537,-1.70811 z"
       style="fill:#fcfcfc;fill-opacity:1;stroke:none;stroke-width:1px;stroke-linecap:butt;stroke-linejoin:miter;stroke-opacity:1" /><path
       inkscape:connector-curvature="0"
       id="path1169"
       d="m 936.52608,-580.07781 c -1.72337,-0.52612 -3.41734,-2.11791 -3.97117,-3.73162 -1.01731,-2.96419 0.32562,-6.09632 3.21252,-7.49261 1.28911,-0.6235 3.43148,-0.60065 4.8224,0.0514 1.22618,0.57486 2.35322,1.67646 2.93793,2.8716 0.62227,1.27195 0.68053,3.26619 0.13764,4.71203 -0.54051,1.43951 -1.941,2.83998 -3.3775,3.37744 -1.04772,0.39201 -2.84072,0.49291 -3.76182,0.21171 z"
       style="opacity:1;fill:#f3ba93;fill-opacity:1;stroke:none;stroke-width:2.5;stroke-linecap:round;stroke-linejoin:round;stroke-miterlimit:4;stroke-dasharray:none;stroke-opacity:1" /><g
       style="stroke-width:1.87394094"
       transform="matrix(0.53342961,0,0,0.53383998,564.69654,-450.48599)"
       id="g1160"><path
         style="fill:none;stroke:#424143;stroke-width:4.6848526;stroke-linecap:butt;stroke-linejoin:miter;stroke-miterlimit:4;stroke-dasharray:none;stroke-opacity:1"
         d="m 689.97509,-315.93689 c -59.7212,21.94278 -43.95148,63.45728 -52.20495,98.74354 -8.90093,0.43055 -23.05612,6.20974 -11.86579,21.87547 24.9089,32.49288 47.876,38.79537 74.5132,44.02336 2.26199,0.31563 5.48597,0.38887 8.13995,-0.13486 26.34655,-5.20324 49.13306,-11.67448 73.82819,-43.8885 11.19033,-15.66573 -2.96486,-21.44492 -11.86579,-21.87547 -8.25347,-35.28626 7.51625,-76.80076 -52.20495,-98.74354 -1.86834,-5.27794 -3.92832,-10.42133 -14.16993,-10.11644 -10.24161,-0.30489 -12.30159,4.8385 -14.16993,10.11644 z"
         id="path1139"
         inkscape:connector-curvature="0"
         sodipodi:nodetypes="cccccccccc" /><path
         style="fill:none;stroke:#424143;stroke-width:4.6848526;stroke-linecap:butt;stroke-linejoin:miter;stroke-miterlimit:4;stroke-dasharray:none;stroke-opacity:1"
         d="m 644.47501,-203.08423 c -2.33856,-0.61202 -2.12859,-2.02239 -2.33456,-3.50184 l 0.25939,-6.4849 c 0.40415,-1.31968 1.48053,-1.62431 3.50184,-1.16728 19.98199,4.36057 36.93806,5.69622 58.35184,5.79763 21.41378,-0.10141 37.88357,-1.19411 57.86556,-5.55468 2.02131,-0.45703 3.09769,-0.1524 3.50184,1.16728 l 0.25939,6.4849 c -0.20597,1.47945 0.004,2.88982 -2.33456,3.50184 -20.2049,5.0726 -37.24552,6.6311 -59.29223,6.71341 -22.04671,-0.0823 -39.57361,-1.88376 -59.77851,-6.95636 z"
         id="path1141"
         inkscape:connector-curvature="0"
         sodipodi:nodetypes="ccccccccccc" /><circle
         style="opacity:1;fill:none;fill-opacity:1;stroke:#424143;stroke-width:4.6848526;stroke-linecap:square;stroke-linejoin:miter;stroke-miterlimit:4;stroke-dasharray:none;stroke-opacity:1"
         id="path1147"
         cx="703.6582"
         cy="-256.60013"
         r="13.683123" /><path
         sodipodi:nodetypes="cccccccccccccccccccccccccc"
         inkscape:connector-curvature="0"
         id="path1154"
         d="m 731.0949,-261.52104 c -3.67174,-1.06592 -7.25112,-7.93417 -5.78318,-10.84541 l 5.60005,-11.70359 -9.36536,4.42242 c -5.77813,1.90161 -11.25517,0.48725 -13.05847,-4.36969 l -3.89128,-11.03186 -3.73884,10.42905 c -1.26539,3.28677 -6.93301,7.28826 -12.3171,5.35078 l -10.31507,-4.93566 4.21548,8.92714 c 2.70994,5.49529 -1.70055,12.5573 -5.11965,13.83422 l -10.08642,3.7601 v 0 l 10.08642,4.40836 c 3.4191,1.27693 7.82959,8.33893 5.11965,13.83422 l -4.21548,8.92714 10.31507,-4.93566 c 5.38409,-1.93748 11.05171,2.06401 12.3171,5.35078 l 3.73884,10.42905 3.89128,-11.03186 c 1.8033,-4.85694 7.28034,-6.2713 13.05847,-4.36969 l 9.36536,4.42242 -5.60005,-11.70358 c -1.46794,-2.91125 2.11144,-9.7795 5.78318,-10.84542 l 10.50056,-4.16163 z"
         style="opacity:1;fill:none;fill-opacity:1;stroke:#424143;stroke-width:4.6848526;stroke-linecap:round;stroke-linejoin:round;stroke-miterlimit:4;stroke-dasharray:none;stroke-opacity:1" /></g></g><g
     id="g1319"
     transform="translate(-2.2165764e-5)"><path
       style="opacity:1;fill:#f3ba93;fill-opacity:1;stroke:none;stroke-width:1.04632378;stroke-linecap:round;stroke-linejoin:round;stroke-miterlimit:4;stroke-dasharray:none;stroke-opacity:1"
       d="m 1011.7695,-538.40746 c -0.2702,-0.11058 -0.7123,-0.44679 -0.9825,-0.74711 -0.4869,-0.54123 -0.4913,-0.89182 -0.4913,-39.69316 v -39.1471 l 0.6811,-0.68107 0.681,-0.68108 30.5451,-0.0643 c 29.8224,-0.0627 30.5589,-0.0531 31.1284,0.40815 l 0.5834,0.47237 0.065,39.2616 c 0.049,29.53086 -0.01,39.43414 -0.2226,39.95775 -0.158,0.38289 -0.5535,0.7974 -0.8789,0.92113 -0.7399,0.28128 -60.4207,0.27421 -61.1083,-0.007 z m 56.9614,-5.3167 c 0.082,-0.21484 0.088,-0.49117 0.012,-0.61408 -0.2037,-0.32957 -51.8639,-0.29591 -52.0678,0.034 -0.087,0.14157 -0.097,0.41791 -0.022,0.61409 0.1185,0.30871 3.6203,0.35669 26.0326,0.35669 23.4449,0 25.9099,-0.0369 26.0456,-0.39062 z m 0.012,-7.20184 c 0.076,-0.12291 0.071,-0.39924 -0.012,-0.61408 -0.1357,-0.35365 -2.5987,-0.39062 -26.0234,-0.39062 -17.7723,0 -25.9233,0.0806 -26.0326,0.2574 -0.087,0.14157 -0.097,0.4179 -0.022,0.61408 0.1185,0.30871 3.6218,0.35669 26.0444,0.35669 15.2935,0 25.9641,-0.0916 26.0456,-0.22347 z m -33.2963,-4.53423 c 0.1989,-0.23966 0.2605,-2.65732 0.2143,-8.41293 l -0.065,-8.07663 h -9.5797 -9.5797 l -0.065,8.21213 c -0.051,6.40642 0,8.25546 0.2456,8.40917 0.1707,0.10838 4.4143,0.19874 9.4302,0.2008 7.4228,0.003 9.1716,-0.0588 9.3988,-0.33254 z m 33.071,-3.85022 c 0.087,-0.14102 0.025,-0.41735 -0.1384,-0.61408 -0.2536,-0.30556 -2.3491,-0.35769 -14.3762,-0.35769 -9.5502,0 -14.1305,0.0828 -14.2384,0.25739 -0.088,0.14157 -0.098,0.41791 -0.022,0.61409 0.1175,0.30615 2.1544,0.35668 14.3768,0.35668 9.6268,0 14.2913,-0.083 14.3984,-0.25639 z m -0.035,-8.35088 c 0.1192,-0.11137 0.1503,-0.37573 0.069,-0.58746 -0.1317,-0.34334 -1.6733,-0.38496 -14.2592,-0.38496 -7.7614,0 -14.2864,0.0671 -14.5001,0.1491 -0.4445,0.17055 -0.5059,0.61785 -0.1357,0.98805 0.3068,0.30676 28.4935,0.14568 28.8259,-0.16473 z m 0.029,-8.70985 c 0,-0.48778 -0.1846,-0.49172 -25.9009,-0.55382 -15.876,-0.0383 -25.99,0.0266 -26.1311,0.16772 -0.1267,0.12664 -0.1636,0.40399 -0.082,0.61634 0.1337,0.34819 2.6975,0.37994 26.1312,0.32355 25.7983,-0.0621 25.9829,-0.066 25.9829,-0.55379 z m -0.1808,-12.00677 c 0.046,-5.7556 -0.015,-8.17327 -0.2143,-8.41293 -0.2302,-0.27736 -2.7027,-0.3363 -14.1073,-0.3363 -7.6054,0 -14.0029,0.0671 -14.2166,0.1491 -0.3435,0.13181 -0.3885,1.09497 -0.3885,8.31058 0,4.48881 0.075,8.23606 0.1657,8.3272 0.091,0.0911 6.585,0.13721 14.4309,0.10235 l 14.2653,-0.0634 z m -31.7515,3.65524 c 0,-0.48337 -0.1638,-0.49127 -10.1938,-0.49127 h -10.1938 l -0.079,0.55538 -0.079,0.55539 10.2726,-0.0641 c 10.0875,-0.0629 10.2726,-0.0729 10.2726,-0.55537 z m -0.1668,-8.41574 0.079,-0.55547 -9.9041,0.0642 -9.9042,0.0642 -0.079,0.55549 -0.079,0.55547 9.9042,-0.0642 9.9042,-0.0642 z m 31.8535,-8.28731 c 0,-0.48777 -0.1847,-0.49171 -25.9009,-0.55381 -15.8761,-0.0383 -25.99,0.0266 -26.1312,0.16771 -0.1266,0.12664 -0.1635,0.404 -0.082,0.61634 0.1336,0.3482 2.6974,0.37995 26.1311,0.32356 25.7984,-0.0621 25.983,-0.066 25.983,-0.5538 z m -0.2457,-9.94814 v -4.29858 l -25.7649,-0.0625 c -18.8345,-0.0457 -25.8547,0.0119 -26.0985,0.2143 -0.4502,0.37363 -0.4842,7.82812 -0.038,8.27458 0.2278,0.22779 6.2332,0.28149 26.0985,0.23335 l 25.8026,-0.0625 z"
       id="path1483"
       inkscape:connector-curvature="0" /><path
       d="M 1060.29,-535.32524"
       stroke-miterlimit="10"
       id="path1485"
       inkscape:connector-curvature="0"
       style="fill:none;stroke:#010101;stroke-width:2.76591682;stroke-linejoin:round;stroke-miterlimit:10" /><line
       y2="-602.64349"
       x2="1069.0159"
       y1="-602.64349"
       x1="1018.0021"
       stroke-miterlimit="10"
       id="line1487"
       style="fill:none;stroke:#424143;stroke-width:1.28000009;stroke-linecap:round;stroke-linejoin:round;stroke-miterlimit:8.36363602;stroke-dasharray:none" /><line
       y2="-594.32745"
       x2="1037.1956"
       y1="-594.1908"
       x1="1018.4699"
       stroke-miterlimit="10"
       id="line1489"
       style="fill:none;stroke:#424143;stroke-width:1.28000009;stroke-linecap:round;stroke-linejoin:round;stroke-miterlimit:8.36363602;stroke-dasharray:none" /><path
       style="fill:none;stroke:#424143;stroke-width:2.5;stroke-linejoin:round;stroke-miterlimit:10;stroke-dasharray:none"
       inkscape:connector-curvature="0"
       id="path1491"
       stroke-miterlimit="10"
       d="m 1076.4974,-573.26172 v 29.75832 1.74313 c 0,2.66563 -1.5924,3.55665 -3.4043,3.55334 -1.1386,-0.002 -56.9578,0 -58.5362,0 -2.6399,0 -4.1462,-1.56095 -4.1454,-3.70902 8e-4,-1.60567 0,-38.12912 0,-38.12912 0,0 8e-4,-36.52346 0,-38.12913 -8e-4,-2.14807 1.5055,-3.70903 4.1454,-3.70903 1.5784,0 57.3976,0.002 58.5362,0 1.8119,-0.003 3.4043,0.88772 3.4043,3.55335 v 1.74313 29.75832 z"
       sodipodi:nodetypes="ccscscccscsccc" /><path
       sodipodi:nodetypes="cscccccsc"
       d="m 1077.3917,-617.46183 c 1.8118,-0.003 3.4043,0.88772 3.4043,3.55334 v 1.74314 29.75832 13.56671 c 0,10.50048 0,21.00097 0,31.50145 0,2.66563 -1.5925,3.55665 -3.4043,3.55334 -1.1387,-0.002 -56.9579,0 -58.5362,0 -2.64,0 -4.1463,-1.56095 -4.1454,-3.70902"
       stroke-miterlimit="10"
       id="path1493"
       inkscape:connector-curvature="0"
       style="fill:none;stroke:#424143;stroke-width:2.5;stroke-linejoin:round;stroke-miterlimit:10;stroke-dasharray:none" /><line
       style="fill:none;stroke:#424143;stroke-width:1.28000009;stroke-linecap:round;stroke-linejoin:round;stroke-miterlimit:8.36363602;stroke-dasharray:none"
       id="line1495"
       stroke-miterlimit="10"
       x1="1017.9137"
       y1="-585.87476"
       x2="1037.3762"
       y2="-585.87476" /><line
       style="fill:none;stroke:#424143;stroke-width:1.28000009;stroke-linecap:round;stroke-linejoin:round;stroke-miterlimit:8.36363602;stroke-dasharray:none"
       id="line1497"
       stroke-miterlimit="10"
       x1="1018.2477"
       y1="-577.55878"
       x2="1069.2615"
       y2="-577.55878" /><rect
       style="opacity:1;fill:none;fill-opacity:1;stroke:#424143;stroke-width:1.28000009;stroke-linecap:round;stroke-linejoin:round;stroke-miterlimit:8.36363602;stroke-dasharray:none;stroke-opacity:1"
       id="rect1499"
       width="27.66283"
       height="15.620184"
       x="1041.3732"
       y="-597.6037" /><rect
       y="-616.33325"
       x="1017.9152"
       height="7.5142922"
       width="50.87516"
       id="rect1501"
       style="opacity:1;fill:none;fill-opacity:1;stroke:#424143;stroke-width:1.28000009;stroke-linecap:round;stroke-linejoin:round;stroke-miterlimit:8.36363602;stroke-dasharray:none;stroke-opacity:1" /><rect
       y="-572.67938"
       x="1018.2726"
       height="15.620184"
       width="18.109945"
       id="rect1503"
       style="opacity:1;fill:none;fill-opacity:1;stroke:#424143;stroke-width:1.28000009;stroke-linecap:round;stroke-linejoin:round;stroke-miterlimit:8.36363602;stroke-dasharray:none;stroke-opacity:1" /><line
       style="fill:none;stroke:#424143;stroke-width:1.28000009;stroke-linecap:round;stroke-linejoin:round;stroke-miterlimit:8.36363602;stroke-dasharray:none"
       id="line1505"
       stroke-miterlimit="10"
       x1="1041.3915"
       y1="-569.10608"
       x2="1069.2615"
       y2="-569.24274" /><line
       y2="-560.79004"
       x2="1069.2615"
       y1="-560.79004"
       x1="1041.6349"
       stroke-miterlimit="10"
       id="line1507"
       style="fill:none;stroke:#424143;stroke-width:1.28000009;stroke-linecap:round;stroke-linejoin:round;stroke-miterlimit:8.36363602;stroke-dasharray:none" /><line
       y2="-552.47406"
       x2="1069.5071"
       y1="-552.47406"
       x1="1018.4933"
       stroke-miterlimit="10"
       id="line1509"
       style="fill:none;stroke:#424143;stroke-width:1.28000009;stroke-linecap:round;stroke-linejoin:round;stroke-miterlimit:8.36363602;stroke-dasharray:none" /><line
       style="fill:none;stroke:#424143;stroke-width:1.28000009;stroke-linecap:round;stroke-linejoin:round;stroke-miterlimit:8.36363602;stroke-dasharray:none"
       id="line1511"
       stroke-miterlimit="10"
       x1="1018.4933"
       y1="-545.17914"
       x2="1069.5071"
       y2="-545.17914" /></g><g
     id="g1281"><path
       inkscape:connector-curvature="0"
       id="path1515"
       d="m 673.39812,-419.55925 c -1.19269,-0.41185 -1.11688,-0.65237 4.02835,-12.78046 2.54649,-6.00244 4.87476,-11.40876 5.17395,-12.01404 1.12023,-2.26638 1.56606,-2.47618 5.26186,-2.47618 h 2.73704 l 3.35249,6.19044 c 5.56381,10.27371 8.42391,15.33923 8.90644,15.77416 0.25183,0.22699 0.65501,0.4127 0.89596,0.4127 0.24095,0 0.6429,-0.18571 0.89323,-0.4127 0.68514,-0.62123 6.08769,-10.53652 10.75081,-19.73088 l 1.14625,-2.26008 2.62559,0.059 c 2.94295,0.0662 3.1848,0.15591 4.16917,1.5471 0.63632,0.89927 10.35918,23.75143 10.6593,25.05308 0.10379,0.45018 0.0513,0.51293 -0.57485,0.68681 -1.05578,0.2932 -59.172,0.24578 -60.02559,-0.049 z"
       style="opacity:1;fill:#ebd0bd;fill-opacity:1;stroke:none;stroke-width:0.4585512;stroke-linecap:round;stroke-linejoin:round;stroke-miterlimit:8.36363602;stroke-dasharray:none;stroke-opacity:1" /><path
       inkscape:connector-curvature="0"
       id="path1517"
       d="m 700.61002,-433.39477 c -1.17842,-2.14247 -4.0772,-7.44459 -6.44173,-11.78249 -2.36452,-4.33789 -5.06799,-9.20771 -6.00769,-10.82181 -3.46819,-5.95721 -4.26481,-7.39649 -5.58359,-10.08812 -2.15297,-4.39423 -2.8106,-6.79529 -2.96396,-10.82181 -0.40783,-10.70706 6.00481,-20.17758 15.81416,-23.35521 2.67721,-0.86725 3.92232,-1.04043 7.41711,-1.03164 2.84555,0.007 3.43077,0.0633 5.15633,0.49477 6.31672,1.57943 11.35013,5.62693 14.27603,11.47974 0.82186,1.64399 1.7749,4.59397 2.14343,6.63459 0.64748,3.58528 0.28547,9.42235 -0.78685,12.68687 -0.82807,2.52096 -13.64243,27.63602 -20.22086,39.63118 -0.26201,0.47773 -0.51764,0.86877 -0.56808,0.86897 -0.0504,1.9e-4 -1.05587,-1.75256 -2.2343,-3.89504 z m 4.8939,-34.19357 c 3.56696,-0.88353 6.61161,-3.90846 7.71988,-7.66988 0.50199,-1.70367 0.42717,-4.38139 -0.17423,-6.23629 -1.46926,-4.53168 -5.72143,-7.62236 -10.46822,-7.60877 -7.09703,0.0203 -12.32174,6.76875 -10.56334,13.64403 0.8953,3.50061 3.26628,6.1747 6.67168,7.52462 2.12698,0.84315 4.35187,0.95621 6.81423,0.34629 z"
       style="opacity:1;fill:#f3ba93;fill-opacity:1;stroke:none;stroke-width:0.4585512;stroke-linecap:round;stroke-linejoin:round;stroke-miterlimit:8.36363602;stroke-dasharray:none;stroke-opacity:1" /><path
       sodipodi:nodetypes="cssssssssc"
       inkscape:connector-curvature="0"
       id="path1519"
       d="m 719.32274,-454.01245 h 7.70806 c 2.67476,0 3.80299,2.35757 4.8281,4.8281 l 13.16129,31.71916 c 1.0251,2.47053 -2.15333,4.8281 -4.8281,4.8281 h -73.02505 c -2.67476,0 -5.99355,-2.42059 -4.8281,-4.8281 l 15.35485,-31.71916 c 1.16545,-2.40751 2.15333,-4.8281 4.8281,-4.8281 h 7.85311"
       style="opacity:1;fill:none;fill-opacity:1;stroke:#424143;stroke-width:2.74193645;stroke-linecap:round;stroke-linejoin:round;stroke-miterlimit:8.36363602;stroke-dasharray:none;stroke-opacity:1" /><path
       sodipodi:nodetypes="ccccccc"
       inkscape:connector-curvature="0"
       id="path1521"
       d="m 704.88675,-503.96902 c -13.94373,-1.6e-4 -24.5433,11.20292 -24.54314,25.14665 0.002,6.61584 2.25304,10.93325 6.03631,17.71495 6.10944,10.03034 12.273,22.40796 18.72104,33.5763 6.4562,-11.18245 11.76346,-22.40892 17.76913,-33.61014 4.58396,-9.53322 5.24245,-9.60341 5.65453,-17.98287 1.6e-4,-13.94373 -9.69414,-24.84505 -23.63787,-24.84489 z"
       style="opacity:1;fill:none;fill-opacity:1;stroke:#424143;stroke-width:2.74193645;stroke-linecap:round;stroke-linejoin:round;stroke-miterlimit:8.36363602;stroke-dasharray:none;stroke-opacity:1" /><circle
       r="9.5307045"
       cy="-479.24081"
       cx="704.88672"
       id="circle1523"
       style="opacity:1;fill:none;fill-opacity:1;stroke:#424143;stroke-width:2.74193645;stroke-linecap:round;stroke-linejoin:round;stroke-miterlimit:8.36363602;stroke-dasharray:none;stroke-opacity:1" /><path
       style="opacity:1;fill:none;fill-opacity:1;stroke:#424143;stroke-width:2.74193645;stroke-linecap:round;stroke-linejoin:round;stroke-miterlimit:8.36363602;stroke-dasharray:none;stroke-opacity:1"
       d="m 717.61574,-449.82652 h 4.8276 c 2.67477,0 3.78643,2.3645 4.8281,4.8281 l 8.7742,20.75141 c 1.7882,4.22918 0.76365,4.8281 -4.8281,4.8281 h -53.28311 c -4.88764,0 -6.47755,-0.92706 -4.8281,-4.8281 l 8.7742,-20.75141 c 1.04167,-2.4636 2.15333,-4.8281 4.8281,-4.8281 h 6.01349"
       id="path1525"
       inkscape:connector-curvature="0"
       sodipodi:nodetypes="cssssssssc" /></g><path
     d="M 1049.2848,-347.50267"
     stroke-miterlimit="10"
     id="path1720"
     inkscape:connector-curvature="0"
     style="fill:none;stroke:#010101;stroke-width:2.76591682;stroke-linejoin:round;stroke-miterlimit:10" /><g
     id="g1273"><path
       inkscape:connector-curvature="0"
       id="path1977"
       d="m 807.45309,-437.12406 v -5.86945 h 8.89589 8.89589 v 5.86945 5.86946 h -8.89589 -8.89589 z"
       style="opacity:1;fill:#f3ba93;fill-opacity:1;stroke:none;stroke-width:1.5;stroke-linecap:round;stroke-linejoin:round;stroke-miterlimit:10;stroke-dasharray:none;stroke-opacity:1" /><path
       inkscape:connector-curvature="0"
       id="path1979"
       d="m 794.16821,-425.12312 c -0.2099,-0.2099 -0.28824,-0.65572 -0.28824,-1.64038 0,-1.18935 0.0491,-1.38653 0.40766,-1.63769 0.36337,-0.25451 2.75992,-0.28553 22.06135,-0.28553 19.30143,0 21.69799,0.031 22.06136,0.28553 0.36157,0.25326 0.40765,0.44607 0.40765,1.70581 0,0.8601 -0.0868,1.5071 -0.2201,1.64039 -0.16875,0.16874 -5.34482,0.2201 -22.18078,0.2201 -19.71969,0 -21.99009,-0.0294 -22.2489,-0.28823 z"
       style="opacity:1;fill:#ff9955;fill-opacity:1;stroke:none;stroke-width:1.5;stroke-linecap:round;stroke-linejoin:round;stroke-miterlimit:10;stroke-dasharray:none;stroke-opacity:1" /><path
       inkscape:connector-curvature="0"
       id="path1985"
       d="m 779.7566,-446.16917 c -0.88615,-0.28088 -2.30664,-1.74164 -2.55163,-2.62397 -0.27577,-0.99321 -0.27703,-44.44678 -10e-4,-45.43975 0.10797,-0.38886 0.52511,-1.06372 0.92696,-1.49968 1.37208,-1.48853 -1.93281,-1.37011 38.20518,-1.36896 24.65856,7e-4 35.99801,0.0615 36.48098,0.19562 0.89532,0.24862 2.104,1.33605 2.53369,2.27953 0.31741,0.69694 0.33415,1.85435 0.33415,23.11098 0,21.34689 -0.0155,22.41155 -0.3379,23.12122 -0.41601,0.9159 -1.61349,1.96864 -2.56281,2.25307 -0.99198,0.2972 -72.0873,0.26988 -73.02731,-0.0281 z m 72.10978,-3.59468 0.43301,-0.35061 0.0481,-21.29907 0.0481,-21.29908 -0.45247,-0.45248 -0.45248,-0.45248 H 816.3776 c -34.29879,0 -35.12308,0.008 -35.54606,0.35064 l -0.43301,0.35063 v 21.4009 21.4009 l 0.43301,0.35063 c 0.42298,0.34251 1.24682,0.35064 35.5174,0.35064 34.2698,0 35.09444,-0.008 35.5174,-0.35062 z"
       style="opacity:1;fill:#f3ba93;fill-opacity:1;stroke:none;stroke-width:1.5;stroke-linecap:round;stroke-linejoin:round;stroke-miterlimit:10;stroke-dasharray:none;stroke-opacity:1" /><path
       inkscape:connector-curvature="0"
       id="path1987"
       d="m 815.07735,-461.52965 v -3.76124 h 13.35888 13.35888 v 3.76124 3.76123 h -13.35888 -13.35888 z"
       style="opacity:1;fill:#ebd0bd;fill-opacity:1;stroke:none;stroke-width:1.5;stroke-linecap:round;stroke-linejoin:round;stroke-miterlimit:10;stroke-dasharray:none;stroke-opacity:1" /><path
       inkscape:connector-curvature="0"
       id="path1989"
       d="m 790.95355,-483.44859 v -1.81577 h 25.29109 25.29108 v 1.81577 1.81577 h -25.29108 -25.29109 z"
       style="opacity:1;fill:#ebd0bd;fill-opacity:1;stroke:none;stroke-width:1.5;stroke-linecap:round;stroke-linejoin:round;stroke-miterlimit:10;stroke-dasharray:none;stroke-opacity:1" /><rect
       transform="rotate(90)"
       style="opacity:1;fill:none;fill-opacity:1;stroke:#424143;stroke-width:2.5;stroke-linecap:round;stroke-linejoin:round;stroke-miterlimit:10;stroke-dasharray:none;stroke-opacity:1"
       id="rect1687"
       width="53.811108"
       height="81.384605"
       x="-500.11932"
       y="-858.73279"
       ry="5.4595828" /><rect
       style="opacity:1;fill:none;fill-opacity:1;stroke:#424143;stroke-width:2.5;stroke-linecap:round;stroke-linejoin:round;stroke-miterlimit:10;stroke-dasharray:none;stroke-opacity:1"
       id="rect1689"
       width="69.301598"
       height="41.565994"
       x="783.38965"
       y="-493.99677"
       ry="0" /><rect
       ry="0"
       y="-446.10345"
       x="807.88129"
       height="14.41352"
       width="20.318319"
       id="rect1700"
       style="opacity:1;fill:none;fill-opacity:1;stroke:#424143;stroke-width:2.5;stroke-linecap:round;stroke-linejoin:round;stroke-miterlimit:10;stroke-dasharray:none;stroke-opacity:1" /><rect
       ry="2.4235656"
       y="-841.91278"
       x="-431.67578"
       height="47.744541"
       width="6.5526643"
       id="rect1702"
       style="opacity:1;fill:#f3ba93;fill-opacity:1;stroke:#424143;stroke-width:2.5;stroke-linecap:round;stroke-linejoin:round;stroke-miterlimit:10;stroke-dasharray:none;stroke-opacity:1"
       transform="rotate(90)" /><g
       style="stroke-width:1.10984266"
       transform="matrix(0.90201302,0,0,0.90004524,400.80614,-183.76991)"
       id="g1935"><line
         y2="-325.74554"
         x2="491.52948"
         y1="-325.74554"
         x1="433.39966"
         stroke-miterlimit="10"
         id="line1722"
         style="fill:none;stroke:#424143;stroke-width:1.66476405;stroke-linecap:round;stroke-linejoin:round;stroke-miterlimit:10;stroke-dasharray:none" /><line
         y2="-320.70718"
         x2="485.82883"
         y1="-320.55276"
         x1="433.39966"
         stroke-miterlimit="10"
         id="line1724"
         style="fill:none;stroke:#424143;stroke-width:1.66476405;stroke-linecap:round;stroke-linejoin:round;stroke-miterlimit:10;stroke-dasharray:none" /><rect
         style="opacity:1;fill:none;fill-opacity:1;stroke:#424143;stroke-width:1.66476405;stroke-linecap:round;stroke-linejoin:round;stroke-miterlimit:10;stroke-dasharray:none;stroke-opacity:1"
         id="rect1734"
         width="31.521584"
         height="10.401594"
         x="460.2088"
         y="-315.76749" /><rect
         y="-337.81036"
         x="433.47864"
         height="6.0259757"
         width="57.971855"
         id="rect1736"
         style="opacity:1;fill:none;fill-opacity:1;stroke:#424143;stroke-width:1.66476405;stroke-linecap:round;stroke-linejoin:round;stroke-miterlimit:10;stroke-dasharray:none;stroke-opacity:1" /><line
         y2="-315.5144"
         x2="455.57712"
         y1="-315.5144"
         x1="433.39966"
         stroke-miterlimit="10"
         id="line1803"
         style="fill:none;stroke:#424143;stroke-width:1.66476405;stroke-linecap:round;stroke-linejoin:round;stroke-miterlimit:10;stroke-dasharray:none" /><line
         style="fill:none;stroke:#424143;stroke-width:1.66476405;stroke-linecap:round;stroke-linejoin:round;stroke-miterlimit:10;stroke-dasharray:none"
         id="line1805"
         stroke-miterlimit="10"
         x1="433.39966"
         y1="-310.47607"
         x2="455.57712"
         y2="-310.47607" /><line
         y2="-305.43774"
         x2="455.57712"
         y1="-305.43774"
         x1="433.39966"
         stroke-miterlimit="10"
         id="line1807"
         style="fill:none;stroke:#424143;stroke-width:1.66476405;stroke-linecap:round;stroke-linejoin:round;stroke-miterlimit:10;stroke-dasharray:none" /></g><rect
       style="opacity:1;fill:#ffffff;fill-opacity:1;stroke:none;stroke-width:2.49999976;stroke-linecap:round;stroke-linejoin:round;stroke-miterlimit:10;stroke-dasharray:none;stroke-opacity:1"
       id="rect2060"
       width="46.538734"
       height="65.372292"
       x="824.02936"
       y="-480.60907"
       ry="5.784193" /><path
       inkscape:connector-curvature="0"
       id="path1981"
       d="m 830.53464,-420.12142 c -0.72098,-0.31954 -1.44157,-1.0083 -1.86231,-1.78005 -0.32451,-0.59524 -0.33873,-1.63771 -0.33873,-24.83282 v -24.21151 l 0.39318,-0.73368 c 0.44966,-0.83909 0.80895,-1.18966 1.71615,-1.67452 0.61245,-0.32733 1.34624,-0.3431 15.95758,-0.3431 h 15.31561 l 0.76892,0.411 c 0.96174,0.51408 1.61981,1.3639 1.88325,2.43201 0.14524,0.58891 0.18861,7.63498 0.15135,24.59278 l -0.0522,23.76739 -0.55026,0.88842 c -0.36137,0.58346 -0.82776,1.03499 -1.35865,1.31537 l -0.80838,0.42694 -15.33262,-0.007 c -12.34516,-0.006 -15.43983,-0.0547 -15.88288,-0.25106 z m 17.42432,-1.18706 c 1.8445,-1.06395 1.86171,-3.69432 0.033,-5.04928 -0.38686,-0.28664 -0.78944,-0.3837 -1.59148,-0.3837 -1.20319,0 -1.81318,0.33227 -2.52203,1.37379 -0.70229,1.03187 -0.46859,2.90041 0.46695,3.73357 0.95811,0.85325 2.46364,0.98891 3.61353,0.32562 z m 14.32485,-7.19473 c 0.33911,-0.37471 0.34942,-0.97583 0.34942,-20.37588 v -19.98978 l -0.43302,-0.35064 c -0.41864,-0.339 -0.94305,-0.35063 -15.7997,-0.35063 -14.85664,0 -15.38105,0.0116 -15.79969,0.35063 l -0.43302,0.35064 v 20.02524 20.02524 l 0.43302,0.35064 c 0.41868,0.33903 0.94433,0.35063 15.8833,0.35063 h 15.45028 z"
       style="opacity:1;fill:#f3ba93;fill-opacity:1;stroke:none;stroke-width:1.5;stroke-linecap:round;stroke-linejoin:round;stroke-miterlimit:10;stroke-dasharray:none;stroke-opacity:1" /><path
       inkscape:connector-curvature="0"
       id="path1991"
       d="m 837.23764,-456.59865 v -4.66912 h 9.07885 9.07885 v 4.66912 4.66912 h -9.07885 -9.07885 z"
       style="opacity:1;fill:#ebd0bd;fill-opacity:1;stroke:none;stroke-width:1.5;stroke-linecap:round;stroke-linejoin:round;stroke-miterlimit:10;stroke-dasharray:none;stroke-opacity:1" /><rect
       ry="5.0051918"
       y="-476.20697"
       x="827.88116"
       height="56.568108"
       width="38.835075"
       id="rect1666"
       style="opacity:1;fill:none;fill-opacity:1;stroke:#424143;stroke-width:2.5;stroke-linecap:round;stroke-linejoin:round;stroke-miterlimit:10;stroke-dasharray:none;stroke-opacity:1" /><rect
       ry="0"
       y="-469.42145"
       x="832.37207"
       height="38.842339"
       width="29.85331"
       id="rect1668"
       style="opacity:1;fill:none;fill-opacity:1;stroke:#424143;stroke-width:2.5;stroke-linecap:round;stroke-linejoin:round;stroke-miterlimit:10;stroke-dasharray:none;stroke-opacity:1" /><ellipse
       ry="2.1720643"
       rx="2.1785529"
       cy="-425.00861"
       cx="847.29871"
       id="path1670"
       style="opacity:1;fill:none;fill-opacity:1;stroke:#424143;stroke-width:1.5;stroke-linecap:round;stroke-linejoin:round;stroke-miterlimit:10;stroke-dasharray:none;stroke-opacity:1" /><g
       style="stroke-width:1.13568449"
       transform="matrix(0.87957963,0,0,0.88147397,361.6254,-183.80518)"
       id="g1963"><rect
         y="-317.12631"
         x="540.85632"
         height="12.606458"
         width="22.617931"
         id="rect1829"
         style="opacity:1;fill:none;fill-opacity:1;stroke:#424143;stroke-width:1.70352662;stroke-linecap:round;stroke-linejoin:round;stroke-miterlimit:8.36363602;stroke-dasharray:none;stroke-opacity:1" /><line
         y2="-299.44138"
         x2="563.38379"
         y1="-299.44138"
         x1="541.2063"
         stroke-miterlimit="10"
         id="line1827"
         style="fill:none;stroke:#424143;stroke-width:1.70352662;stroke-linecap:round;stroke-linejoin:round;stroke-miterlimit:8.36363602;stroke-dasharray:none" /><line
         style="fill:none;stroke:#424143;stroke-width:1.70352662;stroke-linecap:round;stroke-linejoin:round;stroke-miterlimit:8.36363602;stroke-dasharray:none"
         id="line1833"
         stroke-miterlimit="10"
         x1="541.2063"
         y1="-293.14621"
         x2="563.38379"
         y2="-293.14621" /><line
         style="fill:none;stroke:#424143;stroke-width:1.70352662;stroke-linecap:round;stroke-linejoin:round;stroke-miterlimit:8.36363602;stroke-dasharray:none"
         id="line1837"
         stroke-miterlimit="10"
         x1="541.2063"
         y1="-286.85101"
         x2="563.38379"
         y2="-286.85101" /></g></g><g
     id="g1468"
     transform="translate(474.72494,-149.51047)"><path
       style="fill:#f3ba93;fill-opacity:1;stroke:none;stroke-width:2;stroke-linecap:round;stroke-linejoin:round;stroke-miterlimit:4;stroke-dasharray:none;stroke-opacity:1"
       d="m 433.32539,-301.10563 7.06868,-30.1952 c 0.59745,-2.13358 0.74183,-1.65487 1.32735,-0.14581 l 4.3518,11.93637 c 0.40384,1.16489 1.354,1.12858 1.71915,-0.10703 l 2.39124,-6.34199 c 0.569,-1.33732 1.25345,-0.98126 1.5354,0.11191 l 7.48151,32.17051 c 0.78959,2.20454 1.81026,1.67842 2.41278,0.0901 l 4.04874,-10.11073 c 0.4558,-1.23086 1.10397,-1.03028 1.68002,-0.1622 l 1.49906,2.48269 c 0.65107,1.24381 1.48708,0.68732 2.03814,-0.0186 l 1.72492,-2.47026 c 0.76106,-1.01911 1.39897,-1.09253 2.94056,0.29821 l 3.9222,3.50645 c 0.78951,0.92867 2.05891,0.79548 3.2583,0.06 1.56956,-1.12559 5.1377,-3.09638 8.20159,-4.94066 1.21075,-0.82006 2.58123,-0.53659 3.01243,1.05848 l 0.99181,3.96723 c 0.42741,1.58988 1.32327,0.86154 1.87325,-0.30328 l 1.16728,-2.33457 c 0.69903,-1.23048 1.74524,-1.34875 2.98197,-1.23996 l 4.52092,-0.0741 h 0.6642 v 27.15446 h -72.8133 z"
       id="path1453"
       inkscape:connector-curvature="0"
       sodipodi:nodetypes="cccccccccccccccccccccccccccc" /><path
       inkscape:connector-curvature="0"
       id="path1425"
       d="m 429.0891,-350.51714 v 77.77029 h 79.60448"
       style="fill:none;stroke:#424143;stroke-width:2.5;stroke-linecap:round;stroke-linejoin:round;stroke-miterlimit:4;stroke-dasharray:none;stroke-opacity:1" /><g
       transform="translate(2.1519324,0.36684095)"
       id="g1439"><path
         style="fill:none;stroke:#424143;stroke-width:2;stroke-linecap:round;stroke-linejoin:miter;stroke-miterlimit:4;stroke-dasharray:none;stroke-opacity:1"
         d="m 436.74825,-272.50049 v 5.31919"
         id="path1427"
         inkscape:connector-curvature="0" /><path
         inkscape:connector-curvature="0"
         id="path1429"
         d="m 456.74825,-272.50049 v 5.31919"
         style="fill:none;stroke:#424143;stroke-width:2;stroke-linecap:round;stroke-linejoin:miter;stroke-miterlimit:4;stroke-dasharray:none;stroke-opacity:1" /><path
         style="fill:none;stroke:#424143;stroke-width:2;stroke-linecap:round;stroke-linejoin:miter;stroke-miterlimit:4;stroke-dasharray:none;stroke-opacity:1"
         d="m 476.74825,-272.50049 v 5.31919"
         id="path1431"
         inkscape:connector-curvature="0" /><path
         inkscape:connector-curvature="0"
         id="path1433"
         d="m 496.74825,-272.50049 v 5.31919"
         style="fill:none;stroke:#424143;stroke-width:2;stroke-linecap:round;stroke-linejoin:miter;stroke-miterlimit:4;stroke-dasharray:none;stroke-opacity:1" /></g><g
       id="g1449"
       transform="rotate(-90,424.91378,-269.80637)"><path
         inkscape:connector-curvature="0"
         id="path1441"
         d="m 436.74825,-272.50049 v 5.31919"
         style="fill:none;stroke:#424143;stroke-width:2;stroke-linecap:round;stroke-linejoin:miter;stroke-miterlimit:4;stroke-dasharray:none;stroke-opacity:1" /><path
         style="fill:none;stroke:#424143;stroke-width:2;stroke-linecap:round;stroke-linejoin:miter;stroke-miterlimit:4;stroke-dasharray:none;stroke-opacity:1"
         d="m 456.74825,-272.50049 v 5.31919"
         id="path1443"
         inkscape:connector-curvature="0" /><path
         inkscape:connector-curvature="0"
         id="path1445"
         d="m 476.74825,-272.50049 v 5.31919"
         style="fill:none;stroke:#424143;stroke-width:2;stroke-linecap:round;stroke-linejoin:miter;stroke-miterlimit:4;stroke-dasharray:none;stroke-opacity:1" /><path
         style="fill:none;stroke:#424143;stroke-width:2;stroke-linecap:round;stroke-linejoin:miter;stroke-miterlimit:4;stroke-dasharray:none;stroke-opacity:1"
         d="m 496.74825,-272.50049 v 5.31919"
         id="path1447"
         inkscape:connector-curvature="0" /></g><path
       sodipodi:nodetypes="cccccccccccccccccccccccc"
       inkscape:connector-curvature="0"
       id="path1451"
       d="m 435.32539,-306.59062 6.335,-26.80192 c 0.59745,-2.13358 1.47551,-1.56316 2.06103,-0.0541 l 4.3518,11.93637 c 0.40384,1.16489 1.354,1.12858 1.71915,-0.10703 l 2.39124,-6.34199 c 0.569,-1.33732 1.25345,-0.98126 1.5354,0.11191 l 7.48151,32.17051 c 0.78959,2.20454 1.81026,1.67842 2.41278,0.0901 l 4.04874,-10.11073 c 0.4558,-1.23086 1.10397,-1.03028 1.68002,-0.1622 l 1.49906,2.48269 c 0.65107,1.24381 1.48708,0.68732 2.03814,-0.0186 l 1.72492,-2.47026 c 0.76106,-1.01911 1.39897,-1.09253 2.94056,0.29821 l 3.9222,3.50645 c 0.78951,0.92867 2.05891,0.79548 3.2583,0.06 1.56956,-1.12559 5.1377,-3.09638 8.20159,-4.94066 1.21075,-0.82006 2.58123,-0.53659 3.01243,1.05848 l 0.99181,3.96723 c 0.42741,1.58988 1.32327,0.86154 1.87325,-0.30328 l 1.16728,-2.33457 c 0.69903,-1.23048 1.74524,-1.34875 2.98197,-1.23996 l 4.52092,-0.0741"
       style="fill:none;stroke:#424143;stroke-width:2;stroke-linecap:round;stroke-linejoin:round;stroke-miterlimit:4;stroke-dasharray:none;stroke-opacity:1" /></g><g
     id="g1298"><path
       sodipodi:nodetypes="cssc"
       style="fill:#ffffff;fill-opacity:1;stroke:#424143;stroke-width:2.57179999;stroke-linejoin:round;stroke-miterlimit:10"
       inkscape:connector-curvature="0"
       id="path1277"
       stroke-miterlimit="10"
       d="m 487.11288,-349.60288 h 11.3264 c 1.50182,0 2.61597,1.54233 2.61597,2.81881 v 43.95949" /><path
       sodipodi:nodetypes="ccscscc"
       style="fill:#ffffff;fill-opacity:1;stroke:#424143;stroke-width:2.57179999;stroke-linejoin:round;stroke-miterlimit:10"
       inkscape:connector-curvature="0"
       id="path1275"
       stroke-miterlimit="10"
       d="m 433.00578,-319.26298 c 0,0 8e-4,-30.32229 0,-31.87503 -8e-4,-2.07728 1.45616,-3.58678 4.00965,-3.58678 1.52665,0 55.51751,0.002 56.61885,0 1.75251,-0.003 3.29278,0.85845 3.29278,3.43623 v 1.68568 28.7775" /><path
       sodipodi:nodetypes="cccccssssssccc"
       style="fill:#ffffff;fill-opacity:1;stroke:#424143;stroke-width:2.57179999;stroke-linejoin:round;stroke-miterlimit:10"
       inkscape:connector-curvature="0"
       id="path1273"
       stroke-miterlimit="10"
       d="m 504.29676,-320.81817 c -0.98439,0.002 -37.32031,0.009 -38.99754,-0.0408 -1.67723,-0.0496 -2.65361,-0.24985 -4.36608,-2.01802 -0.69684,-0.71911 -1.93881,-2.70479 -3.47507,-4.71079 -1.67403,-2.18458 -6.32557,-7.66075 -8.97838,-7.67596 -1.30157,-0.007 -18.47113,0.0344 -20.37423,0 -1.9031,-0.0344 -3.43375,1.46706 -3.43375,3.24403 v 61.8609 c 0,1.91872 1.99922,2.96056 3.33363,2.96056 1.33441,0 76.37633,0.0745 77.69392,0 1.31759,-0.0745 2.77295,-1.39259 2.77295,-3.38658 0,-1.99399 -0.01,-45.60389 0,-46.87155 0.0128,-1.83383 -1.42172,-3.36896 -4.17545,-3.36175 z" /><path
       d="M 481.2505,-271.01971"
       stroke-miterlimit="10"
       id="path36_1_"
       inkscape:connector-curvature="0"
       style="fill:none;stroke:#010101;stroke-width:3.43650007;stroke-linejoin:round;stroke-miterlimit:10" /><path
       inkscape:connector-curvature="0"
       id="path1279"
       d="m 425.23932,-267.03055 c -1.17126,-0.57712 -1.0862,2.0906 -1.03651,-32.50758 l 0.0452,-31.46017 0.5716,-0.51071 0.57159,-0.51071 h 10.91645 10.91644 l 1.09231,0.72941 c 1.78344,1.19094 4.21884,3.82913 7.18432,7.78254 2.86333,3.81722 3.59398,4.54881 5.35421,5.36106 l 0.84873,0.39164 21.01099,0.0875 c 20.36249,0.0848 21.02694,0.0979 21.52825,0.42442 0.28449,0.18529 0.61321,0.46096 0.73048,0.61259 0.16519,0.21359 0.21447,5.73046 0.21879,24.4906 l 0.006,24.21491 -0.59509,0.59509 -0.59509,0.59509 -39.09216,-0.004 c -35.9104,-0.004 -39.13968,-0.0274 -39.67606,-0.2917 z m 32.3512,-8.10558 c 0.42052,-0.42052 0.4443,-0.83771 0.0776,-1.36127 l -0.27246,-0.38899 h -13.44568 c -10.54651,0 -13.48342,0.0472 -13.62072,0.21878 -0.38695,0.48366 -0.39794,0.95278 -0.0332,1.41647 l 0.36582,0.46506 h 13.28931 c 13.05594,0 13.29545,-0.006 13.63936,-0.35005 z m -0.0127,-6.76212 c 0.44865,-0.57037 0.45333,-0.78841 0.0282,-1.31346 l -0.33458,-0.4132 H 443.9385 430.60556 l -0.33458,0.4132 c -0.442,0.54584 -0.42207,0.82794 0.095,1.34502 l 0.42961,0.42961 h 13.20974 13.20975 l 0.36276,-0.46117 z"
       style="opacity:1;fill:#b8e69a;fill-opacity:1;stroke:none;stroke-width:2;stroke-linecap:round;stroke-linejoin:round;stroke-miterlimit:10;stroke-dasharray:none;stroke-opacity:1" /><path
       d="m 504.29676,-320.81817 c -0.98439,0.002 -37.32031,0.009 -38.99754,-0.0408 -1.67723,-0.0496 -2.65361,-0.24985 -4.36608,-2.01802 -0.69684,-0.71911 -5.78939,-7.78056 -7.32565,-9.78656 -1.67403,-2.18458 -2.47499,-2.58498 -5.1278,-2.60019 -1.30157,-0.007 -18.47113,0.0344 -20.37423,0 -1.9031,-0.0344 -3.43375,1.46706 -3.43375,3.24403 0,1.32533 0,60.47632 0,61.8609 0,1.91872 1.99922,2.96056 3.33363,2.96056 1.33441,0 76.37633,0.0745 77.69392,0 1.31759,-0.0745 2.77295,-1.39259 2.77295,-3.38658 0,-1.99399 -0.01,-45.60389 0,-46.87155 0.0128,-1.83383 -1.42172,-3.36896 -4.17545,-3.36175 z"
       stroke-miterlimit="10"
       id="polygon38_1_"
       inkscape:connector-curvature="0"
       style="fill:none;stroke:#424143;stroke-width:2.57179999;stroke-linejoin:round;stroke-miterlimit:10" /><line
       y2="-284.34979"
       x2="458.67203"
       y1="-284.34979"
       x1="432.92328"
       stroke-miterlimit="10"
       id="line40_1_"
       style="fill:none;stroke:#424143;stroke-width:2;stroke-linecap:round;stroke-linejoin:round;stroke-miterlimit:10;stroke-dasharray:none" /><line
       y2="-346.49258"
       x2="489.92822"
       y1="-346.49258"
       x1="440.58536"
       stroke-miterlimit="10"
       id="line42_1_"
       style="fill:none;stroke:#424143;stroke-width:2;stroke-linecap:round;stroke-linejoin:round;stroke-miterlimit:10;stroke-dasharray:none" /><line
       y2="-339.08841"
       x2="489.92822"
       y1="-339.08841"
       x1="440.58536"
       stroke-miterlimit="10"
       id="line44_1_"
       style="fill:none;stroke:#424143;stroke-width:2;stroke-linecap:round;stroke-linejoin:round;stroke-miterlimit:10;stroke-dasharray:none" /><line
       y2="-331.81314"
       x2="472.45508"
       y1="-331.681"
       x1="454.34277"
       stroke-miterlimit="10"
       id="line46_1_"
       style="fill:none;stroke:#424143;stroke-width:2;stroke-linecap:round;stroke-linejoin:round;stroke-miterlimit:10;stroke-dasharray:none" /><line
       y2="-277.66794"
       x2="458.67203"
       y1="-277.66794"
       x1="432.92328"
       stroke-miterlimit="10"
       id="line48_1_"
       style="fill:none;stroke:#424143;stroke-width:2;stroke-linecap:round;stroke-linejoin:round;stroke-miterlimit:10;stroke-dasharray:none" /><path
       d="m 433.00578,-335.26298 c 0,0 8e-4,-14.32229 0,-15.87503 -8e-4,-2.07728 1.45616,-3.58678 4.00965,-3.58678 1.52665,0 55.51751,0.002 56.61885,0 1.75251,-0.003 3.29278,0.85845 3.29278,3.43623 0,0.72552 0,1.68568 0,1.68568 v 28.7775"
       stroke-miterlimit="10"
       id="polyline52_1_"
       inkscape:connector-curvature="0"
       style="fill:none;stroke:#424143;stroke-width:2.57179999;stroke-linejoin:round;stroke-miterlimit:10" /><path
       d="m 497.11288,-349.60288 c 0,0 -0.5006,0 1.3264,0 1.50182,0 2.61597,1.54233 2.61597,2.81881 0,1.001 0,25.95949 0,25.95949"
       stroke-miterlimit="10"
       id="polyline54_1_"
       inkscape:connector-curvature="0"
       style="fill:none;stroke:#424143;stroke-width:2.57179999;stroke-linejoin:round;stroke-miterlimit:10" /><path
       inkscape:connector-curvature="0"
       id="path1281"
       d="m 476.82,-326.74285 v -2.10031 h 4.90074 4.90074 v 2.10031 2.10032 H 481.72074 476.82 Z"
       style="opacity:1;fill:#b8e69a;fill-opacity:1;stroke:none;stroke-width:2;stroke-linecap:round;stroke-linejoin:round;stroke-miterlimit:10;stroke-dasharray:none;stroke-opacity:1" /><polygon
       transform="matrix(0.80096826,0,0,0.80079871,-95.678923,-379.01622)"
       points="715.565,59.04 715.565,67.031 730.408,67.031 730.408,59.11 "
       stroke-miterlimit="10"
       id="polygon50_1_"
       style="fill:none;stroke:#424143;stroke-width:2.49724217;stroke-linejoin:round;stroke-miterlimit:10;stroke-dasharray:none" /></g></svg>