<?xml version="1.0" encoding="UTF-8" standalone="no"?>
<!-- Generator: Adobe Illustrator 14.0.0, SVG Export Plug-In . SVG Version: 6.00 Build 43363)  -->

<svg
   xmlns:dc="http://purl.org/dc/elements/1.1/"
   xmlns:cc="http://creativecommons.org/ns#"
   xmlns:rdf="http://www.w3.org/1999/02/22-rdf-syntax-ns#"
   xmlns:svg="http://www.w3.org/2000/svg"
   xmlns="http://www.w3.org/2000/svg"
   xmlns:sodipodi="http://sodipodi.sourceforge.net/DTD/sodipodi-0.dtd"
   xmlns:inkscape="http://www.inkscape.org/namespaces/inkscape"
   version="1.1"
   id="Layer_1"
   inkscape:version="0.92.2 (5c3e80d, 2017-08-06)"
   sodipodi:docname="minutes_text.svg"
   x="0px"
   y="0px"
   width="100"
   height="100"
   viewBox="416.572 -360.945 100 100"
   enable-background="new 416.572 -360.945 595.275 841.89"
   xml:space="preserve"
   inkscape:export-filename="C:\Users\holly.jones\Downloads\volcano_pixelhint_12th_jan-20180116T210822Z-001\volcano_pixelhint_12th_jan\volcano_pixelhint\img\hedges_icon_100_white.png"
   inkscape:export-xdpi="149.93106"
   inkscape:export-ydpi="149.93106"><metadata
     id="metadata326"><rdf:RDF><cc:Work
         rdf:about=""><dc:format>image/svg+xml</dc:format><dc:type
           rdf:resource="http://purl.org/dc/dcmitype/StillImage" /><dc:title /></cc:Work></rdf:RDF></metadata><defs
     id="defs324" /><sodipodi:namedview
     id="namedview230"
     inkscape:pageshadow="2"
     inkscape:window-width="1920"
     inkscape:window-height="1001"
     inkscape:window-x="-9"
     inkscape:window-y="-9"
     inkscape:current-layer="Layer_1"
     inkscape:pageopacity="0"
     gridtolerance="10"
     inkscape:zoom="4.04"
     inkscape:cy="34.155034"
     guidetolerance="10"
     bordercolor="#666666"
     showgrid="false"
     borderopacity="1"
     objecttolerance="10"
     inkscape:cx="-11.320703"
     pagecolor="#ffffff"
     inkscape:window-maximized="1"
     inkscape:snap-nodes="false" /><text
     xml:space="preserve"
     style="font-style:normal;font-weight:normal;font-size:40px;line-height:125%;font-family:Sans;letter-spacing:0px;word-spacing:0px;fill:#000000;fill-opacity:1;stroke:none;stroke-width:1px;stroke-linecap:butt;stroke-linejoin:miter;stroke-opacity:1"
     x="566.7934"
     y="-274.51813"
     id="text5063"><tspan
       sodipodi:role="line"
       id="tspan5061"
       x="566.7934"
       y="-239.1275" /></text>
<g
     id="g882"><path
       d="m 430.76375,-334.21092 c 0,0 8.4e-4,-15.10866 0,-16.74666 -8.4e-4,-2.19132 1.53188,-3.78371 4.21814,-3.78371 1.60603,0 58.40436,0.002 59.56296,0 1.84364,-0.003 3.464,0.90559 3.464,3.62489 0,0.76536 0,1.77824 0,1.77824 v 30.35754"
       stroke-miterlimit="10"
       id="path1203-4"
       inkscape:connector-curvature="0"
       style="fill:#ffffff;fill-opacity:1;stroke:#424143;stroke-width:2.57180023;stroke-linejoin:round;stroke-miterlimit:10" /><path
       d="m 498.20433,-349.33816 c 0,0 -0.52663,0 1.39538,0 1.57991,0 2.75199,1.62702 2.75199,2.97358 0,1.05596 0,27.3848 0,27.3848"
       stroke-miterlimit="10"
       id="path1205-5"
       inkscape:connector-curvature="0"
       style="fill:#ffffff;fill-opacity:1;stroke:#424143;stroke-width:2.57180023;stroke-linejoin:round;stroke-miterlimit:10" /><path
       style="fill:#ffffff;fill-opacity:1;stroke:#424143;stroke-width:2.57180023;stroke-linejoin:round;stroke-miterlimit:10"
       inkscape:connector-curvature="0"
       id="path1207-2"
       stroke-miterlimit="10"
       d="m 430.76375,-339.40385 c 0,0 8.4e-4,57.52174 0,60.2777 -8.4e-4,3.68695 1.53188,6.36617 4.21814,6.36617 1.60603,0 58.40436,-0.003 59.56296,0 1.84364,0.006 3.464,-1.52368 3.464,-6.09895 v -2.99192 -51.07713"
       sodipodi:nodetypes="ccscscc" /><path
       sodipodi:nodetypes="cscccc"
       d="m 435.13517,-273.64793 c -8.4e-4,3.68695 1.53188,6.36617 4.21815,6.36617 1.60603,0 52.31167,0.0749 53.47027,0.0775 4.13107,-0.006 9.19535,0.90351 9.52936,-5.64591 l 0.0273,-8.59103 -0.0625,-65.44603"
       stroke-miterlimit="10"
       id="path1209-4"
       inkscape:connector-curvature="0"
       style="fill:#ffffff;fill-opacity:1;stroke:#424143;stroke-width:2.57180023;stroke-linejoin:round;stroke-miterlimit:10" /><rect
       ry="0.4839977"
       y="-329.65149"
       x="475.55685"
       height="9.0537529"
       width="13.156449"
       id="rect4938-6"
       style="opacity:1;fill:#b8e69a;fill-opacity:1;stroke:none;stroke-width:1.28599989;stroke-linejoin:round;stroke-miterlimit:4;stroke-dasharray:none;stroke-opacity:1" /><path
       d="M 481.51713,-266.44035"
       stroke-miterlimit="10"
       id="path4824-4"
       inkscape:connector-curvature="0"
       style="fill:none;stroke:#010101;stroke-width:3.43649983;stroke-linejoin:round;stroke-miterlimit:10" /><line
       y2="-346.0571"
       x2="490.64609"
       y1="-346.0571"
       x1="438.73749"
       stroke-miterlimit="10"
       id="line4830-3"
       style="fill:none;stroke:#424143;stroke-width:2;stroke-linecap:round;stroke-linejoin:round;stroke-miterlimit:9.39999962;stroke-dasharray:none" /><line
       y2="-338.24637"
       x2="490.90335"
       y1="-338.24637"
       x1="438.74094"
       stroke-miterlimit="10"
       id="line4832-9"
       style="fill:none;stroke:#424143;stroke-width:2;stroke-linecap:round;stroke-linejoin:round;stroke-miterlimit:9.39999962;stroke-dasharray:none" /><path
       d="m 430.76375,-334.21092 c 0,0 8.4e-4,-15.10866 0,-16.74666 -8.4e-4,-2.19132 1.53188,-3.78371 4.21814,-3.78371 1.60603,0 58.40436,0.002 59.56296,0 1.84364,-0.003 3.464,0.90559 3.464,3.62489 0,0.76536 0,1.77824 0,1.77824 v 30.35754"
       stroke-miterlimit="10"
       id="path4840-9"
       inkscape:connector-curvature="0"
       style="fill:none;stroke:#424143;stroke-width:2.57180023;stroke-linejoin:round;stroke-miterlimit:10" /><path
       d="m 498.20433,-349.33816 c 0,0 -0.52663,0 1.39538,0 1.57991,0 2.75199,1.62702 2.75199,2.97358 0,1.05596 0,27.3848 0,27.3848"
       stroke-miterlimit="10"
       id="path4842-9"
       inkscape:connector-curvature="0"
       style="fill:none;stroke:#424143;stroke-width:2.57180023;stroke-linejoin:round;stroke-miterlimit:10" /><path
       style="fill:none;stroke:#424143;stroke-width:2.57180023;stroke-linejoin:round;stroke-miterlimit:10"
       inkscape:connector-curvature="0"
       id="path4870-6"
       stroke-miterlimit="10"
       d="m 430.76375,-339.40385 c 0,0 8.4e-4,57.52174 0,60.2777 -8.4e-4,3.68695 1.53188,6.36617 4.21814,6.36617 1.60603,0 58.40436,-0.003 59.56296,0 1.84364,0.006 3.464,-1.52368 3.464,-6.09895 v -2.99192 -51.07713"
       sodipodi:nodetypes="ccscscc" /><path
       sodipodi:nodetypes="cscccc"
       d="m 435.13517,-273.64793 c -8.4e-4,3.68695 1.53188,6.36617 4.21815,6.36617 1.60603,0 52.31167,0.0749 53.47027,0.0775 4.13107,-0.006 9.19535,0.90351 9.52936,-5.64591 l 0.0273,-8.59103 v -46.00852"
       stroke-miterlimit="10"
       id="path4872-7"
       inkscape:connector-curvature="0"
       style="fill:none;stroke:#424143;stroke-width:2.57180023;stroke-linejoin:round;stroke-miterlimit:10" /><line
       style="fill:none;stroke:#424143;stroke-width:2;stroke-linecap:round;stroke-linejoin:round;stroke-miterlimit:9.39999962;stroke-dasharray:none"
       id="line4874-5"
       stroke-miterlimit="10"
       x1="438.55399"
       y1="-330.49893"
       x2="471.16211"
       y2="-330.49893" /><line
       style="fill:none;stroke:#424143;stroke-width:2;stroke-linecap:round;stroke-linejoin:round;stroke-miterlimit:9.39999962;stroke-dasharray:none"
       id="line4876-9"
       stroke-miterlimit="10"
       x1="438.54648"
       y1="-322.6882"
       x2="471.16278"
       y2="-322.6882" /><rect
       style="opacity:1;fill:none;fill-opacity:1;stroke:#424143;stroke-width:2;stroke-linejoin:round;stroke-miterlimit:9.39999962;stroke-dasharray:none;stroke-opacity:1"
       id="rect4894-3"
       width="15.06895"
       height="11.272432"
       x="475.73941"
       y="-331.77927"
       ry="0.60260445" /><text
       style="font-size:20.78250694px;font-family:CenturyGothic;fill:#424143;stroke-width:1"
       id="text5039"
       font-size="48.736"
       x="434.57925"
       y="-279.71689">11th</text>
<text
       y="-300.3432"
       x="437.26828"
       font-size="48.736"
       id="text5059"
       style="font-size:20.02172661px;font-family:CenturyGothic;fill:#424143;stroke-width:1">Sept</text>
</g></svg>