<?xml version="1.0" encoding="UTF-8" standalone="no"?>
<!-- Generator: Adobe Illustrator 14.0.0, SVG Export Plug-In . SVG Version: 6.00 Build 43363)  -->

<svg
   xmlns:dc="http://purl.org/dc/elements/1.1/"
   xmlns:cc="http://creativecommons.org/ns#"
   xmlns:rdf="http://www.w3.org/1999/02/22-rdf-syntax-ns#"
   xmlns:svg="http://www.w3.org/2000/svg"
   xmlns="http://www.w3.org/2000/svg"
   xmlns:sodipodi="http://sodipodi.sourceforge.net/DTD/sodipodi-0.dtd"
   xmlns:inkscape="http://www.inkscape.org/namespaces/inkscape"
   version="1.1"
   id="Layer_1"
   inkscape:version="0.92.2 (5c3e80d, 2017-08-06)"
   sodipodi:docname="minutes_dec_4th.svg"
   x="0px"
   y="0px"
   width="100"
   height="100"
   viewBox="416.572 -360.945 100 100"
   enable-background="new 416.572 -360.945 595.275 841.89"
   xml:space="preserve"
   inkscape:export-filename="C:\Users\holly.jones\Downloads\volcano_pixelhint_12th_jan-20180116T210822Z-001\volcano_pixelhint_12th_jan\volcano_pixelhint\img\hedges_icon_100_white.png"
   inkscape:export-xdpi="149.93106"
   inkscape:export-ydpi="149.93106"><metadata
     id="metadata326"><rdf:RDF><cc:Work
         rdf:about=""><dc:format>image/svg+xml</dc:format><dc:type
           rdf:resource="http://purl.org/dc/dcmitype/StillImage" /><dc:title /></cc:Work></rdf:RDF></metadata><defs
     id="defs324" /><sodipodi:namedview
     id="namedview230"
     inkscape:pageshadow="2"
     inkscape:window-width="1920"
     inkscape:window-height="1001"
     inkscape:window-x="-9"
     inkscape:window-y="-9"
     inkscape:current-layer="g1247"
     inkscape:pageopacity="0"
     gridtolerance="10"
     inkscape:zoom="4.04"
     inkscape:cy="27.031661"
     guidetolerance="10"
     bordercolor="#666666"
     showgrid="false"
     borderopacity="1"
     objecttolerance="10"
     inkscape:cx="-61.433339"
     pagecolor="#ffffff"
     inkscape:window-maximized="1"
     inkscape:snap-nodes="false" /><text
     xml:space="preserve"
     style="font-style:normal;font-weight:normal;font-size:40px;line-height:125%;font-family:Sans;letter-spacing:0px;word-spacing:0px;fill:#000000;fill-opacity:1;stroke:none;stroke-width:1px;stroke-linecap:butt;stroke-linejoin:miter;stroke-opacity:1"
     x="566.7934"
     y="-274.51813"
     id="text5063"><tspan
       sodipodi:role="line"
       id="tspan5061"
       x="566.7934"
       y="-239.1275" /></text>
<g
     id="g1247"><g
       id="g870"><g
         transform="matrix(0.84261759,0,0,0.8447668,-130.43903,-520.17068)"
         style="stroke-width:1.18526733"
         id="g1241"><path
           d="m 666.0231,220.13147 c 0,0 10e-4,-17.885 0,-19.824 -10e-4,-2.594 1.818,-4.479 5.006,-4.479 1.906,0 69.313,0.002 70.688,0 2.188,-0.004 4.111,1.072 4.111,4.291 0,0.906 0,2.105 0,2.105 v 35.936"
           stroke-miterlimit="10"
           id="path1203-4"
           inkscape:connector-curvature="0"
           style="fill:#ffffff;fill-opacity:1;stroke:#424143;stroke-width:3.0482707;stroke-linejoin:round;stroke-miterlimit:10" /><path
           d="m 746.0601,202.22447 c 0,0 -0.625,0 1.656,0 1.875,0 3.266,1.926 3.266,3.52 0,1.25 0,32.417 0,32.417"
           stroke-miterlimit="10"
           id="path1205-5"
           inkscape:connector-curvature="0"
           style="fill:#ffffff;fill-opacity:1;stroke:#424143;stroke-width:3.0482707;stroke-linejoin:round;stroke-miterlimit:10" /><path
           style="fill:#ffffff;fill-opacity:1;stroke:#424143;stroke-width:3.0482707;stroke-linejoin:round;stroke-miterlimit:10"
           inkscape:connector-curvature="0"
           id="path1207-2"
           stroke-miterlimit="10"
           d="m 666.0231,213.9843 c 0,0 10e-4,68.09185 0,71.35425 -10e-4,4.36446 1.818,7.536 5.006,7.536 1.906,0 69.313,-0.003 70.688,0 2.188,0.007 4.111,-1.80366 4.111,-7.21968 v -3.54171 -60.46299"
           sodipodi:nodetypes="ccscscc" /><path
           sodipodi:nodetypes="cscccc"
           d="m 671.21101,291.82344 c -10e-4,4.36446 1.818,7.536 5.006,7.536 1.906,0 62.08234,0.0887 63.45734,0.0917 4.90267,-0.007 10.91284,1.06954 11.30924,-6.6834 l 0.0324,-10.1697 -0.0742,-77.4723"
           stroke-miterlimit="10"
           id="path1209-4"
           inkscape:connector-curvature="0"
           style="fill:#ffffff;fill-opacity:1;stroke:#424143;stroke-width:3.0482707;stroke-linejoin:round;stroke-miterlimit:10" /><rect
           ry="0.57293648"
           y="225.52875"
           x="719.18256"
           height="10.717458"
           width="15.613785"
           id="rect4938-6"
           style="opacity:1;fill:#b8e69a;fill-opacity:1;stroke:none;stroke-width:1.52425373;stroke-linejoin:round;stroke-miterlimit:4;stroke-dasharray:none;stroke-opacity:1" /><path
           d="M 726.2561,300.35547"
           stroke-miterlimit="10"
           id="path4824-4"
           inkscape:connector-curvature="0"
           style="fill:none;stroke:#010101;stroke-width:4.07317114;stroke-linejoin:round;stroke-miterlimit:10" /><line
           y2="206.10847"
           x2="737.09015"
           y1="206.10847"
           x1="675.48615"
           stroke-miterlimit="10"
           id="line4830-3"
           style="fill:none;stroke:#424143;stroke-width:2.37053466;stroke-linecap:round;stroke-linejoin:round;stroke-miterlimit:9.39999962;stroke-dasharray:none" /><line
           y2="215.35448"
           x2="737.39545"
           y1="215.35448"
           x1="675.49023"
           stroke-miterlimit="10"
           id="line4832-9"
           style="fill:none;stroke:#424143;stroke-width:2.37053466;stroke-linecap:round;stroke-linejoin:round;stroke-miterlimit:9.39999962;stroke-dasharray:none" /><path
           d="m 666.0231,220.13147 c 0,0 10e-4,-17.885 0,-19.824 -10e-4,-2.594 1.818,-4.479 5.006,-4.479 1.906,0 69.313,0.002 70.688,0 2.188,-0.004 4.111,1.072 4.111,4.291 0,0.906 0,2.105 0,2.105 v 35.936"
           stroke-miterlimit="10"
           id="path4840-9"
           inkscape:connector-curvature="0"
           style="fill:none;stroke:#424143;stroke-width:3.0482707;stroke-linejoin:round;stroke-miterlimit:10" /><path
           d="m 746.0601,202.22447 c 0,0 -0.625,0 1.656,0 1.875,0 3.266,1.926 3.266,3.52 0,1.25 0,32.417 0,32.417"
           stroke-miterlimit="10"
           id="path4842-9"
           inkscape:connector-curvature="0"
           style="fill:none;stroke:#424143;stroke-width:3.0482707;stroke-linejoin:round;stroke-miterlimit:10" /><path
           style="fill:none;stroke:#424143;stroke-width:3.0482707;stroke-linejoin:round;stroke-miterlimit:10"
           inkscape:connector-curvature="0"
           id="path4870-6"
           stroke-miterlimit="10"
           d="m 666.0231,213.9843 c 0,0 10e-4,68.09185 0,71.35425 -10e-4,4.36446 1.818,7.536 5.006,7.536 1.906,0 69.313,-0.003 70.688,0 2.188,0.007 4.111,-1.80366 4.111,-7.21968 v -3.54171 -60.46299"
           sodipodi:nodetypes="ccscscc" /><path
           sodipodi:nodetypes="cscccc"
           d="m 671.21101,291.82344 c -10e-4,4.36446 1.818,7.536 5.006,7.536 1.906,0 62.08234,0.0887 63.45734,0.0917 4.90267,-0.007 10.91284,1.06954 11.30924,-6.6834 l 0.0324,-10.1697 v -54.46299"
           stroke-miterlimit="10"
           id="path4872-7"
           inkscape:connector-curvature="0"
           style="fill:none;stroke:#424143;stroke-width:3.0482707;stroke-linejoin:round;stroke-miterlimit:10" /><line
           style="fill:none;stroke:#424143;stroke-width:2.37053466;stroke-linecap:round;stroke-linejoin:round;stroke-miterlimit:9.39999962;stroke-dasharray:none"
           id="line4874-5"
           stroke-miterlimit="10"
           x1="675.26837"
           y1="224.52557"
           x2="713.96698"
           y2="224.52557" /><line
           style="fill:none;stroke:#424143;stroke-width:2.37053466;stroke-linecap:round;stroke-linejoin:round;stroke-miterlimit:9.39999962;stroke-dasharray:none"
           id="line4876-9"
           stroke-miterlimit="10"
           x1="675.25946"
           y1="233.77158"
           x2="713.96777"
           y2="233.77158" /><rect
           style="opacity:1;fill:none;fill-opacity:1;stroke:#424143;stroke-width:2.37053466;stroke-linejoin:round;stroke-miterlimit:9.39999962;stroke-dasharray:none;stroke-opacity:1"
           id="rect4894-3"
           width="17.883497"
           height="13.34384"
           x="719.39923"
           y="223.00995"
           ry="0.71333826" /></g><g
         id="text5039"
         style="font-size:20.78250694px;font-family:CenturyGothic;fill:#424143;stroke-width:1"
         aria-label="4th"><path
           id="path832"
           style="font-size:20.78250694px;font-family:CenturyGothic;fill:#424143;stroke-width:1"
           d="m 445.85463,-295.01963 h 0.30443 v 10.4014 h 1.80629 v 1.43083 h -1.80629 v 3.47051 h -1.49171 v -3.47051 h -7.13384 z m -1.18728,10.4014 v -6.22055 l -4.39396,6.22055 z" /><path
           id="path834"
           style="font-size:20.78250694px;font-family:CenturyGothic;fill:#424143;stroke-width:1"
           d="m 451.35469,-294.85727 h 1.43083 v 4.09967 h 2.25279 v 1.21773 h -2.25279 v 9.82298 h -1.43083 v -9.82298 h -1.93821 v -1.21773 h 1.93821 z" /><path
           id="path836"
           style="font-size:20.78250694px;font-family:CenturyGothic;fill:#424143;stroke-width:1"
           d="m 457.17947,-295.01963 h 1.42068 v 6.24084 q 0.86256,-1.13655 1.89762,-1.69467 1.03507,-0.56827 2.24265,-0.56827 1.23802,0 2.1919,0.62916 0.96404,0.62915 1.42068,1.69466 0.45665,1.05537 0.45665,3.3183 v 5.68272 h -1.42068 v -5.26666 q 0,-1.90777 -0.15222,-2.54707 -0.26384,-1.09596 -0.96403,-1.64393 -0.69004,-0.55813 -1.81644,-0.55813 -1.28876,0 -2.31367,0.85241 -1.01478,0.85241 -1.3395,2.11072 -0.20296,0.81182 -0.20296,3.00373 v 4.04893 h -1.42068 z" /></g><g
         id="text5059"
         style="font-size:20.02172661px;font-family:CenturyGothic;fill:#424143;stroke-width:1"
         aria-label="Dec"><path
           id="path839"
           style="font-size:20.02172661px;font-family:CenturyGothic;fill:#424143;stroke-width:1"
           d="m 437.53352,-300.3432 v -14.38084 h 2.98175 q 3.22615,0 4.68281,0.51814 2.09212,0.73322 3.26526,2.54182 1.18293,1.8086 1.18293,4.31132 0,2.16055 -0.93852,3.80295 -0.92874,1.64241 -2.42451,2.42451 -1.48598,0.7821 -4.17445,0.7821 z m 1.37844,-1.3589 h 1.66196 q 2.98176,0 4.13535,-0.37149 1.62286,-0.52792 2.5516,-1.89659 0.92874,-1.37845 0.92874,-3.36303 0,-2.08234 -1.00695,-3.55855 -1.00695,-1.47621 -2.80578,-2.02368 -1.34912,-0.4106 -4.44819,-0.4106 h -1.01673 z" /><path
           id="path841"
           style="font-size:20.02172661px;font-family:CenturyGothic;fill:#424143;stroke-width:1"
           d="m 461.16267,-303.87242 1.1536,0.60613 q -0.56702,1.11449 -1.31002,1.79882 -0.74299,0.68434 -1.67173,1.04606 -0.92875,0.35194 -2.10189,0.35194 -2.60048,0 -4.06692,-1.70106 -1.46643,-1.71084 -1.46643,-3.86161 0,-2.02368 1.24158,-3.60743 1.57397,-2.01391 4.21356,-2.01391 2.71779,0 4.34064,2.06279 1.1536,1.45666 1.17315,3.63676 h -9.56115 q 0.0391,1.85748 1.18292,3.05018 1.14382,1.18293 2.82533,1.18293 0.81143,0 1.57397,-0.28351 0.77233,-0.28352 1.31002,-0.75277 0.53769,-0.46926 1.16337,-1.51532 z m 0,-2.86444 q -0.27373,-1.09494 -0.80165,-1.74994 -0.51814,-0.65501 -1.37845,-1.05584 -0.86031,-0.40082 -1.8086,-0.40082 -1.5642,0 -2.68847,1.00695 -0.8212,0.73322 -1.24158,2.19965 z" /><path
           id="path843"
           style="font-size:20.02172661px;font-family:CenturyGothic;fill:#424143;stroke-width:1"
           d="m 475.55329,-308.77031 -1.08516,0.67456 q -1.40778,-1.86726 -3.84206,-1.86726 -1.94547,0 -3.23594,1.25135 -1.28068,1.25136 -1.28068,3.04041 0,1.16337 0.58657,2.18988 0.59635,1.0265 1.62285,1.59352 1.03629,0.56703 2.31697,0.56703 2.3463,0 3.83229,-1.86726 l 1.08516,0.71366 q -0.76255,1.14382 -2.05301,1.77927 -1.28069,0.62568 -2.9231,0.62568 -2.52226,0 -4.18422,-1.6033 -1.66196,-1.6033 -1.66196,-3.90072 0,-1.54464 0.77232,-2.86443 0.7821,-1.32957 2.14099,-2.07256 1.3589,-0.743 3.04041,-0.743 1.05584,0 2.03346,0.32262 0.9874,0.32261 1.67174,0.84075 0.68433,0.51814 1.16337,1.3198 z" /></g></g></g></svg>