<?xml version="1.0" encoding="UTF-8" standalone="no"?>
<!-- Generator: Adobe Illustrator 14.0.0, SVG Export Plug-In . SVG Version: 6.00 Build 43363)  -->

<svg
   xmlns:dc="http://purl.org/dc/elements/1.1/"
   xmlns:cc="http://creativecommons.org/ns#"
   xmlns:rdf="http://www.w3.org/1999/02/22-rdf-syntax-ns#"
   xmlns:svg="http://www.w3.org/2000/svg"
   xmlns="http://www.w3.org/2000/svg"
   xmlns:sodipodi="http://sodipodi.sourceforge.net/DTD/sodipodi-0.dtd"
   xmlns:inkscape="http://www.inkscape.org/namespaces/inkscape"
   version="1.1"
   id="Layer_1"
   inkscape:version="0.92.2 (5c3e80d, 2017-08-06)"
   sodipodi:docname="minutes_mar_13th.svg"
   x="0px"
   y="0px"
   width="100"
   height="100"
   viewBox="416.572 -360.945 100 100"
   enable-background="new 416.572 -360.945 595.275 841.89"
   xml:space="preserve"
   inkscape:export-filename="C:\Users\holly.jones\Downloads\volcano_pixelhint_12th_jan-20180116T210822Z-001\volcano_pixelhint_12th_jan\volcano_pixelhint\img\hedges_icon_100_white.png"
   inkscape:export-xdpi="149.93106"
   inkscape:export-ydpi="149.93106"><metadata
     id="metadata326"><rdf:RDF><cc:Work
         rdf:about=""><dc:format>image/svg+xml</dc:format><dc:type
           rdf:resource="http://purl.org/dc/dcmitype/StillImage" /><dc:title></dc:title></cc:Work></rdf:RDF></metadata><defs
     id="defs324"><clipPath
       clipPathUnits="userSpaceOnUse"
       id="clipPath1282"><rect
         ry="9.0558882"
         y="-355.80136"
         x="430.07397"
         height="89.648712"
         width="90.322769"
         id="rect1284"
         style="opacity:1;fill:#b8e69a;fill-opacity:1;stroke:none;stroke-width:1.99999988;stroke-linecap:round;stroke-linejoin:round;stroke-miterlimit:8.36363602;stroke-dasharray:none;stroke-opacity:1" /></clipPath></defs><sodipodi:namedview
     id="namedview230"
     inkscape:pageshadow="2"
     inkscape:window-width="1920"
     inkscape:window-height="1001"
     inkscape:window-x="-9"
     inkscape:window-y="-9"
     inkscape:current-layer="text5059"
     inkscape:pageopacity="0"
     gridtolerance="10"
     inkscape:zoom="4.04"
     inkscape:cy="-4.3968597"
     guidetolerance="10"
     bordercolor="#666666"
     showgrid="false"
     borderopacity="1"
     objecttolerance="10"
     inkscape:cx="81.229209"
     pagecolor="#ffffff"
     inkscape:window-maximized="1"
     inkscape:snap-nodes="false" /><g
     id="g1520"
     transform="translate(617.14295,-85.219098)"><g
       aria-label="13th"
       style="font-size:20.78250694px;font-family:CenturyGothic;fill:#424143;stroke-width:1"
       id="text5039"><path
         d="m -178.49817,-210.12516 h 2.93269 v 14.92728 h -1.48156 v -13.46601 h -2.34412 z"
         style="font-size:20.78250694px;font-family:CenturyGothic;fill:#424143;stroke-width:1"
         id="path1443" /><path
         d="m -168.06632,-206.66479 h -1.52216 q 0.41606,-1.84688 1.59319,-2.84135 1.17714,-0.99448 2.78048,-0.99448 1.16698,0 2.1716,0.53783 1.01478,0.52768 1.56275,1.43083 0.55813,0.90314 0.55813,1.88747 0,1.92806 -1.91792,3.05446 1.07566,0.43635 1.7657,1.27861 0.97418,1.18728 0.97418,2.6587 0,1.26846 -0.66975,2.4253 -0.66975,1.14669 -1.82659,1.77585 -1.15683,0.62916 -2.58766,0.62916 -1.92807,0 -3.21683,-1.1061 -1.28875,-1.11625 -1.68451,-3.26756 h 1.46127 q 0.38561,1.45112 1.1061,2.10057 0.92344,0.82197 2.35426,0.82197 1.62364,0 2.60796,-0.97418 0.98433,-0.97418 0.98433,-2.28324 0,-0.8727 -0.49724,-1.63378 -0.48709,-0.76108 -1.3192,-1.14669 -0.82196,-0.38561 -2.55722,-0.47694 v -1.36994 q 1.02492,0 1.86718,-0.35517 0.84226,-0.36532 1.21772,-0.92344 0.38562,-0.55813 0.38562,-1.21773 0,-0.97418 -0.78138,-1.68452 -0.77122,-0.71034 -1.9585,-0.71034 -0.96404,0 -1.66423,0.54798 -0.70019,0.53783 -1.18728,1.83673 z"
         style="font-size:20.78250694px;font-family:CenturyGothic;fill:#424143;stroke-width:1"
         id="path1445" /><path
         d="m -156.46749,-210.33826 h 1.43083 v 4.09968 h 2.25279 v 1.21772 h -2.25279 v 9.82298 h -1.43083 v -9.82298 h -1.93821 v -1.21772 h 1.93821 z"
         style="font-size:20.78250694px;font-family:CenturyGothic;fill:#424143;stroke-width:1"
         id="path1447" /><path
         d="m -150.64271,-210.50062 h 1.42068 v 6.24084 q 0.86256,-1.13654 1.89763,-1.69467 1.03506,-0.56827 2.24264,-0.56827 1.23802,0 2.1919,0.62916 0.96404,0.62916 1.42068,1.69467 0.45665,1.05536 0.45665,3.3183 v 5.68271 h -1.42068 v -5.26666 q 0,-1.90777 -0.15222,-2.54707 -0.26384,-1.09595 -0.96403,-1.64393 -0.69004,-0.55812 -1.81644,-0.55812 -1.28876,0 -2.31367,0.8524 -1.01478,0.85241 -1.3395,2.11073 -0.20296,0.81181 -0.20296,3.00372 v 4.04893 h -1.42068 z"
         style="font-size:20.78250694px;font-family:CenturyGothic;fill:#424143;stroke-width:1"
         id="path1449" /></g><rect
       ry="0.4839977"
       y="-244.4324"
       x="-141.58609"
       height="9.0537529"
       width="13.156449"
       id="rect4989"
       style="opacity:1;fill:#b8e69a;fill-opacity:1;stroke:none;stroke-width:1.28599989;stroke-linejoin:round;stroke-miterlimit:4;stroke-dasharray:none;stroke-opacity:1" /><path
       d="M -135.62582,-181.22127"
       stroke-miterlimit="10"
       id="path4991"
       inkscape:connector-curvature="0"
       style="fill:none;stroke:#010101;stroke-width:3.43649983;stroke-linejoin:round;stroke-miterlimit:10" /><line
       y2="-260.83801"
       x2="-126.49686"
       y1="-260.83801"
       x1="-178.40546"
       stroke-miterlimit="10"
       id="line4993"
       style="fill:none;stroke:#424143;stroke-width:1.28590012;stroke-linecap:round;stroke-linejoin:round;stroke-miterlimit:10" /><line
       y2="-253.02728"
       x2="-126.2396"
       y1="-253.02728"
       x1="-178.40201"
       stroke-miterlimit="10"
       id="line4995"
       style="fill:none;stroke:#424143;stroke-width:1.28599989;stroke-linecap:round;stroke-linejoin:round;stroke-miterlimit:10;stroke-dasharray:none" /><path
       d="m -186.3792,-248.99184 c 0,0 8.4e-4,-15.10866 0,-16.74666 -8.4e-4,-2.19132 1.53188,-3.78371 4.21814,-3.78371 1.60603,0 58.40436,0.002 59.56296,0 1.84364,-0.003 3.464,0.90559 3.464,3.62489 0,0.76536 0,1.77824 0,1.77824 v 30.35754"
       stroke-miterlimit="10"
       id="path4997"
       inkscape:connector-curvature="0"
       style="fill:none;stroke:#424143;stroke-width:2.57180023;stroke-linejoin:round;stroke-miterlimit:10" /><path
       d="m -118.93862,-264.11908 c 0,0 -0.52663,0 1.39538,0 1.57991,0 2.75199,1.62702 2.75199,2.97358 0,1.05596 0,27.3848 0,27.3848"
       stroke-miterlimit="10"
       id="path4999"
       inkscape:connector-curvature="0"
       style="fill:none;stroke:#424143;stroke-width:2.57180023;stroke-linejoin:round;stroke-miterlimit:10" /><path
       style="fill:none;stroke:#424143;stroke-width:2.57180023;stroke-linejoin:round;stroke-miterlimit:10"
       inkscape:connector-curvature="0"
       id="path5001"
       stroke-miterlimit="10"
       d="m -186.3792,-254.18477 c 0,0 8.4e-4,57.52174 0,60.2777 -8.4e-4,3.68695 1.53188,6.36617 4.21814,6.36617 1.60603,0 58.40436,-0.003 59.56296,0 1.84364,0.006 3.464,-1.52368 3.464,-6.09895 v -2.99192 -51.07713"
       sodipodi:nodetypes="ccscscc" /><path
       sodipodi:nodetypes="cscccc"
       d="m -182.00778,-188.42885 c -8.4e-4,3.68695 1.53188,6.36617 4.21815,6.36617 1.60603,0 52.31167,0.0749 53.47027,0.0775 4.13107,-0.006 9.19535,0.90351 9.52936,-5.64591 l 0.0273,-8.59103 v -46.00852"
       stroke-miterlimit="10"
       id="path5003"
       inkscape:connector-curvature="0"
       style="fill:none;stroke:#424143;stroke-width:2.57180023;stroke-linejoin:round;stroke-miterlimit:10" /><line
       style="fill:none;stroke:#424143;stroke-width:1.28590012;stroke-linecap:round;stroke-linejoin:round;stroke-miterlimit:10"
       id="line5005"
       stroke-miterlimit="10"
       x1="-178.58896"
       y1="-245.27985"
       x2="-145.98083"
       y2="-245.27985" /><line
       style="fill:none;stroke:#424143;stroke-width:1.28590012;stroke-linecap:round;stroke-linejoin:round;stroke-miterlimit:10"
       id="line5007"
       stroke-miterlimit="10"
       x1="-178.59647"
       y1="-237.46912"
       x2="-145.98016"
       y2="-237.46912" /><rect
       style="opacity:1;fill:none;fill-opacity:1;stroke:#424143;stroke-width:1.28599989;stroke-linejoin:round;stroke-miterlimit:4;stroke-dasharray:none;stroke-opacity:1"
       id="rect5019"
       width="15.06895"
       height="11.272432"
       x="-141.40353"
       y="-246.56018"
       ry="0.60260445" /><g
       aria-label="Mar"
       style="font-size:20.02172661px;font-family:CenturyGothic;fill:#424143;stroke-width:1"
       id="text5059"><path
         d="m -179.90357,-215.82419 2.04324,-14.38084 h 0.23463 l 5.84618,11.79992 5.78753,-11.79992 h 0.23463 l 2.06279,14.38084 h -1.41755 l -1.40778,-10.2846 -5.08364,10.2846 h -0.36172 l -5.15208,-10.36281 -1.398,10.36281 z"
         style="font-size:20.02172661px;font-family:CenturyGothic;fill:#424143;stroke-width:1"
         id="path1436" /><path
         d="m -150.45755,-226.46073 v 10.63654 h -1.34912 v -1.82815 q -0.86031,1.04605 -1.93569,1.57397 -1.06561,0.52792 -2.33652,0.52792 -2.25831,0 -3.86162,-1.63263 -1.59352,-1.64241 -1.59352,-3.98871 0,-2.29741 1.61308,-3.93004 1.61307,-1.63264 3.88116,-1.63264 1.31002,0 2.36585,0.55725 1.06561,0.55725 1.86726,1.67174 v -1.95525 z m -5.47469,1.04606 q -1.14382,0 -2.11167,0.56702 -0.96784,0.55724 -1.54464,1.57397 -0.56702,1.01673 -0.56702,2.15077 0,1.12427 0.57679,2.15077 0.5768,1.02651 1.54465,1.60331 0.97762,0.56702 2.09211,0.56702 1.12427,0 2.13122,-0.56702 1.00695,-0.56702 1.54465,-1.53487 0.54747,-0.96785 0.54747,-2.1801 0,-1.84771 -1.22203,-3.08929 -1.21226,-1.24158 -2.99153,-1.24158 z"
         style="font-size:20.02172661px;font-family:CenturyGothic;fill:#424143;stroke-width:1"
         id="path1438" /><path
         d="m -147.8864,-226.46073 h 1.398 v 1.55442 q 0.62568,-0.91897 1.31979,-1.36867 0.69412,-0.45949 1.44689,-0.45949 0.56702,0 1.21225,0.36173 l -0.71367,1.15359 q -0.43015,-0.18575 -0.72344,-0.18575 -0.68433,0 -1.31979,0.56702 -0.63545,0.55725 -0.96785,1.74017 -0.25418,0.90919 -0.25418,3.67587 v 3.59765 h -1.398 z"
         style="font-size:20.02172661px;font-family:CenturyGothic;fill:#424143;stroke-width:1"
         id="path1440" /></g></g><text
     xml:space="preserve"
     style="font-style:normal;font-weight:normal;font-size:40px;line-height:125%;font-family:Sans;letter-spacing:0px;word-spacing:0px;fill:#000000;fill-opacity:1;stroke:none;stroke-width:1px;stroke-linecap:butt;stroke-linejoin:miter;stroke-opacity:1"
     x="566.7934"
     y="-274.51813"
     id="text5063"><tspan
       sodipodi:role="line"
       id="tspan5061"
       x="566.7934"
       y="-239.1275" /></text>
<path
     d="M 1049.2848,-347.50267"
     stroke-miterlimit="10"
     id="path1720"
     inkscape:connector-curvature="0"
     style="fill:none;stroke:#010101;stroke-width:2.76591682;stroke-linejoin:round;stroke-miterlimit:10" /></svg>