<?xml version="1.0" encoding="UTF-8" standalone="no"?>
<!-- Generator: Adobe Illustrator 14.0.0, SVG Export Plug-In . SVG Version: 6.00 Build 43363)  -->

<svg
   xmlns:dc="http://purl.org/dc/elements/1.1/"
   xmlns:cc="http://creativecommons.org/ns#"
   xmlns:rdf="http://www.w3.org/1999/02/22-rdf-syntax-ns#"
   xmlns:svg="http://www.w3.org/2000/svg"
   xmlns="http://www.w3.org/2000/svg"
   xmlns:sodipodi="http://sodipodi.sourceforge.net/DTD/sodipodi-0.dtd"
   xmlns:inkscape="http://www.inkscape.org/namespaces/inkscape"
   version="1.1"
   id="Layer_1"
   inkscape:version="0.92.2 (5c3e80d, 2017-08-06)"
   sodipodi:docname="minutes_sept_11th.svg"
   x="0px"
   y="0px"
   width="100"
   height="100"
   viewBox="416.572 -360.945 100 100"
   enable-background="new 416.572 -360.945 595.275 841.89"
   xml:space="preserve"
   inkscape:export-filename="C:\Users\holly.jones\Downloads\volcano_pixelhint_12th_jan-20180116T210822Z-001\volcano_pixelhint_12th_jan\volcano_pixelhint\img\hedges_icon_100_white.png"
   inkscape:export-xdpi="149.93106"
   inkscape:export-ydpi="149.93106"><metadata
     id="metadata326"><rdf:RDF><cc:Work
         rdf:about=""><dc:format>image/svg+xml</dc:format><dc:type
           rdf:resource="http://purl.org/dc/dcmitype/StillImage" /><dc:title /></cc:Work></rdf:RDF></metadata><defs
     id="defs324" /><sodipodi:namedview
     id="namedview230"
     inkscape:pageshadow="2"
     inkscape:window-width="1920"
     inkscape:window-height="1001"
     inkscape:window-x="-9"
     inkscape:window-y="-9"
     inkscape:current-layer="Layer_1"
     inkscape:pageopacity="0"
     gridtolerance="10"
     inkscape:zoom="4.04"
     inkscape:cy="34.155034"
     guidetolerance="10"
     bordercolor="#666666"
     showgrid="false"
     borderopacity="1"
     objecttolerance="10"
     inkscape:cx="-55.751396"
     pagecolor="#ffffff"
     inkscape:window-maximized="1"
     inkscape:snap-nodes="false" /><text
     xml:space="preserve"
     style="font-style:normal;font-weight:normal;font-size:40px;line-height:125%;font-family:Sans;letter-spacing:0px;word-spacing:0px;fill:#000000;fill-opacity:1;stroke:none;stroke-width:1px;stroke-linecap:butt;stroke-linejoin:miter;stroke-opacity:1"
     x="566.7934"
     y="-274.51813"
     id="text5063"><tspan
       sodipodi:role="line"
       id="tspan5061"
       x="566.7934"
       y="-239.1275" /></text>
<g
     id="g894"><path
       d="m 430.76375,-334.21092 c 0,0 8.4e-4,-15.10866 0,-16.74666 -8.4e-4,-2.19132 1.53188,-3.78371 4.21814,-3.78371 1.60603,0 58.40436,0.002 59.56296,0 1.84364,-0.003 3.464,0.90559 3.464,3.62489 0,0.76536 0,1.77824 0,1.77824 v 30.35754"
       stroke-miterlimit="10"
       id="path1203-4"
       inkscape:connector-curvature="0"
       style="fill:#ffffff;fill-opacity:1;stroke:#424143;stroke-width:2.57180023;stroke-linejoin:round;stroke-miterlimit:10" /><path
       d="m 498.20433,-349.33816 c 0,0 -0.52663,0 1.39538,0 1.57991,0 2.75199,1.62702 2.75199,2.97358 0,1.05596 0,27.3848 0,27.3848"
       stroke-miterlimit="10"
       id="path1205-5"
       inkscape:connector-curvature="0"
       style="fill:#ffffff;fill-opacity:1;stroke:#424143;stroke-width:2.57180023;stroke-linejoin:round;stroke-miterlimit:10" /><path
       style="fill:#ffffff;fill-opacity:1;stroke:#424143;stroke-width:2.57180023;stroke-linejoin:round;stroke-miterlimit:10"
       inkscape:connector-curvature="0"
       id="path1207-2"
       stroke-miterlimit="10"
       d="m 430.76375,-339.40385 c 0,0 8.4e-4,57.52174 0,60.2777 -8.4e-4,3.68695 1.53188,6.36617 4.21814,6.36617 1.60603,0 58.40436,-0.003 59.56296,0 1.84364,0.006 3.464,-1.52368 3.464,-6.09895 v -2.99192 -51.07713"
       sodipodi:nodetypes="ccscscc" /><path
       sodipodi:nodetypes="cscccc"
       d="m 435.13517,-273.64793 c -8.4e-4,3.68695 1.53188,6.36617 4.21815,6.36617 1.60603,0 52.31167,0.0749 53.47027,0.0775 4.13107,-0.006 9.19535,0.90351 9.52936,-5.64591 l 0.0273,-8.59103 -0.0625,-65.44603"
       stroke-miterlimit="10"
       id="path1209-4"
       inkscape:connector-curvature="0"
       style="fill:#ffffff;fill-opacity:1;stroke:#424143;stroke-width:2.57180023;stroke-linejoin:round;stroke-miterlimit:10" /><rect
       ry="0.4839977"
       y="-329.65149"
       x="475.55685"
       height="9.0537529"
       width="13.156449"
       id="rect4938-6"
       style="opacity:1;fill:#b8e69a;fill-opacity:1;stroke:none;stroke-width:1.28599989;stroke-linejoin:round;stroke-miterlimit:4;stroke-dasharray:none;stroke-opacity:1" /><path
       d="M 481.51713,-266.44035"
       stroke-miterlimit="10"
       id="path4824-4"
       inkscape:connector-curvature="0"
       style="fill:none;stroke:#010101;stroke-width:3.43649983;stroke-linejoin:round;stroke-miterlimit:10" /><line
       y2="-346.0571"
       x2="490.64609"
       y1="-346.0571"
       x1="438.73749"
       stroke-miterlimit="10"
       id="line4830-3"
       style="fill:none;stroke:#424143;stroke-width:2;stroke-linecap:round;stroke-linejoin:round;stroke-miterlimit:9.39999962;stroke-dasharray:none" /><line
       y2="-338.24637"
       x2="490.90335"
       y1="-338.24637"
       x1="438.74094"
       stroke-miterlimit="10"
       id="line4832-9"
       style="fill:none;stroke:#424143;stroke-width:2;stroke-linecap:round;stroke-linejoin:round;stroke-miterlimit:9.39999962;stroke-dasharray:none" /><path
       d="m 430.76375,-334.21092 c 0,0 8.4e-4,-15.10866 0,-16.74666 -8.4e-4,-2.19132 1.53188,-3.78371 4.21814,-3.78371 1.60603,0 58.40436,0.002 59.56296,0 1.84364,-0.003 3.464,0.90559 3.464,3.62489 0,0.76536 0,1.77824 0,1.77824 v 30.35754"
       stroke-miterlimit="10"
       id="path4840-9"
       inkscape:connector-curvature="0"
       style="fill:none;stroke:#424143;stroke-width:2.57180023;stroke-linejoin:round;stroke-miterlimit:10" /><path
       d="m 498.20433,-349.33816 c 0,0 -0.52663,0 1.39538,0 1.57991,0 2.75199,1.62702 2.75199,2.97358 0,1.05596 0,27.3848 0,27.3848"
       stroke-miterlimit="10"
       id="path4842-9"
       inkscape:connector-curvature="0"
       style="fill:none;stroke:#424143;stroke-width:2.57180023;stroke-linejoin:round;stroke-miterlimit:10" /><path
       style="fill:none;stroke:#424143;stroke-width:2.57180023;stroke-linejoin:round;stroke-miterlimit:10"
       inkscape:connector-curvature="0"
       id="path4870-6"
       stroke-miterlimit="10"
       d="m 430.76375,-339.40385 c 0,0 8.4e-4,57.52174 0,60.2777 -8.4e-4,3.68695 1.53188,6.36617 4.21814,6.36617 1.60603,0 58.40436,-0.003 59.56296,0 1.84364,0.006 3.464,-1.52368 3.464,-6.09895 v -2.99192 -51.07713"
       sodipodi:nodetypes="ccscscc" /><path
       sodipodi:nodetypes="cscccc"
       d="m 435.13517,-273.64793 c -8.4e-4,3.68695 1.53188,6.36617 4.21815,6.36617 1.60603,0 52.31167,0.0749 53.47027,0.0775 4.13107,-0.006 9.19535,0.90351 9.52936,-5.64591 l 0.0273,-8.59103 v -46.00852"
       stroke-miterlimit="10"
       id="path4872-7"
       inkscape:connector-curvature="0"
       style="fill:none;stroke:#424143;stroke-width:2.57180023;stroke-linejoin:round;stroke-miterlimit:10" /><line
       style="fill:none;stroke:#424143;stroke-width:2;stroke-linecap:round;stroke-linejoin:round;stroke-miterlimit:9.39999962;stroke-dasharray:none"
       id="line4874-5"
       stroke-miterlimit="10"
       x1="438.55399"
       y1="-330.49893"
       x2="471.16211"
       y2="-330.49893" /><line
       style="fill:none;stroke:#424143;stroke-width:2;stroke-linecap:round;stroke-linejoin:round;stroke-miterlimit:9.39999962;stroke-dasharray:none"
       id="line4876-9"
       stroke-miterlimit="10"
       x1="438.54648"
       y1="-322.6882"
       x2="471.16278"
       y2="-322.6882" /><rect
       style="opacity:1;fill:none;fill-opacity:1;stroke:#424143;stroke-width:2;stroke-linejoin:round;stroke-miterlimit:9.39999962;stroke-dasharray:none;stroke-opacity:1"
       id="rect4894-3"
       width="15.06895"
       height="11.272432"
       x="475.73941"
       y="-331.77927"
       ry="0.60260445" /><g
       id="text5039"
       style="font-size:20.78250694px;font-family:CenturyGothic;fill:#424143;stroke-width:1"
       aria-label="11th"><path
         id="path860"
         style="font-size:20.78250694px;font-family:CenturyGothic;fill:#424143;stroke-width:1"
         d="m 438.42524,-294.64417 h 2.93268 v 14.92728 h -1.48156 v -13.46601 h -2.34412 z" /><path
         id="path862"
         style="font-size:20.78250694px;font-family:CenturyGothic;fill:#424143;stroke-width:1"
         d="m 449.95303,-294.64417 h 2.93269 v 14.92728 h -1.48157 v -13.46601 h -2.34412 z" /><path
         id="path864"
         style="font-size:20.78250694px;font-family:CenturyGothic;fill:#424143;stroke-width:1"
         d="m 460.45591,-294.85727 h 1.43083 v 4.09967 h 2.25279 v 1.21773 h -2.25279 v 9.82298 h -1.43083 v -9.82298 h -1.93821 v -1.21773 h 1.93821 z" /><path
         id="path866"
         style="font-size:20.78250694px;font-family:CenturyGothic;fill:#424143;stroke-width:1"
         d="m 466.2807,-295.01963 h 1.42067 v 6.24084 q 0.86256,-1.13655 1.89763,-1.69467 1.03506,-0.56827 2.24264,-0.56827 1.23802,0 2.1919,0.62916 0.96404,0.62915 1.42068,1.69466 0.45665,1.05537 0.45665,3.3183 v 5.68272 h -1.42068 v -5.26666 q 0,-1.90777 -0.15221,-2.54707 -0.26384,-1.09596 -0.96404,-1.64393 -0.69004,-0.55813 -1.81644,-0.55813 -1.28876,0 -2.31367,0.85241 -1.01477,0.85241 -1.3395,2.11072 -0.20296,0.81182 -0.20296,3.00373 v 4.04893 h -1.42067 z" /></g><g
       id="text5059"
       style="font-size:20.02172661px;font-family:CenturyGothic;fill:#424143;stroke-width:1"
       aria-label="Sept"><path
         id="path851"
         style="font-size:20.02172661px;font-family:CenturyGothic;fill:#424143;stroke-width:1"
         d="m 437.53224,-303.02189 1.22203,-0.73322 q 1.29046,2.37563 2.98175,2.37563 0.72344,0 1.3589,-0.33239 0.63545,-0.34217 0.96784,-0.90919 0.33239,-0.56702 0.33239,-1.20248 0,-0.72344 -0.48881,-1.41755 -0.67456,-0.95807 -2.46361,-2.30719 -1.79883,-1.3589 -2.23876,-1.96503 -0.76254,-1.01673 -0.76254,-2.19965 0,-0.93852 0.4497,-1.71084 0.44971,-0.77232 1.26114,-1.21225 0.8212,-0.44971 1.77927,-0.44971 1.01673,0 1.89659,0.50836 0.88964,0.49859 1.87704,1.84771 l -1.17315,0.88964 q -0.81143,-1.07539 -1.38822,-1.41756 -0.56703,-0.34216 -1.24159,-0.34216 -0.87008,0 -1.42733,0.52791 -0.54746,0.52792 -0.54746,1.30024 0,0.46926 0.19552,0.90919 0.19552,0.43993 0.71367,0.95807 0.28351,0.27374 1.85748,1.43711 1.86726,1.37845 2.56137,2.45383 0.69412,1.07539 0.69412,2.16055 0,1.5642 -1.1927,2.71779 -1.18293,1.1536 -2.88399,1.1536 -1.31002,0 -2.37563,-0.69411 -1.06561,-0.70389 -1.96502,-2.3463 z" /><path
         id="path853"
         style="font-size:20.02172661px;font-family:CenturyGothic;fill:#424143;stroke-width:1"
         d="m 457.72016,-303.87242 1.1536,0.60613 q -0.56702,1.11449 -1.31002,1.79882 -0.74299,0.68434 -1.67173,1.04606 -0.92875,0.35194 -2.10189,0.35194 -2.60048,0 -4.06692,-1.70106 -1.46643,-1.71084 -1.46643,-3.86161 0,-2.02368 1.24158,-3.60743 1.57397,-2.01391 4.21356,-2.01391 2.71779,0 4.34064,2.06279 1.1536,1.45666 1.17315,3.63676 h -9.56116 q 0.0391,1.85748 1.18293,3.05018 1.14382,1.18293 2.82533,1.18293 0.81143,0 1.57397,-0.28351 0.77233,-0.28352 1.31002,-0.75277 0.53769,-0.46926 1.16337,-1.51532 z m 0,-2.86444 q -0.27373,-1.09494 -0.80165,-1.74994 -0.51814,-0.65501 -1.37845,-1.05584 -0.86031,-0.40082 -1.8086,-0.40082 -1.5642,0 -2.68847,1.00695 -0.8212,0.73322 -1.24158,2.19965 z" /><path
         id="path855"
         style="font-size:20.02172661px;font-family:CenturyGothic;fill:#424143;stroke-width:1"
         d="m 461.80663,-310.97974 h 1.35889 v 1.95524 q 0.81143,-1.11449 1.86726,-1.67173 1.05584,-0.55725 2.35608,-0.55725 2.26808,0 3.88116,1.63263 1.61308,1.63263 1.61308,3.93005 0,2.3463 -1.6033,3.9887 -1.59353,1.63263 -3.85184,1.63263 -1.27091,0 -2.33652,-0.52791 -1.06561,-0.52792 -1.92592,-1.57398 v 5.7191 h -1.35889 z m 5.47469,1.04605 q -1.77928,0 -3.00131,1.24159 -1.21225,1.24158 -1.21225,3.08929 0,1.21225 0.53769,2.1801 0.54747,0.96784 1.55443,1.53486 1.01672,0.56703 2.14099,0.56703 1.10471,0 2.07256,-0.56703 0.97763,-0.57679 1.55442,-1.6033 0.5768,-1.0265 0.5768,-2.15077 0,-1.13404 -0.5768,-2.15077 -0.56702,-1.01673 -1.53487,-1.57397 -0.96784,-0.56703 -2.11166,-0.56703 z" /><path
         id="path857"
         style="font-size:20.02172661px;font-family:CenturyGothic;fill:#424143;stroke-width:1"
         d="m 476.6274,-314.92934 h 1.37845 v 3.9496 h 2.17032 v 1.17315 h -2.17032 v 9.46339 h -1.37845 v -9.46339 h -1.86726 v -1.17315 h 1.86726 z" /></g></g></svg>