<?xml version="1.0" encoding="UTF-8" standalone="no"?>
<!-- Generator: Adobe Illustrator 14.0.0, SVG Export Plug-In . SVG Version: 6.00 Build 43363)  -->

<svg
   xmlns:dc="http://purl.org/dc/elements/1.1/"
   xmlns:cc="http://creativecommons.org/ns#"
   xmlns:rdf="http://www.w3.org/1999/02/22-rdf-syntax-ns#"
   xmlns:svg="http://www.w3.org/2000/svg"
   xmlns="http://www.w3.org/2000/svg"
   xmlns:sodipodi="http://sodipodi.sourceforge.net/DTD/sodipodi-0.dtd"
   xmlns:inkscape="http://www.inkscape.org/namespaces/inkscape"
   version="1.1"
   id="Layer_1"
   inkscape:version="0.92.2 (5c3e80d, 2017-08-06)"
   sodipodi:docname="minutes_may_8th.svg"
   x="0px"
   y="0px"
   width="100"
   height="100"
   viewBox="416.572 -360.945 100 100"
   enable-background="new 416.572 -360.945 595.275 841.89"
   xml:space="preserve"
   inkscape:export-filename="C:\Users\holly.jones\Documents\GitHub\west-dids-community\img\icons\may_8th.png"
   inkscape:export-xdpi="149.93106"
   inkscape:export-ydpi="149.93106"><metadata
     id="metadata326"><rdf:RDF><cc:Work
         rdf:about=""><dc:format>image/svg+xml</dc:format><dc:type
           rdf:resource="http://purl.org/dc/dcmitype/StillImage" /><dc:title></dc:title></cc:Work></rdf:RDF></metadata><defs
     id="defs324"><clipPath
       clipPathUnits="userSpaceOnUse"
       id="clipPath1282"><rect
         ry="9.0558882"
         y="-355.80136"
         x="430.07397"
         height="89.648712"
         width="90.322769"
         id="rect1284"
         style="opacity:1;fill:#b8e69a;fill-opacity:1;stroke:none;stroke-width:1.99999988;stroke-linecap:round;stroke-linejoin:round;stroke-miterlimit:8.36363602;stroke-dasharray:none;stroke-opacity:1" /></clipPath></defs><sodipodi:namedview
     id="namedview230"
     inkscape:pageshadow="2"
     inkscape:window-width="1680"
     inkscape:window-height="987"
     inkscape:window-x="1912"
     inkscape:window-y="23"
     inkscape:current-layer="Layer_1"
     inkscape:pageopacity="0"
     gridtolerance="10"
     inkscape:zoom="8.08"
     inkscape:cy="12.117305"
     guidetolerance="10"
     bordercolor="#666666"
     showgrid="false"
     borderopacity="1"
     objecttolerance="10"
     inkscape:cx="79.127196"
     pagecolor="#ffffff"
     inkscape:window-maximized="1"
     inkscape:snap-nodes="false" /><g
     aria-label="8th"
     style="font-size:20.78250694px;font-family:CenturyGothic;fill:#424143;stroke-width:1"
     id="text5039"><path
       d="m 444.78504,-288.60616 q 1.51201,0.75093 2.16147,1.71496 0.6596,0.96403 0.6596,2.19191 0,1.72511 -1.1264,3.04431 -1.38009,1.61348 -3.94746,1.61348 -2.47604,0 -3.75465,-1.41053 -1.27861,-1.42068 -1.27861,-3.12549 0,-1.24817 0.66975,-2.24265 0.66975,-1.00462 2.23249,-1.78599 -1.09595,-0.56827 -1.64392,-1.41053 -0.54798,-0.84226 -0.54798,-1.8063 0,-0.97418 0.57842,-1.89762 0.58857,-0.93359 1.61348,-1.46127 1.03507,-0.53783 2.2325,-0.53783 1.16699,0 2.16146,0.53783 0.99448,0.53783 1.5526,1.46127 0.56827,0.92344 0.56827,1.93821 0,1.01478 -0.53783,1.8063 -0.52768,0.79152 -1.59319,1.36994 z m -2.22234,-5.66242 q -1.22788,0 -2.03969,0.73063 -0.80167,0.72049 -0.80167,1.72511 0,0.99448 0.86255,1.80629 0.87271,0.80167 2.02954,0.80167 0.74079,0 1.40039,-0.36531 0.6596,-0.36532 1.02492,-0.99448 0.37546,-0.63931 0.37546,-1.27861 0,-0.90315 -0.73063,-1.66423 -0.73064,-0.76107 -2.12087,-0.76107 z m 0.071,6.41335 q -1.54245,0 -2.58767,1.00462 -1.04521,0.99448 -1.04521,2.32383 0,0.82196 0.4465,1.5526 0.4465,0.73063 1.24817,1.12639 0.80167,0.39576 1.85703,0.39576 1.63378,0 2.59781,-0.96403 0.96403,-0.96403 0.96403,-2.25279 0,-1.24817 -1.02491,-2.2122 -1.01478,-0.97418 -2.45575,-0.97418 z"
       style="font-size:20.78250694px;font-family:CenturyGothic;fill:#424143;stroke-width:1"
       id="path1456" /><path
       d="m 451.14766,-295.55734 h 1.43082 v 4.09967 h 2.2528 v 1.21773 h -2.2528 v 9.82298 h -1.43082 v -9.82298 h -1.93822 v -1.21773 h 1.93822 z"
       style="font-size:20.78250694px;font-family:CenturyGothic;fill:#424143;stroke-width:1"
       id="path1458" /><path
       d="m 456.97244,-295.71971 h 1.42068 v 6.24084 q 0.86256,-1.13654 1.89762,-1.69466 1.03507,-0.56827 2.24265,-0.56827 1.23802,0 2.1919,0.62915 0.96403,0.62916 1.42068,1.69467 0.45665,1.05536 0.45665,3.3183 v 5.68272 h -1.42068 v -5.26666 q 0,-1.90777 -0.15222,-2.54708 -0.26384,-1.09595 -0.96403,-1.64393 -0.69004,-0.55812 -1.81644,-0.55812 -1.28876,0 -2.31368,0.85241 -1.01477,0.85241 -1.33949,2.11072 -0.20296,0.81182 -0.20296,3.00372 v 4.04894 h -1.42068 z"
       style="font-size:20.78250694px;font-family:CenturyGothic;fill:#424143;stroke-width:1"
       id="path1460" /></g><rect
     style="opacity:1;fill:#b8e69a;fill-opacity:1;stroke:none;stroke-width:1.28599989;stroke-linejoin:round;stroke-miterlimit:4;stroke-dasharray:none;stroke-opacity:1"
     id="rect4989"
     width="13.156449"
     height="9.0537529"
     x="475.55685"
     y="-329.65149"
     ry="0.4839977" /><path
     style="fill:none;stroke:#010101;stroke-width:3.43649983;stroke-linejoin:round;stroke-miterlimit:10"
     inkscape:connector-curvature="0"
     id="path4991"
     stroke-miterlimit="10"
     d="M 481.51713,-266.44037" /><line
     style="fill:none;stroke:#424143;stroke-width:1.28590012;stroke-linecap:round;stroke-linejoin:round;stroke-miterlimit:10"
     id="line4993"
     stroke-miterlimit="10"
     x1="438.73749"
     y1="-346.0571"
     x2="490.64609"
     y2="-346.0571" /><line
     style="fill:none;stroke:#424143;stroke-width:1.28599989;stroke-linecap:round;stroke-linejoin:round;stroke-miterlimit:10;stroke-dasharray:none"
     id="line4995"
     stroke-miterlimit="10"
     x1="438.74094"
     y1="-338.24637"
     x2="490.90335"
     y2="-338.24637" /><path
     style="fill:none;stroke:#424143;stroke-width:2.57180023;stroke-linejoin:round;stroke-miterlimit:10"
     inkscape:connector-curvature="0"
     id="path4997"
     stroke-miterlimit="10"
     d="m 430.76375,-334.21094 c 0,0 8.4e-4,-15.10866 0,-16.74666 -8.4e-4,-2.19132 1.53188,-3.78371 4.21814,-3.78371 1.60603,0 58.40436,0.002 59.56296,0 1.84364,-0.003 3.464,0.90559 3.464,3.62489 0,0.76536 0,1.77824 0,1.77824 v 30.35754" /><path
     style="fill:none;stroke:#424143;stroke-width:2.57180023;stroke-linejoin:round;stroke-miterlimit:10"
     inkscape:connector-curvature="0"
     id="path4999"
     stroke-miterlimit="10"
     d="m 498.20433,-349.33818 c 0,0 -0.52663,0 1.39538,0 1.57991,0 2.75199,1.62702 2.75199,2.97358 0,1.05596 0,27.3848 0,27.3848" /><path
     sodipodi:nodetypes="ccscscc"
     d="m 430.76375,-339.40387 c 0,0 8.4e-4,57.52174 0,60.2777 -8.4e-4,3.68695 1.53188,6.36617 4.21814,6.36617 1.60603,0 58.40436,-0.003 59.56296,0 1.84364,0.006 3.464,-1.52368 3.464,-6.09895 v -2.99192 -51.07713"
     stroke-miterlimit="10"
     id="path5001"
     inkscape:connector-curvature="0"
     style="fill:none;stroke:#424143;stroke-width:2.57180023;stroke-linejoin:round;stroke-miterlimit:10" /><path
     style="fill:none;stroke:#424143;stroke-width:2.57180023;stroke-linejoin:round;stroke-miterlimit:10"
     inkscape:connector-curvature="0"
     id="path5003"
     stroke-miterlimit="10"
     d="m 435.13517,-273.64795 c -8.4e-4,3.68695 1.53188,6.36617 4.21815,6.36617 1.60603,0 52.31167,0.0749 53.47027,0.0775 4.13107,-0.006 9.19535,0.90351 9.52936,-5.64591 l 0.0273,-8.59103 v -46.00852"
     sodipodi:nodetypes="cscccc" /><line
     y2="-330.49893"
     x2="471.16211"
     y1="-330.49893"
     x1="438.55399"
     stroke-miterlimit="10"
     id="line5005"
     style="fill:none;stroke:#424143;stroke-width:1.28590012;stroke-linecap:round;stroke-linejoin:round;stroke-miterlimit:10" /><line
     y2="-322.6882"
     x2="471.16278"
     y1="-322.6882"
     x1="438.54648"
     stroke-miterlimit="10"
     id="line5007"
     style="fill:none;stroke:#424143;stroke-width:1.28590012;stroke-linecap:round;stroke-linejoin:round;stroke-miterlimit:10" /><rect
     ry="0.60260445"
     y="-331.77927"
     x="475.73941"
     height="11.272432"
     width="15.06895"
     id="rect5019"
     style="opacity:1;fill:none;fill-opacity:1;stroke:#424143;stroke-width:1.28599989;stroke-linejoin:round;stroke-miterlimit:4;stroke-dasharray:none;stroke-opacity:1" /><g
     aria-label="May"
     style="font-size:20.02172661px;font-family:CenturyGothic;fill:#424143;stroke-width:1"
     id="text5059"><path
       d="m 437.23938,-301.04327 2.04323,-14.38084 h 0.23463 l 5.84619,11.79991 5.78753,-11.79991 h 0.23463 l 2.06278,14.38084 h -1.41755 l -1.40778,-10.2846 -5.08364,10.2846 h -0.36172 l -5.15208,-10.36281 -1.398,10.36281 z"
       style="font-size:20.02172661px;font-family:CenturyGothic;fill:#424143;stroke-width:1"
       id="path1449" /><path
       d="m 466.68539,-311.67982 v 10.63655 h -1.34912 v -1.82816 q -0.8603,1.04606 -1.93569,1.57397 -1.06561,0.52792 -2.33652,0.52792 -2.25831,0 -3.86161,-1.63263 -1.59353,-1.64241 -1.59353,-3.9887 0,-2.29742 1.61308,-3.93005 1.61308,-1.63263 3.88116,-1.63263 1.31002,0 2.36585,0.55724 1.06561,0.55725 1.86726,1.67174 v -1.95525 z m -5.47469,1.04606 q -1.14382,0 -2.11166,0.56702 -0.96785,0.55725 -1.54465,1.57398 -0.56702,1.01672 -0.56702,2.15077 0,1.12426 0.5768,2.15077 0.5768,1.0265 1.54464,1.6033 0.97763,0.56702 2.09212,0.56702 1.12426,0 2.13122,-0.56702 1.00695,-0.56702 1.54464,-1.53487 0.54747,-0.96784 0.54747,-2.1801 0,-1.84771 -1.22203,-3.08929 -1.21225,-1.24158 -2.99153,-1.24158 z"
       style="font-size:20.02172661px;font-family:CenturyGothic;fill:#424143;stroke-width:1"
       id="path1451" /><path
       d="m 468.63086,-311.67982 h 1.44689 l 3.65631,8.19249 3.54877,-8.19249 h 1.45666 l -6.34478,14.52749 h -1.44688 l 2.05301,-4.6926 z"
       style="font-size:20.02172661px;font-family:CenturyGothic;fill:#424143;stroke-width:1"
       id="path1453" /></g><text
     xml:space="preserve"
     style="font-style:normal;font-weight:normal;font-size:40px;line-height:125%;font-family:Sans;letter-spacing:0px;word-spacing:0px;fill:#000000;fill-opacity:1;stroke:none;stroke-width:1px;stroke-linecap:butt;stroke-linejoin:miter;stroke-opacity:1"
     x="566.7934"
     y="-274.51813"
     id="text5063"><tspan
       sodipodi:role="line"
       id="tspan5061"
       x="566.7934"
       y="-239.1275" /></text>
</svg>