<?xml version="1.0" encoding="UTF-8" standalone="no"?>
<!-- Generator: Adobe Illustrator 14.0.0, SVG Export Plug-In . SVG Version: 6.00 Build 43363)  -->

<svg
   xmlns:dc="http://purl.org/dc/elements/1.1/"
   xmlns:cc="http://creativecommons.org/ns#"
   xmlns:rdf="http://www.w3.org/1999/02/22-rdf-syntax-ns#"
   xmlns:svg="http://www.w3.org/2000/svg"
   xmlns="http://www.w3.org/2000/svg"
   xmlns:sodipodi="http://sodipodi.sourceforge.net/DTD/sodipodi-0.dtd"
   xmlns:inkscape="http://www.inkscape.org/namespaces/inkscape"
   version="1.1"
   id="Layer_1"
   inkscape:version="0.92.2 (5c3e80d, 2017-08-06)"
   sodipodi:docname="minutes_june_10th.svg"
   x="0px"
   y="0px"
   width="100"
   height="100"
   viewBox="416.572 -360.945 100 100"
   enable-background="new 416.572 -360.945 595.275 841.89"
   xml:space="preserve"
   inkscape:export-filename="C:\Users\holly.jones\Downloads\volcano_pixelhint_12th_jan-20180116T210822Z-001\volcano_pixelhint_12th_jan\volcano_pixelhint\img\hedges_icon_100_white.png"
   inkscape:export-xdpi="149.93106"
   inkscape:export-ydpi="149.93106"><metadata
     id="metadata326"><rdf:RDF><cc:Work
         rdf:about=""><dc:format>image/svg+xml</dc:format><dc:type
           rdf:resource="http://purl.org/dc/dcmitype/StillImage" /><dc:title /></cc:Work></rdf:RDF></metadata><defs
     id="defs324"><clipPath
       clipPathUnits="userSpaceOnUse"
       id="clipPath1282"><rect
         ry="9.0558882"
         y="-355.80136"
         x="430.07397"
         height="89.648712"
         width="90.322769"
         id="rect1284"
         style="opacity:1;fill:#b8e69a;fill-opacity:1;stroke:none;stroke-width:1.99999988;stroke-linecap:round;stroke-linejoin:round;stroke-miterlimit:8.36363602;stroke-dasharray:none;stroke-opacity:1" /></clipPath></defs><sodipodi:namedview
     id="namedview230"
     inkscape:pageshadow="2"
     inkscape:window-width="1680"
     inkscape:window-height="987"
     inkscape:window-x="-8"
     inkscape:window-y="-8"
     inkscape:current-layer="Layer_1"
     inkscape:pageopacity="0"
     gridtolerance="10"
     inkscape:zoom="2.02"
     inkscape:cy="-12.60261"
     guidetolerance="10"
     bordercolor="#666666"
     showgrid="false"
     borderopacity="1"
     objecttolerance="10"
     inkscape:cx="76.610924"
     pagecolor="#ffffff"
     inkscape:window-maximized="1"
     inkscape:snap-nodes="false" /><g
     id="g1520"
     transform="translate(617.14295,-85.219098)"><g
       aria-label="10th"
       style="font-size:20.78250694px;font-family:CenturyGothic;fill:#424143;stroke-width:1"
       id="text5039"><path
         d="m -178.49817,-210.12516 h 2.93269 v 14.92728 h -1.48156 v -13.46601 h -2.34412 z"
         style="font-size:20.78250694px;font-family:CenturyGothic;fill:#424143;stroke-width:1"
         id="path646" /><path
         d="m -170.15675,-202.65644 q 0,-2.95298 0.62916,-4.56647 0.6393,-1.61349 1.79614,-2.4456 1.15684,-0.83211 2.58767,-0.83211 1.45112,0 2.62826,0.84226 1.17713,0.83211 1.85703,2.50648 0.69004,1.67438 0.69004,4.49544 0,2.81091 -0.6799,4.47514 -0.66974,1.66422 -1.85703,2.51663 -1.18728,0.84226 -2.6384,0.84226 -1.43083,0 -2.57752,-0.82197 -1.14669,-0.82196 -1.79614,-2.44559 -0.63931,-1.63378 -0.63931,-4.56647 z m 1.41053,0.0304 q 0,2.52678 0.4465,3.82569 0.45665,1.28876 1.3395,1.95851 0.88285,0.66974 1.86718,0.66974 0.99447,0 1.85703,-0.64945 0.86255,-0.6596 1.30905,-1.96865 0.55813,-1.5932 0.55813,-3.83584 0,-2.25279 -0.49724,-3.68362 -0.49724,-1.44097 -1.38009,-2.10057 -0.8727,-0.66975 -1.84688,-0.66975 -0.99448,0 -1.86718,0.66975 -0.8727,0.6596 -1.32935,1.95851 -0.45665,1.28875 -0.45665,3.82568 z"
         style="font-size:20.78250694px;font-family:CenturyGothic;fill:#424143;stroke-width:1"
         id="path648" /><path
         d="m -156.46749,-210.33826 h 1.43083 v 4.09968 h 2.25279 v 1.21772 h -2.25279 v 9.82298 h -1.43083 v -9.82298 h -1.93821 v -1.21772 h 1.93821 z"
         style="font-size:20.78250694px;font-family:CenturyGothic;fill:#424143;stroke-width:1"
         id="path650" /><path
         d="m -150.64271,-210.50062 h 1.42068 v 6.24084 q 0.86256,-1.13654 1.89763,-1.69467 1.03506,-0.56827 2.24264,-0.56827 1.23802,0 2.1919,0.62916 0.96404,0.62916 1.42068,1.69467 0.45665,1.05536 0.45665,3.3183 v 5.68271 h -1.42068 v -5.26666 q 0,-1.90777 -0.15222,-2.54707 -0.26384,-1.09595 -0.96403,-1.64393 -0.69004,-0.55812 -1.81644,-0.55812 -1.28876,0 -2.31367,0.8524 -1.01478,0.85241 -1.3395,2.11073 -0.20296,0.81181 -0.20296,3.00372 v 4.04893 h -1.42068 z"
         style="font-size:20.78250694px;font-family:CenturyGothic;fill:#424143;stroke-width:1"
         id="path652" /></g><path
       style="opacity:1;fill:#b8e69a;fill-opacity:1;stroke:none;stroke-width:1.28599989;stroke-linejoin:round;stroke-miterlimit:4;stroke-dasharray:none;stroke-opacity:1"
       d="m -141.10209,-244.4324 h 12.18845 c 0.26814,0 0.484,0.21586 0.484,0.48399 v 8.08576 c 0,0.26814 -0.21586,0.484 -0.484,0.484 h -12.18845 c -0.26814,0 -0.484,-0.21586 -0.484,-0.484 v -8.08576 c 0,-0.26813 0.21586,-0.48399 0.484,-0.48399 z"
       id="rect4989" /><path
       d="M -135.62582,-181.22127"
       stroke-miterlimit="10"
       id="path4991"
       inkscape:connector-curvature="0"
       style="fill:none;stroke:#010101;stroke-width:3.43649983;stroke-linejoin:round;stroke-miterlimit:10" /><path
       style="fill:none;stroke:#424143;stroke-width:1.28590012;stroke-linecap:round;stroke-linejoin:round;stroke-miterlimit:10"
       d="m -178.40546,-260.83801 h 51.9086"
       id="line4993" /><path
       style="fill:none;stroke:#424143;stroke-width:1.28599989;stroke-linecap:round;stroke-linejoin:round;stroke-miterlimit:10;stroke-dasharray:none"
       d="m -178.40201,-253.02728 h 52.16241"
       id="line4995" /><path
       d="m -186.3792,-248.99184 c 0,0 8.4e-4,-15.10866 0,-16.74666 -8.4e-4,-2.19132 1.53188,-3.78371 4.21814,-3.78371 1.60603,0 58.40436,0.002 59.56296,0 1.84364,-0.003 3.464,0.90559 3.464,3.62489 0,0.76536 0,1.77824 0,1.77824 v 30.35754"
       stroke-miterlimit="10"
       id="path4997"
       inkscape:connector-curvature="0"
       style="fill:none;stroke:#424143;stroke-width:2.57180023;stroke-linejoin:round;stroke-miterlimit:10" /><path
       d="m -118.93862,-264.11908 c 0,0 -0.52663,0 1.39538,0 1.57991,0 2.75199,1.62702 2.75199,2.97358 0,1.05596 0,27.3848 0,27.3848"
       stroke-miterlimit="10"
       id="path4999"
       inkscape:connector-curvature="0"
       style="fill:none;stroke:#424143;stroke-width:2.57180023;stroke-linejoin:round;stroke-miterlimit:10" /><path
       style="fill:none;stroke:#424143;stroke-width:2.57180023;stroke-linejoin:round;stroke-miterlimit:10"
       inkscape:connector-curvature="0"
       id="path5001"
       stroke-miterlimit="10"
       d="m -186.3792,-254.18477 c 0,0 8.4e-4,57.52174 0,60.2777 -8.4e-4,3.68695 1.53188,6.36617 4.21814,6.36617 1.60603,0 58.40436,-0.003 59.56296,0 1.84364,0.006 3.464,-1.52368 3.464,-6.09895 v -2.99192 -51.07713"
       sodipodi:nodetypes="ccscscc" /><path
       sodipodi:nodetypes="cscccc"
       d="m -182.00778,-188.42885 c -8.4e-4,3.68695 1.53188,6.36617 4.21815,6.36617 1.60603,0 52.31167,0.0749 53.47027,0.0775 4.13107,-0.006 9.19535,0.90351 9.52936,-5.64591 l 0.0273,-8.59103 v -46.00852"
       stroke-miterlimit="10"
       id="path5003"
       inkscape:connector-curvature="0"
       style="fill:none;stroke:#424143;stroke-width:2.57180023;stroke-linejoin:round;stroke-miterlimit:10" /><path
       style="fill:none;stroke:#424143;stroke-width:1.28590012;stroke-linecap:round;stroke-linejoin:round;stroke-miterlimit:10"
       d="m -178.58896,-245.27985 h 32.60813"
       id="line5005" /><path
       style="fill:none;stroke:#424143;stroke-width:1.28590012;stroke-linecap:round;stroke-linejoin:round;stroke-miterlimit:10"
       d="m -178.59647,-237.46912 h 32.61631"
       id="line5007" /><path
       style="opacity:1;fill:none;fill-opacity:1;stroke:#424143;stroke-width:1.28599989;stroke-linejoin:round;stroke-miterlimit:4;stroke-dasharray:none;stroke-opacity:1"
       d="m -140.80093,-246.56018 h 13.86374 c 0.33384,0 0.60261,0.26876 0.60261,0.6026 v 10.06723 c 0,0.33384 -0.26877,0.6026 -0.60261,0.6026 h -13.86374 c -0.33384,0 -0.6026,-0.26876 -0.6026,-0.6026 v -10.06723 c 0,-0.33384 0.26876,-0.6026 0.6026,-0.6026 z"
       id="rect5019" /><g
       aria-label="June"
       style="font-size:20.02172661px;font-family:CenturyGothic;fill:#424143;stroke-width:1"
       id="text5059"><path
         d="m -174.54619,-230.20503 h 1.44688 v 9.7078 q 0,2.23876 -0.35194,3.11862 -0.34217,0.87009 -1.1536,1.398 -0.81143,0.51814 -1.96502,0.51814 -0.87009,0 -1.72062,-0.34217 -0.84075,-0.33239 -1.86726,-1.18292 l 0.76255,-1.14382 q 1.12426,0.79188 1.86726,1.11449 0.48881,0.21508 0.95807,0.21508 0.6159,0 1.11449,-0.3715 0.50836,-0.3715 0.70389,-0.9874 0.2053,-0.6159 0.2053,-2.3854 z"
         style="font-size:20.02172661px;font-family:CenturyGothic;fill:#424143;stroke-width:1"
         id="path661" /><path
         d="m -169.99047,-226.46073 h 1.37845 v 4.96633 q 0,1.81838 0.19553,2.50271 0.29329,0.97763 1.11449,1.54465 0.83098,0.56702 1.9748,0.56702 1.14382,0 1.93569,-0.54747 0.80165,-0.55725 1.10472,-1.45666 0.2053,-0.6159 0.2053,-2.61025 v -4.96633 h 1.398 v 5.22051 q 0,2.19965 -0.51814,3.31414 -0.50837,1.11449 -1.54465,1.74995 -1.0265,0.62568 -2.58092,0.62568 -1.55442,0 -2.60048,-0.62568 -1.03628,-0.63546 -1.55442,-1.75972 -0.50837,-1.13405 -0.50837,-3.40213 z"
         style="font-size:20.02172661px;font-family:CenturyGothic;fill:#424143;stroke-width:1"
         id="path663" /><path
         d="m -157.65286,-226.46073 h 1.36867 v 1.90637 q 0.82121,-1.09494 1.81838,-1.63264 0.99718,-0.54747 2.17033,-0.54747 1.1927,0 2.11166,0.60613 0.92875,0.60613 1.36868,1.63263 0.43993,1.02651 0.43993,3.19683 v 5.47469 h -1.3589 v -5.07386 q 0,-1.83794 -0.15642,-2.45384 -0.24441,-1.05583 -0.91897,-1.58375 -0.67456,-0.53769 -1.75972,-0.53769 -1.24158,0 -2.22898,0.8212 -0.97762,0.82121 -1.29046,2.03346 -0.19553,0.79187 -0.19553,2.89376 v 3.90072 h -1.36867 z"
         style="font-size:20.02172661px;font-family:CenturyGothic;fill:#424143;stroke-width:1"
         id="path665" /><path
         d="m -136.49709,-219.35341 1.1536,0.60613 q -0.56702,1.11449 -1.31002,1.79882 -0.74299,0.68434 -1.67173,1.04606 -0.92875,0.35195 -2.10189,0.35195 -2.60048,0 -4.06692,-1.70107 -1.46643,-1.71084 -1.46643,-3.86161 0,-2.02368 1.24158,-3.60743 1.57397,-2.01391 4.21356,-2.01391 2.71779,0 4.34064,2.06279 1.1536,1.45666 1.17315,3.63676 h -9.56116 q 0.0391,1.85748 1.18293,3.05018 1.14382,1.18293 2.82533,1.18293 0.81143,0 1.57397,-0.28351 0.77233,-0.28351 1.31002,-0.75277 0.53769,-0.46926 1.16337,-1.51532 z m 0,-2.86444 q -0.27373,-1.09493 -0.80165,-1.74994 -0.51814,-0.65501 -1.37845,-1.05583 -0.86031,-0.40083 -1.8086,-0.40083 -1.5642,0 -2.68847,1.00695 -0.8212,0.73322 -1.24158,2.19965 z"
         style="font-size:20.02172661px;font-family:CenturyGothic;fill:#424143;stroke-width:1"
         id="path667" /></g></g><text
     xml:space="preserve"
     style="font-style:normal;font-weight:normal;font-size:40px;line-height:125%;font-family:Sans;letter-spacing:0px;word-spacing:0px;fill:#000000;fill-opacity:1;stroke:none;stroke-width:1px;stroke-linecap:butt;stroke-linejoin:miter;stroke-opacity:1"
     x="566.7934"
     y="-274.51813"
     id="text5063"><tspan
       sodipodi:role="line"
       id="tspan5061"
       x="566.7934"
       y="-239.1275" /></text>
</svg>