<?xml version="1.0" encoding="UTF-8" standalone="no"?>
<!-- Generator: Adobe Illustrator 14.0.0, SVG Export Plug-In . SVG Version: 6.00 Build 43363)  -->

<svg
   xmlns:dc="http://purl.org/dc/elements/1.1/"
   xmlns:cc="http://creativecommons.org/ns#"
   xmlns:rdf="http://www.w3.org/1999/02/22-rdf-syntax-ns#"
   xmlns:svg="http://www.w3.org/2000/svg"
   xmlns="http://www.w3.org/2000/svg"
   xmlns:sodipodi="http://sodipodi.sourceforge.net/DTD/sodipodi-0.dtd"
   xmlns:inkscape="http://www.inkscape.org/namespaces/inkscape"
   version="1.1"
   id="Layer_1"
   inkscape:version="0.92.2 (5c3e80d, 2017-08-06)"
   sodipodi:docname="minutes.svg"
   x="0px"
   y="0px"
   width="100"
   height="100"
   viewBox="416.572 -360.945 100 100"
   enable-background="new 416.572 -360.945 595.275 841.89"
   xml:space="preserve"
   inkscape:export-filename="C:\Users\holly.jones\Downloads\volcano_pixelhint_12th_jan-20180116T210822Z-001\volcano_pixelhint_12th_jan\volcano_pixelhint\img\hedges_icon_100_white.png"
   inkscape:export-xdpi="149.93106"
   inkscape:export-ydpi="149.93106"><metadata
     id="metadata326"><rdf:RDF><cc:Work
         rdf:about=""><dc:format>image/svg+xml</dc:format><dc:type
           rdf:resource="http://purl.org/dc/dcmitype/StillImage" /><dc:title /></cc:Work></rdf:RDF></metadata><defs
     id="defs324" /><sodipodi:namedview
     id="namedview230"
     inkscape:pageshadow="2"
     inkscape:window-width="1920"
     inkscape:window-height="1001"
     inkscape:window-x="-9"
     inkscape:window-y="-9"
     inkscape:current-layer="g4987"
     inkscape:pageopacity="0"
     gridtolerance="10"
     inkscape:zoom="4"
     inkscape:cy="22.105139"
     guidetolerance="10"
     bordercolor="#666666"
     showgrid="false"
     borderopacity="1"
     objecttolerance="10"
     inkscape:cx="-40.493618"
     pagecolor="#ffffff"
     inkscape:window-maximized="1"
     inkscape:snap-nodes="false" /><g
     id="g4987"
     transform="matrix(0.84261759,0,0,0.8447668,-130.43903,-520.17068)"
     style="stroke-width:1.18526733"><g
       id="g1215" /><g
       id="g1241"><path
         d="m 666.0231,220.13147 c 0,0 10e-4,-17.885 0,-19.824 -10e-4,-2.594 1.818,-4.479 5.006,-4.479 1.906,0 69.313,0.002 70.688,0 2.188,-0.004 4.111,1.072 4.111,4.291 0,0.906 0,2.105 0,2.105 v 35.936"
         stroke-miterlimit="10"
         id="path1203"
         inkscape:connector-curvature="0"
         style="stroke-width:3.0482707;fill:#ffffff;stroke:#424143;stroke-linejoin:round;stroke-miterlimit:10;fill-opacity:1" /><path
         d="m 746.0601,202.22447 c 0,0 -0.625,0 1.656,0 1.875,0 3.266,1.926 3.266,3.52 0,1.25 0,32.417 0,32.417"
         stroke-miterlimit="10"
         id="path1205"
         inkscape:connector-curvature="0"
         style="stroke-width:3.0482707;fill:#ffffff;stroke:#424143;stroke-linejoin:round;stroke-miterlimit:10;fill-opacity:1" /><path
         style="stroke-width:3.0482707;fill:#ffffff;stroke:#424143;stroke-linejoin:round;stroke-miterlimit:10;fill-opacity:1"
         inkscape:connector-curvature="0"
         id="path1207"
         stroke-miterlimit="10"
         d="m 666.0231,213.9843 c 0,0 10e-4,68.09185 0,71.35425 -10e-4,4.36446 1.818,7.536 5.006,7.536 1.906,0 69.313,-0.003 70.688,0 2.188,0.007 4.111,-1.80366 4.111,-7.21968 v -3.54171 -60.46299"
         sodipodi:nodetypes="ccscscc" /><path
         sodipodi:nodetypes="cscccc"
         d="m 671.21101,291.82344 c -10e-4,4.36446 1.818,7.536 5.006,7.536 1.906,0 62.08234,0.0887 63.45734,0.0917 4.90267,-0.007 10.91284,1.06954 11.30924,-6.6834 l 0.0324,-10.1697 -0.0742,-77.4723"
         stroke-miterlimit="10"
         id="path1209"
         inkscape:connector-curvature="0"
         style="stroke-width:3.0482707;fill:#ffffff;fill-opacity:1;stroke:#424143;stroke-linejoin:round;stroke-miterlimit:10" /><rect
         ry="0.57293648"
         y="225.52875"
         x="719.18256"
         height="10.717458"
         width="15.613785"
         id="rect4938"
         style="opacity:1;fill:#b8e69a;fill-opacity:1;stroke:none;stroke-width:1.52425373;stroke-linejoin:round;stroke-miterlimit:4;stroke-dasharray:none;stroke-opacity:1" /><path
         d="M 726.2561,300.35547"
         stroke-miterlimit="10"
         id="path4824"
         inkscape:connector-curvature="0"
         style="fill:none;stroke:#010101;stroke-width:4.07317114;stroke-linejoin:round;stroke-miterlimit:10" /><line
         y2="206.10847"
         x2="737.09015"
         y1="206.10847"
         x1="675.48615"
         stroke-miterlimit="10"
         id="line4830"
         style="fill:none;stroke:#424143;stroke-width:2.3705347;stroke-linecap:round;stroke-linejoin:round;stroke-miterlimit:9.39999962;stroke-dasharray:none" /><line
         y2="215.35448"
         x2="737.39545"
         y1="215.35448"
         x1="675.49023"
         stroke-miterlimit="10"
         id="line4832"
         style="fill:none;stroke:#424143;stroke-width:2.3705347;stroke-linecap:round;stroke-linejoin:round;stroke-miterlimit:9.39999962;stroke-dasharray:none" /><path
         d="m 666.0231,220.13147 c 0,0 10e-4,-17.885 0,-19.824 -10e-4,-2.594 1.818,-4.479 5.006,-4.479 1.906,0 69.313,0.002 70.688,0 2.188,-0.004 4.111,1.072 4.111,4.291 0,0.906 0,2.105 0,2.105 v 35.936"
         stroke-miterlimit="10"
         id="path4840"
         inkscape:connector-curvature="0"
         style="fill:none;stroke:#424143;stroke-width:3.0482707;stroke-linejoin:round;stroke-miterlimit:10" /><path
         d="m 746.0601,202.22447 c 0,0 -0.625,0 1.656,0 1.875,0 3.266,1.926 3.266,3.52 0,1.25 0,32.417 0,32.417"
         stroke-miterlimit="10"
         id="path4842"
         inkscape:connector-curvature="0"
         style="fill:none;stroke:#424143;stroke-width:3.0482707;stroke-linejoin:round;stroke-miterlimit:10" /><path
         style="fill:none;stroke:#424143;stroke-width:3.0482707;stroke-linejoin:round;stroke-miterlimit:10"
         inkscape:connector-curvature="0"
         id="path4870"
         stroke-miterlimit="10"
         d="m 666.0231,213.9843 c 0,0 10e-4,68.09185 0,71.35425 -10e-4,4.36446 1.818,7.536 5.006,7.536 1.906,0 69.313,-0.003 70.688,0 2.188,0.007 4.111,-1.80366 4.111,-7.21968 v -3.54171 -60.46299"
         sodipodi:nodetypes="ccscscc" /><path
         sodipodi:nodetypes="cscccc"
         d="m 671.21101,291.82344 c -10e-4,4.36446 1.818,7.536 5.006,7.536 1.906,0 62.08234,0.0887 63.45734,0.0917 4.90267,-0.007 10.91284,1.06954 11.30924,-6.6834 l 0.0324,-10.1697 v -54.46299"
         stroke-miterlimit="10"
         id="path4872"
         inkscape:connector-curvature="0"
         style="fill:none;stroke:#424143;stroke-width:3.0482707;stroke-linejoin:round;stroke-miterlimit:10" /><line
         style="fill:none;stroke:#424143;stroke-width:2.3705347;stroke-linecap:round;stroke-linejoin:round;stroke-miterlimit:9.39999962;stroke-dasharray:none"
         id="line4874"
         stroke-miterlimit="10"
         x1="675.26837"
         y1="224.52557"
         x2="713.96698"
         y2="224.52557" /><line
         style="fill:none;stroke:#424143;stroke-width:2.3705347;stroke-linecap:round;stroke-linejoin:round;stroke-miterlimit:9.39999962;stroke-dasharray:none"
         id="line4876"
         stroke-miterlimit="10"
         x1="675.25946"
         y1="233.77158"
         x2="713.96777"
         y2="233.77158" /><line
         y2="242.94267"
         x2="737.09015"
         y1="242.94267"
         x1="675.48615"
         stroke-miterlimit="10"
         id="line4880"
         style="fill:none;stroke:#424143;stroke-width:2.3705347;stroke-linecap:round;stroke-linejoin:round;stroke-miterlimit:9.39999962;stroke-dasharray:none" /><line
         y2="252.18867"
         x2="732.34106"
         y1="252.18867"
         x1="675.4364"
         stroke-miterlimit="10"
         id="line4882"
         style="fill:none;stroke:#424143;stroke-width:2.3705347;stroke-linecap:round;stroke-linejoin:round;stroke-miterlimit:9.39999962;stroke-dasharray:none" /><line
         style="fill:none;stroke:#424143;stroke-width:2.3705347;stroke-linecap:round;stroke-linejoin:round;stroke-miterlimit:9.39999962;stroke-dasharray:none"
         id="line4886"
         stroke-miterlimit="10"
         x1="675.48615"
         y1="261.35977"
         x2="737.09015"
         y2="261.35977" /><line
         style="fill:none;stroke:#424143;stroke-width:2.3705347;stroke-linecap:round;stroke-linejoin:round;stroke-miterlimit:9.39999962;stroke-dasharray:none"
         id="line4888"
         stroke-miterlimit="10"
         x1="675.48615"
         y1="270.60577"
         x2="737.09015"
         y2="270.60577" /><line
         style="fill:none;stroke:#424143;stroke-width:2.3705347;stroke-linecap:round;stroke-linejoin:round;stroke-miterlimit:9.39999962;stroke-dasharray:none"
         id="line4890"
         stroke-miterlimit="10"
         x1="675.48615"
         y1="279.85574"
         x2="698.09918"
         y2="279.69073" /><rect
         style="opacity:1;fill:none;fill-opacity:1;stroke:#424143;stroke-width:2.3705347;stroke-linejoin:round;stroke-miterlimit:9.39999962;stroke-dasharray:none;stroke-opacity:1"
         id="rect4894"
         width="17.883497"
         height="13.34384"
         x="719.39923"
         y="223.00995"
         ry="0.71333826" /></g></g><text
     xml:space="preserve"
     style="font-style:normal;font-weight:normal;font-size:40px;line-height:125%;font-family:Sans;letter-spacing:0px;word-spacing:0px;fill:#000000;fill-opacity:1;stroke:none;stroke-width:1px;stroke-linecap:butt;stroke-linejoin:miter;stroke-opacity:1"
     x="566.7934"
     y="-274.51813"
     id="text5063"><tspan
       sodipodi:role="line"
       id="tspan5061"
       x="566.7934"
       y="-239.1275" /></text>
</svg>