<?xml version="1.0" encoding="UTF-8" standalone="no"?>
<!-- Generator: Adobe Illustrator 14.0.0, SVG Export Plug-In . SVG Version: 6.00 Build 43363)  -->

<svg
   xmlns:dc="http://purl.org/dc/elements/1.1/"
   xmlns:cc="http://creativecommons.org/ns#"
   xmlns:rdf="http://www.w3.org/1999/02/22-rdf-syntax-ns#"
   xmlns:svg="http://www.w3.org/2000/svg"
   xmlns="http://www.w3.org/2000/svg"
   xmlns:sodipodi="http://sodipodi.sourceforge.net/DTD/sodipodi-0.dtd"
   xmlns:inkscape="http://www.inkscape.org/namespaces/inkscape"
   version="1.1"
   id="Layer_1"
   inkscape:version="0.92.2 (5c3e80d, 2017-08-06)"
   sodipodi:docname="minutes_oct_9th.svg"
   x="0px"
   y="0px"
   width="100"
   height="100"
   viewBox="416.572 -360.945 100 100"
   enable-background="new 416.572 -360.945 595.275 841.89"
   xml:space="preserve"
   inkscape:export-filename="C:\Users\holly.jones\Downloads\volcano_pixelhint_12th_jan-20180116T210822Z-001\volcano_pixelhint_12th_jan\volcano_pixelhint\img\hedges_icon_100_white.png"
   inkscape:export-xdpi="149.93106"
   inkscape:export-ydpi="149.93106"><metadata
     id="metadata326"><rdf:RDF><cc:Work
         rdf:about=""><dc:format>image/svg+xml</dc:format><dc:type
           rdf:resource="http://purl.org/dc/dcmitype/StillImage" /><dc:title /></cc:Work></rdf:RDF></metadata><defs
     id="defs324" /><sodipodi:namedview
     id="namedview230"
     inkscape:pageshadow="2"
     inkscape:window-width="1920"
     inkscape:window-height="1001"
     inkscape:window-x="-9"
     inkscape:window-y="-9"
     inkscape:current-layer="Layer_1"
     inkscape:pageopacity="0"
     gridtolerance="10"
     inkscape:zoom="4.04"
     inkscape:cy="29.764367"
     guidetolerance="10"
     bordercolor="#666666"
     showgrid="false"
     borderopacity="1"
     objecttolerance="10"
     inkscape:cx="47.829887"
     pagecolor="#ffffff"
     inkscape:window-maximized="1"
     inkscape:snap-nodes="false" /><text
     xml:space="preserve"
     style="font-style:normal;font-weight:normal;font-size:40px;line-height:125%;font-family:Sans;letter-spacing:0px;word-spacing:0px;fill:#000000;fill-opacity:1;stroke:none;stroke-width:1px;stroke-linecap:butt;stroke-linejoin:miter;stroke-opacity:1"
     x="566.7934"
     y="-274.51813"
     id="text5063"><tspan
       sodipodi:role="line"
       id="tspan5061"
       x="566.7934"
       y="-239.1275" /></text>
<g
     id="g888"><path
       d="m 430.76375,-334.21092 c 0,0 8.4e-4,-15.10866 0,-16.74666 -8.4e-4,-2.19132 1.53188,-3.78371 4.21814,-3.78371 1.60603,0 58.40436,0.002 59.56296,0 1.84364,-0.003 3.464,0.90559 3.464,3.62489 0,0.76536 0,1.77824 0,1.77824 v 30.35754"
       stroke-miterlimit="10"
       id="path1203-4"
       inkscape:connector-curvature="0"
       style="fill:#ffffff;fill-opacity:1;stroke:#424143;stroke-width:2.57180023;stroke-linejoin:round;stroke-miterlimit:10" /><path
       d="m 498.20433,-349.33816 c 0,0 -0.52663,0 1.39538,0 1.57991,0 2.75199,1.62702 2.75199,2.97358 0,1.05596 0,27.3848 0,27.3848"
       stroke-miterlimit="10"
       id="path1205-5"
       inkscape:connector-curvature="0"
       style="fill:#ffffff;fill-opacity:1;stroke:#424143;stroke-width:2.57180023;stroke-linejoin:round;stroke-miterlimit:10" /><path
       style="fill:#ffffff;fill-opacity:1;stroke:#424143;stroke-width:2.57180023;stroke-linejoin:round;stroke-miterlimit:10"
       inkscape:connector-curvature="0"
       id="path1207-2"
       stroke-miterlimit="10"
       d="m 430.76375,-339.40385 c 0,0 8.4e-4,57.52174 0,60.2777 -8.4e-4,3.68695 1.53188,6.36617 4.21814,6.36617 1.60603,0 58.40436,-0.003 59.56296,0 1.84364,0.006 3.464,-1.52368 3.464,-6.09895 v -2.99192 -51.07713"
       sodipodi:nodetypes="ccscscc" /><path
       sodipodi:nodetypes="cscccc"
       d="m 435.13517,-273.64793 c -8.4e-4,3.68695 1.53188,6.36617 4.21815,6.36617 1.60603,0 52.31167,0.0749 53.47027,0.0775 4.13107,-0.006 9.19535,0.90351 9.52936,-5.64591 l 0.0273,-8.59103 -0.0625,-65.44603"
       stroke-miterlimit="10"
       id="path1209-4"
       inkscape:connector-curvature="0"
       style="fill:#ffffff;fill-opacity:1;stroke:#424143;stroke-width:2.57180023;stroke-linejoin:round;stroke-miterlimit:10" /><rect
       ry="0.4839977"
       y="-329.65149"
       x="475.55685"
       height="9.0537529"
       width="13.156449"
       id="rect4938-6"
       style="opacity:1;fill:#b8e69a;fill-opacity:1;stroke:none;stroke-width:1.28599989;stroke-linejoin:round;stroke-miterlimit:4;stroke-dasharray:none;stroke-opacity:1" /><path
       d="M 481.51713,-266.44035"
       stroke-miterlimit="10"
       id="path4824-4"
       inkscape:connector-curvature="0"
       style="fill:none;stroke:#010101;stroke-width:3.43649983;stroke-linejoin:round;stroke-miterlimit:10" /><line
       y2="-346.0571"
       x2="490.64609"
       y1="-346.0571"
       x1="438.73749"
       stroke-miterlimit="10"
       id="line4830-3"
       style="fill:none;stroke:#424143;stroke-width:2;stroke-linecap:round;stroke-linejoin:round;stroke-miterlimit:9.39999962;stroke-dasharray:none" /><line
       y2="-338.24637"
       x2="490.90335"
       y1="-338.24637"
       x1="438.74094"
       stroke-miterlimit="10"
       id="line4832-9"
       style="fill:none;stroke:#424143;stroke-width:2;stroke-linecap:round;stroke-linejoin:round;stroke-miterlimit:9.39999962;stroke-dasharray:none" /><path
       d="m 430.76375,-334.21092 c 0,0 8.4e-4,-15.10866 0,-16.74666 -8.4e-4,-2.19132 1.53188,-3.78371 4.21814,-3.78371 1.60603,0 58.40436,0.002 59.56296,0 1.84364,-0.003 3.464,0.90559 3.464,3.62489 0,0.76536 0,1.77824 0,1.77824 v 30.35754"
       stroke-miterlimit="10"
       id="path4840-9"
       inkscape:connector-curvature="0"
       style="fill:none;stroke:#424143;stroke-width:2.57180023;stroke-linejoin:round;stroke-miterlimit:10" /><path
       d="m 498.20433,-349.33816 c 0,0 -0.52663,0 1.39538,0 1.57991,0 2.75199,1.62702 2.75199,2.97358 0,1.05596 0,27.3848 0,27.3848"
       stroke-miterlimit="10"
       id="path4842-9"
       inkscape:connector-curvature="0"
       style="fill:none;stroke:#424143;stroke-width:2.57180023;stroke-linejoin:round;stroke-miterlimit:10" /><path
       style="fill:none;stroke:#424143;stroke-width:2.57180023;stroke-linejoin:round;stroke-miterlimit:10"
       inkscape:connector-curvature="0"
       id="path4870-6"
       stroke-miterlimit="10"
       d="m 430.76375,-339.40385 c 0,0 8.4e-4,57.52174 0,60.2777 -8.4e-4,3.68695 1.53188,6.36617 4.21814,6.36617 1.60603,0 58.40436,-0.003 59.56296,0 1.84364,0.006 3.464,-1.52368 3.464,-6.09895 v -2.99192 -51.07713"
       sodipodi:nodetypes="ccscscc" /><path
       sodipodi:nodetypes="cscccc"
       d="m 435.13517,-273.64793 c -8.4e-4,3.68695 1.53188,6.36617 4.21815,6.36617 1.60603,0 52.31167,0.0749 53.47027,0.0775 4.13107,-0.006 9.19535,0.90351 9.52936,-5.64591 l 0.0273,-8.59103 v -46.00852"
       stroke-miterlimit="10"
       id="path4872-7"
       inkscape:connector-curvature="0"
       style="fill:none;stroke:#424143;stroke-width:2.57180023;stroke-linejoin:round;stroke-miterlimit:10" /><line
       style="fill:none;stroke:#424143;stroke-width:2;stroke-linecap:round;stroke-linejoin:round;stroke-miterlimit:9.39999962;stroke-dasharray:none"
       id="line4874-5"
       stroke-miterlimit="10"
       x1="438.55399"
       y1="-330.49893"
       x2="471.16211"
       y2="-330.49893" /><line
       style="fill:none;stroke:#424143;stroke-width:2;stroke-linecap:round;stroke-linejoin:round;stroke-miterlimit:9.39999962;stroke-dasharray:none"
       id="line4876-9"
       stroke-miterlimit="10"
       x1="438.54648"
       y1="-322.6882"
       x2="471.16278"
       y2="-322.6882" /><rect
       style="opacity:1;fill:none;fill-opacity:1;stroke:#424143;stroke-width:2;stroke-linejoin:round;stroke-miterlimit:9.39999962;stroke-dasharray:none;stroke-opacity:1"
       id="rect4894-3"
       width="15.06895"
       height="11.272432"
       x="475.73941"
       y="-331.77927"
       ry="0.60260445" /><g
       id="text5039"
       style="font-size:20.78250694px;font-family:CenturyGothic;fill:#424143;stroke-width:1"
       aria-label="9th"><path
         id="path858"
         style="font-size:20.78250694px;font-family:CenturyGothic;fill:#424143;stroke-width:1"
         d="m 441.36583,-279.34142 -1.22788,-0.79152 4.02864,-6.10892 q -0.81181,0.26384 -1.52215,0.26384 -1.77585,0 -3.01387,-1.27862 -1.23802,-1.28875 -1.23802,-3.16608 0,-1.28876 0.59871,-2.32383 0.59872,-1.03506 1.69467,-1.65407 1.1061,-0.61901 2.36442,-0.61901 1.23802,0 2.28323,0.59871 1.05536,0.59872 1.65408,1.67437 0.59871,1.07566 0.59871,2.29339 0,0.92344 -0.37546,1.93821 -0.36532,1.00462 -1.31921,2.4253 z m 1.62363,-7.94566 q 1.30905,0 2.22235,-0.91329 0.92344,-0.92344 0.92344,-2.22235 0,-1.29891 -0.92344,-2.2122 -0.9133,-0.92344 -2.22235,-0.92344 -1.29891,0 -2.22235,0.92344 -0.91329,0.91329 -0.91329,2.2122 0,1.29891 0.91329,2.22235 0.92344,0.91329 2.22235,0.91329 z" /><path
         id="path860"
         style="font-size:20.78250694px;font-family:CenturyGothic;fill:#424143;stroke-width:1"
         d="m 451.72664,-294.85727 h 1.43082 v 4.09967 h 2.25279 v 1.21773 h -2.25279 v 9.82298 h -1.43082 v -9.82298 h -1.93822 v -1.21773 h 1.93822 z" /><path
         id="path862"
         style="font-size:20.78250694px;font-family:CenturyGothic;fill:#424143;stroke-width:1"
         d="m 457.55142,-295.01963 h 1.42068 v 6.24084 q 0.86256,-1.13655 1.89762,-1.69467 1.03507,-0.56827 2.24265,-0.56827 1.23802,0 2.1919,0.62916 0.96403,0.62915 1.42068,1.69466 0.45665,1.05537 0.45665,3.3183 v 5.68272 h -1.42068 v -5.26666 q 0,-1.90777 -0.15222,-2.54707 -0.26384,-1.09596 -0.96403,-1.64393 -0.69004,-0.55813 -1.81644,-0.55813 -1.28876,0 -2.31368,0.85241 -1.01477,0.85241 -1.33949,2.11072 -0.20296,0.81182 -0.20296,3.00373 v 4.04893 h -1.42068 z" /></g><g
       id="text5059"
       style="font-size:20.02172661px;font-family:CenturyGothic;fill:#424143;stroke-width:1"
       aria-label="Oct"><path
         id="path851"
         style="font-size:20.02172661px;font-family:CenturyGothic;fill:#424143;stroke-width:1"
         d="m 445.87137,-315.08576 q 3.26526,0 5.46491,2.1801 2.19965,2.1801 2.19965,5.36715 0,3.15772 -2.19965,5.35738 -2.18988,2.19965 -5.3476,2.19965 -3.19683,0 -5.39648,-2.18988 -2.19965,-2.18987 -2.19965,-5.29872 0,-2.07256 0.99717,-3.84205 1.00695,-1.7695 2.73735,-2.76668 1.73039,-1.00695 3.7443,-1.00695 z m 0.0684,1.40778 q -1.59353,0 -3.02086,0.83098 -1.42733,0.83098 -2.22898,2.23875 -0.80165,1.40778 -0.80165,3.13817 0,2.56138 1.7695,4.33088 1.77927,1.75972 4.28199,1.75972 1.67174,0 3.08929,-0.81143 1.42733,-0.81143 2.2192,-2.2192 0.80166,-1.40778 0.80166,-3.1284 0,-1.71084 -0.80166,-3.08929 -0.79187,-1.38822 -2.23875,-2.2192 -1.44689,-0.83098 -3.06974,-0.83098 z" /><path
         id="path853"
         style="font-size:20.02172661px;font-family:CenturyGothic;fill:#424143;stroke-width:1"
         d="m 466.51877,-308.77031 -1.08516,0.67456 q -1.40778,-1.86726 -3.84206,-1.86726 -1.94547,0 -3.23593,1.25135 -1.28069,1.25136 -1.28069,3.04041 0,1.16337 0.58657,2.18988 0.59635,1.0265 1.62286,1.59352 1.03628,0.56703 2.31696,0.56703 2.3463,0 3.83229,-1.86726 l 1.08516,0.71366 q -0.76255,1.14382 -2.05301,1.77927 -1.28069,0.62568 -2.92309,0.62568 -2.52227,0 -4.18423,-1.6033 -1.66196,-1.6033 -1.66196,-3.90072 0,-1.54464 0.77232,-2.86443 0.7821,-1.32957 2.141,-2.07256 1.35889,-0.743 3.04041,-0.743 1.05583,0 2.03345,0.32262 0.9874,0.32261 1.67174,0.84075 0.68434,0.51814 1.16337,1.3198 z" /><path
         id="path855"
         style="font-size:20.02172661px;font-family:CenturyGothic;fill:#424143;stroke-width:1"
         d="m 470.3315,-314.92934 h 1.37845 v 3.9496 h 2.17032 v 1.17315 h -2.17032 v 9.46339 h -1.37845 v -9.46339 h -1.86726 v -1.17315 h 1.86726 z" /></g></g></svg>