<?xml version="1.0" encoding="UTF-8" standalone="no"?>
<!-- Generator: Adobe Illustrator 14.0.0, SVG Export Plug-In . SVG Version: 6.00 Build 43363)  -->

<svg
   xmlns:dc="http://purl.org/dc/elements/1.1/"
   xmlns:cc="http://creativecommons.org/ns#"
   xmlns:rdf="http://www.w3.org/1999/02/22-rdf-syntax-ns#"
   xmlns:svg="http://www.w3.org/2000/svg"
   xmlns="http://www.w3.org/2000/svg"
   xmlns:sodipodi="http://sodipodi.sourceforge.net/DTD/sodipodi-0.dtd"
   xmlns:inkscape="http://www.inkscape.org/namespaces/inkscape"
   version="1.1"
   id="Layer_1"
   inkscape:version="0.92.2 (5c3e80d, 2017-08-06)"
   sodipodi:docname="minutes_july_2nd.svg"
   x="0px"
   y="0px"
   width="100"
   height="100"
   viewBox="416.572 -360.945 100 100"
   enable-background="new 416.572 -360.945 595.275 841.89"
   xml:space="preserve"
   inkscape:export-filename="C:\Users\holly.jones\Downloads\volcano_pixelhint_12th_jan-20180116T210822Z-001\volcano_pixelhint_12th_jan\volcano_pixelhint\img\hedges_icon_100_white.png"
   inkscape:export-xdpi="149.93106"
   inkscape:export-ydpi="149.93106"><metadata
     id="metadata326"><rdf:RDF><cc:Work
         rdf:about=""><dc:format>image/svg+xml</dc:format><dc:type
           rdf:resource="http://purl.org/dc/dcmitype/StillImage" /><dc:title /></cc:Work></rdf:RDF></metadata><defs
     id="defs324"><clipPath
       clipPathUnits="userSpaceOnUse"
       id="clipPath1282"><rect
         ry="9.0558882"
         y="-355.80136"
         x="430.07397"
         height="89.648712"
         width="90.322769"
         id="rect1284"
         style="opacity:1;fill:#b8e69a;fill-opacity:1;stroke:none;stroke-width:1.99999988;stroke-linecap:round;stroke-linejoin:round;stroke-miterlimit:8.36363602;stroke-dasharray:none;stroke-opacity:1" /></clipPath></defs><sodipodi:namedview
     id="namedview230"
     inkscape:pageshadow="2"
     inkscape:window-width="1680"
     inkscape:window-height="987"
     inkscape:window-x="1912"
     inkscape:window-y="-8"
     inkscape:current-layer="Layer_1"
     inkscape:pageopacity="0"
     gridtolerance="10"
     inkscape:zoom="4.04"
     inkscape:cy="9.5463752"
     guidetolerance="10"
     bordercolor="#666666"
     showgrid="false"
     borderopacity="1"
     objecttolerance="10"
     inkscape:cx="107.29592"
     pagecolor="#ffffff"
     inkscape:window-maximized="1"
     inkscape:snap-nodes="false" /><g
     aria-label="2nd"
     style="font-size:20.78250694px;font-family:CenturyGothic;fill:#424143;stroke-width:1"
     id="text5039"><path
       d="m 437.2038,-290.66615 h -1.43082 q 0.0609,-2.2122 1.47142,-3.63288 1.42067,-1.42068 3.50095,-1.42068 2.05999,0 3.32845,1.32935 1.27861,1.32935 1.27861,3.13565 0,1.26846 -0.60886,2.38471 -0.60886,1.1061 -2.36441,3.00372 l -3.71407,4.00834 h 6.8903 v 1.44098 h -10.13756 l 5.70301,-6.15966 q 1.73526,-1.85703 2.25279,-2.75003 0.52768,-0.90315 0.52768,-1.89762 0,-1.25832 -0.94373,-2.16146 -0.93359,-0.9133 -2.29339,-0.9133 -1.43082,0 -2.38471,0.95389 -0.94374,0.95388 -1.07566,2.67899 z"
       style="font-size:20.78250694px;font-family:CenturyGothic;fill:#424143;stroke-width:1"
       id="path1469" /><path
       d="m 447.90964,-291.45767 h 1.42068 v 1.9788 q 0.8524,-1.13654 1.88747,-1.69466 1.03507,-0.56827 2.25279,-0.56827 1.23802,0 2.19191,0.62915 0.96403,0.62916 1.42068,1.69467 0.45664,1.06551 0.45664,3.3183 v 5.68272 h -1.41053 v -5.26666 q 0,-1.90777 -0.16236,-2.54708 -0.2537,-1.09595 -0.95389,-1.64393 -0.70019,-0.55812 -1.82658,-0.55812 -1.28876,0 -2.31368,0.85241 -1.01477,0.85241 -1.3395,2.11072 -0.20295,0.82197 -0.20295,3.00372 v 4.04894 h -1.42068 z"
       style="font-size:20.78250694px;font-family:CenturyGothic;fill:#424143;stroke-width:1"
       id="path1471" /><path
       d="m 471.59439,-295.71971 v 15.30275 H 470.194 v -1.89762 q -0.89299,1.0858 -2.00924,1.63378 -1.1061,0.54797 -2.4253,0.54797 -2.34412,0 -4.00835,-1.69466 -1.65408,-1.70482 -1.65408,-4.14027 0,-2.38471 1.67438,-4.07938 1.67437,-1.69466 4.02864,-1.69466 1.35979,0 2.45574,0.57842 1.1061,0.57841 1.93821,1.73525 v -6.29158 z m -5.68272,5.34785 q -1.18728,0 -2.1919,0.58856 -1.00463,0.57842 -1.60334,1.63378 -0.58857,1.05537 -0.58857,2.2325 0,1.16699 0.59872,2.2325 0.59871,1.06551 1.60333,1.66422 1.01478,0.58857 2.17161,0.58857 1.16699,0 2.2122,-0.58857 1.04522,-0.58857 1.60334,-1.59319 0.56827,-1.00462 0.56827,-2.26294 0,-1.91792 -1.26846,-3.20667 -1.25832,-1.28876 -3.1052,-1.28876 z"
       style="font-size:20.78250694px;font-family:CenturyGothic;fill:#424143;stroke-width:1"
       id="path1473" /></g><rect
     style="opacity:1;fill:#b8e69a;fill-opacity:1;stroke:none;stroke-width:1.28599989;stroke-linejoin:round;stroke-miterlimit:4;stroke-dasharray:none;stroke-opacity:1"
     id="rect4989"
     width="13.156449"
     height="9.0537529"
     x="475.55685"
     y="-329.65149"
     ry="0.4839977" /><path
     style="fill:none;stroke:#010101;stroke-width:3.43649983;stroke-linejoin:round;stroke-miterlimit:10"
     inkscape:connector-curvature="0"
     id="path4991"
     stroke-miterlimit="10"
     d="M 481.51713,-266.44037" /><line
     style="fill:none;stroke:#424143;stroke-width:1.28590012;stroke-linecap:round;stroke-linejoin:round;stroke-miterlimit:10"
     id="line4993"
     stroke-miterlimit="10"
     x1="438.73749"
     y1="-346.0571"
     x2="490.64609"
     y2="-346.0571" /><line
     style="fill:none;stroke:#424143;stroke-width:1.28599989;stroke-linecap:round;stroke-linejoin:round;stroke-miterlimit:10;stroke-dasharray:none"
     id="line4995"
     stroke-miterlimit="10"
     x1="438.74094"
     y1="-338.24637"
     x2="490.90335"
     y2="-338.24637" /><path
     style="fill:none;stroke:#424143;stroke-width:2.57180023;stroke-linejoin:round;stroke-miterlimit:10"
     inkscape:connector-curvature="0"
     id="path4997"
     stroke-miterlimit="10"
     d="m 430.76375,-334.21094 c 0,0 8.4e-4,-15.10866 0,-16.74666 -8.4e-4,-2.19132 1.53188,-3.78371 4.21814,-3.78371 1.60603,0 58.40436,0.002 59.56296,0 1.84364,-0.003 3.464,0.90559 3.464,3.62489 0,0.76536 0,1.77824 0,1.77824 v 30.35754" /><path
     style="fill:none;stroke:#424143;stroke-width:2.57180023;stroke-linejoin:round;stroke-miterlimit:10"
     inkscape:connector-curvature="0"
     id="path4999"
     stroke-miterlimit="10"
     d="m 498.20433,-349.33818 c 0,0 -0.52663,0 1.39538,0 1.57991,0 2.75199,1.62702 2.75199,2.97358 0,1.05596 0,27.3848 0,27.3848" /><path
     sodipodi:nodetypes="ccscscc"
     d="m 430.76375,-339.40387 c 0,0 8.4e-4,57.52174 0,60.2777 -8.4e-4,3.68695 1.53188,6.36617 4.21814,6.36617 1.60603,0 58.40436,-0.003 59.56296,0 1.84364,0.006 3.464,-1.52368 3.464,-6.09895 v -2.99192 -51.07713"
     stroke-miterlimit="10"
     id="path5001"
     inkscape:connector-curvature="0"
     style="fill:none;stroke:#424143;stroke-width:2.57180023;stroke-linejoin:round;stroke-miterlimit:10" /><path
     style="fill:none;stroke:#424143;stroke-width:2.57180023;stroke-linejoin:round;stroke-miterlimit:10"
     inkscape:connector-curvature="0"
     id="path5003"
     stroke-miterlimit="10"
     d="m 435.13517,-273.64795 c -8.4e-4,3.68695 1.53188,6.36617 4.21815,6.36617 1.60603,0 52.31167,0.0749 53.47027,0.0775 4.13107,-0.006 9.19535,0.90351 9.52936,-5.64591 l 0.0273,-8.59103 v -46.00852"
     sodipodi:nodetypes="cscccc" /><line
     y2="-330.49893"
     x2="471.16211"
     y1="-330.49893"
     x1="438.55399"
     stroke-miterlimit="10"
     id="line5005"
     style="fill:none;stroke:#424143;stroke-width:1.28590012;stroke-linecap:round;stroke-linejoin:round;stroke-miterlimit:10" /><line
     y2="-322.6882"
     x2="471.16278"
     y1="-322.6882"
     x1="438.54648"
     stroke-miterlimit="10"
     id="line5007"
     style="fill:none;stroke:#424143;stroke-width:1.28590012;stroke-linecap:round;stroke-linejoin:round;stroke-miterlimit:10" /><rect
     ry="0.60260445"
     y="-331.77927"
     x="475.73941"
     height="11.272432"
     width="15.06895"
     id="rect5019"
     style="opacity:1;fill:none;fill-opacity:1;stroke:#424143;stroke-width:1.28599989;stroke-linejoin:round;stroke-miterlimit:4;stroke-dasharray:none;stroke-opacity:1" /><g
     aria-label="July"
     style="font-size:20.02172661px;font-family:CenturyGothic;fill:#424143;stroke-width:1"
     id="text5059"><path
       d="m 442.59675,-315.42411 h 1.44689 v 9.7078 q 0,2.23875 -0.35195,3.11861 -0.34217,0.87009 -1.15359,1.39801 -0.81143,0.51814 -1.96503,0.51814 -0.87008,0 -1.72061,-0.34217 -0.84076,-0.33239 -1.86726,-1.18293 l 0.76254,-1.14382 q 1.12427,0.79188 1.86726,1.1145 0.48881,0.21507 0.95807,0.21507 0.61591,0 1.11449,-0.37149 0.50837,-0.3715 0.70389,-0.9874 0.2053,-0.61591 0.2053,-2.3854 z"
       style="font-size:20.02172661px;font-family:CenturyGothic;fill:#424143;stroke-width:1"
       id="path1460" /><path
       d="m 447.15248,-311.67982 h 1.37845 v 4.96633 q 0,1.81838 0.19552,2.50272 0.29329,0.97762 1.11449,1.54464 0.83098,0.56702 1.9748,0.56702 1.14382,0 1.9357,-0.54747 0.80165,-0.55724 1.10471,-1.45666 0.2053,-0.6159 0.2053,-2.61025 v -4.96633 h 1.398 v 5.22051 q 0,2.19966 -0.51814,3.31415 -0.50836,1.11449 -1.54464,1.74994 -1.02651,0.62568 -2.58093,0.62568 -1.55442,0 -2.60048,-0.62568 -1.03628,-0.63545 -1.55442,-1.75972 -0.50836,-1.13404 -0.50836,-3.40213 z"
       style="font-size:20.02172661px;font-family:CenturyGothic;fill:#424143;stroke-width:1"
       id="path1462" /><path
       d="m 459.28478,-315.78583 h 1.36868 v 14.74256 h -1.36868 z"
       style="font-size:20.02172661px;font-family:CenturyGothic;fill:#424143;stroke-width:1"
       id="path1464" /><path
       d="m 462.37407,-311.67982 h 1.44689 l 3.65631,8.19249 3.54877,-8.19249 h 1.45666 l -6.34478,14.52749 h -1.44688 l 2.05301,-4.6926 z"
       style="font-size:20.02172661px;font-family:CenturyGothic;fill:#424143;stroke-width:1"
       id="path1466" /></g><text
     xml:space="preserve"
     style="font-style:normal;font-weight:normal;font-size:40px;line-height:125%;font-family:Sans;letter-spacing:0px;word-spacing:0px;fill:#000000;fill-opacity:1;stroke:none;stroke-width:1px;stroke-linecap:butt;stroke-linejoin:miter;stroke-opacity:1"
     x="566.7934"
     y="-274.51813"
     id="text5063"><tspan
       sodipodi:role="line"
       id="tspan5061"
       x="566.7934"
       y="-239.1275" /></text>
</svg>