<?xml version="1.0" encoding="UTF-8" standalone="no"?>
<!-- Generator: Adobe Illustrator 14.0.0, SVG Export Plug-In . SVG Version: 6.00 Build 43363)  -->

<svg
   xmlns:dc="http://purl.org/dc/elements/1.1/"
   xmlns:cc="http://creativecommons.org/ns#"
   xmlns:rdf="http://www.w3.org/1999/02/22-rdf-syntax-ns#"
   xmlns:svg="http://www.w3.org/2000/svg"
   xmlns="http://www.w3.org/2000/svg"
   xmlns:sodipodi="http://sodipodi.sourceforge.net/DTD/sodipodi-0.dtd"
   xmlns:inkscape="http://www.inkscape.org/namespaces/inkscape"
   version="1.1"
   id="Layer_1"
   inkscape:version="0.92.2 (5c3e80d, 2017-08-06)"
   sodipodi:docname="news.svg"
   x="0px"
   y="0px"
   width="100"
   height="100"
   viewBox="416.572 -360.945 100 100"
   enable-background="new 416.572 -360.945 595.275 841.89"
   xml:space="preserve"
   inkscape:export-filename="C:\Users\holly.jones\Downloads\volcano_pixelhint_12th_jan-20180116T210822Z-001\volcano_pixelhint_12th_jan\volcano_pixelhint\img\hedges_icon_100_white.png"
   inkscape:export-xdpi="149.93106"
   inkscape:export-ydpi="149.93106"><metadata
     id="metadata326"><rdf:RDF><cc:Work
         rdf:about=""><dc:format>image/svg+xml</dc:format><dc:type
           rdf:resource="http://purl.org/dc/dcmitype/StillImage" /><dc:title /></cc:Work></rdf:RDF></metadata><defs
     id="defs324" /><sodipodi:namedview
     id="namedview230"
     inkscape:pageshadow="2"
     inkscape:window-width="1920"
     inkscape:window-height="1001"
     inkscape:window-x="-9"
     inkscape:window-y="-9"
     inkscape:current-layer="Layer_1"
     inkscape:pageopacity="0"
     gridtolerance="10"
     inkscape:zoom="4.04"
     inkscape:cy="45.185041"
     guidetolerance="10"
     bordercolor="#666666"
     showgrid="false"
     borderopacity="1"
     objecttolerance="10"
     inkscape:cx="77.944563"
     pagecolor="#ffffff"
     inkscape:window-maximized="1"
     inkscape:snap-nodes="false" /><text
     xml:space="preserve"
     style="font-style:normal;font-weight:normal;font-size:40px;line-height:125%;font-family:Sans;letter-spacing:0px;word-spacing:0px;fill:#000000;fill-opacity:1;stroke:none;stroke-width:1px;stroke-linecap:butt;stroke-linejoin:miter;stroke-opacity:1"
     x="566.7934"
     y="-274.51813"
     id="text5063"><tspan
       sodipodi:role="line"
       id="tspan5061"
       x="566.7934"
       y="-239.1275" /></text>
<g
     id="g1274"><path
       sodipodi:nodetypes="cssccccccssscssscccc"
       transform="translate(416.572,-360.945)"
       inkscape:connector-curvature="0"
       id="path1258"
       d="m 90.49222,86.483171 c -0.293376,-0.125454 -1.092024,-0.590844 -1.23997,-0.820279 -0.797912,-1.237406 0.159595,0.193107 0.06687,-35.597467 l -0.08751,-33.780101 -0.39906,-0.865497 c -0.639751,-1.387511 -1.181617,-1.960098 -2.44227,-2.580735 L 85.213437,12.259716 47.289735,12.213627 9.3660353,12.167538 9.4530165,11.776061 C 9.9053468,9.7402539 10.673073,8.7884163 12.327425,8.2123306 13.238208,7.8951738 14.571517,7.8840549 51.69217,7.8840549 h 38.422033 l 1.170351,0.5761867 c 1.304659,0.6423094 2.317865,1.6794614 2.592611,2.6538874 0.242329,0.859454 0.465834,27.169259 0.446243,52.529491 l 0.443414,20.754277 -0.643518,1.167967 c -0.788415,1.033629 -2.205814,1.56479 -3.106002,1.179847 z"
       style="opacity:1;fill:#ffffff;fill-opacity:1;stroke:none;stroke-width:2;stroke-linecap:round;stroke-linejoin:round;stroke-miterlimit:8.36363602;stroke-dasharray:none;stroke-opacity:1" /><path
       style="fill:#ffffff;stroke:#424143;stroke-width:2.5;stroke-linejoin:round;stroke-miterlimit:10;stroke-dasharray:none;fill-opacity:1"
       inkscape:connector-curvature="0"
       id="path1256"
       stroke-miterlimit="10"
       d="m 424.61538,-347.4103 c -0.001,-2.59698 0.35838,-6.76579 6.4864,-6.98754 1.99653,-0.0723 73.38287,0.0412 74.82421,0.0392 2.29356,-0.004 5.99268,2.182 5.99268,5.40471 l 0.34828,39.63706 v 16.40195 11.79766 l -0.0617,4.02825 c 0.12357,7.65891 -9.6886,6.66639 -11.98216,6.66238 -1.44134,-0.002 -72.10052,0 -74.09847,0 -3.34181,0 -5.24858,-1.88717 -5.24753,-4.48415 10e-4,-1.94123 0,-21.91784 0,-21.91784 0,0 10e-4,-44.15633 0,-46.09756 -0.001,-2.59699 1.78962,-4.59503 5.13143,-4.59503 1.99796,0 72.77323,0.11288 74.21457,0.11087 2.29356,-0.004 4.30934,1.07324 4.30934,4.29594 v 2.10743 35.97737 16.40195 9.13709 c 0.0714,9.55588 7.62449,6.05181 7.67282,2.40155"
       sodipodi:nodetypes="cscccccccscccscsccccc" /><path
       style="fill:none;stroke:#010101;stroke-width:2.76591682;stroke-linejoin:round;stroke-miterlimit:10"
       inkscape:connector-curvature="0"
       id="path1138"
       stroke-miterlimit="10"
       d="M 480.97165,-266.24647" /><path
       sodipodi:nodetypes="cscccccccscccscsccccc"
       d="m 424.61538,-347.4103 c -0.001,-2.59698 0.35838,-6.76579 6.4864,-6.98754 1.99653,-0.0723 73.38287,0.0412 74.82421,0.0392 2.29356,-0.004 5.99268,2.182 5.99268,5.40471 l 0.34828,39.63706 v 16.40195 11.79766 l -0.0617,4.02825 c 0.12357,7.65891 -9.6886,6.66639 -11.98216,6.66238 -1.44134,-0.002 -72.10052,0 -74.09847,0 -3.34181,0 -5.24858,-1.88717 -5.24753,-4.48415 10e-4,-1.94123 0,-21.91784 0,-21.91784 0,0 10e-4,-44.15633 0,-46.09756 -0.001,-2.59699 1.78962,-4.59503 5.13143,-4.59503 1.99796,0 72.77323,0.11288 74.21457,0.11087 2.29356,-0.004 4.30934,1.07324 4.30934,4.29594 v 2.10743 35.97737 16.40195 9.13709 c 0.0714,9.55588 7.62449,6.05181 7.67282,2.40155"
       stroke-miterlimit="10"
       id="path1146"
       inkscape:connector-curvature="0"
       style="fill:none;stroke:#424143;stroke-width:2.5;stroke-linejoin:round;stroke-miterlimit:10;stroke-dasharray:none" /><path
       style="opacity:1;fill:#b8e69a;fill-opacity:1;stroke:none;stroke-width:3.57999969;stroke-linecap:round;stroke-linejoin:round;stroke-miterlimit:8.36363602;stroke-dasharray:none;stroke-opacity:1"
       d="m 429.69066,-332.07456 v -4.42023 h 31.43132 31.43136 v 4.42023 4.42023 h -31.43136 -31.43132 z"
       id="path1320"
       inkscape:connector-curvature="0" /><path
       style="opacity:1;fill:#b8e69a;fill-opacity:1;stroke:none;stroke-width:3.57999969;stroke-linecap:round;stroke-linejoin:round;stroke-miterlimit:8.36363602;stroke-dasharray:none;stroke-opacity:1"
       d="m 466.63385,-298.81146 v -8.98246 h 12.62864 12.62866 v 8.98246 8.98246 h -12.62866 -12.62864 z"
       id="path1322"
       inkscape:connector-curvature="0" /><line
       y2="-320.37997"
       x2="493.26895"
       y1="-320.37997"
       x1="430.43109"
       stroke-miterlimit="10"
       id="line1140"
       style="fill:none;stroke:#424143;stroke-width:3.58000016;stroke-linecap:round;stroke-linejoin:round;stroke-miterlimit:8.36363602;stroke-dasharray:none" /><line
       y2="-310.32193"
       x2="456.53094"
       y1="-310.16486"
       x1="429.54568"
       stroke-miterlimit="10"
       id="line1142"
       style="fill:none;stroke:#424143;stroke-width:2;stroke-linecap:round;stroke-linejoin:round;stroke-miterlimit:8.36363602;stroke-dasharray:none" /><line
       style="fill:none;stroke:#424143;stroke-width:2;stroke-linecap:round;stroke-linejoin:round;stroke-miterlimit:8.36363602;stroke-dasharray:none"
       id="line1148"
       stroke-miterlimit="10"
       x1="429.5437"
       y1="-300.10684"
       x2="456.53293"
       y2="-300.10684" /><line
       style="fill:none;stroke:#424143;stroke-width:2;stroke-linecap:round;stroke-linejoin:round;stroke-miterlimit:8.36363602;stroke-dasharray:none"
       id="line1150"
       stroke-miterlimit="10"
       x1="429.51163"
       y1="-290.05295"
       x2="456.56509"
       y2="-290.05295" /><rect
       style="opacity:1;fill:none;fill-opacity:1;stroke:#424143;stroke-width:2;stroke-linecap:round;stroke-linejoin:round;stroke-miterlimit:8.36363602;stroke-dasharray:none;stroke-opacity:1"
       id="rect1152"
       width="27.542128"
       height="20.437798"
       x="466.98352"
       y="-310.55252" /><rect
       y="-338.89059"
       x="429.12592"
       height="10.883729"
       width="66.115097"
       id="rect1154"
       style="opacity:1;fill:none;fill-opacity:1;stroke:#424143;stroke-width:2;stroke-linecap:round;stroke-linejoin:round;stroke-miterlimit:8.36363602;stroke-dasharray:none;stroke-opacity:1" /><line
       style="fill:none;stroke:#424143;stroke-width:2;stroke-linecap:round;stroke-linejoin:round;stroke-miterlimit:8.36363602;stroke-dasharray:none"
       id="line1158"
       stroke-miterlimit="10"
       x1="429.54773"
       y1="-279.84171"
       x2="456.52896"
       y2="-279.991" /><line
       y2="-279.991"
       x2="494.50467"
       y1="-279.84171"
       x1="467.52344"
       stroke-miterlimit="10"
       id="line1310"
       style="fill:none;stroke:#424143;stroke-width:2;stroke-linecap:round;stroke-linejoin:round;stroke-miterlimit:8.36363602;stroke-dasharray:none" /></g></svg>