<?xml version="1.0" encoding="UTF-8" standalone="no"?>
<!-- Generator: Adobe Illustrator 14.0.0, SVG Export Plug-In . SVG Version: 6.00 Build 43363)  -->

<svg
   xmlns:dc="http://purl.org/dc/elements/1.1/"
   xmlns:cc="http://creativecommons.org/ns#"
   xmlns:rdf="http://www.w3.org/1999/02/22-rdf-syntax-ns#"
   xmlns:svg="http://www.w3.org/2000/svg"
   xmlns="http://www.w3.org/2000/svg"
   xmlns:sodipodi="http://sodipodi.sourceforge.net/DTD/sodipodi-0.dtd"
   xmlns:inkscape="http://www.inkscape.org/namespaces/inkscape"
   version="1.1"
   id="Layer_1"
   inkscape:version="0.92.2 (5c3e80d, 2017-08-06)"
   sodipodi:docname="newsletter.svg"
   x="0px"
   y="0px"
   width="100"
   height="100"
   viewBox="416.572 -360.945 100 100"
   enable-background="new 416.572 -360.945 595.275 841.89"
   xml:space="preserve"
   inkscape:export-filename="C:\Users\holly.jones\Downloads\volcano_pixelhint_12th_jan-20180116T210822Z-001\volcano_pixelhint_12th_jan\volcano_pixelhint\img\hedges_icon_100_white.png"
   inkscape:export-xdpi="149.93106"
   inkscape:export-ydpi="149.93106"><metadata
     id="metadata326"><rdf:RDF><cc:Work
         rdf:about=""><dc:format>image/svg+xml</dc:format><dc:type
           rdf:resource="http://purl.org/dc/dcmitype/StillImage" /><dc:title /></cc:Work></rdf:RDF></metadata><defs
     id="defs324" /><sodipodi:namedview
     id="namedview230"
     inkscape:pageshadow="2"
     inkscape:window-width="1920"
     inkscape:window-height="1001"
     inkscape:window-x="-9"
     inkscape:window-y="-9"
     inkscape:current-layer="Layer_1"
     inkscape:pageopacity="0"
     gridtolerance="10"
     inkscape:zoom="4.04"
     inkscape:cy="67.980484"
     guidetolerance="10"
     bordercolor="#666666"
     showgrid="false"
     borderopacity="1"
     objecttolerance="10"
     inkscape:cx="8.1079496"
     pagecolor="#ffffff"
     inkscape:window-maximized="1"
     inkscape:snap-nodes="false" /><text
     xml:space="preserve"
     style="font-style:normal;font-weight:normal;font-size:40px;line-height:125%;font-family:Sans;letter-spacing:0px;word-spacing:0px;fill:#000000;fill-opacity:1;stroke:none;stroke-width:1px;stroke-linecap:butt;stroke-linejoin:miter;stroke-opacity:1"
     x="566.7934"
     y="-274.51813"
     id="text5063"><tspan
       sodipodi:role="line"
       id="tspan5061"
       x="566.7934"
       y="-239.1275" /></text>
<g
     id="g1241"><path
       style="fill:#ffffff;stroke:#424143;stroke-width:2.5;stroke-linejoin:round;stroke-miterlimit:10;stroke-dasharray:none;fill-opacity:1"
       inkscape:connector-curvature="0"
       id="path1185"
       stroke-miterlimit="10"
       d="m 498.35994,-350.57245 c 1.81187,-0.003 3.40429,0.88772 3.40429,3.55334 v 1.74314 29.75832 13.56671 c 0,10.50048 0,21.00097 0,31.50145 0,2.66563 -1.59242,3.55665 -3.40429,3.55334 -1.13862,-0.002 -56.95783,0 -58.53617,0 -2.63996,0 -4.14626,-1.56095 -4.14543,-3.70902"
       sodipodi:nodetypes="cscccccsc" /><path
       style="fill:#ffffff;stroke:#424143;stroke-width:2.5;stroke-linejoin:round;stroke-miterlimit:10;stroke-dasharray:none;fill-opacity:1"
       inkscape:connector-curvature="0"
       id="path1221"
       stroke-miterlimit="10"
       d="m 497.46565,-306.37234 v 29.75832 1.74313 c 0,2.66563 -1.59242,3.55665 -3.40428,3.55334 -1.13863,-0.002 -56.95784,0 -58.53618,0 -2.63996,0 -4.14626,-1.56095 -4.14543,-3.70902 8.3e-4,-1.60567 0,-38.12912 0,-38.12912 0,0 8.3e-4,-36.52346 0,-38.12913 -8.3e-4,-2.14807 1.50547,-3.70903 4.14543,-3.70903 1.57834,0 57.39755,0.002 58.53618,0 1.81186,-0.003 3.40428,0.88772 3.40428,3.55335 v 1.74313 29.75832 z"
       sodipodi:nodetypes="ccscscccscsccc" /><path
       style="fill:none;stroke:#010101;stroke-width:2.76591682;stroke-linejoin:round;stroke-miterlimit:10"
       inkscape:connector-curvature="0"
       id="path1135"
       stroke-miterlimit="10"
       d="M 481.25823,-268.43586" /><path
       inkscape:connector-curvature="0"
       id="path1223"
       d="m 432.263,-271.58391 c -0.33008,-0.16831 -0.76327,-0.5284 -0.96264,-0.80018 l -0.3625,-0.49416 v -38.89449 c 0,-36.82691 0.0164,-38.91947 0.30795,-39.36447 0.16937,-0.25849 0.56317,-0.60945 0.87513,-0.77992 0.53552,-0.29263 2.24081,-0.31252 30.54022,-0.35614 33.23838,-0.0512 30.96011,-0.13002 31.46907,1.08809 0.22485,0.53815 0.25198,5.60601 0.21248,39.69354 -0.0491,42.36531 0.0179,39.57989 -0.96297,40.02682 -0.28745,0.13096 -9.47018,0.18739 -30.46403,0.18721 -28.26548,-1.8e-4 -30.08825,-0.0185 -30.65271,-0.3063 z m 57.12941,-4.48188 c 0.43439,-0.31764 0.43439,-1.30716 0,-1.62479 -0.27051,-0.1978 -4.67869,-0.23777 -26.2256,-0.23777 -23.85501,0 -25.92571,0.0229 -26.22051,0.28967 -0.39854,0.36067 -0.41297,1.06785 -0.0304,1.49057 0.27814,0.30735 1.32141,0.32008 26.22051,0.32008 21.57253,0 25.9855,-0.04 26.25601,-0.23776 z m 0.25652,-7.67416 c 0.24549,-0.43739 0.23793,-0.51044 -0.0997,-0.96265 l -0.36535,-0.48934 -25.92821,-0.0443 c -25.73888,-0.044 -25.93076,-0.0418 -26.27883,0.30629 -0.42635,0.42635 -0.45058,1.00024 -0.0605,1.43133 0.27918,0.3085 1.27891,0.31897 26.37852,0.27633 l 26.08835,-0.0443 z m -34.43993,-5.67976 c 0.30008,-0.27156 0.32007,-0.73389 0.32007,-7.39967 0,-6.15185 -0.0367,-7.16244 -0.27246,-7.49901 l -0.27246,-0.389 h -8.9464 c -8.0791,0 -8.97743,0.0281 -9.26648,0.28967 -0.30032,0.27179 -0.32008,0.73948 -0.32008,7.57864 0,5.43584 0.0534,7.34238 0.21004,7.49901 0.15791,0.15792 2.44536,0.21003 9.21886,0.21003 8.13719,0 9.0398,-0.028 9.32891,-0.28967 z m 33.8862,-2.25814 c 0.46195,-0.32356 0.5222,-1.14456 0.11396,-1.55281 -0.24556,-0.24556 -1.81111,-0.27504 -14.60478,-0.27504 h -14.32974 l -0.27247,0.389 c -0.36671,0.52355 -0.34293,0.94074 0.0776,1.36126 0.34428,0.34428 0.58342,0.35006 14.48825,0.35006 12.5129,0 14.18292,-0.0313 14.52719,-0.27247 z m 0.14061,-8.55606 c 0.36939,-0.50525 0.30981,-1.26014 -0.12341,-1.56357 -0.32449,-0.22729 -2.17848,-0.24826 -14.57095,-0.16484 -15.51859,0.10446 -14.98677,0.0655 -14.98677,1.09704 0,1.13198 -0.92248,1.06936 14.99438,1.01784 14.06207,-0.0455 14.44483,-0.0556 14.68675,-0.38647 z m -0.0717,-8.26368 c 0.39854,-0.36067 0.41296,-1.06785 0.0304,-1.49057 -0.27814,-0.30734 -1.32207,-0.32008 -26.24146,-0.32008 -28.58035,0 -26.50188,-0.0824 -26.50188,1.05016 0,1.13249 -2.07534,1.05016 26.47147,1.05016 23.8745,0 25.94666,-0.0229 26.24146,-0.28967 z m -0.10719,-5.73451 c 0.32529,-0.23775 0.34185,-0.5532 0.38908,-7.41236 0.0473,-6.87349 0.0355,-7.18108 -0.29083,-7.58412 l -0.34016,-0.42008 h -13.29058 c -11.00757,0 -13.34029,0.0413 -13.58001,0.24022 -0.26074,0.21639 -0.28944,0.96136 -0.28944,7.51235 0,6.52119 0.0299,7.30519 0.28967,7.59222 0.27576,0.30471 0.92529,0.32008 13.53109,0.32008 11.15662,0 13.29492,-0.0391 13.58118,-0.24831 z m -32.05174,-2.40365 c 0.8108,-0.36942 0.80778,-1.59602 -0.005,-1.90492 -0.26606,-0.10116 -4.3877,-0.16884 -10.28271,-0.16884 -11.06208,0 -10.6862,-0.0424 -10.58247,1.19404 0.0396,0.47261 0.16559,0.69219 0.4909,0.85592 0.60248,0.30323 19.7167,0.32555 20.37898,0.0238 z m 0.10448,-8.6421 c 0.45184,-0.40891 0.43778,-1.03973 -0.0337,-1.51119 l -0.37836,-0.37836 -9.71565,0.11584 c -8.69187,0.10363 -9.74936,0.14636 -10.0357,0.40549 -0.40478,0.36632 -0.41117,1.06839 -0.0138,1.51372 0.29917,0.33524 0.53356,0.34118 10.06939,0.25483 9.04701,-0.0819 9.78837,-0.11128 10.10777,-0.40033 z m 31.84945,-8.3089 c 0.43973,-0.43974 0.44467,-0.89453 0.0155,-1.42458 l -0.33459,-0.4132 h -25.901 c -25.22477,0 -25.91062,0.009 -26.26943,0.33342 -0.46423,0.42013 -0.47193,1.0508 -0.0184,1.50436 0.3469,0.3469 0.58342,0.35005 26.25397,0.35005 25.67054,0 25.90706,-0.003 26.25396,-0.35005 z m -0.22502,-6.17593 c 0.27727,-0.27729 0.31253,-0.67418 0.31253,-3.51739 0,-2.45908 -0.0559,-3.27219 -0.24021,-3.49428 -0.22148,-0.26686 -2.27117,-0.28944 -26.27629,-0.28944 -21.91423,0 -26.06779,0.0382 -26.23639,0.24136 -0.13899,0.16747 -0.18574,1.27781 -0.1527,3.62679 l 0.0476,3.38542 0.43756,0.22217 c 0.34884,0.17712 5.64467,0.21362 26.11647,0.18004 24.38648,-0.04 25.69462,-0.0579 25.99142,-0.35467 z"
       style="opacity:1;fill:#b8e69a;fill-opacity:1;stroke:none;stroke-width:2;stroke-linecap:round;stroke-linejoin:round;stroke-miterlimit:8.36363602;stroke-dasharray:none;stroke-opacity:1" /><line
       style="fill:none;stroke:#424143;stroke-width:2;stroke-linecap:round;stroke-linejoin:round;stroke-miterlimit:8.36363602;stroke-dasharray:none"
       id="line1143"
       stroke-miterlimit="10"
       x1="438.97034"
       y1="-335.75412"
       x2="489.98413"
       y2="-335.75412" /><line
       style="fill:none;stroke:#424143;stroke-width:2;stroke-linecap:round;stroke-linejoin:round;stroke-miterlimit:8.36363602;stroke-dasharray:none"
       id="line1145"
       stroke-miterlimit="10"
       x1="439.43817"
       y1="-327.30139"
       x2="458.16385"
       y2="-327.43805" /><path
       sodipodi:nodetypes="ccscscccscsccc"
       d="m 497.46565,-306.37234 v 29.75832 1.74313 c 0,2.66563 -1.59242,3.55665 -3.40428,3.55334 -1.13863,-0.002 -56.95784,0 -58.53618,0 -2.63996,0 -4.14626,-1.56095 -4.14543,-3.70902 8.3e-4,-1.60567 0,-38.12912 0,-38.12912 0,0 8.3e-4,-36.52346 0,-38.12913 -8.3e-4,-2.14807 1.50547,-3.70903 4.14543,-3.70903 1.57834,0 57.39755,0.002 58.53618,0 1.81186,-0.003 3.40428,0.88772 3.40428,3.55335 v 1.74313 29.75832 z"
       stroke-miterlimit="10"
       id="path1181"
       inkscape:connector-curvature="0"
       style="fill:none;stroke:#424143;stroke-width:2.5;stroke-linejoin:round;stroke-miterlimit:10;stroke-dasharray:none" /><line
       y2="-318.98538"
       x2="458.34448"
       y1="-318.98538"
       x1="438.88199"
       stroke-miterlimit="10"
       id="line1187"
       style="fill:none;stroke:#424143;stroke-width:2;stroke-linecap:round;stroke-linejoin:round;stroke-miterlimit:8.36363602;stroke-dasharray:none" /><line
       y2="-310.66937"
       x2="490.22977"
       y1="-310.66937"
       x1="439.21597"
       stroke-miterlimit="10"
       id="line1189"
       style="fill:none;stroke:#424143;stroke-width:2;stroke-linecap:round;stroke-linejoin:round;stroke-miterlimit:8.36363602;stroke-dasharray:none" /><rect
       y="-329.97177"
       x="464.4454"
       height="13.516224"
       width="25.682632"
       id="rect1195"
       style="opacity:1;fill:none;fill-opacity:1;stroke:#424143;stroke-width:1.99999988;stroke-linecap:round;stroke-linejoin:round;stroke-miterlimit:8.36363602;stroke-dasharray:none;stroke-opacity:1" /><rect
       style="opacity:1;fill:none;fill-opacity:1;stroke:#424143;stroke-width:2;stroke-linecap:round;stroke-linejoin:round;stroke-miterlimit:8.36363602;stroke-dasharray:none;stroke-opacity:1"
       id="rect1197"
       width="50.87516"
       height="5.5340939"
       x="438.88351"
       y="-347.46365" /><rect
       style="opacity:1;fill:none;fill-opacity:1;stroke:#424143;stroke-width:2;stroke-linecap:round;stroke-linejoin:round;stroke-miterlimit:8.36363602;stroke-dasharray:none;stroke-opacity:1"
       id="rect1199"
       width="16.996084"
       height="13.516223"
       x="439.24084"
       y="-305.04742" /><line
       y2="-302.35336"
       x2="490.22977"
       y1="-302.21667"
       x1="462.3598"
       stroke-miterlimit="10"
       id="line1203"
       style="fill:none;stroke:#424143;stroke-width:2;stroke-linecap:round;stroke-linejoin:round;stroke-miterlimit:8.36363602;stroke-dasharray:none" /><line
       style="fill:none;stroke:#424143;stroke-width:2;stroke-linecap:round;stroke-linejoin:round;stroke-miterlimit:8.36363602;stroke-dasharray:none"
       id="line1205"
       stroke-miterlimit="10"
       x1="462.60318"
       y1="-293.90063"
       x2="490.22977"
       y2="-293.90063" /><line
       style="fill:none;stroke:#424143;stroke-width:2;stroke-linecap:round;stroke-linejoin:round;stroke-miterlimit:8.36363602;stroke-dasharray:none"
       id="line1207"
       stroke-miterlimit="10"
       x1="439.46164"
       y1="-285.58469"
       x2="490.4754"
       y2="-285.58469" /><line
       y2="-278.28976"
       x2="490.4754"
       y1="-278.28976"
       x1="439.46164"
       stroke-miterlimit="10"
       id="line1209"
       style="fill:none;stroke:#424143;stroke-width:2;stroke-linecap:round;stroke-linejoin:round;stroke-miterlimit:8.36363602;stroke-dasharray:none" /></g><path
     d="M 1049.2848,-347.50267"
     stroke-miterlimit="10"
     id="path1720"
     inkscape:connector-curvature="0"
     style="fill:none;stroke:#010101;stroke-width:2.76591682;stroke-linejoin:round;stroke-miterlimit:10" /></svg>