<?xml version="1.0" encoding="UTF-8" standalone="no"?>
<!-- Generator: Adobe Illustrator 14.0.0, SVG Export Plug-In . SVG Version: 6.00 Build 43363)  -->

<svg
   xmlns:dc="http://purl.org/dc/elements/1.1/"
   xmlns:cc="http://creativecommons.org/ns#"
   xmlns:rdf="http://www.w3.org/1999/02/22-rdf-syntax-ns#"
   xmlns:svg="http://www.w3.org/2000/svg"
   xmlns="http://www.w3.org/2000/svg"
   xmlns:sodipodi="http://sodipodi.sourceforge.net/DTD/sodipodi-0.dtd"
   xmlns:inkscape="http://www.inkscape.org/namespaces/inkscape"
   version="1.1"
   id="Layer_1"
   inkscape:version="0.92.2 (5c3e80d, 2017-08-06)"
   sodipodi:docname="newsletter_june_2019.svg"
   x="0px"
   y="0px"
   width="100"
   height="100"
   viewBox="416.572 -360.945 100 100"
   enable-background="new 416.572 -360.945 595.275 841.89"
   xml:space="preserve"
   inkscape:export-filename="C:\Users\holly.jones\Downloads\volcano_pixelhint_12th_jan-20180116T210822Z-001\volcano_pixelhint_12th_jan\volcano_pixelhint\img\hedges_icon_100_white.png"
   inkscape:export-xdpi="149.93106"
   inkscape:export-ydpi="149.93106"><metadata
     id="metadata326"><rdf:RDF><cc:Work
         rdf:about=""><dc:format>image/svg+xml</dc:format><dc:type
           rdf:resource="http://purl.org/dc/dcmitype/StillImage" /><dc:title /></cc:Work></rdf:RDF></metadata><defs
     id="defs324"><clipPath
       clipPathUnits="userSpaceOnUse"
       id="clipPath1282"><rect
         ry="9.0558882"
         y="-355.80136"
         x="430.07397"
         height="89.648712"
         width="90.322769"
         id="rect1284"
         style="opacity:1;fill:#b8e69a;fill-opacity:1;stroke:none;stroke-width:1.99999988;stroke-linecap:round;stroke-linejoin:round;stroke-miterlimit:8.36363602;stroke-dasharray:none;stroke-opacity:1" /></clipPath></defs><sodipodi:namedview
     id="namedview230"
     inkscape:pageshadow="2"
     inkscape:window-width="1680"
     inkscape:window-height="987"
     inkscape:window-x="-8"
     inkscape:window-y="-8"
     inkscape:current-layer="Layer_1"
     inkscape:pageopacity="0"
     gridtolerance="10"
     inkscape:zoom="2.8567114"
     inkscape:cy="45.63635"
     guidetolerance="10"
     bordercolor="#666666"
     showgrid="false"
     borderopacity="1"
     objecttolerance="10"
     inkscape:cx="92.059483"
     pagecolor="#ffffff"
     inkscape:window-maximized="1"
     inkscape:snap-nodes="false" /><g
     transform="translate(-617.5506,87.727009)"
     id="g1437"><path
       sodipodi:nodetypes="cscccccsc"
       d="m 1115.9105,-438.29946 c 1.8119,-0.003 3.4043,0.88772 3.4043,3.55334 v 1.74314 29.75832 13.56671 c 0,10.50048 0,21.00097 0,31.50145 0,2.66563 -1.5924,3.55665 -3.4043,3.55334 -1.1386,-0.002 -56.9578,0 -58.5361,0 -2.64,0 -4.1463,-1.56095 -4.1455,-3.70902"
       stroke-miterlimit="10"
       id="path1185"
       inkscape:connector-curvature="0"
       style="fill:#ffffff;fill-opacity:1;stroke:#424143;stroke-width:2.5;stroke-linejoin:round;stroke-miterlimit:10;stroke-dasharray:none" /><path
       sodipodi:nodetypes="ccscscccscsccc"
       d="m 1115.0162,-394.09935 v 29.75832 1.74313 c 0,2.66563 -1.5924,3.55665 -3.4042,3.55334 -1.1387,-0.002 -56.9579,0 -58.5362,0 -2.64,0 -4.1463,-1.56095 -4.1454,-3.70902 8e-4,-1.60567 0,-38.12912 0,-38.12912 0,0 8e-4,-36.52346 0,-38.12913 -9e-4,-2.14807 1.5054,-3.70903 4.1454,-3.70903 1.5783,0 57.3975,0.002 58.5362,0 1.8118,-0.003 3.4042,0.88772 3.4042,3.55335 v 1.74313 29.75832 z"
       stroke-miterlimit="10"
       id="path1221-7"
       inkscape:connector-curvature="0"
       style="fill:#ffffff;fill-opacity:1;stroke:#424143;stroke-width:2.5;stroke-linejoin:round;stroke-miterlimit:10;stroke-dasharray:none" /><path
       d="M 1098.8088,-356.16287"
       stroke-miterlimit="10"
       id="path1135"
       inkscape:connector-curvature="0"
       style="fill:none;stroke:#010101;stroke-width:2.76591682;stroke-linejoin:round;stroke-miterlimit:10" /><path
       style="opacity:1;fill:#b8e69a;fill-opacity:1;stroke:none;stroke-width:2;stroke-linecap:round;stroke-linejoin:round;stroke-miterlimit:8.36363602;stroke-dasharray:none;stroke-opacity:1"
       d="m 1049.8136,-359.31092 c -0.3301,-0.16831 -0.7633,-0.5284 -0.9626,-0.80018 l -0.3625,-0.49416 v -38.89449 c 0,-36.82691 0.016,-38.91947 0.3079,-39.36447 0.1694,-0.25849 0.5632,-0.60945 0.8751,-0.77992 0.5356,-0.29263 2.2408,-0.31252 30.5403,-0.35614 33.2383,-0.0512 30.9601,-0.13002 31.469,1.08809 0.2249,0.53815 0.252,5.60601 0.2125,39.69354 -0.049,42.36531 0.018,39.57989 -0.963,40.02682 -0.2874,0.13096 -9.4701,0.18739 -30.464,0.18721 -28.2655,-1.8e-4 -30.0882,-0.0185 -30.6527,-0.3063 z m 56.7939,-42.64819 c 0.3253,-0.23775 0.3419,-0.5532 0.3891,-7.41236 0.047,-6.87349 0.036,-7.18108 -0.2908,-7.58412 l -0.3402,-0.42008 h -13.2906 c -11.0075,0 -13.3403,0.0413 -13.58,0.24022 -0.2607,0.21639 -0.2894,0.96136 -0.2894,7.51235 0,6.52119 0.03,7.30519 0.2896,7.59222 0.2758,0.30471 0.9253,0.32008 13.5311,0.32008 11.1567,0 13.295,-0.0391 13.5812,-0.24831 z m -32.0517,-2.40365 c 0.8108,-0.36942 0.8078,-1.59602 -0.01,-1.90492 -0.2661,-0.10116 -4.3877,-0.16884 -10.2827,-0.16884 -11.0621,0 -10.6862,-0.0424 -10.5825,1.19404 0.04,0.47261 0.1656,0.69219 0.4909,0.85592 0.6025,0.30323 19.7167,0.32555 20.379,0.0238 z m 0.1045,-8.6421 c 0.4518,-0.40891 0.4377,-1.03973 -0.034,-1.51119 l -0.3784,-0.37836 -9.7157,0.11584 c -8.6918,0.10363 -9.7493,0.14636 -10.0357,0.40549 -0.4047,0.36632 -0.4111,1.06839 -0.014,1.51372 0.2992,0.33524 0.5336,0.34118 10.0694,0.25483 9.047,-0.0819 9.7884,-0.11128 10.1078,-0.40033 z m 31.8494,-8.3089 c 0.4397,-0.43974 0.4447,-0.89453 0.015,-1.42458 l -0.3346,-0.4132 h -25.901 c -25.2248,0 -25.9106,0.009 -26.2694,0.33342 -0.4642,0.42013 -0.4719,1.0508 -0.018,1.50436 0.3469,0.3469 0.5834,0.35005 26.254,0.35005 25.6705,0 25.907,-0.003 26.2539,-0.35005 z m -0.225,-6.17593 c 0.2773,-0.27729 0.3125,-0.67418 0.3125,-3.51739 0,-2.45908 -0.056,-3.27219 -0.2402,-3.49428 -0.2215,-0.26686 -2.2712,-0.28944 -26.2763,-0.28944 -21.9142,0 -26.0678,0.0382 -26.2364,0.24136 -0.139,0.16747 -0.1857,1.27781 -0.1527,3.62679 l 0.048,3.38542 0.4376,0.22217 c 0.3488,0.17712 5.6447,0.21362 26.1165,0.18004 24.3864,-0.04 25.6946,-0.0579 25.9914,-0.35467 z"
       id="path1223-3"
       inkscape:connector-curvature="0"
       sodipodi:nodetypes="cccsccscscccccccscscscccscccccccsccccccccsccscccscsccccscc" /><line
       y2="-423.48111"
       x2="1107.5347"
       y1="-423.48111"
       x1="1056.5209"
       stroke-miterlimit="10"
       id="line1143"
       style="fill:none;stroke:#424143;stroke-width:2;stroke-linecap:round;stroke-linejoin:round;stroke-miterlimit:8.36363602;stroke-dasharray:none" /><line
       y2="-415.16504"
       x2="1075.7144"
       y1="-415.02838"
       x1="1056.9886"
       stroke-miterlimit="10"
       id="line1145"
       style="fill:none;stroke:#424143;stroke-width:2;stroke-linecap:round;stroke-linejoin:round;stroke-miterlimit:8.36363602;stroke-dasharray:none" /><path
       style="fill:none;stroke:#424143;stroke-width:2.5;stroke-linejoin:round;stroke-miterlimit:10;stroke-dasharray:none"
       inkscape:connector-curvature="0"
       id="path1181"
       stroke-miterlimit="10"
       d="m 1115.0162,-394.09935 v 29.75832 1.74313 c 0,2.66563 -1.5924,3.55665 -3.4042,3.55334 -1.1387,-0.002 -56.9579,0 -58.5362,0 -2.64,0 -4.1463,-1.56095 -4.1454,-3.70902 8e-4,-1.60567 0,-38.12912 0,-38.12912 0,0 8e-4,-36.52346 0,-38.12913 -9e-4,-2.14807 1.5054,-3.70903 4.1454,-3.70903 1.5783,0 57.3975,0.002 58.5362,0 1.8118,-0.003 3.4042,0.88772 3.4042,3.55335 v 1.74313 29.75832 z"
       sodipodi:nodetypes="ccscscccscsccc" /><line
       style="fill:none;stroke:#424143;stroke-width:2;stroke-linecap:round;stroke-linejoin:round;stroke-miterlimit:8.36363602;stroke-dasharray:none"
       id="line1187"
       stroke-miterlimit="10"
       x1="1056.4325"
       y1="-406.71237"
       x2="1075.895"
       y2="-406.71237" /><rect
       style="opacity:1;fill:none;fill-opacity:1;stroke:#424143;stroke-width:1.99999988;stroke-linecap:round;stroke-linejoin:round;stroke-miterlimit:8.36363602;stroke-dasharray:none;stroke-opacity:1"
       id="rect1195"
       width="25.682632"
       height="13.516224"
       x="1081.996"
       y="-417.69876" /><rect
       y="-435.19064"
       x="1056.4341"
       height="5.5340939"
       width="50.87516"
       id="rect1197"
       style="opacity:1;fill:none;fill-opacity:1;stroke:#424143;stroke-width:2;stroke-linecap:round;stroke-linejoin:round;stroke-miterlimit:8.36363602;stroke-dasharray:none;stroke-opacity:1" /></g><g
     aria-label="June"
     style="font-size:20.02172661px;font-family:CenturyGothic;fill:#424143;stroke-width:1"
     id="text1439"><path
       d="m 442.55766,-311.6952 h 1.44688 v 9.7078 q 0,2.23876 -0.35194,3.11862 -0.34217,0.87008 -1.1536,1.398 -0.81142,0.51814 -1.96502,0.51814 -0.87008,0 -1.72062,-0.34217 -0.84075,-0.33239 -1.86726,-1.18292 l 0.76255,-1.14382 q 1.12427,0.79187 1.86726,1.11449 0.48881,0.21508 0.95807,0.21508 0.6159,0 1.11449,-0.3715 0.50837,-0.3715 0.70389,-0.9874 0.2053,-0.6159 0.2053,-2.3854 z"
       style="font-size:20.02172661px;font-family:CenturyGothic;fill:#424143;stroke-width:1"
       id="path1478" /><path
       d="m 447.11339,-307.9509 h 1.37845 v 4.96632 q 0,1.81838 0.19552,2.50272 0.29329,0.97762 1.11449,1.54464 0.83098,0.56703 1.9748,0.56703 1.14382,0 1.93569,-0.54747 0.80166,-0.55725 1.10472,-1.45666 0.2053,-0.61591 0.2053,-2.61026 v -4.96632 h 1.398 v 5.2205 q 0,2.19966 -0.51814,3.31415 -0.50836,1.11449 -1.54464,1.74994 -1.02651,0.62568 -2.58093,0.62568 -1.55442,0 -2.60048,-0.62568 -1.03628,-0.63545 -1.55442,-1.75972 -0.50836,-1.13404 -0.50836,-3.40213 z"
       style="font-size:20.02172661px;font-family:CenturyGothic;fill:#424143;stroke-width:1"
       id="path1480" /><path
       d="m 459.45099,-307.9509 h 1.36867 v 1.90636 q 0.82121,-1.09494 1.81838,-1.63263 0.99718,-0.54747 2.17033,-0.54747 1.1927,0 2.11166,0.60613 0.92875,0.60612 1.36868,1.63263 0.43993,1.0265 0.43993,3.19683 v 5.47469 h -1.3589 v -5.07387 q 0,-1.83793 -0.15642,-2.45383 -0.2444,-1.05583 -0.91896,-1.58375 -0.67456,-0.53769 -1.75973,-0.53769 -1.24158,0 -2.22898,0.8212 -0.97762,0.8212 -1.29046,2.03346 -0.19553,0.79187 -0.19553,2.89376 v 3.90072 h -1.36867 z"
       style="font-size:20.02172661px;font-family:CenturyGothic;fill:#424143;stroke-width:1"
       id="path1482" /><path
       d="m 480.60676,-300.84358 1.1536,0.60612 q -0.56702,1.1145 -1.31002,1.79883 -0.74299,0.68434 -1.67173,1.04606 -0.92875,0.35194 -2.10189,0.35194 -2.60048,0 -4.06692,-1.70106 -1.46643,-1.71084 -1.46643,-3.86161 0,-2.02368 1.24158,-3.60743 1.57397,-2.01391 4.21356,-2.01391 2.71779,0 4.34064,2.06279 1.1536,1.45666 1.17315,3.63676 h -9.56115 q 0.0391,1.85748 1.18292,3.05018 1.14382,1.18293 2.82533,1.18293 0.81143,0 1.57398,-0.28352 0.77232,-0.28351 1.31001,-0.75277 0.53769,-0.46925 1.16337,-1.51531 z m 0,-2.86444 q -0.27373,-1.09494 -0.80165,-1.74994 -0.51814,-0.65501 -1.37845,-1.05584 -0.86031,-0.40082 -1.8086,-0.40082 -1.5642,0 -2.68846,1.00695 -0.82121,0.73322 -1.24159,2.19965 z"
       style="font-size:20.02172661px;font-family:CenturyGothic;fill:#424143;stroke-width:1"
       id="path1484" /></g><g
     aria-label="2019"
     style="font-size:20.02172661px;font-family:CenturyGothic;fill:#424143;stroke-width:1"
     id="text1441"><path
       d="m 438.42231,-287.18836 h -1.37844 q 0.0587,-2.13122 1.41755,-3.49989 1.36867,-1.36867 3.3728,-1.36867 1.98458,0 3.2066,1.28068 1.23181,1.28069 1.23181,3.02086 0,1.22203 -0.58657,2.29742 -0.58658,1.06561 -2.27787,2.89376 l -3.5781,3.86161 h 6.63806 v 1.38823 h -9.76645 l 5.49424,-5.93418 q 1.67174,-1.78905 2.17032,-2.64935 0.50837,-0.87009 0.50837,-1.82816 0,-1.21225 -0.90919,-2.08234 -0.89941,-0.87986 -2.20943,-0.87986 -1.37845,0 -2.29742,0.91897 -0.90918,0.91896 -1.03628,2.58092 z"
       style="font-size:20.02172661px;font-family:CenturyGothic;fill:#424143;stroke-width:1"
       id="path1487" /><path
       d="m 447.8466,-284.49989 q 0,-2.84489 0.60613,-4.39931 0.6159,-1.55442 1.73039,-2.35607 1.11449,-0.80165 2.49294,-0.80165 1.398,0 2.53205,0.81143 1.13404,0.80165 1.78905,2.41473 0.66478,1.61307 0.66478,4.33087 0,2.70801 -0.65501,4.31132 -0.64523,1.6033 -1.78905,2.4245 -1.14382,0.81143 -2.54182,0.81143 -1.37845,0 -2.48316,-0.79188 -1.10471,-0.79187 -1.73039,-2.35607 -0.61591,-1.57397 -0.61591,-4.3993 z m 1.3589,0.0293 q 0,2.43428 0.43015,3.68564 0.43993,1.24158 1.29047,1.88681 0.85053,0.64523 1.79882,0.64523 0.95807,0 1.78905,-0.62568 0.83098,-0.63545 1.26114,-1.89659 0.53769,-1.53487 0.53769,-3.69541 0,-2.17033 -0.47903,-3.54878 -0.47904,-1.38822 -1.32957,-2.02368 -0.84076,-0.64523 -1.77928,-0.64523 -0.95807,0 -1.79882,0.64523 -0.84076,0.63546 -1.28069,1.88682 -0.43993,1.24158 -0.43993,3.68564 z"
       style="font-size:20.02172661px;font-family:CenturyGothic;fill:#424143;stroke-width:1"
       id="path1489" /><path
       d="m 462.02214,-291.6952 h 2.82533 v 14.38084 h -1.42733 v -12.97306 h -2.25831 z"
       style="font-size:20.02172661px;font-family:CenturyGothic;fill:#424143;stroke-width:1"
       id="path1491" /><path
       d="m 473.26481,-276.95264 -1.18292,-0.76255 3.88116,-5.88529 q -0.7821,0.25418 -1.46643,0.25418 -1.71084,0 -2.90354,-1.2318 -1.1927,-1.24158 -1.1927,-3.05019 0,-1.24158 0.57679,-2.23876 0.5768,-0.99717 1.63263,-1.59352 1.06561,-0.59635 2.27787,-0.59635 1.1927,0 2.19965,0.5768 1.01673,0.57679 1.59353,1.61307 0.57679,1.03629 0.57679,2.20943 0,0.88964 -0.36172,1.86726 -0.35194,0.96785 -1.27091,2.33652 z m 1.5642,-7.65479 q 1.26113,0 2.14099,-0.87986 0.88964,-0.88964 0.88964,-2.141 0,-1.25136 -0.88964,-2.13122 -0.87986,-0.88963 -2.14099,-0.88963 -1.25136,0 -2.141,0.88963 -0.87986,0.87986 -0.87986,2.13122 0,1.25136 0.87986,2.141 0.88964,0.87986 2.141,0.87986 z"
       style="font-size:20.02172661px;font-family:CenturyGothic;fill:#424143;stroke-width:1"
       id="path1493" /></g><text
     xml:space="preserve"
     style="font-style:normal;font-weight:normal;font-size:40px;line-height:125%;font-family:Sans;letter-spacing:0px;word-spacing:0px;fill:#000000;fill-opacity:1;stroke:none;stroke-width:1px;stroke-linecap:butt;stroke-linejoin:miter;stroke-opacity:1"
     x="566.7934"
     y="-274.51813"
     id="text5063"><tspan
       sodipodi:role="line"
       id="tspan5061"
       x="566.7934"
       y="-239.1275" /></text>
</svg>