<?xml version="1.0" encoding="UTF-8" standalone="no"?>
<!-- Generator: Adobe Illustrator 14.0.0, SVG Export Plug-In . SVG Version: 6.00 Build 43363)  -->

<svg
   xmlns:dc="http://purl.org/dc/elements/1.1/"
   xmlns:cc="http://creativecommons.org/ns#"
   xmlns:rdf="http://www.w3.org/1999/02/22-rdf-syntax-ns#"
   xmlns:svg="http://www.w3.org/2000/svg"
   xmlns="http://www.w3.org/2000/svg"
   xmlns:sodipodi="http://sodipodi.sourceforge.net/DTD/sodipodi-0.dtd"
   xmlns:inkscape="http://www.inkscape.org/namespaces/inkscape"
   version="1.1"
   id="Layer_1"
   inkscape:version="0.92.2 (5c3e80d, 2017-08-06)"
   sodipodi:docname="newsletter_sep_2019.svg"
   x="0px"
   y="0px"
   width="100"
   height="100"
   viewBox="416.572 -360.945 100 100"
   enable-background="new 416.572 -360.945 595.275 841.89"
   xml:space="preserve"
   inkscape:export-filename="C:\Users\holly.jones\Downloads\volcano_pixelhint_12th_jan-20180116T210822Z-001\volcano_pixelhint_12th_jan\volcano_pixelhint\img\hedges_icon_100_white.png"
   inkscape:export-xdpi="149.93106"
   inkscape:export-ydpi="149.93106"><metadata
     id="metadata326"><rdf:RDF><cc:Work
         rdf:about=""><dc:format>image/svg+xml</dc:format><dc:type
           rdf:resource="http://purl.org/dc/dcmitype/StillImage" /><dc:title /></cc:Work></rdf:RDF></metadata><defs
     id="defs324"><clipPath
       clipPathUnits="userSpaceOnUse"
       id="clipPath1282"><rect
         ry="9.0558882"
         y="-355.80136"
         x="430.07397"
         height="89.648712"
         width="90.322769"
         id="rect1284"
         style="opacity:1;fill:#b8e69a;fill-opacity:1;stroke:none;stroke-width:1.99999988;stroke-linecap:round;stroke-linejoin:round;stroke-miterlimit:8.36363602;stroke-dasharray:none;stroke-opacity:1" /></clipPath></defs><sodipodi:namedview
     id="namedview230"
     inkscape:pageshadow="2"
     inkscape:window-width="1680"
     inkscape:window-height="987"
     inkscape:window-x="-8"
     inkscape:window-y="-8"
     inkscape:current-layer="Layer_1"
     inkscape:pageopacity="0"
     gridtolerance="10"
     inkscape:zoom="1.4283557"
     inkscape:cy="29.286683"
     guidetolerance="10"
     bordercolor="#666666"
     showgrid="false"
     borderopacity="1"
     objecttolerance="10"
     inkscape:cx="51.504176"
     pagecolor="#ffffff"
     inkscape:window-maximized="1"
     inkscape:snap-nodes="false" /><g
     id="g1536"><g
       transform="translate(-617.14295,85.219081)"
       id="g1456"><g
         transform="translate(-0.40764981,2.5079282)"
         id="g1437"><path
           sodipodi:nodetypes="cscccccsc"
           d="m 1115.9105,-438.29946 c 1.8119,-0.003 3.4043,0.88772 3.4043,3.55334 v 1.74314 29.75832 13.56671 c 0,10.50048 0,21.00097 0,31.50145 0,2.66563 -1.5924,3.55665 -3.4043,3.55334 -1.1386,-0.002 -56.9578,0 -58.5361,0 -2.64,0 -4.1463,-1.56095 -4.1455,-3.70902"
           stroke-miterlimit="10"
           id="path1185"
           inkscape:connector-curvature="0"
           style="fill:#ffffff;fill-opacity:1;stroke:#424143;stroke-width:2.5;stroke-linejoin:round;stroke-miterlimit:10;stroke-dasharray:none" /><path
           sodipodi:nodetypes="ccscscccscsccc"
           d="m 1115.0162,-394.09935 v 29.75832 1.74313 c 0,2.66563 -1.5924,3.55665 -3.4042,3.55334 -1.1387,-0.002 -56.9579,0 -58.5362,0 -2.64,0 -4.1463,-1.56095 -4.1454,-3.70902 8e-4,-1.60567 0,-38.12912 0,-38.12912 0,0 8e-4,-36.52346 0,-38.12913 -9e-4,-2.14807 1.5054,-3.70903 4.1454,-3.70903 1.5783,0 57.3975,0.002 58.5362,0 1.8118,-0.003 3.4042,0.88772 3.4042,3.55335 v 1.74313 29.75832 z"
           stroke-miterlimit="10"
           id="path1221-7"
           inkscape:connector-curvature="0"
           style="fill:#ffffff;fill-opacity:1;stroke:#424143;stroke-width:2.5;stroke-linejoin:round;stroke-miterlimit:10;stroke-dasharray:none" /><path
           d="M 1098.8088,-356.16287"
           stroke-miterlimit="10"
           id="path1135"
           inkscape:connector-curvature="0"
           style="fill:none;stroke:#010101;stroke-width:2.76591682;stroke-linejoin:round;stroke-miterlimit:10" /><path
           style="opacity:1;fill:#b8e69a;fill-opacity:1;stroke:none;stroke-width:2;stroke-linecap:round;stroke-linejoin:round;stroke-miterlimit:8.36363602;stroke-dasharray:none;stroke-opacity:1"
           d="m 1049.8136,-359.31092 c -0.3301,-0.16831 -0.7633,-0.5284 -0.9626,-0.80018 l -0.3625,-0.49416 v -38.89449 c 0,-36.82691 0.016,-38.91947 0.3079,-39.36447 0.1694,-0.25849 0.5632,-0.60945 0.8751,-0.77992 0.5356,-0.29263 2.2408,-0.31252 30.5403,-0.35614 33.2383,-0.0512 30.9601,-0.13002 31.469,1.08809 0.2249,0.53815 0.252,5.60601 0.2125,39.69354 -0.049,42.36531 0.018,39.57989 -0.963,40.02682 -0.2874,0.13096 -9.4701,0.18739 -30.464,0.18721 -28.2655,-1.8e-4 -30.0882,-0.0185 -30.6527,-0.3063 z m 56.7939,-42.64819 c 0.3253,-0.23775 0.3419,-0.5532 0.3891,-7.41236 0.047,-6.87349 0.036,-7.18108 -0.2908,-7.58412 l -0.3402,-0.42008 h -13.2906 c -11.0075,0 -13.3403,0.0413 -13.58,0.24022 -0.2607,0.21639 -0.2894,0.96136 -0.2894,7.51235 0,6.52119 0.03,7.30519 0.2896,7.59222 0.2758,0.30471 0.9253,0.32008 13.5311,0.32008 11.1567,0 13.295,-0.0391 13.5812,-0.24831 z m -32.0517,-2.40365 c 0.8108,-0.36942 0.8078,-1.59602 -0.01,-1.90492 -0.2661,-0.10116 -4.3877,-0.16884 -10.2827,-0.16884 -11.0621,0 -10.6862,-0.0424 -10.5825,1.19404 0.04,0.47261 0.1656,0.69219 0.4909,0.85592 0.6025,0.30323 19.7167,0.32555 20.379,0.0238 z m 0.1045,-8.6421 c 0.4518,-0.40891 0.4377,-1.03973 -0.034,-1.51119 l -0.3784,-0.37836 -9.7157,0.11584 c -8.6918,0.10363 -9.7493,0.14636 -10.0357,0.40549 -0.4047,0.36632 -0.4111,1.06839 -0.014,1.51372 0.2992,0.33524 0.5336,0.34118 10.0694,0.25483 9.047,-0.0819 9.7884,-0.11128 10.1078,-0.40033 z m 31.8494,-8.3089 c 0.4397,-0.43974 0.4447,-0.89453 0.015,-1.42458 l -0.3346,-0.4132 h -25.901 c -25.2248,0 -25.9106,0.009 -26.2694,0.33342 -0.4642,0.42013 -0.4719,1.0508 -0.018,1.50436 0.3469,0.3469 0.5834,0.35005 26.254,0.35005 25.6705,0 25.907,-0.003 26.2539,-0.35005 z m -0.225,-6.17593 c 0.2773,-0.27729 0.3125,-0.67418 0.3125,-3.51739 0,-2.45908 -0.056,-3.27219 -0.2402,-3.49428 -0.2215,-0.26686 -2.2712,-0.28944 -26.2763,-0.28944 -21.9142,0 -26.0678,0.0382 -26.2364,0.24136 -0.139,0.16747 -0.1857,1.27781 -0.1527,3.62679 l 0.048,3.38542 0.4376,0.22217 c 0.3488,0.17712 5.6447,0.21362 26.1165,0.18004 24.3864,-0.04 25.6946,-0.0579 25.9914,-0.35467 z"
           id="path1223-3"
           inkscape:connector-curvature="0"
           sodipodi:nodetypes="cccsccscscccccccscscscccscccccccsccccccccsccscccscsccccscc" /><path
           style="fill:none;stroke:#424143;stroke-width:2;stroke-linecap:round;stroke-linejoin:round;stroke-miterlimit:8.36363602;stroke-dasharray:none"
           d="m 1056.5209,-423.48111 h 51.0138"
           id="line1143" /><path
           style="fill:none;stroke:#424143;stroke-width:2;stroke-linecap:round;stroke-linejoin:round;stroke-miterlimit:8.36363602;stroke-dasharray:none"
           d="m 1056.9886,-415.02838 18.7258,-0.13666"
           id="line1145" /><path
           style="fill:none;stroke:#424143;stroke-width:2.5;stroke-linejoin:round;stroke-miterlimit:10;stroke-dasharray:none"
           inkscape:connector-curvature="0"
           id="path1181"
           stroke-miterlimit="10"
           d="m 1115.0162,-394.09935 v 29.75832 1.74313 c 0,2.66563 -1.5924,3.55665 -3.4042,3.55334 -1.1387,-0.002 -56.9579,0 -58.5362,0 -2.64,0 -4.1463,-1.56095 -4.1454,-3.70902 8e-4,-1.60567 0,-38.12912 0,-38.12912 0,0 8e-4,-36.52346 0,-38.12913 -9e-4,-2.14807 1.5054,-3.70903 4.1454,-3.70903 1.5783,0 57.3975,0.002 58.5362,0 1.8118,-0.003 3.4042,0.88772 3.4042,3.55335 v 1.74313 29.75832 z"
           sodipodi:nodetypes="ccscscccscsccc" /><path
           style="fill:none;stroke:#424143;stroke-width:2;stroke-linecap:round;stroke-linejoin:round;stroke-miterlimit:8.36363602;stroke-dasharray:none"
           d="m 1056.4325,-406.71237 h 19.4625"
           id="line1187" /><path
           style="opacity:1;fill:none;fill-opacity:1;stroke:#424143;stroke-width:1.99999988;stroke-linecap:round;stroke-linejoin:round;stroke-miterlimit:8.36363602;stroke-dasharray:none;stroke-opacity:1"
           d="m 1081.996,-417.69876 h 25.6826 v 13.51622 h -25.6826 z"
           id="rect1195" /><path
           style="opacity:1;fill:none;fill-opacity:1;stroke:#424143;stroke-width:2;stroke-linecap:round;stroke-linejoin:round;stroke-miterlimit:8.36363602;stroke-dasharray:none;stroke-opacity:1"
           d="m 1056.4341,-435.19064 h 50.8751 v 5.53409 h -50.8751 z"
           id="rect1197" /></g><g
         aria-label="Sep"
         style="font-size:20.02172661px;font-family:CenturyGothic;fill:#424143;stroke-width:1"
         id="text1439"><path
           d="m 1053.5122,-385.21214 1.2221,-0.73321 q 1.2904,2.37562 2.9817,2.37562 0.7235,0 1.3589,-0.33239 0.6355,-0.34217 0.9679,-0.90919 0.3324,-0.56702 0.3324,-1.20248 0,-0.72344 -0.4888,-1.41755 -0.6746,-0.95807 -2.4637,-2.30719 -1.7988,-1.3589 -2.2387,-1.96502 -0.7626,-1.01673 -0.7626,-2.19966 0,-0.93852 0.4497,-1.71084 0.4498,-0.77232 1.2612,-1.21225 0.8212,-0.44971 1.7793,-0.44971 1.0167,0 1.8965,0.50837 0.8897,0.49858 1.8771,1.8477 l -1.1732,0.88964 q -0.8114,-1.07538 -1.3882,-1.41755 -0.567,-0.34217 -1.2416,-0.34217 -0.8701,0 -1.4273,0.52792 -0.5475,0.52791 -0.5475,1.30024 0,0.46925 0.1956,0.90919 0.1955,0.43993 0.7136,0.95807 0.2835,0.27373 1.8575,1.4371 1.8673,1.37845 2.5614,2.45384 0.6941,1.07538 0.6941,2.16054 0,1.5642 -1.1927,2.7178 -1.1829,1.15359 -2.884,1.15359 -1.31,0 -2.3756,-0.69411 -1.0656,-0.70389 -1.9651,-2.3463 z"
           style="font-size:20.02172661px;font-family:CenturyGothic;fill:#424143;stroke-width:1"
           id="path1456" /><path
           d="m 1073.7002,-386.06267 1.1536,0.60613 q -0.5671,1.11449 -1.31,1.79883 -0.743,0.68433 -1.6718,1.04605 -0.9287,0.35195 -2.1019,0.35195 -2.6005,0 -4.0669,-1.70107 -1.4664,-1.71084 -1.4664,-3.86161 0,-2.02368 1.2416,-3.60743 1.5739,-2.0139 4.2135,-2.0139 2.7178,0 4.3407,2.06278 1.1536,1.45666 1.1731,3.63676 h -9.5611 q 0.039,1.85748 1.1829,3.05019 1.1438,1.18292 2.8253,1.18292 0.8114,0 1.574,-0.28351 0.7723,-0.28351 1.31,-0.75277 0.5377,-0.46926 1.1634,-1.51532 z m 0,-2.86443 q -0.2738,-1.09494 -0.8017,-1.74995 -0.5181,-0.65501 -1.3784,-1.05583 -0.8603,-0.40083 -1.8086,-0.40083 -1.5642,0 -2.6885,1.00695 -0.8212,0.73322 -1.2416,2.19966 z"
           style="font-size:20.02172661px;font-family:CenturyGothic;fill:#424143;stroke-width:1"
           id="path1458" /><path
           d="m 1077.7866,-393.16999 h 1.3589 v 1.95525 q 0.8115,-1.11449 1.8673,-1.67174 1.0558,-0.55724 2.3561,-0.55724 2.2681,0 3.8811,1.63263 1.6131,1.63263 1.6131,3.93004 0,2.3463 -1.6033,3.98871 -1.5935,1.63263 -3.8518,1.63263 -1.2709,0 -2.3365,-0.52792 -1.0657,-0.52792 -1.926,-1.57397 v 5.71909 h -1.3589 z m 5.4747,1.04606 q -1.7792,0 -3.0013,1.24158 -1.2122,1.24158 -1.2122,3.08929 0,1.21225 0.5377,2.1801 0.5474,0.96785 1.5544,1.53487 1.0167,0.56702 2.141,0.56702 1.1047,0 2.0725,-0.56702 0.9777,-0.5768 1.5545,-1.6033 0.5768,-1.02651 0.5768,-2.15078 0,-1.13404 -0.5768,-2.15077 -0.5671,-1.01673 -1.5349,-1.57397 -0.9679,-0.56702 -2.1117,-0.56702 z"
           style="font-size:20.02172661px;font-family:CenturyGothic;fill:#424143;stroke-width:1"
           id="path1460" /></g><g
         aria-label="2019"
         style="font-size:20.02172661px;font-family:CenturyGothic;fill:#424143;stroke-width:1"
         id="text1441"><path
           d="m 1055.5653,-372.40744 h -1.3785 q 0.059,-2.13122 1.4176,-3.49989 1.3686,-1.36868 3.3728,-1.36868 1.9845,0 3.2066,1.28069 1.2318,1.28069 1.2318,3.02086 0,1.22202 -0.5866,2.29741 -0.5866,1.06561 -2.2779,2.89377 l -3.5781,3.86161 h 6.6381 v 1.38822 h -9.7665 l 5.4943,-5.93417 q 1.6717,-1.78905 2.1703,-2.64936 0.5084,-0.87009 0.5084,-1.82816 0,-1.21225 -0.9092,-2.08233 -0.8994,-0.87986 -2.2094,-0.87986 -1.3785,0 -2.2975,0.91896 -0.9092,0.91897 -1.0362,2.58093 z"
           style="font-size:20.02172661px;font-family:CenturyGothic;fill:#424143;stroke-width:1"
           id="path1463" /><path
           d="m 1064.9895,-369.71898 q 0,-2.84488 0.6062,-4.3993 0.6159,-1.55443 1.7304,-2.35608 1.1145,-0.80165 2.4929,-0.80165 1.398,0 2.5321,0.81143 1.134,0.80165 1.789,2.41473 0.6648,1.61308 0.6648,4.33087 0,2.70802 -0.655,4.31132 -0.6453,1.6033 -1.7891,2.42451 -1.1438,0.81142 -2.5418,0.81142 -1.3784,0 -2.4832,-0.79187 -1.1047,-0.79188 -1.7303,-2.35607 -0.616,-1.57398 -0.616,-4.39931 z m 1.3589,0.0293 q 0,2.43428 0.4302,3.68564 0.4399,1.24158 1.2905,1.88681 0.8505,0.64523 1.7988,0.64523 0.9581,0 1.789,-0.62567 0.831,-0.63546 1.2612,-1.89659 0.5377,-1.53487 0.5377,-3.69542 0,-2.17032 -0.4791,-3.54877 -0.479,-1.38823 -1.3295,-2.02368 -0.8408,-0.64523 -1.7793,-0.64523 -0.9581,0 -1.7988,0.64523 -0.8408,0.63545 -1.2807,1.88681 -0.44,1.24158 -0.44,3.68564 z"
           style="font-size:20.02172661px;font-family:CenturyGothic;fill:#424143;stroke-width:1"
           id="path1465" /><path
           d="m 1079.1651,-376.91429 h 2.8253 v 14.38084 h -1.4273 v -12.97306 h -2.2583 z"
           style="font-size:20.02172661px;font-family:CenturyGothic;fill:#424143;stroke-width:1"
           id="path1467" /><path
           d="m 1090.4078,-362.17173 -1.183,-0.76254 3.8812,-5.8853 q -0.7821,0.25419 -1.4664,0.25419 -1.7109,0 -2.9036,-1.23181 -1.1927,-1.24158 -1.1927,-3.05018 0,-1.24159 0.5768,-2.23876 0.5768,-0.99718 1.6326,-1.59353 1.0657,-0.59635 2.2779,-0.59635 1.1927,0 2.1997,0.5768 1.0167,0.5768 1.5935,1.61308 0.5768,1.03628 0.5768,2.20943 0,0.88963 -0.3617,1.86726 -0.352,0.96785 -1.2709,2.33652 z m 1.5642,-7.65479 q 1.2611,0 2.1409,-0.87986 0.8897,-0.88964 0.8897,-2.14099 0,-1.25136 -0.8897,-2.13122 -0.8798,-0.88964 -2.1409,-0.88964 -1.2514,0 -2.141,0.88964 -0.8799,0.87986 -0.8799,2.13122 0,1.25135 0.8799,2.14099 0.8896,0.87986 2.141,0.87986 z"
           style="font-size:20.02172661px;font-family:CenturyGothic;fill:#424143;stroke-width:1"
           id="path1469" /></g></g></g><text
     xml:space="preserve"
     style="font-style:normal;font-weight:normal;font-size:40px;line-height:125%;font-family:Sans;letter-spacing:0px;word-spacing:0px;fill:#000000;fill-opacity:1;stroke:none;stroke-width:1px;stroke-linecap:butt;stroke-linejoin:miter;stroke-opacity:1"
     x="566.7934"
     y="-274.51813"
     id="text5063"><tspan
       sodipodi:role="line"
       id="tspan5061"
       x="566.7934"
       y="-239.1275" /></text>
</svg>