<?xml version="1.0" encoding="UTF-8" standalone="no"?>
<!-- Generator: Adobe Illustrator 14.0.0, SVG Export Plug-In . SVG Version: 6.00 Build 43363)  -->

<svg
   xmlns:dc="http://purl.org/dc/elements/1.1/"
   xmlns:cc="http://creativecommons.org/ns#"
   xmlns:rdf="http://www.w3.org/1999/02/22-rdf-syntax-ns#"
   xmlns:svg="http://www.w3.org/2000/svg"
   xmlns="http://www.w3.org/2000/svg"
   xmlns:sodipodi="http://sodipodi.sourceforge.net/DTD/sodipodi-0.dtd"
   xmlns:inkscape="http://www.inkscape.org/namespaces/inkscape"
   version="1.1"
   id="Layer_1"
   inkscape:version="0.92.2 (5c3e80d, 2017-08-06)"
   sodipodi:docname="nhw_home.svg"
   x="0px"
   y="0px"
   width="100"
   height="100"
   viewBox="416.572 -360.945 100 100"
   enable-background="new 416.572 -360.945 595.275 841.89"
   xml:space="preserve"
   inkscape:export-filename="C:\Users\holly.jones\Downloads\volcano_pixelhint_12th_jan-20180116T210822Z-001\volcano_pixelhint_12th_jan\volcano_pixelhint\img\hedges_icon_100_white.png"
   inkscape:export-xdpi="149.93106"
   inkscape:export-ydpi="149.93106"><metadata
     id="metadata326"><rdf:RDF><cc:Work
         rdf:about=""><dc:format>image/svg+xml</dc:format><dc:type
           rdf:resource="http://purl.org/dc/dcmitype/StillImage" /><dc:title /></cc:Work></rdf:RDF></metadata><defs
     id="defs324" /><sodipodi:namedview
     id="namedview230"
     inkscape:pageshadow="2"
     inkscape:window-width="1920"
     inkscape:window-height="1001"
     inkscape:window-x="-9"
     inkscape:window-y="-9"
     inkscape:current-layer="Layer_1"
     inkscape:pageopacity="0"
     gridtolerance="10"
     inkscape:zoom="1.4283557"
     inkscape:cy="10.68601"
     guidetolerance="10"
     bordercolor="#666666"
     showgrid="false"
     borderopacity="1"
     objecttolerance="10"
     inkscape:cx="-168.87959"
     pagecolor="#ffffff"
     inkscape:window-maximized="1"
     inkscape:snap-nodes="false" /><text
     xml:space="preserve"
     style="font-style:normal;font-weight:normal;font-size:40px;line-height:125%;font-family:Sans;letter-spacing:0px;word-spacing:0px;fill:#000000;fill-opacity:1;stroke:none;stroke-width:1px;stroke-linecap:butt;stroke-linejoin:miter;stroke-opacity:1"
     x="566.7934"
     y="-274.51813"
     id="text5063"><tspan
       sodipodi:role="line"
       id="tspan5061"
       x="566.7934"
       y="-239.1275" /></text>
<path
     d="M 1049.2848,-347.50267"
     stroke-miterlimit="10"
     id="path1720"
     inkscape:connector-curvature="0"
     style="fill:none;stroke:#010101;stroke-width:2.76591682;stroke-linejoin:round;stroke-miterlimit:10" /><g
     id="g1238"><path
       id="path1228"
       stroke-miterlimit="10"
       d="m 512.74788,-317.17231 c -4.02781,-3.45197 -17.16507,-14.71655 -17.74665,-15.23859 -0.68761,-0.61666 -0.97799,-1.35893 -0.97718,-2.17135 0.003,-2.71867 0.01,-8.73271 -0.002,-9.63567 -0.0147,-1.17295 -0.69169,-1.61668 -1.6966,-1.61505 -2.53431,0.003 -7.06294,0.007 -7.51971,-0.002 -0.63705,-0.0139 -1.02123,0.47228 -1.02123,0.9307 0,0.45841 0,2.86386 0,2.86386 0,0 -14.12178,-12.2434 -14.96193,-12.85598 -1.09545,-0.8165 -2.07345,-0.91601 -2.98863,-0.15172 -7.81417,6.5222 -45.10276,37.63726 -45.61175,38.03939 -0.56852,0.44862 -0.61991,1.37606 -0.25775,1.89075 0.36216,0.5147 1.29448,1.78635 1.84424,2.60937 0.54977,0.82303 1.64359,0.91928 2.51391,0.2341 0.60279,-0.47472 35.08301,-27.70794 41.68916,-32.92587 0.70067,-0.55303 1.76186,-0.32627 2.25616,0.0653 0.4421,0.34993 34.19718,27.06111 41.26256,32.65261 0.8271,0.65418 1.78225,0.26755 2.102,-0.22105 0.31974,-0.48859 1.31731,-1.92664 1.62156,-2.4707 0.30425,-0.54406 0.22513,-1.37035 -0.50653,-1.99761 z"
       inkscape:connector-curvature="0"
       style="fill:#ffffff;fill-opacity:1;stroke:#424143;stroke-width:2.57389998;stroke-linejoin:round;stroke-miterlimit:10" /><path
       id="path1232"
       stroke-miterlimit="10"
       d="m 455.03396,-284.88266 v -16.67257 c 0,-1.78798 1.10524,-3.23174 2.47068,-3.23174 h 18.3013 c 1.36871,0 2.47721,1.44376 2.47721,3.23174 0,0 0,31.00003 0,32.40301 0,1.40216 0.79528,2.75212 2.17133,2.80106 1.09545,0.0383 14.44968,0.0326 19.95875,0.0212 1.41194,-0.002 2.57427,-0.9364 2.55388,-2.61834 -0.0147,-1.16724 -0.009,-28.62068 -0.007,-36.97817 0,-1.50657 -0.55956,-2.82064 -1.61096,-3.66487 -0.87359,-0.70149 -24.51023,-19.36432 -32.47937,-25.6565 -2.0188,-1.50494 -3.75211,-1.19905 -5.16975,-0.0122 -0.28794,0.24062 -1.84098,1.47801 -4.13303,3.29617 l -2.53186,1.95275 c -10.12416,7.99369 -24.33893,19.21994 -25.01268,19.76074 -1.0514,0.84423 -1.61095,2.1583 -1.61095,3.66486 0.002,8.35831 0.008,35.81175 -0.007,36.97818 -0.0204,1.68194 1.14113,2.61589 2.55388,2.61834 5.50907,0.0114 18.8633,0.0171 19.95876,-0.0212 1.37686,-0.0489 2.17132,-1.39889 2.17132,-2.80105 0,-0.5098 0,-4.93815 0,-10.3657 z"
       inkscape:connector-curvature="0"
       style="fill:#ffffff;fill-opacity:1;stroke:#424143;stroke-width:2.57389998;stroke-linejoin:round;stroke-miterlimit:10" /><path
       style="fill:#f3ba93;fill-opacity:1;stroke-width:1"
       d="m 429.89781,-286.58307 v -20.06825 l 17.70912,-13.98816 17.7075,-13.98815 17.47828,13.83154 17.47829,13.82991 v 20.2265 20.2265 h -11.20003 -11.20086 l -0.0865,-17.6726 c -0.0808,-16.20599 -0.13214,-17.75416 -0.63704,-18.67588 -1.04162,-1.90462 -1.33689,-1.95193 -12.218,-1.95193 -10.88192,0 -11.17556,0.0473 -12.21718,1.95193 -0.5049,0.92254 -0.55792,2.4707 -0.63704,18.67588 l -0.0865,17.6726 h -11.04505 -8.41614 l -2.62729,-2.71215 v -17.35774 z"
       inkscape:connector-curvature="0"
       id="path3968_1_-3" /><path
       style="fill:#f3ba93;fill-opacity:1;stroke-width:1"
       d="m 421.95476,-313.94353 c -0.5416,-0.75369 -0.98452,-1.49678 -0.98452,-1.65013 0,-0.15335 9.57603,-8.27674 22.24428,-18.8537 20.75649,-17.33001 23.09095,-19.19058 23.6032,-18.81945 0.30914,0.22758 3.94134,3.31902 8.0711,6.87377 4.12976,3.55311 7.70242,6.46102 7.94305,6.46102 0.79854,0 1.18354,-0.73085 1.18354,-2.24231 v -1.49433 h 3.89077 3.89322 v 5.90881 5.90881 l 9.80605,8.42193 9.80686,8.42111 -0.82954,1.25207 c -0.45433,0.69007 -0.99431,1.18927 -1.1966,1.11097 -0.20228,-0.0775 -9.53361,-7.39662 -20.73446,-16.2631 -11.20085,-8.86729 -20.84295,-16.44743 -21.42616,-16.84549 -0.97636,-0.66723 -1.11829,-0.6868 -1.78225,-0.25367 -0.3956,0.25938 -10.147,7.91702 -21.66841,17.01515 -11.52304,9.09894 -20.31194,16.00615 -20.49955,16.15297 -0.21371,0.17048 -0.69006,-0.22757 -1.32058,-1.10443 z"
       inkscape:connector-curvature="0"
       id="path3970_1_-7" /><path
       style="fill:none;stroke:#424143;stroke-width:2.57389998;stroke-linejoin:round;stroke-miterlimit:10"
       inkscape:connector-curvature="0"
       d="m 512.74788,-317.17231 c -4.02781,-3.45197 -17.16507,-14.71655 -17.74665,-15.23859 -0.68761,-0.61666 -0.97799,-1.35893 -0.97718,-2.17135 0.003,-2.71867 0.01,-8.73271 -0.002,-9.63567 -0.0147,-1.17295 -0.69169,-1.61668 -1.6966,-1.61505 -2.53431,0.003 -7.06294,0.007 -7.51971,-0.002 -0.63705,-0.0139 -1.02123,0.47228 -1.02123,0.9307 0,0.45841 0,2.86386 0,2.86386 0,0 -14.12178,-12.2434 -14.96193,-12.85598 -1.09545,-0.8165 -2.07345,-0.91601 -2.98863,-0.15172 -7.81417,6.5222 -45.10276,37.63726 -45.61175,38.03939 -0.56852,0.44862 -0.61991,1.37606 -0.25775,1.89075 0.36216,0.5147 1.29448,1.78635 1.84424,2.60937 0.54977,0.82303 1.64359,0.91928 2.51391,0.2341 0.60279,-0.47472 35.08301,-27.70794 41.68916,-32.92587 0.70067,-0.55303 1.76186,-0.32627 2.25616,0.0653 0.4421,0.34993 34.19718,27.06111 41.26256,32.65261 0.8271,0.65418 1.78225,0.26755 2.102,-0.22105 0.31974,-0.48859 1.31731,-1.92664 1.62156,-2.4707 0.30425,-0.54406 0.22513,-1.37035 -0.50653,-1.99761 z"
       stroke-miterlimit="10"
       id="polygon10_1_-3" /><path
       style="fill:none;stroke:#424143;stroke-width:2.57389998;stroke-linejoin:round;stroke-miterlimit:10"
       inkscape:connector-curvature="0"
       d="m 455.03396,-284.88266 v -16.67257 c 0,-1.78798 1.10524,-3.23174 2.47068,-3.23174 h 18.3013 c 1.36871,0 2.47721,1.44376 2.47721,3.23174 0,0 0,31.00003 0,32.40301 0,1.40216 0.79528,2.75212 2.17133,2.80106 1.09545,0.0383 14.44968,0.0326 19.95875,0.0212 1.41194,-0.002 2.57427,-0.9364 2.55388,-2.61834 -0.0147,-1.16724 -0.009,-28.62068 -0.007,-36.97817 0,-1.50657 -0.55956,-2.82064 -1.61096,-3.66487 -0.87359,-0.70149 -24.51023,-19.36432 -32.47937,-25.6565 -2.0188,-1.50494 -3.75211,-1.19905 -5.16975,-0.0122 -0.28794,0.24062 -1.84098,1.47801 -4.13303,3.29617 l -2.53186,1.95275 c -10.12416,7.99369 -24.33893,19.21994 -25.01268,19.76074 -1.0514,0.84423 -1.61095,2.1583 -1.61095,3.66486 0.002,8.35831 0.008,35.81175 -0.007,36.97818 -0.0204,1.68194 1.14113,2.61589 2.55388,2.61834 5.50907,0.0114 18.8633,0.0171 19.95876,-0.0212 1.37686,-0.0489 2.17132,-1.39889 2.17132,-2.80105 0,-0.5098 0,-4.93815 0,-10.3657 z"
       stroke-miterlimit="10"
       id="path12_2_-4" /></g></svg>