<?xml version="1.0" encoding="UTF-8" standalone="no"?>
<!-- Generator: Adobe Illustrator 14.0.0, SVG Export Plug-In . SVG Version: 6.00 Build 43363)  -->

<svg
   xmlns:dc="http://purl.org/dc/elements/1.1/"
   xmlns:cc="http://creativecommons.org/ns#"
   xmlns:rdf="http://www.w3.org/1999/02/22-rdf-syntax-ns#"
   xmlns:svg="http://www.w3.org/2000/svg"
   xmlns="http://www.w3.org/2000/svg"
   xmlns:sodipodi="http://sodipodi.sourceforge.net/DTD/sodipodi-0.dtd"
   xmlns:inkscape="http://www.inkscape.org/namespaces/inkscape"
   version="1.1"
   id="Layer_1"
   inkscape:version="0.92.2 (5c3e80d, 2017-08-06)"
   sodipodi:docname="online.svg"
   x="0px"
   y="0px"
   width="100"
   height="100"
   viewBox="416.572 -360.945 100 100"
   enable-background="new 416.572 -360.945 595.275 841.89"
   xml:space="preserve"
   inkscape:export-filename="C:\Users\holly.jones\Downloads\volcano_pixelhint_12th_jan-20180116T210822Z-001\volcano_pixelhint_12th_jan\volcano_pixelhint\img\hedges_icon_100_white.png"
   inkscape:export-xdpi="149.93106"
   inkscape:export-ydpi="149.93106"><metadata
     id="metadata326"><rdf:RDF><cc:Work
         rdf:about=""><dc:format>image/svg+xml</dc:format><dc:type
           rdf:resource="http://purl.org/dc/dcmitype/StillImage" /><dc:title /></cc:Work></rdf:RDF></metadata><defs
     id="defs324" /><sodipodi:namedview
     id="namedview230"
     inkscape:pageshadow="2"
     inkscape:window-width="1920"
     inkscape:window-height="1001"
     inkscape:window-x="-9"
     inkscape:window-y="-9"
     inkscape:current-layer="Layer_1"
     inkscape:pageopacity="0"
     gridtolerance="10"
     inkscape:zoom="4.04"
     inkscape:cy="28.65226"
     guidetolerance="10"
     bordercolor="#666666"
     showgrid="false"
     borderopacity="1"
     objecttolerance="10"
     inkscape:cx="47.34411"
     pagecolor="#ffffff"
     inkscape:window-maximized="1"
     inkscape:snap-nodes="false" /><text
     xml:space="preserve"
     style="font-style:normal;font-weight:normal;font-size:40px;line-height:125%;font-family:Sans;letter-spacing:0px;word-spacing:0px;fill:#000000;fill-opacity:1;stroke:none;stroke-width:1px;stroke-linecap:butt;stroke-linejoin:miter;stroke-opacity:1"
     x="566.7934"
     y="-274.51813"
     id="text5063"><tspan
       sodipodi:role="line"
       id="tspan5061"
       x="566.7934"
       y="-239.1275" /></text>
<g
     id="g1295"><rect
       style="opacity:1;fill:#ffffff;fill-opacity:1;stroke:#424143;stroke-width:2.5;stroke-linecap:round;stroke-linejoin:round;stroke-miterlimit:10;stroke-dasharray:none;stroke-opacity:1"
       id="rect1265"
       width="20.318319"
       height="14.41352"
       x="451.12015"
       y="-298.74539"
       ry="0" /><rect
       ry="5.4595828"
       y="-501.97165"
       x="-352.76126"
       height="81.384605"
       width="53.811108"
       id="rect1263"
       style="opacity:1;fill:#ffffff;fill-opacity:1;stroke:#424143;stroke-width:2.5;stroke-linecap:round;stroke-linejoin:round;stroke-miterlimit:10;stroke-dasharray:none;stroke-opacity:1"
       transform="rotate(90)" /><path
       inkscape:connector-curvature="0"
       id="path1977"
       d="m 450.69195,-289.76601 v -5.86945 h 8.89589 8.89589 v 5.86945 5.86946 h -8.89589 -8.89589 z"
       style="opacity:1;fill:#f3ba93;fill-opacity:1;stroke:none;stroke-width:1.5;stroke-linecap:round;stroke-linejoin:round;stroke-miterlimit:10;stroke-dasharray:none;stroke-opacity:1" /><path
       inkscape:connector-curvature="0"
       id="path1979"
       d="m 437.40707,-277.76507 c -0.2099,-0.2099 -0.28824,-0.65572 -0.28824,-1.64038 0,-1.18935 0.0491,-1.38653 0.40766,-1.63769 0.36337,-0.25451 2.75992,-0.28553 22.06135,-0.28553 19.30143,0 21.69799,0.031 22.06136,0.28553 0.36157,0.25326 0.40765,0.44607 0.40765,1.70581 0,0.8601 -0.0868,1.5071 -0.2201,1.64039 -0.16875,0.16874 -5.34482,0.2201 -22.18078,0.2201 -19.71969,0 -21.99009,-0.0294 -22.2489,-0.28823 z"
       style="opacity:1;fill:#ff9955;fill-opacity:1;stroke:none;stroke-width:1.5;stroke-linecap:round;stroke-linejoin:round;stroke-miterlimit:10;stroke-dasharray:none;stroke-opacity:1" /><path
       inkscape:connector-curvature="0"
       id="path1985"
       d="m 422.99546,-298.81112 c -0.88615,-0.28088 -2.30664,-1.74164 -2.55163,-2.62397 -0.27577,-0.99321 -0.27703,-44.44678 -10e-4,-45.43975 0.10797,-0.38886 0.52511,-1.06372 0.92696,-1.49968 1.37208,-1.48853 -1.93281,-1.37011 38.20518,-1.36896 24.65856,7e-4 35.99801,0.0615 36.48098,0.19562 0.89532,0.24862 2.104,1.33605 2.53369,2.27953 0.31741,0.69694 0.33415,1.85435 0.33415,23.11098 0,21.34689 -0.0155,22.41155 -0.3379,23.12122 -0.41601,0.9159 -1.61349,1.96864 -2.56281,2.25307 -0.99198,0.2972 -72.0873,0.26988 -73.02731,-0.0281 z m 72.10978,-3.59468 0.43301,-0.35061 0.0481,-21.29907 0.0481,-21.29908 -0.45247,-0.45248 -0.45248,-0.45248 h -35.11304 c -34.29879,0 -35.12308,0.008 -35.54606,0.35064 l -0.43301,0.35063 v 21.4009 21.4009 l 0.43301,0.35063 c 0.42298,0.34251 1.24682,0.35064 35.5174,0.35064 34.2698,0 35.09444,-0.008 35.5174,-0.35062 z"
       style="opacity:1;fill:#f3ba93;fill-opacity:1;stroke:none;stroke-width:1.5;stroke-linecap:round;stroke-linejoin:round;stroke-miterlimit:10;stroke-dasharray:none;stroke-opacity:1" /><path
       inkscape:connector-curvature="0"
       id="path1987"
       d="m 458.31621,-314.1716 v -3.76124 h 13.35888 13.35888 v 3.76124 3.76123 h -13.35888 -13.35888 z"
       style="opacity:1;fill:#ebd0bd;fill-opacity:1;stroke:none;stroke-width:1.5;stroke-linecap:round;stroke-linejoin:round;stroke-miterlimit:10;stroke-dasharray:none;stroke-opacity:1" /><path
       inkscape:connector-curvature="0"
       id="path1989"
       d="m 434.19241,-336.09054 v -1.81577 h 25.29109 25.29108 v 1.81577 1.81577 H 459.4835 434.19241 Z"
       style="opacity:1;fill:#ebd0bd;fill-opacity:1;stroke:none;stroke-width:1.5;stroke-linecap:round;stroke-linejoin:round;stroke-miterlimit:10;stroke-dasharray:none;stroke-opacity:1" /><rect
       transform="rotate(90)"
       style="opacity:1;fill:none;fill-opacity:1;stroke:#424143;stroke-width:2.5;stroke-linecap:round;stroke-linejoin:round;stroke-miterlimit:10;stroke-dasharray:none;stroke-opacity:1"
       id="rect1687"
       width="53.811108"
       height="81.384605"
       x="-352.76126"
       y="-501.97165"
       ry="5.4595828" /><rect
       style="opacity:1;fill:none;fill-opacity:1;stroke:#424143;stroke-width:2.5;stroke-linecap:round;stroke-linejoin:round;stroke-miterlimit:10;stroke-dasharray:none;stroke-opacity:1"
       id="rect1689"
       width="69.301598"
       height="41.565994"
       x="426.62851"
       y="-346.6387"
       ry="0" /><rect
       ry="0"
       y="-298.74539"
       x="451.12015"
       height="14.41352"
       width="20.318319"
       id="rect1700"
       style="opacity:1;fill:none;fill-opacity:1;stroke:#424143;stroke-width:2.5;stroke-linecap:round;stroke-linejoin:round;stroke-miterlimit:10;stroke-dasharray:none;stroke-opacity:1" /><rect
       ry="2.4235656"
       y="-485.15164"
       x="-284.31772"
       height="47.744541"
       width="6.5526643"
       id="rect1702"
       style="opacity:1;fill:#f3ba93;fill-opacity:1;stroke:#424143;stroke-width:2.5;stroke-linecap:round;stroke-linejoin:round;stroke-miterlimit:10;stroke-dasharray:none;stroke-opacity:1"
       transform="rotate(90)" /><line
       style="fill:none;stroke:#424143;stroke-width:2;stroke-linecap:round;stroke-linejoin:round;stroke-miterlimit:10;stroke-dasharray:none"
       id="line1722"
       stroke-miterlimit="10"
       x1="434.97714"
       y1="-329.5976"
       x2="487.41098"
       y2="-329.5976" /><line
       style="fill:none;stroke:#424143;stroke-width:2;stroke-linecap:round;stroke-linejoin:round;stroke-miterlimit:10;stroke-dasharray:none"
       id="line1724"
       stroke-miterlimit="10"
       x1="434.97714"
       y1="-324.92386"
       x2="482.26892"
       y2="-325.06284" /><rect
       y="-320.61688"
       x="459.15933"
       height="9.3619051"
       width="28.432878"
       id="rect1734"
       style="opacity:1;fill:none;fill-opacity:1;stroke:#424143;stroke-width:2;stroke-linecap:round;stroke-linejoin:round;stroke-miterlimit:10;stroke-dasharray:none;stroke-opacity:1" /><rect
       style="opacity:1;fill:none;fill-opacity:1;stroke:#424143;stroke-width:2;stroke-linecap:round;stroke-linejoin:round;stroke-miterlimit:10;stroke-dasharray:none;stroke-opacity:1"
       id="rect1736"
       width="52.291367"
       height="5.4236507"
       x="435.04837"
       y="-340.45648" /><line
       style="fill:none;stroke:#424143;stroke-width:2;stroke-linecap:round;stroke-linejoin:round;stroke-miterlimit:10;stroke-dasharray:none"
       id="line1803"
       stroke-miterlimit="10"
       x1="434.97714"
       y1="-320.3891"
       x2="454.98151"
       y2="-320.3891" /><line
       y2="-315.85437"
       x2="454.98151"
       y1="-315.85437"
       x1="434.97714"
       stroke-miterlimit="10"
       id="line1805"
       style="fill:none;stroke:#424143;stroke-width:2;stroke-linecap:round;stroke-linejoin:round;stroke-miterlimit:10;stroke-dasharray:none" /><line
       style="fill:none;stroke:#424143;stroke-width:2;stroke-linecap:round;stroke-linejoin:round;stroke-miterlimit:10;stroke-dasharray:none"
       id="line1807"
       stroke-miterlimit="10"
       x1="434.97714"
       y1="-311.31964"
       x2="454.98151"
       y2="-311.31964" /><rect
       style="opacity:1;fill:#ffffff;fill-opacity:1;stroke:none;stroke-width:2.49999976;stroke-linecap:round;stroke-linejoin:round;stroke-miterlimit:10;stroke-dasharray:none;stroke-opacity:1"
       id="rect2060"
       width="46.538734"
       height="65.372292"
       x="467.26822"
       y="-333.25101"
       ry="5.784193" /><path
       inkscape:connector-curvature="0"
       id="path1981"
       d="m 473.7735,-272.76337 c -0.72098,-0.31954 -1.44157,-1.0083 -1.86231,-1.78005 -0.32451,-0.59524 -0.33873,-1.63771 -0.33873,-24.83282 v -24.21151 l 0.39318,-0.73368 c 0.44966,-0.83909 0.80895,-1.18966 1.71615,-1.67452 0.61245,-0.32733 1.34624,-0.3431 15.95758,-0.3431 h 15.31561 l 0.76892,0.411 c 0.96174,0.51408 1.61981,1.3639 1.88325,2.43201 0.14524,0.58891 0.18861,7.63498 0.15135,24.59278 l -0.0522,23.76739 -0.55026,0.88842 c -0.36137,0.58346 -0.82776,1.03499 -1.35865,1.31537 l -0.80838,0.42694 -15.33262,-0.007 c -12.34516,-0.006 -15.43983,-0.0547 -15.88288,-0.25106 z m 17.42432,-1.18706 c 1.8445,-1.06395 1.86171,-3.69432 0.033,-5.04928 -0.38686,-0.28664 -0.78944,-0.3837 -1.59148,-0.3837 -1.20319,0 -1.81318,0.33227 -2.52203,1.37379 -0.70229,1.03187 -0.46859,2.90041 0.46695,3.73357 0.95811,0.85325 2.46364,0.98891 3.61353,0.32562 z m 14.32485,-7.19473 c 0.33911,-0.37471 0.34942,-0.97583 0.34942,-20.37588 v -19.98978 l -0.43302,-0.35064 c -0.41864,-0.339 -0.94305,-0.35063 -15.7997,-0.35063 -14.85664,0 -15.38105,0.0116 -15.79969,0.35063 l -0.43302,0.35064 v 20.02524 20.02524 l 0.43302,0.35064 c 0.41868,0.33903 0.94433,0.35063 15.8833,0.35063 h 15.45028 z"
       style="opacity:1;fill:#f3ba93;fill-opacity:1;stroke:none;stroke-width:1.5;stroke-linecap:round;stroke-linejoin:round;stroke-miterlimit:10;stroke-dasharray:none;stroke-opacity:1" /><path
       inkscape:connector-curvature="0"
       id="path1991"
       d="m 480.4765,-309.2406 v -4.66912 h 9.07885 9.07885 v 4.66912 4.66912 h -9.07885 -9.07885 z"
       style="opacity:1;fill:#ebd0bd;fill-opacity:1;stroke:none;stroke-width:1.5;stroke-linecap:round;stroke-linejoin:round;stroke-miterlimit:10;stroke-dasharray:none;stroke-opacity:1" /><rect
       ry="5.0051918"
       y="-328.84891"
       x="471.12003"
       height="56.568108"
       width="38.835075"
       id="rect1666"
       style="opacity:1;fill:none;fill-opacity:1;stroke:#424143;stroke-width:2.5;stroke-linecap:round;stroke-linejoin:round;stroke-miterlimit:10;stroke-dasharray:none;stroke-opacity:1" /><rect
       ry="0"
       y="-322.06339"
       x="475.61093"
       height="38.842339"
       width="29.85331"
       id="rect1668"
       style="opacity:1;fill:none;fill-opacity:1;stroke:#424143;stroke-width:2.5;stroke-linecap:round;stroke-linejoin:round;stroke-miterlimit:10;stroke-dasharray:none;stroke-opacity:1" /><ellipse
       ry="2.1720643"
       rx="2.1785529"
       cy="-277.65054"
       cx="490.53757"
       id="path1670"
       style="opacity:1;fill:none;fill-opacity:1;stroke:#424143;stroke-width:1.5;stroke-linecap:round;stroke-linejoin:round;stroke-miterlimit:10;stroke-dasharray:none;stroke-opacity:1" /><rect
       style="opacity:1;fill:none;fill-opacity:1;stroke:#424143;stroke-width:2;stroke-linecap:round;stroke-linejoin:round;stroke-miterlimit:8.36363602;stroke-dasharray:none;stroke-opacity:1"
       id="rect1829"
       width="19.894272"
       height="11.112265"
       x="480.59045"
       y="-315.98572" /><line
       style="fill:none;stroke:#424143;stroke-width:2;stroke-linecap:round;stroke-linejoin:round;stroke-miterlimit:8.36363602;stroke-dasharray:none"
       id="line1827"
       stroke-miterlimit="10"
       x1="480.89828"
       y1="-300.39691"
       x2="500.40515"
       y2="-300.39691" /><line
       y2="-294.84787"
       x2="500.40515"
       y1="-294.84787"
       x1="480.89828"
       stroke-miterlimit="10"
       id="line1833"
       style="fill:none;stroke:#424143;stroke-width:2;stroke-linecap:round;stroke-linejoin:round;stroke-miterlimit:8.36363602;stroke-dasharray:none" /><line
       y2="-289.29883"
       x2="500.40515"
       y1="-289.29883"
       x1="480.89828"
       stroke-miterlimit="10"
       id="line1837"
       style="fill:none;stroke:#424143;stroke-width:2;stroke-linecap:round;stroke-linejoin:round;stroke-miterlimit:8.36363602;stroke-dasharray:none" /></g></svg>