<?xml version="1.0" encoding="UTF-8" standalone="no"?>
<!-- Generator: Adobe Illustrator 14.0.0, SVG Export Plug-In . SVG Version: 6.00 Build 43363)  -->

<svg
   xmlns:dc="http://purl.org/dc/elements/1.1/"
   xmlns:cc="http://creativecommons.org/ns#"
   xmlns:rdf="http://www.w3.org/1999/02/22-rdf-syntax-ns#"
   xmlns:svg="http://www.w3.org/2000/svg"
   xmlns="http://www.w3.org/2000/svg"
   xmlns:sodipodi="http://sodipodi.sourceforge.net/DTD/sodipodi-0.dtd"
   xmlns:inkscape="http://www.inkscape.org/namespaces/inkscape"
   version="1.1"
   id="Layer_1"
   inkscape:version="0.92.2 (5c3e80d, 2017-08-06)"
   sodipodi:docname="potholes.svg"
   x="0px"
   y="0px"
   width="100"
   height="100"
   viewBox="416.572 -360.945 100 100"
   enable-background="new 416.572 -360.945 595.275 841.89"
   xml:space="preserve"
   inkscape:export-filename="C:\Users\holly.jones\Downloads\volcano_pixelhint_12th_jan-20180116T210822Z-001\volcano_pixelhint_12th_jan\volcano_pixelhint\img\hedges_icon_100_white.png"
   inkscape:export-xdpi="149.93106"
   inkscape:export-ydpi="149.93106"><metadata
     id="metadata326"><rdf:RDF><cc:Work
         rdf:about=""><dc:format>image/svg+xml</dc:format><dc:type
           rdf:resource="http://purl.org/dc/dcmitype/StillImage" /><dc:title /></cc:Work></rdf:RDF></metadata><defs
     id="defs324" /><sodipodi:namedview
     id="namedview230"
     inkscape:pageshadow="2"
     inkscape:window-width="1920"
     inkscape:window-height="1001"
     inkscape:window-x="-9"
     inkscape:window-y="-9"
     inkscape:current-layer="Layer_1"
     inkscape:pageopacity="0"
     gridtolerance="10"
     inkscape:zoom="3.8551136"
     inkscape:cy="56.116425"
     guidetolerance="10"
     bordercolor="#666666"
     showgrid="false"
     borderopacity="1"
     objecttolerance="10"
     inkscape:cx="43.345898"
     pagecolor="#ffffff"
     inkscape:window-maximized="1"
     inkscape:snap-nodes="false" /><text
     xml:space="preserve"
     style="font-style:normal;font-weight:normal;font-size:40px;line-height:125%;font-family:Sans;letter-spacing:0px;word-spacing:0px;fill:#000000;fill-opacity:1;stroke:none;stroke-width:1px;stroke-linecap:butt;stroke-linejoin:miter;stroke-opacity:1"
     x="566.7934"
     y="-274.51813"
     id="text5063"><tspan
       sodipodi:role="line"
       id="tspan5061"
       x="566.7934"
       y="-239.1275" /></text>
<g
     id="g1295"
     transform="translate(0,-1.5750082e-5)"><path
       transform="translate(416.572,-360.945)"
       inkscape:connector-curvature="0"
       id="path1285"
       d="M 62.189228,57.769978 C 59.237259,57.203986 56.7714,56.709622 56.709541,56.67139 c -0.06186,-0.03823 -0.112472,-0.173742 -0.112472,-0.301135 0,-0.452411 0.933497,-5.124592 1.047429,-5.242417 0.09508,-0.09833 1.076464,0.06267 5.472453,0.897799 2.946127,0.559689 5.425004,1.038192 5.508615,1.063339 0.08361,0.02515 0.172039,0.09789 0.196507,0.161652 0.06463,0.168424 -0.917896,5.282823 -1.044094,5.434882 -0.05854,0.07053 -0.132329,0.124933 -0.163983,0.120892 -0.03165,-0.004 -2.4728,-0.470432 -5.424768,-1.036424 z"
       style="opacity:1;fill:#ffffff;fill-opacity:1;stroke:#ffffff;stroke-width:2;stroke-linecap:round;stroke-linejoin:round;stroke-miterlimit:4;stroke-dasharray:none;stroke-opacity:1" /><path
       transform="translate(416.572,-360.945)"
       inkscape:connector-curvature="0"
       id="path1283"
       d="m 22.303466,50.186506 c -2.846582,-0.547623 -5.229902,-1.016515 -5.296266,-1.041982 -0.182465,-0.07002 -0.148313,-0.350502 0.368133,-3.023433 0.335395,-1.735872 0.518835,-2.493575 0.618992,-2.556753 0.178916,-0.112857 10.890655,1.902166 11.075283,2.083411 0.102963,0.101076 0.0459,0.532837 -0.347745,2.631136 -0.259006,1.380621 -0.50958,2.603076 -0.556833,2.716567 -0.06579,0.158025 -0.156173,0.204051 -0.385937,0.196541 -0.165013,-0.0054 -2.629046,-0.457863 -5.475627,-1.005487 z"
       style="opacity:1;fill:#ffffff;fill-opacity:1;stroke:#ffffff;stroke-width:2;stroke-linecap:round;stroke-linejoin:round;stroke-miterlimit:4;stroke-dasharray:none;stroke-opacity:1" /><path
       transform="translate(416.572,-360.945)"
       inkscape:connector-curvature="0"
       id="path1281"
       d="M 61.182581,40.740321 C 56.718585,39.887262 45.988488,37.843835 37.337919,36.199372 27.613914,34.350852 21.504582,33.149735 21.334483,33.05304 21.122462,32.932513 21.053011,32.821939 21.03171,32.57099 c -0.02546,-0.299958 0.280382,-0.749388 3.876796,-5.696868 4.216582,-5.800627 4.733968,-6.41349 5.943957,-7.04084 l 0.589725,-0.305758 16.724599,3.182235 16.724599,3.182235 0.353987,0.342804 c 0.735996,0.712743 1.022061,1.516386 3.041999,8.545872 1.035547,3.603758 1.882813,6.685665 1.882813,6.848684 0,0.33596 -0.349738,0.681568 -0.677268,0.669269 -0.106689,-0.004 -3.84634,-0.705242 -8.310336,-1.558302 z"
       style="opacity:1;fill:#ffffff;fill-opacity:1;stroke:#ffffff;stroke-width:2;stroke-linecap:round;stroke-linejoin:round;stroke-miterlimit:4;stroke-dasharray:none;stroke-opacity:1" /><path
       sodipodi:nodetypes="ccccccccccsssccsssssccsssssccssscccssccsscssssssssssssssssss"
       id="path1267"
       d="m 496.57492,-325.49262 c -0.32463,-0.0618 -0.66593,-0.0803 -1.01634,-0.0508 l -3.67606,0.29777 -1.9811,-9.69509 c -0.53413,-2.61511 -2.89959,-5.15065 -5.49098,-6.03642 l -36.66326,-6.97403 c -2.73587,-0.12757 -5.86858,1.36238 -7.32395,3.5988 l -5.39624,8.27752 -3.26629,-1.60407 c -0.31363,-0.15567 -0.63913,-0.26564 -0.96223,-0.32709 -1.77784,-0.33605 -3.32596,0.77488 -3.68168,2.64504 l -0.36367,1.91194 c -0.41554,2.18463 1.02412,4.2987 3.20691,4.71391 l 0.25385,0.0483 -0.77179,1.18368 c -1.50329,2.30803 -3.14649,6.38772 -3.66145,9.09508 l -3.4123,17.93965 c -0.41521,2.18284 1.0241,4.29869 3.2069,4.7139 l 4.76177,0.90577 c 2.18458,0.41555 4.29841,-1.02443 4.7136,-3.20727 l 0.83863,-4.40898 42.85113,8.15107 -0.83864,4.40897 c -0.4152,2.18284 1.02309,4.2985 3.20716,4.71395 l 4.76025,0.90548 c 2.18407,0.41545 4.2989,-1.02434 4.7141,-3.20717 l 3.41231,-17.93966 c 0.51497,-2.70735 0.48382,-7.10553 -0.0668,-9.80426 l -0.28332,-1.38438 0.30452,0.0579 c 2.18458,0.41555 4.29832,-1.0226 4.71385,-3.20722 l 0.36367,-1.91194 c 0.35568,-1.8699 -0.67504,-3.47219 -2.45249,-3.81029 m -59.85361,-4.24388 7.60835,-10.46714 c 0,0 2.37499,-2.77962 4.11704,-2.44826 l 33.17884,6.31122 c 1.74205,0.33137 2.74125,3.75284 2.74125,3.75284 l 3.61043,12.60114 c 0.35538,1.73792 -0.77885,2.88935 -2.52218,2.55774 l -47.32645,-9.00236 c -1.74232,-0.33142 -2.37613,-1.81917 -1.40728,-3.30518 m 9.32448,20.00862 c -0.16563,0.87079 -1.01348,1.44877 -1.88578,1.28284 l -10.70699,-2.03667 c -0.87129,-0.16574 -1.4485,-1.01477 -1.28288,-1.88557 l 0.96616,-5.07939 c 0.16592,-0.87232 1.01425,-1.44862 1.88554,-1.28289 l 10.70699,2.03667 c 0.8723,0.16593 1.44904,1.01331 1.28311,1.88562 z m 39.68577,7.54896 c -0.16563,0.8708 -1.01451,1.44856 -1.88553,1.28288 l -10.70673,-2.03662 c -0.8718,-0.16582 -1.44876,-1.01482 -1.28312,-1.88561 l 0.96615,-5.07939 c 0.16592,-0.87231 1.01399,-1.44867 1.88579,-1.28284 l 10.70673,2.03662 c 0.87103,0.16568 1.44879,1.01325 1.28287,1.88557 z"
       inkscape:connector-curvature="0"
       style="fill:#ffffff;fill-opacity:1;stroke:#424143;stroke-width:2.5;stroke-miterlimit:4;stroke-dasharray:none;stroke-opacity:1" /><path
       style="opacity:1;fill:#b8e69a;fill-opacity:1;stroke:none;stroke-width:2.5;stroke-linecap:square;stroke-linejoin:miter;stroke-miterlimit:4;stroke-dasharray:none;stroke-opacity:1"
       d="m 481.95838,-285.58748 c -2.75497,-0.56156 -3.30087,-0.86059 -3.82708,-2.09645 -0.24809,-0.58266 -0.21847,-0.92567 0.32839,-3.80384 0.3306,-1.73989 0.55208,-3.21244 0.49218,-3.27233 -0.0985,-0.0985 -44.82753,-8.67094 -45.28076,-8.67819 -0.10548,-0.002 -0.39429,1.09726 -0.6418,2.44212 -0.24751,1.34485 -0.53817,2.81168 -0.64591,3.25963 -0.23804,0.98967 -1.13287,1.91752 -2.00752,2.08161 -0.73985,0.1388 -5.81624,-0.77998 -6.63824,-1.20146 -0.68276,-0.35009 -1.28444,-1.33159 -1.28536,-2.0968 -9.6e-4,-0.80228 3.33802,-18.35156 3.84169,-20.19138 0.64016,-2.33842 1.99626,-5.32549 3.4448,-7.58786 0.73877,-1.15383 1.34322,-2.15669 1.34322,-2.2286 0,-0.0719 -0.53831,-0.23665 -1.19623,-0.36609 -1.5384,-0.30267 -2.18334,-0.64523 -2.64729,-1.40614 -0.43946,-0.72077 -0.47218,-1.71322 -0.10759,-3.26281 0.3071,-1.30522 0.91469,-2.05009 1.67228,-2.05009 0.29213,0 1.63035,0.51955 2.97384,1.15455 1.34349,0.635 2.50443,1.0881 2.57987,1.0069 0.0755,-0.0813 1.45049,-2.17583 3.05566,-4.65473 1.60515,-2.4789 3.23239,-4.8383 3.61606,-5.24312 0.8435,-0.88998 2.43349,-1.72571 3.85949,-2.02862 1.0099,-0.21453 1.78941,-0.0842 19.3705,3.23961 14.71971,2.78282 18.51442,3.56047 19.3168,3.95857 1.2446,0.61751 2.62799,2.07462 3.21669,3.38808 0.25671,0.57275 0.9206,3.3386 1.55224,6.46683 0.60703,3.00633 1.12744,5.49672 1.15648,5.53421 0.0291,0.0375 1.25937,-0.0352 2.73407,-0.16172 3.00533,-0.25768 3.55527,-0.1458 4.01682,0.81719 0.21259,0.44357 0.20543,0.78182 -0.0447,2.10795 -0.33959,1.80088 -0.68882,2.38559 -1.73499,2.90489 -0.69659,0.34577 -0.82229,0.35024 -2.24112,0.0798 -1.77745,-0.33878 -1.68251,-0.54374 -1.08157,2.33482 0.34979,1.67553 0.41905,2.62594 0.41236,5.65784 l -0.008,3.64403 -1.85455,9.58018 c -1.02176,5.27811 -1.98698,9.78229 -2.14945,10.03025 -0.4587,0.70008 -1.42941,1.19982 -2.28781,1.17781 -0.42193,-0.0108 -1.9085,-0.25233 -3.30347,-0.53668 z m 2.25157,-13.68272 c 0.46824,-0.23734 1.00415,-0.69809 1.19093,-1.02388 0.18677,-0.3258 0.61057,-2.02469 0.94179,-3.77531 l 0.60219,-3.18295 -0.45792,-0.91362 c -0.25187,-0.50248 -0.67795,-1.07305 -0.94687,-1.26792 -0.74835,-0.54232 -12.13192,-2.67124 -13.10721,-2.45127 -0.79226,0.17869 -1.53959,0.77557 -1.94404,1.55269 -0.33918,0.65171 -1.24119,5.39061 -1.24119,6.52089 0,1.09354 0.59038,2.05875 1.53683,2.51258 0.62559,0.29998 11.021,2.39952 12.08737,2.44126 0.26772,0.0105 0.86988,-0.17513 1.33812,-0.41247 z m -39.28288,-7.72593 c 0.27861,-0.20748 0.6431,-0.60598 0.80998,-0.88553 0.41897,-0.70189 1.50144,-6.43421 1.3607,-7.20567 -0.13144,-0.72044 -0.88395,-1.68069 -1.61221,-2.0573 -0.52032,-0.26908 -11.38107,-2.40749 -12.22735,-2.40749 -0.68363,0 -1.87488,0.66731 -2.27128,1.27232 -0.47771,0.72909 -1.48599,5.85992 -1.39209,7.08397 0.0812,1.05938 0.5068,1.7836 1.34026,2.28097 0.28838,0.17209 2.92066,0.78065 5.8495,1.35234 5.81381,1.13483 7.24544,1.23442 8.14249,0.56639 z m 41.58553,-8.8182 c 0.31508,-0.16293 0.80021,-0.63978 1.07807,-1.05967 0.84646,-1.27911 0.7426,-1.96597 -1.4453,-9.55748 -1.95156,-6.77148 -2.42836,-8.069 -3.38124,-9.20145 -1.09094,-1.29654 -0.59305,-1.17352 -18.75927,-4.63518 -15.69106,-2.99002 -17.25861,-3.25627 -18.00688,-3.05853 -1.05599,0.27905 -2.33752,1.09983 -3.34186,2.14036 -1.44077,1.49268 -8.67731,11.64159 -8.90571,12.48985 -0.40419,1.50103 0.21733,3.00524 1.5476,3.74552 0.46933,0.26118 7.93882,1.75353 24.55205,4.90531 13.13263,2.49146 24.00696,4.56542 24.16518,4.60879 0.50808,0.13926 1.90696,-0.0722 2.49736,-0.37752 z"
       id="path1246"
       inkscape:connector-curvature="0" /><path
       style="opacity:1;fill:#e7ffd8;fill-opacity:1;stroke:none;stroke-width:2.5;stroke-linecap:round;stroke-linejoin:miter;stroke-miterlimit:4;stroke-dasharray:none;stroke-opacity:1"
       d="m 418.14491,-285.32117 h 55.21238 c 5.97914,8.69121 17.03447,7.96671 21.86373,0 h 19.77807 v 12.64079 h -96.85418 z"
       id="path1248"
       inkscape:connector-curvature="0"
       sodipodi:nodetypes="ccccccc" /><path
       style="fill:none;stroke:#424143;stroke-width:2.5;stroke-miterlimit:4;stroke-dasharray:none;stroke-opacity:1"
       inkscape:connector-curvature="0"
       d="m 496.57492,-325.49262 c -0.32463,-0.0618 -0.66593,-0.0803 -1.01634,-0.0508 l -3.67606,0.29777 -1.9811,-9.69509 c -0.53413,-2.61511 -2.89959,-5.15065 -5.49098,-6.03642 l -36.66326,-6.97403 c -2.73587,-0.12757 -5.86858,1.36238 -7.32395,3.5988 l -5.39624,8.27752 -3.26629,-1.60407 c -0.31363,-0.15567 -0.63913,-0.26564 -0.96223,-0.32709 -1.77784,-0.33605 -3.32596,0.77488 -3.68168,2.64504 l -0.36367,1.91194 c -0.41554,2.18463 1.02412,4.2987 3.20691,4.71391 l 0.25385,0.0483 -0.77179,1.18368 c -1.50329,2.30803 -3.14649,6.38772 -3.66145,9.09508 l -3.4123,17.93965 c -0.41521,2.18284 1.0241,4.29869 3.2069,4.7139 l 4.76177,0.90577 c 2.18458,0.41555 4.29841,-1.02443 4.7136,-3.20727 l 0.83863,-4.40898 42.85113,8.15107 -0.83864,4.40897 c -0.4152,2.18284 1.02309,4.2985 3.20716,4.71395 l 4.76025,0.90548 c 2.18407,0.41545 4.2989,-1.02434 4.7141,-3.20717 l 3.41231,-17.93966 c 0.51497,-2.70735 0.48382,-7.10553 -0.0668,-9.80426 l -0.28332,-1.38438 0.30452,0.0579 c 2.18458,0.41555 4.29832,-1.0226 4.71385,-3.20722 l 0.36367,-1.91194 c 0.35568,-1.8699 -0.67504,-3.47219 -2.45249,-3.81029 m -59.85361,-4.24388 7.60835,-10.46714 c 0,0 2.37499,-2.77962 4.11704,-2.44826 l 33.17884,6.31122 c 1.74205,0.33137 2.74125,3.75284 2.74125,3.75284 l 3.61043,12.60114 c 0.35538,1.73792 -0.77885,2.88935 -2.52218,2.55774 l -47.32645,-9.00236 c -1.74232,-0.33142 -2.37613,-1.81917 -1.40728,-3.30518 m 9.32448,20.00862 c -0.16563,0.87079 -1.01348,1.44877 -1.88578,1.28284 l -10.70699,-2.03667 c -0.87129,-0.16574 -1.4485,-1.01477 -1.28288,-1.88557 l 0.96616,-5.07939 c 0.16592,-0.87232 1.01425,-1.44862 1.88554,-1.28289 l 10.70699,2.03667 c 0.8723,0.16593 1.44904,1.01331 1.28311,1.88562 z m 39.68577,7.54896 c -0.16563,0.8708 -1.01451,1.44856 -1.88553,1.28288 l -10.70673,-2.03662 c -0.8718,-0.16582 -1.44876,-1.01482 -1.28312,-1.88561 l 0.96615,-5.07939 c 0.16592,-0.87231 1.01399,-1.44867 1.88579,-1.28284 l 10.70673,2.03662 c 0.87103,0.16568 1.44879,1.01325 1.28287,1.88557 z"
       id="path1250"
       sodipodi:nodetypes="ccccccccccsssccsssssccsssssccssscccssccsscssssssssssssssssss" /><path
       style="fill:none;stroke:#424143;stroke-width:2.5;stroke-linecap:square;stroke-linejoin:miter;stroke-miterlimit:4;stroke-dasharray:none;stroke-opacity:1"
       d="m 419.46344,-285.32118 54.10999,0.0678 c 3.17621,8.64803 18.99868,8.43818 21.83386,-0.0678 h 18.30789"
       id="path1252"
       inkscape:connector-curvature="0"
       sodipodi:nodetypes="cccc" /></g></svg>