<?xml version="1.0" encoding="UTF-8" standalone="no"?>
<!-- Generator: Adobe Illustrator 14.0.0, SVG Export Plug-In . SVG Version: 6.00 Build 43363)  -->

<svg
   xmlns:dc="http://purl.org/dc/elements/1.1/"
   xmlns:cc="http://creativecommons.org/ns#"
   xmlns:rdf="http://www.w3.org/1999/02/22-rdf-syntax-ns#"
   xmlns:svg="http://www.w3.org/2000/svg"
   xmlns="http://www.w3.org/2000/svg"
   xmlns:sodipodi="http://sodipodi.sourceforge.net/DTD/sodipodi-0.dtd"
   xmlns:inkscape="http://www.inkscape.org/namespaces/inkscape"
   version="1.1"
   id="Layer_1"
   inkscape:version="0.92.2 (5c3e80d, 2017-08-06)"
   sodipodi:docname="recycling.svg"
   x="0px"
   y="0px"
   width="100"
   height="100"
   viewBox="416.572 -360.945 100 100"
   enable-background="new 416.572 -360.945 595.275 841.89"
   xml:space="preserve"
   inkscape:export-filename="C:\Users\holly.jones\Downloads\volcano_pixelhint_12th_jan-20180116T210822Z-001\volcano_pixelhint_12th_jan\volcano_pixelhint\img\hedges_icon_100_white.png"
   inkscape:export-xdpi="149.93106"
   inkscape:export-ydpi="149.93106"><metadata
     id="metadata326"><rdf:RDF><cc:Work
         rdf:about=""><dc:format>image/svg+xml</dc:format><dc:type
           rdf:resource="http://purl.org/dc/dcmitype/StillImage" /><dc:title /></cc:Work></rdf:RDF></metadata><defs
     id="defs324" /><sodipodi:namedview
     id="namedview230"
     inkscape:pageshadow="2"
     inkscape:window-width="1680"
     inkscape:window-height="987"
     inkscape:window-x="1912"
     inkscape:window-y="23"
     inkscape:current-layer="Layer_1"
     inkscape:pageopacity="0"
     gridtolerance="10"
     inkscape:zoom="4.04"
     inkscape:cy="37.629637"
     guidetolerance="10"
     bordercolor="#666666"
     showgrid="false"
     borderopacity="1"
     objecttolerance="10"
     inkscape:cx="62.528947"
     pagecolor="#ffffff"
     inkscape:window-maximized="1"
     inkscape:snap-nodes="false" /><g
     id="g1240"><path
       style="fill:#ffffff;fill-opacity:1;stroke:#424143;stroke-width:2.5546;stroke-linecap:round;stroke-linejoin:round;stroke-miterlimit:10"
       inkscape:connector-curvature="0"
       d="m 451.20727,-329.23559 c -0.1353,-2.87466 -2.34247,-4.14804 -4.89911,-2.82734 l -17.85329,9.21087 c -2.56079,1.32153 -2.61143,3.58025 -0.11787,5.02048 l 4.09892,2.36581 -8.00693,13.8686 c -3.66064,6.34202 -3.89389,13.21613 -0.6375,18.85837 3.36431,5.82486 9.87958,9.4433 17.01243,9.44579 h 8.71332 c -1.71328,-1.82125 -2.66206,-4.10571 -2.66206,-6.54705 0,-2.43969 0.94961,-4.72165 2.6604,-6.54291 h -8.71166 c -2.3956,0 -4.67831,-1.16547 -5.67939,-2.90039 -0.89316,-1.54981 -0.679,-3.4906 0.63916,-5.77008 l 8.00527,-13.86611 4.10224,2.36664 c 2.4894,1.43857 4.42099,0.26314 4.28402,-2.61152 z m 6.05542,-3.09215 4.36454,-7.55729 c 1.19614,-2.07527 3.34853,-3.46736 5.35068,-3.46736 1.78798,0.002 3.36347,1.15634 4.6808,3.43581 l 8.00692,13.86943 -4.09809,2.36581 c -2.49604,1.4394 -2.44208,3.69896 0.11787,5.01717 l 17.8533,9.21253 c 2.55912,1.31904 4.76132,0.0481 4.89662,-2.82984 l 0.94961,-20.06618 c 0.13779,-2.87715 -1.79131,-4.05341 -4.28652,-2.61152 l -4.09809,2.36664 -8.00692,-13.87026 c -3.66064,-6.34119 -9.50023,-9.97955 -16.0155,-9.97955 -6.72695,0 -13.11937,3.83593 -16.68455,10.01192 l -4.37617,7.57971 c 0.77613,-0.18262 1.55391,-0.27974 2.33999,-0.27974 4.30893,8.3e-4 7.77035,2.73686 9.00551,6.80272 z m 51.59924,30.69819 -4.36621,-7.56559 c -1.23598,4.07084 -4.69823,6.80937 -9.00965,6.80937 h -0.003 c -0.77862,0 -1.55972,-0.0938 -2.33169,-0.27643 l 4.37617,7.57722 c 1.19614,2.07278 1.32812,4.63283 0.32622,6.36609 -0.89483,1.54898 -2.68281,2.33509 -5.31665,2.33509 h -16.01218 v -4.7341 c 0,-2.8813 -1.98388,-3.96293 -4.40522,-2.40565 l -16.90285,10.85531 c -2.42134,1.55645 -2.42134,4.10239 0,5.65552 l 16.90285,10.85946 c 2.423,1.55479 4.40522,0.46984 4.40522,-2.40731 v -4.73327 h 16.01218 c 7.32377,0 13.39495,-3.23825 16.65301,-8.88048 3.36181,-5.8257 3.23647,-13.28006 -0.32788,-19.45523 z"
       stroke-miterlimit="10"
       id="path1233" /><path
       style="fill:#b8e69a;stroke-width:0.99999994"
       d="m 463.02276,-270.69971 c -4.78623,-3.06227 -9.02377,-5.84894 -9.41722,-6.19094 -0.85498,-0.74212 -0.92637,-1.92336 -0.15855,-2.61567 1.05088,-0.94798 17.93381,-11.67048 18.66511,-11.8531 1.09155,-0.27393 1.4186,0.66243 1.4186,4.07417 0,1.89015 0.13945,3.1129 0.38184,3.35612 0.50302,0.50304 16.98337,0.5321 19.30925,0.0324 2.1142,-0.4524 3.90634,-2.10432 4.44672,-4.09823 0.62007,-2.28114 0.0465,-4.48009 -2.16982,-8.3127 l -1.89673,-3.27726 1.63608,-0.19009 c 2.24868,-0.26149 4.62602,-1.54981 6.27787,-3.40178 l 1.38872,-1.55645 1.8519,3.16353 c 2.71519,4.63781 3.44067,6.74628 3.62495,10.56229 0.18926,3.85169 -0.22993,6.09215 -1.67759,8.97096 -1.80541,3.59188 -4.69159,6.15608 -8.88099,7.88519 l -2.22211,0.91893 -10.63744,0.16021 c -5.85121,0.0888 -10.8159,0.27726 -11.03587,0.41837 -0.26895,0.17682 -0.39678,1.20947 -0.39678,3.27561 0,3.20587 -0.30215,4.24766 -1.23017,4.24766 -0.3146,0 -4.48989,-2.50693 -9.27777,-5.56919 z"
       inkscape:connector-curvature="0"
       id="path3958_1_" /><path
       style="fill:#b8e69a;stroke-width:0.99999994"
       d="m 483.53396,-313.43529 c -5.06513,-2.62729 -9.47284,-5.0346 -9.79823,-5.34921 -0.96289,-0.93802 -0.38931,-1.70089 2.49936,-3.32126 2.10508,-1.18207 2.69443,-1.66519 2.69443,-2.2114 0,-0.90648 -8.28998,-15.26733 -9.61976,-16.66772 -2.01543,-2.11761 -4.4102,-2.48949 -7.17767,-1.10986 -1.84693,0.91976 -2.63135,1.85778 -4.96718,5.93195 l -1.52652,2.66298 -0.98779,-1.30243 c -1.28413,-1.68761 -3.9329,-3.26233 -6.26293,-3.71971 -1.01601,-0.20006 -1.84609,-0.41506 -1.84609,-0.47649 0,-0.0631 0.9521,-1.7233 2.12085,-3.69065 3.33027,-5.619 6.15419,-8.15581 11.1388,-10.01192 1.70581,-0.63338 2.75585,-0.80023 5.15727,-0.81849 4.30395,-0.0315 7.3578,1.08329 10.81507,3.94716 2.0478,1.69591 3.54526,3.88822 8.3348,12.19842 3.22485,5.59327 4.37036,7.32653 4.89413,7.4029 0.38267,0.0556 1.79546,-0.54123 3.19746,-1.34976 1.38208,-0.79607 2.74258,-1.44853 3.02563,-1.44853 1.15879,0 1.21108,0.94466 0.67734,11.99006 -0.5603,11.61735 -0.66406,12.1536 -2.29516,12.13285 -0.47812,-0.007 -4.97631,-2.145 -10.07381,-4.78889 z"
       inkscape:connector-curvature="0"
       id="path3960_1_" /><path
       style="fill:#b8e69a;stroke-width:0.99999994"
       d="m 434.0124,-273.5586 c -5.91098,-1.6212 -10.53534,-5.92946 -12.43289,-11.57751 -0.7728,-2.2969 -0.76948,-6.75624 0.003,-9.35613 0.72715,-2.44384 1.35136,-3.65413 6.30941,-12.21752 3.12939,-5.40649 4.04829,-7.24185 3.81587,-7.61208 -0.16934,-0.26896 -1.36631,-1.11069 -2.6604,-1.87023 -1.29575,-0.76038 -2.54668,-1.57057 -2.78408,-1.80051 -1.05337,-1.02601 -0.15024,-1.64527 9.96674,-6.83925 10.27303,-5.2745 10.85657,-5.4812 11.58787,-4.11484 0.1793,0.33204 0.56113,5.54512 0.84751,11.58332 0.49555,10.34645 0.49389,11.00722 -0.0183,11.51856 -0.59434,0.5927 -0.64497,0.57195 -5.19629,-2.00388 -1.65351,-0.93636 -1.66347,-0.93885 -2.25282,-0.3088 -0.65992,0.70559 -8.05756,13.49921 -8.97895,15.53131 -1.16874,2.57582 -0.63002,5.29276 1.40864,7.0833 1.66763,1.46348 3.80757,1.99309 8.05673,1.99309 h 3.60253 l -0.43994,0.8741 c -1.02431,2.03625 -1.21357,5.89127 -0.381,7.87938 0.26645,0.64167 0.48725,1.29414 0.48725,1.44771 -0.002,0.45157 -9.16903,0.27642 -10.94124,-0.21002 z"
       inkscape:connector-curvature="0"
       id="path3962_1_" /><path
       id="path156_1_"
       stroke-miterlimit="10"
       d="m 451.20727,-329.23559 c -0.1353,-2.87466 -2.34247,-4.14804 -4.89911,-2.82734 l -17.85329,9.21087 c -2.56079,1.32153 -2.61143,3.58025 -0.11787,5.02048 l 4.09892,2.36581 -8.00693,13.8686 c -3.66064,6.34202 -3.89389,13.21613 -0.6375,18.85837 3.36431,5.82486 9.87958,9.4433 17.01243,9.44579 h 8.71332 c -1.71328,-1.82125 -2.66206,-4.10571 -2.66206,-6.54705 0,-2.43969 0.94961,-4.72165 2.6604,-6.54291 h -8.71166 c -2.3956,0 -4.67831,-1.16547 -5.67939,-2.90039 -0.89316,-1.54981 -0.679,-3.4906 0.63916,-5.77008 l 8.00527,-13.86611 4.10224,2.36664 c 2.4894,1.43857 4.42099,0.26314 4.28402,-2.61152 z m 6.05542,-3.09215 4.36454,-7.55729 c 1.19614,-2.07527 3.34853,-3.46736 5.35068,-3.46736 1.78798,0.002 3.36347,1.15634 4.6808,3.43581 l 8.00692,13.86943 -4.09809,2.36581 c -2.49604,1.4394 -2.44208,3.69896 0.11787,5.01717 l 17.8533,9.21253 c 2.55912,1.31904 4.76132,0.0481 4.89662,-2.82984 l 0.94961,-20.06618 c 0.13779,-2.87715 -1.79131,-4.05341 -4.28652,-2.61152 l -4.09809,2.36664 -8.00692,-13.87026 c -3.66064,-6.34119 -9.50023,-9.97955 -16.0155,-9.97955 -6.72695,0 -13.11937,3.83593 -16.68455,10.01192 l -4.37617,7.57971 c 0.77613,-0.18262 1.55391,-0.27974 2.33999,-0.27974 4.30893,8.3e-4 7.77035,2.73686 9.00551,6.80272 z m 51.59924,30.69819 -4.36621,-7.56559 c -1.23598,4.07084 -4.69823,6.80937 -9.00965,6.80937 h -0.003 c -0.77862,0 -1.55972,-0.0938 -2.33169,-0.27643 l 4.37617,7.57722 c 1.19614,2.07278 1.32812,4.63283 0.32622,6.36609 -0.89483,1.54898 -2.68281,2.33509 -5.31665,2.33509 h -16.01218 v -4.7341 c 0,-2.8813 -1.98388,-3.96293 -4.40522,-2.40565 l -16.90285,10.85531 c -2.42134,1.55645 -2.42134,4.10239 0,5.65552 l 16.90285,10.85946 c 2.423,1.55479 4.40522,0.46984 4.40522,-2.40731 v -4.73327 h 16.01218 c 7.32377,0 13.39495,-3.23825 16.65301,-8.88048 3.36181,-5.8257 3.23647,-13.28006 -0.32788,-19.45523 z"
       inkscape:connector-curvature="0"
       style="fill:none;stroke:#424143;stroke-width:2.5546;stroke-linecap:round;stroke-linejoin:round;stroke-miterlimit:10" /></g><text
     xml:space="preserve"
     style="font-style:normal;font-weight:normal;font-size:40px;line-height:125%;font-family:Sans;letter-spacing:0px;word-spacing:0px;fill:#000000;fill-opacity:1;stroke:none;stroke-width:1px;stroke-linecap:butt;stroke-linejoin:miter;stroke-opacity:1"
     x="566.7934"
     y="-274.51813"
     id="text5063"><tspan
       sodipodi:role="line"
       id="tspan5061"
       x="566.7934"
       y="-239.1275" /></text>
<path
     d="M 1049.2848,-347.50267"
     stroke-miterlimit="10"
     id="path1720"
     inkscape:connector-curvature="0"
     style="fill:none;stroke:#010101;stroke-width:2.76591682;stroke-linejoin:round;stroke-miterlimit:10" /></svg>