<?xml version="1.0" encoding="UTF-8" standalone="no"?>
<!-- Generator: Adobe Illustrator 14.0.0, SVG Export Plug-In . SVG Version: 6.00 Build 43363)  -->

<svg
   xmlns:dc="http://purl.org/dc/elements/1.1/"
   xmlns:cc="http://creativecommons.org/ns#"
   xmlns:rdf="http://www.w3.org/1999/02/22-rdf-syntax-ns#"
   xmlns:svg="http://www.w3.org/2000/svg"
   xmlns="http://www.w3.org/2000/svg"
   xmlns:sodipodi="http://sodipodi.sourceforge.net/DTD/sodipodi-0.dtd"
   xmlns:inkscape="http://www.inkscape.org/namespaces/inkscape"
   version="1.1"
   id="Layer_1"
   inkscape:version="0.92.2 (5c3e80d, 2017-08-06)"
   sodipodi:docname="river.svg"
   x="0px"
   y="0px"
   width="100"
   height="100"
   viewBox="416.572 -360.945 100 100"
   enable-background="new 416.572 -360.945 595.275 841.89"
   xml:space="preserve"
   inkscape:export-filename="C:\Users\holly.jones\Downloads\volcano_pixelhint_12th_jan-20180116T210822Z-001\volcano_pixelhint_12th_jan\volcano_pixelhint\img\hedges_icon_100_white.png"
   inkscape:export-xdpi="149.93106"
   inkscape:export-ydpi="149.93106"><metadata
     id="metadata326"><rdf:RDF><cc:Work
         rdf:about=""><dc:format>image/svg+xml</dc:format><dc:type
           rdf:resource="http://purl.org/dc/dcmitype/StillImage" /><dc:title /></cc:Work></rdf:RDF></metadata><defs
     id="defs324"><clipPath
       clipPathUnits="userSpaceOnUse"
       id="clipPath1282"><rect
         ry="9.0558882"
         y="-355.80136"
         x="430.07397"
         height="89.648712"
         width="90.322769"
         id="rect1284"
         style="opacity:1;fill:#b8e69a;fill-opacity:1;stroke:none;stroke-width:1.99999988;stroke-linecap:round;stroke-linejoin:round;stroke-miterlimit:8.36363602;stroke-dasharray:none;stroke-opacity:1" /></clipPath><clipPath
       clipPathUnits="userSpaceOnUse"
       id="clipPath1282-3"><rect
         ry="9.0558882"
         y="-355.80136"
         x="430.07397"
         height="89.648712"
         width="90.322769"
         id="rect1284-8"
         style="opacity:1;fill:#b8e69a;fill-opacity:1;stroke:none;stroke-width:1.99999988;stroke-linecap:round;stroke-linejoin:round;stroke-miterlimit:8.36363602;stroke-dasharray:none;stroke-opacity:1" /></clipPath></defs><sodipodi:namedview
     id="namedview230"
     inkscape:pageshadow="2"
     inkscape:window-width="1680"
     inkscape:window-height="987"
     inkscape:window-x="1912"
     inkscape:window-y="23"
     inkscape:current-layer="Layer_1"
     inkscape:pageopacity="0"
     gridtolerance="10"
     inkscape:zoom="0.505"
     inkscape:cy="-150.9131"
     guidetolerance="10"
     bordercolor="#666666"
     showgrid="false"
     borderopacity="1"
     objecttolerance="10"
     inkscape:cx="-335.3236"
     pagecolor="#ffffff"
     inkscape:window-maximized="1"
     inkscape:snap-nodes="false" /><text
     xml:space="preserve"
     style="font-style:normal;font-weight:normal;font-size:40px;line-height:125%;font-family:Sans;letter-spacing:0px;word-spacing:0px;fill:#000000;fill-opacity:1;stroke:none;stroke-width:1px;stroke-linecap:butt;stroke-linejoin:miter;stroke-opacity:1"
     x="566.7934"
     y="-274.51813"
     id="text5063"><tspan
       sodipodi:role="line"
       id="tspan5061"
       x="566.7934"
       y="-239.1275" /></text>
<g
     id="g1513"
     transform="translate(7.1081055e-6,-120)"><g
       id="g1300"
       transform="translate(-8.6633663,120.032)"
       clip-path="url(#clipPath1282-3)"
       style="fill:#424143;fill-opacity:1"><path
         style="fill:#424143;fill-opacity:1;stroke-width:1"
         inkscape:connector-curvature="0"
         id="path1288"
         d="m 568.38535,-291.0278 c -0.83705,0.83706 -1.59801,1.67411 -2.51116,2.28288 -0.91315,0.60876 -1.97849,0.83705 -3.27211,0.83705 -1.29363,0 -2.28288,-0.30438 -3.27212,-0.83705 -0.91315,-0.53267 -1.67411,-1.36973 -2.51116,-2.28288 -1.8263,-1.97849 -4.18527,-4.41355 -8.82711,-4.41355 -4.64184,0 -6.92471,2.43506 -8.8271,4.41355 -0.83705,0.83706 -1.59801,1.67411 -2.51116,2.28288 -0.91315,0.60876 -1.97849,0.83705 -3.27212,0.83705 -1.29363,0 -2.28287,-0.30438 -3.27211,-0.83705 -0.91315,-0.53267 -1.67411,-1.36973 -2.51116,-2.28288 -1.8263,-1.97849 -4.18527,-4.41355 -8.82711,-4.41355 -4.64184,0 -6.92471,2.43506 -8.82711,4.41355 -0.83705,0.83706 -1.59801,1.67411 -2.51116,2.28288 -0.91314,0.60876 -1.97848,0.83705 -3.27211,0.83705 -1.29363,0 -2.28287,-0.30438 -3.27212,-0.83705 -0.91315,-0.53267 -1.67411,-1.36973 -2.51116,-2.28288 -1.8263,-1.97849 -4.18526,-4.41355 -8.8271,-4.41355 v 0 c 0,0 0,0 0,0 0,0 0,0 0,0 v 0 c -4.64184,0 -6.92472,2.43506 -8.82711,4.41355 -0.83705,0.83706 -1.59801,1.67411 -2.51116,2.28288 -0.91315,0.60876 -1.97849,0.83705 -3.27212,0.83705 -1.29362,0 -2.28287,-0.30438 -3.27211,-0.83705 -0.91315,-0.53267 -1.67411,-1.36973 -2.51116,-2.28288 -1.8263,-1.97849 -4.18527,-4.41355 -8.82711,-4.41355 -4.64184,0 -6.92471,2.43506 -8.8271,4.41355 -0.83706,0.83706 -1.59801,1.67411 -2.51116,2.28288 -0.91315,0.60876 -1.97849,0.83705 -3.27212,0.83705 -1.29363,0 -2.28287,-0.30438 -3.27212,-0.83705 -0.91315,-0.53267 -1.6741,-1.36973 -2.51116,-2.28288 -1.82629,-1.97849 -4.18526,-4.41355 -8.8271,-4.41355 -4.64184,0 -6.92471,2.43506 -8.82711,4.41355 -0.83705,0.83706 -1.59801,1.67411 -2.51116,2.28288 -0.91315,0.60876 -1.97849,0.83705 -3.27211,0.83705 -1.29363,0 -2.28288,-0.30438 -3.27212,-0.83705 -0.91315,-0.53267 -1.67411,-1.36973 -2.51116,-2.28288 -1.8263,-1.97849 -4.18527,-4.41355 -8.82711,-4.41355 v 3.95698 c 1.36973,0 2.43507,0.30438 3.42431,0.91315 0.91315,0.60876 1.7502,1.44582 2.51116,2.28287 0.98925,0.98925 1.90239,2.05459 3.27212,2.89164 1.59801,0.98924 3.34821,1.44582 5.3267,1.44582 2.05458,0 3.80479,-0.45658 5.3267,-1.44582 1.36972,-0.83705 2.28287,-1.90239 3.27212,-2.89164 0.83705,-0.91315 1.59801,-1.7502 2.51116,-2.28287 0.98924,-0.60877 2.05458,-0.91315 3.42431,-0.91315 1.36972,0 2.43506,0.30438 3.4243,0.91315 0.91315,0.60876 1.75021,1.44582 2.51116,2.28287 0.98925,0.98925 1.9024,2.05459 3.27212,2.89164 1.59801,0.98924 3.34821,1.44582 5.3267,1.44582 1.97849,0 3.80479,-0.45658 5.3267,-1.44582 1.36973,-0.83705 2.28288,-1.90239 3.27212,-2.89164 0.83705,-0.91315 1.59801,-1.7502 2.51116,-2.28287 0.98925,-0.60877 2.05459,-0.91315 3.42431,-0.91315 1.36972,0 2.43506,0.30438 3.42431,0.91315 0.91315,0.60876 1.7502,1.44582 2.51116,2.28287 0.98924,0.98925 1.90239,2.05459 3.27211,2.89164 1.59801,0.98924 3.34822,1.44582 5.32671,1.44582 2.05458,0 3.80478,-0.45658 5.3267,-1.44582 1.36972,-0.83705 2.28287,-1.90239 3.27211,-2.89164 0.83706,-0.91315 1.59801,-1.7502 2.51116,-2.28287 0.98925,-0.60877 2.05459,-0.91315 3.34822,-0.91315 1.36972,0 2.43506,0.30438 3.34821,0.91315 0.91315,0.60876 1.7502,1.44582 2.51116,2.28287 0.98924,0.98925 1.90239,2.05459 3.27211,2.89164 1.59802,0.98924 3.34822,1.44582 5.32671,1.44582 1.97849,0 3.80478,-0.45658 5.3267,-1.44582 1.36972,-0.83705 2.28287,-1.90239 3.27211,-2.89164 0.83706,-0.91315 1.59802,-1.7502 2.51116,-2.28287 0.98925,-0.60877 2.05459,-0.91315 3.42431,-0.91315 1.36973,0 2.43507,0.30438 3.42431,0.91315 0.91315,0.60876 1.7502,1.44582 2.51116,2.28287 0.98924,0.98925 1.90239,2.05459 3.27212,2.89164 1.59801,0.98924 3.34821,1.44582 5.3267,1.44582 2.05458,0 3.80479,-0.45658 5.3267,-1.44582 1.36972,-0.83705 2.28287,-1.90239 3.27212,-2.89164 0.83705,-0.91315 1.59801,-1.7502 2.51116,-2.28287 0.98924,-0.60877 2.05458,-0.91315 3.42431,-0.91315 1.36972,0 2.43506,0.30438 3.4243,0.91315 0.91315,0.60876 1.75021,1.44582 2.51116,2.28287 0.98925,0.98925 1.9024,2.05459 3.27212,2.89164 1.59801,0.98924 3.34821,1.44582 5.3267,1.44582 1.97849,0 3.80479,-0.45658 5.3267,-1.44582 1.36973,-0.83705 2.28288,-1.90239 3.27212,-2.89164 0.83705,-0.91315 1.59801,-1.7502 2.51116,-2.28287 0.98924,-0.60877 2.05458,-0.91315 3.42431,-0.91315 v -3.95698 c -3.5765,0 -5.93547,2.43506 -7.76177,4.41355 z"
         class="st1" /><path
         style="fill:#424143;fill-opacity:1;stroke-width:1"
         inkscape:connector-curvature="0"
         id="path1290"
         d="m 568.38535,-276.84054 c -0.83705,0.83705 -1.59801,1.67411 -2.51116,2.28287 -0.91315,0.60877 -1.97849,0.83706 -3.27211,0.83706 -1.29363,0 -2.28288,-0.30439 -3.27212,-0.83706 -0.91315,-0.53267 -1.67411,-1.36972 -2.51116,-2.28287 -1.8263,-1.97849 -4.18527,-4.41355 -8.82711,-4.41355 -4.64184,0 -6.92471,2.43506 -8.8271,4.41355 -0.83705,0.83705 -1.59801,1.67411 -2.51116,2.28287 -0.91315,0.60877 -1.97849,0.83706 -3.27212,0.83706 -1.29363,0 -2.28287,-0.30439 -3.27211,-0.83706 -0.91315,-0.53267 -1.67411,-1.36972 -2.51116,-2.28287 -1.8263,-1.97849 -4.18527,-4.41355 -8.82711,-4.41355 -4.64184,0 -6.92471,2.43506 -8.82711,4.41355 -0.83705,0.83705 -1.59801,1.67411 -2.51116,2.28287 -0.91314,0.60877 -1.97848,0.83706 -3.27211,0.83706 -1.29363,0 -2.28287,-0.30439 -3.27212,-0.83706 -0.91315,-0.53267 -1.67411,-1.36972 -2.51116,-2.28287 -1.8263,-1.97849 -4.18526,-4.41355 -8.8271,-4.41355 v 0 c 0,0 0,0 0,0 0,0 0,0 0,0 v 0 c -4.64184,0 -6.92472,2.43506 -8.82711,4.41355 -0.83705,0.83705 -1.59801,1.67411 -2.51116,2.28287 -0.91315,0.60877 -1.97849,0.83706 -3.27212,0.83706 -1.29362,0 -2.28287,-0.30439 -3.27211,-0.83706 -0.91315,-0.53267 -1.67411,-1.36972 -2.51116,-2.28287 -1.8263,-1.97849 -4.18527,-4.41355 -8.82711,-4.41355 -4.64184,0 -6.92471,2.43506 -8.8271,4.41355 -0.83706,0.83705 -1.59801,1.67411 -2.51116,2.28287 -0.91315,0.60877 -1.97849,0.83706 -3.27212,0.83706 -1.29363,0 -2.28287,-0.30439 -3.27212,-0.83706 -0.91315,-0.53267 -1.6741,-1.36972 -2.51116,-2.28287 -1.82629,-1.97849 -4.18526,-4.41355 -8.8271,-4.41355 -4.64184,0 -6.92471,2.43506 -8.82711,4.41355 -0.83705,0.83705 -1.59801,1.67411 -2.51116,2.28287 -0.91315,0.60877 -1.97849,0.83706 -3.27211,0.83706 -1.29363,0 -2.28288,-0.30439 -3.27212,-0.83706 -0.91315,-0.53267 -1.67411,-1.36972 -2.51116,-2.28287 -1.8263,-1.97849 -4.18527,-4.41355 -8.82711,-4.41355 v 3.95698 c 1.36973,0 2.43507,0.30438 3.42431,0.91314 0.91315,0.60877 1.7502,1.44582 2.51116,2.28288 0.98925,0.98924 1.90239,2.05458 3.27212,2.89163 1.59801,0.98925 3.34821,1.44582 5.3267,1.44582 2.05458,0 3.80479,-0.45657 5.3267,-1.44582 1.36972,-0.83705 2.28287,-1.90239 3.27212,-2.89163 0.83705,-0.91315 1.59801,-1.75021 2.51116,-2.28288 0.98924,-0.60876 2.05458,-0.91314 3.42431,-0.91314 1.36972,0 2.43506,0.30438 3.4243,0.91314 0.91315,0.60877 1.75021,1.44582 2.51116,2.28288 0.98925,0.98924 1.9024,2.05458 3.27212,2.89163 1.59801,0.98925 3.34821,1.44582 5.3267,1.44582 1.97849,0 3.80479,-0.45657 5.3267,-1.44582 1.36973,-0.83705 2.28288,-1.90239 3.27212,-2.89163 0.83705,-0.91315 1.59801,-1.75021 2.51116,-2.28288 0.98925,-0.60876 2.05459,-0.91314 3.42431,-0.91314 1.36972,0 2.43506,0.30438 3.42431,0.91314 0.91315,0.60877 1.7502,1.44582 2.51116,2.28288 0.98924,0.98924 1.90239,2.05458 3.27211,2.89163 1.59801,0.98925 3.34822,1.44582 5.32671,1.44582 2.05458,0 3.80478,-0.45657 5.3267,-1.44582 1.36972,-0.83705 2.28287,-1.90239 3.27211,-2.89163 0.83706,-0.91315 1.59801,-1.75021 2.51116,-2.28288 0.98925,-0.60876 2.05459,-0.91314 3.34822,-0.91314 1.36972,0 2.43506,0.30438 3.34821,0.91314 0.91315,0.60877 1.7502,1.44582 2.51116,2.28288 0.98924,0.98924 1.90239,2.05458 3.27211,2.89163 1.59802,0.98925 3.34822,1.44582 5.32671,1.44582 1.97849,0 3.80478,-0.45657 5.3267,-1.44582 1.36972,-0.83705 2.28287,-1.90239 3.27211,-2.89163 0.83706,-0.91315 1.59802,-1.75021 2.51116,-2.28288 0.98925,-0.60876 2.05459,-0.91314 3.42431,-0.91314 1.36973,0 2.43507,0.30438 3.42431,0.91314 0.91315,0.60877 1.7502,1.44582 2.51116,2.28288 0.98924,0.98924 1.90239,2.05458 3.27212,2.89163 1.59801,0.98925 3.34821,1.44582 5.3267,1.44582 2.05458,0 3.80479,-0.45657 5.3267,-1.44582 1.36972,-0.83705 2.28287,-1.90239 3.27212,-2.89163 0.83705,-0.91315 1.59801,-1.75021 2.51116,-2.28288 0.98924,-0.60876 2.05458,-0.91314 3.42431,-0.91314 1.36972,0 2.43506,0.30438 3.4243,0.91314 0.91315,0.60877 1.75021,1.44582 2.51116,2.28288 0.98925,0.98924 1.9024,2.05458 3.27212,2.89163 1.59801,0.98925 3.34821,1.44582 5.3267,1.44582 1.97849,0 3.80479,-0.45657 5.3267,-1.44582 1.36973,-0.83705 2.28288,-1.90239 3.27212,-2.89163 0.83705,-0.91315 1.59801,-1.75021 2.51116,-2.28288 0.98924,-0.60876 2.05458,-0.91314 3.42431,-0.91314 v -3.95698 c -3.5765,0 -5.93547,2.43506 -7.76177,4.41355 z"
         class="st1" /><path
         class="st1"
         d="m 568.38535,-319.40231 c -0.83705,0.83706 -1.59801,1.67411 -2.51116,2.28288 -0.91315,0.60876 -1.97849,0.83705 -3.27211,0.83705 -1.29363,0 -2.28288,-0.30438 -3.27212,-0.83705 -0.91315,-0.53267 -1.67411,-1.36973 -2.51116,-2.28288 -1.8263,-1.97849 -4.18527,-4.41355 -8.82711,-4.41355 -4.64184,0 -6.92471,2.43506 -8.8271,4.41355 -0.83705,0.83706 -1.59801,1.67411 -2.51116,2.28288 -0.91315,0.60876 -1.97849,0.83705 -3.27212,0.83705 -1.29363,0 -2.28287,-0.30438 -3.27211,-0.83705 -0.91315,-0.53267 -1.67411,-1.36973 -2.51116,-2.28288 -1.8263,-1.97849 -4.18527,-4.41355 -8.82711,-4.41355 -4.64184,0 -6.92471,2.43506 -8.82711,4.41355 -0.83705,0.83706 -1.59801,1.67411 -2.51116,2.28288 -0.91314,0.60876 -1.97848,0.83705 -3.27211,0.83705 -1.29363,0 -2.28287,-0.30438 -3.27212,-0.83705 -0.91315,-0.53267 -1.67411,-1.36973 -2.51116,-2.28288 -1.8263,-1.97849 -4.18526,-4.41355 -8.8271,-4.41355 v 0 c 0,0 0,0 0,0 0,0 0,0 0,0 v 0 c -4.64184,0 -6.92472,2.43506 -8.82711,4.41355 -0.83705,0.83706 -1.59801,1.67411 -2.51116,2.28288 -0.91315,0.60876 -1.97849,0.83705 -3.27212,0.83705 -1.29362,0 -2.28287,-0.30438 -3.27211,-0.83705 -0.91315,-0.53267 -1.67411,-1.36973 -2.51116,-2.28288 -1.8263,-1.97849 -4.18527,-4.41355 -8.82711,-4.41355 -4.64184,0 -6.92471,2.43506 -8.8271,4.41355 -0.83706,0.83706 -1.59801,1.67411 -2.51116,2.28288 -0.91315,0.60876 -1.97849,0.83705 -3.27212,0.83705 -1.29363,0 -2.28287,-0.30438 -3.27212,-0.83705 -0.91315,-0.53267 -1.6741,-1.36973 -2.51116,-2.28288 -1.82629,-1.97849 -4.18526,-4.41355 -8.8271,-4.41355 -4.64184,0 -6.92471,2.43506 -8.82711,4.41355 -0.83705,0.83706 -1.59801,1.67411 -2.51116,2.28288 -0.91315,0.60876 -1.97849,0.83705 -3.27211,0.83705 -1.29363,0 -2.28288,-0.30438 -3.27212,-0.83705 -0.91315,-0.53267 -1.67411,-1.36973 -2.51116,-2.28288 -1.8263,-1.97849 -4.18527,-4.41355 -8.82711,-4.41355 v 3.95698 c 1.36973,0 2.43507,0.30438 3.42431,0.91315 0.91315,0.60876 1.7502,1.44582 2.51116,2.28287 0.98925,0.98925 1.90239,2.05459 3.27212,2.89164 1.59801,0.98924 3.34821,1.44582 5.3267,1.44582 2.05458,0 3.80479,-0.45658 5.3267,-1.44582 1.36972,-0.83705 2.28287,-1.90239 3.27212,-2.89164 0.83705,-0.91315 1.59801,-1.7502 2.51116,-2.28287 0.98924,-0.60877 2.05458,-0.91315 3.42431,-0.91315 1.36972,0 2.43506,0.30438 3.4243,0.91315 0.91315,0.60876 1.75021,1.44582 2.51116,2.28287 0.98925,0.98925 1.9024,2.05459 3.27212,2.89164 1.59801,0.98924 3.34821,1.44582 5.3267,1.44582 1.97849,0 3.80479,-0.45658 5.3267,-1.44582 1.36973,-0.83705 2.28288,-1.90239 3.27212,-2.89164 0.83705,-0.91315 1.59801,-1.7502 2.51116,-2.28287 0.98925,-0.60877 2.05459,-0.91315 3.42431,-0.91315 1.36972,0 2.43506,0.30438 3.42431,0.91315 0.91315,0.60876 1.7502,1.44582 2.51116,2.28287 0.98924,0.98925 1.90239,2.05459 3.27211,2.89164 1.59801,0.98924 3.34822,1.44582 5.32671,1.44582 2.05458,0 3.80478,-0.45658 5.3267,-1.44582 1.36972,-0.83705 2.28287,-1.90239 3.27211,-2.89164 0.83706,-0.91315 1.59801,-1.7502 2.51116,-2.28287 0.98925,-0.60877 2.05459,-0.91315 3.34822,-0.91315 1.36972,0 2.43506,0.30438 3.34821,0.91315 0.91315,0.60876 1.7502,1.44582 2.51116,2.28287 0.98924,0.98925 1.90239,2.05459 3.27211,2.89164 1.59802,0.98924 3.34822,1.44582 5.32671,1.44582 1.97849,0 3.80478,-0.45658 5.3267,-1.44582 1.36972,-0.83705 2.28287,-1.90239 3.27211,-2.89164 0.83706,-0.91315 1.59802,-1.7502 2.51116,-2.28287 0.98925,-0.60877 2.05459,-0.91315 3.42431,-0.91315 1.36973,0 2.43507,0.30438 3.42431,0.91315 0.91315,0.60876 1.7502,1.44582 2.51116,2.28287 0.98924,0.98925 1.90239,2.05459 3.27212,2.89164 1.59801,0.98924 3.34821,1.44582 5.3267,1.44582 2.05458,0 3.80479,-0.45658 5.3267,-1.44582 1.36972,-0.83705 2.28287,-1.90239 3.27212,-2.89164 0.83705,-0.91315 1.59801,-1.7502 2.51116,-2.28287 0.98924,-0.60877 2.05458,-0.91315 3.42431,-0.91315 1.36972,0 2.43506,0.30438 3.4243,0.91315 0.91315,0.60876 1.75021,1.44582 2.51116,2.28287 0.98925,0.98925 1.9024,2.05459 3.27212,2.89164 1.59801,0.98924 3.34821,1.44582 5.3267,1.44582 1.97849,0 3.80479,-0.45658 5.3267,-1.44582 1.36973,-0.83705 2.28288,-1.90239 3.27212,-2.89164 0.83705,-0.91315 1.59801,-1.7502 2.51116,-2.28287 0.98924,-0.60877 2.05458,-0.91315 3.42431,-0.91315 v -3.95698 c -3.5765,0 -5.93547,2.43506 -7.76177,4.41355 z"
         id="path1292"
         inkscape:connector-curvature="0"
         style="fill:#424143;fill-opacity:1;stroke-width:1" /><path
         class="st1"
         d="m 568.38535,-305.21505 c -0.83705,0.83705 -1.59801,1.67411 -2.51116,2.28287 -0.91315,0.60877 -1.97849,0.83706 -3.27211,0.83706 -1.29363,0 -2.28288,-0.30439 -3.27212,-0.83706 -0.91315,-0.53267 -1.67411,-1.36972 -2.51116,-2.28287 -1.8263,-1.97849 -4.18527,-4.41355 -8.82711,-4.41355 -4.64184,0 -6.92471,2.43506 -8.8271,4.41355 -0.83705,0.83705 -1.59801,1.67411 -2.51116,2.28287 -0.91315,0.60877 -1.97849,0.83706 -3.27212,0.83706 -1.29363,0 -2.28287,-0.30439 -3.27211,-0.83706 -0.91315,-0.53267 -1.67411,-1.36972 -2.51116,-2.28287 -1.8263,-1.97849 -4.18527,-4.41355 -8.82711,-4.41355 -4.64184,0 -6.92471,2.43506 -8.82711,4.41355 -0.83705,0.83705 -1.59801,1.67411 -2.51116,2.28287 -0.91314,0.60877 -1.97848,0.83706 -3.27211,0.83706 -1.29363,0 -2.28287,-0.30439 -3.27212,-0.83706 -0.91315,-0.53267 -1.67411,-1.36972 -2.51116,-2.28287 -1.8263,-1.97849 -4.18526,-4.41355 -8.8271,-4.41355 v 0 c 0,0 0,0 0,0 0,0 0,0 0,0 v 0 c -4.64184,0 -6.92472,2.43506 -8.82711,4.41355 -0.83705,0.83705 -1.59801,1.67411 -2.51116,2.28287 -0.91315,0.60877 -1.97849,0.83706 -3.27212,0.83706 -1.29362,0 -2.28287,-0.30439 -3.27211,-0.83706 -0.91315,-0.53267 -1.67411,-1.36972 -2.51116,-2.28287 -1.8263,-1.97849 -4.18527,-4.41355 -8.82711,-4.41355 -4.64184,0 -6.92471,2.43506 -8.8271,4.41355 -0.83706,0.83705 -1.59801,1.67411 -2.51116,2.28287 -0.91315,0.60877 -1.97849,0.83706 -3.27212,0.83706 -1.29363,0 -2.28287,-0.30439 -3.27212,-0.83706 -0.91315,-0.53267 -1.6741,-1.36972 -2.51116,-2.28287 -1.82629,-1.97849 -4.18526,-4.41355 -8.8271,-4.41355 -4.64184,0 -6.92471,2.43506 -8.82711,4.41355 -0.83705,0.83705 -1.59801,1.67411 -2.51116,2.28287 -0.91315,0.60877 -1.97849,0.83706 -3.27211,0.83706 -1.29363,0 -2.28288,-0.30439 -3.27212,-0.83706 -0.91315,-0.53267 -1.67411,-1.36972 -2.51116,-2.28287 -1.8263,-1.97849 -4.18527,-4.41355 -8.82711,-4.41355 v 3.95698 c 1.36973,0 2.43507,0.30438 3.42431,0.91314 0.91315,0.60877 1.7502,1.44582 2.51116,2.28288 0.98925,0.98924 1.90239,2.05458 3.27212,2.89163 1.59801,0.98925 3.34821,1.44582 5.3267,1.44582 2.05458,0 3.80479,-0.45657 5.3267,-1.44582 1.36972,-0.83705 2.28287,-1.90239 3.27212,-2.89163 0.83705,-0.91315 1.59801,-1.75021 2.51116,-2.28288 0.98924,-0.60876 2.05458,-0.91314 3.42431,-0.91314 1.36972,0 2.43506,0.30438 3.4243,0.91314 0.91315,0.60877 1.75021,1.44582 2.51116,2.28288 0.98925,0.98924 1.9024,2.05458 3.27212,2.89163 1.59801,0.98925 3.34821,1.44582 5.3267,1.44582 1.97849,0 3.80479,-0.45657 5.3267,-1.44582 1.36973,-0.83705 2.28288,-1.90239 3.27212,-2.89163 0.83705,-0.91315 1.59801,-1.75021 2.51116,-2.28288 0.98925,-0.60876 2.05459,-0.91314 3.42431,-0.91314 1.36972,0 2.43506,0.30438 3.42431,0.91314 0.91315,0.60877 1.7502,1.44582 2.51116,2.28288 0.98924,0.98924 1.90239,2.05458 3.27211,2.89163 1.59801,0.98925 3.34822,1.44582 5.32671,1.44582 2.05458,0 3.80478,-0.45657 5.3267,-1.44582 1.36972,-0.83705 2.28287,-1.90239 3.27211,-2.89163 0.83706,-0.91315 1.59801,-1.75021 2.51116,-2.28288 0.98925,-0.60876 2.05459,-0.91314 3.34822,-0.91314 1.36972,0 2.43506,0.30438 3.34821,0.91314 0.91315,0.60877 1.7502,1.44582 2.51116,2.28288 0.98924,0.98924 1.90239,2.05458 3.27211,2.89163 1.59802,0.98925 3.34822,1.44582 5.32671,1.44582 1.97849,0 3.80478,-0.45657 5.3267,-1.44582 1.36972,-0.83705 2.28287,-1.90239 3.27211,-2.89163 0.83706,-0.91315 1.59802,-1.75021 2.51116,-2.28288 0.98925,-0.60876 2.05459,-0.91314 3.42431,-0.91314 1.36973,0 2.43507,0.30438 3.42431,0.91314 0.91315,0.60877 1.7502,1.44582 2.51116,2.28288 0.98924,0.98924 1.90239,2.05458 3.27212,2.89163 1.59801,0.98925 3.34821,1.44582 5.3267,1.44582 2.05458,0 3.80479,-0.45657 5.3267,-1.44582 1.36972,-0.83705 2.28287,-1.90239 3.27212,-2.89163 0.83705,-0.91315 1.59801,-1.75021 2.51116,-2.28288 0.98924,-0.60876 2.05458,-0.91314 3.42431,-0.91314 1.36972,0 2.43506,0.30438 3.4243,0.91314 0.91315,0.60877 1.75021,1.44582 2.51116,2.28288 0.98925,0.98924 1.9024,2.05458 3.27212,2.89163 1.59801,0.98925 3.34821,1.44582 5.3267,1.44582 1.97849,0 3.80479,-0.45657 5.3267,-1.44582 1.36973,-0.83705 2.28288,-1.90239 3.27212,-2.89163 0.83705,-0.91315 1.59801,-1.75021 2.51116,-2.28288 0.98924,-0.60876 2.05458,-0.91314 3.42431,-0.91314 v -3.95698 c -3.5765,0 -5.93547,2.43506 -7.76177,4.41355 z"
         id="path1294"
         inkscape:connector-curvature="0"
         style="fill:#424143;fill-opacity:1;stroke-width:1" /><path
         style="fill:#424143;fill-opacity:1;stroke-width:1"
         inkscape:connector-curvature="0"
         id="path1296"
         d="m 568.38535,-347.77682 c -0.83705,0.83706 -1.59801,1.67411 -2.51116,2.28288 -0.91315,0.60876 -1.97849,0.83705 -3.27211,0.83705 -1.29363,0 -2.28288,-0.30438 -3.27212,-0.83705 -0.91315,-0.53267 -1.67411,-1.36973 -2.51116,-2.28288 -1.8263,-1.97849 -4.18527,-4.41355 -8.82711,-4.41355 -4.64184,0 -6.92471,2.43506 -8.8271,4.41355 -0.83705,0.83706 -1.59801,1.67411 -2.51116,2.28288 -0.91315,0.60876 -1.97849,0.83705 -3.27212,0.83705 -1.29363,0 -2.28287,-0.30438 -3.27211,-0.83705 -0.91315,-0.53267 -1.67411,-1.36973 -2.51116,-2.28288 -1.8263,-1.97849 -4.18527,-4.41355 -8.82711,-4.41355 -4.64184,0 -6.92471,2.43506 -8.82711,4.41355 -0.83705,0.83706 -1.59801,1.67411 -2.51116,2.28288 -0.91314,0.60876 -1.97848,0.83705 -3.27211,0.83705 -1.29363,0 -2.28287,-0.30438 -3.27212,-0.83705 -0.91315,-0.53267 -1.67411,-1.36973 -2.51116,-2.28288 -1.8263,-1.97849 -4.18526,-4.41355 -8.8271,-4.41355 v 0 c 0,0 0,0 0,0 0,0 0,0 0,0 v 0 c -4.64184,0 -6.92472,2.43506 -8.82711,4.41355 -0.83705,0.83706 -1.59801,1.67411 -2.51116,2.28288 -0.91315,0.60876 -1.97849,0.83705 -3.27212,0.83705 -1.29362,0 -2.28287,-0.30438 -3.27211,-0.83705 -0.91315,-0.53267 -1.67411,-1.36973 -2.51116,-2.28288 -1.8263,-1.97849 -4.18527,-4.41355 -8.82711,-4.41355 -4.64184,0 -6.92471,2.43506 -8.8271,4.41355 -0.83706,0.83706 -1.59801,1.67411 -2.51116,2.28288 -0.91315,0.60876 -1.97849,0.83705 -3.27212,0.83705 -1.29363,0 -2.28287,-0.30438 -3.27212,-0.83705 -0.91315,-0.53267 -1.6741,-1.36973 -2.51116,-2.28288 -1.82629,-1.97849 -4.18526,-4.41355 -8.8271,-4.41355 -4.64184,0 -6.92471,2.43506 -8.82711,4.41355 -0.83705,0.83706 -1.59801,1.67411 -2.51116,2.28288 -0.91315,0.60876 -1.97849,0.83705 -3.27211,0.83705 -1.29363,0 -2.28288,-0.30438 -3.27212,-0.83705 -0.91315,-0.53267 -1.67411,-1.36973 -2.51116,-2.28288 -1.8263,-1.97849 -4.18527,-4.41355 -8.82711,-4.41355 v 3.95698 c 1.36973,0 2.43507,0.30438 3.42431,0.91315 0.91315,0.60876 1.7502,1.44582 2.51116,2.28287 0.98925,0.98925 1.90239,2.05459 3.27212,2.89164 1.59801,0.98924 3.34821,1.44582 5.3267,1.44582 2.05458,0 3.80479,-0.45658 5.3267,-1.44582 1.36972,-0.83705 2.28287,-1.90239 3.27212,-2.89164 0.83705,-0.91315 1.59801,-1.7502 2.51116,-2.28287 0.98924,-0.60877 2.05458,-0.91315 3.42431,-0.91315 1.36972,0 2.43506,0.30438 3.4243,0.91315 0.91315,0.60876 1.75021,1.44582 2.51116,2.28287 0.98925,0.98925 1.9024,2.05459 3.27212,2.89164 1.59801,0.98924 3.34821,1.44582 5.3267,1.44582 1.97849,0 3.80479,-0.45658 5.3267,-1.44582 1.36973,-0.83705 2.28288,-1.90239 3.27212,-2.89164 0.83705,-0.91315 1.59801,-1.7502 2.51116,-2.28287 0.98925,-0.60877 2.05459,-0.91315 3.42431,-0.91315 1.36972,0 2.43506,0.30438 3.42431,0.91315 0.91315,0.60876 1.7502,1.44582 2.51116,2.28287 0.98924,0.98925 1.90239,2.05459 3.27211,2.89164 1.59801,0.98924 3.34822,1.44582 5.32671,1.44582 2.05458,0 3.80478,-0.45658 5.3267,-1.44582 1.36972,-0.83705 2.28287,-1.90239 3.27211,-2.89164 0.83706,-0.91315 1.59801,-1.7502 2.51116,-2.28287 0.98925,-0.60877 2.05459,-0.91315 3.34822,-0.91315 1.36972,0 2.43506,0.30438 3.34821,0.91315 0.91315,0.60876 1.7502,1.44582 2.51116,2.28287 0.98924,0.98925 1.90239,2.05459 3.27211,2.89164 1.59802,0.98924 3.34822,1.44582 5.32671,1.44582 1.97849,0 3.80478,-0.45658 5.3267,-1.44582 1.36972,-0.83705 2.28287,-1.90239 3.27211,-2.89164 0.83706,-0.91315 1.59802,-1.7502 2.51116,-2.28287 0.98925,-0.60877 2.05459,-0.91315 3.42431,-0.91315 1.36973,0 2.43507,0.30438 3.42431,0.91315 0.91315,0.60876 1.7502,1.44582 2.51116,2.28287 0.98924,0.98925 1.90239,2.05459 3.27212,2.89164 1.59801,0.98924 3.34821,1.44582 5.3267,1.44582 2.05458,0 3.80479,-0.45658 5.3267,-1.44582 1.36972,-0.83705 2.28287,-1.90239 3.27212,-2.89164 0.83705,-0.91315 1.59801,-1.7502 2.51116,-2.28287 0.98924,-0.60877 2.05458,-0.91315 3.42431,-0.91315 1.36972,0 2.43506,0.30438 3.4243,0.91315 0.91315,0.60876 1.75021,1.44582 2.51116,2.28287 0.98925,0.98925 1.9024,2.05459 3.27212,2.89164 1.59801,0.98924 3.34821,1.44582 5.3267,1.44582 1.97849,0 3.80479,-0.45658 5.3267,-1.44582 1.36973,-0.83705 2.28288,-1.90239 3.27212,-2.89164 0.83705,-0.91315 1.59801,-1.7502 2.51116,-2.28287 0.98924,-0.60877 2.05458,-0.91315 3.42431,-0.91315 v -3.95698 c -3.5765,0 -5.93547,2.43506 -7.76177,4.41355 z"
         class="st1" /><path
         style="fill:#424143;fill-opacity:1;stroke-width:1"
         inkscape:connector-curvature="0"
         id="path1298"
         d="m 568.38535,-333.58956 c -0.83705,0.83705 -1.59801,1.67411 -2.51116,2.28287 -0.91315,0.60877 -1.97849,0.83706 -3.27211,0.83706 -1.29363,0 -2.28288,-0.30439 -3.27212,-0.83706 -0.91315,-0.53267 -1.67411,-1.36972 -2.51116,-2.28287 -1.8263,-1.97849 -4.18527,-4.41355 -8.82711,-4.41355 -4.64184,0 -6.92471,2.43506 -8.8271,4.41355 -0.83705,0.83705 -1.59801,1.67411 -2.51116,2.28287 -0.91315,0.60877 -1.97849,0.83706 -3.27212,0.83706 -1.29363,0 -2.28287,-0.30439 -3.27211,-0.83706 -0.91315,-0.53267 -1.67411,-1.36972 -2.51116,-2.28287 -1.8263,-1.97849 -4.18527,-4.41355 -8.82711,-4.41355 -4.64184,0 -6.92471,2.43506 -8.82711,4.41355 -0.83705,0.83705 -1.59801,1.67411 -2.51116,2.28287 -0.91314,0.60877 -1.97848,0.83706 -3.27211,0.83706 -1.29363,0 -2.28287,-0.30439 -3.27212,-0.83706 -0.91315,-0.53267 -1.67411,-1.36972 -2.51116,-2.28287 -1.8263,-1.97849 -4.18526,-4.41355 -8.8271,-4.41355 v 0 c 0,0 0,0 0,0 0,0 0,0 0,0 v 0 c -4.64184,0 -6.92472,2.43506 -8.82711,4.41355 -0.83705,0.83705 -1.59801,1.67411 -2.51116,2.28287 -0.91315,0.60877 -1.97849,0.83706 -3.27212,0.83706 -1.29362,0 -2.28287,-0.30439 -3.27211,-0.83706 -0.91315,-0.53267 -1.67411,-1.36972 -2.51116,-2.28287 -1.8263,-1.97849 -4.18527,-4.41355 -8.82711,-4.41355 -4.64184,0 -6.92471,2.43506 -8.8271,4.41355 -0.83706,0.83705 -1.59801,1.67411 -2.51116,2.28287 -0.91315,0.60877 -1.97849,0.83706 -3.27212,0.83706 -1.29363,0 -2.28287,-0.30439 -3.27212,-0.83706 -0.91315,-0.53267 -1.6741,-1.36972 -2.51116,-2.28287 -1.82629,-1.97849 -4.18526,-4.41355 -8.8271,-4.41355 -4.64184,0 -6.92471,2.43506 -8.82711,4.41355 -0.83705,0.83705 -1.59801,1.67411 -2.51116,2.28287 -0.91315,0.60877 -1.97849,0.83706 -3.27211,0.83706 -1.29363,0 -2.28288,-0.30439 -3.27212,-0.83706 -0.91315,-0.53267 -1.67411,-1.36972 -2.51116,-2.28287 -1.8263,-1.97849 -4.18527,-4.41355 -8.82711,-4.41355 v 3.95698 c 1.36973,0 2.43507,0.30438 3.42431,0.91314 0.91315,0.60877 1.7502,1.44582 2.51116,2.28288 0.98925,0.98924 1.90239,2.05458 3.27212,2.89163 1.59801,0.98925 3.34821,1.44582 5.3267,1.44582 2.05458,0 3.80479,-0.45657 5.3267,-1.44582 1.36972,-0.83705 2.28287,-1.90239 3.27212,-2.89163 0.83705,-0.91315 1.59801,-1.75021 2.51116,-2.28288 0.98924,-0.60876 2.05458,-0.91314 3.42431,-0.91314 1.36972,0 2.43506,0.30438 3.4243,0.91314 0.91315,0.60877 1.75021,1.44582 2.51116,2.28288 0.98925,0.98924 1.9024,2.05458 3.27212,2.89163 1.59801,0.98925 3.34821,1.44582 5.3267,1.44582 1.97849,0 3.80479,-0.45657 5.3267,-1.44582 1.36973,-0.83705 2.28288,-1.90239 3.27212,-2.89163 0.83705,-0.91315 1.59801,-1.75021 2.51116,-2.28288 0.98925,-0.60876 2.05459,-0.91314 3.42431,-0.91314 1.36972,0 2.43506,0.30438 3.42431,0.91314 0.91315,0.60877 1.7502,1.44582 2.51116,2.28288 0.98924,0.98924 1.90239,2.05458 3.27211,2.89163 1.59801,0.98925 3.34822,1.44582 5.32671,1.44582 2.05458,0 3.80478,-0.45657 5.3267,-1.44582 1.36972,-0.83705 2.28287,-1.90239 3.27211,-2.89163 0.83706,-0.91315 1.59801,-1.75021 2.51116,-2.28288 0.98925,-0.60876 2.05459,-0.91314 3.34822,-0.91314 1.36972,0 2.43506,0.30438 3.34821,0.91314 0.91315,0.60877 1.7502,1.44582 2.51116,2.28288 0.98924,0.98924 1.90239,2.05458 3.27211,2.89163 1.59802,0.98925 3.34822,1.44582 5.32671,1.44582 1.97849,0 3.80478,-0.45657 5.3267,-1.44582 1.36972,-0.83705 2.28287,-1.90239 3.27211,-2.89163 0.83706,-0.91315 1.59802,-1.75021 2.51116,-2.28288 0.98925,-0.60876 2.05459,-0.91314 3.42431,-0.91314 1.36973,0 2.43507,0.30438 3.42431,0.91314 0.91315,0.60877 1.7502,1.44582 2.51116,2.28288 0.98924,0.98924 1.90239,2.05458 3.27212,2.89163 1.59801,0.98925 3.34821,1.44582 5.3267,1.44582 2.05458,0 3.80479,-0.45657 5.3267,-1.44582 1.36972,-0.83705 2.28287,-1.90239 3.27212,-2.89163 0.83705,-0.91315 1.59801,-1.75021 2.51116,-2.28288 0.98924,-0.60876 2.05458,-0.91314 3.42431,-0.91314 1.36972,0 2.43506,0.30438 3.4243,0.91314 0.91315,0.60877 1.75021,1.44582 2.51116,2.28288 0.98925,0.98924 1.9024,2.05458 3.27212,2.89163 1.59801,0.98925 3.34821,1.44582 5.3267,1.44582 1.97849,0 3.80479,-0.45657 5.3267,-1.44582 1.36973,-0.83705 2.28288,-1.90239 3.27212,-2.89163 0.83705,-0.91315 1.59801,-1.75021 2.51116,-2.28288 0.98924,-0.60876 2.05458,-0.91314 3.42431,-0.91314 v -3.95698 c -3.5765,0 -5.93547,2.43506 -7.76177,4.41355 z"
         class="st1" /></g><g
       transform="translate(1.2291385,-1.1415746)"
       id="g1353"><g
         transform="matrix(0.17172796,0,0,0.17172796,419.31127,-228.66865)"
         id="g1323"
         style="fill:none;stroke:#ffffff;stroke-width:69.87796021;stroke-linejoin:miter;stroke-miterlimit:4;stroke-dasharray:none;stroke-opacity:1"><g
           id="g1321"
           style="fill:none;stroke:#ffffff;stroke-width:69.87796021;stroke-linejoin:miter;stroke-miterlimit:4;stroke-dasharray:none;stroke-opacity:1"><path
             sodipodi:nodetypes="cccccccccscccc"
             style="fill:#f8f8f7;fill-opacity:1;stroke:#ffffff;stroke-width:69.87796021;stroke-linejoin:miter;stroke-miterlimit:4;stroke-dasharray:none;stroke-opacity:1"
             inkscape:connector-curvature="0"
             d="M 317.6,125 C 278.5,91.9 208.5,90.4 208.5,90.4 c 0,0 12,24.5 13.1,60.2 -21,12.4 -41.05862,23.73449 -62.65862,46.53449 0,0 -29.83794,-28.08967 -73.137937,-23.78967 0,0 -3.758623,21.18967 20.441377,52.38967 -24.2,31.2 -19,63.2 -19,63.2 43.3,4.3 70.25518,-28.83449 70.25518,-28.83449 30.4,32 49.58967,64.07067 78.28967,76.17067 -0.8002,5.93087 10.47819,-0.28074 11.40643,5.15325 1.04378,6.1104 2.66944,12.82134 3.72803,22.18988 0,0 28.67587,2.8862 54.67587,-25.3138 69.9,1.6 125,-48.2 146.1,-106.7 C 431.8,176.3 344.32419,132.50344 317.6,125 Z"
             id="path1319" /></g></g><g
         id="g1317"
         transform="translate(-96.534653,7.4257425)"><g
           transform="matrix(0.17172796,0,0,0.17172796,515.81906,-236.13667)"
           id="g1308"
           style="fill:none;stroke:#424143;stroke-width:14.55790901;stroke-miterlimit:4;stroke-dasharray:none;stroke-opacity:1"><g
             id="g1306"
             style="fill:none;stroke:#424143;stroke-width:14.55790901;stroke-miterlimit:4;stroke-dasharray:none;stroke-opacity:1"><path
               sodipodi:nodetypes="ccccccccccccc"
               style="fill:#f8f8f7;fill-opacity:1;stroke:#424143;stroke-width:14.55790901;stroke-miterlimit:4;stroke-dasharray:none;stroke-opacity:1"
               inkscape:connector-curvature="0"
               d="M 317.6,125 C 278.5,91.9 208.5,90.4 208.5,90.4 c 0,0 12,24.5 13.1,60.2 -21,12.4 -42.5,29.5 -64.1,52.3 0,0 -32,-38.9 -75.3,-34.6 0,0 -5.2,32 19,63.2 -24.2,31.2 -19,63.2 -19,63.2 43.3,4.3 75.3,-34.6 75.3,-34.6 30.4,32 60.4,52.9 89.1,65 -1.7,12.6 -2,27.3 0,45 0,0 33,-3.6 59,-31.8 69.9,1.6 125,-48.2 146.1,-106.7 C 431.8,176.3 381.8,128.9 317.6,125 Z"
               id="path1304" /></g></g><path
           inkscape:connector-curvature="0"
           id="path1302"
           d="m 557.31969,-175.17396 c 0.0634,-1.62738 0.16304,-3.21485 0.22139,-3.52771 0.0789,-0.42297 0.0428,-0.56883 -0.14069,-0.56883 -0.13573,0 -1.30641,-0.53297 -2.6015,-1.18437 -4.16524,-2.09501 -7.3649,-4.46215 -11.5047,-8.51131 l -2.49898,-2.44425 -1.17658,1.28959 c -2.71567,2.97653 -6.90823,5.23619 -9.73506,5.24691 l -0.68229,0.003 0.1051,-1.35645 c 0.18394,-2.37413 1.26659,-5.11428 2.82932,-7.16093 0.3399,-0.44515 0.61799,-0.88237 0.61799,-0.97161 0,-0.0892 -0.35228,-0.65592 -0.78284,-1.2593 -1.55348,-2.17701 -2.71769,-5.34487 -2.71769,-7.39494 0,-0.90367 0.016,-0.93455 0.48133,-0.93161 1.74421,0.011 4.90783,1.24088 6.96138,2.70626 1.14316,0.81575 2.8393,2.38984 3.61017,3.35042 l 0.43848,0.54638 2.44051,-2.38416 c 2.981,-2.91217 4.89578,-4.46884 7.82509,-6.36162 l 2.24151,-1.44836 -0.10549,-1.66275 c -0.16058,-2.53091 -0.81367,-6.02671 -1.41929,-7.59705 -0.12143,-0.31487 -0.0611,-0.32668 1.08198,-0.21184 5.05104,0.50741 10.95769,2.54018 13.9399,4.79741 1.07791,0.81587 1.19839,0.86193 2.54916,0.97458 8.1609,0.68059 16.30573,6.9279 20.02735,15.36153 l 0.68704,1.55692 -0.88313,1.84876 c -3.70709,7.76044 -10.24893,13.11285 -17.9454,14.68256 -0.76365,0.15575 -2.2995,0.33071 -3.41301,0.3888 l -2.02457,0.10562 -1.12761,1.04945 c -1.92476,1.79134 -4.99413,3.54419 -6.85939,3.91724 l -0.55477,0.11095 z m 21.03563,-21.92818 c 1.37229,-0.62334 2.10505,-1.96942 1.9685,-3.61609 -0.14032,-1.69207 -1.4339,-2.91179 -3.2079,-3.02475 -1.63389,-0.10404 -2.87389,0.64654 -3.4852,2.10962 -1.218,2.91508 1.83546,5.84357 4.7246,4.53122 z"
           style="opacity:1;fill:#b8e69a;fill-opacity:1;stroke:none;stroke-width:2.5;stroke-linecap:round;stroke-linejoin:round;stroke-miterlimit:4;stroke-dasharray:none;stroke-opacity:1" /><g
           style="fill:none;stroke:#424143;stroke-width:14.55790901;stroke-miterlimit:4;stroke-dasharray:none;stroke-opacity:1"
           id="g38"
           transform="matrix(0.17172796,0,0,0.17172796,515.81906,-236.13667)"><g
             style="fill:none;stroke:#424143;stroke-width:14.55790901;stroke-miterlimit:4;stroke-dasharray:none;stroke-opacity:1"
             id="g36"><path
               id="path34"
               d="M 317.6,125 C 278.5,91.9 208.5,90.4 208.5,90.4 c 0,0 12,24.5 13.1,60.2 -21,12.4 -42.5,29.5 -64.1,52.3 0,0 -32,-38.9 -75.3,-34.6 0,0 -5.2,32 19,63.2 -24.2,31.2 -19,63.2 -19,63.2 43.3,4.3 75.3,-34.6 75.3,-34.6 30.4,32 60.4,52.9 89.1,65 -1.7,12.6 -2,27.3 0,45 0,0 33,-3.6 59,-31.8 69.9,1.6 125,-48.2 146.1,-106.7 C 431.8,176.3 381.8,128.9 317.6,125 Z m 49.6,84.9 c -7.1,0 -12.9,-5.8 -12.9,-12.9 0,-7.1 5.8,-12.9 12.9,-12.9 7.1,0 12.9,5.8 12.9,12.9 0,7.1 -5.8,12.9 -12.9,12.9 z"
               inkscape:connector-curvature="0"
               style="fill:none;stroke:#424143;stroke-width:14.55790901;stroke-miterlimit:4;stroke-dasharray:none;stroke-opacity:1" /></g></g></g></g></g></svg>