<?xml version="1.0" encoding="UTF-8" standalone="no"?>
<!-- Generator: Adobe Illustrator 14.0.0, SVG Export Plug-In . SVG Version: 6.00 Build 43363)  -->

<svg
   xmlns:dc="http://purl.org/dc/elements/1.1/"
   xmlns:cc="http://creativecommons.org/ns#"
   xmlns:rdf="http://www.w3.org/1999/02/22-rdf-syntax-ns#"
   xmlns:svg="http://www.w3.org/2000/svg"
   xmlns="http://www.w3.org/2000/svg"
   xmlns:sodipodi="http://sodipodi.sourceforge.net/DTD/sodipodi-0.dtd"
   xmlns:inkscape="http://www.inkscape.org/namespaces/inkscape"
   version="1.1"
   id="Layer_1"
   inkscape:version="0.92.2 (5c3e80d, 2017-08-06)"
   sodipodi:docname="stats.svg"
   x="0px"
   y="0px"
   width="100"
   height="100"
   viewBox="416.572 -360.945 100 100"
   enable-background="new 416.572 -360.945 595.275 841.89"
   xml:space="preserve"
   inkscape:export-filename="C:\Users\holly.jones\Downloads\volcano_pixelhint_12th_jan-20180116T210822Z-001\volcano_pixelhint_12th_jan\volcano_pixelhint\img\hedges_icon_100_white.png"
   inkscape:export-xdpi="149.93106"
   inkscape:export-ydpi="149.93106"><metadata
     id="metadata326"><rdf:RDF><cc:Work
         rdf:about=""><dc:format>image/svg+xml</dc:format><dc:type
           rdf:resource="http://purl.org/dc/dcmitype/StillImage" /><dc:title /></cc:Work></rdf:RDF></metadata><defs
     id="defs324" /><sodipodi:namedview
     id="namedview230"
     inkscape:pageshadow="2"
     inkscape:window-width="1920"
     inkscape:window-height="1001"
     inkscape:window-x="-9"
     inkscape:window-y="-9"
     inkscape:current-layer="g1468"
     inkscape:pageopacity="0"
     gridtolerance="10"
     inkscape:zoom="4.04"
     inkscape:cy="79.221869"
     guidetolerance="10"
     bordercolor="#666666"
     showgrid="false"
     borderopacity="1"
     objecttolerance="10"
     inkscape:cx="86.338509"
     pagecolor="#ffffff"
     inkscape:window-maximized="1"
     inkscape:snap-nodes="false" /><text
     xml:space="preserve"
     style="font-style:normal;font-weight:normal;font-size:40px;line-height:125%;font-family:Sans;letter-spacing:0px;word-spacing:0px;fill:#000000;fill-opacity:1;stroke:none;stroke-width:1px;stroke-linecap:butt;stroke-linejoin:miter;stroke-opacity:1"
     x="566.7934"
     y="-274.51813"
     id="text5063"><tspan
       sodipodi:role="line"
       id="tspan5061"
       x="566.7934"
       y="-239.1275" /></text>
<g
     id="g1468"
     transform="translate(0.98859969,-2.1524202)"><g
       id="g1240"><path
         style="fill:#ffffff;fill-opacity:1;stroke:none;stroke-width:2;stroke-linecap:round;stroke-linejoin:round;stroke-miterlimit:4;stroke-dasharray:none;stroke-opacity:1"
         d="m 429.56232,-289.72891 12.58201,-42.97213 c 0.59745,-2.13358 0.74183,-1.65487 1.32735,-0.14581 l 4.3518,11.93637 c 0.40384,1.16489 1.354,1.12858 1.71915,-0.10703 l 2.39124,-6.34199 c 0.569,-1.33732 1.25345,-0.98126 1.5354,0.11191 l 7.48151,32.17051 c 0.78959,2.20454 1.81026,1.67842 2.41278,0.0901 l 4.04874,-10.11073 c 0.4558,-1.23086 1.10397,-1.03028 1.68002,-0.1622 l 1.49906,2.48269 c 0.65107,1.24381 1.48708,0.68732 2.03814,-0.0186 l 1.72492,-2.47026 c 0.76106,-1.01911 1.39897,-1.09253 2.94056,0.29821 l 3.9222,3.50645 c 0.78951,0.92867 2.05891,0.79548 3.2583,0.06 1.56956,-1.12559 5.1377,-3.09638 8.20159,-4.94066 1.21075,-0.82006 2.58123,-0.53659 3.01243,1.05848 l 0.99181,3.96723 c 0.42741,1.58988 1.32327,0.86154 1.87325,-0.30328 l 1.16728,-2.33457 c 0.69903,-1.23048 1.74524,-1.34875 2.98197,-1.23996 l 4.52092,-0.0741 1.10177,-0.0875 v 31.61763 l -79.02674,0.0875 z"
         id="path1224"
         inkscape:connector-curvature="0"
         sodipodi:nodetypes="cccccccccccccccccccccccccccc" /><path
         sodipodi:nodetypes="cccccccccccccccccccccccccccc"
         inkscape:connector-curvature="0"
         id="path1453"
         d="m 433.32539,-301.10563 7.06868,-30.1952 c 0.59745,-2.13358 0.74183,-1.65487 1.32735,-0.14581 l 4.3518,11.93637 c 0.40384,1.16489 1.354,1.12858 1.71915,-0.10703 l 2.39124,-6.34199 c 0.569,-1.33732 1.25345,-0.98126 1.5354,0.11191 l 7.48151,32.17051 c 0.78959,2.20454 1.81026,1.67842 2.41278,0.0901 l 4.04874,-10.11073 c 0.4558,-1.23086 1.10397,-1.03028 1.68002,-0.1622 l 1.49906,2.48269 c 0.65107,1.24381 1.48708,0.68732 2.03814,-0.0186 l 1.72492,-2.47026 c 0.76106,-1.01911 1.39897,-1.09253 2.94056,0.29821 l 3.9222,3.50645 c 0.78951,0.92867 2.05891,0.79548 3.2583,0.06 1.56956,-1.12559 5.1377,-3.09638 8.20159,-4.94066 1.21075,-0.82006 2.58123,-0.53659 3.01243,1.05848 l 0.99181,3.96723 c 0.42741,1.58988 1.32327,0.86154 1.87325,-0.30328 l 1.16728,-2.33457 c 0.69903,-1.23048 1.74524,-1.34875 2.98197,-1.23996 l 4.52092,-0.0741 h 0.6642 v 27.15446 h -72.8133 z"
         style="fill:#f3ba93;fill-opacity:1;stroke:none;stroke-width:2;stroke-linecap:round;stroke-linejoin:round;stroke-miterlimit:4;stroke-dasharray:none;stroke-opacity:1" /><path
         style="fill:none;stroke:#424143;stroke-width:2.5;stroke-linecap:round;stroke-linejoin:round;stroke-miterlimit:4;stroke-dasharray:none;stroke-opacity:1"
         d="m 429.0891,-350.51714 v 77.77029 h 79.60448"
         id="path1425"
         inkscape:connector-curvature="0" /><g
         id="g1439"
         transform="translate(2.1519324,0.36684095)"><path
           inkscape:connector-curvature="0"
           id="path1427"
           d="m 436.74825,-272.50049 v 5.31919"
           style="fill:none;stroke:#424143;stroke-width:2;stroke-linecap:round;stroke-linejoin:miter;stroke-miterlimit:4;stroke-dasharray:none;stroke-opacity:1" /><path
           style="fill:none;stroke:#424143;stroke-width:2;stroke-linecap:round;stroke-linejoin:miter;stroke-miterlimit:4;stroke-dasharray:none;stroke-opacity:1"
           d="m 456.74825,-272.50049 v 5.31919"
           id="path1429"
           inkscape:connector-curvature="0" /><path
           inkscape:connector-curvature="0"
           id="path1431"
           d="m 476.74825,-272.50049 v 5.31919"
           style="fill:none;stroke:#424143;stroke-width:2;stroke-linecap:round;stroke-linejoin:miter;stroke-miterlimit:4;stroke-dasharray:none;stroke-opacity:1" /><path
           style="fill:none;stroke:#424143;stroke-width:2;stroke-linecap:round;stroke-linejoin:miter;stroke-miterlimit:4;stroke-dasharray:none;stroke-opacity:1"
           d="m 496.74825,-272.50049 v 5.31919"
           id="path1433"
           inkscape:connector-curvature="0" /></g><g
         transform="rotate(-90,424.91378,-269.80637)"
         id="g1449"><path
           style="fill:none;stroke:#424143;stroke-width:2;stroke-linecap:round;stroke-linejoin:miter;stroke-miterlimit:4;stroke-dasharray:none;stroke-opacity:1"
           d="m 436.74825,-272.50049 v 5.31919"
           id="path1441"
           inkscape:connector-curvature="0" /><path
           inkscape:connector-curvature="0"
           id="path1443"
           d="m 456.74825,-272.50049 v 5.31919"
           style="fill:none;stroke:#424143;stroke-width:2;stroke-linecap:round;stroke-linejoin:miter;stroke-miterlimit:4;stroke-dasharray:none;stroke-opacity:1" /><path
           style="fill:none;stroke:#424143;stroke-width:2;stroke-linecap:round;stroke-linejoin:miter;stroke-miterlimit:4;stroke-dasharray:none;stroke-opacity:1"
           d="m 476.74825,-272.50049 v 5.31919"
           id="path1445"
           inkscape:connector-curvature="0" /><path
           inkscape:connector-curvature="0"
           id="path1447"
           d="m 496.74825,-272.50049 v 5.31919"
           style="fill:none;stroke:#424143;stroke-width:2;stroke-linecap:round;stroke-linejoin:miter;stroke-miterlimit:4;stroke-dasharray:none;stroke-opacity:1" /></g><path
         style="fill:none;stroke:#424143;stroke-width:2;stroke-linecap:round;stroke-linejoin:round;stroke-miterlimit:4;stroke-dasharray:none;stroke-opacity:1"
         d="m 435.32539,-306.59062 6.335,-26.80192 c 0.59745,-2.13358 1.47551,-1.56316 2.06103,-0.0541 l 4.3518,11.93637 c 0.40384,1.16489 1.354,1.12858 1.71915,-0.10703 l 2.39124,-6.34199 c 0.569,-1.33732 1.25345,-0.98126 1.5354,0.11191 l 7.48151,32.17051 c 0.78959,2.20454 1.81026,1.67842 2.41278,0.0901 l 4.04874,-10.11073 c 0.4558,-1.23086 1.10397,-1.03028 1.68002,-0.1622 l 1.49906,2.48269 c 0.65107,1.24381 1.48708,0.68732 2.03814,-0.0186 l 1.72492,-2.47026 c 0.76106,-1.01911 1.39897,-1.09253 2.94056,0.29821 l 3.9222,3.50645 c 0.78951,0.92867 2.05891,0.79548 3.2583,0.06 1.56956,-1.12559 5.1377,-3.09638 8.20159,-4.94066 1.21075,-0.82006 2.58123,-0.53659 3.01243,1.05848 l 0.99181,3.96723 c 0.42741,1.58988 1.32327,0.86154 1.87325,-0.30328 l 1.16728,-2.33457 c 0.69903,-1.23048 1.74524,-1.34875 2.98197,-1.23996 l 4.52092,-0.0741"
         id="path1451"
         inkscape:connector-curvature="0"
         sodipodi:nodetypes="cccccccccccccccccccccccc" /></g></g></svg>