<?xml version="1.0" encoding="UTF-8" standalone="no"?>
<!-- Generator: Adobe Illustrator 14.0.0, SVG Export Plug-In . SVG Version: 6.00 Build 43363)  -->

<svg
   xmlns:dc="http://purl.org/dc/elements/1.1/"
   xmlns:cc="http://creativecommons.org/ns#"
   xmlns:rdf="http://www.w3.org/1999/02/22-rdf-syntax-ns#"
   xmlns:svg="http://www.w3.org/2000/svg"
   xmlns="http://www.w3.org/2000/svg"
   xmlns:sodipodi="http://sodipodi.sourceforge.net/DTD/sodipodi-0.dtd"
   xmlns:inkscape="http://www.inkscape.org/namespaces/inkscape"
   version="1.1"
   id="Layer_1"
   inkscape:version="0.92.2 (5c3e80d, 2017-08-06)"
   sodipodi:docname="street.svg"
   x="0px"
   y="0px"
   width="100"
   height="100"
   viewBox="416.572 -360.945 100 100"
   enable-background="new 416.572 -360.945 595.275 841.89"
   xml:space="preserve"
   inkscape:export-filename="C:\Users\holly.jones\Downloads\volcano_pixelhint_12th_jan-20180116T210822Z-001\volcano_pixelhint_12th_jan\volcano_pixelhint\img\hedges_icon_100_white.png"
   inkscape:export-xdpi="149.93106"
   inkscape:export-ydpi="149.93106"><metadata
     id="metadata326"><rdf:RDF><cc:Work
         rdf:about=""><dc:format>image/svg+xml</dc:format><dc:type
           rdf:resource="http://purl.org/dc/dcmitype/StillImage" /><dc:title /></cc:Work></rdf:RDF></metadata><defs
     id="defs324" /><sodipodi:namedview
     id="namedview230"
     inkscape:pageshadow="2"
     inkscape:window-width="1920"
     inkscape:window-height="1001"
     inkscape:window-x="-9"
     inkscape:window-y="-9"
     inkscape:current-layer="g1241"
     inkscape:pageopacity="0"
     gridtolerance="10"
     inkscape:zoom="0.71417785"
     inkscape:cy="-93.44967"
     guidetolerance="10"
     bordercolor="#666666"
     showgrid="false"
     borderopacity="1"
     objecttolerance="10"
     inkscape:cx="-55.156409"
     pagecolor="#ffffff"
     inkscape:window-maximized="1"
     inkscape:snap-nodes="false" /><text
     xml:space="preserve"
     style="font-style:normal;font-weight:normal;font-size:40px;line-height:125%;font-family:Sans;letter-spacing:0px;word-spacing:0px;fill:#000000;fill-opacity:1;stroke:none;stroke-width:1px;stroke-linecap:butt;stroke-linejoin:miter;stroke-opacity:1"
     x="566.7934"
     y="-274.51813"
     id="text5063"><tspan
       sodipodi:role="line"
       id="tspan5061"
       x="566.7934"
       y="-239.1275" /></text>
<path
     d="M 1049.2848,-347.50267"
     stroke-miterlimit="10"
     id="path1720"
     inkscape:connector-curvature="0"
     style="fill:none;stroke:#010101;stroke-width:2.76591682;stroke-linejoin:round;stroke-miterlimit:10" /><g
     id="g1241"
     transform="translate(-617.01922,334.59406)"><g
       transform="translate(0,-40)"
       id="g1222" /><g
       id="g1202"
       transform="translate(617.14295,-333.60394)"><path
         transform="translate(416.572,-360.945)"
         inkscape:connector-curvature="0"
         id="path1214"
         d="M 14.766978,92.588308 C 10.735475,91.502575 7.9612932,88.695318 6.9024035,84.629964 6.5837683,83.406642 6.5331787,78.540969 6.5331787,49.118186 c 0,-24.31755 0.07987,-34.470359 0.2785301,-35.405915 C 7.415135,10.870542 9.3644445,8.0933679 11.765336,6.6548564 14.519749,5.0045292 12.488397,5.0831385 50.491431,5.1562326 l 34.383332,0.066132 1.361386,0.5551677 c 2.74651,1.120015 5.131748,3.505254 6.251762,6.2517627 l 0.555169,1.361386 0.06606,35.002424 c 0.07301,38.686826 0.152946,36.588262 -1.498552,39.344628 -1.43851,2.400892 -4.215686,4.350201 -7.057413,4.953627 -0.937243,0.199017 -10.900406,0.273878 -34.90099,0.26224 C 21.56377,92.939986 15.850653,92.880154 14.766978,92.588308 Z M 85.192097,89.4053 c 1.974921,-0.911985 3.987876,-3.021658 4.797817,-5.028336 l 0.577918,-1.431827 V 49.034246 c 0,-31.912838 -0.02592,-33.976521 -0.439965,-35.024753 C 88.964976,11.065388 86.337946,8.6399949 83.69658,8.0718354 82.760448,7.8704731 73.135367,7.8140265 49.107436,7.8689867 l -33.292079,0.07615 -1.427142,0.7227545 c -1.677941,0.8497681 -3.725504,2.9161138 -4.3995514,4.4399098 -0.2624824,0.593385 -0.5882087,1.846564 -0.7238361,2.784842 -0.3310248,2.29005 -0.3345191,63.969177 -0.00375,66.256702 0.5342332,3.694673 3.0111245,6.643663 6.5013215,7.740483 0.847284,0.266264 7.314992,0.318943 34.458901,0.280658 l 33.415841,-0.04713 z"
         style="opacity:1;fill:#fefefe;fill-opacity:1;stroke:none;stroke-width:1.5;stroke-linecap:round;stroke-linejoin:round;stroke-miterlimit:4;stroke-dasharray:none;stroke-opacity:1" /><path
         style="fill:none;stroke:#424143;stroke-width:2;stroke-linecap:butt;stroke-linejoin:miter;stroke-miterlimit:4;stroke-dasharray:none;stroke-opacity:1"
         d="m 465.21061,-351.53906 -16.33663,17.57426 v 61.26237"
         id="path1180"
         inkscape:connector-curvature="0" /><path
         style="fill:none;stroke:#424143;stroke-width:2;stroke-linecap:butt;stroke-linejoin:miter;stroke-miterlimit:4;stroke-dasharray:none;stroke-opacity:1"
         d="m 457.0423,-272.94995 v -31.18812 h 48.88614"
         id="path1182"
         inkscape:connector-curvature="0" /><path
         style="fill:none;stroke:#424143;stroke-width:2;stroke-linecap:butt;stroke-linejoin:miter;stroke-miterlimit:4;stroke-dasharray:none;stroke-opacity:1"
         d="M 505.55715,-312.05886 H 457.0423 v -19.67822 l 17.69802,-19.55445"
         id="path1189"
         inkscape:connector-curvature="0" /><g
         id="g1200"><path
           inkscape:connector-curvature="0"
           id="path1193"
           d="m 495.33389,-341.98224 v 13.38952"
           style="fill:none;stroke:#424143;stroke-width:1.70000005;stroke-linecap:round;stroke-linejoin:miter;stroke-miterlimit:4;stroke-dasharray:none;stroke-opacity:1" /><path
           inkscape:connector-curvature="0"
           id="path1195"
           d="m 491.13326,-336.99398 4.11312,-4.81323 4.28815,4.6382"
           style="fill:none;stroke:#424143;stroke-width:1.70000005;stroke-linecap:round;stroke-linejoin:miter;stroke-miterlimit:4;stroke-dasharray:none;stroke-opacity:1" /></g><path
         style="opacity:1;fill:#b8e69a;fill-opacity:1;stroke:none;stroke-width:1.5;stroke-linecap:round;stroke-linejoin:round;stroke-miterlimit:4;stroke-dasharray:none;stroke-opacity:1"
         d="m 430.19909,-267.18367 c -4.03151,-1.08574 -6.80569,-3.89299 -7.86458,-7.95835 -0.31863,-1.22332 -0.36922,-6.08899 -0.36922,-35.51177 0,-24.31755 0.0799,-34.47036 0.27853,-35.40592 0.60343,-2.84173 2.55273,-5.6189 4.95363,-7.05741 2.75441,-1.65033 0.72306,-1.57172 38.72609,-1.49863 l 34.38333,0.0661 1.36139,0.55517 c 2.74651,1.12002 5.13175,3.50526 6.25176,6.25177 l 0.55517,1.36138 0.0661,35.00243 c 0.073,38.68682 0.15295,36.58826 -1.49855,39.34462 -1.43851,2.4009 -4.21569,4.3502 -7.05741,4.95363 -0.93725,0.19902 -10.90041,0.27388 -34.901,0.26224 -28.08841,-0.0136 -33.80153,-0.0734 -34.8852,-0.36529 z m 70.42512,-3.18301 c 1.97492,-0.91198 3.98787,-3.02166 4.79781,-5.02834 l 0.57792,-1.43182 v -33.91089 c 0,-31.91284 -0.0259,-33.97652 -0.43996,-35.02476 -1.16289,-2.9441 -3.78992,-5.3695 -6.43129,-5.93765 -0.93613,-0.20137 -10.56121,-0.25781 -34.58914,-0.20285 l -33.29208,0.0761 -1.42715,0.72275 c -1.67794,0.84977 -3.7255,2.91612 -4.39955,4.43991 -0.26248,0.59339 -0.58821,1.84657 -0.72383,2.78484 -0.33103,2.29005 -0.33452,63.96918 -0.004,66.25671 0.53423,3.69467 3.01112,6.64366 6.50132,7.74048 0.84728,0.26626 7.31499,0.31894 34.4589,0.28066 l 33.41584,-0.0471 z"
         id="path1202"
         inkscape:connector-curvature="0" /><path
         style="opacity:1;fill:#edffe2;fill-opacity:1;stroke:none;stroke-width:1.5;stroke-linecap:round;stroke-linejoin:round;stroke-miterlimit:4;stroke-dasharray:none;stroke-opacity:1"
         d="M 41.434169,72.549097 V 57.57385 h 23.276028 23.276029 l -0.07058,12.438119 -0.07058,12.438118 -0.693802,1.412849 c -0.39479,0.803948 -1.105223,1.738703 -1.648433,2.168934 -1.956671,1.549712 -1.053327,1.492475 -23.555222,1.492475 h -20.51344 z"
         id="path1207"
         inkscape:connector-curvature="0"
         transform="translate(416.572,-360.945)" /><path
         style="opacity:1;fill:#edffe2;fill-opacity:1;stroke:none;stroke-width:1.5;stroke-linecap:round;stroke-linejoin:round;stroke-miterlimit:4;stroke-dasharray:none;stroke-opacity:1"
         d="m 41.434169,38.679733 v -9.240651 l 8.550466,-9.447467 8.550466,-9.447468 12.179731,0.0054 c 11.252683,0.005 12.255094,0.03979 13.169832,0.456777 1.473242,0.671583 2.543431,1.678503 3.291871,3.097257 l 0.668525,1.267263 0.07034,16.274752 0.07034,16.274752 H 64.709953 41.434169 Z M 79.552981,27.091385 v -5.712573 l 1.552836,1.6716 c 1.296993,1.396187 1.643641,1.64278 2.103961,1.49668 0.982713,-0.3119 0.615507,-1.097115 -1.724287,-3.68715 -2.142384,-2.371511 -2.863124,-3.049305 -3.031493,-2.850861 -0.03946,0.04651 -1.14497,1.347798 -2.456681,2.891742 -1.311713,1.543944 -2.38493,2.900468 -2.38493,3.014498 0,0.269227 0.716712,0.985261 0.986195,0.985261 0.114545,0 0.884161,-0.751856 1.71026,-1.670792 l 1.501995,-1.670792 0.0047,5.489746 c 0.004,4.653391 0.06392,5.548929 0.393213,5.878222 0.293237,0.293238 0.505626,0.325779 0.866336,0.132734 0.450946,-0.241335 0.477867,-0.577571 0.477867,-5.968315 z"
         id="path1210"
         inkscape:connector-curvature="0"
         transform="translate(416.572,-360.945)" /><path
         style="opacity:1;fill:#edffe2;fill-opacity:1;stroke:none;stroke-width:1.5;stroke-linecap:round;stroke-linejoin:round;stroke-miterlimit:4;stroke-dasharray:none;stroke-opacity:1"
         d="m 15.815357,86.940637 c -1.495151,-0.699324 -2.658121,-1.848072 -3.404786,-3.363146 l -0.55561,-1.127404 V 49.034246 c 0,-33.38485 4.8e-4,-33.416875 0.517781,-34.529703 0.752722,-1.61927 1.674732,-2.599272 3.125737,-3.322339 l 1.280415,-0.638057 h 14.810095 14.810096 l -7.428874,7.982673 -7.428874,7.982673 -0.0041,30.507426 -0.0041,30.507426 -7.240099,-0.0025 c -7.069204,-0.0025 -7.269312,-0.01609 -8.477723,-0.58129 z"
         id="path1212"
         inkscape:connector-curvature="0"
         transform="translate(416.572,-360.945)" /><path
         style="opacity:1;fill:#ffffff;fill-opacity:1;stroke:none;stroke-width:1.5;stroke-linecap:round;stroke-linejoin:round;stroke-miterlimit:4;stroke-dasharray:none;stroke-opacity:1"
         d="m 41.256061,121.6368 -3.024643,-1.24003 -3.393906,1.13451 c -1.866648,0.62399 -3.425901,1.10252 -3.465006,1.06341 -0.03911,-0.0391 1.43699,-2.33157 3.280213,-5.09437 1.843222,-2.7628 3.382128,-4.98478 3.41979,-4.93774 0.03766,0.047 1.382352,2.14617 2.988201,4.66474 1.605849,2.51856 3.083636,4.82982 3.283971,5.13613 0.200335,0.30632 0.267895,0.54714 0.150134,0.53516 -0.117762,-0.012 -1.575201,-0.57979 -3.238754,-1.26181 z"
         id="path1216"
         inkscape:connector-curvature="0"
         transform="translate(416.572,-400.945)" /><path
         inkscape:connector-curvature="0"
         id="path1204"
         d="m 456.3969,-238.27085 -3.02464,-1.24003 -3.39391,1.13451 c -1.86665,0.62399 -3.4259,1.10252 -3.465,1.06341 -0.0391,-0.0391 1.43699,-2.33157 3.28021,-5.09437 1.84322,-2.7628 3.38213,-4.98478 3.41979,-4.93774 0.0377,0.047 1.38235,2.14617 2.9882,4.66474 1.60585,2.51856 3.08364,4.82982 3.28397,5.13613 0.20034,0.30632 0.2679,0.54714 0.15014,0.53516 -0.11777,-0.012 -1.57521,-0.57979 -3.23876,-1.26181 z"
         style="opacity:1;fill:#b8e69a;fill-opacity:1;stroke:none;stroke-width:1.5;stroke-linecap:round;stroke-linejoin:round;stroke-miterlimit:4;stroke-dasharray:none;stroke-opacity:1"
         transform="translate(2e-5,-40)" /><path
         inkscape:connector-curvature="0"
         id="path1191"
         d="m 445.5324,-236.47718 9.03465,-13.61386 8.91089,13.92327 -8.78713,-3.46535 z"
         style="fill:none;stroke:#424143;stroke-width:2;stroke-linecap:butt;stroke-linejoin:round;stroke-miterlimit:4;stroke-dasharray:none;stroke-opacity:1"
         transform="translate(2e-5,-40)" /><rect
         style="opacity:1;fill:none;fill-opacity:1;stroke:#424143;stroke-width:2.5;stroke-linecap:round;stroke-linejoin:round;stroke-miterlimit:4;stroke-dasharray:none;stroke-opacity:1"
         id="rect1176"
         width="89.356445"
         height="90.594055"
         x="421.77005"
         y="266.63809"
         transform="scale(1,-1)"
         ry="12.164337" /><rect
         ry="8.0126457"
         transform="scale(1,-1)"
         y="271.99573"
         x="427.05646"
         height="79.878784"
         width="78.78363"
         id="rect1178"
         style="opacity:1;fill:none;fill-opacity:1;stroke:#424143;stroke-width:2.5;stroke-linecap:round;stroke-linejoin:round;stroke-miterlimit:4;stroke-dasharray:none;stroke-opacity:1" /></g></g></svg>