<?xml version="1.0" encoding="UTF-8" standalone="no"?>
<!-- Generator: Adobe Illustrator 14.0.0, SVG Export Plug-In . SVG Version: 6.00 Build 43363)  -->

<svg
   xmlns:dc="http://purl.org/dc/elements/1.1/"
   xmlns:cc="http://creativecommons.org/ns#"
   xmlns:rdf="http://www.w3.org/1999/02/22-rdf-syntax-ns#"
   xmlns:svg="http://www.w3.org/2000/svg"
   xmlns="http://www.w3.org/2000/svg"
   xmlns:sodipodi="http://sodipodi.sourceforge.net/DTD/sodipodi-0.dtd"
   xmlns:inkscape="http://www.inkscape.org/namespaces/inkscape"
   version="1.1"
   id="Layer_1"
   inkscape:version="0.92.2 (5c3e80d, 2017-08-06)"
   sodipodi:docname="syringe.svg"
   x="0px"
   y="0px"
   width="100"
   height="100"
   viewBox="416.572 -360.945 100 100"
   enable-background="new 416.572 -360.945 595.275 841.89"
   xml:space="preserve"
   inkscape:export-filename="C:\Users\holly.jones\Downloads\volcano_pixelhint_12th_jan-20180116T210822Z-001\volcano_pixelhint_12th_jan\volcano_pixelhint\img\hedges_icon_100_white.png"
   inkscape:export-xdpi="149.93106"
   inkscape:export-ydpi="149.93106"><metadata
     id="metadata326"><rdf:RDF><cc:Work
         rdf:about=""><dc:format>image/svg+xml</dc:format><dc:type
           rdf:resource="http://purl.org/dc/dcmitype/StillImage" /><dc:title /></cc:Work></rdf:RDF></metadata><defs
     id="defs324"><clipPath
       clipPathUnits="userSpaceOnUse"
       id="clipPath1282"><rect
         ry="9.0558882"
         y="-355.80136"
         x="430.07397"
         height="89.648712"
         width="90.322769"
         id="rect1284"
         style="opacity:1;fill:#b8e69a;fill-opacity:1;stroke:none;stroke-width:1.99999988;stroke-linecap:round;stroke-linejoin:round;stroke-miterlimit:8.36363602;stroke-dasharray:none;stroke-opacity:1" /></clipPath></defs><sodipodi:namedview
     id="namedview230"
     inkscape:pageshadow="2"
     inkscape:window-width="1680"
     inkscape:window-height="987"
     inkscape:window-x="1912"
     inkscape:window-y="23"
     inkscape:current-layer="Layer_1"
     inkscape:pageopacity="0"
     gridtolerance="10"
     inkscape:zoom="0.505"
     inkscape:cy="-107.47701"
     guidetolerance="10"
     bordercolor="#666666"
     showgrid="false"
     borderopacity="1"
     objecttolerance="10"
     inkscape:cx="66.111763"
     pagecolor="#ffffff"
     inkscape:window-maximized="1"
     inkscape:snap-nodes="false" /><text
     xml:space="preserve"
     style="font-style:normal;font-weight:normal;font-size:40px;line-height:125%;font-family:Sans;letter-spacing:0px;word-spacing:0px;fill:#000000;fill-opacity:1;stroke:none;stroke-width:1px;stroke-linecap:butt;stroke-linejoin:miter;stroke-opacity:1"
     x="566.7934"
     y="-274.51813"
     id="text5063"><tspan
       sodipodi:role="line"
       id="tspan5061"
       x="566.7934"
       y="-239.1275" /></text>
<g
     id="g1598"
     transform="translate(-1.2149412,-1.0843832)"><path
       sodipodi:nodetypes="sccsssscs"
       inkscape:connector-curvature="0"
       id="path1582"
       d="m 486.60574,-334.02466 6.30721,6.56583 4.76491,4.99038 -41.12565,41.47496 c -3.01779,3.04336 -7.9463,2.93253 -10.93871,-0.13582 l -6.74475,-6.91591 c -2.99241,-3.06835 -2.95849,-7.97569 0.13579,-10.94124 l 42.0883,-40.33729 c 0,0 5.07225,4.80215 5.51288,5.29911 z"
       style="opacity:1;fill:#ffffff;fill-opacity:1;stroke:#424143;stroke-width:2.5;stroke-linecap:round;stroke-linejoin:round;stroke-miterlimit:4;stroke-dasharray:none;stroke-opacity:1" /><path
       inkscape:connector-curvature="0"
       id="path1569"
       d="m 445.81742,-281.14324 c -2.03315,-1.10147 -9.30192,-8.90427 -9.85445,-10.57845 -0.89064,-2.69864 0.0114,-4.95564 3.08203,-7.71181 l 1.55998,-1.40021 2.68404,2.88793 c 2.67579,2.87907 3.8993,3.53414 4.35975,2.33423 0.11687,-0.30454 0.21248,-0.61575 0.21248,-0.69158 0,-0.0758 -1.26216,-1.52004 -2.80481,-3.20936 l -2.8048,-3.07149 2.13572,-2.07647 2.13572,-2.07647 2.79841,3.03912 c 1.53913,1.67151 2.93163,3.03911 3.09445,3.03911 0.16282,0 0.54327,-0.24722 0.84543,-0.54939 0.72378,-0.72378 0.46067,-1.17688 -2.56451,-4.41621 l -2.44639,-2.61957 2.16825,-2.12507 2.16824,-2.12507 2.45037,2.75003 c 2.4198,2.71572 3.33256,3.38769 4.02248,2.96129 0.8335,-0.51513 0.19338,-1.82858 -2.19379,-4.50135 l -2.54697,-2.85169 2.14912,-2.02468 2.14913,-2.02469 2.55096,2.82973 c 1.87674,2.08183 2.74518,2.802 3.28579,2.72479 1.50856,-0.21544 1.05704,-1.47984 -1.52158,-4.26089 -1.35813,-1.46474 -2.46932,-2.79027 -2.46932,-2.94563 0,-0.26811 1.71535,-1.96637 3.40351,-3.3696 0.77698,-0.64584 0.78174,-0.64289 3.28905,2.04192 1.81996,1.94879 2.71266,2.65976 3.24393,2.58353 1.4429,-0.20703 1.03107,-1.31245 -1.55666,-4.17833 l -2.53167,-2.80377 2.06418,-2.09373 2.06417,-2.09373 2.6617,2.81929 c 1.46393,1.5506 2.81076,2.81928 2.99295,2.81928 0.47692,0 1.17138,-0.76379 1.17138,-1.28832 0,-0.24651 -1.10797,-1.66365 -2.46216,-3.14921 l -2.46216,-2.70101 3.06942,-3.0837 3.06941,-3.0837 6.59227,6.56546 c 3.62574,3.611 6.91756,7.01278 7.31514,7.55952 l 0.72288,0.99406 -19.91171,20.00687 c -10.95144,11.00377 -20.52613,20.44106 -21.27709,20.97175 -1.75457,1.23993 -4.02124,1.30575 -6.10427,0.17727 z"
       style="opacity:1;fill:#b8e69a;fill-opacity:1;stroke:none;stroke-width:3;stroke-linecap:round;stroke-linejoin:round;stroke-miterlimit:4;stroke-dasharray:none;stroke-opacity:1" /><path
       style="opacity:1;fill:none;fill-opacity:1;stroke:#424143;stroke-width:2.5;stroke-linecap:round;stroke-linejoin:round;stroke-miterlimit:4;stroke-dasharray:none;stroke-opacity:1"
       d="m 486.60574,-334.02466 6.30721,6.56583 4.76491,4.99038 -41.12565,41.47496 c -3.01779,3.04336 -7.9463,2.93253 -10.93871,-0.13582 l -6.74475,-6.91591 c -2.99241,-3.06835 -2.95849,-7.97569 0.13579,-10.94124 l 42.0883,-40.33729 c 0,0 5.07225,4.80215 5.51288,5.29911 z"
       id="rect1500"
       inkscape:connector-curvature="0"
       sodipodi:nodetypes="sccsssscs" /><path
       inkscape:connector-curvature="0"
       id="path1502"
       d="m 476.74611,-344.1635 25.8956,26.55275"
       style="fill:none;stroke:#424143;stroke-width:3;stroke-linecap:round;stroke-linejoin:miter;stroke-miterlimit:4;stroke-dasharray:none;stroke-opacity:1" /><path
       inkscape:connector-curvature="0"
       id="path1509"
       d="m 440.48819,-285.07043 -17.75377,19.25271 20.11031,-17.16495 z"
       style="fill:none;stroke:#424143;stroke-width:3;stroke-linecap:round;stroke-linejoin:round;stroke-miterlimit:4;stroke-dasharray:none;stroke-opacity:1" /><path
       style="fill:none;stroke:#424143;stroke-width:2;stroke-linecap:round;stroke-linejoin:miter;stroke-miterlimit:4;stroke-dasharray:none;stroke-opacity:1"
       d="m 472.76535,-331.60123 5.82,6.34729"
       id="path1511"
       inkscape:connector-curvature="0" /><path
       inkscape:connector-curvature="0"
       id="path1513"
       d="m 466.85639,-325.74863 5.82001,6.34728"
       style="fill:none;stroke:#424143;stroke-width:2;stroke-linecap:round;stroke-linejoin:miter;stroke-miterlimit:4;stroke-dasharray:none;stroke-opacity:1" /><path
       style="fill:none;stroke:#424143;stroke-width:2;stroke-linecap:round;stroke-linejoin:miter;stroke-miterlimit:4;stroke-dasharray:none;stroke-opacity:1"
       d="m 460.94744,-319.89605 5.82,6.34729"
       id="path1515"
       inkscape:connector-curvature="0" /><path
       inkscape:connector-curvature="0"
       id="path1517"
       d="m 455.03848,-314.04346 5.82001,6.34729"
       style="fill:none;stroke:#424143;stroke-width:2;stroke-linecap:round;stroke-linejoin:miter;stroke-miterlimit:4;stroke-dasharray:none;stroke-opacity:1" /><path
       style="fill:none;stroke:#424143;stroke-width:2;stroke-linecap:round;stroke-linejoin:miter;stroke-miterlimit:4;stroke-dasharray:none;stroke-opacity:1"
       d="m 449.12953,-308.19087 5.82001,6.34729"
       id="path1519"
       inkscape:connector-curvature="0" /><path
       inkscape:connector-curvature="0"
       id="path1521"
       d="m 443.22058,-302.33828 5.82001,6.34729"
       style="fill:none;stroke:#424143;stroke-width:2;stroke-linecap:round;stroke-linejoin:miter;stroke-miterlimit:4;stroke-dasharray:none;stroke-opacity:1" /><path
       inkscape:connector-curvature="0"
       id="path1525"
       d="m 490.76713,-331.93426 12.53928,-12.23462"
       style="fill:none;stroke:#424143;stroke-width:3.49999976;stroke-linecap:round;stroke-linejoin:miter;stroke-miterlimit:4;stroke-dasharray:none;stroke-opacity:1" /><path
       style="fill:none;stroke:#424143;stroke-width:3.49999976;stroke-linecap:round;stroke-linejoin:miter;stroke-miterlimit:4;stroke-dasharray:none;stroke-opacity:1"
       d="m 495.40698,-353.63405 17.16339,17.59895"
       id="path1527"
       inkscape:connector-curvature="0" /><path
       transform="translate(416.572,-360.945)"
       inkscape:connector-curvature="0"
       id="path1567"
       d="m 31.682995,79.90207 c -2.033151,-1.101465 -9.301928,-8.90427 -9.854458,-10.578453 -0.890633,-2.698642 0.01138,-4.955639 3.082031,-7.711809 l 1.559977,-1.400211 2.684042,2.887936 c 2.675797,2.879066 3.899307,3.534137 4.359755,2.334226 0.116863,-0.304539 0.212479,-0.61575 0.212479,-0.691582 0,-0.07583 -1.262163,-1.520038 -2.804807,-3.209358 l -2.804806,-3.071486 2.135724,-2.076473 2.135723,-2.076472 2.798407,3.039118 c 1.539124,1.671513 2.931625,3.039117 3.094449,3.039117 0.162823,0 0.543267,-0.247224 0.845431,-0.54939 0.723781,-0.72378 0.460664,-1.176881 -2.564512,-4.41621 l -2.446394,-2.619575 2.168249,-2.125071 2.168249,-2.12507 2.45037,2.750033 c 2.419796,2.715719 3.332561,3.387685 4.022476,2.961294 0.833502,-0.515133 0.193377,-1.828582 -2.193788,-4.50135 l -2.546974,-2.851696 2.149125,-2.024683 2.149125,-2.024683 2.550963,2.82973 c 1.876738,2.081824 2.745179,2.801993 3.285785,2.724789 1.508568,-0.215441 1.057048,-1.47984 -1.521578,-4.260891 -1.358123,-1.464738 -2.469314,-2.790272 -2.469314,-2.945631 0,-0.268107 1.715347,-1.966365 3.403504,-3.369597 0.776983,-0.645846 0.781738,-0.642893 3.289055,2.041917 1.819958,1.948793 2.712656,2.659757 3.243926,2.58353 1.442904,-0.207029 1.031073,-1.312452 -1.556664,-4.178326 l -2.531663,-2.803774 2.064174,-2.09373 2.064174,-2.093729 2.661697,2.819286 c 1.463935,1.550607 2.810764,2.819286 2.992952,2.819286 0.476923,0 1.171382,-0.763788 1.171382,-1.288324 0,-0.246508 -1.107973,-1.663652 -2.46216,-3.149209 l -2.46216,-2.701011 3.069414,-3.083702 3.069414,-3.083701 6.592269,6.56546 c 3.625746,3.611003 6.917563,7.012789 7.315143,7.559524 l 0.722876,0.994063 -19.91171,20.006867 C 48.112908,69.756824 38.538222,79.194113 37.787265,79.724804 c -1.754571,1.239925 -4.021248,1.305749 -6.10427,0.177266 z"
       style="opacity:1;fill:none;fill-opacity:1;stroke:none;stroke-width:3;stroke-linecap:round;stroke-linejoin:round;stroke-miterlimit:4;stroke-dasharray:none;stroke-opacity:1" /></g></svg>