<?xml version="1.0" encoding="UTF-8" standalone="no"?>
<!-- Generator: Adobe Illustrator 14.0.0, SVG Export Plug-In . SVG Version: 6.00 Build 43363)  -->

<svg
   xmlns:dc="http://purl.org/dc/elements/1.1/"
   xmlns:cc="http://creativecommons.org/ns#"
   xmlns:rdf="http://www.w3.org/1999/02/22-rdf-syntax-ns#"
   xmlns:svg="http://www.w3.org/2000/svg"
   xmlns="http://www.w3.org/2000/svg"
   xmlns:sodipodi="http://sodipodi.sourceforge.net/DTD/sodipodi-0.dtd"
   xmlns:inkscape="http://www.inkscape.org/namespaces/inkscape"
   version="1.1"
   id="Layer_1"
   inkscape:version="0.92.2 (5c3e80d, 2017-08-06)"
   sodipodi:docname="tree.svg"
   x="0px"
   y="0px"
   width="100"
   height="100"
   viewBox="416.572 -360.945 100 100"
   enable-background="new 416.572 -360.945 595.275 841.89"
   xml:space="preserve"
   inkscape:export-filename="C:\Users\holly.jones\Downloads\volcano_pixelhint_12th_jan-20180116T210822Z-001\volcano_pixelhint_12th_jan\volcano_pixelhint\img\hedges_icon_100_white.png"
   inkscape:export-xdpi="149.93106"
   inkscape:export-ydpi="149.93106"><metadata
     id="metadata326"><rdf:RDF><cc:Work
         rdf:about=""><dc:format>image/svg+xml</dc:format><dc:type
           rdf:resource="http://purl.org/dc/dcmitype/StillImage" /><dc:title /></cc:Work></rdf:RDF></metadata><defs
     id="defs324" /><sodipodi:namedview
     id="namedview230"
     inkscape:pageshadow="2"
     inkscape:window-width="1920"
     inkscape:window-height="1001"
     inkscape:window-x="-9"
     inkscape:window-y="-9"
     inkscape:current-layer="Layer_1"
     inkscape:pageopacity="0"
     gridtolerance="10"
     inkscape:zoom="1.01"
     inkscape:cy="29.348116"
     guidetolerance="10"
     bordercolor="#666666"
     showgrid="false"
     borderopacity="1"
     objecttolerance="10"
     inkscape:cx="83.992819"
     pagecolor="#ffffff"
     inkscape:window-maximized="1"
     inkscape:snap-nodes="false" /><text
     xml:space="preserve"
     style="font-style:normal;font-weight:normal;font-size:40px;line-height:125%;font-family:Sans;letter-spacing:0px;word-spacing:0px;fill:#000000;fill-opacity:1;stroke:none;stroke-width:1px;stroke-linecap:butt;stroke-linejoin:miter;stroke-opacity:1"
     x="566.7934"
     y="-274.51813"
     id="text5063"><tspan
       sodipodi:role="line"
       id="tspan5061"
       x="566.7934"
       y="-239.1275" /></text>
<path
     d="M 1049.2848,-347.50267"
     stroke-miterlimit="10"
     id="path1720"
     inkscape:connector-curvature="0"
     style="fill:none;stroke:#010101;stroke-width:2.76591682;stroke-linejoin:round;stroke-miterlimit:10" /><g
     id="g1198"
     transform="translate(4.5060178e-6,4.7928521e-6)"><g
       style="fill:#ffffff;fill-opacity:1;stroke:#424143;stroke-opacity:1"
       id="g1188"
       transform="translate(117.01152,-146.74321)"><path
         sodipodi:nodetypes="ccccccccccc"
         inkscape:connector-curvature="0"
         id="path1184"
         d="m 349.78374,-148.30575 c 2.00328,0.57495 3.7,0.92876 5.58101,1.01461 l 0.11961,5.08453 c -0.19285,4.43791 1.96851,2.99028 5.18791,-1.10243 l 6.38701,-6.69346 c 2.17591,0.0406 5.08497,0.58212 5.99222,0.51991 l -13.04849,13.76044 c -1.48665,1.62522 -2.50159,4.01328 -2.64397,6.73835 l -0.9668,9.15008 -8.8843,-0.2594 c 1.81941,-10.23094 3.25354,-19.41695 2.2758,-28.21263 z"
         style="fill:#ffffff;fill-opacity:1;stroke:#424143;stroke-width:2.5;stroke-linecap:butt;stroke-linejoin:round;stroke-miterlimit:4;stroke-dasharray:none;stroke-opacity:1" /><path
         sodipodi:nodetypes="csccccccc"
         inkscape:connector-curvature="0"
         id="path1186"
         d="m 328.16333,-192.62087 c -12.6661,0.86213 -17.66055,7.95375 -17.54787,15.42793 0.18168,12.051 7.44358,15.40217 17.63957,18.22973 5.16987,12.74007 12.78261,9.60151 20.54309,5.50261 7.33636,4.55312 12.85862,1.84979 18.25034,-1.37565 9.68565,5.05504 30.42289,-6.22885 17.14982,-23.66125 5.73235,-8.5784 2.81341,-21.3548 -13.3897,-19.35086 -3.13666,-7.31608 -11.98612,-16.78843 -25.86229,-5.59432 -10.71931,-1.64272 -15.62129,2.67378 -16.78296,10.82181 z"
         style="fill:#ffffff;fill-opacity:1;stroke:#424143;stroke-width:2.5;stroke-linecap:butt;stroke-linejoin:miter;stroke-miterlimit:4;stroke-dasharray:none;stroke-opacity:1" /></g><path
       sodipodi:nodetypes="cccccscsscsscsc"
       inkscape:connector-curvature="0"
       id="path1170"
       d="m 464.66899,-267.41423 c 0.54935,-0.88887 2.01428,-13.21269 2.20128,-18.5184 0.20562,-5.83436 0.23764,-6.03823 0.94747,-6.03305 0.74263,0.005 1.68738,0.26374 1.68738,0.26374 0,0 -0.0718,1.99813 0.01,3.33736 0.2192,3.60038 0.72193,4.44476 2.6464,4.44476 1.08191,0 1.56926,-0.35766 4.17357,-3.06297 1.62174,-1.68463 3.74763,-3.96872 4.72419,-5.07576 1.59512,-1.80825 1.91549,-2.01281 3.15239,-2.01281 h 1.37682 l -6.01716,6.33981 c -7.39628,7.79287 -7.56214,8.09941 -8.33675,15.40766 l -0.55185,5.2066 h -3.09847 c -1.70416,0 -3.01589,-0.13362 -2.91495,-0.29694 z"
       style="opacity:1;fill:#b8e69a;fill-opacity:1;stroke:none;stroke-width:2.5;stroke-linecap:round;stroke-linejoin:round;stroke-miterlimit:4;stroke-dasharray:none;stroke-opacity:1" /><path
       inkscape:connector-curvature="0"
       id="path1167"
       d="m 451.12297,-296.34668 c -1.79389,-0.51597 -4.63161,-3.58444 -5.79469,-6.26589 l -0.99474,-2.29335 -2.31524,-0.65435 c -10.71331,-3.02784 -14.84809,-7.60397 -14.8745,-16.46223 -0.008,-2.72243 0.12504,-3.44641 0.98009,-5.32863 1.08986,-2.39912 3.70284,-5.14798 6.01454,-6.32732 1.97501,-1.00758 5.057,-1.84595 7.77353,-2.11459 l 2.34179,-0.23157 0.55297,-2.27535 c 0.77179,-3.17571 1.5503,-4.65296 3.30398,-6.26945 2.11275,-1.94746 4.53061,-2.60438 8.88304,-2.41346 l 3.36244,0.14749 2.45037,-1.65739 c 4.52773,-3.06249 8.50246,-4.0392 12.13733,-2.98252 3.50358,1.01852 7.04379,4.31402 8.96485,8.34518 l 0.95115,1.99587 2.62539,-0.2011 c 5.78416,-0.44307 10.2548,1.56509 12.12874,5.4481 1.36596,2.8304 0.87329,7.57025 -1.16824,11.23935 l -0.87649,1.57523 1.57129,2.33401 c 3.06465,4.55229 3.73999,9.1789 1.89135,12.95738 -2.88437,5.89544 -11.21876,9.42663 -17.24765,7.30765 l -1.93325,-0.67949 -1.9961,1.20393 c -4.91621,2.96517 -9.5126,3.39019 -13.80587,1.27663 l -2.33114,-1.14762 -2.82077,1.41826 c -4.3801,2.20227 -7.20086,2.7954 -9.77417,2.05523 z"
       style="opacity:1;fill:#b8e69a;fill-opacity:1;stroke:none;stroke-width:2.5;stroke-linecap:round;stroke-linejoin:round;stroke-miterlimit:4;stroke-dasharray:none;stroke-opacity:1" /><g
       transform="translate(117.01152,-146.74321)"
       id="g1165"><path
         style="fill:none;stroke:#424143;stroke-width:2.5;stroke-linecap:butt;stroke-linejoin:round;stroke-miterlimit:4;stroke-dasharray:none;stroke-opacity:1"
         d="m 349.78374,-148.30575 c 2.00328,0.57495 3.7,0.92876 5.58101,1.01461 l 0.11961,5.08453 c -0.19285,4.43791 1.96851,2.99028 5.18791,-1.10243 l 6.38701,-6.69346 c 2.17591,0.0406 5.08497,0.58212 5.99222,0.51991 l -13.04849,13.76044 c -1.48665,1.62522 -2.50159,4.01328 -2.64397,6.73835 l -0.9668,9.15008 -8.8843,-0.2594 c 1.81941,-10.23094 3.25354,-19.41695 2.2758,-28.21263 z"
         id="path1159"
         inkscape:connector-curvature="0"
         sodipodi:nodetypes="ccccccccccc" /><path
         style="fill:none;stroke:#424143;stroke-width:2.5;stroke-linecap:butt;stroke-linejoin:miter;stroke-miterlimit:4;stroke-dasharray:none;stroke-opacity:1"
         d="m 328.16333,-192.62087 c -12.6661,0.86213 -17.66055,7.95375 -17.54787,15.42793 0.18168,12.051 7.44358,15.40217 17.63957,18.22973 5.16987,12.74007 12.78261,9.60151 20.54309,5.50261 7.33636,4.55312 12.85862,1.84979 18.25034,-1.37565 9.68565,5.05504 30.42289,-6.22885 17.14982,-23.66125 5.73235,-8.5784 2.81341,-21.3548 -13.3897,-19.35086 -3.13666,-7.31608 -11.98612,-16.78843 -25.86229,-5.59432 -10.71931,-1.64272 -15.62129,2.67378 -16.78296,10.82181 z"
         id="path1161"
         inkscape:connector-curvature="0"
         sodipodi:nodetypes="csccccccc" /></g></g></svg>