<?xml version="1.0" encoding="UTF-8" standalone="no"?>
<!-- Created with Inkscape (http://www.inkscape.org/) -->

<svg
   xmlns:dc="http://purl.org/dc/elements/1.1/"
   xmlns:cc="http://creativecommons.org/ns#"
   xmlns:rdf="http://www.w3.org/1999/02/22-rdf-syntax-ns#"
   xmlns:svg="http://www.w3.org/2000/svg"
   xmlns="http://www.w3.org/2000/svg"
   xmlns:sodipodi="http://sodipodi.sourceforge.net/DTD/sodipodi-0.dtd"
   xmlns:inkscape="http://www.inkscape.org/namespaces/inkscape"
   width="210mm"
   height="297mm"
   viewBox="0 0 210 297"
   version="1.1"
   id="svg2232"
   sodipodi:docname="donut.svg"
   inkscape:version="0.92.2 (5c3e80d, 2017-08-06)">
  <defs
     id="defs2226" />
  <sodipodi:namedview
     id="base"
     pagecolor="#ffffff"
     bordercolor="#666666"
     borderopacity="1.0"
     inkscape:pageopacity="0.0"
     inkscape:pageshadow="2"
     inkscape:zoom="2"
     inkscape:cx="231.94879"
     inkscape:cy="790.28587"
     inkscape:document-units="mm"
     inkscape:current-layer="layer1"
     showgrid="false"
     inkscape:window-width="1680"
     inkscape:window-height="987"
     inkscape:window-x="1912"
     inkscape:window-y="-8"
     inkscape:window-maximized="1"
     inkscape:snap-others="false"
     inkscape:snap-global="false" />
  <metadata
     id="metadata2229">
    <rdf:RDF>
      <cc:Work
         rdf:about="">
        <dc:format>image/svg+xml</dc:format>
        <dc:type
           rdf:resource="http://purl.org/dc/dcmitype/StillImage" />
        <dc:title></dc:title>
      </cc:Work>
    </rdf:RDF>
  </metadata>
  <g
     inkscape:label="Layer 1"
     inkscape:groupmode="layer"
     id="layer1">
    <g
       id="g2948">
      <path
         id="path2781"
         d="M 32.733403,53.38899 A 6.1873738,8.0433658 26.117043 0 1 26.591141,54.29746 6.1873738,8.0433658 26.117043 0 1 25.611873,53.650472 24.568965,24.568965 0 0 0 8.6330646,77.002017 24.568965,24.568965 0 0 0 33.202107,101.57106 24.568965,24.568965 0 0 0 57.771151,77.002017 24.568965,24.568965 0 0 0 54.997675,65.7071 6.1873738,8.0433658 26.117043 0 1 50.150426,65.84766 6.1873738,8.0433658 26.117043 0 1 47.403308,62.391541 9.5300651,12.388746 26.117043 0 1 37.235971,64.355762 9.5300651,12.388746 26.117043 0 1 32.733403,53.38899 Z m 0.754991,15.228527 a 8.097925,8.4948005 0 0 1 8.098213,8.495088 8.097925,8.4948005 0 0 1 -8.098213,8.494572 8.097925,8.4948005 0 0 1 -8.097696,-8.494572 8.097925,8.4948005 0 0 1 8.097696,-8.495088 z"
         style="opacity:1;fill:#803300;fill-opacity:1;stroke:#eef7f3;stroke-width:0.86206883;stroke-linecap:round;stroke-linejoin:round;stroke-miterlimit:4;stroke-dasharray:none;stroke-opacity:1"
         inkscape:connector-curvature="0" />
      <path
         inkscape:connector-curvature="0"
         id="path2802"
         d="M 23.948926,48.137114 C 13.164439,52.215076 5.1788812,63.059371 6.0017018,74.478144 c 0.2399644,2.90702 0.3665651,6.812672 4.5537262,6.634218 2.918463,-0.124383 2.145656,-9.554778 8.711613,-9.451101 5.258566,0.08303 3.407803,9.251378 7.606254,9.637654 2.297648,0.211394 2.4713,-3.747884 1.237132,-6.820771 -0.869087,-3.556645 2.207157,-7.089068 6.544821,-6.784599 4.374025,0.212455 5.733171,3.615661 4.816245,6.971668 -0.518287,2.567236 0.13594,5.802227 2.424657,5.802227 4.881486,0 1.415965,-8.694557 7.38663,-8.694557 6.531919,0 3.948178,9.045607 7.855852,8.747268 2.325521,-0.177546 3.724066,-3.24099 3.830772,-5.854938 0.335333,-4.185992 -0.237895,-8.183745 -1.798857,-11.856641 A 6.1873738,9.7781799 26.117043 0 1 49.971109,67.670291 6.1873738,9.7781799 26.117043 0 1 47.403307,63.84675 9.5300651,15.060784 26.117043 0 1 36.643758,67.019683 9.5300651,15.060784 26.117043 0 1 32.887913,54.52949 6.1873738,9.7781799 26.117043 0 1 26.411307,56.119575 6.1873738,9.7781799 26.117043 0 1 23.948926,48.137114 Z"
         style="opacity:1;fill:#ff00ff;fill-opacity:1;stroke:#eef7f3;stroke-width:0.86206877;stroke-linecap:round;stroke-linejoin:round;stroke-miterlimit:4;stroke-dasharray:none;stroke-opacity:1" />
      <rect
         inkscape:transform-center-y="0.86443212"
         inkscape:transform-center-x="-2.305155"
         transform="rotate(-33.178513)"
         ry="1.0890667"
         y="58.322308"
         x="-16.83246"
         height="2.5411556"
         width="5.4225988"
         id="rect2899"
         style="opacity:1;fill:#800000;fill-opacity:1;stroke:#eef7f3;stroke-width:0.34028739;stroke-linecap:round;stroke-linejoin:round;stroke-miterlimit:4;stroke-dasharray:none;stroke-opacity:1" />
      <rect
         style="opacity:1;fill:#800000;fill-opacity:1;stroke:#eef7f3;stroke-width:0.34028739;stroke-linecap:round;stroke-linejoin:round;stroke-miterlimit:4;stroke-dasharray:none;stroke-opacity:1"
         id="rect2901"
         width="5.4225988"
         height="2.5411556"
         x="46.87199"
         y="48.889965"
         ry="1.0890667"
         transform="rotate(35.563627)"
         inkscape:transform-center-x="-0.030153086"
         inkscape:transform-center-y="2.4617189" />
      <rect
         inkscape:transform-center-y="-1.6051136"
         inkscape:transform-center-x="1.8666983"
         transform="rotate(166.95657)"
         ry="1.0890667"
         y="-74.71637"
         x="-9.5816488"
         height="2.5411556"
         width="5.4225988"
         id="rect2903"
         style="opacity:1;fill:#800000;fill-opacity:1;stroke:#eef7f3;stroke-width:0.34028739;stroke-linecap:round;stroke-linejoin:round;stroke-miterlimit:4;stroke-dasharray:none;stroke-opacity:1" />
      <rect
         style="opacity:1;fill:#800000;fill-opacity:1;stroke:#eef7f3;stroke-width:0.34028739;stroke-linecap:round;stroke-linejoin:round;stroke-miterlimit:4;stroke-dasharray:none;stroke-opacity:1"
         id="rect2905"
         width="5.4225988"
         height="2.5411556"
         x="35.582649"
         y="-56.076778"
         ry="1.0890667"
         transform="rotate(126.28792)"
         inkscape:transform-center-x="10.928565"
         inkscape:transform-center-y="-1.0593017" />
      <rect
         inkscape:transform-center-y="1.548026"
         inkscape:transform-center-x="-1.9143087"
         transform="rotate(-14.773466)"
         ry="1.0890667"
         y="82.907982"
         x="33.950146"
         height="2.5411556"
         width="5.4225988"
         id="rect2907"
         style="opacity:1;fill:#800000;fill-opacity:1;stroke:#eef7f3;stroke-width:0.34028739;stroke-linecap:round;stroke-linejoin:round;stroke-miterlimit:4;stroke-dasharray:none;stroke-opacity:1" />
    </g>
  </g>
</svg>
