<?xml version="1.0" encoding="UTF-8" standalone="no"?>
<!-- Created with Inkscape (http://www.inkscape.org/) -->

<svg
   xmlns:dc="http://purl.org/dc/elements/1.1/"
   xmlns:cc="http://creativecommons.org/ns#"
   xmlns:rdf="http://www.w3.org/1999/02/22-rdf-syntax-ns#"
   xmlns:svg="http://www.w3.org/2000/svg"
   xmlns="http://www.w3.org/2000/svg"
   xmlns:xlink="http://www.w3.org/1999/xlink"
   xmlns:sodipodi="http://sodipodi.sourceforge.net/DTD/sodipodi-0.dtd"
   xmlns:inkscape="http://www.inkscape.org/namespaces/inkscape"
   width="125.69898mm"
   height="93.225395mm"
   viewBox="0 0 125.69898 93.225395"
   version="1.1"
   id="svg1424"
   inkscape:version="0.92.2 (5c3e80d, 2017-08-06)"
   sodipodi:docname="friends_banner_small.svg">
  <defs
     id="defs1418">
    <clipPath
       clipPathUnits="userSpaceOnUse"
       id="clipPath2027">
      <rect
         ry="2.4054258"
         y="9.685257"
         x="8.5526247"
         height="39.555889"
         width="191.36499"
         id="rect2029"
         style="opacity:1;fill:#d4aa00;fill-opacity:1;stroke:none;stroke-width:3.96875;stroke-linecap:butt;stroke-linejoin:round;stroke-miterlimit:4;stroke-dasharray:none;stroke-opacity:1" />
    </clipPath>
    <clipPath
       clipPathUnits="userSpaceOnUse"
       id="clipPath4792">
      <rect
         style="opacity:1;fill:#f5eeff;fill-opacity:1;stroke:none;stroke-width:25.34943008;stroke-linecap:butt;stroke-linejoin:round;stroke-miterlimit:4;stroke-dasharray:none;stroke-opacity:1"
         id="rect4794"
         width="1006.0446"
         height="1432.3348"
         x="56.639576"
         y="-656.64349"
         transform="scale(1,-1)" />
    </clipPath>
    <clipPath
       id="SVGID_8_">
      <use
         height="100%"
         width="100%"
         y="0"
         x="0"
         style="overflow:visible"
         id="use33"
         overflow="visible"
         xlink:href="#SVGID_7_" />
    </clipPath>
    <clipPath
       id="clipPath1106">
      <use
         height="100%"
         width="100%"
         y="0"
         x="0"
         style="overflow:visible"
         id="use1104"
         overflow="visible"
         xlink:href="#SVGID_7_" />
    </clipPath>
    <clipPath
       id="clipPath1110">
      <use
         height="100%"
         width="100%"
         y="0"
         x="0"
         style="overflow:visible"
         id="use1108"
         overflow="visible"
         xlink:href="#SVGID_7_" />
    </clipPath>
    <clipPath
       id="clipPath1114">
      <use
         height="100%"
         width="100%"
         y="0"
         x="0"
         style="overflow:visible"
         id="use1112"
         overflow="visible"
         xlink:href="#SVGID_7_" />
    </clipPath>
    <clipPath
       id="clipPath1118">
      <use
         height="100%"
         width="100%"
         y="0"
         x="0"
         style="overflow:visible"
         id="use1116"
         overflow="visible"
         xlink:href="#SVGID_7_" />
    </clipPath>
    <clipPath
       id="clipPath1122">
      <use
         height="100%"
         width="100%"
         y="0"
         x="0"
         style="overflow:visible"
         id="use1120"
         overflow="visible"
         xlink:href="#SVGID_7_" />
    </clipPath>
    <clipPath
       id="clipPath1126">
      <use
         height="100%"
         width="100%"
         y="0"
         x="0"
         style="overflow:visible"
         id="use1124"
         overflow="visible"
         xlink:href="#SVGID_7_" />
    </clipPath>
    <clipPath
       clipPathUnits="userSpaceOnUse"
       id="clipPath4792-2">
      <rect
         style="opacity:1;fill:#f5eeff;fill-opacity:1;stroke:none;stroke-width:25.34943008;stroke-linecap:butt;stroke-linejoin:round;stroke-miterlimit:4;stroke-dasharray:none;stroke-opacity:1"
         id="rect4794-3"
         width="1006.0446"
         height="1432.3348"
         x="56.639576"
         y="-656.64349"
         transform="scale(1,-1)" />
    </clipPath>
    <clipPath
       id="SVGID_8_-7">
      <use
         height="100%"
         width="100%"
         y="0"
         x="0"
         style="overflow:visible"
         id="use33-1"
         overflow="visible"
         xlink:href="#SVGID_7_" />
    </clipPath>
    <clipPath
       id="clipPath1106-9">
      <use
         height="100%"
         width="100%"
         y="0"
         x="0"
         style="overflow:visible"
         id="use1104-5"
         overflow="visible"
         xlink:href="#SVGID_7_" />
    </clipPath>
    <clipPath
       id="clipPath1110-6">
      <use
         height="100%"
         width="100%"
         y="0"
         x="0"
         style="overflow:visible"
         id="use1108-9"
         overflow="visible"
         xlink:href="#SVGID_7_" />
    </clipPath>
    <clipPath
       id="clipPath1114-0">
      <use
         height="100%"
         width="100%"
         y="0"
         x="0"
         style="overflow:visible"
         id="use1112-8"
         overflow="visible"
         xlink:href="#SVGID_7_" />
    </clipPath>
    <clipPath
       id="clipPath1118-4">
      <use
         height="100%"
         width="100%"
         y="0"
         x="0"
         style="overflow:visible"
         id="use1116-4"
         overflow="visible"
         xlink:href="#SVGID_7_" />
    </clipPath>
    <clipPath
       id="clipPath1122-8">
      <use
         height="100%"
         width="100%"
         y="0"
         x="0"
         style="overflow:visible"
         id="use1120-4"
         overflow="visible"
         xlink:href="#SVGID_7_" />
    </clipPath>
    <clipPath
       id="clipPath1126-3">
      <use
         height="100%"
         width="100%"
         y="0"
         x="0"
         style="overflow:visible"
         id="use1124-8"
         overflow="visible"
         xlink:href="#SVGID_7_" />
    </clipPath>
    <clipPath
       clipPathUnits="userSpaceOnUse"
       id="clipPath4792-25">
      <rect
         style="opacity:1;fill:#f5eeff;fill-opacity:1;stroke:none;stroke-width:25.34943008;stroke-linecap:butt;stroke-linejoin:round;stroke-miterlimit:4;stroke-dasharray:none;stroke-opacity:1"
         id="rect4794-1"
         width="1006.0446"
         height="1432.3348"
         x="56.639576"
         y="-656.64349"
         transform="scale(1,-1)" />
    </clipPath>
    <clipPath
       id="SVGID_8_-9">
      <use
         height="100%"
         width="100%"
         y="0"
         x="0"
         style="overflow:visible"
         id="use33-0"
         overflow="visible"
         xlink:href="#SVGID_7_" />
    </clipPath>
    <clipPath
       id="clipPath1150">
      <use
         height="100%"
         width="100%"
         y="0"
         x="0"
         style="overflow:visible"
         id="use1148"
         overflow="visible"
         xlink:href="#SVGID_7_" />
    </clipPath>
    <clipPath
       id="clipPath1154">
      <use
         height="100%"
         width="100%"
         y="0"
         x="0"
         style="overflow:visible"
         id="use1152"
         overflow="visible"
         xlink:href="#SVGID_7_" />
    </clipPath>
    <clipPath
       id="clipPath1158">
      <use
         height="100%"
         width="100%"
         y="0"
         x="0"
         style="overflow:visible"
         id="use1156"
         overflow="visible"
         xlink:href="#SVGID_7_" />
    </clipPath>
    <clipPath
       id="clipPath1162">
      <use
         height="100%"
         width="100%"
         y="0"
         x="0"
         style="overflow:visible"
         id="use1160"
         overflow="visible"
         xlink:href="#SVGID_7_" />
    </clipPath>
    <clipPath
       id="clipPath1166">
      <use
         height="100%"
         width="100%"
         y="0"
         x="0"
         style="overflow:visible"
         id="use1164"
         overflow="visible"
         xlink:href="#SVGID_7_" />
    </clipPath>
    <clipPath
       id="clipPath1170">
      <use
         height="100%"
         width="100%"
         y="0"
         x="0"
         style="overflow:visible"
         id="use1168"
         overflow="visible"
         xlink:href="#SVGID_7_" />
    </clipPath>
    <clipPath
       clipPathUnits="userSpaceOnUse"
       id="clipPath4792-5">
      <rect
         style="opacity:1;fill:#f5eeff;fill-opacity:1;stroke:none;stroke-width:25.34943008;stroke-linecap:butt;stroke-linejoin:round;stroke-miterlimit:4;stroke-dasharray:none;stroke-opacity:1"
         id="rect4794-4"
         width="1006.0446"
         height="1432.3348"
         x="56.639576"
         y="-656.64349"
         transform="scale(1,-1)" />
    </clipPath>
    <clipPath
       id="SVGID_8_-79">
      <use
         height="100%"
         width="100%"
         y="0"
         x="0"
         style="overflow:visible"
         id="use33-7"
         overflow="visible"
         xlink:href="#SVGID_7_" />
    </clipPath>
    <clipPath
       id="clipPath1150-5">
      <use
         height="100%"
         width="100%"
         y="0"
         x="0"
         style="overflow:visible"
         id="use1148-4"
         overflow="visible"
         xlink:href="#SVGID_7_" />
    </clipPath>
    <clipPath
       id="clipPath1154-0">
      <use
         height="100%"
         width="100%"
         y="0"
         x="0"
         style="overflow:visible"
         id="use1152-2"
         overflow="visible"
         xlink:href="#SVGID_7_" />
    </clipPath>
    <clipPath
       id="clipPath1158-1">
      <use
         height="100%"
         width="100%"
         y="0"
         x="0"
         style="overflow:visible"
         id="use1156-9"
         overflow="visible"
         xlink:href="#SVGID_7_" />
    </clipPath>
    <clipPath
       id="clipPath1162-4">
      <use
         height="100%"
         width="100%"
         y="0"
         x="0"
         style="overflow:visible"
         id="use1160-1"
         overflow="visible"
         xlink:href="#SVGID_7_" />
    </clipPath>
    <clipPath
       id="clipPath1166-6">
      <use
         height="100%"
         width="100%"
         y="0"
         x="0"
         style="overflow:visible"
         id="use1164-1"
         overflow="visible"
         xlink:href="#SVGID_7_" />
    </clipPath>
    <clipPath
       id="clipPath1170-8">
      <use
         height="100%"
         width="100%"
         y="0"
         x="0"
         style="overflow:visible"
         id="use1168-7"
         overflow="visible"
         xlink:href="#SVGID_7_" />
    </clipPath>
    <defs
       id="defs3">
      <rect
         height="780"
         width="1096"
         id="SVGID_1_"
         x="0"
         y="0" />
    </defs>
    <clipPath
       id="SVGID_2_">
      <use
         id="use5"
         overflow="visible"
         xlink:href="#SVGID_1_"
         style="overflow:visible"
         x="0"
         y="0"
         width="100%"
         height="100%" />
    </clipPath>
    <defs
       id="defs1234">
      <rect
         id="SVGID_131_"
         width="1096"
         height="780"
         x="0"
         y="0" />
    </defs>
    <clipPath
       id="SVGID_132_">
      <use
         xlink:href="#SVGID_131_"
         overflow="visible"
         id="use1236"
         style="overflow:visible"
         x="0"
         y="0"
         width="100%"
         height="100%" />
    </clipPath>
    <defs
       id="defs31">
      <rect
         id="SVGID_7_"
         y="0.075999998"
         width="1096"
         height="779.92401"
         x="0" />
    </defs>
    <clipPath
       id="SVGID_8_-1">
      <use
         xlink:href="#SVGID_7_"
         overflow="visible"
         id="use33-5"
         style="overflow:visible"
         x="0"
         y="0"
         width="100%"
         height="100%" />
    </clipPath>
    <defs
       id="defs9">
      <polygon
         id="SVGID_3_"
         points="0,334.329 0,445.749 0,557.165 0,668.582 0,780 219.187,780 438.375,780 657.552,780 876.732,780 1095.914,780 1095.914,668.582 1095.914,557.165 1095.914,445.749 1095.914,334.329 1095.914,222.911 1095.914,111.493 1095.914,0.076 0,0.076 0,111.493 0,222.911 " />
    </defs>
    <clipPath
       id="SVGID_4_">
      <use
         xlink:href="#SVGID_3_"
         overflow="visible"
         id="use11"
         style="overflow:visible"
         x="0"
         y="0"
         width="100%"
         height="100%" />
    </clipPath>
    <rect
       height="780"
       width="1096"
       id="rect1920"
       x="0"
       y="0" />
    <rect
       id="rect1922"
       width="1096"
       height="780"
       x="0"
       y="0" />
    <rect
       id="rect1924"
       y="0.075999998"
       width="1096"
       height="779.92401"
       x="0" />
    <polygon
       id="polygon1926"
       points="0,334.329 0,445.749 0,557.165 0,668.582 0,780 219.187,780 438.375,780 657.552,780 876.732,780 1095.914,780 1095.914,668.582 1095.914,557.165 1095.914,445.749 1095.914,334.329 1095.914,222.911 1095.914,111.493 1095.914,0.076 0,0.076 0,111.493 0,222.911 " />
    <clipPath
       id="clipPath2139"
       clipPathUnits="userSpaceOnUse">
      <rect
         style="opacity:1;fill:#f5eeff;fill-opacity:1;stroke:none;stroke-width:5.54300261;stroke-linecap:butt;stroke-linejoin:round;stroke-miterlimit:4;stroke-dasharray:none;stroke-opacity:1"
         id="rect2141"
         width="219.98557"
         height="313.19977"
         x="32.876102"
         y="-353.43036"
         transform="scale(1,-1)" />
    </clipPath>
    <clipPath
       id="clipPath4792-1"
       clipPathUnits="userSpaceOnUse">
      <rect
         transform="scale(1,-1)"
         y="-656.64349"
         x="56.639576"
         height="1432.3348"
         width="1006.0446"
         id="rect4794-0"
         style="opacity:1;fill:#f5eeff;fill-opacity:1;stroke:none;stroke-width:25.34943008;stroke-linecap:butt;stroke-linejoin:round;stroke-miterlimit:4;stroke-dasharray:none;stroke-opacity:1" />
    </clipPath>
    <rect
       height="780"
       width="1096"
       id="rect1654"
       x="0"
       y="0" />
    <rect
       id="rect1656"
       width="1096"
       height="780"
       x="0"
       y="0" />
    <rect
       id="rect1658"
       y="0.075999998"
       width="1096"
       height="779.92401"
       x="0" />
    <polygon
       id="polygon1660"
       points="0,334.329 0,445.749 0,557.165 0,668.582 0,780 219.187,780 438.375,780 657.552,780 876.732,780 1095.914,780 1095.914,668.582 1095.914,557.165 1095.914,445.749 1095.914,334.329 1095.914,222.911 1095.914,111.493 1095.914,0.076 0,0.076 0,111.493 0,222.911 " />
    <clipPath
       clipPathUnits="userSpaceOnUse"
       id="clipPath2027-7">
      <rect
         ry="2.4054258"
         y="9.685257"
         x="8.5526247"
         height="39.555889"
         width="191.36499"
         id="rect2029-2"
         style="opacity:1;fill:#d4aa00;fill-opacity:1;stroke:none;stroke-width:3.96875;stroke-linecap:butt;stroke-linejoin:round;stroke-miterlimit:4;stroke-dasharray:none;stroke-opacity:1" />
    </clipPath>
    <clipPath
       clipPathUnits="userSpaceOnUse"
       id="clipPath10528">
      <rect
         ry="1.4030386"
         y="236.58299"
         x="0.00016784668"
         height="60.417"
         width="292.28766"
         id="rect10530"
         style="opacity:1;fill:#aade87;fill-opacity:1;stroke:none;stroke-width:6.06180191;stroke-linecap:butt;stroke-linejoin:round;stroke-miterlimit:4;stroke-dasharray:none;stroke-opacity:1" />
    </clipPath>
    <clipPath
       clipPathUnits="userSpaceOnUse"
       id="clipPath1750">
      <path
         style="opacity:1;fill:#aade87;fill-opacity:1;stroke:none;stroke-width:36.79290771;stroke-linecap:butt;stroke-linejoin:round;stroke-miterlimit:4;stroke-dasharray:none;stroke-opacity:1"
         d="m 247.49853,-7.1035869 h 745.27854 c 4.7283,0 8.53483,3.8065664 8.53483,8.534866 V 550.20491 c 0,4.7283 -3.80653,8.5348 -8.53483,8.5348 H 247.49853 c -4.7283,0 -8.53487,-3.8065 -8.53487,-8.5348 V 1.4312791 c 0,-4.7282996 3.80657,-8.534866 8.53487,-8.534866 z"
         id="path1752"
         inkscape:connector-curvature="0"
         sodipodi:nodetypes="sssssssss" />
    </clipPath>
    <clipPath
       clipPathUnits="userSpaceOnUse"
       id="clipPath2027-79">
      <rect
         ry="2.4054258"
         y="9.685257"
         x="8.5526247"
         height="39.555889"
         width="191.36499"
         id="rect2029-4"
         style="opacity:1;fill:#d4aa00;fill-opacity:1;stroke:none;stroke-width:3.96875;stroke-linecap:butt;stroke-linejoin:round;stroke-miterlimit:4;stroke-dasharray:none;stroke-opacity:1" />
    </clipPath>
    <clipPath
       clipPathUnits="userSpaceOnUse"
       id="clipPath356">
      <path
         sodipodi:nodetypes="sssssssss"
         inkscape:connector-curvature="0"
         id="path358"
         d="m 10.563401,48.523952 h 96.472929 c 0.61206,0 1.10479,-0.445108 1.10479,-0.997997 v -64.169093 c 0,-0.552888 -0.49273,-0.99799 -1.10479,-0.99799 H 10.563401 c -0.6120601,0 -1.1047928,0.445102 -1.1047928,0.99799 v 64.169093 c 0,0.552889 0.4927327,0.997997 1.1047928,0.997997 z"
         style="opacity:1;fill:#aade87;fill-opacity:1;stroke:none;stroke-width:4.52661896;stroke-linecap:butt;stroke-linejoin:round;stroke-miterlimit:4;stroke-dasharray:none;stroke-opacity:1" />
    </clipPath>
    <radialGradient
       gradientUnits="userSpaceOnUse"
       r="290.2951"
       cy="41.6367"
       cx="60.98"
       id="SVGID_1_-1"
       gradientTransform="matrix(3.2878251,0,0,0.97086617,-1.6439888,0.67959013)">
      <stop
         id="stop2"
         style="stop-color:#FFFFFF"
         offset="0" />
      <stop
         id="stop4"
         style="stop-color:#D4EFFC"
         offset="1" />
    </radialGradient>
    <clipPath
       clipPathUnits="userSpaceOnUse"
       id="clipPath2176">
      <rect
         style="opacity:1;fill:#aade87;fill-opacity:1;stroke:none;stroke-width:22.91074753;stroke-linecap:butt;stroke-linejoin:round;stroke-miterlimit:4;stroke-dasharray:none;stroke-opacity:1"
         id="rect2178"
         width="1104.7092"
         height="228.34772"
         x="6.1035156e-005"
         y="0"
         ry="13.88601" />
    </clipPath>
    <clipPath
       clipPathUnits="userSpaceOnUse"
       id="clipPath1037">
      <path
         sodipodi:nodetypes="sssssssss"
         inkscape:connector-curvature="0"
         id="path1039"
         d="m 421.05233,219.08423 h 606.92457 c 3.8506,0 6.9504,-1.40731 6.9504,-3.15539 V 13.043377 c 0,-1.748085 -3.0998,-3.1553771 -6.9504,-3.1553771 H 421.05233 c -3.85056,0 -6.95041,1.4072921 -6.95041,3.1553771 V 215.92884 c 0,1.74808 3.09985,3.15539 6.95041,3.15539 z"
         style="opacity:1;fill:#aade87;fill-opacity:1;stroke:none;stroke-width:20.18836212;stroke-linecap:butt;stroke-linejoin:round;stroke-miterlimit:4;stroke-dasharray:none;stroke-opacity:1" />
    </clipPath>
    <clipPath
       clipPathUnits="userSpaceOnUse"
       id="clipPath1042">
      <path
         style="opacity:1;fill:#aade87;fill-opacity:1;stroke:none;stroke-width:22.14044762;stroke-linecap:butt;stroke-linejoin:round;stroke-miterlimit:4;stroke-dasharray:none;stroke-opacity:1"
         d="m 297.66941,228.34772 h 464.08123 c 2.94431,0 5.31459,-2.21361 5.31459,-4.96324 V -95.741614 c 0,-2.749629 -2.37028,-4.963206 -5.31459,-4.963206 H 297.66941 c -2.9443,0 -5.31458,2.213577 -5.31458,4.963206 V 223.38448 c 0,2.74963 2.37028,4.96324 5.31458,4.96324 z"
         id="path1044"
         inkscape:connector-curvature="0"
         sodipodi:nodetypes="sssssssss"
         clip-path="none" />
    </clipPath>
  </defs>
  <sodipodi:namedview
     id="base"
     pagecolor="#ffffff"
     bordercolor="#666666"
     borderopacity="1.0"
     inkscape:pageopacity="0.0"
     inkscape:pageshadow="2"
     inkscape:zoom="0.7"
     inkscape:cx="179.96097"
     inkscape:cy="234.77854"
     inkscape:document-units="mm"
     inkscape:current-layer="layer1"
     showgrid="false"
     inkscape:window-width="1680"
     inkscape:window-height="987"
     inkscape:window-x="1912"
     inkscape:window-y="23"
     inkscape:window-maximized="1"
     inkscape:snap-nodes="false"
     inkscape:snap-global="false"
     fit-margin-top="0"
     fit-margin-left="0"
     fit-margin-right="0"
     fit-margin-bottom="0" />
  <metadata
     id="metadata1421">
    <rdf:RDF>
      <cc:Work
         rdf:about="">
        <dc:format>image/svg+xml</dc:format>
        <dc:type
           rdf:resource="http://purl.org/dc/dcmitype/StillImage" />
        <dc:title />
      </cc:Work>
    </rdf:RDF>
  </metadata>
  <g
     inkscape:label="Layer 1"
     inkscape:groupmode="layer"
     id="layer1"
     transform="translate(46.82231,-216.15353)">
    <rect
       transform="matrix(0.20231204,0,0,0.44563613,-130.60008,211.74708)"
       style="clip-rule:evenodd;fill:url(#SVGID_1_-1);fill-rule:evenodd;stroke-width:1.78662765"
       id="rect7"
       height="228.34772"
       width="1104.7092"
       y="0"
       x="6.1035156e-005"
       clip-path="url(#clipPath1037)" />
    <rect
       x="71.975822"
       y="158.80281"
       width="0"
       height="0.0078759212"
       id="rect1150"
       style="fill:#29719f;stroke-width:0.71599281" />
    <rect
       x="-184.62956"
       y="-82.835838"
       transform="rotate(-135)"
       width="0.010739789"
       height="0"
       id="rect1160"
       style="fill:#9a308d;stroke-width:0.71598595" />
    <rect
       x="82.810959"
       y="-270.38086"
       transform="rotate(135)"
       width="0.010023803"
       height="0"
       id="rect1300"
       style="fill:#ff5b56;stroke-width:0.71598595" />
    <rect
       x="56.808231"
       y="325.55038"
       width="0"
       height="0.0050119497"
       id="rect1410"
       style="fill:#ffe854;stroke-width:0.71599281" />
    <g
       aria-label="VOLUNTEER AS 
A FRIEND OF 
MERSEY BANK PARK"
       style="font-style:normal;font-variant:normal;font-weight:normal;font-stretch:normal;font-size:11.98518276px;line-height:11.98518276px;font-family:Ratbot;-inkscape-font-specification:Ratbot;letter-spacing:0px;word-spacing:0px;fill:#333333;fill-opacity:1;stroke:none;stroke-width:0.74907392"
       id="text827">
      <path
         d="m -40.848221,225.34449 h 1.738086 l 2.299891,6.43735 2.276482,-6.43735 h 1.738086 l -3.318164,8.50901 h -1.392809 z"
         style="font-style:normal;font-variant:normal;font-weight:bold;font-stretch:normal;font-family:Raleway;-inkscape-font-specification:'Raleway Bold';fill:#333333;stroke-width:0.74907392"
         id="path1064" />
      <path
         d="m -32.678634,229.59899 q 0,-0.84856 0.304312,-1.62689 0.304311,-0.78419 0.84856,-1.38111 0.544249,-0.59691 1.287471,-0.94804 0.743222,-0.35698 1.621043,-0.35698 0.901229,0 1.638599,0.38039 0.743222,0.37453 1.269914,0.98901 0.532545,0.60862 0.8193,1.38696 0.286755,0.77833 0.286755,1.58007 0,0.84856 -0.310164,1.6269 -0.304311,0.77248 -0.842708,1.36355 -0.538397,0.59106 -1.281619,0.94804 -0.737369,0.35113 -1.61519,0.35113 -0.90123,0 -1.644452,-0.36283 -0.743221,-0.36869 -1.275766,-0.97146 -0.532545,-0.60862 -0.8193,-1.38695 -0.286755,-0.77834 -0.286755,-1.59179 z m 1.662008,0 q 0,0.55011 0.16386,1.06509 0.16386,0.51499 0.468171,0.91294 0.304312,0.39209 0.749074,0.63203 0.444763,0.23994 1.006568,0.23994 0.57351,0 1.012421,-0.24579 0.43891,-0.24579 0.737369,-0.64959 0.298459,-0.40965 0.450615,-0.91879 0.158008,-0.50913 0.158008,-1.03583 0,-0.5501 -0.169712,-1.06508 -0.16386,-0.51499 -0.474024,-0.91294 -0.304311,-0.39794 -0.743221,-0.62618 -0.433059,-0.23408 -0.98316,-0.23408 -0.57351,0 -1.01242,0.24579 -0.438911,0.24579 -0.743222,0.64958 -0.304311,0.39795 -0.462319,0.90709 -0.158008,0.50913 -0.158008,1.03582 z"
         style="font-style:normal;font-variant:normal;font-weight:bold;font-stretch:normal;font-family:Raleway;-inkscape-font-specification:'Raleway Bold';fill:#333333;stroke-width:0.74907392"
         id="path1066" />
      <path
         d="m -23.31521,233.8535 v -8.50901 h 1.650304 v 7.05768 h 4.342288 v 1.45133 z"
         style="font-style:normal;font-variant:normal;font-weight:bold;font-stretch:normal;font-family:Raleway;-inkscape-font-specification:'Raleway Bold';fill:#333333;stroke-width:0.74907392"
         id="path1068" />
      <path
         d="m -16.731551,229.68092 v -4.33643 h 1.656156 v 4.33643 q 0,0.5384 0.09949,1.03583 0.09949,0.49744 0.345276,0.88368 0.24579,0.38624 0.643736,0.62032 0.397945,0.22824 0.971455,0.22824 0.585214,0 0.98316,-0.23994 0.403797,-0.23994 0.649587,-0.62033 0.24579,-0.38624 0.345276,-0.88367 0.105339,-0.49743 0.105339,-1.02413 v -4.33643 h 1.6444513 v 4.33643 q 0,0.87783 -0.2106771,1.64446 -0.210677,0.76663 -0.6612922,1.34599 -0.444762,0.57351 -1.152871,0.90708 -0.708109,0.33357 -1.691269,0.33357 -1.018272,0 -1.732233,-0.35113 -0.713961,-0.35698 -1.158724,-0.93634 -0.43891,-0.57936 -0.637883,-1.34599 -0.198973,-0.76663 -0.198973,-1.59764 z"
         style="font-style:normal;font-variant:normal;font-weight:bold;font-stretch:normal;font-family:Raleway;-inkscape-font-specification:'Raleway Bold';fill:#333333;stroke-width:0.74907392"
         id="path1070" />
      <path
         d="m -7.6314746,233.8535 v -8.50901 h 1.2816186 l 4.43007,5.58294 v -5.57124 h 1.65615566 v 8.49731 H -1.6037704 l -4.3774007,-5.45419 v 5.45419 z"
         style="font-style:normal;font-variant:normal;font-weight:bold;font-stretch:normal;font-family:Raleway;-inkscape-font-specification:'Raleway Bold';fill:#333333;stroke-width:0.74907392"
         id="path1072" />
      <path
         d="m 0.80146026,226.79582 v -1.45133 H 7.8825497 v 1.45133 H 5.1730089 v 7.05768 H 3.5227054 v -7.05768 z"
         style="font-style:normal;font-variant:normal;font-weight:bold;font-stretch:normal;font-family:Raleway;-inkscape-font-specification:'Raleway Bold';fill:#333333;stroke-width:0.74907392"
         id="path1074" />
      <path
         d="m 8.9417866,233.8535 v -8.50901 h 5.7994704 v 1.45133 H 10.59209 v 2.04825 h 3.587362 v 1.34014 H 10.59209 v 2.21796 h 4.254506 v 1.45133 z"
         style="font-style:normal;font-variant:normal;font-weight:bold;font-stretch:normal;font-family:Raleway;-inkscape-font-specification:'Raleway Bold';fill:#333333;stroke-width:0.74907392"
         id="path1076" />
      <path
         d="m 16.175032,233.8535 v -8.50901 h 5.799471 v 1.45133 h -4.149167 v 2.04825 h 3.587362 v 1.34014 h -3.587362 v 2.21796 h 4.254506 v 1.45133 z"
         style="font-style:normal;font-variant:normal;font-weight:bold;font-stretch:normal;font-family:Raleway;-inkscape-font-specification:'Raleway Bold';fill:#333333;stroke-width:0.74907392"
         id="path1078" />
      <path
         d="m 23.408278,233.8535 v -8.50901 h 3.762926 q 0.585214,0 1.082646,0.24579 0.497432,0.24579 0.854413,0.64959 0.362832,0.39794 0.561805,0.90708 0.204825,0.50913 0.204825,1.02412 0,0.82515 -0.415502,1.504 -0.40965,0.67885 -1.117759,0.97731 l 2.001432,3.20112 h -1.866832 l -1.784903,-2.84999 h -1.632747 v 2.84999 z m 1.650304,-4.30132 h 2.071657 q 0.228234,0 0.427207,-0.10534 0.198972,-0.11119 0.339424,-0.29846 0.146303,-0.18727 0.228233,-0.43891 0.08778,-0.25164 0.08778,-0.5384 0,-0.29846 -0.09949,-0.5501 -0.09363,-0.25164 -0.257494,-0.43306 -0.158008,-0.18727 -0.368685,-0.28675 -0.210677,-0.10534 -0.427206,-0.10534 h -2.001432 z"
         style="font-style:normal;font-variant:normal;font-weight:bold;font-stretch:normal;font-family:Raleway;-inkscape-font-specification:'Raleway Bold';fill:#333333;stroke-width:0.74907392"
         id="path1080" />
      <path
         d="m 33.09942,233.8535 3.359129,-8.50901 h 1.34014 l 3.341572,8.50901 h -1.74979 l -0.778335,-2.11847 h -2.984591 l -0.778335,2.11847 z m 2.803175,-3.28305 h 2.411082 l -1.187984,-3.44106 z"
         style="font-style:normal;font-variant:normal;font-weight:bold;font-stretch:normal;font-family:Raleway;-inkscape-font-specification:'Raleway Bold';fill:#333333;stroke-width:0.74907392"
         id="path1082" />
      <path
         d="m 41.356792,232.84693 0.731517,-1.42792 q 0.105339,0.10534 0.386242,0.2809 0.286755,0.17557 0.667144,0.35113 0.386241,0.16971 0.854412,0.29261 0.468171,0.11704 0.959751,0.11704 1.363549,0 1.363549,-0.87197 0,-0.28675 -0.158008,-0.47987 -0.152156,-0.19312 -0.444763,-0.33358 -0.286755,-0.1463 -0.696404,-0.26334 -0.403798,-0.1229 -0.907082,-0.25164 -0.608623,-0.16972 -1.059237,-0.36869 -0.450615,-0.19897 -0.749074,-0.46232 -0.29846,-0.26334 -0.450615,-0.62032 -0.152156,-0.36284 -0.152156,-0.85442 0,-0.64958 0.239938,-1.14702 0.239938,-0.50328 0.667144,-0.83685 0.427206,-0.33943 0.989012,-0.50914 0.561805,-0.17556 1.211393,-0.17556 0.901229,0 1.656155,0.2809 0.754926,0.2809 1.316732,0.66129 l -0.731518,1.34599 q -0.08193,-0.0819 -0.304311,-0.22823 -0.222381,-0.1463 -0.544249,-0.2809 -0.316016,-0.14045 -0.690553,-0.23409 -0.368684,-0.0995 -0.749074,-0.0995 -0.6847,0 -1.024124,0.25749 -0.333572,0.25164 -0.333572,0.70226 0,0.26334 0.122895,0.43891 0.128747,0.17556 0.368685,0.31016 0.239937,0.12875 0.60277,0.23994 0.368685,0.10534 0.84856,0.22238 0.620327,0.16971 1.129463,0.36283 0.514989,0.18727 0.866117,0.47988 0.351129,0.28675 0.544249,0.69055 0.193121,0.39795 0.193121,0.98316 0,0.6847 -0.257494,1.17043 -0.257495,0.48573 -0.690553,0.78418 -0.427206,0.29846 -1.006568,0.43892 -0.57351,0.13459 -1.199689,0.13459 -0.959751,0 -1.896093,-0.28675 -0.93049,-0.28676 -1.673712,-0.81345 z"
         style="font-style:normal;font-variant:normal;font-weight:bold;font-stretch:normal;font-family:Raleway;-inkscape-font-specification:'Raleway Bold';fill:#333333;stroke-width:0.74907392"
         id="path1084" />
      <path
         d="m -40.824812,245.84102 3.359128,-8.50901 h 1.34014 l 3.341572,8.50901 h -1.74979 l -0.778334,-2.11847 h -2.984592 l -0.778334,2.11847 z m 2.803175,-3.28305 h 2.411081 l -1.187984,-3.44105 z"
         style="font-style:normal;font-variant:normal;font-weight:bold;font-stretch:normal;font-family:Raleway;-inkscape-font-specification:'Raleway Bold';fill:#333333;stroke-width:0.74907392"
         id="path1086" />
      <path
         d="m -29.378026,245.84102 v -8.50901 h 5.711689 v 1.45133 h -4.061386 v 2.19456 h 3.382537 v 1.34014 h -3.382537 v 3.52298 z"
         style="font-style:normal;font-variant:normal;font-weight:bold;font-stretch:normal;font-family:Raleway;-inkscape-font-specification:'Raleway Bold';fill:#333333;stroke-width:0.74907392"
         id="path1088" />
      <path
         d="m -22.542728,245.84102 v -8.50901 h 3.762926 q 0.585214,0 1.082646,0.24579 0.497432,0.24579 0.854413,0.64959 0.362832,0.39795 0.561805,0.90708 0.204825,0.50914 0.204825,1.02413 0,0.82515 -0.415502,1.504 -0.40965,0.67884 -1.117759,0.9773 l 2.001432,3.20112 h -1.866832 l -1.784903,-2.84999 h -1.632747 v 2.84999 z m 1.650304,-4.30132 h 2.071657 q 0.228234,0 0.427207,-0.10534 0.198972,-0.11119 0.339424,-0.29846 0.146303,-0.18727 0.228233,-0.43891 0.08778,-0.25164 0.08778,-0.53839 0,-0.29846 -0.09949,-0.55011 -0.09363,-0.25164 -0.257494,-0.43305 -0.158008,-0.18727 -0.368685,-0.28676 -0.210677,-0.10534 -0.427206,-0.10534 h -2.001432 z"
         style="font-style:normal;font-variant:normal;font-weight:bold;font-stretch:normal;font-family:Raleway;-inkscape-font-specification:'Raleway Bold';fill:#333333;stroke-width:0.74907392"
         id="path1090" />
      <path
         d="m -14.466773,245.84102 v -8.4973 h 1.650303 v 8.4973 z"
         style="font-style:normal;font-variant:normal;font-weight:bold;font-stretch:normal;font-family:Raleway;-inkscape-font-specification:'Raleway Bold';fill:#333333;stroke-width:0.74907392"
         id="path1092" />
      <path
         d="m -11.049123,245.84102 v -8.50901 h 5.7994708 v 1.45133 h -4.1491673 v 2.04825 h 3.5873619 v 1.34014 h -3.5873619 v 2.21796 h 4.2545058 v 1.45133 z"
         style="font-style:normal;font-variant:normal;font-weight:bold;font-stretch:normal;font-family:Raleway;-inkscape-font-specification:'Raleway Bold';fill:#333333;stroke-width:0.74907392"
         id="path1094" />
      <path
         d="m -3.8158771,245.84102 v -8.50901 h 1.2816187 l 4.43007,5.58294 v -5.57123 h 1.6561556 v 8.4973 H 2.2118271 l -4.3774007,-5.45419 v 5.45419 z"
         style="font-style:normal;font-variant:normal;font-weight:bold;font-stretch:normal;font-family:Raleway;-inkscape-font-specification:'Raleway Bold';fill:#333333;stroke-width:0.74907392"
         id="path1096" />
      <path
         d="m 5.3368672,245.84102 v -8.50901 h 3.0899299 q 1.041681,0 1.8258679,0.33943 0.784187,0.33357 1.310879,0.90708 0.532545,0.57351 0.795891,1.34599 0.263347,0.77248 0.263347,1.6503 0,0.97146 -0.29846,1.75565 -0.292607,0.78418 -0.842708,1.34599 -0.550101,0.55595 -1.322583,0.86026 -0.7724829,0.30431 -1.7322339,0.30431 z m 1.6503035,-1.45133 h 1.4396264 q 0.6086226,0 1.0826459,-0.21653 0.4740234,-0.21653 0.790039,-0.59106 0.321868,-0.38039 0.485728,-0.89538 0.169712,-0.51499 0.169712,-1.11191 0,-0.60862 -0.169712,-1.12361 -0.16386,-0.52084 -0.49158,-0.88952 -0.3218679,-0.37454 -0.7958912,-0.57351 -0.4740234,-0.20483 -1.0709417,-0.20483 H 6.9871707 Z"
         style="font-style:normal;font-variant:normal;font-weight:bold;font-stretch:normal;font-family:Raleway;-inkscape-font-specification:'Raleway Bold';fill:#333333;stroke-width:0.74907392"
         id="path1098" />
      <path
         d="m 16.315483,241.58652 q 0,-0.84856 0.304311,-1.6269 0.304312,-0.78418 0.848561,-1.3811 0.544249,-0.59692 1.287471,-0.94805 0.743221,-0.35698 1.621042,-0.35698 0.90123,0 1.6386,0.38039 0.743221,0.37454 1.269914,0.98901 0.532545,0.60862 0.8193,1.38696 0.286754,0.77833 0.286754,1.58008 0,0.84856 -0.310163,1.62689 -0.304311,0.77248 -0.842708,1.36355 -0.538397,0.59107 -1.281619,0.94805 -0.737369,0.35113 -1.61519,0.35113 -0.90123,0 -1.644452,-0.36284 -0.743222,-0.36868 -1.275766,-0.97145 -0.532545,-0.60863 -0.8193,-1.38696 -0.286755,-0.77833 -0.286755,-1.59178 z m 1.662008,0 q 0,0.5501 0.16386,1.06509 0.16386,0.51499 0.468171,0.91293 0.304311,0.39209 0.749074,0.63203 0.444763,0.23994 1.006568,0.23994 0.57351,0 1.01242,-0.24579 0.438911,-0.24579 0.73737,-0.64959 0.298459,-0.40965 0.450615,-0.91878 0.158008,-0.50914 0.158008,-1.03583 0,-0.5501 -0.169713,-1.06509 -0.163859,-0.51499 -0.474023,-0.91294 -0.304311,-0.39794 -0.743222,-0.62617 -0.433058,-0.23409 -0.983159,-0.23409 -0.57351,0 -1.01242,0.24579 -0.438911,0.24579 -0.743222,0.64959 -0.304311,0.39794 -0.462319,0.90708 -0.158008,0.50914 -0.158008,1.03583 z"
         style="font-style:normal;font-variant:normal;font-weight:bold;font-stretch:normal;font-family:Raleway;-inkscape-font-specification:'Raleway Bold';fill:#333333;stroke-width:0.74907392"
         id="path1100" />
      <path
         d="m 25.678908,245.84102 v -8.50901 h 5.711689 v 1.45133 h -4.061385 v 2.19456 h 3.382537 v 1.34014 h -3.382537 v 3.52298 z"
         style="font-style:normal;font-variant:normal;font-weight:bold;font-stretch:normal;font-family:Raleway;-inkscape-font-specification:'Raleway Bold';fill:#333333;stroke-width:0.74907392"
         id="path1102" />
      <path
         d="m -39.958696,257.82855 v -8.50901 h 1.773199 l 2.51642,4.83972 2.539829,-4.83972 h 1.761494 v 8.50901 h -1.656156 v -5.63561 l -2.1887,4.19598 h -0.90123 l -2.194552,-4.19598 v 5.63561 z"
         style="font-style:normal;font-variant:normal;font-weight:bold;font-stretch:normal;font-family:Raleway;-inkscape-font-specification:'Raleway Bold';fill:#333333;stroke-width:0.74907392"
         id="path1104" />
      <path
         d="m -29.588703,257.82855 v -8.50901 h 5.79947 v 1.45133 H -27.9384 v 2.04825 h 3.587362 v 1.34014 H -27.9384 v 2.21796 h 4.254506 v 1.45133 z"
         style="font-style:normal;font-variant:normal;font-weight:bold;font-stretch:normal;font-family:Raleway;-inkscape-font-specification:'Raleway Bold';fill:#333333;stroke-width:0.74907392"
         id="path1106" />
      <path
         d="m -22.355458,257.82855 v -8.50901 h 3.762926 q 0.585214,0 1.082646,0.24579 0.497431,0.24579 0.854412,0.64958 0.362833,0.39795 0.561805,0.90709 0.204825,0.50913 0.204825,1.02412 0,0.82515 -0.415502,1.504 -0.409649,0.67885 -1.117758,0.97731 l 2.001432,3.20112 h -1.866833 l -1.784903,-2.84999 h -1.632747 v 2.84999 z m 1.650303,-4.30133 h 2.071658 q 0.228233,0 0.427206,-0.10533 0.198973,-0.11119 0.339424,-0.29846 0.146304,-0.18727 0.228233,-0.43891 0.08778,-0.25165 0.08778,-0.5384 0,-0.29846 -0.09949,-0.5501 -0.09363,-0.25164 -0.257494,-0.43306 -0.158008,-0.18727 -0.368685,-0.28675 -0.210677,-0.10534 -0.427206,-0.10534 h -2.001432 z"
         style="font-style:normal;font-variant:normal;font-weight:bold;font-stretch:normal;font-family:Raleway;-inkscape-font-specification:'Raleway Bold';fill:#333333;stroke-width:0.74907392"
         id="path1108" />
      <path
         d="m -14.893979,256.82198 0.731518,-1.42792 q 0.105338,0.10534 0.386241,0.2809 0.286755,0.17556 0.667144,0.35113 0.386241,0.16971 0.854412,0.29261 0.468172,0.11704 0.959751,0.11704 1.3635491,0 1.3635491,-0.87197 0,-0.28676 -0.1580081,-0.47988 -0.152155,-0.19312 -0.444762,-0.33357 -0.286755,-0.1463 -0.696405,-0.26334 -0.403798,-0.1229 -0.907082,-0.25165 -0.608622,-0.16971 -1.059237,-0.36868 -0.450615,-0.19897 -0.749074,-0.46232 -0.298459,-0.26335 -0.450615,-0.62033 -0.152155,-0.36283 -0.152155,-0.85441 0,-0.64959 0.239937,-1.14702 0.239938,-0.50328 0.667144,-0.83686 0.427207,-0.33942 0.989012,-0.50913 0.561805,-0.17557 1.211393,-0.17557 0.90123,0 1.6561556,0.28091 0.754926,0.2809 1.3167315,0.66129 l -0.7315175,1.34599 q -0.08193,-0.0819 -0.3043113,-0.22823 -0.2223813,-0.14631 -0.5442493,-0.2809 -0.316015,-0.14046 -0.690552,-0.23409 -0.368685,-0.0995 -0.749074,-0.0995 -0.684701,0 -1.024125,0.2575 -0.333572,0.25164 -0.333572,0.70225 0,0.26335 0.122895,0.43891 0.128747,0.17557 0.368685,0.31017 0.239938,0.12875 0.602771,0.23994 0.368684,0.10533 0.84856,0.22238 0.620327,0.16971 1.1294629,0.36283 0.5149883,0.18727 0.8661167,0.47988 0.3511284,0.28675 0.544249,0.69055 0.1931206,0.39794 0.1931206,0.98316 0,0.6847 -0.2574941,1.17043 -0.2574942,0.48572 -0.6905526,0.78418 -0.4272062,0.29846 -1.0065685,0.43891 -0.573509,0.1346 -1.199688,0.1346 -0.959751,0 -1.896094,-0.28675 -0.93049,-0.28676 -1.673712,-0.81345 z"
         style="font-style:normal;font-variant:normal;font-weight:bold;font-stretch:normal;font-family:Raleway;-inkscape-font-specification:'Raleway Bold';fill:#333333;stroke-width:0.74907392"
         id="path1110" />
      <path
         d="m -6.9058086,257.82855 v -8.50901 h 5.7994708 v 1.45133 h -4.1491673 v 2.04825 h 3.5873618 v 1.34014 h -3.5873618 v 2.21796 h 4.2545058 v 1.45133 z"
         style="font-style:normal;font-variant:normal;font-weight:bold;font-stretch:normal;font-family:Raleway;-inkscape-font-specification:'Raleway Bold';fill:#333333;stroke-width:0.74907392"
         id="path1112" />
      <path
         d="M -0.60890513,249.31954 H 1.1877019 l 2.0950661,4.09649 2.1360311,-4.09649 h 1.7849027 l -3.0899299,5.53612 v 2.97289 H 2.4693205 v -2.9963 z"
         style="font-style:normal;font-variant:normal;font-weight:bold;font-stretch:normal;font-family:Raleway;-inkscape-font-specification:'Raleway Bold';fill:#333333;stroke-width:0.74907392"
         id="path1114" />
      <path
         d="m 10.463343,257.82855 v -8.50901 h 4.552965 q 0.444763,0 0.801744,0.19312 0.35698,0.18727 0.608622,0.49743 0.251642,0.30431 0.392094,0.6964 0.140451,0.38624 0.140451,0.78419 0,0.62033 -0.316016,1.16458 -0.310163,0.54424 -0.907081,0.81344 0.731517,0.21653 1.152871,0.77249 0.427206,0.55595 0.427206,1.39281 0,0.53839 -0.216529,0.94804 -0.216529,0.40965 -0.596918,0.6847 -0.374537,0.27505 -0.871969,0.42136 -0.497432,0.14045 -1.059237,0.14045 z m 1.650304,-1.40452 h 2.457899 q 0.228233,0 0.427206,-0.0819 0.198973,-0.0819 0.339424,-0.22823 0.146304,-0.15216 0.228234,-0.35698 0.08193,-0.20482 0.08193,-0.43306 0,-0.22823 -0.07608,-0.43891 -0.07608,-0.21068 -0.210677,-0.36283 -0.128747,-0.15801 -0.310164,-0.24579 -0.181416,-0.0936 -0.397945,-0.0936 h -2.539829 z m 0,-3.54639 h 2.206257 q 0.421354,0 0.713961,-0.28676 0.292607,-0.28675 0.292607,-0.79004 0,-0.49158 -0.269199,-0.77833 -0.269198,-0.28676 -0.667144,-0.28676 h -2.276482 z"
         style="font-style:normal;font-variant:normal;font-weight:bold;font-stretch:normal;font-family:Raleway;-inkscape-font-specification:'Raleway Bold';fill:#333333;stroke-width:0.74907392"
         id="path1116" />
      <path
         d="m 17.579546,257.82855 3.359128,-8.50901 h 1.34014 l 3.341572,8.50901 h -1.74979 l -0.778334,-2.11848 H 20.10767 l -0.778334,2.11848 z m 2.803175,-3.28305 h 2.411081 l -1.187984,-3.44106 z"
         style="font-style:normal;font-variant:normal;font-weight:bold;font-stretch:normal;font-family:Raleway;-inkscape-font-specification:'Raleway Bold';fill:#333333;stroke-width:0.74907392"
         id="path1118" />
      <path
         d="m 26.54502,257.82855 v -8.50901 h 1.281619 l 4.43007,5.58294 v -5.57124 h 1.656155 v 8.49731 h -1.34014 l -4.377401,-5.4542 v 5.4542 z"
         style="font-style:normal;font-variant:normal;font-weight:bold;font-stretch:normal;font-family:Raleway;-inkscape-font-specification:'Raleway Bold';fill:#333333;stroke-width:0.74907392"
         id="path1120" />
      <path
         d="m 35.697768,257.82855 v -8.49731 h 1.650304 v 4.14917 l 3.680996,-4.16087 h 1.714677 l -3.259642,3.77463 3.464467,4.73438 h -1.74979 l -2.709541,-3.79804 -1.141167,1.2348 v 2.56324 z"
         style="font-style:normal;font-variant:normal;font-weight:bold;font-stretch:normal;font-family:Raleway;-inkscape-font-specification:'Raleway Bold';fill:#333333;stroke-width:0.74907392"
         id="path1122" />
      <path
         d="m 46.395484,257.82855 v -8.50901 h 3.604918 q 0.585214,0 1.082646,0.24579 0.497432,0.24579 0.854412,0.64958 0.362833,0.39795 0.567658,0.90709 0.204825,0.50913 0.204825,1.02412 0,0.5384 -0.193121,1.04753 -0.19312,0.50914 -0.538397,0.90708 -0.345276,0.39795 -0.836856,0.63789 -0.491579,0.23994 -1.082646,0.23994 h -2.013136 v 2.84999 z m 1.650303,-4.30133 h 1.919502 q 0.456467,0 0.760778,-0.36868 0.304312,-0.37454 0.304312,-1.01242 0,-0.32187 -0.09949,-0.57936 -0.09363,-0.2575 -0.251642,-0.43891 -0.152155,-0.18142 -0.362832,-0.2692 -0.210677,-0.0878 -0.421354,-0.0878 h -1.849277 z"
         style="font-style:normal;font-variant:normal;font-weight:bold;font-stretch:normal;font-family:Raleway;-inkscape-font-specification:'Raleway Bold';fill:#333333;stroke-width:0.74907392"
         id="path1124" />
      <path
         d="m 52.364664,257.82855 3.359128,-8.50901 h 1.34014 l 3.341572,8.50901 h -1.74979 l -0.778334,-2.11848 h -2.984592 l -0.778334,2.11848 z m 2.803175,-3.28305 h 2.411082 l -1.187985,-3.44106 z"
         style="font-style:normal;font-variant:normal;font-weight:bold;font-stretch:normal;font-family:Raleway;-inkscape-font-specification:'Raleway Bold';fill:#333333;stroke-width:0.74907392"
         id="path1126" />
      <path
         d="m 61.330146,257.82855 v -8.50901 h 3.762926 q 0.585214,0 1.082646,0.24579 0.497432,0.24579 0.854412,0.64958 0.362833,0.39795 0.561806,0.90709 0.204824,0.50913 0.204824,1.02412 0,0.82515 -0.415502,1.504 -0.409649,0.67885 -1.117758,0.97731 l 2.001432,3.20112 h -1.866833 l -1.784903,-2.84999 h -1.632747 v 2.84999 z m 1.650303,-4.30133 h 2.071658 q 0.228233,0 0.427206,-0.10533 0.198973,-0.11119 0.339424,-0.29846 0.146304,-0.18727 0.228234,-0.43891 0.08778,-0.25165 0.08778,-0.5384 0,-0.29846 -0.09949,-0.5501 -0.09363,-0.25164 -0.257494,-0.43306 -0.158008,-0.18727 -0.368685,-0.28675 -0.210677,-0.10534 -0.427206,-0.10534 h -2.001432 z"
         style="font-style:normal;font-variant:normal;font-weight:bold;font-stretch:normal;font-family:Raleway;-inkscape-font-specification:'Raleway Bold';fill:#333333;stroke-width:0.74907392"
         id="path1128" />
      <path
         d="m 69.406096,257.82855 v -8.49731 H 71.0564 v 4.14917 l 3.680996,-4.16087 h 1.714677 l -3.259642,3.77463 3.464467,4.73438 h -1.74979 l -2.709541,-3.79804 -1.141167,1.2348 v 2.56324 z"
         style="font-style:normal;font-variant:normal;font-weight:bold;font-stretch:normal;font-family:Raleway;-inkscape-font-specification:'Raleway Bold';fill:#333333;stroke-width:0.74907392"
         id="path1130" />
    </g>
    <g
       aria-label="Click here to email us for 
more info."
       transform="matrix(0.49038175,0,0,0.49686721,-152.68256,206.24917)"
       style="font-style:normal;font-variant:normal;font-weight:normal;font-stretch:normal;font-size:16px;line-height:16px;font-family:Ratbot;-inkscape-font-specification:Ratbot;letter-spacing:0px;word-spacing:0px;fill:#333333;fill-opacity:1;stroke:none;stroke-width:0.93659443"
       id="flowRoot824">
      <path
         d="m 229.27539,123.63655 q 0,-1.02343 0.35938,-2.03906 0.35937,-1.01562 1.04687,-1.8125 0.6875,-0.80469 1.69531,-1.30469 1.00782,-0.50781 2.28907,-0.50781 1.52343,0 2.59375,0.6875 1.07031,0.6875 1.60156,1.78906 l -0.89844,0.54688 q -0.27344,-0.5625 -0.65625,-0.94531 -0.38281,-0.38282 -0.83594,-0.625 -0.44531,-0.24219 -0.92968,-0.34375 -0.47657,-0.10157 -0.9375,-0.10157 -1.02344,0 -1.8125,0.41407 -0.78125,0.41406 -1.32032,1.08593 -0.53125,0.67188 -0.80468,1.51563 -0.27344,0.83594 -0.27344,1.70312 0,0.94532 0.32812,1.8125 0.32813,0.85938 0.89844,1.52344 0.57031,0.66406 1.34375,1.05469 0.78125,0.39062 1.6875,0.39062 0.47656,0 0.98438,-0.11718 0.50781,-0.11719 0.97656,-0.38282 0.47656,-0.26562 0.875,-0.65625 0.39844,-0.39062 0.67187,-0.95312 l 0.92969,0.47656 q -0.27344,0.64063 -0.77344,1.13281 -0.49218,0.48438 -1.10156,0.82032 -0.60937,0.33593 -1.28906,0.51562 -0.67969,0.17188 -1.33594,0.17188 -1.17187,0 -2.14844,-0.50782 -0.96875,-0.51562 -1.67968,-1.33593 -0.70313,-0.82813 -1.09375,-1.875 -0.39063,-1.04688 -0.39063,-2.13282 z"
         style="font-style:normal;font-variant:normal;font-weight:normal;font-stretch:normal;line-height:17.01138687px;font-family:Raleway;-inkscape-font-specification:Raleway;fill:#333333"
         id="path1133" />
      <path
         d="m 240.82227,127.87093 v -10.15625 h 1.08593 v 9.78906 q 0,0.46094 0.25,0.72656 0.25782,0.26563 0.72657,0.26563 0.17968,0 0.41406,-0.0469 0.24219,-0.0469 0.44531,-0.125 l 0.19531,0.875 q -0.30468,0.125 -0.75,0.20313 -0.4375,0.0859 -0.75781,0.0859 -0.75,0 -1.17969,-0.42188 -0.42968,-0.42187 -0.42968,-1.19531 z"
         style="font-style:normal;font-variant:normal;font-weight:normal;font-stretch:normal;line-height:17.01138687px;font-family:Raleway;-inkscape-font-specification:Raleway;fill:#333333"
         id="path1135" />
      <path
         d="m 244.99414,129.39437 v -8.33594 h 1.08594 v 8.33594 z m 0,-10.07813 v -1.60156 h 1.08594 v 1.60156 z"
         style="font-style:normal;font-variant:normal;font-weight:normal;font-stretch:normal;line-height:17.01138687px;font-family:Raleway;-inkscape-font-specification:Raleway;fill:#333333"
         id="path1137" />
      <path
         d="m 247.88477,125.19905 q 0,-0.88281 0.30468,-1.66406 0.30469,-0.78125 0.85157,-1.35937 0.55468,-0.58594 1.32031,-0.92188 0.77344,-0.33594 1.69531,-0.33594 1.1875,0 2.0625,0.53907 0.88281,0.53125 1.33594,1.44531 l -1.0625,0.33594 q -0.35156,-0.64063 -0.97656,-1 -0.61719,-0.36719 -1.39063,-0.36719 -0.64062,0 -1.19531,0.25781 -0.54688,0.25781 -0.95313,0.70313 -0.40625,0.4375 -0.64062,1.04687 -0.23438,0.60156 -0.23438,1.32031 0,0.70313 0.24219,1.32813 0.24219,0.625 0.65625,1.08594 0.41406,0.45312 0.96094,0.71875 0.55469,0.26562 1.17969,0.26562 0.39843,0 0.78906,-0.10937 0.39844,-0.11719 0.73437,-0.3125 0.33594,-0.20313 0.57032,-0.46094 0.24218,-0.25781 0.34375,-0.54688 l 1.05468,0.32032 q -0.17968,0.44531 -0.51562,0.82812 -0.33594,0.375 -0.78906,0.65625 -0.45313,0.28125 -1.00782,0.42969 -0.55468,0.14844 -1.14843,0.14844 -0.91407,0 -1.67969,-0.34375 -0.76563,-0.34375 -1.32813,-0.9375 -0.55468,-0.60157 -0.86718,-1.38282 -0.3125,-0.78906 -0.3125,-1.6875 z"
         style="font-style:normal;font-variant:normal;font-weight:normal;font-stretch:normal;line-height:17.01138687px;font-family:Raleway;-inkscape-font-specification:Raleway;fill:#333333"
         id="path1139" />
      <path
         d="m 257.24414,129.39437 v -11.67969 h 1.08594 v 7.9375 l 4.6875,-4.57813 h 1.23437 l -3.41406,3.40625 3.53906,4.91407 h -1.1875 l -3.07031,-4.27344 -1.78906,1.66406 v 2.60938 z"
         style="font-style:normal;font-variant:normal;font-weight:normal;font-stretch:normal;line-height:17.01138687px;font-family:Raleway;-inkscape-font-specification:Raleway;fill:#333333"
         id="path1141" />
      <path
         d="m 269.77539,129.39437 v -11.67969 h 1.08594 v 5.23437 q 0.51562,-0.94531 1.39062,-1.48437 0.88282,-0.54688 1.89063,-0.54688 0.71875,0 1.21875,0.26563 0.50781,0.25781 0.82031,0.73437 0.3125,0.46875 0.45313,1.13282 0.14843,0.66406 0.14843,1.46093 v 4.88282 h -1.09375 v -4.65625 q 0,-1.42188 -0.49218,-2.125 -0.48438,-0.70313 -1.42188,-0.70313 -0.46094,0 -0.92187,0.1875 -0.46094,0.17969 -0.85938,0.5 -0.39844,0.32031 -0.69531,0.75 -0.29688,0.42969 -0.4375,0.94531 v 5.10157 z"
         style="font-style:normal;font-variant:normal;font-weight:normal;font-stretch:normal;line-height:17.01138687px;font-family:Raleway;-inkscape-font-specification:Raleway;fill:#333333"
         id="path1143" />
      <path
         d="m 278.47852,125.19905 q 0,-0.88281 0.3125,-1.65625 0.3125,-0.77343 0.86718,-1.35156 0.5625,-0.58594 1.32032,-0.92969 0.76562,-0.34375 1.67187,-0.34375 0.91406,0 1.67188,0.34375 0.76562,0.34375 1.30468,0.9375 0.54688,0.58594 0.85157,1.35938 0.30468,0.76562 0.30468,1.625 0,0.125 -0.008,0.25781 -0.008,0.13281 -0.0234,0.17969 h -7.125 q 0.0469,0.67187 0.3125,1.24219 0.26563,0.5625 0.67188,0.98437 0.41406,0.41406 0.94531,0.64844 0.53906,0.22656 1.14844,0.22656 0.41406,0 0.8125,-0.10937 0.39844,-0.11719 0.73437,-0.30469 0.33594,-0.19531 0.60157,-0.47656 0.26562,-0.28125 0.40625,-0.61719 l 0.94531,0.25781 q -0.19531,0.46094 -0.54688,0.84375 -0.35156,0.375 -0.8125,0.65625 -0.46093,0.28125 -1.02343,0.42969 -0.5625,0.14844 -1.15625,0.14844 -0.91407,0 -1.67969,-0.34375 -0.76563,-0.34375 -1.32813,-0.9375 -0.55468,-0.60157 -0.86718,-1.38282 -0.3125,-0.78906 -0.3125,-1.6875 z m 1.11718,-0.41406 h 6.14844 q -0.0469,-0.67187 -0.3125,-1.21875 -0.26562,-0.55469 -0.67969,-0.95312 -0.40625,-0.40625 -0.95312,-0.625 -0.53906,-0.22657 -1.14844,-0.22657 -0.60937,0 -1.15625,0.22657 -0.53906,0.21875 -0.94531,0.625 -0.40625,0.39843 -0.65625,0.96093 -0.25,0.55469 -0.29688,1.21094 z"
         style="font-style:normal;font-variant:normal;font-weight:normal;font-stretch:normal;line-height:17.01138687px;font-family:Raleway;-inkscape-font-specification:Raleway;fill:#333333"
         id="path1145" />
      <path
         d="m 288.43164,129.39437 v -8.33594 h 1.02344 v 2 q 0.42969,-0.88281 1.13281,-1.46094 0.70313,-0.58594 1.52344,-0.58594 0.14062,0 0.26562,0 0.13282,0 0.21094,0.0156 v 0.99219 q -1.10156,0.0312 -1.92187,0.60937 -0.8125,0.57031 -1.14844,1.57813 v 5.1875 z"
         style="font-style:normal;font-variant:normal;font-weight:normal;font-stretch:normal;line-height:17.01138687px;font-family:Raleway;-inkscape-font-specification:Raleway;fill:#333333"
         id="path1147" />
      <path
         d="m 293.50977,125.19905 q 0,-0.88281 0.3125,-1.65625 0.3125,-0.77343 0.86718,-1.35156 0.5625,-0.58594 1.32032,-0.92969 0.76562,-0.34375 1.67187,-0.34375 0.91406,0 1.67188,0.34375 0.76562,0.34375 1.30468,0.9375 0.54688,0.58594 0.85157,1.35938 0.30468,0.76562 0.30468,1.625 0,0.125 -0.008,0.25781 -0.008,0.13281 -0.0234,0.17969 h -7.125 q 0.0469,0.67187 0.3125,1.24219 0.26563,0.5625 0.67188,0.98437 0.41406,0.41406 0.94531,0.64844 0.53906,0.22656 1.14844,0.22656 0.41406,0 0.8125,-0.10937 0.39844,-0.11719 0.73437,-0.30469 0.33594,-0.19531 0.60157,-0.47656 0.26562,-0.28125 0.40625,-0.61719 l 0.94531,0.25781 q -0.19531,0.46094 -0.54688,0.84375 -0.35156,0.375 -0.8125,0.65625 -0.46093,0.28125 -1.02343,0.42969 -0.5625,0.14844 -1.15625,0.14844 -0.91407,0 -1.67969,-0.34375 -0.76563,-0.34375 -1.32813,-0.9375 -0.55468,-0.60157 -0.86718,-1.38282 -0.3125,-0.78906 -0.3125,-1.6875 z m 1.11718,-0.41406 h 6.14844 q -0.0469,-0.67187 -0.3125,-1.21875 -0.26562,-0.55469 -0.67969,-0.95312 -0.40625,-0.40625 -0.95312,-0.625 -0.53906,-0.22657 -1.14844,-0.22657 -0.60937,0 -1.15625,0.22657 -0.53906,0.21875 -0.94531,0.625 -0.40625,0.39843 -0.65625,0.96093 -0.25,0.55469 -0.29688,1.21094 z"
         style="font-style:normal;font-variant:normal;font-weight:normal;font-stretch:normal;line-height:17.01138687px;font-family:Raleway;-inkscape-font-specification:Raleway;fill:#333333"
         id="path1149" />
      <path
         d="m 306.7832,121.92562 v -0.86719 h 1.15625 v -2.8125 h 1.08594 v 2.8125 h 1.92188 v 0.86719 h -1.92188 v 5.66406 q 0.0312,0.46094 0.32031,0.67969 0.28907,0.21093 0.6875,0.21093 0.46094,0 0.8125,-0.14843 0.35157,-0.15625 0.45313,-0.21875 l 0.28906,0.88281 q -0.0937,0.0469 -0.28125,0.125 -0.1875,0.0781 -0.42969,0.16406 -0.23437,0.0781 -0.53906,0.14063 -0.30469,0.0625 -0.64062,0.0625 -0.35157,0 -0.67188,-0.0937 -0.32031,-0.0937 -0.5625,-0.28907 -0.23437,-0.20312 -0.38281,-0.50781 -0.14063,-0.30469 -0.14063,-0.71094 v -5.96093 z"
         style="font-style:normal;font-variant:normal;font-weight:normal;font-stretch:normal;line-height:17.01138687px;font-family:Raleway;-inkscape-font-specification:Raleway;fill:#333333"
         id="path1151" />
      <path
         d="m 312.13477,125.25374 q 0,-0.88281 0.3125,-1.66406 0.3125,-0.78906 0.85937,-1.375 0.55469,-0.59375 1.3125,-0.94531 0.76563,-0.35157 1.65625,-0.35157 0.89844,0 1.65625,0.35157 0.76563,0.35156 1.3125,0.94531 0.55469,0.58594 0.86719,1.375 0.3125,0.78125 0.3125,1.66406 0,0.86719 -0.3125,1.64844 -0.3125,0.78125 -0.86719,1.375 -0.54687,0.58594 -1.3125,0.92969 -0.75781,0.34375 -1.65625,0.34375 -0.91406,0 -1.67187,-0.34375 -0.75782,-0.34375 -1.3125,-0.92969 -0.54688,-0.59375 -0.85157,-1.375 -0.30468,-0.78906 -0.30468,-1.64844 z m 1.11718,0.0156 q 0,0.70312 0.23438,1.30468 0.23437,0.59375 0.64062,1.05469 0.40625,0.45313 0.95313,0.71094 0.55469,0.25781 1.17969,0.25781 0.625,0 1.17187,-0.26562 0.55469,-0.26563 0.96875,-0.71875 0.42188,-0.46094 0.65625,-1.0625 0.24219,-0.60938 0.24219,-1.3125 0,-0.6875 -0.24219,-1.30469 -0.23437,-0.61719 -0.65625,-1.07031 -0.41406,-0.46094 -0.96094,-0.72657 -0.53906,-0.26562 -1.16406,-0.26562 -0.625,0 -1.17969,0.26562 -0.54687,0.26563 -0.95312,0.73438 -0.40625,0.46094 -0.64844,1.07812 -0.24219,0.61719 -0.24219,1.32032 z"
         style="font-style:normal;font-variant:normal;font-weight:normal;font-stretch:normal;line-height:17.01138687px;font-family:Raleway;-inkscape-font-specification:Raleway;fill:#333333"
         id="path1153" />
      <path
         d="m 325.75977,125.19905 q 0,-0.88281 0.3125,-1.65625 0.3125,-0.77343 0.86718,-1.35156 0.5625,-0.58594 1.32032,-0.92969 0.76562,-0.34375 1.67187,-0.34375 0.91406,0 1.67188,0.34375 0.76562,0.34375 1.30468,0.9375 0.54688,0.58594 0.85157,1.35938 0.30468,0.76562 0.30468,1.625 0,0.125 -0.008,0.25781 -0.008,0.13281 -0.0234,0.17969 h -7.125 q 0.0469,0.67187 0.3125,1.24219 0.26563,0.5625 0.67188,0.98437 0.41406,0.41406 0.94531,0.64844 0.53906,0.22656 1.14844,0.22656 0.41406,0 0.8125,-0.10937 0.39844,-0.11719 0.73437,-0.30469 0.33594,-0.19531 0.60157,-0.47656 0.26562,-0.28125 0.40625,-0.61719 l 0.94531,0.25781 q -0.19531,0.46094 -0.54688,0.84375 -0.35156,0.375 -0.8125,0.65625 -0.46093,0.28125 -1.02343,0.42969 -0.5625,0.14844 -1.15625,0.14844 -0.91407,0 -1.67969,-0.34375 -0.76563,-0.34375 -1.32813,-0.9375 -0.55468,-0.60157 -0.86718,-1.38282 -0.3125,-0.78906 -0.3125,-1.6875 z m 1.11718,-0.41406 h 6.14844 q -0.0469,-0.67187 -0.3125,-1.21875 -0.26562,-0.55469 -0.67969,-0.95312 -0.40625,-0.40625 -0.95312,-0.625 -0.53906,-0.22657 -1.14844,-0.22657 -0.60937,0 -1.15625,0.22657 -0.53906,0.21875 -0.94531,0.625 -0.40625,0.39843 -0.65625,0.96093 -0.25,0.55469 -0.29688,1.21094 z"
         style="font-style:normal;font-variant:normal;font-weight:normal;font-stretch:normal;line-height:17.01138687px;font-family:Raleway;-inkscape-font-specification:Raleway;fill:#333333"
         id="path1155" />
      <path
         d="m 335.71289,129.39437 v -8.33594 h 0.98438 v 1.89062 q 0.51562,-0.96093 1.34375,-1.49218 0.83593,-0.53907 1.84375,-0.53907 1.05468,0 1.69531,0.59375 0.64062,0.58594 0.76562,1.54688 1.17188,-2.14063 3.23438,-2.14063 0.6875,0 1.17187,0.25782 0.49219,0.25 0.78907,0.72656 0.29687,0.46875 0.42968,1.13281 0.14063,0.66406 0.14063,1.47656 v 4.88282 h -1.09375 v -4.65625 q 0,-1.45313 -0.45313,-2.14063 -0.45312,-0.6875 -1.38281,-0.6875 -0.47656,0 -0.90625,0.17969 -0.42187,0.17187 -0.78125,0.49219 -0.35937,0.32031 -0.63281,0.75781 -0.27344,0.4375 -0.41406,0.96875 v 5.08594 h -1.09375 v -4.65625 q 0,-1.48438 -0.44532,-2.15625 -0.44531,-0.67188 -1.375,-0.67188 -0.94531,0 -1.67968,0.65625 -0.73438,0.64844 -1.05469,1.72656 v 5.10157 z"
         style="font-style:normal;font-variant:normal;font-weight:normal;font-stretch:normal;line-height:17.01138687px;font-family:Raleway;-inkscape-font-specification:Raleway;fill:#333333"
         id="path1157" />
      <path
         d="m 349.71289,127.01155 q 0,-0.57812 0.25,-1.04687 0.25781,-0.47656 0.71875,-0.8125 0.46875,-0.33594 1.11719,-0.51563 0.64844,-0.1875 1.42969,-0.1875 0.625,0 1.28125,0.11719 0.65625,0.10938 1.16406,0.3125 v -0.75 q 0,-1.10156 -0.63281,-1.75 -0.625,-0.64844 -1.70313,-0.64844 -0.67187,0 -1.33594,0.25782 -0.66406,0.25781 -1.35156,0.73437 l -0.38281,-0.71875 q 0.8125,-0.54687 1.57812,-0.8125 0.77344,-0.27344 1.60938,-0.27344 1.52344,0 2.41406,0.88282 0.89844,0.875 0.89844,2.42187 v 3.76563 q 0,0.44531 0.38281,0.44531 v 0.96094 q -0.125,0.0156 -0.24219,0.0234 -0.10937,0.008 -0.1875,0.008 -0.32031,0 -0.58593,-0.1875 -0.26563,-0.19532 -0.29688,-0.57813 l -0.0312,-0.65625 q -0.54687,0.73438 -1.4375,1.14063 -0.88281,0.40625 -1.79687,0.40625 -0.64063,0 -1.17188,-0.19532 -0.52344,-0.20312 -0.89844,-0.55468 -0.375,-0.35157 -0.58593,-0.8125 -0.20313,-0.46875 -0.20313,-0.97657 z m 1.05469,-0.0937 q 0,0.33594 0.125,0.65625 0.125,0.3125 0.39062,0.57032 0.26563,0.25781 0.64844,0.42187 0.38281,0.15625 0.91406,0.15625 0.71875,0 1.42969,-0.3125 0.71094,-0.3125 1.13281,-0.85937 0.10938,-0.14063 0.1875,-0.30469 0.0781,-0.17188 0.0781,-0.3125 v -1.35938 q -0.54688,-0.21093 -1.14063,-0.32031 -0.58593,-0.11719 -1.14062,-0.11719 -1.17188,0 -1.89844,0.47657 -0.72656,0.46875 -0.72656,1.30468 z"
         style="font-style:normal;font-variant:normal;font-weight:normal;font-stretch:normal;line-height:17.01138687px;font-family:Raleway;-inkscape-font-specification:Raleway;fill:#333333"
         id="path1159" />
      <path
         d="m 359.15039,129.39437 v -8.33594 h 1.08594 v 8.33594 z m 0,-10.07813 v -1.60156 h 1.08594 v 1.60156 z"
         style="font-style:normal;font-variant:normal;font-weight:normal;font-stretch:normal;line-height:17.01138687px;font-family:Raleway;-inkscape-font-specification:Raleway;fill:#333333"
         id="path1161" />
      <path
         d="m 362.63477,127.87093 v -10.15625 h 1.08593 v 9.78906 q 0,0.46094 0.25,0.72656 0.25782,0.26563 0.72657,0.26563 0.17968,0 0.41406,-0.0469 0.24219,-0.0469 0.44531,-0.125 l 0.19531,0.875 q -0.30468,0.125 -0.75,0.20313 -0.4375,0.0859 -0.75781,0.0859 -0.75,0 -1.17969,-0.42188 -0.42968,-0.42187 -0.42968,-1.19531 z"
         style="font-style:normal;font-variant:normal;font-weight:normal;font-stretch:normal;line-height:17.01138687px;font-family:Raleway;-inkscape-font-specification:Raleway;fill:#333333"
         id="path1163" />
      <path
         d="m 370.37695,125.95687 v -4.89844 h 1.09375 v 4.70312 q 0,2.82813 1.92969,2.83594 0.47656,0 0.94531,-0.15625 0.46875,-0.16406 0.85938,-0.46875 0.39062,-0.30469 0.70312,-0.71875 0.3125,-0.42187 0.5,-0.94531 v -5.25 h 1.09375 v 6.92969 q 0,0.44531 0.39844,0.44531 v 0.96094 q -0.32031,0.0469 -0.45312,0.0469 -0.36719,0 -0.63282,-0.21875 -0.25781,-0.22656 -0.25781,-0.5625 v -1.15625 q -0.5625,0.97656 -1.49219,1.51563 -0.92968,0.53125 -2.03125,0.53125 -1.3125,0 -1.98437,-0.89844 -0.67188,-0.90625 -0.67188,-2.69531 z"
         style="font-style:normal;font-variant:normal;font-weight:normal;font-stretch:normal;line-height:17.01138687px;font-family:Raleway;-inkscape-font-specification:Raleway;fill:#333333"
         id="path1165" />
      <path
         d="m 379.25195,128.30843 0.5,-0.73438 q 0.70313,0.57813 1.42969,0.86719 0.72656,0.28125 1.5625,0.28125 1.00781,0 1.60156,-0.40625 0.60157,-0.40625 0.60157,-1.16406 0,-0.35156 -0.15625,-0.57813 -0.15625,-0.23437 -0.46875,-0.40625 -0.3125,-0.17968 -0.78907,-0.3125 -0.46875,-0.14062 -1.09375,-0.28125 -0.71875,-0.17968 -1.25,-0.35156 -0.52343,-0.17969 -0.86718,-0.39844 -0.34375,-0.22656 -0.51563,-0.55468 -0.16406,-0.32813 -0.16406,-0.82813 0,-0.625 0.24219,-1.10156 0.25,-0.48438 0.67187,-0.78906 0.42969,-0.3125 0.99219,-0.46875 0.57031,-0.16407 1.21094,-0.16407 0.96093,0 1.74218,0.3125 0.78125,0.30469 1.26563,0.82032 l -0.53125,0.64062 q -0.46094,-0.47656 -1.125,-0.71875 -0.66406,-0.24219 -1.38281,-0.24219 -0.42969,0 -0.80469,0.0937 -0.36719,0.0859 -0.64844,0.28125 -0.27344,0.1875 -0.4375,0.48438 -0.15625,0.28906 -0.15625,0.69531 0,0.33594 0.10938,0.54688 0.10937,0.20312 0.36718,0.35937 0.25782,0.14844 0.64844,0.27344 0.39063,0.11719 0.95313,0.24219 0.79687,0.19531 1.40625,0.39062 0.60937,0.1875 1.01562,0.44531 0.40625,0.25 0.61719,0.61719 0.21094,0.36719 0.21094,0.89844 0,1.14844 -0.88282,1.82031 -0.88281,0.67188 -2.36718,0.67188 -0.97657,0 -1.90625,-0.3125 -0.92969,-0.32032 -1.60157,-0.92969 z"
         style="font-style:normal;font-variant:normal;font-weight:normal;font-stretch:normal;line-height:17.01138687px;font-family:Raleway;-inkscape-font-specification:Raleway;fill:#333333"
         id="path1167" />
      <path
         d="m 391.12695,122.90218 v -0.86719 h 1.15625 v -1.20312 q 0,-1.53907 0.65625,-2.40625 0.65625,-0.875 1.80469,-0.875 0.47656,0 0.9375,0.14843 0.46875,0.14063 0.80469,0.38282 l -0.33594,0.78125 q -0.22656,-0.17969 -0.55469,-0.27344 -0.32031,-0.0937 -0.64062,-0.0937 -0.76563,0 -1.17969,0.59375 -0.40625,0.59375 -0.40625,1.71094 v 1.23437 h 2.30469 v 0.86719 h -2.30469 v 6.49219 h -1.08594 v -6.49219 z"
         style="font-style:normal;font-variant:normal;font-weight:normal;font-stretch:normal;line-height:17.01138687px;font-family:Raleway;-inkscape-font-specification:Raleway;fill:#333333"
         id="path1169" />
      <path
         d="m 396.72852,125.25374 q 0,-0.88281 0.3125,-1.66406 0.3125,-0.78906 0.85937,-1.375 0.55469,-0.59375 1.3125,-0.94531 0.76563,-0.35157 1.65625,-0.35157 0.89844,0 1.65625,0.35157 0.76563,0.35156 1.3125,0.94531 0.55469,0.58594 0.86719,1.375 0.3125,0.78125 0.3125,1.66406 0,0.86719 -0.3125,1.64844 -0.3125,0.78125 -0.86719,1.375 -0.54687,0.58594 -1.3125,0.92969 -0.75781,0.34375 -1.65625,0.34375 -0.91406,0 -1.67187,-0.34375 -0.75782,-0.34375 -1.3125,-0.92969 -0.54688,-0.59375 -0.85157,-1.375 -0.30468,-0.78906 -0.30468,-1.64844 z m 1.11718,0.0156 q 0,0.70312 0.23438,1.30468 0.23437,0.59375 0.64062,1.05469 0.40625,0.45313 0.95313,0.71094 0.55469,0.25781 1.17969,0.25781 0.625,0 1.17187,-0.26562 0.55469,-0.26563 0.96875,-0.71875 0.42188,-0.46094 0.65625,-1.0625 0.24219,-0.60938 0.24219,-1.3125 0,-0.6875 -0.24219,-1.30469 -0.23437,-0.61719 -0.65625,-1.07031 -0.41406,-0.46094 -0.96094,-0.72657 -0.53906,-0.26562 -1.16406,-0.26562 -0.625,0 -1.17969,0.26562 -0.54687,0.26563 -0.95312,0.73438 -0.40625,0.46094 -0.64844,1.07812 -0.24219,0.61719 -0.24219,1.32032 z"
         style="font-style:normal;font-variant:normal;font-weight:normal;font-stretch:normal;line-height:17.01138687px;font-family:Raleway;-inkscape-font-specification:Raleway;fill:#333333"
         id="path1171" />
      <path
         d="m 406.80664,129.39437 v -8.33594 h 1.02344 v 2 q 0.42969,-0.88281 1.13281,-1.46094 0.70313,-0.58594 1.52344,-0.58594 0.14062,0 0.26562,0 0.13282,0 0.21094,0.0156 v 0.99219 q -1.10156,0.0312 -1.92187,0.60937 -0.8125,0.57031 -1.14844,1.57813 v 5.1875 z"
         style="font-style:normal;font-variant:normal;font-weight:normal;font-stretch:normal;line-height:17.01138687px;font-family:Raleway;-inkscape-font-specification:Raleway;fill:#333333"
         id="path1173" />
      <path
         d="m 229.74414,146.40575 v -8.33594 h 0.98438 v 1.89063 q 0.51562,-0.96094 1.34375,-1.49219 0.83593,-0.53906 1.84375,-0.53906 1.05468,0 1.69531,0.59375 0.64062,0.58593 0.76562,1.54687 1.17188,-2.14062 3.23438,-2.14062 0.6875,0 1.17187,0.25781 0.49219,0.25 0.78907,0.72656 0.29687,0.46875 0.42968,1.13281 0.14063,0.66407 0.14063,1.47657 v 4.88281 h -1.09375 v -4.65625 q 0,-1.45313 -0.45313,-2.14063 -0.45312,-0.6875 -1.38281,-0.6875 -0.47656,0 -0.90625,0.17969 -0.42187,0.17188 -0.78125,0.49219 -0.35937,0.32031 -0.63281,0.75781 -0.27344,0.4375 -0.41406,0.96875 v 5.08594 h -1.09375 v -4.65625 q 0,-1.48438 -0.44532,-2.15625 -0.44531,-0.67188 -1.375,-0.67188 -0.94531,0 -1.67968,0.65625 -0.73438,0.64844 -1.05469,1.72657 v 5.10156 z"
         style="font-style:normal;font-variant:normal;font-weight:normal;font-stretch:normal;line-height:17.01138687px;font-family:Raleway;-inkscape-font-specification:Raleway;fill:#333333"
         id="path1175" />
      <path
         d="m 243.85352,142.26512 q 0,-0.88281 0.3125,-1.66406 0.3125,-0.78906 0.85937,-1.375 0.55469,-0.59375 1.3125,-0.94531 0.76563,-0.35156 1.65625,-0.35156 0.89844,0 1.65625,0.35156 0.76563,0.35156 1.3125,0.94531 0.55469,0.58594 0.86719,1.375 0.3125,0.78125 0.3125,1.66406 0,0.86719 -0.3125,1.64844 -0.3125,0.78125 -0.86719,1.375 -0.54687,0.58594 -1.3125,0.92969 -0.75781,0.34375 -1.65625,0.34375 -0.91406,0 -1.67187,-0.34375 -0.75782,-0.34375 -1.3125,-0.92969 -0.54688,-0.59375 -0.85157,-1.375 -0.30468,-0.78906 -0.30468,-1.64844 z m 1.11718,0.0156 q 0,0.70312 0.23438,1.30469 0.23437,0.59375 0.64062,1.05468 0.40625,0.45313 0.95313,0.71094 0.55469,0.25781 1.17969,0.25781 0.625,0 1.17187,-0.26562 0.55469,-0.26563 0.96875,-0.71875 0.42188,-0.46094 0.65625,-1.0625 0.24219,-0.60938 0.24219,-1.3125 0,-0.6875 -0.24219,-1.30469 -0.23437,-0.61719 -0.65625,-1.07031 -0.41406,-0.46094 -0.96094,-0.72656 -0.53906,-0.26563 -1.16406,-0.26563 -0.625,0 -1.17969,0.26563 -0.54687,0.26562 -0.95312,0.73437 -0.40625,0.46094 -0.64844,1.07813 -0.24219,0.61718 -0.24219,1.32031 z"
         style="font-style:normal;font-variant:normal;font-weight:normal;font-stretch:normal;line-height:17.01138687px;font-family:Raleway;-inkscape-font-specification:Raleway;fill:#333333"
         id="path1177" />
      <path
         d="m 253.93164,146.40575 v -8.33594 h 1.02344 v 2 q 0.42969,-0.88281 1.13281,-1.46094 0.70313,-0.58593 1.52344,-0.58593 0.14062,0 0.26562,0 0.13282,0 0.21094,0.0156 v 0.99219 q -1.10156,0.0312 -1.92187,0.60937 -0.8125,0.57032 -1.14844,1.57813 v 5.1875 z"
         style="font-style:normal;font-variant:normal;font-weight:normal;font-stretch:normal;line-height:17.01138687px;font-family:Raleway;-inkscape-font-specification:Raleway;fill:#333333"
         id="path1179" />
      <path
         d="m 259.00977,142.21044 q 0,-0.88282 0.3125,-1.65625 0.3125,-0.77344 0.86718,-1.35157 0.5625,-0.58593 1.32032,-0.92968 0.76562,-0.34375 1.67187,-0.34375 0.91406,0 1.67188,0.34375 0.76562,0.34375 1.30468,0.9375 0.54688,0.58593 0.85157,1.35937 0.30468,0.76563 0.30468,1.625 0,0.125 -0.008,0.25781 -0.008,0.13282 -0.0234,0.17969 h -7.125 q 0.0469,0.67188 0.3125,1.24219 0.26563,0.5625 0.67188,0.98437 0.41406,0.41407 0.94531,0.64844 0.53906,0.22656 1.14844,0.22656 0.41406,0 0.8125,-0.10937 0.39844,-0.11719 0.73437,-0.30469 0.33594,-0.19531 0.60157,-0.47656 0.26562,-0.28125 0.40625,-0.61719 l 0.94531,0.25781 q -0.19531,0.46094 -0.54688,0.84375 -0.35156,0.375 -0.8125,0.65625 -0.46093,0.28125 -1.02343,0.42969 -0.5625,0.14844 -1.15625,0.14844 -0.91407,0 -1.67969,-0.34375 -0.76563,-0.34375 -1.32813,-0.9375 -0.55468,-0.60156 -0.86718,-1.38281 -0.3125,-0.78907 -0.3125,-1.6875 z m 1.11718,-0.41407 h 6.14844 q -0.0469,-0.67187 -0.3125,-1.21875 -0.26562,-0.55468 -0.67969,-0.95312 -0.40625,-0.40625 -0.95312,-0.625 -0.53906,-0.22656 -1.14844,-0.22656 -0.60937,0 -1.15625,0.22656 -0.53906,0.21875 -0.94531,0.625 -0.40625,0.39844 -0.65625,0.96094 -0.25,0.55468 -0.29688,1.21093 z"
         style="font-style:normal;font-variant:normal;font-weight:normal;font-stretch:normal;line-height:17.01138687px;font-family:Raleway;-inkscape-font-specification:Raleway;fill:#333333"
         id="path1181" />
      <path
         d="m 273.05664,146.40575 v -8.33594 h 1.08594 v 8.33594 z m 0,-10.07813 v -1.60156 h 1.08594 v 1.60156 z"
         style="font-style:normal;font-variant:normal;font-weight:normal;font-stretch:normal;line-height:17.01138687px;font-family:Raleway;-inkscape-font-specification:Raleway;fill:#333333"
         id="path1183" />
      <path
         d="m 276.49414,146.40575 v -8.33594 h 0.98438 v 1.89063 q 0.25781,-0.44532 0.63281,-0.82032 0.38281,-0.38281 0.84375,-0.65625 0.46094,-0.27343 0.97656,-0.41406 0.52344,-0.14062 1.08594,-0.14062 0.70312,0 1.17187,0.25781 0.47657,0.25 0.76563,0.71875 0.28906,0.46094 0.41406,1.13281 0.13281,0.67188 0.13281,1.48438 v 4.88281 h -1.09375 v -4.65625 q 0,-1.48438 -0.42968,-2.15625 -0.42969,-0.67188 -1.34375,-0.67188 -0.47657,0 -0.96094,0.17969 -0.47656,0.17188 -0.89844,0.49219 -0.41406,0.32031 -0.72656,0.75781 -0.3125,0.4375 -0.46875,0.95313 v 5.10156 z"
         style="font-style:normal;font-variant:normal;font-weight:normal;font-stretch:normal;line-height:17.01138687px;font-family:Raleway;-inkscape-font-specification:Raleway;fill:#333333"
         id="path1185" />
      <path
         d="m 285.0332,139.91356 v -0.86719 h 1.15625 v -1.20312 q 0,-1.53906 0.65625,-2.40625 0.65625,-0.875 1.80469,-0.875 0.47656,0 0.9375,0.14844 0.46875,0.14062 0.80469,0.38281 l -0.33594,0.78125 q -0.22656,-0.17969 -0.55469,-0.27344 -0.32031,-0.0937 -0.64062,-0.0937 -0.76563,0 -1.17969,0.59375 -0.40625,0.59375 -0.40625,1.71094 v 1.23437 h 2.30469 v 0.86719 h -2.30469 v 6.49219 h -1.08594 v -6.49219 z"
         style="font-style:normal;font-variant:normal;font-weight:normal;font-stretch:normal;line-height:17.01138687px;font-family:Raleway;-inkscape-font-specification:Raleway;fill:#333333"
         id="path1187" />
      <path
         d="m 290.63477,142.26512 q 0,-0.88281 0.3125,-1.66406 0.3125,-0.78906 0.85937,-1.375 0.55469,-0.59375 1.3125,-0.94531 0.76563,-0.35156 1.65625,-0.35156 0.89844,0 1.65625,0.35156 0.76563,0.35156 1.3125,0.94531 0.55469,0.58594 0.86719,1.375 0.3125,0.78125 0.3125,1.66406 0,0.86719 -0.3125,1.64844 -0.3125,0.78125 -0.86719,1.375 -0.54687,0.58594 -1.3125,0.92969 -0.75781,0.34375 -1.65625,0.34375 -0.91406,0 -1.67187,-0.34375 -0.75782,-0.34375 -1.3125,-0.92969 -0.54688,-0.59375 -0.85157,-1.375 -0.30468,-0.78906 -0.30468,-1.64844 z m 1.11718,0.0156 q 0,0.70312 0.23438,1.30469 0.23437,0.59375 0.64062,1.05468 0.40625,0.45313 0.95313,0.71094 0.55469,0.25781 1.17969,0.25781 0.625,0 1.17187,-0.26562 0.55469,-0.26563 0.96875,-0.71875 0.42188,-0.46094 0.65625,-1.0625 0.24219,-0.60938 0.24219,-1.3125 0,-0.6875 -0.24219,-1.30469 -0.23437,-0.61719 -0.65625,-1.07031 -0.41406,-0.46094 -0.96094,-0.72656 -0.53906,-0.26563 -1.16406,-0.26563 -0.625,0 -1.17969,0.26563 -0.54687,0.26562 -0.95312,0.73437 -0.40625,0.46094 -0.64844,1.07813 -0.24219,0.61718 -0.24219,1.32031 z"
         style="font-style:normal;font-variant:normal;font-weight:normal;font-stretch:normal;line-height:17.01138687px;font-family:Raleway;-inkscape-font-specification:Raleway;fill:#333333"
         id="path1189" />
      <path
         d="m 300.5957,146.40575 v -1.57031 h 0.92969 v 1.57031 z"
         style="font-style:normal;font-variant:normal;font-weight:normal;font-stretch:normal;line-height:17.01138687px;font-family:Raleway;-inkscape-font-specification:Raleway;fill:#333333"
         id="path1191" />
    </g>
    <text
       id="text312"
       y="247.7688"
       x="4.582449"
       style="font-style:normal;font-variant:normal;font-weight:normal;font-stretch:normal;font-size:4.23333311px;line-height:4.23333311px;font-family:Ratbot;-inkscape-font-specification:Ratbot;letter-spacing:0px;word-spacing:0px;fill:#000000;fill-opacity:1;stroke:none;stroke-width:0.31066701"
       xml:space="preserve"><tspan
         style="stroke-width:0.31066701"
         y="251.15547"
         x="4.582449"
         id="tspan310"
         sodipodi:role="line" /></text>
    <path
       transform="matrix(0.26458333,0,0,0.28331463,-124.17449,244.68468)"
       style="clip-rule:evenodd;fill:#5f9744;fill-rule:evenodd;stroke-width:2.80919743"
       inkscape:connector-curvature="0"
       id="path198"
       d="m -1.5616416,235.24129 c -0.338646,-30.50713 -15.8538924,-58.00436 -45.8520074,-65.94437 0,0 22.376937,0.40084 40.167358,18.5059 0,0 -12.658126,-18.10506 -26.411098,-24.40811 0,0 32.2798656,10.19385 43.4683341,37.0142 0,0 -2.5677913,-11.13234 -5.6846494,-17.03214 0,0 7.8874923,8.71769 10.4552833,18.37148 0,0 1.834607,-24.13928 -6.6019524,-35.0004 0,0 7.5225434,4.55568 10.8235194,13.00694 0,0 -5.503819,-29.77025 -34.482708,-39.9617 0,0 34.111184,3.61957 41.633728,39.82969 0,0 8.808083,-33.79547 38.700988,-37.0142 0,0 -15.959103,2.81549 -23.843307,28.69734 0,0 8.620677,-15.42158 13.388023,-19.71322 0,0 -10.271165,16.09365 -12.47072,34.0619 0,0 8.801508,-41.43786 40.167358,-36.74537 0,0 -25.677913,-0.40325 -31.36585,41.03701 0,0 9.906216,-4.95891 11.00435,-13.00694 0,0 0.733185,9.52178 -4.767346,23.06397 0,0 10.169242,-16.95534 7.335137,-31.78166 0,0 4.39911,10.05703 6.233717,20.78613 0,0 1.101421,-18.91154 -5.868768,-26.68834 0,0 10.271165,7.10954 13.023075,32.72257 0,0 -0.917303,-25.47863 -3.853331,-32.98899 0,0 5.868767,13.27576 6.601952,23.20078 0,0 1.098134,-16.36008 9.173032,-27.49242 0,0 -5.868767,9.65379 -6.601952,32.31931 0,0 3.116858,-24.94336 20.174096,-38.35353 0,0 -6.233718,5.63097 -9.902931,22.93195 0,0 6.970191,-13.54459 21.459631,-19.04356 0,0 -17.974537,9.25055 -18.89184,33.92989 0,0 9.17303,-10.99553 11.37259,-19.4468 0,0 -0.73319,12.6037 -3.4851,22.52871 0,0 4.95147,-6.70388 5.3197,-11.12994 0,0 -0.18083,10.45787 -2.01543,18.77233 0,0 6.05288,-25.20979 18.15865,-34.86358 0,0 -7.1543,6.97031 -11.37258,27.22119 0,0 11.00435,-26.68593 28.79477,-38.88879 0,0 -17.05724,16.89774 -25.12885,50.55639 0,0 8.98892,-21.99586 17.24136,-28.2965 0,0 -4.58652,6.30304 -4.21828,16.49449 0.36823,10.19145 11.73753,-10.86111 4.40239,-21.4558 0,0 6.05289,4.82689 6.23701,19.04355 0,0 2.19955,-16.63131 -4.4024,-23.87045 0,0 10.6394,10.05944 14.30862,28.69975 0,0 0.36823,-23.46721 -1.46637,-29.63825 0,0 5.3197,12.33967 5.68464,21.99346 0,0 3.66922,-23.06397 -9.53798,-38.88879 0,0 9.90293,7.91121 12.65484,19.71323 0,0 -2.19955,-16.36009 6.97019,-36.34454 0,0 -5.5071,24.67453 -0.55235,47.87532 0,0 0.9173,-19.84763 13.02307,-32.85457 0,0 -7.15102,18.77232 -0.54906,36.47414 0,0 8.43327,-7.51037 8.98562,-15.01834 0,0 1.65049,18.37148 -0.73318,28.02768 0,0 7.1543,-22.12548 2.38696,-39.42645 0,0 13.94038,24.00246 15.77169,55.64971 0,0 -0.73318,-31.38082 5.87206,-44.78859 0,0 0.73318,20.11646 2.93274,27.62443 0,0 13.57214,-50.6932 53.19043,-64.36981 0,0 -26.04286,9.92502 -42.91927,59.54292 0,0 8.62068,-17.56021 19.07268,-23.73124 0,0 -8.43327,9.38496 -14.12121,27.75885 0,0 22.37694,-41.03702 36.31403,-48.6818 0,0 -15.95911,18.64031 -23.65919,47.33766 0,0 22.74188,-51.22606 56.67552,-36.60856 0,0 -33.20045,-5.77019 -40.90054,40.36015 0,0 9.17303,-3.21393 11.55671,-15.15036 0,0 5.13558,9.38496 -0.91731,25.74984 0,0 11.92166,-23.33519 9.53798,-40.63377 0,0 4.77064,16.62891 4.4024,29.90467 0,0 4.76735,-29.77026 14.48945,-36.0733 0,0 -4.22157,7.91361 -1.46966,22.66313 0,0 26.23027,-36.87739 -27.3284,-55.92335 0,0 35.58413,6.97032 41.08466,37.54706 0,0 13.20719,-27.62684 42.55432,-34.59715 0,0 -31.18174,10.45787 -38.51687,50.15555 0,0 8.80479,-12.87492 20.17738,-20.92295 0,0 -12.10577,11.53318 -14.67356,40.76819 0,0 20.90728,-23.06637 17.24135,-52.30138 0,0 8.43656,15.28958 3.30098,46.93923 0,0 11.00435,-58.73884 30.08031,-65.1739 0,0 -20.17738,8.58088 -14.30533,76.70708 0,0 9.69908,-40.54736 7.70338,-53.10545 0,0 6.9669,13.14375 6.23371,24.4081 0,0 9.53798,-27.35561 34.48271,-31.38082 0,0 -30.44526,8.58328 -26.4111,65.17389 0,0 4.76735,-63.83455 43.28751,-58.47 0,0 -31.18174,-1.60576 -30.8135,48.54738 0,0 11.00764,-40.23053 46.22353,-52.29897 0,0 -30.81678,12.87253 -35.95236,53.37188 0,0 5.13558,-18.5035 16.13993,-24.53772 0,0 -9.7221,12.74051 -8.98563,30.03908 0.73319,17.30098 15.4199,-31.76246 13.57214,-40.76578 0,0 3.30098,13.67901 0.91731,28.29651 0,0 8.80479,-31.78407 20.35821,-39.16002 0,0 -7.15431,8.8521 -7.70666,21.85904 -0.54907,13.00934 26.59521,-17.84103 2.01872,-44.39255 0,0 19.4442,13.41257 15.0418,41.03701 0,0 4.76735,-19.30998 -0.73647,-34.59716 0,0 12.10577,19.04356 4.77063,53.10546 0,0 9.53798,-31.64965 32.27987,-48.27856 0,0 -20.17738,16.62891 -21.64375,47.20565 0,0 4.40239,-29.36462 32.83222,-38.21673 0,0 -30.26443,13.54219 -26.23027,60.47661 0,0 2.93603,-51.89333 36.31731,-51.35807 0,0 -20.35821,-2.41225 -24.76061,43.45166 0,0 12.28989,-15.556 12.28989,-30.1735 0,0 2.19956,8.18244 1.10143,21.4582 0,0 7.88749,-21.59022 6.78607,-29.90707 0,0 2.19955,7.37596 1.8346,15.95684 0,0 12.10906,-21.32139 -2.74862,-39.15762 0,0 14.30533,9.6538 10.08705,41.03702 0,0 5.13558,-18.5059 3.66921,-27.62444 0,0 4.4024,17.565 2.01873,36.87738 0,0 2.93602,-20.38529 13.20719,-31.91847 0,0 -10.452,15.82482 -9.90293,40.23293 0,0 -0.18412,-13.94543 20.54233,-31.112 0,0 -16.14322,15.45519 -15.0418,39.02561 0,0 8.25244,-16.49689 8.80151,-23.06637 0,0 1.8346,8.31446 1.10142,12.6061 0,0 11.37259,-15.95684 5.50382,-34.73397 0,0 4.77063,12.87493 3.66921,20.38289 0,0 15.7717,-28.83416 34.29859,-40.90259 0,0 -22.0087,22.12786 -27.87747,48.81621 0,0 28.79806,-40.50176 61.99523,-54.71602 0,0 -20.3615,9.92022 -39.43746,39.69048 0,0 6.60524,-4.95651 23.29424,-9.6514 0,0 -16.689,5.49897 -30.44855,23.87045 0,0 17.22492,-7.17193 19.26008,-13.27816 0,0 -1.83789,9.78581 -5.86877,18.64031 0,0 9.5347,-14.21186 9.90293,-21.85424 0,0 0.91731,18.64032 -1.46637,27.2236 0,0 13.71023,-25.39701 11.73754,-40.90261 0,0 7.33842,19.17318 0.73647,51.35568 0,0 10.63612,-40.76819 7.33514,-65.44272 0,0 4.58652,20.12126 2.01544,37.0166 0,0 10.82023,-23.46721 4.76734,-48.94822 0,0 8.62397,16.35768 2.01873,43.58367 0,0 5.50053,-16.22807 19.44091,-22.66313 0,0 -13.94038,7.63999 -14.30862,38.21432 0,0 8.43656,-8.04082 7.15431,-21.71983 0,0 8.25244,5.49897 7.51925,23.60163 0,0 2.87028,-19.75643 -1.10142,-28.56293 0,0 6.60524,9.65379 6.97019,19.04355 0,0 -0.73318,-34.73636 37.41874,-48.41537 0,0 -26.4111,7.37116 -26.4111,62.22639 0,0 5.86548,-57.66592 44.75059,-54.98485 0,0 -18.33949,-1.60816 -28.24571,32.45374 0,0 10.45529,-8.84731 11.00764,-14.6151 0,0 1.09813,17.16656 -8.8048,31.91848 0,0 13.2072,-15.69042 14.1245,-23.73844 0,0 1.6472,16.63131 -7.52254,29.36941 0,0 18.70772,-13.27576 11.5567,-43.98692 0,0 8.62068,17.29858 8.62068,28.69975 0,0 5.13558,-22.26228 -3.66921,-33.39223 0,0 7.70666,3.886 11.92165,15.5536 0,0 5.32299,-10.99553 23.84659,-15.5536 0,0 -23.29424,10.18905 -18.89184,35.67006 0,0 5.3197,-27.49002 30.8135,-29.63824 0,0 -24.39566,7.37596 -24.39566,46.66799 0,0 9.7221,-13.27816 6.78607,-22.53111 0,0 3.66921,3.08432 3.66921,5.09572 0,0 1.28225,-11.79961 14.85439,-22.93195 0,0 -10.81694,9.11614 -11.55341,39.9593 0,0 28.61065,-28.96617 6.97019,-63.56572 0,0 17.97125,16.09365 11.36929,47.20564 0,0 6.97019,-18.23947 3.30427,-35.40363 0,0 8.06832,16.63131 6.60195,25.47861 0,0 4.4024,-30.30791 23.47836,-45.8615 0,0 -18.70772,20.41649 -18.70772,60.34699 0,0 5.50381,-28.42852 17.42547,-39.82729 0,0 -10.45529,19.85004 -3.4851,36.0757 6.97019,16.22567 0.73319,-12.60609 0.73319,-12.60609 0,0 2.20284,0.26883 4.76734,6.97272 2.5678,6.70388 1.46637,-22.79755 17.05724,-28.02768 0,0 -10.82023,5.63338 -10.08705,32.31932 0,0 9.35715,-10.59709 8.98892,-15.556 0,0 1.09813,14.21666 -0.73648,20.78614 -1.83789,6.56947 28.79806,-30.57674 -13.38802,-54.44719 0,0 40.34819,6.29824 34.47942,70.13279 0,0 15.0418,-39.42644 13.94038,-76.16941 0,0 5.13558,21.99346 1.10142,45.59508 0,0 10.63283,-36.20772 47.32167,-50.42438 0,0 -27.87747,8.44407 -45.12211,68.12619 0,0 11.92165,-25.61062 19.80914,-31.37602 0,0 -7.15431,9.65379 -12.83896,29.77025 -5.68464,20.11648 20.35493,-28.43091 20.17739,-45.19423 0,0 2.93274,26.68354 -10.6394,52.16215 0,0 20.17738,-17.43539 20.17738,-61.68633 0,0 5.13887,21.72463 3.30426,32.45373 0,0 7.15431,-25.47621 30.99762,-18.50349 0,0 -23.65919,-0.66968 -25.12885,32.32171 0,0 7.8842,-19.04356 24.20825,-25.349 0,0 -11.92165,7.64718 -14.12449,27.89566 -2.19956,20.24848 36.86967,-20.92775 9.35715,-44.7958 0,0 19.80586,9.12094 16.13993,37.81828 0,0 5.13558,-30.04147 31.54668,-52.03254 0,0 -22.74517,21.72464 -19.44091,57.66352 3.30098,35.94129 12.10577,-25.48101 12.10577,-25.48101 0,0 5.13559,12.06843 2.20285,30.04148 0,0 9.53469,-12.87252 5.86876,-50.95723 0,0 8.43656,19.30999 9.5347,29.235 0,0 2.20284,-20.65171 -2.93274,-32.98898 0,0 13.2039,15.55359 13.93709,34.05949 0,0 1.46637,-21.4534 32.27983,-27.62444 0,0 -28.97886,5.89981 -27.87743,65.70915 0,0 3.30097,-63.02807 42.91923,-58.73642 0,0 -25.30964,-3.22114 -30.08028,49.88431 0,0 11.37258,-43.18043 47.68988,-54.98004 0,0 -28.6139,9.38737 -40.35145,55.25127 0,0 7.70995,-18.5011 17.05725,-25.07297 0,0 -10.0871,10.59229 -12.6581,25.47861 0,0 17.6095,-32.85457 30.8167,-42.24433 -25.668,24.89775 -18.6945,66.43402 -0.7529,25.03456 7.6607,-17.68261 12.428,-37.91909 5.5236,-49.44267 0,0 13.5721,14.48069 9.1697,38.08231 0,0 13.9404,-19.57881 28.249,-27.89327 0,0 -15.0385,11.53559 -21.6437,43.18044 0,0 18.7044,-35.93889 38.1519,-45.86151 0,0 -25.313,19.58121 -30.4486,57.66352 0,0 15.9197,-15.49839 16.8732,-29.77025 0,0 3.3042,26.28509 -1.4664,42.10992 0,0 13.2072,-31.64965 11.3726,-52.03254 0,0 2.936,23.06396 0.7364,45.32625 0,0 7.3319,-22.79754 24.5765,-32.98899 0,0 -9.5347,5.50136 -13.2072,20.78854 0,0 5.8688,-9.78821 15.775,-13.41018 0,0 -11.3693,6.57188 -15.0385,25.48101 0,0 12.839,-25.21218 30.4486,-35.80687 0,0 -15.0386,13.41018 -20.9073,35.13721 0,0 13.5557,-22.3967 41.8178,-35.94129 -26.467,19.88124 -35.1929,41.09702 -34.6668,64.60263 z"
       clip-path="url(#clipPath1042)" />
  </g>
</svg>
