<?xml version="1.0" encoding="UTF-8" standalone="no"?>
<!-- Generator: Adobe Illustrator 14.0.0, SVG Export Plug-In . SVG Version: 6.00 Build 43363)  -->

<svg
   xmlns:dc="http://purl.org/dc/elements/1.1/"
   xmlns:cc="http://creativecommons.org/ns#"
   xmlns:rdf="http://www.w3.org/1999/02/22-rdf-syntax-ns#"
   xmlns:svg="http://www.w3.org/2000/svg"
   xmlns="http://www.w3.org/2000/svg"
   xmlns:xlink="http://www.w3.org/1999/xlink"
   xmlns:sodipodi="http://sodipodi.sourceforge.net/DTD/sodipodi-0.dtd"
   xmlns:inkscape="http://www.inkscape.org/namespaces/inkscape"
   version="1.1"
   id="Layer_1"
   x="0px"
   y="0px"
   width="134.99768"
   height="40"
   viewBox="0 0 134.99768 40"
   enable-background="new 0 0 512 512"
   xml:space="preserve"
   sodipodi:docname="google_play.svg"
   inkscape:version="0.92.2 (5c3e80d, 2017-08-06)"><metadata
     id="metadata203"><rdf:RDF><cc:Work
         rdf:about=""><dc:format>image/svg+xml</dc:format><dc:type
           rdf:resource="http://purl.org/dc/dcmitype/StillImage" /><dc:title></dc:title></cc:Work></rdf:RDF></metadata><defs
     id="defs201"><defs
       id="defs3"><rect
         height="512"
         width="512"
         y="0"
         id="SVGID_1_"
         x="0" /></defs><clipPath
       id="SVGID_2_"><use
         id="use5"
         overflow="visible"
         xlink:href="#SVGID_1_"
         style="overflow:visible"
         x="0"
         y="0"
         width="100%"
         height="100%" /></clipPath></defs><sodipodi:namedview
     pagecolor="#ffffff"
     bordercolor="#666666"
     borderopacity="1"
     objecttolerance="10"
     gridtolerance="10"
     guidetolerance="10"
     inkscape:pageopacity="0"
     inkscape:pageshadow="2"
     inkscape:window-width="1920"
     inkscape:window-height="1001"
     id="namedview199"
     showgrid="false"
     inkscape:zoom="1.3037281"
     inkscape:cx="147.718"
     inkscape:cy="87.771318"
     inkscape:window-x="-9"
     inkscape:window-y="-9"
     inkscape:window-maximized="1"
     inkscape:current-layer="Layer_1"
     fit-margin-top="0"
     fit-margin-left="0"
     fit-margin-right="0"
     fit-margin-bottom="0" /><g
     id="g60"
     clip-path="url(#SVGID_2_)"
     transform="translate(-66.213,-272.235)"><defs
       id="defs9"><rect
         x="0"
         height="512"
         width="512"
         y="0"
         id="SVGID_3_" /></defs><clipPath
       id="SVGID_4_"><use
         height="100%"
         width="100%"
         y="0"
         x="0"
         style="overflow:visible"
         id="use11"
         overflow="visible"
         xlink:href="#SVGID_3_" /></clipPath></g><g
     id="g1235"
     transform="matrix(0.35565672,0,0,0.35565672,-23.549098,-71.048476)"
     style="stroke-width:2.81170011"><path
       clip-path="url(#SVGID_4_)"
       d="M 431.729,312.233 H 80.271 c -7.732,0 -14.058,-6.325 -14.058,-14.058 v -84.35 c 0,-7.732 6.326,-14.058 14.058,-14.058 h 351.457 c 7.732,0 14.058,6.326 14.058,14.058 v 84.35 c 0,7.733 -6.325,14.058 -14.057,14.058"
       id="path26"
       inkscape:connector-curvature="0"
       style="stroke-width:7.90565729" /><path
       clip-path="url(#SVGID_4_)"
       d="m 431.729,202.017 c 6.512,0 11.809,5.297 11.809,11.809 v 84.35 c 0,6.512 -5.297,11.81 -11.809,11.81 H 80.271 c -6.511,0 -11.809,-5.298 -11.809,-11.81 v -84.35 c 0,-6.512 5.298,-11.809 11.809,-11.809 h 351.458 m 0,-2.249 H 80.271 c -7.732,0 -14.058,6.326 -14.058,14.058 v 84.35 c 0,7.732 6.326,14.059 14.058,14.059 h 351.457 c 7.732,0 14.058,-6.326 14.058,-14.059 v -84.35 c 0,-7.732 -6.325,-14.058 -14.057,-14.058"
       id="path28"
       inkscape:connector-curvature="0"
       style="fill:#a6a6a6;stroke-width:2.81170011" /><path
       clip-path="url(#SVGID_4_)"
       d="m 199.538,228.568 c 0,2.356 -0.698,4.232 -2.095,5.631 -1.587,1.664 -3.655,2.496 -6.197,2.496 -2.436,0 -4.506,-0.843 -6.209,-2.531 -1.705,-1.689 -2.556,-3.782 -2.556,-6.28 0,-2.498 0.851,-4.591 2.556,-6.279 1.703,-1.689 3.773,-2.533 6.209,-2.533 1.208,0 2.364,0.236 3.462,0.707 1.098,0.472 1.98,1.099 2.639,1.885 l -1.483,1.484 c -1.117,-1.335 -2.655,-2.002 -4.618,-2.002 -1.777,0 -3.312,0.623 -4.608,1.873 -1.296,1.249 -1.944,2.87 -1.944,4.865 0,1.995 0.648,3.616 1.944,4.866 1.296,1.249 2.831,1.872 4.608,1.872 1.883,0 3.454,-0.627 4.711,-1.883 0.816,-0.819 1.288,-1.957 1.414,-3.417 h -6.125 v -2.027 h 8.174 c 0.079,0.441 0.118,0.864 0.118,1.273"
       id="path30"
       inkscape:connector-curvature="0"
       style="fill:#ffffff;stroke-width:2.81170011" /><path
       clip-path="url(#SVGID_4_)"
       stroke-miterlimit="10"
       d="m 199.538,228.568 c 0,2.356 -0.698,4.232 -2.095,5.631 -1.587,1.664 -3.655,2.496 -6.197,2.496 -2.436,0 -4.506,-0.843 -6.209,-2.531 -1.705,-1.689 -2.556,-3.782 -2.556,-6.28 0,-2.498 0.851,-4.591 2.556,-6.279 1.703,-1.689 3.773,-2.533 6.209,-2.533 1.208,0 2.364,0.236 3.462,0.707 1.098,0.472 1.98,1.099 2.639,1.885 l -1.483,1.484 c -1.117,-1.335 -2.655,-2.002 -4.618,-2.002 -1.777,0 -3.312,0.623 -4.608,1.873 -1.296,1.249 -1.944,2.87 -1.944,4.865 0,1.995 0.648,3.616 1.944,4.866 1.296,1.249 2.831,1.872 4.608,1.872 1.883,0 3.454,-0.627 4.711,-1.883 0.816,-0.819 1.288,-1.957 1.414,-3.417 h -6.125 v -2.027 h 8.174 c 0.079,0.441 0.118,0.864 0.118,1.273 z"
       id="path32"
       inkscape:connector-curvature="0"
       style="fill:none;stroke:#ffffff;stroke-width:0.56234002;stroke-miterlimit:10" /><polygon
       clip-path="url(#SVGID_4_)"
       points="212.498,234.246 212.498,236.319 202.648,236.319 202.648,219.449 212.498,219.449 212.498,221.522 204.814,221.522 204.814,226.871 211.743,226.871 211.743,228.897 204.814,228.897 204.814,234.246 "
       id="polygon34"
       style="fill:#ffffff;stroke-width:2.81170011" /><polygon
       clip-path="url(#SVGID_4_)"
       stroke-miterlimit="10"
       points="212.498,234.246 212.498,236.319 202.648,236.319 202.648,219.449 212.498,219.449 212.498,221.522 204.814,221.522 204.814,226.871 211.743,226.871 211.743,228.897 204.814,228.897 204.814,234.246 "
       id="polygon36"
       style="fill:none;stroke:#ffffff;stroke-width:0.56234002;stroke-miterlimit:10" /><polygon
       clip-path="url(#SVGID_4_)"
       points="221.638,221.522 221.638,236.319 219.469,236.319 219.469,221.522 214.757,221.522 214.757,219.449 226.35,219.449 226.35,221.522 "
       id="polygon38"
       style="fill:#ffffff;stroke-width:2.81170011" /><polygon
       clip-path="url(#SVGID_4_)"
       stroke-miterlimit="10"
       points="221.638,221.522 221.638,236.319 219.469,236.319 219.469,221.522 214.757,221.522 214.757,219.449 226.35,219.449 226.35,221.522 "
       id="polygon40"
       style="fill:none;stroke:#ffffff;stroke-width:0.56234002;stroke-miterlimit:10" /><rect
       x="234.73801"
       y="219.45"
       clip-path="url(#SVGID_4_)"
       width="2.1659999"
       height="16.870001"
       id="rect42"
       style="fill:#ffffff;stroke-width:2.81170011" /><rect
       x="234.73801"
       y="219.45"
       clip-path="url(#SVGID_4_)"
       stroke-miterlimit="10"
       width="2.1659999"
       height="16.870001"
       id="rect44"
       style="fill:none;stroke:#ffffff;stroke-width:0.56234002;stroke-miterlimit:10" /><polygon
       clip-path="url(#SVGID_4_)"
       points="246.52,221.522 246.52,236.319 244.351,236.319 244.351,221.522 239.639,221.522 239.639,219.449 251.232,219.449 251.232,221.522 "
       id="polygon46"
       style="fill:#ffffff;stroke-width:2.81170011" /><polygon
       clip-path="url(#SVGID_4_)"
       stroke-miterlimit="10"
       points="246.52,221.522 246.52,236.319 244.351,236.319 244.351,221.522 239.639,221.522 239.639,219.449 251.232,219.449 251.232,221.522 "
       id="polygon48"
       style="fill:none;stroke:#ffffff;stroke-width:0.56234002;stroke-miterlimit:10" /><path
       clip-path="url(#SVGID_4_)"
       d="m 273.178,234.139 c -1.659,1.705 -3.721,2.556 -6.187,2.556 -2.466,0 -4.527,-0.851 -6.184,-2.556 -1.658,-1.704 -2.485,-3.789 -2.485,-6.255 0,-2.466 0.827,-4.551 2.485,-6.255 1.656,-1.705 3.718,-2.558 6.184,-2.558 2.452,0 4.509,0.857 6.176,2.569 1.664,1.712 2.495,3.793 2.495,6.244 0,2.466 -0.829,4.551 -2.484,6.255 m -10.77,-1.413 c 1.249,1.264 2.776,1.896 4.583,1.896 1.807,0 3.336,-0.632 4.582,-1.896 1.25,-1.264 1.876,-2.879 1.876,-4.842 0,-1.963 -0.626,-3.578 -1.876,-4.842 -1.246,-1.265 -2.775,-1.896 -4.582,-1.896 -1.807,0 -3.334,0.631 -4.583,1.896 -1.247,1.264 -1.873,2.879 -1.873,4.842 0,1.963 0.626,3.578 1.873,4.842"
       id="path50"
       inkscape:connector-curvature="0"
       style="fill:#ffffff;stroke-width:2.81170011" /><path
       clip-path="url(#SVGID_4_)"
       stroke-miterlimit="10"
       d="m 273.178,234.139 c -1.659,1.705 -3.721,2.556 -6.187,2.556 -2.466,0 -4.527,-0.851 -6.184,-2.556 -1.658,-1.704 -2.485,-3.789 -2.485,-6.255 0,-2.466 0.827,-4.551 2.485,-6.255 1.656,-1.705 3.718,-2.558 6.184,-2.558 2.452,0 4.509,0.857 6.176,2.569 1.664,1.712 2.495,3.793 2.495,6.244 0,2.466 -0.829,4.551 -2.484,6.255 z m -10.77,-1.413 c 1.249,1.264 2.776,1.896 4.583,1.896 1.807,0 3.336,-0.632 4.582,-1.896 1.25,-1.264 1.876,-2.879 1.876,-4.842 0,-1.963 -0.626,-3.578 -1.876,-4.842 -1.246,-1.265 -2.775,-1.896 -4.582,-1.896 -1.807,0 -3.334,0.631 -4.583,1.896 -1.247,1.264 -1.873,2.879 -1.873,4.842 0,1.963 0.626,3.578 1.873,4.842 z"
       id="path52"
       inkscape:connector-curvature="0"
       style="fill:none;stroke:#ffffff;stroke-width:0.56234002;stroke-miterlimit:10" /><polygon
       clip-path="url(#SVGID_4_)"
       points="291.712,219.449 291.712,236.319 289.448,236.319 280.871,222.56 280.777,222.56 280.871,225.811 280.871,236.319 278.705,236.319 278.705,219.449 281.344,219.449 289.543,232.572 289.636,232.572 289.543,229.321 289.543,219.449 "
       id="polygon54"
       style="fill:#ffffff;stroke-width:2.81170011" /><polygon
       clip-path="url(#SVGID_4_)"
       stroke-miterlimit="10"
       points="291.712,219.449 291.712,236.319 289.448,236.319 280.871,222.56 280.777,222.56 280.871,225.811 280.871,236.319 278.705,236.319 278.705,219.449 281.344,219.449 289.543,232.572 289.636,232.572 289.543,229.321 289.543,219.449 "
       id="polygon56"
       style="fill:none;stroke:#ffffff;stroke-width:0.56234002;stroke-miterlimit:10" /><path
       clip-path="url(#SVGID_4_)"
       d="m 257.788,260.925 c -6.614,0 -12.004,5.028 -12.004,11.958 0,6.885 5.39,11.959 12.004,11.959 6.613,0 12.004,-5.074 12.004,-11.959 0,-6.929 -5.391,-11.958 -12.004,-11.958 m 0,19.206 c -3.624,0 -6.749,-2.99 -6.749,-7.248 0,-4.303 3.125,-7.247 6.749,-7.247 3.624,0 6.749,2.944 6.749,7.247 0,4.258 -3.125,7.248 -6.749,7.248 m -26.186,-19.206 c -6.614,0 -12.004,5.028 -12.004,11.958 0,6.885 5.39,11.959 12.004,11.959 6.613,0 12.003,-5.074 12.003,-11.959 0,-6.929 -5.39,-11.958 -12.003,-11.958 m 0,19.206 c -3.624,0 -6.749,-2.99 -6.749,-7.248 0,-4.303 3.125,-7.247 6.749,-7.247 3.624,0 6.749,2.944 6.749,7.247 0,4.258 -3.125,7.248 -6.749,7.248 m -31.15,-15.537 v 5.073 h 12.14 c -0.363,2.854 -1.314,4.937 -2.763,6.387 -1.767,1.768 -4.53,3.714 -9.377,3.714 -7.474,0 -13.317,-6.023 -13.317,-13.498 0,-7.474 5.843,-13.499 13.317,-13.499 4.032,0 6.976,1.586 9.15,3.624 l 3.579,-3.578 c -3.035,-2.899 -7.066,-5.119 -12.729,-5.119 -10.237,0 -18.844,8.335 -18.844,18.571 0,10.237 8.607,18.572 18.844,18.572 5.526,0 9.694,-1.812 12.955,-5.209 3.352,-3.353 4.394,-8.063 4.394,-11.868 0,-1.178 -0.09,-2.265 -0.272,-3.171 h -17.077 z m 127.391,3.942 c -0.996,-2.673 -4.03,-7.61 -10.236,-7.61 -6.16,0 -11.279,4.848 -11.279,11.958 0,6.704 5.074,11.959 11.868,11.959 5.48,0 8.651,-3.352 9.965,-5.3 l -4.076,-2.718 c -1.359,1.993 -3.216,3.307 -5.889,3.307 -2.673,0 -4.575,-1.223 -5.798,-3.624 l 15.989,-6.613 z m -16.306,3.986 c -0.136,-4.62 3.578,-6.977 6.25,-6.977 2.084,0 3.851,1.042 4.439,2.537 z m -13.001,11.596 h 5.254 v -35.15 h -5.254 z m -8.606,-20.521 h -0.181 c -1.178,-1.403 -3.443,-2.672 -6.297,-2.672 -5.979,0 -11.46,5.254 -11.46,12.003 0,6.705 5.48,11.914 11.46,11.914 2.854,0 5.119,-1.269 6.297,-2.718 h 0.181 v 1.721 c 0,4.575 -2.445,7.021 -6.387,7.021 -3.216,0 -5.209,-2.311 -6.025,-4.258 l -4.574,1.902 c 1.313,3.171 4.802,7.066 10.6,7.066 6.16,0 11.369,-3.624 11.369,-12.457 V 261.65 h -4.982 v 1.947 z m -6.025,16.534 c -3.623,0 -6.658,-3.035 -6.658,-7.203 0,-4.212 3.035,-7.292 6.658,-7.292 3.579,0 6.387,3.08 6.387,7.292 0,4.168 -2.808,7.203 -6.387,7.203 m 68.551,-31.164 h -12.571 v 35.15 h 5.246 V 270.8 h 7.325 c 5.816,0 11.531,-4.21 11.531,-10.917 0,-6.706 -5.715,-10.916 -11.531,-10.916 m 0.136,16.942 h -7.461 V 253.86 h 7.461 c 3.922,0 6.15,3.249 6.15,6.024 0,2.725 -2.228,6.025 -6.15,6.025 m 32.423,-5.048 c -3.799,0 -7.732,1.673 -9.36,5.381 l 4.658,1.944 c 0.994,-1.944 2.849,-2.577 4.793,-2.577 2.713,0 5.472,1.628 5.517,4.521 v 0.362 c -0.95,-0.543 -2.984,-1.357 -5.472,-1.357 -5.02,0 -10.129,2.759 -10.129,7.914 0,4.703 4.114,7.733 8.728,7.733 3.527,0 5.471,-1.583 6.692,-3.438 h 0.181 v 2.713 h 5.065 v -13.475 c 0,-6.24 -4.659,-9.721 -10.673,-9.721 m -0.633,19.264 c -1.719,0 -4.115,-0.859 -4.115,-2.985 0,-2.713 2.984,-3.753 5.563,-3.753 2.306,0 3.391,0.498 4.793,1.176 -0.408,3.256 -3.211,5.562 -6.241,5.562 m 29.755,-18.496 -6.015,15.239 h -0.181 l -6.24,-15.239 h -5.652 l 9.36,21.299 -5.336,11.848 h 5.472 L 419.97,261.63 h -5.833 z m -47.256,22.489 h 5.245 v -35.15 h -5.245 z"
       id="path58"
       inkscape:connector-curvature="0"
       style="fill:#ffffff;stroke-width:2.81170011" /><g
       clip-path="url(#SVGID_2_)"
       id="g83"
       style="stroke-width:2.81170011"><defs
         id="defs63"><path
           id="SVGID_7_"
           d="m 95.554,220.962 c -0.817,0.865 -1.301,2.208 -1.301,3.95 v 62.182 c 0,1.743 0.484,3.085 1.301,3.951 l 0.208,0.202 34.833,-34.834 v -0.41 -0.411 L 95.762,220.757 Z"
           inkscape:connector-curvature="0" /></defs><clipPath
         id="SVGID_8_"><use
           xlink:href="#SVGID_7_"
           overflow="visible"
           id="use65"
           style="overflow:visible"
           x="0"
           y="0"
           width="100%"
           height="100%" /></clipPath><linearGradient
         id="SVGID_9_"
         gradientUnits="userSpaceOnUse"
         x1="0"
         y1="511.82281"
         x2="1"
         y2="511.82281"
         gradientTransform="matrix(-47.1863,47.1863,-47.1863,-47.1863,24286.902,24383.66)"><stop
           offset="0"
           style="stop-color:#00A0FF"
           id="stop68" /><stop
           offset="0.0066"
           style="stop-color:#00A1FF"
           id="stop70" /><stop
           offset="0.2601"
           style="stop-color:#00BEFF"
           id="stop72" /><stop
           offset="0.5122"
           style="stop-color:#00D2FF"
           id="stop74" /><stop
           offset="0.7604"
           style="stop-color:#00DFFF"
           id="stop76" /><stop
           offset="1"
           style="stop-color:#00E3FF"
           id="stop78" /></linearGradient><polygon
         clip-path="url(#SVGID_8_)"
         points="112.424,202.586 59.008,256.002 112.424,309.418 165.84,256.002 "
         id="polygon81"
         style="fill:url(#SVGID_9_);stroke-width:2.81170011" /></g><g
       clip-path="url(#SVGID_2_)"
       id="g102"
       style="stroke-width:2.81170011"><defs
         id="defs86"><path
           id="SVGID_10_"
           d="m 130.595,255.592 v 0.411 0.41 l 11.611,11.617 0.265,-0.15 13.756,-7.815 c 3.93,-2.234 3.93,-5.888 0,-8.121 l -13.756,-7.816 -0.262,-0.15 z"
           inkscape:connector-curvature="0" /></defs><clipPath
         id="SVGID_11_"><use
           xlink:href="#SVGID_10_"
           overflow="visible"
           id="use88"
           style="overflow:visible"
           x="0"
           y="0"
           width="100%"
           height="100%" /></clipPath><linearGradient
         id="SVGID_12_"
         gradientUnits="userSpaceOnUse"
         x1="0"
         y1="512.00049"
         x2="1"
         y2="512.00049"
         gradientTransform="matrix(-68.0333,0,0,-68.0333,161.3467,35089.066)"><stop
           offset="0"
           style="stop-color:#FFE000"
           id="stop91" /><stop
           offset="0.4087"
           style="stop-color:#FFBD00"
           id="stop93" /><stop
           offset="0.7754"
           style="stop-color:#FFA500"
           id="stop95" /><stop
           offset="1"
           style="stop-color:#FF9C00"
           id="stop97" /></linearGradient><rect
         x="130.595"
         y="243.979"
         clip-path="url(#SVGID_11_)"
         width="29.562"
         height="24.052"
         id="rect100"
         style="fill:url(#SVGID_12_);stroke-width:2.81170011" /></g><g
       clip-path="url(#SVGID_2_)"
       id="g117"
       style="stroke-width:2.81170011"><defs
         id="defs105"><path
           id="SVGID_13_"
           d="m 95.554,291.045 c 1.296,1.37 3.433,1.54 5.843,0.172 l 41.074,-23.338 -11.876,-11.876 z"
           inkscape:connector-curvature="0" /></defs><clipPath
         id="SVGID_14_"><use
           xlink:href="#SVGID_13_"
           overflow="visible"
           id="use107"
           style="overflow:visible"
           x="0"
           y="0"
           width="100%"
           height="100%" /></clipPath><linearGradient
         id="SVGID_15_"
         gradientUnits="userSpaceOnUse"
         x1="0"
         y1="512.0415"
         x2="1"
         y2="512.0415"
         gradientTransform="matrix(-63.9884,63.9884,-63.9884,-63.9884,32898.133,33024.535)"><stop
           offset="0"
           style="stop-color:#FF3A44"
           id="stop110" /><stop
           offset="1"
           style="stop-color:#C31162"
           id="stop112" /></linearGradient><polygon
         clip-path="url(#SVGID_14_)"
         points="119.013,232.545 77.263,274.294 119.013,316.044 160.762,274.294 "
         id="polygon115"
         style="fill:url(#SVGID_15_);stroke-width:2.81170011" /></g><g
       clip-path="url(#SVGID_2_)"
       id="g138"
       style="stroke-width:2.81170011"><defs
         id="defs120"><path
           id="SVGID_16_"
           d="m 95.554,220.962 35.041,35.041 11.876,-11.876 -41.074,-23.338 c -1.13,-0.642 -2.2,-0.945 -3.151,-0.945 -1.078,-0.001 -2.004,0.389 -2.692,1.118"
           inkscape:connector-curvature="0" /></defs><clipPath
         id="SVGID_17_"><use
           xlink:href="#SVGID_16_"
           overflow="visible"
           id="use122"
           style="overflow:visible"
           x="0"
           y="0"
           width="100%"
           height="100%" /></clipPath><linearGradient
         id="SVGID_18_"
         gradientUnits="userSpaceOnUse"
         x1="0"
         y1="512.09418"
         x2="1"
         y2="512.09418"
         gradientTransform="matrix(28.5735,28.5735,-28.5735,28.5735,14716.369,-14429.369)"><stop
           offset="0"
           style="stop-color:#32A071"
           id="stop125" /><stop
           offset="0.0685"
           style="stop-color:#2DA771"
           id="stop127" /><stop
           offset="0.4762"
           style="stop-color:#15CF74"
           id="stop129" /><stop
           offset="0.8009"
           style="stop-color:#06E775"
           id="stop131" /><stop
           offset="1"
           style="stop-color:#00F076"
           id="stop133" /></linearGradient><polygon
         clip-path="url(#SVGID_17_)"
         points="77.474,237.923 119.013,279.462 160.551,237.923 119.013,196.385 "
         id="polygon136"
         style="fill:url(#SVGID_18_);stroke-width:2.81170011" /></g><g
       clip-path="url(#SVGID_2_)"
       id="g194"
       style="stroke-width:2.81170011"><defs
         id="defs141"><rect
           id="SVGID_19_"
           y="0"
           width="512"
           height="512"
           x="0" /></defs><clipPath
         id="SVGID_20_"><use
           xlink:href="#SVGID_19_"
           overflow="visible"
           id="use143"
           style="overflow:visible"
           x="0"
           y="0"
           width="100%"
           height="100%" /></clipPath><g
         clip-path="url(#SVGID_20_)"
         enable-background="new    "
         id="g156"
         style="opacity:0.2;stroke-width:2.81170011"><g
           id="g154"
           style="stroke-width:2.81170011"><defs
             id="defs147"><rect
               id="SVGID_21_"
               x="95.554001"
               y="267.61801"
               width="46.917"
               height="24.545" /></defs><clipPath
             id="SVGID_22_"><use
               xlink:href="#SVGID_21_"
               overflow="visible"
               id="use149"
               style="overflow:visible"
               x="0"
               y="0"
               width="100%"
               height="100%" /></clipPath><path
             clip-path="url(#SVGID_22_)"
             d="m 142.209,267.618 -40.812,23.189 c -2.283,1.297 -4.324,1.21 -5.633,0.03 l -0.21,0.209 0.208,0.202 0.002,-0.002 c 1.309,1.182 3.35,1.27 5.633,-0.029 l 41.074,-23.338 z"
             id="path152"
             inkscape:connector-curvature="0"
             style="stroke-width:2.81170011" /></g></g><g
         clip-path="url(#SVGID_20_)"
         enable-background="new    "
         id="g168"
         style="opacity:0.12000002;stroke-width:2.81170011"><g
           id="g166"
           style="stroke-width:2.81170011"><defs
             id="defs159"><rect
               id="SVGID_23_"
               x="94.252998"
               y="286.685"
               width="1.511"
               height="4.3610001" /></defs><clipPath
             id="SVGID_24_"><use
               xlink:href="#SVGID_23_"
               overflow="visible"
               id="use161"
               style="overflow:visible"
               x="0"
               y="0"
               width="100%"
               height="100%" /></clipPath><path
             clip-path="url(#SVGID_24_)"
             d="m 95.554,290.635 c -0.818,-0.866 -1.301,-2.209 -1.301,-3.95 v 0.411 c 0,1.741 0.483,3.084 1.301,3.95 l 0.209,-0.21 z"
             id="path164"
             inkscape:connector-curvature="0"
             style="stroke-width:2.81170011" /></g></g><g
         clip-path="url(#SVGID_20_)"
         enable-background="new    "
         id="g180"
         style="opacity:0.12000002;stroke-width:2.81170011"><g
           id="g178"
           style="stroke-width:2.81170011"><defs
             id="defs171"><rect
               id="SVGID_25_"
               x="142.209"
               y="256.004"
               width="16.966"
               height="11.875" /></defs><clipPath
             id="SVGID_26_"><use
               xlink:href="#SVGID_25_"
               overflow="visible"
               id="use173"
               style="overflow:visible"
               x="0"
               y="0"
               width="100%"
               height="100%" /></clipPath><path
             clip-path="url(#SVGID_26_)"
             d="m 156.228,259.652 -14.019,7.966 0.262,0.262 13.757,-7.816 c 1.964,-1.116 2.947,-2.587 2.947,-4.059 -0.165,1.33 -1.165,2.635 -2.947,3.647"
             id="path176"
             inkscape:connector-curvature="0"
             style="stroke-width:2.81170011" /></g></g><g
         clip-path="url(#SVGID_20_)"
         enable-background="new    "
         id="g192"
         style="opacity:0.25;stroke-width:2.81170011"><g
           id="g190"
           style="stroke-width:2.81170011"><defs
             id="defs183"><rect
               id="SVGID_27_"
               x="94.252998"
               y="219.84399"
               width="64.921997"
               height="36.159" /></defs><clipPath
             id="SVGID_28_"><use
               xlink:href="#SVGID_27_"
               overflow="visible"
               id="use185"
               style="overflow:visible"
               x="0"
               y="0"
               width="100%"
               height="100%" /></clipPath><path
             clip-path="url(#SVGID_28_)"
             d="m 101.397,221.201 54.831,31.153 c 1.782,1.012 2.781,2.316 2.947,3.649 10e-4,-1.471 -0.982,-2.943 -2.947,-4.06 L 101.397,220.79 c -3.93,-2.233 -7.144,-0.378 -7.144,4.123 v 0.411 c 0,-4.501 3.214,-6.355 7.144,-4.123"
             id="path188"
             inkscape:connector-curvature="0"
             style="fill:#ffffff;stroke-width:2.81170011" /></g></g></g></g></svg>